<svg xmlns="http://www.w3.org/2000/svg" version="1.1" width="400" height="66">
<path d="M 2.878906 13.319336 L 2.878906 6.412109 L 6.729980 6.412109 L 6.729980 7.335938 L 3.738281 7.335938 L 3.738281 13.319336 Z " fill="rgb(0, 0, 0)" fill-opacity="1.000000" />
<path d="M 2.878906 39.319336 L 2.878906 25.300781 L 3.738281 25.300781 L 3.738281 39.319336 Z " fill="rgb(0, 0, 0)" fill-opacity="1.000000" />
<path d="M 2.878906 59.335938 L 2.878906 51.300781 L 3.738281 51.300781 L 3.738281 58.412109 L 6.729980 58.412109 L 6.729980 59.335938 Z " fill="rgb(0, 0, 0)" fill-opacity="1.000000" />
<path d="M 13.892578 59.335938 L 13.892578 58.412109 L 20.729980 58.412109 L 20.729980 59.335938 Z " fill="rgb(0, 0, 0)" fill-opacity="1.000000" />
<path d="M 27.892578 59.335938 L 27.892578 58.412109 L 34.729980 58.412109 L 34.729980 59.335938 Z " fill="rgb(0, 0, 0)" fill-opacity="1.000000" />
<path d="M 41.892578 59.335938 L 41.892578 58.412109 L 48.729980 58.412109 L 48.729980 59.335938 Z " fill="rgb(0, 0, 0)" fill-opacity="1.000000" />
<path d="M 55.892578 59.335938 L 55.892578 58.412109 L 62.729980 58.412109 L 62.729980 59.335938 Z " fill="rgb(0, 0, 0)" fill-opacity="1.000000" />
<path d="M 69.892578 59.335938 L 69.892578 58.412109 L 72.878906 58.412109 L 72.878906 51.300781 L 73.738281 51.300781 L 73.738281 59.335938 Z " fill="rgb(0, 0, 0)" fill-opacity="1.000000" />
<path d="M 107.878906 59.335938 L 107.878906 51.300781 L 108.738281 51.300781 L 108.738281 58.412109 L 111.729980 58.412109 L 111.729980 59.335938 Z " fill="rgb(0, 0, 0)" fill-opacity="1.000000" />
<path d="M 111.892578 59.335938 L 111.892578 58.412109 L 118.729980 58.412109 L 118.729980 59.335938 Z " fill="rgb(0, 0, 0)" fill-opacity="1.000000" />
<path d="M 118.892578 59.335938 L 118.892578 58.412109 L 125.729980 58.412109 L 125.729980 59.335938 Z " fill="rgb(0, 0, 0)" fill-opacity="1.000000" />
<path d="M 125.892578 59.335938 L 125.892578 58.412109 L 132.729980 58.412109 L 132.729980 59.335938 Z " fill="rgb(0, 0, 0)" fill-opacity="1.000000" />
<path d="M 132.892578 59.335938 L 132.892578 58.412109 L 139.729980 58.412109 L 139.729980 59.335938 Z " fill="rgb(0, 0, 0)" fill-opacity="1.000000" />
<path d="M 139.892578 59.335938 L 139.892578 58.412109 L 146.729980 58.412109 L 146.729980 59.335938 Z " fill="rgb(0, 0, 0)" fill-opacity="1.000000" />
<path d="M 146.892578 59.335938 L 146.892578 58.412109 L 153.729980 58.412109 L 153.729980 59.335938 Z " fill="rgb(0, 0, 0)" fill-opacity="1.000000" />
<path d="M 153.892578 59.335938 L 153.892578 58.412109 L 160.729980 58.412109 L 160.729980 59.335938 Z " fill="rgb(0, 0, 0)" fill-opacity="1.000000" />
<path d="M 160.892578 59.335938 L 160.892578 58.412109 L 163.878906 58.412109 L 163.878906 51.300781 L 164.738281 51.300781 L 164.738281 59.335938 Z " fill="rgb(0, 0, 0)" fill-opacity="1.000000" />
<path d="M 198.878906 59.335938 L 198.878906 51.300781 L 199.738281 51.300781 L 199.738281 58.412109 L 202.729980 58.412109 L 202.729980 59.335938 Z " fill="rgb(0, 0, 0)" fill-opacity="1.000000" />
<path d="M 202.892578 59.335938 L 202.892578 58.412109 L 209.729980 58.412109 L 209.729980 59.335938 Z " fill="rgb(0, 0, 0)" fill-opacity="1.000000" />
<path d="M 209.892578 59.335938 L 209.892578 58.412109 L 216.729980 58.412109 L 216.729980 59.335938 Z " fill="rgb(0, 0, 0)" fill-opacity="1.000000" />
<path d="M 216.892578 59.335938 L 216.892578 58.412109 L 223.729980 58.412109 L 223.729980 59.335938 Z " fill="rgb(0, 0, 0)" fill-opacity="1.000000" />
<path d="M 223.892578 59.335938 L 223.892578 58.412109 L 230.729980 58.412109 L 230.729980 59.335938 Z " fill="rgb(0, 0, 0)" fill-opacity="1.000000" />
<path d="M 230.892578 59.335938 L 230.892578 58.412109 L 237.729980 58.412109 L 237.729980 59.335938 Z " fill="rgb(0, 0, 0)" fill-opacity="1.000000" />
<path d="M 237.892578 59.335938 L 237.892578 58.412109 L 244.729980 58.412109 L 244.729980 59.335938 Z " fill="rgb(0, 0, 0)" fill-opacity="1.000000" />
<path d="M 244.892578 59.335938 L 244.892578 58.412109 L 251.729980 58.412109 L 251.729980 59.335938 Z " fill="rgb(0, 0, 0)" fill-opacity="1.000000" />
<path d="M 251.892578 59.335938 L 251.892578 58.412109 L 258.729980 58.412109 L 258.729980 59.335938 Z " fill="rgb(0, 0, 0)" fill-opacity="1.000000" />
<path d="M 258.892578 59.335938 L 258.892578 58.412109 L 265.729980 58.412109 L 265.729980 59.335938 Z " fill="rgb(0, 0, 0)" fill-opacity="1.000000" />
<path d="M 265.892578 59.335938 L 265.892578 58.412109 L 272.729980 58.412109 L 272.729980 59.335938 Z " fill="rgb(0, 0, 0)" fill-opacity="1.000000" />
<path d="M 272.892578 59.335938 L 272.892578 58.412109 L 279.729980 58.412109 L 279.729980 59.335938 Z " fill="rgb(0, 0, 0)" fill-opacity="1.000000" />
<path d="M 279.892578 59.335938 L 279.892578 58.412109 L 282.878906 58.412109 L 282.878906 51.300781 L 283.738281 51.300781 L 283.738281 59.335938 Z " fill="rgb(0, 0, 0)" fill-opacity="1.000000" />
<path d="M 317.878906 59.335938 L 317.878906 51.300781 L 318.738281 51.300781 L 318.738281 58.412109 L 321.729980 58.412109 L 321.729980 59.335938 Z " fill="rgb(0, 0, 0)" fill-opacity="1.000000" />
<path d="M 321.892578 59.335938 L 321.892578 58.412109 L 328.729980 58.412109 L 328.729980 59.335938 Z " fill="rgb(0, 0, 0)" fill-opacity="1.000000" />
<path d="M 328.892578 59.335938 L 328.892578 58.412109 L 335.729980 58.412109 L 335.729980 59.335938 Z " fill="rgb(0, 0, 0)" fill-opacity="1.000000" />
<path d="M 335.892578 59.335938 L 335.892578 58.412109 L 342.729980 58.412109 L 342.729980 59.335938 Z " fill="rgb(0, 0, 0)" fill-opacity="1.000000" />
<path d="M 342.892578 59.335938 L 342.892578 58.412109 L 349.729980 58.412109 L 349.729980 59.335938 Z " fill="rgb(0, 0, 0)" fill-opacity="1.000000" />
<path d="M 349.892578 59.335938 L 349.892578 58.412109 L 356.729980 58.412109 L 356.729980 59.335938 Z " fill="rgb(0, 0, 0)" fill-opacity="1.000000" />
<path d="M 356.892578 59.335938 L 356.892578 58.412109 L 363.729980 58.412109 L 363.729980 59.335938 Z " fill="rgb(0, 0, 0)" fill-opacity="1.000000" />
<path d="M 363.892578 59.335938 L 363.892578 58.412109 L 370.729980 58.412109 L 370.729980 59.335938 Z " fill="rgb(0, 0, 0)" fill-opacity="1.000000" />
<path d="M 370.892578 59.335938 L 370.892578 58.412109 L 377.729980 58.412109 L 377.729980 59.335938 Z " fill="rgb(0, 0, 0)" fill-opacity="1.000000" />
<path d="M 377.892578 59.335938 L 377.892578 58.412109 L 384.729980 58.412109 L 384.729980 59.335938 Z " fill="rgb(0, 0, 0)" fill-opacity="1.000000" />
<path d="M 384.892578 59.335938 L 384.892578 58.412109 L 391.729980 58.412109 L 391.729980 59.335938 Z " fill="rgb(0, 0, 0)" fill-opacity="1.000000" />
<path d="M 391.892578 59.335938 L 391.892578 58.412109 L 394.878906 58.412109 L 394.878906 51.300781 L 395.738281 51.300781 L 395.738281 59.335938 Z " fill="rgb(0, 0, 0)" fill-opacity="1.000000" />
<path d="M 70.032227 46.142578 L 76.590332 42.866211 L 76.590332 49.418945 Z " fill="rgb(0, 0, 0)" fill-opacity="1.000000" />
<path d="M 76.892578 46.335938 L 76.892578 45.412109 L 83.729980 45.412109 L 83.729980 46.335938 Z " fill="rgb(0, 0, 0)" fill-opacity="1.000000" />
<path d="M 83.892578 46.335938 L 83.892578 45.412109 L 90.729980 45.412109 L 90.729980 46.335938 Z " fill="rgb(0, 0, 0)" fill-opacity="1.000000" />
<path d="M 90.892578 46.335938 L 90.892578 45.412109 L 97.729980 45.412109 L 97.729980 46.335938 Z " fill="rgb(0, 0, 0)" fill-opacity="1.000000" />
<path d="M 97.892578 46.335938 L 97.892578 45.412109 L 104.729980 45.412109 L 104.729980 46.335938 Z " fill="rgb(0, 0, 0)" fill-opacity="1.000000" />
<path d="M 107.878906 52.319336 L 107.878906 46.335938 L 104.892578 46.335938 L 104.892578 45.412109 L 107.878906 45.412109 L 107.878906 38.300781 L 108.738281 38.300781 L 108.738281 52.319336 Z " fill="rgb(0, 0, 0)" fill-opacity="1.000000" />
<path d="M 161.032227 46.142578 L 167.590332 42.866211 L 167.590332 49.418945 Z " fill="rgb(0, 0, 0)" fill-opacity="1.000000" />
<path d="M 167.892578 46.335938 L 167.892578 45.412109 L 174.729980 45.412109 L 174.729980 46.335938 Z " fill="rgb(0, 0, 0)" fill-opacity="1.000000" />
<path d="M 174.892578 46.335938 L 174.892578 45.412109 L 181.729980 45.412109 L 181.729980 46.335938 Z " fill="rgb(0, 0, 0)" fill-opacity="1.000000" />
<path d="M 181.892578 46.335938 L 181.892578 45.412109 L 188.729980 45.412109 L 188.729980 46.335938 Z " fill="rgb(0, 0, 0)" fill-opacity="1.000000" />
<path d="M 188.892578 46.335938 L 188.892578 45.412109 L 195.729980 45.412109 L 195.729980 46.335938 Z " fill="rgb(0, 0, 0)" fill-opacity="1.000000" />
<path d="M 198.878906 52.319336 L 198.878906 46.335938 L 195.892578 46.335938 L 195.892578 45.412109 L 198.878906 45.412109 L 198.878906 38.300781 L 199.738281 38.300781 L 199.738281 52.319336 Z " fill="rgb(0, 0, 0)" fill-opacity="1.000000" />
<path d="M 231.252441 40.980957 L 237.370117 40.980957 L 237.370117 41.894043 L 234.861816 41.894043 L 234.861816 49.000000 L 233.771484 49.000000 L 233.771484 41.894043 L 231.252441 41.894043 Z " fill="rgb(0, 0, 0)" fill-opacity="1.000000" />
<path d="M 243.763184 48.715332 Q 243.349609 48.935547 242.914551 49.045654 Q 242.479492 49.155762 241.990723 49.155762 Q 240.449219 49.155762 239.597900 48.065430 Q 238.746582 46.975098 238.746582 44.998535 Q 238.746582 43.032715 239.603271 41.934326 Q 240.459961 40.835938 241.990723 40.835938 Q 242.479492 40.835938 242.914551 40.946045 Q 243.349609 41.056152 243.763184 41.276367 L 243.763184 42.388184 Q 243.365723 42.060547 242.909180 41.888672 Q 242.452637 41.716797 241.990723 41.716797 Q 240.932617 41.716797 240.406250 42.533203 Q 239.879883 43.349609 239.879883 44.998535 Q 239.879883 46.642090 240.406250 47.458496 Q 240.932617 48.274902 241.990723 48.274902 Q 242.463379 48.274902 242.917236 48.103027 Q 243.371094 47.931152 243.763184 47.603516 Z " fill="rgb(0, 0, 0)" fill-opacity="1.000000" />
<path d="M 247.143066 41.872559 L 247.143066 44.885742 L 248.399902 44.885742 Q 249.151855 44.885742 249.573486 44.488281 Q 249.995117 44.090820 249.995117 43.376465 Q 249.995117 42.662109 249.576172 42.267334 Q 249.157227 41.872559 248.399902 41.872559 Z M 246.058105 40.980957 L 248.399902 40.980957 Q 249.742676 40.980957 250.435547 41.590576 Q 251.128418 42.200195 251.128418 43.376465 Q 251.128418 44.563477 250.438232 45.170410 Q 249.748047 45.777344 248.399902 45.777344 L 247.143066 45.777344 L 247.143066 49.000000 L 246.058105 49.000000 Z " fill="rgb(0, 0, 0)" fill-opacity="1.000000" />
<path d="M 280.032227 46.142578 L 286.590332 42.866211 L 286.590332 49.418945 Z " fill="rgb(0, 0, 0)" fill-opacity="1.000000" />
<path d="M 286.892578 46.335938 L 286.892578 45.412109 L 293.729980 45.412109 L 293.729980 46.335938 Z " fill="rgb(0, 0, 0)" fill-opacity="1.000000" />
<path d="M 293.892578 46.335938 L 293.892578 45.412109 L 300.729980 45.412109 L 300.729980 46.335938 Z " fill="rgb(0, 0, 0)" fill-opacity="1.000000" />
<path d="M 300.892578 46.335938 L 300.892578 45.412109 L 307.729980 45.412109 L 307.729980 46.335938 Z " fill="rgb(0, 0, 0)" fill-opacity="1.000000" />
<path d="M 307.892578 46.335938 L 307.892578 45.412109 L 314.729980 45.412109 L 314.729980 46.335938 Z " fill="rgb(0, 0, 0)" fill-opacity="1.000000" />
<path d="M 317.878906 52.319336 L 317.878906 46.335938 L 314.892578 46.335938 L 314.892578 45.412109 L 317.878906 45.412109 L 317.878906 38.300781 L 318.738281 38.300781 L 318.738281 52.319336 Z " fill="rgb(0, 0, 0)" fill-opacity="1.000000" />
<path d="M 394.878906 52.319336 L 394.878906 38.300781 L 395.738281 38.300781 L 395.738281 52.319336 Z " fill="rgb(0, 0, 0)" fill-opacity="1.000000" />
<path d="M 30.089355 33.830078 L 31.979980 33.830078 L 31.979980 36.000000 L 30.089355 36.000000 Z " fill="rgb(0, 0, 0)" fill-opacity="1.000000" />
<path d="M 37.089355 33.830078 L 38.979980 33.830078 L 38.979980 36.000000 L 37.089355 36.000000 Z " fill="rgb(0, 0, 0)" fill-opacity="1.000000" />
<path d="M 44.089355 33.830078 L 45.979980 33.830078 L 45.979980 36.000000 L 44.089355 36.000000 Z " fill="rgb(0, 0, 0)" fill-opacity="1.000000" />
<path d="M 72.878906 39.319336 L 72.878906 25.300781 L 73.738281 25.300781 L 73.738281 39.319336 Z " fill="rgb(0, 0, 0)" fill-opacity="1.000000" />
<path d="M 107.878906 39.319336 L 107.878906 25.300781 L 108.738281 25.300781 L 108.738281 39.319336 Z " fill="rgb(0, 0, 0)" fill-opacity="1.000000" />
<path d="M 126.585449 35.672363 L 126.585449 34.404785 Q 127.074219 34.839844 127.595215 35.057373 Q 128.116211 35.274902 128.674805 35.274902 Q 129.442871 35.274902 129.746338 34.874756 Q 130.049805 34.474609 130.049805 33.384277 L 130.049805 28.894043 L 128.003418 28.894043 L 128.003418 27.980957 L 131.134766 27.980957 L 131.134766 33.384277 Q 131.134766 34.898926 130.568115 35.527344 Q 130.001465 36.155762 128.674805 36.155762 Q 128.159180 36.155762 127.648926 36.037598 Q 127.138672 35.919434 126.585449 35.672363 Z " fill="rgb(0, 0, 0)" fill-opacity="1.000000" />
<path d="M 136.308594 35.086914 L 138.193848 27.980957 L 139.316406 27.980957 L 136.969238 36.000000 L 135.653320 36.000000 L 133.306152 27.980957 L 134.428711 27.980957 Z " fill="rgb(0, 0, 0)" fill-opacity="1.000000" />
<path d="M 140.193359 28.007812 L 141.643555 28.007812 L 143.029297 32.079102 L 144.425781 28.007812 L 145.881348 28.007812 L 145.881348 36.000000 L 144.876953 36.000000 L 144.876953 28.937012 L 143.448242 33.147949 L 142.626465 33.147949 L 141.192383 28.937012 L 141.192383 36.000000 L 140.193359 36.000000 Z " fill="rgb(0, 0, 0)" fill-opacity="1.000000" />
<path d="M 163.878906 39.319336 L 163.878906 25.300781 L 164.738281 25.300781 L 164.738281 39.319336 Z " fill="rgb(0, 0, 0)" fill-opacity="1.000000" />
<path d="M 198.878906 39.319336 L 198.878906 25.300781 L 199.738281 25.300781 L 199.738281 39.319336 Z " fill="rgb(0, 0, 0)" fill-opacity="1.000000" />
<path d="M 210.000000 29.984375 L 210.977539 29.984375 L 212.024902 34.845215 L 212.884277 31.740723 L 213.727539 31.740723 L 214.597656 34.845215 L 215.645020 29.984375 L 216.622559 29.984375 L 215.215332 36.000000 L 214.270020 36.000000 L 213.308594 32.702148 L 212.352539 36.000000 L 211.407227 36.000000 Z " fill="rgb(0, 0, 0)" fill-opacity="1.000000" />
<path d="M 223.015625 32.498047 L 223.015625 32.981445 L 218.734863 32.981445 L 218.734863 33.013672 Q 218.691895 34.243652 219.204834 34.780762 Q 219.717773 35.317871 220.652344 35.317871 Q 221.125000 35.317871 221.640625 35.167480 Q 222.156250 35.017090 222.741699 34.710938 L 222.741699 35.693848 Q 222.177734 35.924805 221.654053 36.040283 Q 221.130371 36.155762 220.641602 36.155762 Q 219.239746 36.155762 218.450195 35.315186 Q 217.660645 34.474609 217.660645 32.997559 Q 217.660645 31.558105 218.434082 30.698730 Q 219.207520 29.839355 220.496582 29.839355 Q 221.645996 29.839355 222.309326 30.618164 Q 222.972656 31.396973 223.015625 32.498047 Z M 222.027344 32.208008 Q 221.962891 31.584961 221.573486 31.131104 Q 221.184082 30.677246 220.453613 30.677246 Q 219.739258 30.677246 219.277344 31.149902 Q 218.815430 31.622559 218.772461 32.213379 Z " fill="rgb(0, 0, 0)" fill-opacity="1.000000" />
<path d="M 228.930664 32.997559 Q 228.930664 31.848145 228.565430 31.262695 Q 228.200195 30.677246 227.485840 30.677246 Q 226.766113 30.677246 226.395508 31.265381 Q 226.024902 31.853516 226.024902 32.997559 Q 226.024902 34.136230 226.395508 34.727051 Q 226.766113 35.317871 227.485840 35.317871 Q 228.200195 35.317871 228.565430 34.732422 Q 228.930664 34.146973 228.930664 32.997559 Z M 226.024902 30.752441 Q 226.261230 30.312012 226.677490 30.075684 Q 227.093750 29.839355 227.641602 29.839355 Q 228.726562 29.839355 229.349609 30.674561 Q 229.972656 31.509766 229.972656 32.976074 Q 229.972656 34.463867 229.346924 35.309814 Q 228.721191 36.155762 227.630859 36.155762 Q 227.093750 36.155762 226.682861 35.922119 Q 226.271973 35.688477 226.024902 35.242676 L 226.024902 36.000000 L 225.036621 36.000000 L 225.036621 27.642578 L 226.024902 27.642578 Z " fill="rgb(0, 0, 0)" fill-opacity="1.000000" />
<path d="M 236.226074 30.193848 L 236.226074 31.160645 Q 235.801758 30.913574 235.372070 30.790039 Q 234.942383 30.666504 234.496582 30.666504 Q 233.825195 30.666504 233.494873 30.884033 Q 233.164551 31.101562 233.164551 31.547363 Q 233.164551 31.950195 233.411621 32.148926 Q 233.658691 32.347656 234.641602 32.535645 L 235.039062 32.610840 Q 235.774902 32.750488 236.153564 33.169434 Q 236.532227 33.588379 236.532227 34.259766 Q 236.532227 35.151367 235.898438 35.653564 Q 235.264648 36.155762 234.136719 36.155762 Q 233.690918 36.155762 233.202148 36.061768 Q 232.713379 35.967773 232.144043 35.779785 L 232.144043 34.759277 Q 232.697266 35.043945 233.202148 35.186279 Q 233.707031 35.328613 234.158203 35.328613 Q 234.813477 35.328613 235.173340 35.062744 Q 235.533203 34.796875 235.533203 34.318848 Q 235.533203 33.631348 234.217285 33.368164 L 234.174316 33.357422 L 233.803711 33.282227 Q 232.949707 33.115723 232.557617 32.720947 Q 232.165527 32.326172 232.165527 31.644043 Q 232.165527 30.779297 232.750977 30.309326 Q 233.336426 29.839355 234.421387 29.839355 Q 234.904785 29.839355 235.350586 29.927979 Q 235.796387 30.016602 236.226074 30.193848 Z " fill="rgb(0, 0, 0)" fill-opacity="1.000000" />
<path d="M 241.308594 30.677246 Q 240.556641 30.677246 240.169922 31.262695 Q 239.783203 31.848145 239.783203 32.997559 Q 239.783203 34.141602 240.169922 34.729736 Q 240.556641 35.317871 241.308594 35.317871 Q 242.065918 35.317871 242.452637 34.729736 Q 242.839355 34.141602 242.839355 32.997559 Q 242.839355 31.848145 242.452637 31.262695 Q 242.065918 30.677246 241.308594 30.677246 Z M 241.308594 29.839355 Q 242.560059 29.839355 243.223389 30.650391 Q 243.886719 31.461426 243.886719 32.997559 Q 243.886719 34.539062 243.226074 35.347412 Q 242.565430 36.155762 241.308594 36.155762 Q 240.057129 36.155762 239.396484 35.347412 Q 238.735840 34.539062 238.735840 32.997559 Q 238.735840 31.461426 239.396484 30.650391 Q 240.057129 29.839355 241.308594 29.839355 Z " fill="rgb(0, 0, 0)" fill-opacity="1.000000" />
<path d="M 250.698730 35.693848 Q 250.301270 35.924805 249.879639 36.040283 Q 249.458008 36.155762 249.017578 36.155762 Q 247.621094 36.155762 246.834229 35.317871 Q 246.047363 34.479980 246.047363 32.997559 Q 246.047363 31.515137 246.834229 30.677246 Q 247.621094 29.839355 249.017578 29.839355 Q 249.452637 29.839355 249.866211 29.952148 Q 250.279785 30.064941 250.698730 30.301270 L 250.698730 31.337891 Q 250.306641 30.988770 249.911865 30.833008 Q 249.517090 30.677246 249.017578 30.677246 Q 248.088379 30.677246 247.588867 31.278809 Q 247.089355 31.880371 247.089355 32.997559 Q 247.089355 34.109375 247.591553 34.713623 Q 248.093750 35.317871 249.017578 35.317871 Q 249.533203 35.317871 249.941406 35.159424 Q 250.349609 35.000977 250.698730 34.667969 Z " fill="rgb(0, 0, 0)" fill-opacity="1.000000" />
<path d="M 253.267578 27.642578 L 254.288086 27.642578 L 254.288086 32.481934 L 256.882324 29.984375 L 258.085449 29.984375 L 255.716797 32.250977 L 258.456055 36.000000 L 257.247559 36.000000 L 255.023926 32.895508 L 254.288086 33.588379 L 254.288086 36.000000 L 253.267578 36.000000 Z " fill="rgb(0, 0, 0)" fill-opacity="1.000000" />
<path d="M 265.015625 32.498047 L 265.015625 32.981445 L 260.734863 32.981445 L 260.734863 33.013672 Q 260.691895 34.243652 261.204834 34.780762 Q 261.717773 35.317871 262.652344 35.317871 Q 263.125000 35.317871 263.640625 35.167480 Q 264.156250 35.017090 264.741699 34.710938 L 264.741699 35.693848 Q 264.177734 35.924805 263.654053 36.040283 Q 263.130371 36.155762 262.641602 36.155762 Q 261.239746 36.155762 260.450195 35.315186 Q 259.660645 34.474609 259.660645 32.997559 Q 259.660645 31.558105 260.434082 30.698730 Q 261.207520 29.839355 262.496582 29.839355 Q 263.645996 29.839355 264.309326 30.618164 Q 264.972656 31.396973 265.015625 32.498047 Z M 264.027344 32.208008 Q 263.962891 31.584961 263.573486 31.131104 Q 263.184082 30.677246 262.453613 30.677246 Q 261.739258 30.677246 261.277344 31.149902 Q 260.815430 31.622559 260.772461 32.213379 Z " fill="rgb(0, 0, 0)" fill-opacity="1.000000" />
<path d="M 269.297852 28.276367 L 269.297852 29.984375 L 271.542969 29.984375 L 271.542969 30.752441 L 269.297852 30.752441 L 269.297852 34.018066 Q 269.297852 34.684082 269.550293 34.947266 Q 269.802734 35.210449 270.431152 35.210449 L 271.542969 35.210449 L 271.542969 36.000000 L 270.334473 36.000000 Q 269.222656 36.000000 268.766113 35.554199 Q 268.309570 35.108398 268.309570 34.018066 L 268.309570 30.752441 L 266.703613 30.752441 L 266.703613 29.984375 L 268.309570 29.984375 L 268.309570 28.276367 Z " fill="rgb(0, 0, 0)" fill-opacity="1.000000" />
<path d="M 282.878906 39.319336 L 282.878906 25.300781 L 283.738281 25.300781 L 283.738281 39.319336 Z " fill="rgb(0, 0, 0)" fill-opacity="1.000000" />
<path d="M 317.878906 39.319336 L 317.878906 25.300781 L 318.738281 25.300781 L 318.738281 39.319336 Z " fill="rgb(0, 0, 0)" fill-opacity="1.000000" />
<path d="M 322.585449 35.672363 L 322.585449 34.404785 Q 323.074219 34.839844 323.595215 35.057373 Q 324.116211 35.274902 324.674805 35.274902 Q 325.442871 35.274902 325.746338 34.874756 Q 326.049805 34.474609 326.049805 33.384277 L 326.049805 28.894043 L 324.003418 28.894043 L 324.003418 27.980957 L 327.134766 27.980957 L 327.134766 33.384277 Q 327.134766 34.898926 326.568115 35.527344 Q 326.001465 36.155762 324.674805 36.155762 Q 324.159180 36.155762 323.648926 36.037598 Q 323.138672 35.919434 322.585449 35.672363 Z " fill="rgb(0, 0, 0)" fill-opacity="1.000000" />
<path d="M 332.770508 32.976074 L 332.442871 32.976074 Q 331.578125 32.976074 331.140381 33.279541 Q 330.702637 33.583008 330.702637 34.184570 Q 330.702637 34.727051 331.030273 35.027832 Q 331.357910 35.328613 331.937988 35.328613 Q 332.754395 35.328613 333.221680 34.761963 Q 333.688965 34.195312 333.694336 33.196289 L 333.694336 32.976074 Z M 334.687988 32.567871 L 334.687988 36.000000 L 333.694336 36.000000 L 333.694336 35.108398 Q 333.377441 35.645508 332.896729 35.900635 Q 332.416016 36.155762 331.728516 36.155762 Q 330.810059 36.155762 330.262207 35.637451 Q 329.714355 35.119141 329.714355 34.249023 Q 329.714355 33.244629 330.388428 32.723633 Q 331.062500 32.202637 332.367676 32.202637 L 333.694336 32.202637 L 333.694336 32.046875 Q 333.688965 31.327148 333.329102 31.002197 Q 332.969238 30.677246 332.179688 30.677246 Q 331.674805 30.677246 331.159180 30.822266 Q 330.643555 30.967285 330.154785 31.246582 L 330.154785 30.258301 Q 330.702637 30.048828 331.204834 29.944092 Q 331.707031 29.839355 332.179688 29.839355 Q 332.926270 29.839355 333.455322 30.059570 Q 333.984375 30.279785 334.312012 30.720215 Q 334.516113 30.988770 334.602051 31.383545 Q 334.687988 31.778320 334.687988 32.567871 Z " fill="rgb(0, 0, 0)" fill-opacity="1.000000" />
<path d="M 336.537109 29.984375 L 337.562988 29.984375 L 339.308594 35.033203 L 341.059570 29.984375 L 342.085449 29.984375 L 339.947754 36.000000 L 338.674805 36.000000 Z " fill="rgb(0, 0, 0)" fill-opacity="1.000000" />
<path d="M 346.770508 32.976074 L 346.442871 32.976074 Q 345.578125 32.976074 345.140381 33.279541 Q 344.702637 33.583008 344.702637 34.184570 Q 344.702637 34.727051 345.030273 35.027832 Q 345.357910 35.328613 345.937988 35.328613 Q 346.754395 35.328613 347.221680 34.761963 Q 347.688965 34.195312 347.694336 33.196289 L 347.694336 32.976074 Z M 348.687988 32.567871 L 348.687988 36.000000 L 347.694336 36.000000 L 347.694336 35.108398 Q 347.377441 35.645508 346.896729 35.900635 Q 346.416016 36.155762 345.728516 36.155762 Q 344.810059 36.155762 344.262207 35.637451 Q 343.714355 35.119141 343.714355 34.249023 Q 343.714355 33.244629 344.388428 32.723633 Q 345.062500 32.202637 346.367676 32.202637 L 347.694336 32.202637 L 347.694336 32.046875 Q 347.688965 31.327148 347.329102 31.002197 Q 346.969238 30.677246 346.179688 30.677246 Q 345.674805 30.677246 345.159180 30.822266 Q 344.643555 30.967285 344.154785 31.246582 L 344.154785 30.258301 Q 344.702637 30.048828 345.204834 29.944092 Q 345.707031 29.839355 346.179688 29.839355 Q 346.926270 29.839355 347.455322 30.059570 Q 347.984375 30.279785 348.312012 30.720215 Q 348.516113 30.988770 348.602051 31.383545 Q 348.687988 31.778320 348.687988 32.567871 Z " fill="rgb(0, 0, 0)" fill-opacity="1.000000" />
<path d="M 355.435547 28.254883 L 355.435547 29.355957 Q 354.941406 29.039062 354.444580 28.877930 Q 353.947754 28.716797 353.442871 28.716797 Q 352.674805 28.716797 352.229004 29.073975 Q 351.783203 29.431152 351.783203 30.038086 Q 351.783203 30.569824 352.075928 30.849121 Q 352.368652 31.128418 353.168945 31.316406 L 353.738281 31.445312 Q 354.866211 31.708496 355.381836 32.272461 Q 355.897461 32.836426 355.897461 33.808594 Q 355.897461 34.952637 355.188477 35.554199 Q 354.479492 36.155762 353.125977 36.155762 Q 352.562012 36.155762 351.992676 36.034912 Q 351.423340 35.914062 350.848633 35.672363 L 350.848633 34.517578 Q 351.466309 34.909668 352.016846 35.092285 Q 352.567383 35.274902 353.125977 35.274902 Q 353.947754 35.274902 354.404297 34.906982 Q 354.860840 34.539062 354.860840 33.878418 Q 354.860840 33.276855 354.546631 32.959961 Q 354.232422 32.643066 353.453613 32.471191 L 352.873535 32.336914 Q 351.756348 32.084473 351.251465 31.574219 Q 350.746582 31.063965 350.746582 30.204590 Q 350.746582 29.130371 351.468994 28.483154 Q 352.191406 27.835938 353.389160 27.835938 Q 353.851074 27.835938 354.361328 27.940674 Q 354.871582 28.045410 355.435547 28.254883 Z " fill="rgb(0, 0, 0)" fill-opacity="1.000000" />
<path d="M 362.698730 35.693848 Q 362.301270 35.924805 361.879639 36.040283 Q 361.458008 36.155762 361.017578 36.155762 Q 359.621094 36.155762 358.834229 35.317871 Q 358.047363 34.479980 358.047363 32.997559 Q 358.047363 31.515137 358.834229 30.677246 Q 359.621094 29.839355 361.017578 29.839355 Q 361.452637 29.839355 361.866211 29.952148 Q 362.279785 30.064941 362.698730 30.301270 L 362.698730 31.337891 Q 362.306641 30.988770 361.911865 30.833008 Q 361.517090 30.677246 361.017578 30.677246 Q 360.088379 30.677246 359.588867 31.278809 Q 359.089355 31.880371 359.089355 32.997559 Q 359.089355 34.109375 359.591553 34.713623 Q 360.093750 35.317871 361.017578 35.317871 Q 361.533203 35.317871 361.941406 35.159424 Q 362.349609 35.000977 362.698730 34.667969 Z " fill="rgb(0, 0, 0)" fill-opacity="1.000000" />
<path d="M 370.203613 31.225098 Q 369.886719 30.978027 369.559082 30.865234 Q 369.231445 30.752441 368.839355 30.752441 Q 367.915527 30.752441 367.426758 31.332520 Q 366.937988 31.912598 366.937988 33.008301 L 366.937988 36.000000 L 365.944336 36.000000 L 365.944336 29.984375 L 366.937988 29.984375 L 366.937988 31.160645 Q 367.185059 30.521484 367.697998 30.180420 Q 368.210938 29.839355 368.914551 29.839355 Q 369.279785 29.839355 369.596680 29.930664 Q 369.913574 30.021973 370.203613 30.215332 Z " fill="rgb(0, 0, 0)" fill-opacity="1.000000" />
<path d="M 372.697266 30.005859 L 375.227051 30.005859 L 375.227051 35.231934 L 377.187500 35.231934 L 377.187500 36.000000 L 372.278320 36.000000 L 372.278320 35.231934 L 374.238770 35.231934 L 374.238770 30.773926 L 372.697266 30.773926 Z M 374.238770 27.669434 L 375.227051 27.669434 L 375.227051 28.915527 L 374.238770 28.915527 Z " fill="rgb(0, 0, 0)" fill-opacity="1.000000" />
<path d="M 380.014160 35.242676 L 380.014160 38.288086 L 379.020508 38.288086 L 379.020508 29.984375 L 380.014160 29.984375 L 380.014160 30.752441 Q 380.261230 30.306641 380.672119 30.072998 Q 381.083008 29.839355 381.620117 29.839355 Q 382.710449 29.839355 383.330811 30.682617 Q 383.951172 31.525879 383.951172 33.019043 Q 383.951172 34.485352 383.328125 35.320557 Q 382.705078 36.155762 381.620117 36.155762 Q 381.072266 36.155762 380.661377 35.922119 Q 380.250488 35.688477 380.014160 35.242676 Z M 382.914551 32.997559 Q 382.914551 31.848145 382.552002 31.262695 Q 382.189453 30.677246 381.475098 30.677246 Q 380.755371 30.677246 380.384766 31.265381 Q 380.014160 31.853516 380.014160 32.997559 Q 380.014160 34.136230 380.384766 34.727051 Q 380.755371 35.317871 381.475098 35.317871 Q 382.189453 35.317871 382.552002 34.732422 Q 382.914551 34.146973 382.914551 32.997559 Z " fill="rgb(0, 0, 0)" fill-opacity="1.000000" />
<path d="M 388.297852 28.276367 L 388.297852 29.984375 L 390.542969 29.984375 L 390.542969 30.752441 L 388.297852 30.752441 L 388.297852 34.018066 Q 388.297852 34.684082 388.550293 34.947266 Q 388.802734 35.210449 389.431152 35.210449 L 390.542969 35.210449 L 390.542969 36.000000 L 389.334473 36.000000 Q 388.222656 36.000000 387.766113 35.554199 Q 387.309570 35.108398 387.309570 34.018066 L 387.309570 30.752441 L 385.703613 30.752441 L 385.703613 29.984375 L 387.309570 29.984375 L 387.309570 28.276367 Z " fill="rgb(0, 0, 0)" fill-opacity="1.000000" />
<path d="M 394.878906 39.319336 L 394.878906 25.300781 L 395.738281 25.300781 L 395.738281 39.319336 Z " fill="rgb(0, 0, 0)" fill-opacity="1.000000" />
<path d="M 69.892578 20.335938 L 69.892578 19.412109 L 76.729980 19.412109 L 76.729980 20.335938 Z " fill="rgb(0, 0, 0)" fill-opacity="1.000000" />
<path d="M 76.892578 20.335938 L 76.892578 19.412109 L 83.729980 19.412109 L 83.729980 20.335938 Z " fill="rgb(0, 0, 0)" fill-opacity="1.000000" />
<path d="M 83.892578 20.335938 L 83.892578 19.412109 L 90.729980 19.412109 L 90.729980 20.335938 Z " fill="rgb(0, 0, 0)" fill-opacity="1.000000" />
<path d="M 90.892578 20.335938 L 90.892578 19.412109 L 97.729980 19.412109 L 97.729980 20.335938 Z " fill="rgb(0, 0, 0)" fill-opacity="1.000000" />
<path d="M 97.892578 20.335938 L 97.892578 19.412109 L 104.729980 19.412109 L 104.729980 20.335938 Z " fill="rgb(0, 0, 0)" fill-opacity="1.000000" />
<path d="M 105.032227 23.418945 L 105.032227 16.866211 L 111.590332 20.142578 Z " fill="rgb(0, 0, 0)" fill-opacity="1.000000" />
<path d="M 163.878906 26.319336 L 163.878906 12.300781 L 164.738281 12.300781 L 164.738281 19.412109 L 167.729980 19.412109 L 167.729980 20.335938 L 164.738281 20.335938 L 164.738281 26.319336 Z " fill="rgb(0, 0, 0)" fill-opacity="1.000000" />
<path d="M 167.892578 20.335938 L 167.892578 19.412109 L 174.729980 19.412109 L 174.729980 20.335938 Z " fill="rgb(0, 0, 0)" fill-opacity="1.000000" />
<path d="M 174.892578 20.335938 L 174.892578 19.412109 L 181.729980 19.412109 L 181.729980 20.335938 Z " fill="rgb(0, 0, 0)" fill-opacity="1.000000" />
<path d="M 181.892578 20.335938 L 181.892578 19.412109 L 188.729980 19.412109 L 188.729980 20.335938 Z " fill="rgb(0, 0, 0)" fill-opacity="1.000000" />
<path d="M 188.892578 20.335938 L 188.892578 19.412109 L 195.729980 19.412109 L 195.729980 20.335938 Z " fill="rgb(0, 0, 0)" fill-opacity="1.000000" />
<path d="M 196.032227 23.418945 L 196.032227 16.866211 L 202.590332 20.142578 Z " fill="rgb(0, 0, 0)" fill-opacity="1.000000" />
<path d="M 228.082031 19.213379 Q 228.500977 19.320801 228.796387 19.618896 Q 229.091797 19.916992 229.532227 20.808594 L 230.622559 23.000000 L 229.457031 23.000000 L 228.500977 20.975098 Q 228.087402 20.110352 227.757080 19.860596 Q 227.426758 19.610840 226.895020 19.610840 L 225.858398 19.610840 L 225.858398 23.000000 L 224.768066 23.000000 L 224.768066 14.980957 L 227.002441 14.980957 Q 228.323730 14.980957 229.027344 15.577148 Q 229.730957 16.173340 229.730957 17.301270 Q 229.730957 18.096191 229.298584 18.598389 Q 228.866211 19.100586 228.082031 19.213379 Z M 225.858398 15.872559 L 225.858398 18.719238 L 227.045410 18.719238 Q 227.824219 18.719238 228.205566 18.370117 Q 228.586914 18.020996 228.586914 17.301270 Q 228.586914 16.608398 228.181396 16.240479 Q 227.775879 15.872559 227.002441 15.872559 Z " fill="rgb(0, 0, 0)" fill-opacity="1.000000" />
<path d="M 232.058105 14.980957 L 236.816895 14.980957 L 236.816895 15.894043 L 233.143066 15.894043 L 233.143066 18.053223 L 236.655762 18.053223 L 236.655762 18.966309 L 233.143066 18.966309 L 233.143066 22.086914 L 236.918945 22.086914 L 236.918945 23.000000 L 232.058105 23.000000 Z " fill="rgb(0, 0, 0)" fill-opacity="1.000000" />
<path d="M 243.435547 15.254883 L 243.435547 16.355957 Q 242.941406 16.039062 242.444580 15.877930 Q 241.947754 15.716797 241.442871 15.716797 Q 240.674805 15.716797 240.229004 16.073975 Q 239.783203 16.431152 239.783203 17.038086 Q 239.783203 17.569824 240.075928 17.849121 Q 240.368652 18.128418 241.168945 18.316406 L 241.738281 18.445312 Q 242.866211 18.708496 243.381836 19.272461 Q 243.897461 19.836426 243.897461 20.808594 Q 243.897461 21.952637 243.188477 22.554199 Q 242.479492 23.155762 241.125977 23.155762 Q 240.562012 23.155762 239.992676 23.034912 Q 239.423340 22.914062 238.848633 22.672363 L 238.848633 21.517578 Q 239.466309 21.909668 240.016846 22.092285 Q 240.567383 22.274902 241.125977 22.274902 Q 241.947754 22.274902 242.404297 21.906982 Q 242.860840 21.539062 242.860840 20.878418 Q 242.860840 20.276855 242.546631 19.959961 Q 242.232422 19.643066 241.453613 19.471191 L 240.873535 19.336914 Q 239.756348 19.084473 239.251465 18.574219 Q 238.746582 18.063965 238.746582 17.204590 Q 238.746582 16.130371 239.468994 15.483154 Q 240.191406 14.835938 241.389160 14.835938 Q 241.851074 14.835938 242.361328 14.940674 Q 242.871582 15.045410 243.435547 15.254883 Z " fill="rgb(0, 0, 0)" fill-opacity="1.000000" />
<path d="M 245.252441 14.980957 L 251.370117 14.980957 L 251.370117 15.894043 L 248.861816 15.894043 L 248.861816 23.000000 L 247.771484 23.000000 L 247.771484 15.894043 L 245.252441 15.894043 Z " fill="rgb(0, 0, 0)" fill-opacity="1.000000" />
<path d="M 282.878906 26.319336 L 282.878906 12.300781 L 283.738281 12.300781 L 283.738281 19.412109 L 286.729980 19.412109 L 286.729980 20.335938 L 283.738281 20.335938 L 283.738281 26.319336 Z " fill="rgb(0, 0, 0)" fill-opacity="1.000000" />
<path d="M 286.892578 20.335938 L 286.892578 19.412109 L 293.729980 19.412109 L 293.729980 20.335938 Z " fill="rgb(0, 0, 0)" fill-opacity="1.000000" />
<path d="M 293.892578 20.335938 L 293.892578 19.412109 L 300.729980 19.412109 L 300.729980 20.335938 Z " fill="rgb(0, 0, 0)" fill-opacity="1.000000" />
<path d="M 300.892578 20.335938 L 300.892578 19.412109 L 307.729980 19.412109 L 307.729980 20.335938 Z " fill="rgb(0, 0, 0)" fill-opacity="1.000000" />
<path d="M 307.892578 20.335938 L 307.892578 19.412109 L 314.729980 19.412109 L 314.729980 20.335938 Z " fill="rgb(0, 0, 0)" fill-opacity="1.000000" />
<path d="M 315.032227 23.418945 L 315.032227 16.866211 L 321.590332 20.142578 Z " fill="rgb(0, 0, 0)" fill-opacity="1.000000" />
<path d="M 394.878906 26.319336 L 394.878906 12.300781 L 395.738281 12.300781 L 395.738281 26.319336 Z " fill="rgb(0, 0, 0)" fill-opacity="1.000000" />
<path d="M 13.892578 7.335938 L 13.892578 6.412109 L 20.729980 6.412109 L 20.729980 7.335938 Z " fill="rgb(0, 0, 0)" fill-opacity="1.000000" />
<path d="M 27.892578 7.335938 L 27.892578 6.412109 L 34.729980 6.412109 L 34.729980 7.335938 Z " fill="rgb(0, 0, 0)" fill-opacity="1.000000" />
<path d="M 41.892578 7.335938 L 41.892578 6.412109 L 48.729980 6.412109 L 48.729980 7.335938 Z " fill="rgb(0, 0, 0)" fill-opacity="1.000000" />
<path d="M 55.892578 7.335938 L 55.892578 6.412109 L 62.729980 6.412109 L 62.729980 7.335938 Z " fill="rgb(0, 0, 0)" fill-opacity="1.000000" />
<path d="M 72.878906 13.319336 L 72.878906 7.335938 L 69.892578 7.335938 L 69.892578 6.412109 L 73.738281 6.412109 L 73.738281 13.319336 Z " fill="rgb(0, 0, 0)" fill-opacity="1.000000" />
<path d="M 107.878906 13.319336 L 107.878906 6.412109 L 111.729980 6.412109 L 111.729980 7.335938 L 108.738281 7.335938 L 108.738281 13.319336 Z " fill="rgb(0, 0, 0)" fill-opacity="1.000000" />
<path d="M 111.892578 7.335938 L 111.892578 6.412109 L 118.729980 6.412109 L 118.729980 7.335938 Z " fill="rgb(0, 0, 0)" fill-opacity="1.000000" />
<path d="M 118.892578 7.335938 L 118.892578 6.412109 L 125.729980 6.412109 L 125.729980 7.335938 Z " fill="rgb(0, 0, 0)" fill-opacity="1.000000" />
<path d="M 125.892578 7.335938 L 125.892578 6.412109 L 132.729980 6.412109 L 132.729980 7.335938 Z " fill="rgb(0, 0, 0)" fill-opacity="1.000000" />
<path d="M 132.892578 7.335938 L 132.892578 6.412109 L 139.729980 6.412109 L 139.729980 7.335938 Z " fill="rgb(0, 0, 0)" fill-opacity="1.000000" />
<path d="M 139.892578 7.335938 L 139.892578 6.412109 L 146.729980 6.412109 L 146.729980 7.335938 Z " fill="rgb(0, 0, 0)" fill-opacity="1.000000" />
<path d="M 146.892578 7.335938 L 146.892578 6.412109 L 153.729980 6.412109 L 153.729980 7.335938 Z " fill="rgb(0, 0, 0)" fill-opacity="1.000000" />
<path d="M 153.892578 7.335938 L 153.892578 6.412109 L 160.729980 6.412109 L 160.729980 7.335938 Z " fill="rgb(0, 0, 0)" fill-opacity="1.000000" />
<path d="M 163.878906 13.319336 L 163.878906 7.335938 L 160.892578 7.335938 L 160.892578 6.412109 L 164.738281 6.412109 L 164.738281 13.319336 Z " fill="rgb(0, 0, 0)" fill-opacity="1.000000" />
<path d="M 198.878906 13.319336 L 198.878906 6.412109 L 202.729980 6.412109 L 202.729980 7.335938 L 199.738281 7.335938 L 199.738281 13.319336 Z " fill="rgb(0, 0, 0)" fill-opacity="1.000000" />
<path d="M 202.892578 7.335938 L 202.892578 6.412109 L 209.729980 6.412109 L 209.729980 7.335938 Z " fill="rgb(0, 0, 0)" fill-opacity="1.000000" />
<path d="M 209.892578 7.335938 L 209.892578 6.412109 L 216.729980 6.412109 L 216.729980 7.335938 Z " fill="rgb(0, 0, 0)" fill-opacity="1.000000" />
<path d="M 216.892578 7.335938 L 216.892578 6.412109 L 223.729980 6.412109 L 223.729980 7.335938 Z " fill="rgb(0, 0, 0)" fill-opacity="1.000000" />
<path d="M 223.892578 7.335938 L 223.892578 6.412109 L 230.729980 6.412109 L 230.729980 7.335938 Z " fill="rgb(0, 0, 0)" fill-opacity="1.000000" />
<path d="M 230.892578 7.335938 L 230.892578 6.412109 L 237.729980 6.412109 L 237.729980 7.335938 Z " fill="rgb(0, 0, 0)" fill-opacity="1.000000" />
<path d="M 237.892578 7.335938 L 237.892578 6.412109 L 244.729980 6.412109 L 244.729980 7.335938 Z " fill="rgb(0, 0, 0)" fill-opacity="1.000000" />
<path d="M 244.892578 7.335938 L 244.892578 6.412109 L 251.729980 6.412109 L 251.729980 7.335938 Z " fill="rgb(0, 0, 0)" fill-opacity="1.000000" />
<path d="M 251.892578 7.335938 L 251.892578 6.412109 L 258.729980 6.412109 L 258.729980 7.335938 Z " fill="rgb(0, 0, 0)" fill-opacity="1.000000" />
<path d="M 258.892578 7.335938 L 258.892578 6.412109 L 265.729980 6.412109 L 265.729980 7.335938 Z " fill="rgb(0, 0, 0)" fill-opacity="1.000000" />
<path d="M 265.892578 7.335938 L 265.892578 6.412109 L 272.729980 6.412109 L 272.729980 7.335938 Z " fill="rgb(0, 0, 0)" fill-opacity="1.000000" />
<path d="M 272.892578 7.335938 L 272.892578 6.412109 L 279.729980 6.412109 L 279.729980 7.335938 Z " fill="rgb(0, 0, 0)" fill-opacity="1.000000" />
<path d="M 282.878906 13.319336 L 282.878906 7.335938 L 279.892578 7.335938 L 279.892578 6.412109 L 283.738281 6.412109 L 283.738281 13.319336 Z " fill="rgb(0, 0, 0)" fill-opacity="1.000000" />
<path d="M 317.878906 13.319336 L 317.878906 6.412109 L 321.729980 6.412109 L 321.729980 7.335938 L 318.738281 7.335938 L 318.738281 13.319336 Z " fill="rgb(0, 0, 0)" fill-opacity="1.000000" />
<path d="M 321.892578 7.335938 L 321.892578 6.412109 L 328.729980 6.412109 L 328.729980 7.335938 Z " fill="rgb(0, 0, 0)" fill-opacity="1.000000" />
<path d="M 328.892578 7.335938 L 328.892578 6.412109 L 335.729980 6.412109 L 335.729980 7.335938 Z " fill="rgb(0, 0, 0)" fill-opacity="1.000000" />
<path d="M 335.892578 7.335938 L 335.892578 6.412109 L 342.729980 6.412109 L 342.729980 7.335938 Z " fill="rgb(0, 0, 0)" fill-opacity="1.000000" />
<path d="M 342.892578 7.335938 L 342.892578 6.412109 L 349.729980 6.412109 L 349.729980 7.335938 Z " fill="rgb(0, 0, 0)" fill-opacity="1.000000" />
<path d="M 349.892578 7.335938 L 349.892578 6.412109 L 356.729980 6.412109 L 356.729980 7.335938 Z " fill="rgb(0, 0, 0)" fill-opacity="1.000000" />
<path d="M 356.892578 7.335938 L 356.892578 6.412109 L 363.729980 6.412109 L 363.729980 7.335938 Z " fill="rgb(0, 0, 0)" fill-opacity="1.000000" />
<path d="M 363.892578 7.335938 L 363.892578 6.412109 L 370.729980 6.412109 L 370.729980 7.335938 Z " fill="rgb(0, 0, 0)" fill-opacity="1.000000" />
<path d="M 370.892578 7.335938 L 370.892578 6.412109 L 377.729980 6.412109 L 377.729980 7.335938 Z " fill="rgb(0, 0, 0)" fill-opacity="1.000000" />
<path d="M 377.892578 7.335938 L 377.892578 6.412109 L 384.729980 6.412109 L 384.729980 7.335938 Z " fill="rgb(0, 0, 0)" fill-opacity="1.000000" />
<path d="M 384.892578 7.335938 L 384.892578 6.412109 L 391.729980 6.412109 L 391.729980 7.335938 Z " fill="rgb(0, 0, 0)" fill-opacity="1.000000" />
<path d="M 394.878906 13.319336 L 394.878906 7.335938 L 391.892578 7.335938 L 391.892578 6.412109 L 395.738281 6.412109 L 395.738281 13.319336 Z " fill="rgb(0, 0, 0)" fill-opacity="1.000000" />
</svg>