<svg xmlns="http://www.w3.org/2000/svg" version="1.1" width="393" height="66">
<path d="M 2.878906 13.319336 L 2.878906 6.412109 L 6.729980 6.412109 L 6.729980 7.335938 L 3.738281 7.335938 L 3.738281 13.319336 Z " fill="rgb(0, 0, 0)" fill-opacity="1.000000" />
<path d="M 2.878906 26.319336 L 2.878906 12.300781 L 3.738281 12.300781 L 3.738281 26.319336 Z " fill="rgb(0, 0, 0)" fill-opacity="1.000000" />
<path d="M 2.878906 39.319336 L 2.878906 25.300781 L 3.738281 25.300781 L 3.738281 39.319336 Z " fill="rgb(0, 0, 0)" fill-opacity="1.000000" />
<path d="M 2.878906 52.319336 L 2.878906 38.300781 L 3.738281 38.300781 L 3.738281 52.319336 Z " fill="rgb(0, 0, 0)" fill-opacity="1.000000" />
<path d="M 2.878906 59.335938 L 2.878906 51.300781 L 3.738281 51.300781 L 3.738281 58.412109 L 6.729980 58.412109 L 6.729980 59.335938 Z " fill="rgb(0, 0, 0)" fill-opacity="1.000000" />
<path d="M 6.892578 59.335938 L 6.892578 58.412109 L 13.729980 58.412109 L 13.729980 59.335938 Z " fill="rgb(0, 0, 0)" fill-opacity="1.000000" />
<path d="M 13.892578 59.335938 L 13.892578 58.412109 L 20.729980 58.412109 L 20.729980 59.335938 Z " fill="rgb(0, 0, 0)" fill-opacity="1.000000" />
<path d="M 20.892578 59.335938 L 20.892578 58.412109 L 27.729980 58.412109 L 27.729980 59.335938 Z " fill="rgb(0, 0, 0)" fill-opacity="1.000000" />
<path d="M 27.892578 59.335938 L 27.892578 58.412109 L 34.729980 58.412109 L 34.729980 59.335938 Z " fill="rgb(0, 0, 0)" fill-opacity="1.000000" />
<path d="M 34.892578 59.335938 L 34.892578 58.412109 L 41.729980 58.412109 L 41.729980 59.335938 Z " fill="rgb(0, 0, 0)" fill-opacity="1.000000" />
<path d="M 41.892578 59.335938 L 41.892578 58.412109 L 48.729980 58.412109 L 48.729980 59.335938 Z " fill="rgb(0, 0, 0)" fill-opacity="1.000000" />
<path d="M 48.892578 59.335938 L 48.892578 58.412109 L 55.729980 58.412109 L 55.729980 59.335938 Z " fill="rgb(0, 0, 0)" fill-opacity="1.000000" />
<path d="M 55.892578 59.335938 L 55.892578 58.412109 L 62.729980 58.412109 L 62.729980 59.335938 Z " fill="rgb(0, 0, 0)" fill-opacity="1.000000" />
<path d="M 62.892578 59.335938 L 62.892578 58.412109 L 69.729980 58.412109 L 69.729980 59.335938 Z " fill="rgb(0, 0, 0)" fill-opacity="1.000000" />
<path d="M 69.892578 59.335938 L 69.892578 58.412109 L 76.729980 58.412109 L 76.729980 59.335938 Z " fill="rgb(0, 0, 0)" fill-opacity="1.000000" />
<path d="M 76.892578 59.335938 L 76.892578 58.412109 L 83.729980 58.412109 L 83.729980 59.335938 Z " fill="rgb(0, 0, 0)" fill-opacity="1.000000" />
<path d="M 83.892578 59.335938 L 83.892578 58.412109 L 90.729980 58.412109 L 90.729980 59.335938 Z " fill="rgb(0, 0, 0)" fill-opacity="1.000000" />
<path d="M 90.892578 59.335938 L 90.892578 58.412109 L 93.878906 58.412109 L 93.878906 51.300781 L 94.738281 51.300781 L 94.738281 59.335938 Z " fill="rgb(0, 0, 0)" fill-opacity="1.000000" />
<path d="M 142.878906 59.335938 L 142.878906 51.300781 L 143.738281 51.300781 L 143.738281 58.412109 L 146.729980 58.412109 L 146.729980 59.335938 Z " fill="rgb(0, 0, 0)" fill-opacity="1.000000" />
<path d="M 146.892578 59.335938 L 146.892578 58.412109 L 153.729980 58.412109 L 153.729980 59.335938 Z " fill="rgb(0, 0, 0)" fill-opacity="1.000000" />
<path d="M 153.892578 59.335938 L 153.892578 58.412109 L 160.729980 58.412109 L 160.729980 59.335938 Z " fill="rgb(0, 0, 0)" fill-opacity="1.000000" />
<path d="M 160.892578 59.335938 L 160.892578 58.412109 L 167.729980 58.412109 L 167.729980 59.335938 Z " fill="rgb(0, 0, 0)" fill-opacity="1.000000" />
<path d="M 167.892578 59.335938 L 167.892578 58.412109 L 174.729980 58.412109 L 174.729980 59.335938 Z " fill="rgb(0, 0, 0)" fill-opacity="1.000000" />
<path d="M 174.892578 59.335938 L 174.892578 58.412109 L 181.729980 58.412109 L 181.729980 59.335938 Z " fill="rgb(0, 0, 0)" fill-opacity="1.000000" />
<path d="M 181.892578 59.335938 L 181.892578 58.412109 L 188.729980 58.412109 L 188.729980 59.335938 Z " fill="rgb(0, 0, 0)" fill-opacity="1.000000" />
<path d="M 188.892578 59.335938 L 188.892578 58.412109 L 195.729980 58.412109 L 195.729980 59.335938 Z " fill="rgb(0, 0, 0)" fill-opacity="1.000000" />
<path d="M 195.892578 59.335938 L 195.892578 58.412109 L 202.729980 58.412109 L 202.729980 59.335938 Z " fill="rgb(0, 0, 0)" fill-opacity="1.000000" />
<path d="M 202.892578 59.335938 L 202.892578 58.412109 L 209.729980 58.412109 L 209.729980 59.335938 Z " fill="rgb(0, 0, 0)" fill-opacity="1.000000" />
<path d="M 209.892578 59.335938 L 209.892578 58.412109 L 216.729980 58.412109 L 216.729980 59.335938 Z " fill="rgb(0, 0, 0)" fill-opacity="1.000000" />
<path d="M 216.892578 59.335938 L 216.892578 58.412109 L 223.729980 58.412109 L 223.729980 59.335938 Z " fill="rgb(0, 0, 0)" fill-opacity="1.000000" />
<path d="M 223.892578 59.335938 L 223.892578 58.412109 L 230.729980 58.412109 L 230.729980 59.335938 Z " fill="rgb(0, 0, 0)" fill-opacity="1.000000" />
<path d="M 230.892578 59.335938 L 230.892578 58.412109 L 237.729980 58.412109 L 237.729980 59.335938 Z " fill="rgb(0, 0, 0)" fill-opacity="1.000000" />
<path d="M 237.892578 59.335938 L 237.892578 58.412109 L 244.729980 58.412109 L 244.729980 59.335938 Z " fill="rgb(0, 0, 0)" fill-opacity="1.000000" />
<path d="M 244.892578 59.335938 L 244.892578 58.412109 L 251.729980 58.412109 L 251.729980 59.335938 Z " fill="rgb(0, 0, 0)" fill-opacity="1.000000" />
<path d="M 251.892578 59.335938 L 251.892578 58.412109 L 254.878906 58.412109 L 254.878906 51.300781 L 255.738281 51.300781 L 255.738281 59.335938 Z " fill="rgb(0, 0, 0)" fill-opacity="1.000000" />
<path d="M 303.878906 59.335938 L 303.878906 51.300781 L 304.738281 51.300781 L 304.738281 58.412109 L 307.729980 58.412109 L 307.729980 59.335938 Z " fill="rgb(0, 0, 0)" fill-opacity="1.000000" />
<path d="M 307.892578 59.335938 L 307.892578 58.412109 L 314.729980 58.412109 L 314.729980 59.335938 Z " fill="rgb(0, 0, 0)" fill-opacity="1.000000" />
<path d="M 314.892578 59.335938 L 314.892578 58.412109 L 321.729980 58.412109 L 321.729980 59.335938 Z " fill="rgb(0, 0, 0)" fill-opacity="1.000000" />
<path d="M 321.892578 59.335938 L 321.892578 58.412109 L 328.729980 58.412109 L 328.729980 59.335938 Z " fill="rgb(0, 0, 0)" fill-opacity="1.000000" />
<path d="M 328.892578 59.335938 L 328.892578 58.412109 L 335.729980 58.412109 L 335.729980 59.335938 Z " fill="rgb(0, 0, 0)" fill-opacity="1.000000" />
<path d="M 335.892578 59.335938 L 335.892578 58.412109 L 342.729980 58.412109 L 342.729980 59.335938 Z " fill="rgb(0, 0, 0)" fill-opacity="1.000000" />
<path d="M 342.892578 59.335938 L 342.892578 58.412109 L 349.729980 58.412109 L 349.729980 59.335938 Z " fill="rgb(0, 0, 0)" fill-opacity="1.000000" />
<path d="M 349.892578 59.335938 L 349.892578 58.412109 L 356.729980 58.412109 L 356.729980 59.335938 Z " fill="rgb(0, 0, 0)" fill-opacity="1.000000" />
<path d="M 356.892578 59.335938 L 356.892578 58.412109 L 363.729980 58.412109 L 363.729980 59.335938 Z " fill="rgb(0, 0, 0)" fill-opacity="1.000000" />
<path d="M 363.892578 59.335938 L 363.892578 58.412109 L 370.729980 58.412109 L 370.729980 59.335938 Z " fill="rgb(0, 0, 0)" fill-opacity="1.000000" />
<path d="M 370.892578 59.335938 L 370.892578 58.412109 L 377.729980 58.412109 L 377.729980 59.335938 Z " fill="rgb(0, 0, 0)" fill-opacity="1.000000" />
<path d="M 377.892578 59.335938 L 377.892578 58.412109 L 384.729980 58.412109 L 384.729980 59.335938 Z " fill="rgb(0, 0, 0)" fill-opacity="1.000000" />
<path d="M 384.892578 59.335938 L 384.892578 58.412109 L 387.878906 58.412109 L 387.878906 51.300781 L 388.738281 51.300781 L 388.738281 59.335938 Z " fill="rgb(0, 0, 0)" fill-opacity="1.000000" />
<path d="M 16.014160 48.242676 L 16.014160 51.288086 L 15.020508 51.288086 L 15.020508 42.984375 L 16.014160 42.984375 L 16.014160 43.752441 Q 16.261230 43.306641 16.672119 43.072998 Q 17.083008 42.839355 17.620117 42.839355 Q 18.710449 42.839355 19.330811 43.682617 Q 19.951172 44.525879 19.951172 46.019043 Q 19.951172 47.485352 19.328125 48.320557 Q 18.705078 49.155762 17.620117 49.155762 Q 17.072266 49.155762 16.661377 48.922119 Q 16.250488 48.688477 16.014160 48.242676 Z M 18.914551 45.997559 Q 18.914551 44.848145 18.552002 44.262695 Q 18.189453 43.677246 17.475098 43.677246 Q 16.755371 43.677246 16.384766 44.265381 Q 16.014160 44.853516 16.014160 45.997559 Q 16.014160 47.136230 16.384766 47.727051 Q 16.755371 48.317871 17.475098 48.317871 Q 18.189453 48.317871 18.552002 47.732422 Q 18.914551 47.146973 18.914551 45.997559 Z " fill="rgb(0, 0, 0)" fill-opacity="1.000000" />
<path d="M 24.308594 43.677246 Q 23.556641 43.677246 23.169922 44.262695 Q 22.783203 44.848145 22.783203 45.997559 Q 22.783203 47.141602 23.169922 47.729736 Q 23.556641 48.317871 24.308594 48.317871 Q 25.065918 48.317871 25.452637 47.729736 Q 25.839355 47.141602 25.839355 45.997559 Q 25.839355 44.848145 25.452637 44.262695 Q 25.065918 43.677246 24.308594 43.677246 Z M 24.308594 42.839355 Q 25.560059 42.839355 26.223389 43.650391 Q 26.886719 44.461426 26.886719 45.997559 Q 26.886719 47.539062 26.226074 48.347412 Q 25.565430 49.155762 24.308594 49.155762 Q 23.057129 49.155762 22.396484 48.347412 Q 21.735840 47.539062 21.735840 45.997559 Q 21.735840 44.461426 22.396484 43.650391 Q 23.057129 42.839355 24.308594 42.839355 Z " fill="rgb(0, 0, 0)" fill-opacity="1.000000" />
<path d="M 34.203613 44.225098 Q 33.886719 43.978027 33.559082 43.865234 Q 33.231445 43.752441 32.839355 43.752441 Q 31.915527 43.752441 31.426758 44.332520 Q 30.937988 44.912598 30.937988 46.008301 L 30.937988 49.000000 L 29.944336 49.000000 L 29.944336 42.984375 L 30.937988 42.984375 L 30.937988 44.160645 Q 31.185059 43.521484 31.697998 43.180420 Q 32.210938 42.839355 32.914551 42.839355 Q 33.279785 42.839355 33.596680 42.930664 Q 33.913574 43.021973 34.203613 43.215332 Z " fill="rgb(0, 0, 0)" fill-opacity="1.000000" />
<path d="M 38.297852 41.276367 L 38.297852 42.984375 L 40.542969 42.984375 L 40.542969 43.752441 L 38.297852 43.752441 L 38.297852 47.018066 Q 38.297852 47.684082 38.550293 47.947266 Q 38.802734 48.210449 39.431152 48.210449 L 40.542969 48.210449 L 40.542969 49.000000 L 39.334473 49.000000 Q 38.222656 49.000000 37.766113 48.554199 Q 37.309570 48.108398 37.309570 47.018066 L 37.309570 43.752441 L 35.703613 43.752441 L 35.703613 42.984375 L 37.309570 42.984375 L 37.309570 41.276367 Z " fill="rgb(0, 0, 0)" fill-opacity="1.000000" />
<path d="M 50.450195 48.092285 L 52.136719 48.092285 L 52.136719 42.033691 L 50.117188 43.005859 L 50.117188 41.963867 L 52.125977 41.007812 L 53.210938 41.007812 L 53.210938 48.092285 L 54.875977 48.092285 L 54.875977 49.000000 L 50.450195 49.000000 Z " fill="rgb(0, 0, 0)" fill-opacity="1.000000" />
<path d="M 59.201172 45.444336 Q 59.894043 45.444336 60.288818 44.944824 Q 60.683594 44.445312 60.683594 43.564453 Q 60.683594 42.683594 60.288818 42.184082 Q 59.894043 41.684570 59.201172 41.684570 Q 58.481445 41.684570 58.116211 42.159912 Q 57.750977 42.635254 57.750977 43.564453 Q 57.750977 44.499023 58.113525 44.971680 Q 58.476074 45.444336 59.201172 45.444336 Z M 57.267578 48.833496 L 57.267578 47.834473 Q 57.605957 48.033203 57.987305 48.137939 Q 58.368652 48.242676 58.782227 48.242676 Q 59.813477 48.242676 60.342529 47.466553 Q 60.871582 46.690430 60.871582 45.181152 Q 60.619141 45.718262 60.162598 46.005615 Q 59.706055 46.292969 59.115234 46.292969 Q 57.955078 46.292969 57.318604 45.578613 Q 56.682129 44.864258 56.682129 43.553711 Q 56.682129 42.259277 57.334717 41.547607 Q 57.987305 40.835938 59.179688 40.835938 Q 60.576172 40.835938 61.226074 41.840332 Q 61.875977 42.844727 61.875977 44.998535 Q 61.875977 47.023438 61.094482 48.089600 Q 60.312988 49.155762 58.825195 49.155762 Q 58.433105 49.155762 58.035645 49.072510 Q 57.638184 48.989258 57.267578 48.833496 Z " fill="rgb(0, 0, 0)" fill-opacity="1.000000" />
<path d="M 66.201172 45.444336 Q 66.894043 45.444336 67.288818 44.944824 Q 67.683594 44.445312 67.683594 43.564453 Q 67.683594 42.683594 67.288818 42.184082 Q 66.894043 41.684570 66.201172 41.684570 Q 65.481445 41.684570 65.116211 42.159912 Q 64.750977 42.635254 64.750977 43.564453 Q 64.750977 44.499023 65.113525 44.971680 Q 65.476074 45.444336 66.201172 45.444336 Z M 64.267578 48.833496 L 64.267578 47.834473 Q 64.605957 48.033203 64.987305 48.137939 Q 65.368652 48.242676 65.782227 48.242676 Q 66.813477 48.242676 67.342529 47.466553 Q 67.871582 46.690430 67.871582 45.181152 Q 67.619141 45.718262 67.162598 46.005615 Q 66.706055 46.292969 66.115234 46.292969 Q 64.955078 46.292969 64.318604 45.578613 Q 63.682129 44.864258 63.682129 43.553711 Q 63.682129 42.259277 64.334717 41.547607 Q 64.987305 40.835938 66.179688 40.835938 Q 67.576172 40.835938 68.226074 41.840332 Q 68.875977 42.844727 68.875977 44.998535 Q 68.875977 47.023438 68.094482 48.089600 Q 67.312988 49.155762 65.825195 49.155762 Q 65.433105 49.155762 65.035645 49.072510 Q 64.638184 48.989258 64.267578 48.833496 Z " fill="rgb(0, 0, 0)" fill-opacity="1.000000" />
<path d="M 71.450195 48.092285 L 73.136719 48.092285 L 73.136719 42.033691 L 71.117188 43.005859 L 71.117188 41.963867 L 73.125977 41.007812 L 74.210938 41.007812 L 74.210938 48.092285 L 75.875977 48.092285 L 75.875977 49.000000 L 71.450195 49.000000 Z " fill="rgb(0, 0, 0)" fill-opacity="1.000000" />
<path d="M 78.450195 48.092285 L 80.136719 48.092285 L 80.136719 42.033691 L 78.117188 43.005859 L 78.117188 41.963867 L 80.125977 41.007812 L 81.210938 41.007812 L 81.210938 48.092285 L 82.875977 48.092285 L 82.875977 49.000000 L 78.450195 49.000000 Z " fill="rgb(0, 0, 0)" fill-opacity="1.000000" />
<path d="M 91.032227 46.142578 L 97.590332 42.866211 L 97.590332 49.418945 Z " fill="rgb(0, 0, 0)" fill-opacity="1.000000" />
<path d="M 97.892578 46.335938 L 97.892578 45.412109 L 104.729980 45.412109 L 104.729980 46.335938 Z " fill="rgb(0, 0, 0)" fill-opacity="1.000000" />
<path d="M 104.892578 46.335938 L 104.892578 45.412109 L 111.729980 45.412109 L 111.729980 46.335938 Z " fill="rgb(0, 0, 0)" fill-opacity="1.000000" />
<path d="M 111.892578 46.335938 L 111.892578 45.412109 L 118.729980 45.412109 L 118.729980 46.335938 Z " fill="rgb(0, 0, 0)" fill-opacity="1.000000" />
<path d="M 118.892578 46.335938 L 118.892578 45.412109 L 125.729980 45.412109 L 125.729980 46.335938 Z " fill="rgb(0, 0, 0)" fill-opacity="1.000000" />
<path d="M 125.892578 46.335938 L 125.892578 45.412109 L 132.729980 45.412109 L 132.729980 46.335938 Z " fill="rgb(0, 0, 0)" fill-opacity="1.000000" />
<path d="M 132.892578 46.335938 L 132.892578 45.412109 L 139.729980 45.412109 L 139.729980 46.335938 Z " fill="rgb(0, 0, 0)" fill-opacity="1.000000" />
<path d="M 142.878906 52.319336 L 142.878906 46.335938 L 139.892578 46.335938 L 139.892578 45.412109 L 142.878906 45.412109 L 142.878906 38.300781 L 143.738281 38.300781 L 143.738281 52.319336 Z " fill="rgb(0, 0, 0)" fill-opacity="1.000000" />
<path d="M 177.014160 48.242676 L 177.014160 51.288086 L 176.020508 51.288086 L 176.020508 42.984375 L 177.014160 42.984375 L 177.014160 43.752441 Q 177.261230 43.306641 177.672119 43.072998 Q 178.083008 42.839355 178.620117 42.839355 Q 179.710449 42.839355 180.330811 43.682617 Q 180.951172 44.525879 180.951172 46.019043 Q 180.951172 47.485352 180.328125 48.320557 Q 179.705078 49.155762 178.620117 49.155762 Q 178.072266 49.155762 177.661377 48.922119 Q 177.250488 48.688477 177.014160 48.242676 Z M 179.914551 45.997559 Q 179.914551 44.848145 179.552002 44.262695 Q 179.189453 43.677246 178.475098 43.677246 Q 177.755371 43.677246 177.384766 44.265381 Q 177.014160 44.853516 177.014160 45.997559 Q 177.014160 47.136230 177.384766 47.727051 Q 177.755371 48.317871 178.475098 48.317871 Q 179.189453 48.317871 179.552002 47.732422 Q 179.914551 47.146973 179.914551 45.997559 Z " fill="rgb(0, 0, 0)" fill-opacity="1.000000" />
<path d="M 185.308594 43.677246 Q 184.556641 43.677246 184.169922 44.262695 Q 183.783203 44.848145 183.783203 45.997559 Q 183.783203 47.141602 184.169922 47.729736 Q 184.556641 48.317871 185.308594 48.317871 Q 186.065918 48.317871 186.452637 47.729736 Q 186.839355 47.141602 186.839355 45.997559 Q 186.839355 44.848145 186.452637 44.262695 Q 186.065918 43.677246 185.308594 43.677246 Z M 185.308594 42.839355 Q 186.560059 42.839355 187.223389 43.650391 Q 187.886719 44.461426 187.886719 45.997559 Q 187.886719 47.539062 187.226074 48.347412 Q 186.565430 49.155762 185.308594 49.155762 Q 184.057129 49.155762 183.396484 48.347412 Q 182.735840 47.539062 182.735840 45.997559 Q 182.735840 44.461426 183.396484 43.650391 Q 184.057129 42.839355 185.308594 42.839355 Z " fill="rgb(0, 0, 0)" fill-opacity="1.000000" />
<path d="M 195.203613 44.225098 Q 194.886719 43.978027 194.559082 43.865234 Q 194.231445 43.752441 193.839355 43.752441 Q 192.915527 43.752441 192.426758 44.332520 Q 191.937988 44.912598 191.937988 46.008301 L 191.937988 49.000000 L 190.944336 49.000000 L 190.944336 42.984375 L 191.937988 42.984375 L 191.937988 44.160645 Q 192.185059 43.521484 192.697998 43.180420 Q 193.210938 42.839355 193.914551 42.839355 Q 194.279785 42.839355 194.596680 42.930664 Q 194.913574 43.021973 195.203613 43.215332 Z " fill="rgb(0, 0, 0)" fill-opacity="1.000000" />
<path d="M 199.297852 41.276367 L 199.297852 42.984375 L 201.542969 42.984375 L 201.542969 43.752441 L 199.297852 43.752441 L 199.297852 47.018066 Q 199.297852 47.684082 199.550293 47.947266 Q 199.802734 48.210449 200.431152 48.210449 L 201.542969 48.210449 L 201.542969 49.000000 L 200.334473 49.000000 Q 199.222656 49.000000 198.766113 48.554199 Q 198.309570 48.108398 198.309570 47.018066 L 198.309570 43.752441 L 196.703613 43.752441 L 196.703613 42.984375 L 198.309570 42.984375 L 198.309570 41.276367 Z " fill="rgb(0, 0, 0)" fill-opacity="1.000000" />
<path d="M 212.003418 48.086914 L 215.687988 48.086914 L 215.687988 49.000000 L 210.816406 49.000000 L 210.816406 48.086914 Q 211.820801 47.028809 212.572754 46.217773 Q 213.324707 45.406738 213.609375 45.073730 Q 214.146484 44.418457 214.334473 44.012939 Q 214.522461 43.607422 214.522461 43.183105 Q 214.522461 42.511719 214.127686 42.130371 Q 213.732910 41.749023 213.045410 41.749023 Q 212.556641 41.749023 212.019531 41.926270 Q 211.482422 42.103516 210.880859 42.463379 L 210.880859 41.367676 Q 211.434082 41.104492 211.968506 40.970215 Q 212.502930 40.835938 213.023926 40.835938 Q 214.200195 40.835938 214.917236 41.461670 Q 215.634277 42.087402 215.634277 43.102539 Q 215.634277 43.618164 215.395264 44.133789 Q 215.156250 44.649414 214.619141 45.272461 Q 214.318359 45.621582 213.746338 46.239258 Q 213.174316 46.856934 212.003418 48.086914 Z " fill="rgb(0, 0, 0)" fill-opacity="1.000000" />
<path d="M 219.003418 48.086914 L 222.687988 48.086914 L 222.687988 49.000000 L 217.816406 49.000000 L 217.816406 48.086914 Q 218.820801 47.028809 219.572754 46.217773 Q 220.324707 45.406738 220.609375 45.073730 Q 221.146484 44.418457 221.334473 44.012939 Q 221.522461 43.607422 221.522461 43.183105 Q 221.522461 42.511719 221.127686 42.130371 Q 220.732910 41.749023 220.045410 41.749023 Q 219.556641 41.749023 219.019531 41.926270 Q 218.482422 42.103516 217.880859 42.463379 L 217.880859 41.367676 Q 218.434082 41.104492 218.968506 40.970215 Q 219.502930 40.835938 220.023926 40.835938 Q 221.200195 40.835938 221.917236 41.461670 Q 222.634277 42.087402 222.634277 43.102539 Q 222.634277 43.618164 222.395264 44.133789 Q 222.156250 44.649414 221.619141 45.272461 Q 221.318359 45.621582 220.746338 46.239258 Q 220.174316 46.856934 219.003418 48.086914 Z " fill="rgb(0, 0, 0)" fill-opacity="1.000000" />
<path d="M 252.032227 46.142578 L 258.590332 42.866211 L 258.590332 49.418945 Z " fill="rgb(0, 0, 0)" fill-opacity="1.000000" />
<path d="M 258.892578 46.335938 L 258.892578 45.412109 L 265.729980 45.412109 L 265.729980 46.335938 Z " fill="rgb(0, 0, 0)" fill-opacity="1.000000" />
<path d="M 265.892578 46.335938 L 265.892578 45.412109 L 272.729980 45.412109 L 272.729980 46.335938 Z " fill="rgb(0, 0, 0)" fill-opacity="1.000000" />
<path d="M 272.892578 46.335938 L 272.892578 45.412109 L 279.729980 45.412109 L 279.729980 46.335938 Z " fill="rgb(0, 0, 0)" fill-opacity="1.000000" />
<path d="M 279.892578 46.335938 L 279.892578 45.412109 L 286.729980 45.412109 L 286.729980 46.335938 Z " fill="rgb(0, 0, 0)" fill-opacity="1.000000" />
<path d="M 286.892578 46.335938 L 286.892578 45.412109 L 293.729980 45.412109 L 293.729980 46.335938 Z " fill="rgb(0, 0, 0)" fill-opacity="1.000000" />
<path d="M 293.892578 46.335938 L 293.892578 45.412109 L 300.729980 45.412109 L 300.729980 46.335938 Z " fill="rgb(0, 0, 0)" fill-opacity="1.000000" />
<path d="M 303.878906 52.319336 L 303.878906 46.335938 L 300.892578 46.335938 L 300.892578 45.412109 L 303.878906 45.412109 L 303.878906 38.300781 L 304.738281 38.300781 L 304.738281 52.319336 Z " fill="rgb(0, 0, 0)" fill-opacity="1.000000" />
<path d="M 317.014160 48.242676 L 317.014160 51.288086 L 316.020508 51.288086 L 316.020508 42.984375 L 317.014160 42.984375 L 317.014160 43.752441 Q 317.261230 43.306641 317.672119 43.072998 Q 318.083008 42.839355 318.620117 42.839355 Q 319.710449 42.839355 320.330811 43.682617 Q 320.951172 44.525879 320.951172 46.019043 Q 320.951172 47.485352 320.328125 48.320557 Q 319.705078 49.155762 318.620117 49.155762 Q 318.072266 49.155762 317.661377 48.922119 Q 317.250488 48.688477 317.014160 48.242676 Z M 319.914551 45.997559 Q 319.914551 44.848145 319.552002 44.262695 Q 319.189453 43.677246 318.475098 43.677246 Q 317.755371 43.677246 317.384766 44.265381 Q 317.014160 44.853516 317.014160 45.997559 Q 317.014160 47.136230 317.384766 47.727051 Q 317.755371 48.317871 318.475098 48.317871 Q 319.189453 48.317871 319.552002 47.732422 Q 319.914551 47.146973 319.914551 45.997559 Z " fill="rgb(0, 0, 0)" fill-opacity="1.000000" />
<path d="M 325.308594 43.677246 Q 324.556641 43.677246 324.169922 44.262695 Q 323.783203 44.848145 323.783203 45.997559 Q 323.783203 47.141602 324.169922 47.729736 Q 324.556641 48.317871 325.308594 48.317871 Q 326.065918 48.317871 326.452637 47.729736 Q 326.839355 47.141602 326.839355 45.997559 Q 326.839355 44.848145 326.452637 44.262695 Q 326.065918 43.677246 325.308594 43.677246 Z M 325.308594 42.839355 Q 326.560059 42.839355 327.223389 43.650391 Q 327.886719 44.461426 327.886719 45.997559 Q 327.886719 47.539062 327.226074 48.347412 Q 326.565430 49.155762 325.308594 49.155762 Q 324.057129 49.155762 323.396484 48.347412 Q 322.735840 47.539062 322.735840 45.997559 Q 322.735840 44.461426 323.396484 43.650391 Q 324.057129 42.839355 325.308594 42.839355 Z " fill="rgb(0, 0, 0)" fill-opacity="1.000000" />
<path d="M 335.203613 44.225098 Q 334.886719 43.978027 334.559082 43.865234 Q 334.231445 43.752441 333.839355 43.752441 Q 332.915527 43.752441 332.426758 44.332520 Q 331.937988 44.912598 331.937988 46.008301 L 331.937988 49.000000 L 330.944336 49.000000 L 330.944336 42.984375 L 331.937988 42.984375 L 331.937988 44.160645 Q 332.185059 43.521484 332.697998 43.180420 Q 333.210938 42.839355 333.914551 42.839355 Q 334.279785 42.839355 334.596680 42.930664 Q 334.913574 43.021973 335.203613 43.215332 Z " fill="rgb(0, 0, 0)" fill-opacity="1.000000" />
<path d="M 339.297852 41.276367 L 339.297852 42.984375 L 341.542969 42.984375 L 341.542969 43.752441 L 339.297852 43.752441 L 339.297852 47.018066 Q 339.297852 47.684082 339.550293 47.947266 Q 339.802734 48.210449 340.431152 48.210449 L 341.542969 48.210449 L 341.542969 49.000000 L 340.334473 49.000000 Q 339.222656 49.000000 338.766113 48.554199 Q 338.309570 48.108398 338.309570 47.018066 L 338.309570 43.752441 L 336.703613 43.752441 L 336.703613 42.984375 L 338.309570 42.984375 L 338.309570 41.276367 Z " fill="rgb(0, 0, 0)" fill-opacity="1.000000" />
<path d="M 353.201172 45.444336 Q 353.894043 45.444336 354.288818 44.944824 Q 354.683594 44.445312 354.683594 43.564453 Q 354.683594 42.683594 354.288818 42.184082 Q 353.894043 41.684570 353.201172 41.684570 Q 352.481445 41.684570 352.116211 42.159912 Q 351.750977 42.635254 351.750977 43.564453 Q 351.750977 44.499023 352.113525 44.971680 Q 352.476074 45.444336 353.201172 45.444336 Z M 351.267578 48.833496 L 351.267578 47.834473 Q 351.605957 48.033203 351.987305 48.137939 Q 352.368652 48.242676 352.782227 48.242676 Q 353.813477 48.242676 354.342529 47.466553 Q 354.871582 46.690430 354.871582 45.181152 Q 354.619141 45.718262 354.162598 46.005615 Q 353.706055 46.292969 353.115234 46.292969 Q 351.955078 46.292969 351.318604 45.578613 Q 350.682129 44.864258 350.682129 43.553711 Q 350.682129 42.259277 351.334717 41.547607 Q 351.987305 40.835938 353.179688 40.835938 Q 354.576172 40.835938 355.226074 41.840332 Q 355.875977 42.844727 355.875977 44.998535 Q 355.875977 47.023438 355.094482 48.089600 Q 354.312988 49.155762 352.825195 49.155762 Q 352.433105 49.155762 352.035645 49.072510 Q 351.638184 48.989258 351.267578 48.833496 Z " fill="rgb(0, 0, 0)" fill-opacity="1.000000" />
<path d="M 360.201172 45.444336 Q 360.894043 45.444336 361.288818 44.944824 Q 361.683594 44.445312 361.683594 43.564453 Q 361.683594 42.683594 361.288818 42.184082 Q 360.894043 41.684570 360.201172 41.684570 Q 359.481445 41.684570 359.116211 42.159912 Q 358.750977 42.635254 358.750977 43.564453 Q 358.750977 44.499023 359.113525 44.971680 Q 359.476074 45.444336 360.201172 45.444336 Z M 358.267578 48.833496 L 358.267578 47.834473 Q 358.605957 48.033203 358.987305 48.137939 Q 359.368652 48.242676 359.782227 48.242676 Q 360.813477 48.242676 361.342529 47.466553 Q 361.871582 46.690430 361.871582 45.181152 Q 361.619141 45.718262 361.162598 46.005615 Q 360.706055 46.292969 360.115234 46.292969 Q 358.955078 46.292969 358.318604 45.578613 Q 357.682129 44.864258 357.682129 43.553711 Q 357.682129 42.259277 358.334717 41.547607 Q 358.987305 40.835938 360.179688 40.835938 Q 361.576172 40.835938 362.226074 41.840332 Q 362.875977 42.844727 362.875977 44.998535 Q 362.875977 47.023438 362.094482 48.089600 Q 361.312988 49.155762 359.825195 49.155762 Q 359.433105 49.155762 359.035645 49.072510 Q 358.638184 48.989258 358.267578 48.833496 Z " fill="rgb(0, 0, 0)" fill-opacity="1.000000" />
<path d="M 365.450195 48.092285 L 367.136719 48.092285 L 367.136719 42.033691 L 365.117188 43.005859 L 365.117188 41.963867 L 367.125977 41.007812 L 368.210938 41.007812 L 368.210938 48.092285 L 369.875977 48.092285 L 369.875977 49.000000 L 365.450195 49.000000 Z " fill="rgb(0, 0, 0)" fill-opacity="1.000000" />
<path d="M 372.450195 48.092285 L 374.136719 48.092285 L 374.136719 42.033691 L 372.117188 43.005859 L 372.117188 41.963867 L 374.125977 41.007812 L 375.210938 41.007812 L 375.210938 48.092285 L 376.875977 48.092285 L 376.875977 49.000000 L 372.450195 49.000000 Z " fill="rgb(0, 0, 0)" fill-opacity="1.000000" />
<path d="M 387.878906 52.319336 L 387.878906 38.300781 L 388.738281 38.300781 L 388.738281 52.319336 Z " fill="rgb(0, 0, 0)" fill-opacity="1.000000" />
<path d="M 29.154785 14.980957 L 30.245117 14.980957 L 30.245117 22.086914 L 34.117676 22.086914 L 34.117676 23.000000 L 29.154785 23.000000 Z " fill="rgb(0, 0, 0)" fill-opacity="1.000000" />
<path d="M 93.878906 39.319336 L 93.878906 25.300781 L 94.738281 25.300781 L 94.738281 39.319336 Z " fill="rgb(0, 0, 0)" fill-opacity="1.000000" />
<path d="M 142.878906 39.319336 L 142.878906 25.300781 L 143.738281 25.300781 L 143.738281 39.319336 Z " fill="rgb(0, 0, 0)" fill-opacity="1.000000" />
<path d="M 254.878906 39.319336 L 254.878906 25.300781 L 255.738281 25.300781 L 255.738281 39.319336 Z " fill="rgb(0, 0, 0)" fill-opacity="1.000000" />
<path d="M 303.878906 39.319336 L 303.878906 25.300781 L 304.738281 25.300781 L 304.738281 39.319336 Z " fill="rgb(0, 0, 0)" fill-opacity="1.000000" />
<path d="M 387.878906 39.319336 L 387.878906 25.300781 L 388.738281 25.300781 L 388.738281 39.319336 Z " fill="rgb(0, 0, 0)" fill-opacity="1.000000" />
<path d="M 38.770508 19.976074 L 38.442871 19.976074 Q 37.578125 19.976074 37.140381 20.279541 Q 36.702637 20.583008 36.702637 21.184570 Q 36.702637 21.727051 37.030273 22.027832 Q 37.357910 22.328613 37.937988 22.328613 Q 38.754395 22.328613 39.221680 21.761963 Q 39.688965 21.195312 39.694336 20.196289 L 39.694336 19.976074 Z M 40.687988 19.567871 L 40.687988 23.000000 L 39.694336 23.000000 L 39.694336 22.108398 Q 39.377441 22.645508 38.896729 22.900635 Q 38.416016 23.155762 37.728516 23.155762 Q 36.810059 23.155762 36.262207 22.637451 Q 35.714355 22.119141 35.714355 21.249023 Q 35.714355 20.244629 36.388428 19.723633 Q 37.062500 19.202637 38.367676 19.202637 L 39.694336 19.202637 L 39.694336 19.046875 Q 39.688965 18.327148 39.329102 18.002197 Q 38.969238 17.677246 38.179688 17.677246 Q 37.674805 17.677246 37.159180 17.822266 Q 36.643555 17.967285 36.154785 18.246582 L 36.154785 17.258301 Q 36.702637 17.048828 37.204834 16.944092 Q 37.707031 16.839355 38.179688 16.839355 Q 38.926270 16.839355 39.455322 17.059570 Q 39.984375 17.279785 40.312012 17.720215 Q 40.516113 17.988770 40.602051 18.383545 Q 40.687988 18.778320 40.687988 19.567871 Z " fill="rgb(0, 0, 0)" fill-opacity="1.000000" />
<path d="M 44.014160 22.242676 L 44.014160 25.288086 L 43.020508 25.288086 L 43.020508 16.984375 L 44.014160 16.984375 L 44.014160 17.752441 Q 44.261230 17.306641 44.672119 17.072998 Q 45.083008 16.839355 45.620117 16.839355 Q 46.710449 16.839355 47.330811 17.682617 Q 47.951172 18.525879 47.951172 20.019043 Q 47.951172 21.485352 47.328125 22.320557 Q 46.705078 23.155762 45.620117 23.155762 Q 45.072266 23.155762 44.661377 22.922119 Q 44.250488 22.688477 44.014160 22.242676 Z M 46.914551 19.997559 Q 46.914551 18.848145 46.552002 18.262695 Q 46.189453 17.677246 45.475098 17.677246 Q 44.755371 17.677246 44.384766 18.265381 Q 44.014160 18.853516 44.014160 19.997559 Q 44.014160 21.136230 44.384766 21.727051 Q 44.755371 22.317871 45.475098 22.317871 Q 46.189453 22.317871 46.552002 21.732422 Q 46.914551 21.146973 46.914551 19.997559 Z " fill="rgb(0, 0, 0)" fill-opacity="1.000000" />
<path d="M 52.297852 15.276367 L 52.297852 16.984375 L 54.542969 16.984375 L 54.542969 17.752441 L 52.297852 17.752441 L 52.297852 21.018066 Q 52.297852 21.684082 52.550293 21.947266 Q 52.802734 22.210449 53.431152 22.210449 L 54.542969 22.210449 L 54.542969 23.000000 L 53.334473 23.000000 Q 52.222656 23.000000 51.766113 22.554199 Q 51.309570 22.108398 51.309570 21.018066 L 51.309570 17.752441 L 49.703613 17.752441 L 49.703613 16.984375 L 51.309570 16.984375 L 51.309570 15.276367 Z " fill="rgb(0, 0, 0)" fill-opacity="1.000000" />
<path d="M 59.308594 17.677246 Q 58.556641 17.677246 58.169922 18.262695 Q 57.783203 18.848145 57.783203 19.997559 Q 57.783203 21.141602 58.169922 21.729736 Q 58.556641 22.317871 59.308594 22.317871 Q 60.065918 22.317871 60.452637 21.729736 Q 60.839355 21.141602 60.839355 19.997559 Q 60.839355 18.848145 60.452637 18.262695 Q 60.065918 17.677246 59.308594 17.677246 Z M 59.308594 16.839355 Q 60.560059 16.839355 61.223389 17.650391 Q 61.886719 18.461426 61.886719 19.997559 Q 61.886719 21.539062 61.226074 22.347412 Q 60.565430 23.155762 59.308594 23.155762 Q 58.057129 23.155762 57.396484 22.347412 Q 56.735840 21.539062 56.735840 19.997559 Q 56.735840 18.461426 57.396484 17.650391 Q 58.057129 16.839355 59.308594 16.839355 Z " fill="rgb(0, 0, 0)" fill-opacity="1.000000" />
<path d="M 65.014160 22.242676 L 65.014160 25.288086 L 64.020508 25.288086 L 64.020508 16.984375 L 65.014160 16.984375 L 65.014160 17.752441 Q 65.261230 17.306641 65.672119 17.072998 Q 66.083008 16.839355 66.620117 16.839355 Q 67.710449 16.839355 68.330811 17.682617 Q 68.951172 18.525879 68.951172 20.019043 Q 68.951172 21.485352 68.328125 22.320557 Q 67.705078 23.155762 66.620117 23.155762 Q 66.072266 23.155762 65.661377 22.922119 Q 65.250488 22.688477 65.014160 22.242676 Z M 67.914551 19.997559 Q 67.914551 18.848145 67.552002 18.262695 Q 67.189453 17.677246 66.475098 17.677246 Q 65.755371 17.677246 65.384766 18.265381 Q 65.014160 18.853516 65.014160 19.997559 Q 65.014160 21.136230 65.384766 21.727051 Q 65.755371 22.317871 66.475098 22.317871 Q 67.189453 22.317871 67.552002 21.732422 Q 67.914551 21.146973 67.914551 19.997559 Z " fill="rgb(0, 0, 0)" fill-opacity="1.000000" />
<path d="M 93.878906 26.319336 L 93.878906 12.300781 L 94.738281 12.300781 L 94.738281 19.412109 L 97.729980 19.412109 L 97.729980 20.335938 L 94.738281 20.335938 L 94.738281 26.319336 Z " fill="rgb(0, 0, 0)" fill-opacity="1.000000" />
<path d="M 97.892578 20.335938 L 97.892578 19.412109 L 104.729980 19.412109 L 104.729980 20.335938 Z " fill="rgb(0, 0, 0)" fill-opacity="1.000000" />
<path d="M 104.892578 20.335938 L 104.892578 19.412109 L 111.729980 19.412109 L 111.729980 20.335938 Z " fill="rgb(0, 0, 0)" fill-opacity="1.000000" />
<path d="M 111.892578 20.335938 L 111.892578 19.412109 L 118.729980 19.412109 L 118.729980 20.335938 Z " fill="rgb(0, 0, 0)" fill-opacity="1.000000" />
<path d="M 118.892578 20.335938 L 118.892578 19.412109 L 125.729980 19.412109 L 125.729980 20.335938 Z " fill="rgb(0, 0, 0)" fill-opacity="1.000000" />
<path d="M 125.892578 20.335938 L 125.892578 19.412109 L 132.729980 19.412109 L 132.729980 20.335938 Z " fill="rgb(0, 0, 0)" fill-opacity="1.000000" />
<path d="M 132.892578 20.335938 L 132.892578 19.412109 L 139.729980 19.412109 L 139.729980 20.335938 Z " fill="rgb(0, 0, 0)" fill-opacity="1.000000" />
<path d="M 140.032227 23.418945 L 140.032227 16.866211 L 146.590332 20.142578 Z " fill="rgb(0, 0, 0)" fill-opacity="1.000000" />
<path d="M 194.435547 15.254883 L 194.435547 16.355957 Q 193.941406 16.039062 193.444580 15.877930 Q 192.947754 15.716797 192.442871 15.716797 Q 191.674805 15.716797 191.229004 16.073975 Q 190.783203 16.431152 190.783203 17.038086 Q 190.783203 17.569824 191.075928 17.849121 Q 191.368652 18.128418 192.168945 18.316406 L 192.738281 18.445312 Q 193.866211 18.708496 194.381836 19.272461 Q 194.897461 19.836426 194.897461 20.808594 Q 194.897461 21.952637 194.188477 22.554199 Q 193.479492 23.155762 192.125977 23.155762 Q 191.562012 23.155762 190.992676 23.034912 Q 190.423340 22.914062 189.848633 22.672363 L 189.848633 21.517578 Q 190.466309 21.909668 191.016846 22.092285 Q 191.567383 22.274902 192.125977 22.274902 Q 192.947754 22.274902 193.404297 21.906982 Q 193.860840 21.539062 193.860840 20.878418 Q 193.860840 20.276855 193.546631 19.959961 Q 193.232422 19.643066 192.453613 19.471191 L 191.873535 19.336914 Q 190.756348 19.084473 190.251465 18.574219 Q 189.746582 18.063965 189.746582 17.204590 Q 189.746582 16.130371 190.468994 15.483154 Q 191.191406 14.835938 192.389160 14.835938 Q 192.851074 14.835938 193.361328 14.940674 Q 193.871582 15.045410 194.435547 15.254883 Z " fill="rgb(0, 0, 0)" fill-opacity="1.000000" />
<path d="M 201.435547 15.254883 L 201.435547 16.355957 Q 200.941406 16.039062 200.444580 15.877930 Q 199.947754 15.716797 199.442871 15.716797 Q 198.674805 15.716797 198.229004 16.073975 Q 197.783203 16.431152 197.783203 17.038086 Q 197.783203 17.569824 198.075928 17.849121 Q 198.368652 18.128418 199.168945 18.316406 L 199.738281 18.445312 Q 200.866211 18.708496 201.381836 19.272461 Q 201.897461 19.836426 201.897461 20.808594 Q 201.897461 21.952637 201.188477 22.554199 Q 200.479492 23.155762 199.125977 23.155762 Q 198.562012 23.155762 197.992676 23.034912 Q 197.423340 22.914062 196.848633 22.672363 L 196.848633 21.517578 Q 197.466309 21.909668 198.016846 22.092285 Q 198.567383 22.274902 199.125977 22.274902 Q 199.947754 22.274902 200.404297 21.906982 Q 200.860840 21.539062 200.860840 20.878418 Q 200.860840 20.276855 200.546631 19.959961 Q 200.232422 19.643066 199.453613 19.471191 L 198.873535 19.336914 Q 197.756348 19.084473 197.251465 18.574219 Q 196.746582 18.063965 196.746582 17.204590 Q 196.746582 16.130371 197.468994 15.483154 Q 198.191406 14.835938 199.389160 14.835938 Q 199.851074 14.835938 200.361328 14.940674 Q 200.871582 15.045410 201.435547 15.254883 Z " fill="rgb(0, 0, 0)" fill-opacity="1.000000" />
<path d="M 203.735840 14.980957 L 204.826172 14.980957 L 204.826172 18.053223 L 207.796387 18.053223 L 207.796387 14.980957 L 208.886719 14.980957 L 208.886719 23.000000 L 207.796387 23.000000 L 207.796387 18.966309 L 204.826172 18.966309 L 204.826172 23.000000 L 203.735840 23.000000 Z " fill="rgb(0, 0, 0)" fill-opacity="1.000000" />
<path d="M 254.878906 26.319336 L 254.878906 12.300781 L 255.738281 12.300781 L 255.738281 19.412109 L 258.729980 19.412109 L 258.729980 20.335938 L 255.738281 20.335938 L 255.738281 26.319336 Z " fill="rgb(0, 0, 0)" fill-opacity="1.000000" />
<path d="M 258.892578 20.335938 L 258.892578 19.412109 L 265.729980 19.412109 L 265.729980 20.335938 Z " fill="rgb(0, 0, 0)" fill-opacity="1.000000" />
<path d="M 265.892578 20.335938 L 265.892578 19.412109 L 272.729980 19.412109 L 272.729980 20.335938 Z " fill="rgb(0, 0, 0)" fill-opacity="1.000000" />
<path d="M 272.892578 20.335938 L 272.892578 19.412109 L 279.729980 19.412109 L 279.729980 20.335938 Z " fill="rgb(0, 0, 0)" fill-opacity="1.000000" />
<path d="M 279.892578 20.335938 L 279.892578 19.412109 L 286.729980 19.412109 L 286.729980 20.335938 Z " fill="rgb(0, 0, 0)" fill-opacity="1.000000" />
<path d="M 286.892578 20.335938 L 286.892578 19.412109 L 293.729980 19.412109 L 293.729980 20.335938 Z " fill="rgb(0, 0, 0)" fill-opacity="1.000000" />
<path d="M 293.892578 20.335938 L 293.892578 19.412109 L 300.729980 19.412109 L 300.729980 20.335938 Z " fill="rgb(0, 0, 0)" fill-opacity="1.000000" />
<path d="M 301.032227 23.418945 L 301.032227 16.866211 L 307.590332 20.142578 Z " fill="rgb(0, 0, 0)" fill-opacity="1.000000" />
<path d="M 327.435547 15.254883 L 327.435547 16.355957 Q 326.941406 16.039062 326.444580 15.877930 Q 325.947754 15.716797 325.442871 15.716797 Q 324.674805 15.716797 324.229004 16.073975 Q 323.783203 16.431152 323.783203 17.038086 Q 323.783203 17.569824 324.075928 17.849121 Q 324.368652 18.128418 325.168945 18.316406 L 325.738281 18.445312 Q 326.866211 18.708496 327.381836 19.272461 Q 327.897461 19.836426 327.897461 20.808594 Q 327.897461 21.952637 327.188477 22.554199 Q 326.479492 23.155762 325.125977 23.155762 Q 324.562012 23.155762 323.992676 23.034912 Q 323.423340 22.914062 322.848633 22.672363 L 322.848633 21.517578 Q 323.466309 21.909668 324.016846 22.092285 Q 324.567383 22.274902 325.125977 22.274902 Q 325.947754 22.274902 326.404297 21.906982 Q 326.860840 21.539062 326.860840 20.878418 Q 326.860840 20.276855 326.546631 19.959961 Q 326.232422 19.643066 325.453613 19.471191 L 324.873535 19.336914 Q 323.756348 19.084473 323.251465 18.574219 Q 322.746582 18.063965 322.746582 17.204590 Q 322.746582 16.130371 323.468994 15.483154 Q 324.191406 14.835938 325.389160 14.835938 Q 325.851074 14.835938 326.361328 14.940674 Q 326.871582 15.045410 327.435547 15.254883 Z " fill="rgb(0, 0, 0)" fill-opacity="1.000000" />
<path d="M 335.015625 19.498047 L 335.015625 19.981445 L 330.734863 19.981445 L 330.734863 20.013672 Q 330.691895 21.243652 331.204834 21.780762 Q 331.717773 22.317871 332.652344 22.317871 Q 333.125000 22.317871 333.640625 22.167480 Q 334.156250 22.017090 334.741699 21.710938 L 334.741699 22.693848 Q 334.177734 22.924805 333.654053 23.040283 Q 333.130371 23.155762 332.641602 23.155762 Q 331.239746 23.155762 330.450195 22.315186 Q 329.660645 21.474609 329.660645 19.997559 Q 329.660645 18.558105 330.434082 17.698730 Q 331.207520 16.839355 332.496582 16.839355 Q 333.645996 16.839355 334.309326 17.618164 Q 334.972656 18.396973 335.015625 19.498047 Z M 334.027344 19.208008 Q 333.962891 18.584961 333.573486 18.131104 Q 333.184082 17.677246 332.453613 17.677246 Q 331.739258 17.677246 331.277344 18.149902 Q 330.815430 18.622559 330.772461 19.213379 Z " fill="rgb(0, 0, 0)" fill-opacity="1.000000" />
<path d="M 342.203613 18.225098 Q 341.886719 17.978027 341.559082 17.865234 Q 341.231445 17.752441 340.839355 17.752441 Q 339.915527 17.752441 339.426758 18.332520 Q 338.937988 18.912598 338.937988 20.008301 L 338.937988 23.000000 L 337.944336 23.000000 L 337.944336 16.984375 L 338.937988 16.984375 L 338.937988 18.160645 Q 339.185059 17.521484 339.697998 17.180420 Q 340.210938 16.839355 340.914551 16.839355 Q 341.279785 16.839355 341.596680 16.930664 Q 341.913574 17.021973 342.203613 17.215332 Z " fill="rgb(0, 0, 0)" fill-opacity="1.000000" />
<path d="M 343.537109 16.984375 L 344.562988 16.984375 L 346.308594 22.033203 L 348.059570 16.984375 L 349.085449 16.984375 L 346.947754 23.000000 L 345.674805 23.000000 Z " fill="rgb(0, 0, 0)" fill-opacity="1.000000" />
<path d="M 356.015625 19.498047 L 356.015625 19.981445 L 351.734863 19.981445 L 351.734863 20.013672 Q 351.691895 21.243652 352.204834 21.780762 Q 352.717773 22.317871 353.652344 22.317871 Q 354.125000 22.317871 354.640625 22.167480 Q 355.156250 22.017090 355.741699 21.710938 L 355.741699 22.693848 Q 355.177734 22.924805 354.654053 23.040283 Q 354.130371 23.155762 353.641602 23.155762 Q 352.239746 23.155762 351.450195 22.315186 Q 350.660645 21.474609 350.660645 19.997559 Q 350.660645 18.558105 351.434082 17.698730 Q 352.207520 16.839355 353.496582 16.839355 Q 354.645996 16.839355 355.309326 17.618164 Q 355.972656 18.396973 356.015625 19.498047 Z M 355.027344 19.208008 Q 354.962891 18.584961 354.573486 18.131104 Q 354.184082 17.677246 353.453613 17.677246 Q 352.739258 17.677246 352.277344 18.149902 Q 351.815430 18.622559 351.772461 19.213379 Z " fill="rgb(0, 0, 0)" fill-opacity="1.000000" />
<path d="M 363.203613 18.225098 Q 362.886719 17.978027 362.559082 17.865234 Q 362.231445 17.752441 361.839355 17.752441 Q 360.915527 17.752441 360.426758 18.332520 Q 359.937988 18.912598 359.937988 20.008301 L 359.937988 23.000000 L 358.944336 23.000000 L 358.944336 16.984375 L 359.937988 16.984375 L 359.937988 18.160645 Q 360.185059 17.521484 360.697998 17.180420 Q 361.210938 16.839355 361.914551 16.839355 Q 362.279785 16.839355 362.596680 16.930664 Q 362.913574 17.021973 363.203613 17.215332 Z " fill="rgb(0, 0, 0)" fill-opacity="1.000000" />
<path d="M 387.878906 26.319336 L 387.878906 12.300781 L 388.738281 12.300781 L 388.738281 26.319336 Z " fill="rgb(0, 0, 0)" fill-opacity="1.000000" />
<path d="M 6.892578 7.335938 L 6.892578 6.412109 L 13.729980 6.412109 L 13.729980 7.335938 Z " fill="rgb(0, 0, 0)" fill-opacity="1.000000" />
<path d="M 13.892578 7.335938 L 13.892578 6.412109 L 20.729980 6.412109 L 20.729980 7.335938 Z " fill="rgb(0, 0, 0)" fill-opacity="1.000000" />
<path d="M 20.892578 7.335938 L 20.892578 6.412109 L 27.729980 6.412109 L 27.729980 7.335938 Z " fill="rgb(0, 0, 0)" fill-opacity="1.000000" />
<path d="M 27.892578 7.335938 L 27.892578 6.412109 L 34.729980 6.412109 L 34.729980 7.335938 Z " fill="rgb(0, 0, 0)" fill-opacity="1.000000" />
<path d="M 34.892578 7.335938 L 34.892578 6.412109 L 41.729980 6.412109 L 41.729980 7.335938 Z " fill="rgb(0, 0, 0)" fill-opacity="1.000000" />
<path d="M 41.892578 7.335938 L 41.892578 6.412109 L 48.729980 6.412109 L 48.729980 7.335938 Z " fill="rgb(0, 0, 0)" fill-opacity="1.000000" />
<path d="M 48.892578 7.335938 L 48.892578 6.412109 L 55.729980 6.412109 L 55.729980 7.335938 Z " fill="rgb(0, 0, 0)" fill-opacity="1.000000" />
<path d="M 55.892578 7.335938 L 55.892578 6.412109 L 62.729980 6.412109 L 62.729980 7.335938 Z " fill="rgb(0, 0, 0)" fill-opacity="1.000000" />
<path d="M 62.892578 7.335938 L 62.892578 6.412109 L 69.729980 6.412109 L 69.729980 7.335938 Z " fill="rgb(0, 0, 0)" fill-opacity="1.000000" />
<path d="M 69.892578 7.335938 L 69.892578 6.412109 L 76.729980 6.412109 L 76.729980 7.335938 Z " fill="rgb(0, 0, 0)" fill-opacity="1.000000" />
<path d="M 76.892578 7.335938 L 76.892578 6.412109 L 83.729980 6.412109 L 83.729980 7.335938 Z " fill="rgb(0, 0, 0)" fill-opacity="1.000000" />
<path d="M 83.892578 7.335938 L 83.892578 6.412109 L 90.729980 6.412109 L 90.729980 7.335938 Z " fill="rgb(0, 0, 0)" fill-opacity="1.000000" />
<path d="M 93.878906 13.319336 L 93.878906 7.335938 L 90.892578 7.335938 L 90.892578 6.412109 L 94.738281 6.412109 L 94.738281 13.319336 Z " fill="rgb(0, 0, 0)" fill-opacity="1.000000" />
<path d="M 142.878906 13.319336 L 142.878906 6.412109 L 146.729980 6.412109 L 146.729980 7.335938 L 143.738281 7.335938 L 143.738281 13.319336 Z " fill="rgb(0, 0, 0)" fill-opacity="1.000000" />
<path d="M 146.892578 7.335938 L 146.892578 6.412109 L 153.729980 6.412109 L 153.729980 7.335938 Z " fill="rgb(0, 0, 0)" fill-opacity="1.000000" />
<path d="M 153.892578 7.335938 L 153.892578 6.412109 L 160.729980 6.412109 L 160.729980 7.335938 Z " fill="rgb(0, 0, 0)" fill-opacity="1.000000" />
<path d="M 160.892578 7.335938 L 160.892578 6.412109 L 167.729980 6.412109 L 167.729980 7.335938 Z " fill="rgb(0, 0, 0)" fill-opacity="1.000000" />
<path d="M 167.892578 7.335938 L 167.892578 6.412109 L 174.729980 6.412109 L 174.729980 7.335938 Z " fill="rgb(0, 0, 0)" fill-opacity="1.000000" />
<path d="M 174.892578 7.335938 L 174.892578 6.412109 L 181.729980 6.412109 L 181.729980 7.335938 Z " fill="rgb(0, 0, 0)" fill-opacity="1.000000" />
<path d="M 181.892578 7.335938 L 181.892578 6.412109 L 188.729980 6.412109 L 188.729980 7.335938 Z " fill="rgb(0, 0, 0)" fill-opacity="1.000000" />
<path d="M 188.892578 7.335938 L 188.892578 6.412109 L 195.729980 6.412109 L 195.729980 7.335938 Z " fill="rgb(0, 0, 0)" fill-opacity="1.000000" />
<path d="M 195.892578 7.335938 L 195.892578 6.412109 L 202.729980 6.412109 L 202.729980 7.335938 Z " fill="rgb(0, 0, 0)" fill-opacity="1.000000" />
<path d="M 202.892578 7.335938 L 202.892578 6.412109 L 209.729980 6.412109 L 209.729980 7.335938 Z " fill="rgb(0, 0, 0)" fill-opacity="1.000000" />
<path d="M 209.892578 7.335938 L 209.892578 6.412109 L 216.729980 6.412109 L 216.729980 7.335938 Z " fill="rgb(0, 0, 0)" fill-opacity="1.000000" />
<path d="M 216.892578 7.335938 L 216.892578 6.412109 L 223.729980 6.412109 L 223.729980 7.335938 Z " fill="rgb(0, 0, 0)" fill-opacity="1.000000" />
<path d="M 223.892578 7.335938 L 223.892578 6.412109 L 230.729980 6.412109 L 230.729980 7.335938 Z " fill="rgb(0, 0, 0)" fill-opacity="1.000000" />
<path d="M 230.892578 7.335938 L 230.892578 6.412109 L 237.729980 6.412109 L 237.729980 7.335938 Z " fill="rgb(0, 0, 0)" fill-opacity="1.000000" />
<path d="M 237.892578 7.335938 L 237.892578 6.412109 L 244.729980 6.412109 L 244.729980 7.335938 Z " fill="rgb(0, 0, 0)" fill-opacity="1.000000" />
<path d="M 244.892578 7.335938 L 244.892578 6.412109 L 251.729980 6.412109 L 251.729980 7.335938 Z " fill="rgb(0, 0, 0)" fill-opacity="1.000000" />
<path d="M 254.878906 13.319336 L 254.878906 7.335938 L 251.892578 7.335938 L 251.892578 6.412109 L 255.738281 6.412109 L 255.738281 13.319336 Z " fill="rgb(0, 0, 0)" fill-opacity="1.000000" />
<path d="M 303.878906 13.319336 L 303.878906 6.412109 L 307.729980 6.412109 L 307.729980 7.335938 L 304.738281 7.335938 L 304.738281 13.319336 Z " fill="rgb(0, 0, 0)" fill-opacity="1.000000" />
<path d="M 307.892578 7.335938 L 307.892578 6.412109 L 314.729980 6.412109 L 314.729980 7.335938 Z " fill="rgb(0, 0, 0)" fill-opacity="1.000000" />
<path d="M 314.892578 7.335938 L 314.892578 6.412109 L 321.729980 6.412109 L 321.729980 7.335938 Z " fill="rgb(0, 0, 0)" fill-opacity="1.000000" />
<path d="M 321.892578 7.335938 L 321.892578 6.412109 L 328.729980 6.412109 L 328.729980 7.335938 Z " fill="rgb(0, 0, 0)" fill-opacity="1.000000" />
<path d="M 328.892578 7.335938 L 328.892578 6.412109 L 335.729980 6.412109 L 335.729980 7.335938 Z " fill="rgb(0, 0, 0)" fill-opacity="1.000000" />
<path d="M 335.892578 7.335938 L 335.892578 6.412109 L 342.729980 6.412109 L 342.729980 7.335938 Z " fill="rgb(0, 0, 0)" fill-opacity="1.000000" />
<path d="M 342.892578 7.335938 L 342.892578 6.412109 L 349.729980 6.412109 L 349.729980 7.335938 Z " fill="rgb(0, 0, 0)" fill-opacity="1.000000" />
<path d="M 349.892578 7.335938 L 349.892578 6.412109 L 356.729980 6.412109 L 356.729980 7.335938 Z " fill="rgb(0, 0, 0)" fill-opacity="1.000000" />
<path d="M 356.892578 7.335938 L 356.892578 6.412109 L 363.729980 6.412109 L 363.729980 7.335938 Z " fill="rgb(0, 0, 0)" fill-opacity="1.000000" />
<path d="M 363.892578 7.335938 L 363.892578 6.412109 L 370.729980 6.412109 L 370.729980 7.335938 Z " fill="rgb(0, 0, 0)" fill-opacity="1.000000" />
<path d="M 370.892578 7.335938 L 370.892578 6.412109 L 377.729980 6.412109 L 377.729980 7.335938 Z " fill="rgb(0, 0, 0)" fill-opacity="1.000000" />
<path d="M 377.892578 7.335938 L 377.892578 6.412109 L 384.729980 6.412109 L 384.729980 7.335938 Z " fill="rgb(0, 0, 0)" fill-opacity="1.000000" />
<path d="M 387.878906 13.319336 L 387.878906 7.335938 L 384.892578 7.335938 L 384.892578 6.412109 L 388.738281 6.412109 L 388.738281 13.319336 Z " fill="rgb(0, 0, 0)" fill-opacity="1.000000" />
</svg>