<svg xmlns="http://www.w3.org/2000/svg" version="1.1" width="386" height="66">
<path d="M 2.878906 13.319336 L 2.878906 6.412109 L 6.729980 6.412109 L 6.729980 7.335938 L 3.738281 7.335938 L 3.738281 13.319336 Z " fill="rgb(0, 0, 0)" fill-opacity="1.000000" />
<path d="M 2.878906 26.319336 L 2.878906 12.300781 L 3.738281 12.300781 L 3.738281 26.319336 Z " fill="rgb(0, 0, 0)" fill-opacity="1.000000" />
<path d="M 2.878906 39.319336 L 2.878906 25.300781 L 3.738281 25.300781 L 3.738281 39.319336 Z " fill="rgb(0, 0, 0)" fill-opacity="1.000000" />
<path d="M 2.878906 52.319336 L 2.878906 38.300781 L 3.738281 38.300781 L 3.738281 52.319336 Z " fill="rgb(0, 0, 0)" fill-opacity="1.000000" />
<path d="M 2.878906 59.335938 L 2.878906 51.300781 L 3.738281 51.300781 L 3.738281 58.412109 L 6.729980 58.412109 L 6.729980 59.335938 Z " fill="rgb(0, 0, 0)" fill-opacity="1.000000" />
<path d="M 6.892578 59.335938 L 6.892578 58.412109 L 13.729980 58.412109 L 13.729980 59.335938 Z " fill="rgb(0, 0, 0)" fill-opacity="1.000000" />
<path d="M 13.892578 59.335938 L 13.892578 58.412109 L 20.729980 58.412109 L 20.729980 59.335938 Z " fill="rgb(0, 0, 0)" fill-opacity="1.000000" />
<path d="M 20.892578 59.335938 L 20.892578 58.412109 L 27.729980 58.412109 L 27.729980 59.335938 Z " fill="rgb(0, 0, 0)" fill-opacity="1.000000" />
<path d="M 27.892578 59.335938 L 27.892578 58.412109 L 34.729980 58.412109 L 34.729980 59.335938 Z " fill="rgb(0, 0, 0)" fill-opacity="1.000000" />
<path d="M 34.892578 59.335938 L 34.892578 58.412109 L 41.729980 58.412109 L 41.729980 59.335938 Z " fill="rgb(0, 0, 0)" fill-opacity="1.000000" />
<path d="M 41.892578 59.335938 L 41.892578 58.412109 L 48.729980 58.412109 L 48.729980 59.335938 Z " fill="rgb(0, 0, 0)" fill-opacity="1.000000" />
<path d="M 48.892578 59.335938 L 48.892578 58.412109 L 55.729980 58.412109 L 55.729980 59.335938 Z " fill="rgb(0, 0, 0)" fill-opacity="1.000000" />
<path d="M 55.892578 59.335938 L 55.892578 58.412109 L 62.729980 58.412109 L 62.729980 59.335938 Z " fill="rgb(0, 0, 0)" fill-opacity="1.000000" />
<path d="M 62.892578 59.335938 L 62.892578 58.412109 L 69.729980 58.412109 L 69.729980 59.335938 Z " fill="rgb(0, 0, 0)" fill-opacity="1.000000" />
<path d="M 69.892578 59.335938 L 69.892578 58.412109 L 76.729980 58.412109 L 76.729980 59.335938 Z " fill="rgb(0, 0, 0)" fill-opacity="1.000000" />
<path d="M 76.892578 59.335938 L 76.892578 58.412109 L 83.729980 58.412109 L 83.729980 59.335938 Z " fill="rgb(0, 0, 0)" fill-opacity="1.000000" />
<path d="M 83.892578 59.335938 L 83.892578 58.412109 L 86.878906 58.412109 L 86.878906 51.300781 L 87.738281 51.300781 L 87.738281 59.335938 Z " fill="rgb(0, 0, 0)" fill-opacity="1.000000" />
<path d="M 135.878906 59.335938 L 135.878906 51.300781 L 136.738281 51.300781 L 136.738281 58.412109 L 139.729980 58.412109 L 139.729980 59.335938 Z " fill="rgb(0, 0, 0)" fill-opacity="1.000000" />
<path d="M 139.892578 59.335938 L 139.892578 58.412109 L 146.729980 58.412109 L 146.729980 59.335938 Z " fill="rgb(0, 0, 0)" fill-opacity="1.000000" />
<path d="M 146.892578 59.335938 L 146.892578 58.412109 L 153.729980 58.412109 L 153.729980 59.335938 Z " fill="rgb(0, 0, 0)" fill-opacity="1.000000" />
<path d="M 153.892578 59.335938 L 153.892578 58.412109 L 160.729980 58.412109 L 160.729980 59.335938 Z " fill="rgb(0, 0, 0)" fill-opacity="1.000000" />
<path d="M 160.892578 59.335938 L 160.892578 58.412109 L 167.729980 58.412109 L 167.729980 59.335938 Z " fill="rgb(0, 0, 0)" fill-opacity="1.000000" />
<path d="M 167.892578 59.335938 L 167.892578 58.412109 L 174.729980 58.412109 L 174.729980 59.335938 Z " fill="rgb(0, 0, 0)" fill-opacity="1.000000" />
<path d="M 174.892578 59.335938 L 174.892578 58.412109 L 181.729980 58.412109 L 181.729980 59.335938 Z " fill="rgb(0, 0, 0)" fill-opacity="1.000000" />
<path d="M 181.892578 59.335938 L 181.892578 58.412109 L 188.729980 58.412109 L 188.729980 59.335938 Z " fill="rgb(0, 0, 0)" fill-opacity="1.000000" />
<path d="M 188.892578 59.335938 L 188.892578 58.412109 L 195.729980 58.412109 L 195.729980 59.335938 Z " fill="rgb(0, 0, 0)" fill-opacity="1.000000" />
<path d="M 195.892578 59.335938 L 195.892578 58.412109 L 202.729980 58.412109 L 202.729980 59.335938 Z " fill="rgb(0, 0, 0)" fill-opacity="1.000000" />
<path d="M 202.892578 59.335938 L 202.892578 58.412109 L 209.729980 58.412109 L 209.729980 59.335938 Z " fill="rgb(0, 0, 0)" fill-opacity="1.000000" />
<path d="M 209.892578 59.335938 L 209.892578 58.412109 L 216.729980 58.412109 L 216.729980 59.335938 Z " fill="rgb(0, 0, 0)" fill-opacity="1.000000" />
<path d="M 216.892578 59.335938 L 216.892578 58.412109 L 223.729980 58.412109 L 223.729980 59.335938 Z " fill="rgb(0, 0, 0)" fill-opacity="1.000000" />
<path d="M 223.892578 59.335938 L 223.892578 58.412109 L 230.729980 58.412109 L 230.729980 59.335938 Z " fill="rgb(0, 0, 0)" fill-opacity="1.000000" />
<path d="M 230.892578 59.335938 L 230.892578 58.412109 L 237.729980 58.412109 L 237.729980 59.335938 Z " fill="rgb(0, 0, 0)" fill-opacity="1.000000" />
<path d="M 237.892578 59.335938 L 237.892578 58.412109 L 244.729980 58.412109 L 244.729980 59.335938 Z " fill="rgb(0, 0, 0)" fill-opacity="1.000000" />
<path d="M 244.892578 59.335938 L 244.892578 58.412109 L 247.878906 58.412109 L 247.878906 51.300781 L 248.738281 51.300781 L 248.738281 59.335938 Z " fill="rgb(0, 0, 0)" fill-opacity="1.000000" />
<path d="M 296.878906 59.335938 L 296.878906 51.300781 L 297.738281 51.300781 L 297.738281 58.412109 L 300.729980 58.412109 L 300.729980 59.335938 Z " fill="rgb(0, 0, 0)" fill-opacity="1.000000" />
<path d="M 300.892578 59.335938 L 300.892578 58.412109 L 307.729980 58.412109 L 307.729980 59.335938 Z " fill="rgb(0, 0, 0)" fill-opacity="1.000000" />
<path d="M 307.892578 59.335938 L 307.892578 58.412109 L 314.729980 58.412109 L 314.729980 59.335938 Z " fill="rgb(0, 0, 0)" fill-opacity="1.000000" />
<path d="M 314.892578 59.335938 L 314.892578 58.412109 L 321.729980 58.412109 L 321.729980 59.335938 Z " fill="rgb(0, 0, 0)" fill-opacity="1.000000" />
<path d="M 321.892578 59.335938 L 321.892578 58.412109 L 328.729980 58.412109 L 328.729980 59.335938 Z " fill="rgb(0, 0, 0)" fill-opacity="1.000000" />
<path d="M 328.892578 59.335938 L 328.892578 58.412109 L 335.729980 58.412109 L 335.729980 59.335938 Z " fill="rgb(0, 0, 0)" fill-opacity="1.000000" />
<path d="M 335.892578 59.335938 L 335.892578 58.412109 L 342.729980 58.412109 L 342.729980 59.335938 Z " fill="rgb(0, 0, 0)" fill-opacity="1.000000" />
<path d="M 342.892578 59.335938 L 342.892578 58.412109 L 349.729980 58.412109 L 349.729980 59.335938 Z " fill="rgb(0, 0, 0)" fill-opacity="1.000000" />
<path d="M 349.892578 59.335938 L 349.892578 58.412109 L 356.729980 58.412109 L 356.729980 59.335938 Z " fill="rgb(0, 0, 0)" fill-opacity="1.000000" />
<path d="M 356.892578 59.335938 L 356.892578 58.412109 L 363.729980 58.412109 L 363.729980 59.335938 Z " fill="rgb(0, 0, 0)" fill-opacity="1.000000" />
<path d="M 363.892578 59.335938 L 363.892578 58.412109 L 370.729980 58.412109 L 370.729980 59.335938 Z " fill="rgb(0, 0, 0)" fill-opacity="1.000000" />
<path d="M 370.892578 59.335938 L 370.892578 58.412109 L 377.729980 58.412109 L 377.729980 59.335938 Z " fill="rgb(0, 0, 0)" fill-opacity="1.000000" />
<path d="M 377.892578 59.335938 L 377.892578 58.412109 L 380.878906 58.412109 L 380.878906 51.300781 L 381.738281 51.300781 L 381.738281 59.335938 Z " fill="rgb(0, 0, 0)" fill-opacity="1.000000" />
<path d="M 9.014160 48.242676 L 9.014160 51.288086 L 8.020508 51.288086 L 8.020508 42.984375 L 9.014160 42.984375 L 9.014160 43.752441 Q 9.261230 43.306641 9.672119 43.072998 Q 10.083008 42.839355 10.620117 42.839355 Q 11.710449 42.839355 12.330811 43.682617 Q 12.951172 44.525879 12.951172 46.019043 Q 12.951172 47.485352 12.328125 48.320557 Q 11.705078 49.155762 10.620117 49.155762 Q 10.072266 49.155762 9.661377 48.922119 Q 9.250488 48.688477 9.014160 48.242676 Z M 11.914551 45.997559 Q 11.914551 44.848145 11.552002 44.262695 Q 11.189453 43.677246 10.475098 43.677246 Q 9.755371 43.677246 9.384766 44.265381 Q 9.014160 44.853516 9.014160 45.997559 Q 9.014160 47.136230 9.384766 47.727051 Q 9.755371 48.317871 10.475098 48.317871 Q 11.189453 48.317871 11.552002 47.732422 Q 11.914551 47.146973 11.914551 45.997559 Z " fill="rgb(0, 0, 0)" fill-opacity="1.000000" />
<path d="M 17.308594 43.677246 Q 16.556641 43.677246 16.169922 44.262695 Q 15.783203 44.848145 15.783203 45.997559 Q 15.783203 47.141602 16.169922 47.729736 Q 16.556641 48.317871 17.308594 48.317871 Q 18.065918 48.317871 18.452637 47.729736 Q 18.839355 47.141602 18.839355 45.997559 Q 18.839355 44.848145 18.452637 44.262695 Q 18.065918 43.677246 17.308594 43.677246 Z M 17.308594 42.839355 Q 18.560059 42.839355 19.223389 43.650391 Q 19.886719 44.461426 19.886719 45.997559 Q 19.886719 47.539062 19.226074 48.347412 Q 18.565430 49.155762 17.308594 49.155762 Q 16.057129 49.155762 15.396484 48.347412 Q 14.735840 47.539062 14.735840 45.997559 Q 14.735840 44.461426 15.396484 43.650391 Q 16.057129 42.839355 17.308594 42.839355 Z " fill="rgb(0, 0, 0)" fill-opacity="1.000000" />
<path d="M 27.203613 44.225098 Q 26.886719 43.978027 26.559082 43.865234 Q 26.231445 43.752441 25.839355 43.752441 Q 24.915527 43.752441 24.426758 44.332520 Q 23.937988 44.912598 23.937988 46.008301 L 23.937988 49.000000 L 22.944336 49.000000 L 22.944336 42.984375 L 23.937988 42.984375 L 23.937988 44.160645 Q 24.185059 43.521484 24.697998 43.180420 Q 25.210938 42.839355 25.914551 42.839355 Q 26.279785 42.839355 26.596680 42.930664 Q 26.913574 43.021973 27.203613 43.215332 Z " fill="rgb(0, 0, 0)" fill-opacity="1.000000" />
<path d="M 31.297852 41.276367 L 31.297852 42.984375 L 33.542969 42.984375 L 33.542969 43.752441 L 31.297852 43.752441 L 31.297852 47.018066 Q 31.297852 47.684082 31.550293 47.947266 Q 31.802734 48.210449 32.431152 48.210449 L 33.542969 48.210449 L 33.542969 49.000000 L 32.334473 49.000000 Q 31.222656 49.000000 30.766113 48.554199 Q 30.309570 48.108398 30.309570 47.018066 L 30.309570 43.752441 L 28.703613 43.752441 L 28.703613 42.984375 L 30.309570 42.984375 L 30.309570 41.276367 Z " fill="rgb(0, 0, 0)" fill-opacity="1.000000" />
<path d="M 43.450195 48.092285 L 45.136719 48.092285 L 45.136719 42.033691 L 43.117188 43.005859 L 43.117188 41.963867 L 45.125977 41.007812 L 46.210938 41.007812 L 46.210938 48.092285 L 47.875977 48.092285 L 47.875977 49.000000 L 43.450195 49.000000 Z " fill="rgb(0, 0, 0)" fill-opacity="1.000000" />
<path d="M 52.201172 45.444336 Q 52.894043 45.444336 53.288818 44.944824 Q 53.683594 44.445312 53.683594 43.564453 Q 53.683594 42.683594 53.288818 42.184082 Q 52.894043 41.684570 52.201172 41.684570 Q 51.481445 41.684570 51.116211 42.159912 Q 50.750977 42.635254 50.750977 43.564453 Q 50.750977 44.499023 51.113525 44.971680 Q 51.476074 45.444336 52.201172 45.444336 Z M 50.267578 48.833496 L 50.267578 47.834473 Q 50.605957 48.033203 50.987305 48.137939 Q 51.368652 48.242676 51.782227 48.242676 Q 52.813477 48.242676 53.342529 47.466553 Q 53.871582 46.690430 53.871582 45.181152 Q 53.619141 45.718262 53.162598 46.005615 Q 52.706055 46.292969 52.115234 46.292969 Q 50.955078 46.292969 50.318604 45.578613 Q 49.682129 44.864258 49.682129 43.553711 Q 49.682129 42.259277 50.334717 41.547607 Q 50.987305 40.835938 52.179688 40.835938 Q 53.576172 40.835938 54.226074 41.840332 Q 54.875977 42.844727 54.875977 44.998535 Q 54.875977 47.023438 54.094482 48.089600 Q 53.312988 49.155762 51.825195 49.155762 Q 51.433105 49.155762 51.035645 49.072510 Q 50.638184 48.989258 50.267578 48.833496 Z " fill="rgb(0, 0, 0)" fill-opacity="1.000000" />
<path d="M 59.201172 45.444336 Q 59.894043 45.444336 60.288818 44.944824 Q 60.683594 44.445312 60.683594 43.564453 Q 60.683594 42.683594 60.288818 42.184082 Q 59.894043 41.684570 59.201172 41.684570 Q 58.481445 41.684570 58.116211 42.159912 Q 57.750977 42.635254 57.750977 43.564453 Q 57.750977 44.499023 58.113525 44.971680 Q 58.476074 45.444336 59.201172 45.444336 Z M 57.267578 48.833496 L 57.267578 47.834473 Q 57.605957 48.033203 57.987305 48.137939 Q 58.368652 48.242676 58.782227 48.242676 Q 59.813477 48.242676 60.342529 47.466553 Q 60.871582 46.690430 60.871582 45.181152 Q 60.619141 45.718262 60.162598 46.005615 Q 59.706055 46.292969 59.115234 46.292969 Q 57.955078 46.292969 57.318604 45.578613 Q 56.682129 44.864258 56.682129 43.553711 Q 56.682129 42.259277 57.334717 41.547607 Q 57.987305 40.835938 59.179688 40.835938 Q 60.576172 40.835938 61.226074 41.840332 Q 61.875977 42.844727 61.875977 44.998535 Q 61.875977 47.023438 61.094482 48.089600 Q 60.312988 49.155762 58.825195 49.155762 Q 58.433105 49.155762 58.035645 49.072510 Q 57.638184 48.989258 57.267578 48.833496 Z " fill="rgb(0, 0, 0)" fill-opacity="1.000000" />
<path d="M 64.450195 48.092285 L 66.136719 48.092285 L 66.136719 42.033691 L 64.117188 43.005859 L 64.117188 41.963867 L 66.125977 41.007812 L 67.210938 41.007812 L 67.210938 48.092285 L 68.875977 48.092285 L 68.875977 49.000000 L 64.450195 49.000000 Z " fill="rgb(0, 0, 0)" fill-opacity="1.000000" />
<path d="M 71.450195 48.092285 L 73.136719 48.092285 L 73.136719 42.033691 L 71.117188 43.005859 L 71.117188 41.963867 L 73.125977 41.007812 L 74.210938 41.007812 L 74.210938 48.092285 L 75.875977 48.092285 L 75.875977 49.000000 L 71.450195 49.000000 Z " fill="rgb(0, 0, 0)" fill-opacity="1.000000" />
<path d="M 84.032227 46.142578 L 90.590332 42.866211 L 90.590332 49.418945 Z " fill="rgb(0, 0, 0)" fill-opacity="1.000000" />
<path d="M 90.892578 46.335938 L 90.892578 45.412109 L 97.729980 45.412109 L 97.729980 46.335938 Z " fill="rgb(0, 0, 0)" fill-opacity="1.000000" />
<path d="M 97.892578 46.335938 L 97.892578 45.412109 L 104.729980 45.412109 L 104.729980 46.335938 Z " fill="rgb(0, 0, 0)" fill-opacity="1.000000" />
<path d="M 104.892578 46.335938 L 104.892578 45.412109 L 111.729980 45.412109 L 111.729980 46.335938 Z " fill="rgb(0, 0, 0)" fill-opacity="1.000000" />
<path d="M 111.892578 46.335938 L 111.892578 45.412109 L 118.729980 45.412109 L 118.729980 46.335938 Z " fill="rgb(0, 0, 0)" fill-opacity="1.000000" />
<path d="M 118.892578 46.335938 L 118.892578 45.412109 L 125.729980 45.412109 L 125.729980 46.335938 Z " fill="rgb(0, 0, 0)" fill-opacity="1.000000" />
<path d="M 125.892578 46.335938 L 125.892578 45.412109 L 132.729980 45.412109 L 132.729980 46.335938 Z " fill="rgb(0, 0, 0)" fill-opacity="1.000000" />
<path d="M 135.878906 52.319336 L 135.878906 46.335938 L 132.892578 46.335938 L 132.892578 45.412109 L 135.878906 45.412109 L 135.878906 38.300781 L 136.738281 38.300781 L 136.738281 52.319336 Z " fill="rgb(0, 0, 0)" fill-opacity="1.000000" />
<path d="M 170.014160 48.242676 L 170.014160 51.288086 L 169.020508 51.288086 L 169.020508 42.984375 L 170.014160 42.984375 L 170.014160 43.752441 Q 170.261230 43.306641 170.672119 43.072998 Q 171.083008 42.839355 171.620117 42.839355 Q 172.710449 42.839355 173.330811 43.682617 Q 173.951172 44.525879 173.951172 46.019043 Q 173.951172 47.485352 173.328125 48.320557 Q 172.705078 49.155762 171.620117 49.155762 Q 171.072266 49.155762 170.661377 48.922119 Q 170.250488 48.688477 170.014160 48.242676 Z M 172.914551 45.997559 Q 172.914551 44.848145 172.552002 44.262695 Q 172.189453 43.677246 171.475098 43.677246 Q 170.755371 43.677246 170.384766 44.265381 Q 170.014160 44.853516 170.014160 45.997559 Q 170.014160 47.136230 170.384766 47.727051 Q 170.755371 48.317871 171.475098 48.317871 Q 172.189453 48.317871 172.552002 47.732422 Q 172.914551 47.146973 172.914551 45.997559 Z " fill="rgb(0, 0, 0)" fill-opacity="1.000000" />
<path d="M 178.308594 43.677246 Q 177.556641 43.677246 177.169922 44.262695 Q 176.783203 44.848145 176.783203 45.997559 Q 176.783203 47.141602 177.169922 47.729736 Q 177.556641 48.317871 178.308594 48.317871 Q 179.065918 48.317871 179.452637 47.729736 Q 179.839355 47.141602 179.839355 45.997559 Q 179.839355 44.848145 179.452637 44.262695 Q 179.065918 43.677246 178.308594 43.677246 Z M 178.308594 42.839355 Q 179.560059 42.839355 180.223389 43.650391 Q 180.886719 44.461426 180.886719 45.997559 Q 180.886719 47.539062 180.226074 48.347412 Q 179.565430 49.155762 178.308594 49.155762 Q 177.057129 49.155762 176.396484 48.347412 Q 175.735840 47.539062 175.735840 45.997559 Q 175.735840 44.461426 176.396484 43.650391 Q 177.057129 42.839355 178.308594 42.839355 Z " fill="rgb(0, 0, 0)" fill-opacity="1.000000" />
<path d="M 188.203613 44.225098 Q 187.886719 43.978027 187.559082 43.865234 Q 187.231445 43.752441 186.839355 43.752441 Q 185.915527 43.752441 185.426758 44.332520 Q 184.937988 44.912598 184.937988 46.008301 L 184.937988 49.000000 L 183.944336 49.000000 L 183.944336 42.984375 L 184.937988 42.984375 L 184.937988 44.160645 Q 185.185059 43.521484 185.697998 43.180420 Q 186.210938 42.839355 186.914551 42.839355 Q 187.279785 42.839355 187.596680 42.930664 Q 187.913574 43.021973 188.203613 43.215332 Z " fill="rgb(0, 0, 0)" fill-opacity="1.000000" />
<path d="M 192.297852 41.276367 L 192.297852 42.984375 L 194.542969 42.984375 L 194.542969 43.752441 L 192.297852 43.752441 L 192.297852 47.018066 Q 192.297852 47.684082 192.550293 47.947266 Q 192.802734 48.210449 193.431152 48.210449 L 194.542969 48.210449 L 194.542969 49.000000 L 193.334473 49.000000 Q 192.222656 49.000000 191.766113 48.554199 Q 191.309570 48.108398 191.309570 47.018066 L 191.309570 43.752441 L 189.703613 43.752441 L 189.703613 42.984375 L 191.309570 42.984375 L 191.309570 41.276367 Z " fill="rgb(0, 0, 0)" fill-opacity="1.000000" />
<path d="M 205.003418 48.086914 L 208.687988 48.086914 L 208.687988 49.000000 L 203.816406 49.000000 L 203.816406 48.086914 Q 204.820801 47.028809 205.572754 46.217773 Q 206.324707 45.406738 206.609375 45.073730 Q 207.146484 44.418457 207.334473 44.012939 Q 207.522461 43.607422 207.522461 43.183105 Q 207.522461 42.511719 207.127686 42.130371 Q 206.732910 41.749023 206.045410 41.749023 Q 205.556641 41.749023 205.019531 41.926270 Q 204.482422 42.103516 203.880859 42.463379 L 203.880859 41.367676 Q 204.434082 41.104492 204.968506 40.970215 Q 205.502930 40.835938 206.023926 40.835938 Q 207.200195 40.835938 207.917236 41.461670 Q 208.634277 42.087402 208.634277 43.102539 Q 208.634277 43.618164 208.395264 44.133789 Q 208.156250 44.649414 207.619141 45.272461 Q 207.318359 45.621582 206.746338 46.239258 Q 206.174316 46.856934 205.003418 48.086914 Z " fill="rgb(0, 0, 0)" fill-opacity="1.000000" />
<path d="M 212.003418 48.086914 L 215.687988 48.086914 L 215.687988 49.000000 L 210.816406 49.000000 L 210.816406 48.086914 Q 211.820801 47.028809 212.572754 46.217773 Q 213.324707 45.406738 213.609375 45.073730 Q 214.146484 44.418457 214.334473 44.012939 Q 214.522461 43.607422 214.522461 43.183105 Q 214.522461 42.511719 214.127686 42.130371 Q 213.732910 41.749023 213.045410 41.749023 Q 212.556641 41.749023 212.019531 41.926270 Q 211.482422 42.103516 210.880859 42.463379 L 210.880859 41.367676 Q 211.434082 41.104492 211.968506 40.970215 Q 212.502930 40.835938 213.023926 40.835938 Q 214.200195 40.835938 214.917236 41.461670 Q 215.634277 42.087402 215.634277 43.102539 Q 215.634277 43.618164 215.395264 44.133789 Q 215.156250 44.649414 214.619141 45.272461 Q 214.318359 45.621582 213.746338 46.239258 Q 213.174316 46.856934 212.003418 48.086914 Z " fill="rgb(0, 0, 0)" fill-opacity="1.000000" />
<path d="M 245.032227 46.142578 L 251.590332 42.866211 L 251.590332 49.418945 Z " fill="rgb(0, 0, 0)" fill-opacity="1.000000" />
<path d="M 251.892578 46.335938 L 251.892578 45.412109 L 258.729980 45.412109 L 258.729980 46.335938 Z " fill="rgb(0, 0, 0)" fill-opacity="1.000000" />
<path d="M 258.892578 46.335938 L 258.892578 45.412109 L 265.729980 45.412109 L 265.729980 46.335938 Z " fill="rgb(0, 0, 0)" fill-opacity="1.000000" />
<path d="M 265.892578 46.335938 L 265.892578 45.412109 L 272.729980 45.412109 L 272.729980 46.335938 Z " fill="rgb(0, 0, 0)" fill-opacity="1.000000" />
<path d="M 272.892578 46.335938 L 272.892578 45.412109 L 279.729980 45.412109 L 279.729980 46.335938 Z " fill="rgb(0, 0, 0)" fill-opacity="1.000000" />
<path d="M 279.892578 46.335938 L 279.892578 45.412109 L 286.729980 45.412109 L 286.729980 46.335938 Z " fill="rgb(0, 0, 0)" fill-opacity="1.000000" />
<path d="M 286.892578 46.335938 L 286.892578 45.412109 L 293.729980 45.412109 L 293.729980 46.335938 Z " fill="rgb(0, 0, 0)" fill-opacity="1.000000" />
<path d="M 296.878906 52.319336 L 296.878906 46.335938 L 293.892578 46.335938 L 293.892578 45.412109 L 296.878906 45.412109 L 296.878906 38.300781 L 297.738281 38.300781 L 297.738281 52.319336 Z " fill="rgb(0, 0, 0)" fill-opacity="1.000000" />
<path d="M 310.014160 48.242676 L 310.014160 51.288086 L 309.020508 51.288086 L 309.020508 42.984375 L 310.014160 42.984375 L 310.014160 43.752441 Q 310.261230 43.306641 310.672119 43.072998 Q 311.083008 42.839355 311.620117 42.839355 Q 312.710449 42.839355 313.330811 43.682617 Q 313.951172 44.525879 313.951172 46.019043 Q 313.951172 47.485352 313.328125 48.320557 Q 312.705078 49.155762 311.620117 49.155762 Q 311.072266 49.155762 310.661377 48.922119 Q 310.250488 48.688477 310.014160 48.242676 Z M 312.914551 45.997559 Q 312.914551 44.848145 312.552002 44.262695 Q 312.189453 43.677246 311.475098 43.677246 Q 310.755371 43.677246 310.384766 44.265381 Q 310.014160 44.853516 310.014160 45.997559 Q 310.014160 47.136230 310.384766 47.727051 Q 310.755371 48.317871 311.475098 48.317871 Q 312.189453 48.317871 312.552002 47.732422 Q 312.914551 47.146973 312.914551 45.997559 Z " fill="rgb(0, 0, 0)" fill-opacity="1.000000" />
<path d="M 318.308594 43.677246 Q 317.556641 43.677246 317.169922 44.262695 Q 316.783203 44.848145 316.783203 45.997559 Q 316.783203 47.141602 317.169922 47.729736 Q 317.556641 48.317871 318.308594 48.317871 Q 319.065918 48.317871 319.452637 47.729736 Q 319.839355 47.141602 319.839355 45.997559 Q 319.839355 44.848145 319.452637 44.262695 Q 319.065918 43.677246 318.308594 43.677246 Z M 318.308594 42.839355 Q 319.560059 42.839355 320.223389 43.650391 Q 320.886719 44.461426 320.886719 45.997559 Q 320.886719 47.539062 320.226074 48.347412 Q 319.565430 49.155762 318.308594 49.155762 Q 317.057129 49.155762 316.396484 48.347412 Q 315.735840 47.539062 315.735840 45.997559 Q 315.735840 44.461426 316.396484 43.650391 Q 317.057129 42.839355 318.308594 42.839355 Z " fill="rgb(0, 0, 0)" fill-opacity="1.000000" />
<path d="M 328.203613 44.225098 Q 327.886719 43.978027 327.559082 43.865234 Q 327.231445 43.752441 326.839355 43.752441 Q 325.915527 43.752441 325.426758 44.332520 Q 324.937988 44.912598 324.937988 46.008301 L 324.937988 49.000000 L 323.944336 49.000000 L 323.944336 42.984375 L 324.937988 42.984375 L 324.937988 44.160645 Q 325.185059 43.521484 325.697998 43.180420 Q 326.210938 42.839355 326.914551 42.839355 Q 327.279785 42.839355 327.596680 42.930664 Q 327.913574 43.021973 328.203613 43.215332 Z " fill="rgb(0, 0, 0)" fill-opacity="1.000000" />
<path d="M 332.297852 41.276367 L 332.297852 42.984375 L 334.542969 42.984375 L 334.542969 43.752441 L 332.297852 43.752441 L 332.297852 47.018066 Q 332.297852 47.684082 332.550293 47.947266 Q 332.802734 48.210449 333.431152 48.210449 L 334.542969 48.210449 L 334.542969 49.000000 L 333.334473 49.000000 Q 332.222656 49.000000 331.766113 48.554199 Q 331.309570 48.108398 331.309570 47.018066 L 331.309570 43.752441 L 329.703613 43.752441 L 329.703613 42.984375 L 331.309570 42.984375 L 331.309570 41.276367 Z " fill="rgb(0, 0, 0)" fill-opacity="1.000000" />
<path d="M 346.201172 45.444336 Q 346.894043 45.444336 347.288818 44.944824 Q 347.683594 44.445312 347.683594 43.564453 Q 347.683594 42.683594 347.288818 42.184082 Q 346.894043 41.684570 346.201172 41.684570 Q 345.481445 41.684570 345.116211 42.159912 Q 344.750977 42.635254 344.750977 43.564453 Q 344.750977 44.499023 345.113525 44.971680 Q 345.476074 45.444336 346.201172 45.444336 Z M 344.267578 48.833496 L 344.267578 47.834473 Q 344.605957 48.033203 344.987305 48.137939 Q 345.368652 48.242676 345.782227 48.242676 Q 346.813477 48.242676 347.342529 47.466553 Q 347.871582 46.690430 347.871582 45.181152 Q 347.619141 45.718262 347.162598 46.005615 Q 346.706055 46.292969 346.115234 46.292969 Q 344.955078 46.292969 344.318604 45.578613 Q 343.682129 44.864258 343.682129 43.553711 Q 343.682129 42.259277 344.334717 41.547607 Q 344.987305 40.835938 346.179688 40.835938 Q 347.576172 40.835938 348.226074 41.840332 Q 348.875977 42.844727 348.875977 44.998535 Q 348.875977 47.023438 348.094482 48.089600 Q 347.312988 49.155762 345.825195 49.155762 Q 345.433105 49.155762 345.035645 49.072510 Q 344.638184 48.989258 344.267578 48.833496 Z " fill="rgb(0, 0, 0)" fill-opacity="1.000000" />
<path d="M 353.201172 45.444336 Q 353.894043 45.444336 354.288818 44.944824 Q 354.683594 44.445312 354.683594 43.564453 Q 354.683594 42.683594 354.288818 42.184082 Q 353.894043 41.684570 353.201172 41.684570 Q 352.481445 41.684570 352.116211 42.159912 Q 351.750977 42.635254 351.750977 43.564453 Q 351.750977 44.499023 352.113525 44.971680 Q 352.476074 45.444336 353.201172 45.444336 Z M 351.267578 48.833496 L 351.267578 47.834473 Q 351.605957 48.033203 351.987305 48.137939 Q 352.368652 48.242676 352.782227 48.242676 Q 353.813477 48.242676 354.342529 47.466553 Q 354.871582 46.690430 354.871582 45.181152 Q 354.619141 45.718262 354.162598 46.005615 Q 353.706055 46.292969 353.115234 46.292969 Q 351.955078 46.292969 351.318604 45.578613 Q 350.682129 44.864258 350.682129 43.553711 Q 350.682129 42.259277 351.334717 41.547607 Q 351.987305 40.835938 353.179688 40.835938 Q 354.576172 40.835938 355.226074 41.840332 Q 355.875977 42.844727 355.875977 44.998535 Q 355.875977 47.023438 355.094482 48.089600 Q 354.312988 49.155762 352.825195 49.155762 Q 352.433105 49.155762 352.035645 49.072510 Q 351.638184 48.989258 351.267578 48.833496 Z " fill="rgb(0, 0, 0)" fill-opacity="1.000000" />
<path d="M 358.450195 48.092285 L 360.136719 48.092285 L 360.136719 42.033691 L 358.117188 43.005859 L 358.117188 41.963867 L 360.125977 41.007812 L 361.210938 41.007812 L 361.210938 48.092285 L 362.875977 48.092285 L 362.875977 49.000000 L 358.450195 49.000000 Z " fill="rgb(0, 0, 0)" fill-opacity="1.000000" />
<path d="M 365.450195 48.092285 L 367.136719 48.092285 L 367.136719 42.033691 L 365.117188 43.005859 L 365.117188 41.963867 L 367.125977 41.007812 L 368.210938 41.007812 L 368.210938 48.092285 L 369.875977 48.092285 L 369.875977 49.000000 L 365.450195 49.000000 Z " fill="rgb(0, 0, 0)" fill-opacity="1.000000" />
<path d="M 380.878906 52.319336 L 380.878906 38.300781 L 381.738281 38.300781 L 381.738281 52.319336 Z " fill="rgb(0, 0, 0)" fill-opacity="1.000000" />
<path d="M 22.154785 14.980957 L 23.245117 14.980957 L 23.245117 22.086914 L 27.117676 22.086914 L 27.117676 23.000000 L 22.154785 23.000000 Z " fill="rgb(0, 0, 0)" fill-opacity="1.000000" />
<path d="M 86.878906 39.319336 L 86.878906 25.300781 L 87.738281 25.300781 L 87.738281 39.319336 Z " fill="rgb(0, 0, 0)" fill-opacity="1.000000" />
<path d="M 135.878906 39.319336 L 135.878906 25.300781 L 136.738281 25.300781 L 136.738281 39.319336 Z " fill="rgb(0, 0, 0)" fill-opacity="1.000000" />
<path d="M 247.878906 39.319336 L 247.878906 25.300781 L 248.738281 25.300781 L 248.738281 39.319336 Z " fill="rgb(0, 0, 0)" fill-opacity="1.000000" />
<path d="M 296.878906 39.319336 L 296.878906 25.300781 L 297.738281 25.300781 L 297.738281 39.319336 Z " fill="rgb(0, 0, 0)" fill-opacity="1.000000" />
<path d="M 380.878906 39.319336 L 380.878906 25.300781 L 381.738281 25.300781 L 381.738281 39.319336 Z " fill="rgb(0, 0, 0)" fill-opacity="1.000000" />
<path d="M 31.770508 19.976074 L 31.442871 19.976074 Q 30.578125 19.976074 30.140381 20.279541 Q 29.702637 20.583008 29.702637 21.184570 Q 29.702637 21.727051 30.030273 22.027832 Q 30.357910 22.328613 30.937988 22.328613 Q 31.754395 22.328613 32.221680 21.761963 Q 32.688965 21.195312 32.694336 20.196289 L 32.694336 19.976074 Z M 33.687988 19.567871 L 33.687988 23.000000 L 32.694336 23.000000 L 32.694336 22.108398 Q 32.377441 22.645508 31.896729 22.900635 Q 31.416016 23.155762 30.728516 23.155762 Q 29.810059 23.155762 29.262207 22.637451 Q 28.714355 22.119141 28.714355 21.249023 Q 28.714355 20.244629 29.388428 19.723633 Q 30.062500 19.202637 31.367676 19.202637 L 32.694336 19.202637 L 32.694336 19.046875 Q 32.688965 18.327148 32.329102 18.002197 Q 31.969238 17.677246 31.179688 17.677246 Q 30.674805 17.677246 30.159180 17.822266 Q 29.643555 17.967285 29.154785 18.246582 L 29.154785 17.258301 Q 29.702637 17.048828 30.204834 16.944092 Q 30.707031 16.839355 31.179688 16.839355 Q 31.926270 16.839355 32.455322 17.059570 Q 32.984375 17.279785 33.312012 17.720215 Q 33.516113 17.988770 33.602051 18.383545 Q 33.687988 18.778320 33.687988 19.567871 Z " fill="rgb(0, 0, 0)" fill-opacity="1.000000" />
<path d="M 37.014160 22.242676 L 37.014160 25.288086 L 36.020508 25.288086 L 36.020508 16.984375 L 37.014160 16.984375 L 37.014160 17.752441 Q 37.261230 17.306641 37.672119 17.072998 Q 38.083008 16.839355 38.620117 16.839355 Q 39.710449 16.839355 40.330811 17.682617 Q 40.951172 18.525879 40.951172 20.019043 Q 40.951172 21.485352 40.328125 22.320557 Q 39.705078 23.155762 38.620117 23.155762 Q 38.072266 23.155762 37.661377 22.922119 Q 37.250488 22.688477 37.014160 22.242676 Z M 39.914551 19.997559 Q 39.914551 18.848145 39.552002 18.262695 Q 39.189453 17.677246 38.475098 17.677246 Q 37.755371 17.677246 37.384766 18.265381 Q 37.014160 18.853516 37.014160 19.997559 Q 37.014160 21.136230 37.384766 21.727051 Q 37.755371 22.317871 38.475098 22.317871 Q 39.189453 22.317871 39.552002 21.732422 Q 39.914551 21.146973 39.914551 19.997559 Z " fill="rgb(0, 0, 0)" fill-opacity="1.000000" />
<path d="M 45.297852 15.276367 L 45.297852 16.984375 L 47.542969 16.984375 L 47.542969 17.752441 L 45.297852 17.752441 L 45.297852 21.018066 Q 45.297852 21.684082 45.550293 21.947266 Q 45.802734 22.210449 46.431152 22.210449 L 47.542969 22.210449 L 47.542969 23.000000 L 46.334473 23.000000 Q 45.222656 23.000000 44.766113 22.554199 Q 44.309570 22.108398 44.309570 21.018066 L 44.309570 17.752441 L 42.703613 17.752441 L 42.703613 16.984375 L 44.309570 16.984375 L 44.309570 15.276367 Z " fill="rgb(0, 0, 0)" fill-opacity="1.000000" />
<path d="M 52.308594 17.677246 Q 51.556641 17.677246 51.169922 18.262695 Q 50.783203 18.848145 50.783203 19.997559 Q 50.783203 21.141602 51.169922 21.729736 Q 51.556641 22.317871 52.308594 22.317871 Q 53.065918 22.317871 53.452637 21.729736 Q 53.839355 21.141602 53.839355 19.997559 Q 53.839355 18.848145 53.452637 18.262695 Q 53.065918 17.677246 52.308594 17.677246 Z M 52.308594 16.839355 Q 53.560059 16.839355 54.223389 17.650391 Q 54.886719 18.461426 54.886719 19.997559 Q 54.886719 21.539062 54.226074 22.347412 Q 53.565430 23.155762 52.308594 23.155762 Q 51.057129 23.155762 50.396484 22.347412 Q 49.735840 21.539062 49.735840 19.997559 Q 49.735840 18.461426 50.396484 17.650391 Q 51.057129 16.839355 52.308594 16.839355 Z " fill="rgb(0, 0, 0)" fill-opacity="1.000000" />
<path d="M 58.014160 22.242676 L 58.014160 25.288086 L 57.020508 25.288086 L 57.020508 16.984375 L 58.014160 16.984375 L 58.014160 17.752441 Q 58.261230 17.306641 58.672119 17.072998 Q 59.083008 16.839355 59.620117 16.839355 Q 60.710449 16.839355 61.330811 17.682617 Q 61.951172 18.525879 61.951172 20.019043 Q 61.951172 21.485352 61.328125 22.320557 Q 60.705078 23.155762 59.620117 23.155762 Q 59.072266 23.155762 58.661377 22.922119 Q 58.250488 22.688477 58.014160 22.242676 Z M 60.914551 19.997559 Q 60.914551 18.848145 60.552002 18.262695 Q 60.189453 17.677246 59.475098 17.677246 Q 58.755371 17.677246 58.384766 18.265381 Q 58.014160 18.853516 58.014160 19.997559 Q 58.014160 21.136230 58.384766 21.727051 Q 58.755371 22.317871 59.475098 22.317871 Q 60.189453 22.317871 60.552002 21.732422 Q 60.914551 21.146973 60.914551 19.997559 Z " fill="rgb(0, 0, 0)" fill-opacity="1.000000" />
<path d="M 86.878906 26.319336 L 86.878906 12.300781 L 87.738281 12.300781 L 87.738281 19.412109 L 90.729980 19.412109 L 90.729980 20.335938 L 87.738281 20.335938 L 87.738281 26.319336 Z " fill="rgb(0, 0, 0)" fill-opacity="1.000000" />
<path d="M 90.892578 20.335938 L 90.892578 19.412109 L 97.729980 19.412109 L 97.729980 20.335938 Z " fill="rgb(0, 0, 0)" fill-opacity="1.000000" />
<path d="M 97.892578 20.335938 L 97.892578 19.412109 L 104.729980 19.412109 L 104.729980 20.335938 Z " fill="rgb(0, 0, 0)" fill-opacity="1.000000" />
<path d="M 104.892578 20.335938 L 104.892578 19.412109 L 111.729980 19.412109 L 111.729980 20.335938 Z " fill="rgb(0, 0, 0)" fill-opacity="1.000000" />
<path d="M 111.892578 20.335938 L 111.892578 19.412109 L 118.729980 19.412109 L 118.729980 20.335938 Z " fill="rgb(0, 0, 0)" fill-opacity="1.000000" />
<path d="M 118.892578 20.335938 L 118.892578 19.412109 L 125.729980 19.412109 L 125.729980 20.335938 Z " fill="rgb(0, 0, 0)" fill-opacity="1.000000" />
<path d="M 125.892578 20.335938 L 125.892578 19.412109 L 132.729980 19.412109 L 132.729980 20.335938 Z " fill="rgb(0, 0, 0)" fill-opacity="1.000000" />
<path d="M 133.032227 23.418945 L 133.032227 16.866211 L 139.590332 20.142578 Z " fill="rgb(0, 0, 0)" fill-opacity="1.000000" />
<path d="M 187.435547 15.254883 L 187.435547 16.355957 Q 186.941406 16.039062 186.444580 15.877930 Q 185.947754 15.716797 185.442871 15.716797 Q 184.674805 15.716797 184.229004 16.073975 Q 183.783203 16.431152 183.783203 17.038086 Q 183.783203 17.569824 184.075928 17.849121 Q 184.368652 18.128418 185.168945 18.316406 L 185.738281 18.445312 Q 186.866211 18.708496 187.381836 19.272461 Q 187.897461 19.836426 187.897461 20.808594 Q 187.897461 21.952637 187.188477 22.554199 Q 186.479492 23.155762 185.125977 23.155762 Q 184.562012 23.155762 183.992676 23.034912 Q 183.423340 22.914062 182.848633 22.672363 L 182.848633 21.517578 Q 183.466309 21.909668 184.016846 22.092285 Q 184.567383 22.274902 185.125977 22.274902 Q 185.947754 22.274902 186.404297 21.906982 Q 186.860840 21.539062 186.860840 20.878418 Q 186.860840 20.276855 186.546631 19.959961 Q 186.232422 19.643066 185.453613 19.471191 L 184.873535 19.336914 Q 183.756348 19.084473 183.251465 18.574219 Q 182.746582 18.063965 182.746582 17.204590 Q 182.746582 16.130371 183.468994 15.483154 Q 184.191406 14.835938 185.389160 14.835938 Q 185.851074 14.835938 186.361328 14.940674 Q 186.871582 15.045410 187.435547 15.254883 Z " fill="rgb(0, 0, 0)" fill-opacity="1.000000" />
<path d="M 194.435547 15.254883 L 194.435547 16.355957 Q 193.941406 16.039062 193.444580 15.877930 Q 192.947754 15.716797 192.442871 15.716797 Q 191.674805 15.716797 191.229004 16.073975 Q 190.783203 16.431152 190.783203 17.038086 Q 190.783203 17.569824 191.075928 17.849121 Q 191.368652 18.128418 192.168945 18.316406 L 192.738281 18.445312 Q 193.866211 18.708496 194.381836 19.272461 Q 194.897461 19.836426 194.897461 20.808594 Q 194.897461 21.952637 194.188477 22.554199 Q 193.479492 23.155762 192.125977 23.155762 Q 191.562012 23.155762 190.992676 23.034912 Q 190.423340 22.914062 189.848633 22.672363 L 189.848633 21.517578 Q 190.466309 21.909668 191.016846 22.092285 Q 191.567383 22.274902 192.125977 22.274902 Q 192.947754 22.274902 193.404297 21.906982 Q 193.860840 21.539062 193.860840 20.878418 Q 193.860840 20.276855 193.546631 19.959961 Q 193.232422 19.643066 192.453613 19.471191 L 191.873535 19.336914 Q 190.756348 19.084473 190.251465 18.574219 Q 189.746582 18.063965 189.746582 17.204590 Q 189.746582 16.130371 190.468994 15.483154 Q 191.191406 14.835938 192.389160 14.835938 Q 192.851074 14.835938 193.361328 14.940674 Q 193.871582 15.045410 194.435547 15.254883 Z " fill="rgb(0, 0, 0)" fill-opacity="1.000000" />
<path d="M 196.735840 14.980957 L 197.826172 14.980957 L 197.826172 18.053223 L 200.796387 18.053223 L 200.796387 14.980957 L 201.886719 14.980957 L 201.886719 23.000000 L 200.796387 23.000000 L 200.796387 18.966309 L 197.826172 18.966309 L 197.826172 23.000000 L 196.735840 23.000000 Z " fill="rgb(0, 0, 0)" fill-opacity="1.000000" />
<path d="M 247.878906 26.319336 L 247.878906 12.300781 L 248.738281 12.300781 L 248.738281 19.412109 L 251.729980 19.412109 L 251.729980 20.335938 L 248.738281 20.335938 L 248.738281 26.319336 Z " fill="rgb(0, 0, 0)" fill-opacity="1.000000" />
<path d="M 251.892578 20.335938 L 251.892578 19.412109 L 258.729980 19.412109 L 258.729980 20.335938 Z " fill="rgb(0, 0, 0)" fill-opacity="1.000000" />
<path d="M 258.892578 20.335938 L 258.892578 19.412109 L 265.729980 19.412109 L 265.729980 20.335938 Z " fill="rgb(0, 0, 0)" fill-opacity="1.000000" />
<path d="M 265.892578 20.335938 L 265.892578 19.412109 L 272.729980 19.412109 L 272.729980 20.335938 Z " fill="rgb(0, 0, 0)" fill-opacity="1.000000" />
<path d="M 272.892578 20.335938 L 272.892578 19.412109 L 279.729980 19.412109 L 279.729980 20.335938 Z " fill="rgb(0, 0, 0)" fill-opacity="1.000000" />
<path d="M 279.892578 20.335938 L 279.892578 19.412109 L 286.729980 19.412109 L 286.729980 20.335938 Z " fill="rgb(0, 0, 0)" fill-opacity="1.000000" />
<path d="M 286.892578 20.335938 L 286.892578 19.412109 L 293.729980 19.412109 L 293.729980 20.335938 Z " fill="rgb(0, 0, 0)" fill-opacity="1.000000" />
<path d="M 294.032227 23.418945 L 294.032227 16.866211 L 300.590332 20.142578 Z " fill="rgb(0, 0, 0)" fill-opacity="1.000000" />
<path d="M 320.435547 15.254883 L 320.435547 16.355957 Q 319.941406 16.039062 319.444580 15.877930 Q 318.947754 15.716797 318.442871 15.716797 Q 317.674805 15.716797 317.229004 16.073975 Q 316.783203 16.431152 316.783203 17.038086 Q 316.783203 17.569824 317.075928 17.849121 Q 317.368652 18.128418 318.168945 18.316406 L 318.738281 18.445312 Q 319.866211 18.708496 320.381836 19.272461 Q 320.897461 19.836426 320.897461 20.808594 Q 320.897461 21.952637 320.188477 22.554199 Q 319.479492 23.155762 318.125977 23.155762 Q 317.562012 23.155762 316.992676 23.034912 Q 316.423340 22.914062 315.848633 22.672363 L 315.848633 21.517578 Q 316.466309 21.909668 317.016846 22.092285 Q 317.567383 22.274902 318.125977 22.274902 Q 318.947754 22.274902 319.404297 21.906982 Q 319.860840 21.539062 319.860840 20.878418 Q 319.860840 20.276855 319.546631 19.959961 Q 319.232422 19.643066 318.453613 19.471191 L 317.873535 19.336914 Q 316.756348 19.084473 316.251465 18.574219 Q 315.746582 18.063965 315.746582 17.204590 Q 315.746582 16.130371 316.468994 15.483154 Q 317.191406 14.835938 318.389160 14.835938 Q 318.851074 14.835938 319.361328 14.940674 Q 319.871582 15.045410 320.435547 15.254883 Z " fill="rgb(0, 0, 0)" fill-opacity="1.000000" />
<path d="M 328.015625 19.498047 L 328.015625 19.981445 L 323.734863 19.981445 L 323.734863 20.013672 Q 323.691895 21.243652 324.204834 21.780762 Q 324.717773 22.317871 325.652344 22.317871 Q 326.125000 22.317871 326.640625 22.167480 Q 327.156250 22.017090 327.741699 21.710938 L 327.741699 22.693848 Q 327.177734 22.924805 326.654053 23.040283 Q 326.130371 23.155762 325.641602 23.155762 Q 324.239746 23.155762 323.450195 22.315186 Q 322.660645 21.474609 322.660645 19.997559 Q 322.660645 18.558105 323.434082 17.698730 Q 324.207520 16.839355 325.496582 16.839355 Q 326.645996 16.839355 327.309326 17.618164 Q 327.972656 18.396973 328.015625 19.498047 Z M 327.027344 19.208008 Q 326.962891 18.584961 326.573486 18.131104 Q 326.184082 17.677246 325.453613 17.677246 Q 324.739258 17.677246 324.277344 18.149902 Q 323.815430 18.622559 323.772461 19.213379 Z " fill="rgb(0, 0, 0)" fill-opacity="1.000000" />
<path d="M 335.203613 18.225098 Q 334.886719 17.978027 334.559082 17.865234 Q 334.231445 17.752441 333.839355 17.752441 Q 332.915527 17.752441 332.426758 18.332520 Q 331.937988 18.912598 331.937988 20.008301 L 331.937988 23.000000 L 330.944336 23.000000 L 330.944336 16.984375 L 331.937988 16.984375 L 331.937988 18.160645 Q 332.185059 17.521484 332.697998 17.180420 Q 333.210938 16.839355 333.914551 16.839355 Q 334.279785 16.839355 334.596680 16.930664 Q 334.913574 17.021973 335.203613 17.215332 Z " fill="rgb(0, 0, 0)" fill-opacity="1.000000" />
<path d="M 336.537109 16.984375 L 337.562988 16.984375 L 339.308594 22.033203 L 341.059570 16.984375 L 342.085449 16.984375 L 339.947754 23.000000 L 338.674805 23.000000 Z " fill="rgb(0, 0, 0)" fill-opacity="1.000000" />
<path d="M 349.015625 19.498047 L 349.015625 19.981445 L 344.734863 19.981445 L 344.734863 20.013672 Q 344.691895 21.243652 345.204834 21.780762 Q 345.717773 22.317871 346.652344 22.317871 Q 347.125000 22.317871 347.640625 22.167480 Q 348.156250 22.017090 348.741699 21.710938 L 348.741699 22.693848 Q 348.177734 22.924805 347.654053 23.040283 Q 347.130371 23.155762 346.641602 23.155762 Q 345.239746 23.155762 344.450195 22.315186 Q 343.660645 21.474609 343.660645 19.997559 Q 343.660645 18.558105 344.434082 17.698730 Q 345.207520 16.839355 346.496582 16.839355 Q 347.645996 16.839355 348.309326 17.618164 Q 348.972656 18.396973 349.015625 19.498047 Z M 348.027344 19.208008 Q 347.962891 18.584961 347.573486 18.131104 Q 347.184082 17.677246 346.453613 17.677246 Q 345.739258 17.677246 345.277344 18.149902 Q 344.815430 18.622559 344.772461 19.213379 Z " fill="rgb(0, 0, 0)" fill-opacity="1.000000" />
<path d="M 356.203613 18.225098 Q 355.886719 17.978027 355.559082 17.865234 Q 355.231445 17.752441 354.839355 17.752441 Q 353.915527 17.752441 353.426758 18.332520 Q 352.937988 18.912598 352.937988 20.008301 L 352.937988 23.000000 L 351.944336 23.000000 L 351.944336 16.984375 L 352.937988 16.984375 L 352.937988 18.160645 Q 353.185059 17.521484 353.697998 17.180420 Q 354.210938 16.839355 354.914551 16.839355 Q 355.279785 16.839355 355.596680 16.930664 Q 355.913574 17.021973 356.203613 17.215332 Z " fill="rgb(0, 0, 0)" fill-opacity="1.000000" />
<path d="M 380.878906 26.319336 L 380.878906 12.300781 L 381.738281 12.300781 L 381.738281 26.319336 Z " fill="rgb(0, 0, 0)" fill-opacity="1.000000" />
<path d="M 6.892578 7.335938 L 6.892578 6.412109 L 13.729980 6.412109 L 13.729980 7.335938 Z " fill="rgb(0, 0, 0)" fill-opacity="1.000000" />
<path d="M 13.892578 7.335938 L 13.892578 6.412109 L 20.729980 6.412109 L 20.729980 7.335938 Z " fill="rgb(0, 0, 0)" fill-opacity="1.000000" />
<path d="M 20.892578 7.335938 L 20.892578 6.412109 L 27.729980 6.412109 L 27.729980 7.335938 Z " fill="rgb(0, 0, 0)" fill-opacity="1.000000" />
<path d="M 27.892578 7.335938 L 27.892578 6.412109 L 34.729980 6.412109 L 34.729980 7.335938 Z " fill="rgb(0, 0, 0)" fill-opacity="1.000000" />
<path d="M 34.892578 7.335938 L 34.892578 6.412109 L 41.729980 6.412109 L 41.729980 7.335938 Z " fill="rgb(0, 0, 0)" fill-opacity="1.000000" />
<path d="M 41.892578 7.335938 L 41.892578 6.412109 L 48.729980 6.412109 L 48.729980 7.335938 Z " fill="rgb(0, 0, 0)" fill-opacity="1.000000" />
<path d="M 48.892578 7.335938 L 48.892578 6.412109 L 55.729980 6.412109 L 55.729980 7.335938 Z " fill="rgb(0, 0, 0)" fill-opacity="1.000000" />
<path d="M 55.892578 7.335938 L 55.892578 6.412109 L 62.729980 6.412109 L 62.729980 7.335938 Z " fill="rgb(0, 0, 0)" fill-opacity="1.000000" />
<path d="M 62.892578 7.335938 L 62.892578 6.412109 L 69.729980 6.412109 L 69.729980 7.335938 Z " fill="rgb(0, 0, 0)" fill-opacity="1.000000" />
<path d="M 69.892578 7.335938 L 69.892578 6.412109 L 76.729980 6.412109 L 76.729980 7.335938 Z " fill="rgb(0, 0, 0)" fill-opacity="1.000000" />
<path d="M 76.892578 7.335938 L 76.892578 6.412109 L 83.729980 6.412109 L 83.729980 7.335938 Z " fill="rgb(0, 0, 0)" fill-opacity="1.000000" />
<path d="M 86.878906 13.319336 L 86.878906 7.335938 L 83.892578 7.335938 L 83.892578 6.412109 L 87.738281 6.412109 L 87.738281 13.319336 Z " fill="rgb(0, 0, 0)" fill-opacity="1.000000" />
<path d="M 135.878906 13.319336 L 135.878906 6.412109 L 139.729980 6.412109 L 139.729980 7.335938 L 136.738281 7.335938 L 136.738281 13.319336 Z " fill="rgb(0, 0, 0)" fill-opacity="1.000000" />
<path d="M 139.892578 7.335938 L 139.892578 6.412109 L 146.729980 6.412109 L 146.729980 7.335938 Z " fill="rgb(0, 0, 0)" fill-opacity="1.000000" />
<path d="M 146.892578 7.335938 L 146.892578 6.412109 L 153.729980 6.412109 L 153.729980 7.335938 Z " fill="rgb(0, 0, 0)" fill-opacity="1.000000" />
<path d="M 153.892578 7.335938 L 153.892578 6.412109 L 160.729980 6.412109 L 160.729980 7.335938 Z " fill="rgb(0, 0, 0)" fill-opacity="1.000000" />
<path d="M 160.892578 7.335938 L 160.892578 6.412109 L 167.729980 6.412109 L 167.729980 7.335938 Z " fill="rgb(0, 0, 0)" fill-opacity="1.000000" />
<path d="M 167.892578 7.335938 L 167.892578 6.412109 L 174.729980 6.412109 L 174.729980 7.335938 Z " fill="rgb(0, 0, 0)" fill-opacity="1.000000" />
<path d="M 174.892578 7.335938 L 174.892578 6.412109 L 181.729980 6.412109 L 181.729980 7.335938 Z " fill="rgb(0, 0, 0)" fill-opacity="1.000000" />
<path d="M 181.892578 7.335938 L 181.892578 6.412109 L 188.729980 6.412109 L 188.729980 7.335938 Z " fill="rgb(0, 0, 0)" fill-opacity="1.000000" />
<path d="M 188.892578 7.335938 L 188.892578 6.412109 L 195.729980 6.412109 L 195.729980 7.335938 Z " fill="rgb(0, 0, 0)" fill-opacity="1.000000" />
<path d="M 195.892578 7.335938 L 195.892578 6.412109 L 202.729980 6.412109 L 202.729980 7.335938 Z " fill="rgb(0, 0, 0)" fill-opacity="1.000000" />
<path d="M 202.892578 7.335938 L 202.892578 6.412109 L 209.729980 6.412109 L 209.729980 7.335938 Z " fill="rgb(0, 0, 0)" fill-opacity="1.000000" />
<path d="M 209.892578 7.335938 L 209.892578 6.412109 L 216.729980 6.412109 L 216.729980 7.335938 Z " fill="rgb(0, 0, 0)" fill-opacity="1.000000" />
<path d="M 216.892578 7.335938 L 216.892578 6.412109 L 223.729980 6.412109 L 223.729980 7.335938 Z " fill="rgb(0, 0, 0)" fill-opacity="1.000000" />
<path d="M 223.892578 7.335938 L 223.892578 6.412109 L 230.729980 6.412109 L 230.729980 7.335938 Z " fill="rgb(0, 0, 0)" fill-opacity="1.000000" />
<path d="M 230.892578 7.335938 L 230.892578 6.412109 L 237.729980 6.412109 L 237.729980 7.335938 Z " fill="rgb(0, 0, 0)" fill-opacity="1.000000" />
<path d="M 237.892578 7.335938 L 237.892578 6.412109 L 244.729980 6.412109 L 244.729980 7.335938 Z " fill="rgb(0, 0, 0)" fill-opacity="1.000000" />
<path d="M 247.878906 13.319336 L 247.878906 7.335938 L 244.892578 7.335938 L 244.892578 6.412109 L 248.738281 6.412109 L 248.738281 13.319336 Z " fill="rgb(0, 0, 0)" fill-opacity="1.000000" />
<path d="M 296.878906 13.319336 L 296.878906 6.412109 L 300.729980 6.412109 L 300.729980 7.335938 L 297.738281 7.335938 L 297.738281 13.319336 Z " fill="rgb(0, 0, 0)" fill-opacity="1.000000" />
<path d="M 300.892578 7.335938 L 300.892578 6.412109 L 307.729980 6.412109 L 307.729980 7.335938 Z " fill="rgb(0, 0, 0)" fill-opacity="1.000000" />
<path d="M 307.892578 7.335938 L 307.892578 6.412109 L 314.729980 6.412109 L 314.729980 7.335938 Z " fill="rgb(0, 0, 0)" fill-opacity="1.000000" />
<path d="M 314.892578 7.335938 L 314.892578 6.412109 L 321.729980 6.412109 L 321.729980 7.335938 Z " fill="rgb(0, 0, 0)" fill-opacity="1.000000" />
<path d="M 321.892578 7.335938 L 321.892578 6.412109 L 328.729980 6.412109 L 328.729980 7.335938 Z " fill="rgb(0, 0, 0)" fill-opacity="1.000000" />
<path d="M 328.892578 7.335938 L 328.892578 6.412109 L 335.729980 6.412109 L 335.729980 7.335938 Z " fill="rgb(0, 0, 0)" fill-opacity="1.000000" />
<path d="M 335.892578 7.335938 L 335.892578 6.412109 L 342.729980 6.412109 L 342.729980 7.335938 Z " fill="rgb(0, 0, 0)" fill-opacity="1.000000" />
<path d="M 342.892578 7.335938 L 342.892578 6.412109 L 349.729980 6.412109 L 349.729980 7.335938 Z " fill="rgb(0, 0, 0)" fill-opacity="1.000000" />
<path d="M 349.892578 7.335938 L 349.892578 6.412109 L 356.729980 6.412109 L 356.729980 7.335938 Z " fill="rgb(0, 0, 0)" fill-opacity="1.000000" />
<path d="M 356.892578 7.335938 L 356.892578 6.412109 L 363.729980 6.412109 L 363.729980 7.335938 Z " fill="rgb(0, 0, 0)" fill-opacity="1.000000" />
<path d="M 363.892578 7.335938 L 363.892578 6.412109 L 370.729980 6.412109 L 370.729980 7.335938 Z " fill="rgb(0, 0, 0)" fill-opacity="1.000000" />
<path d="M 370.892578 7.335938 L 370.892578 6.412109 L 377.729980 6.412109 L 377.729980 7.335938 Z " fill="rgb(0, 0, 0)" fill-opacity="1.000000" />
<path d="M 380.878906 13.319336 L 380.878906 7.335938 L 377.892578 7.335938 L 377.892578 6.412109 L 381.738281 6.412109 L 381.738281 13.319336 Z " fill="rgb(0, 0, 0)" fill-opacity="1.000000" />
</svg>