<svg xmlns="http://www.w3.org/2000/svg" version="1.1" width="372" height="209">
<path d="M 2.878906 13.319336 L 2.878906 6.412109 L 6.729980 6.412109 L 6.729980 7.335938 L 3.738281 7.335938 L 3.738281 13.319336 Z " fill="rgb(0, 0, 0)" fill-opacity="1.000000" />
<path d="M 2.878906 26.319336 L 2.878906 12.300781 L 3.738281 12.300781 L 3.738281 26.319336 Z " fill="rgb(0, 0, 0)" fill-opacity="1.000000" />
<path d="M 2.878906 39.319336 L 2.878906 25.300781 L 3.738281 25.300781 L 3.738281 39.319336 Z " fill="rgb(0, 0, 0)" fill-opacity="1.000000" />
<path d="M 2.878906 52.319336 L 2.878906 38.300781 L 3.738281 38.300781 L 3.738281 52.319336 Z " fill="rgb(0, 0, 0)" fill-opacity="1.000000" />
<path d="M 2.878906 65.319336 L 2.878906 51.300781 L 3.738281 51.300781 L 3.738281 65.319336 Z " fill="rgb(0, 0, 0)" fill-opacity="1.000000" />
<path d="M 2.878906 78.319336 L 2.878906 64.300781 L 3.738281 64.300781 L 3.738281 78.319336 Z " fill="rgb(0, 0, 0)" fill-opacity="1.000000" />
<path d="M 2.878906 91.319336 L 2.878906 77.300781 L 3.738281 77.300781 L 3.738281 91.319336 Z " fill="rgb(0, 0, 0)" fill-opacity="1.000000" />
<path d="M 2.878906 104.319336 L 2.878906 90.300781 L 3.738281 90.300781 L 3.738281 104.319336 Z " fill="rgb(0, 0, 0)" fill-opacity="1.000000" />
<path d="M 2.878906 117.319336 L 2.878906 103.300781 L 3.738281 103.300781 L 3.738281 117.319336 Z " fill="rgb(0, 0, 0)" fill-opacity="1.000000" />
<path d="M 2.878906 130.319336 L 2.878906 116.300781 L 3.738281 116.300781 L 3.738281 130.319336 Z " fill="rgb(0, 0, 0)" fill-opacity="1.000000" />
<path d="M 2.878906 143.319336 L 2.878906 129.300781 L 3.738281 129.300781 L 3.738281 143.319336 Z " fill="rgb(0, 0, 0)" fill-opacity="1.000000" />
<path d="M 2.878906 156.319336 L 2.878906 142.300781 L 3.738281 142.300781 L 3.738281 156.319336 Z " fill="rgb(0, 0, 0)" fill-opacity="1.000000" />
<path d="M 2.878906 169.319336 L 2.878906 155.300781 L 3.738281 155.300781 L 3.738281 169.319336 Z " fill="rgb(0, 0, 0)" fill-opacity="1.000000" />
<path d="M 2.878906 182.319336 L 2.878906 168.300781 L 3.738281 168.300781 L 3.738281 182.319336 Z " fill="rgb(0, 0, 0)" fill-opacity="1.000000" />
<path d="M 2.878906 195.319336 L 2.878906 181.300781 L 3.738281 181.300781 L 3.738281 195.319336 Z " fill="rgb(0, 0, 0)" fill-opacity="1.000000" />
<path d="M 2.878906 202.335938 L 2.878906 194.300781 L 3.738281 194.300781 L 3.738281 201.412109 L 6.729980 201.412109 L 6.729980 202.335938 Z " fill="rgb(0, 0, 0)" fill-opacity="1.000000" />
<path d="M 6.892578 202.335938 L 6.892578 201.412109 L 13.729980 201.412109 L 13.729980 202.335938 Z " fill="rgb(0, 0, 0)" fill-opacity="1.000000" />
<path d="M 13.892578 202.335938 L 13.892578 201.412109 L 20.729980 201.412109 L 20.729980 202.335938 Z " fill="rgb(0, 0, 0)" fill-opacity="1.000000" />
<path d="M 20.892578 202.335938 L 20.892578 201.412109 L 27.729980 201.412109 L 27.729980 202.335938 Z " fill="rgb(0, 0, 0)" fill-opacity="1.000000" />
<path d="M 27.892578 202.335938 L 27.892578 201.412109 L 34.729980 201.412109 L 34.729980 202.335938 Z " fill="rgb(0, 0, 0)" fill-opacity="1.000000" />
<path d="M 34.892578 202.335938 L 34.892578 201.412109 L 41.729980 201.412109 L 41.729980 202.335938 Z " fill="rgb(0, 0, 0)" fill-opacity="1.000000" />
<path d="M 41.892578 202.335938 L 41.892578 201.412109 L 48.729980 201.412109 L 48.729980 202.335938 Z " fill="rgb(0, 0, 0)" fill-opacity="1.000000" />
<path d="M 48.892578 202.335938 L 48.892578 201.412109 L 55.729980 201.412109 L 55.729980 202.335938 Z " fill="rgb(0, 0, 0)" fill-opacity="1.000000" />
<path d="M 55.892578 202.335938 L 55.892578 201.412109 L 62.729980 201.412109 L 62.729980 202.335938 Z " fill="rgb(0, 0, 0)" fill-opacity="1.000000" />
<path d="M 62.892578 202.335938 L 62.892578 201.412109 L 69.729980 201.412109 L 69.729980 202.335938 Z " fill="rgb(0, 0, 0)" fill-opacity="1.000000" />
<path d="M 69.892578 202.335938 L 69.892578 201.412109 L 76.729980 201.412109 L 76.729980 202.335938 Z " fill="rgb(0, 0, 0)" fill-opacity="1.000000" />
<path d="M 76.892578 202.335938 L 76.892578 201.412109 L 83.729980 201.412109 L 83.729980 202.335938 Z " fill="rgb(0, 0, 0)" fill-opacity="1.000000" />
<path d="M 83.892578 202.335938 L 83.892578 201.412109 L 90.729980 201.412109 L 90.729980 202.335938 Z " fill="rgb(0, 0, 0)" fill-opacity="1.000000" />
<path d="M 90.892578 202.335938 L 90.892578 201.412109 L 97.729980 201.412109 L 97.729980 202.335938 Z " fill="rgb(0, 0, 0)" fill-opacity="1.000000" />
<path d="M 97.892578 202.335938 L 97.892578 201.412109 L 104.729980 201.412109 L 104.729980 202.335938 Z " fill="rgb(0, 0, 0)" fill-opacity="1.000000" />
<path d="M 104.892578 202.335938 L 104.892578 201.412109 L 111.729980 201.412109 L 111.729980 202.335938 Z " fill="rgb(0, 0, 0)" fill-opacity="1.000000" />
<path d="M 111.892578 202.335938 L 111.892578 201.412109 L 114.878906 201.412109 L 114.878906 194.300781 L 115.738281 194.300781 L 115.738281 202.335938 Z " fill="rgb(0, 0, 0)" fill-opacity="1.000000" />
<path d="M 142.878906 202.335938 L 142.878906 194.300781 L 143.738281 194.300781 L 143.738281 201.412109 L 146.729980 201.412109 L 146.729980 202.335938 Z " fill="rgb(0, 0, 0)" fill-opacity="1.000000" />
<path d="M 146.892578 202.335938 L 146.892578 201.412109 L 153.729980 201.412109 L 153.729980 202.335938 Z " fill="rgb(0, 0, 0)" fill-opacity="1.000000" />
<path d="M 153.892578 202.335938 L 153.892578 201.412109 L 160.729980 201.412109 L 160.729980 202.335938 Z " fill="rgb(0, 0, 0)" fill-opacity="1.000000" />
<path d="M 160.892578 202.335938 L 160.892578 201.412109 L 167.729980 201.412109 L 167.729980 202.335938 Z " fill="rgb(0, 0, 0)" fill-opacity="1.000000" />
<path d="M 167.892578 202.335938 L 167.892578 201.412109 L 174.729980 201.412109 L 174.729980 202.335938 Z " fill="rgb(0, 0, 0)" fill-opacity="1.000000" />
<path d="M 174.892578 202.335938 L 174.892578 201.412109 L 181.729980 201.412109 L 181.729980 202.335938 Z " fill="rgb(0, 0, 0)" fill-opacity="1.000000" />
<path d="M 181.892578 202.335938 L 181.892578 201.412109 L 188.729980 201.412109 L 188.729980 202.335938 Z " fill="rgb(0, 0, 0)" fill-opacity="1.000000" />
<path d="M 188.892578 202.335938 L 188.892578 201.412109 L 195.729980 201.412109 L 195.729980 202.335938 Z " fill="rgb(0, 0, 0)" fill-opacity="1.000000" />
<path d="M 195.892578 202.335938 L 195.892578 201.412109 L 202.729980 201.412109 L 202.729980 202.335938 Z " fill="rgb(0, 0, 0)" fill-opacity="1.000000" />
<path d="M 202.892578 202.335938 L 202.892578 201.412109 L 209.729980 201.412109 L 209.729980 202.335938 Z " fill="rgb(0, 0, 0)" fill-opacity="1.000000" />
<path d="M 209.892578 202.335938 L 209.892578 201.412109 L 216.729980 201.412109 L 216.729980 202.335938 Z " fill="rgb(0, 0, 0)" fill-opacity="1.000000" />
<path d="M 216.892578 202.335938 L 216.892578 201.412109 L 223.729980 201.412109 L 223.729980 202.335938 Z " fill="rgb(0, 0, 0)" fill-opacity="1.000000" />
<path d="M 223.892578 202.335938 L 223.892578 201.412109 L 230.729980 201.412109 L 230.729980 202.335938 Z " fill="rgb(0, 0, 0)" fill-opacity="1.000000" />
<path d="M 230.892578 202.335938 L 230.892578 201.412109 L 237.729980 201.412109 L 237.729980 202.335938 Z " fill="rgb(0, 0, 0)" fill-opacity="1.000000" />
<path d="M 237.892578 202.335938 L 237.892578 201.412109 L 244.729980 201.412109 L 244.729980 202.335938 Z " fill="rgb(0, 0, 0)" fill-opacity="1.000000" />
<path d="M 244.892578 202.335938 L 244.892578 201.412109 L 251.729980 201.412109 L 251.729980 202.335938 Z " fill="rgb(0, 0, 0)" fill-opacity="1.000000" />
<path d="M 251.892578 202.335938 L 251.892578 201.412109 L 258.729980 201.412109 L 258.729980 202.335938 Z " fill="rgb(0, 0, 0)" fill-opacity="1.000000" />
<path d="M 258.892578 202.335938 L 258.892578 201.412109 L 265.729980 201.412109 L 265.729980 202.335938 Z " fill="rgb(0, 0, 0)" fill-opacity="1.000000" />
<path d="M 265.892578 202.335938 L 265.892578 201.412109 L 272.729980 201.412109 L 272.729980 202.335938 Z " fill="rgb(0, 0, 0)" fill-opacity="1.000000" />
<path d="M 272.892578 202.335938 L 272.892578 201.412109 L 279.729980 201.412109 L 279.729980 202.335938 Z " fill="rgb(0, 0, 0)" fill-opacity="1.000000" />
<path d="M 279.892578 202.335938 L 279.892578 201.412109 L 286.729980 201.412109 L 286.729980 202.335938 Z " fill="rgb(0, 0, 0)" fill-opacity="1.000000" />
<path d="M 286.892578 202.335938 L 286.892578 201.412109 L 293.729980 201.412109 L 293.729980 202.335938 Z " fill="rgb(0, 0, 0)" fill-opacity="1.000000" />
<path d="M 293.892578 202.335938 L 293.892578 201.412109 L 300.729980 201.412109 L 300.729980 202.335938 Z " fill="rgb(0, 0, 0)" fill-opacity="1.000000" />
<path d="M 300.892578 202.335938 L 300.892578 201.412109 L 307.729980 201.412109 L 307.729980 202.335938 Z " fill="rgb(0, 0, 0)" fill-opacity="1.000000" />
<path d="M 307.892578 202.335938 L 307.892578 201.412109 L 314.729980 201.412109 L 314.729980 202.335938 Z " fill="rgb(0, 0, 0)" fill-opacity="1.000000" />
<path d="M 314.892578 202.335938 L 314.892578 201.412109 L 321.729980 201.412109 L 321.729980 202.335938 Z " fill="rgb(0, 0, 0)" fill-opacity="1.000000" />
<path d="M 321.892578 202.335938 L 321.892578 201.412109 L 328.729980 201.412109 L 328.729980 202.335938 Z " fill="rgb(0, 0, 0)" fill-opacity="1.000000" />
<path d="M 328.892578 202.335938 L 328.892578 201.412109 L 335.729980 201.412109 L 335.729980 202.335938 Z " fill="rgb(0, 0, 0)" fill-opacity="1.000000" />
<path d="M 335.892578 202.335938 L 335.892578 201.412109 L 342.729980 201.412109 L 342.729980 202.335938 Z " fill="rgb(0, 0, 0)" fill-opacity="1.000000" />
<path d="M 342.892578 202.335938 L 342.892578 201.412109 L 349.729980 201.412109 L 349.729980 202.335938 Z " fill="rgb(0, 0, 0)" fill-opacity="1.000000" />
<path d="M 349.892578 202.335938 L 349.892578 201.412109 L 356.729980 201.412109 L 356.729980 202.335938 Z " fill="rgb(0, 0, 0)" fill-opacity="1.000000" />
<path d="M 356.892578 202.335938 L 356.892578 201.412109 L 363.729980 201.412109 L 363.729980 202.335938 Z " fill="rgb(0, 0, 0)" fill-opacity="1.000000" />
<path d="M 363.892578 202.335938 L 363.892578 201.412109 L 366.878906 201.412109 L 366.878906 194.300781 L 367.738281 194.300781 L 367.738281 202.335938 Z " fill="rgb(0, 0, 0)" fill-opacity="1.000000" />
<path d="M 12.763184 22.715332 Q 12.349609 22.935547 11.914551 23.045654 Q 11.479492 23.155762 10.990723 23.155762 Q 9.449219 23.155762 8.597900 22.065430 Q 7.746582 20.975098 7.746582 18.998535 Q 7.746582 17.032715 8.603271 15.934326 Q 9.459961 14.835938 10.990723 14.835938 Q 11.479492 14.835938 11.914551 14.946045 Q 12.349609 15.056152 12.763184 15.276367 L 12.763184 16.388184 Q 12.365723 16.060547 11.909180 15.888672 Q 11.452637 15.716797 10.990723 15.716797 Q 9.932617 15.716797 9.406250 16.533203 Q 8.879883 17.349609 8.879883 18.998535 Q 8.879883 20.642090 9.406250 21.458496 Q 9.932617 22.274902 10.990723 22.274902 Q 11.463379 22.274902 11.917236 22.103027 Q 12.371094 21.931152 12.763184 21.603516 Z " fill="rgb(0, 0, 0)" fill-opacity="1.000000" />
<path d="M 16.878906 39.319336 L 16.878906 32.412109 L 20.729980 32.412109 L 20.729980 33.335938 L 17.738281 33.335938 L 17.738281 39.319336 Z " fill="rgb(0, 0, 0)" fill-opacity="1.000000" />
<path d="M 16.878906 52.319336 L 16.878906 38.300781 L 17.738281 38.300781 L 17.738281 52.319336 Z " fill="rgb(0, 0, 0)" fill-opacity="1.000000" />
<path d="M 16.878906 65.319336 L 16.878906 51.300781 L 17.738281 51.300781 L 17.738281 65.319336 Z " fill="rgb(0, 0, 0)" fill-opacity="1.000000" />
<path d="M 16.878906 78.319336 L 16.878906 64.300781 L 17.738281 64.300781 L 17.738281 78.319336 Z " fill="rgb(0, 0, 0)" fill-opacity="1.000000" />
<path d="M 16.878906 85.335938 L 16.878906 77.300781 L 17.738281 77.300781 L 17.738281 84.412109 L 20.729980 84.412109 L 20.729980 85.335938 Z " fill="rgb(0, 0, 0)" fill-opacity="1.000000" />
<path d="M 16.878906 130.319336 L 16.878906 123.412109 L 20.729980 123.412109 L 20.729980 124.335938 L 17.738281 124.335938 L 17.738281 130.319336 Z " fill="rgb(0, 0, 0)" fill-opacity="1.000000" />
<path d="M 16.878906 143.319336 L 16.878906 129.300781 L 17.738281 129.300781 L 17.738281 143.319336 Z " fill="rgb(0, 0, 0)" fill-opacity="1.000000" />
<path d="M 16.878906 156.319336 L 16.878906 142.300781 L 17.738281 142.300781 L 17.738281 156.319336 Z " fill="rgb(0, 0, 0)" fill-opacity="1.000000" />
<path d="M 16.878906 169.319336 L 16.878906 155.300781 L 17.738281 155.300781 L 17.738281 169.319336 Z " fill="rgb(0, 0, 0)" fill-opacity="1.000000" />
<path d="M 16.878906 176.335938 L 16.878906 168.300781 L 17.738281 168.300781 L 17.738281 175.412109 L 20.729980 175.412109 L 20.729980 176.335938 Z " fill="rgb(0, 0, 0)" fill-opacity="1.000000" />
<path d="M 114.878906 195.319336 L 114.878906 181.300781 L 115.738281 181.300781 L 115.738281 195.319336 Z " fill="rgb(0, 0, 0)" fill-opacity="1.000000" />
<path d="M 142.878906 195.319336 L 142.878906 181.300781 L 143.738281 181.300781 L 143.738281 195.319336 Z " fill="rgb(0, 0, 0)" fill-opacity="1.000000" />
<path d="M 366.878906 195.319336 L 366.878906 181.300781 L 367.738281 181.300781 L 367.738281 195.319336 Z " fill="rgb(0, 0, 0)" fill-opacity="1.000000" />
<path d="M 20.892578 176.335938 L 20.892578 175.412109 L 27.729980 175.412109 L 27.729980 176.335938 Z " fill="rgb(0, 0, 0)" fill-opacity="1.000000" />
<path d="M 27.892578 176.335938 L 27.892578 175.412109 L 34.729980 175.412109 L 34.729980 176.335938 Z " fill="rgb(0, 0, 0)" fill-opacity="1.000000" />
<path d="M 34.892578 176.335938 L 34.892578 175.412109 L 41.729980 175.412109 L 41.729980 176.335938 Z " fill="rgb(0, 0, 0)" fill-opacity="1.000000" />
<path d="M 41.892578 176.335938 L 41.892578 175.412109 L 48.729980 175.412109 L 48.729980 176.335938 Z " fill="rgb(0, 0, 0)" fill-opacity="1.000000" />
<path d="M 48.892578 176.335938 L 48.892578 175.412109 L 55.729980 175.412109 L 55.729980 176.335938 Z " fill="rgb(0, 0, 0)" fill-opacity="1.000000" />
<path d="M 55.892578 176.335938 L 55.892578 175.412109 L 62.729980 175.412109 L 62.729980 176.335938 Z " fill="rgb(0, 0, 0)" fill-opacity="1.000000" />
<path d="M 62.892578 176.335938 L 62.892578 175.412109 L 69.729980 175.412109 L 69.729980 176.335938 Z " fill="rgb(0, 0, 0)" fill-opacity="1.000000" />
<path d="M 69.892578 176.335938 L 69.892578 175.412109 L 76.729980 175.412109 L 76.729980 176.335938 Z " fill="rgb(0, 0, 0)" fill-opacity="1.000000" />
<path d="M 76.892578 176.335938 L 76.892578 175.412109 L 83.729980 175.412109 L 83.729980 176.335938 Z " fill="rgb(0, 0, 0)" fill-opacity="1.000000" />
<path d="M 83.892578 176.335938 L 83.892578 175.412109 L 90.729980 175.412109 L 90.729980 176.335938 Z " fill="rgb(0, 0, 0)" fill-opacity="1.000000" />
<path d="M 90.892578 176.335938 L 90.892578 175.412109 L 97.729980 175.412109 L 97.729980 176.335938 Z " fill="rgb(0, 0, 0)" fill-opacity="1.000000" />
<path d="M 97.892578 176.335938 L 97.892578 175.412109 L 100.878906 175.412109 L 100.878906 168.300781 L 101.738281 168.300781 L 101.738281 176.335938 Z " fill="rgb(0, 0, 0)" fill-opacity="1.000000" />
<path d="M 114.878906 182.319336 L 114.878906 168.300781 L 115.738281 168.300781 L 115.738281 182.319336 Z " fill="rgb(0, 0, 0)" fill-opacity="1.000000" />
<path d="M 142.878906 182.319336 L 142.878906 168.300781 L 143.738281 168.300781 L 143.738281 182.319336 Z " fill="rgb(0, 0, 0)" fill-opacity="1.000000" />
<path d="M 156.878906 176.335938 L 156.878906 168.300781 L 157.738281 168.300781 L 157.738281 175.412109 L 160.729980 175.412109 L 160.729980 176.335938 Z " fill="rgb(0, 0, 0)" fill-opacity="1.000000" />
<path d="M 160.892578 176.335938 L 160.892578 175.412109 L 167.729980 175.412109 L 167.729980 176.335938 Z " fill="rgb(0, 0, 0)" fill-opacity="1.000000" />
<path d="M 167.892578 176.335938 L 167.892578 175.412109 L 174.729980 175.412109 L 174.729980 176.335938 Z " fill="rgb(0, 0, 0)" fill-opacity="1.000000" />
<path d="M 174.892578 176.335938 L 174.892578 175.412109 L 181.729980 175.412109 L 181.729980 176.335938 Z " fill="rgb(0, 0, 0)" fill-opacity="1.000000" />
<path d="M 181.892578 176.335938 L 181.892578 175.412109 L 188.729980 175.412109 L 188.729980 176.335938 Z " fill="rgb(0, 0, 0)" fill-opacity="1.000000" />
<path d="M 188.892578 176.335938 L 188.892578 175.412109 L 195.729980 175.412109 L 195.729980 176.335938 Z " fill="rgb(0, 0, 0)" fill-opacity="1.000000" />
<path d="M 195.892578 176.335938 L 195.892578 175.412109 L 202.729980 175.412109 L 202.729980 176.335938 Z " fill="rgb(0, 0, 0)" fill-opacity="1.000000" />
<path d="M 202.892578 176.335938 L 202.892578 175.412109 L 209.729980 175.412109 L 209.729980 176.335938 Z " fill="rgb(0, 0, 0)" fill-opacity="1.000000" />
<path d="M 209.892578 176.335938 L 209.892578 175.412109 L 216.729980 175.412109 L 216.729980 176.335938 Z " fill="rgb(0, 0, 0)" fill-opacity="1.000000" />
<path d="M 216.892578 176.335938 L 216.892578 175.412109 L 223.729980 175.412109 L 223.729980 176.335938 Z " fill="rgb(0, 0, 0)" fill-opacity="1.000000" />
<path d="M 223.892578 176.335938 L 223.892578 175.412109 L 230.729980 175.412109 L 230.729980 176.335938 Z " fill="rgb(0, 0, 0)" fill-opacity="1.000000" />
<path d="M 230.892578 176.335938 L 230.892578 175.412109 L 237.729980 175.412109 L 237.729980 176.335938 Z " fill="rgb(0, 0, 0)" fill-opacity="1.000000" />
<path d="M 237.892578 176.335938 L 237.892578 175.412109 L 240.878906 175.412109 L 240.878906 168.300781 L 241.738281 168.300781 L 241.738281 176.335938 Z " fill="rgb(0, 0, 0)" fill-opacity="1.000000" />
<path d="M 268.878906 176.335938 L 268.878906 168.300781 L 269.738281 168.300781 L 269.738281 175.412109 L 272.729980 175.412109 L 272.729980 176.335938 Z " fill="rgb(0, 0, 0)" fill-opacity="1.000000" />
<path d="M 272.892578 176.335938 L 272.892578 175.412109 L 279.729980 175.412109 L 279.729980 176.335938 Z " fill="rgb(0, 0, 0)" fill-opacity="1.000000" />
<path d="M 279.892578 176.335938 L 279.892578 175.412109 L 286.729980 175.412109 L 286.729980 176.335938 Z " fill="rgb(0, 0, 0)" fill-opacity="1.000000" />
<path d="M 286.892578 176.335938 L 286.892578 175.412109 L 293.729980 175.412109 L 293.729980 176.335938 Z " fill="rgb(0, 0, 0)" fill-opacity="1.000000" />
<path d="M 293.892578 176.335938 L 293.892578 175.412109 L 300.729980 175.412109 L 300.729980 176.335938 Z " fill="rgb(0, 0, 0)" fill-opacity="1.000000" />
<path d="M 300.892578 176.335938 L 300.892578 175.412109 L 307.729980 175.412109 L 307.729980 176.335938 Z " fill="rgb(0, 0, 0)" fill-opacity="1.000000" />
<path d="M 307.892578 176.335938 L 307.892578 175.412109 L 314.729980 175.412109 L 314.729980 176.335938 Z " fill="rgb(0, 0, 0)" fill-opacity="1.000000" />
<path d="M 314.892578 176.335938 L 314.892578 175.412109 L 321.729980 175.412109 L 321.729980 176.335938 Z " fill="rgb(0, 0, 0)" fill-opacity="1.000000" />
<path d="M 321.892578 176.335938 L 321.892578 175.412109 L 328.729980 175.412109 L 328.729980 176.335938 Z " fill="rgb(0, 0, 0)" fill-opacity="1.000000" />
<path d="M 328.892578 176.335938 L 328.892578 175.412109 L 335.729980 175.412109 L 335.729980 176.335938 Z " fill="rgb(0, 0, 0)" fill-opacity="1.000000" />
<path d="M 335.892578 176.335938 L 335.892578 175.412109 L 342.729980 175.412109 L 342.729980 176.335938 Z " fill="rgb(0, 0, 0)" fill-opacity="1.000000" />
<path d="M 342.892578 176.335938 L 342.892578 175.412109 L 349.729980 175.412109 L 349.729980 176.335938 Z " fill="rgb(0, 0, 0)" fill-opacity="1.000000" />
<path d="M 349.892578 176.335938 L 349.892578 175.412109 L 352.878906 175.412109 L 352.878906 168.300781 L 353.738281 168.300781 L 353.738281 176.335938 Z " fill="rgb(0, 0, 0)" fill-opacity="1.000000" />
<path d="M 366.878906 182.319336 L 366.878906 168.300781 L 367.738281 168.300781 L 367.738281 182.319336 Z " fill="rgb(0, 0, 0)" fill-opacity="1.000000" />
<path d="M 47.763184 152.715332 Q 47.349609 152.935547 46.914551 153.045654 Q 46.479492 153.155762 45.990723 153.155762 Q 44.449219 153.155762 43.597900 152.065430 Q 42.746582 150.975098 42.746582 148.998535 Q 42.746582 147.032715 43.603271 145.934326 Q 44.459961 144.835938 45.990723 144.835938 Q 46.479492 144.835938 46.914551 144.946045 Q 47.349609 145.056152 47.763184 145.276367 L 47.763184 146.388184 Q 47.365723 146.060547 46.909180 145.888672 Q 46.452637 145.716797 45.990723 145.716797 Q 44.932617 145.716797 44.406250 146.533203 Q 43.879883 147.349609 43.879883 148.998535 Q 43.879883 150.642090 44.406250 151.458496 Q 44.932617 152.274902 45.990723 152.274902 Q 46.463379 152.274902 46.917236 152.103027 Q 47.371094 151.931152 47.763184 151.603516 Z " fill="rgb(0, 0, 0)" fill-opacity="1.000000" />
<path d="M 100.878906 169.319336 L 100.878906 155.300781 L 101.738281 155.300781 L 101.738281 162.412109 L 104.729980 162.412109 L 104.729980 163.335938 L 101.738281 163.335938 L 101.738281 169.319336 Z " fill="rgb(0, 0, 0)" fill-opacity="1.000000" />
<path d="M 104.892578 163.335938 L 104.892578 162.412109 L 111.729980 162.412109 L 111.729980 163.335938 Z " fill="rgb(0, 0, 0)" fill-opacity="1.000000" />
<path d="M 115.738281 163.335938 L 115.738281 169.319336 L 114.878906 169.319336 L 114.878906 163.335938 L 111.892578 163.335938 L 111.892578 162.412109 L 114.878906 162.412109 L 114.878906 155.300781 L 115.738281 155.300781 L 115.738281 162.412109 L 118.729980 162.412109 L 118.729980 163.335938 Z " fill="rgb(0, 0, 0)" fill-opacity="1.000000" />
<path d="M 118.892578 163.335938 L 118.892578 162.412109 L 125.729980 162.412109 L 125.729980 163.335938 Z " fill="rgb(0, 0, 0)" fill-opacity="1.000000" />
<path d="M 125.892578 163.335938 L 125.892578 162.412109 L 132.729980 162.412109 L 132.729980 163.335938 Z " fill="rgb(0, 0, 0)" fill-opacity="1.000000" />
<path d="M 132.892578 163.335938 L 132.892578 162.412109 L 139.729980 162.412109 L 139.729980 163.335938 Z " fill="rgb(0, 0, 0)" fill-opacity="1.000000" />
<path d="M 143.738281 163.335938 L 143.738281 169.319336 L 142.878906 169.319336 L 142.878906 163.335938 L 139.892578 163.335938 L 139.892578 162.412109 L 142.878906 162.412109 L 142.878906 155.300781 L 143.738281 155.300781 L 143.738281 162.412109 L 146.729980 162.412109 L 146.729980 163.335938 Z " fill="rgb(0, 0, 0)" fill-opacity="1.000000" />
<path d="M 146.892578 163.335938 L 146.892578 162.412109 L 153.729980 162.412109 L 153.729980 163.335938 Z " fill="rgb(0, 0, 0)" fill-opacity="1.000000" />
<path d="M 154.032227 166.418945 L 154.032227 159.866211 L 160.590332 163.142578 Z " fill="rgb(0, 0, 0)" fill-opacity="1.000000" />
<path d="M 240.878906 169.319336 L 240.878906 155.300781 L 241.738281 155.300781 L 241.738281 169.319336 Z " fill="rgb(0, 0, 0)" fill-opacity="1.000000" />
<path d="M 268.878906 169.319336 L 268.878906 155.300781 L 269.738281 155.300781 L 269.738281 169.319336 Z " fill="rgb(0, 0, 0)" fill-opacity="1.000000" />
<path d="M 352.878906 169.319336 L 352.878906 155.300781 L 353.738281 155.300781 L 353.738281 169.319336 Z " fill="rgb(0, 0, 0)" fill-opacity="1.000000" />
<path d="M 366.878906 169.319336 L 366.878906 155.300781 L 367.738281 155.300781 L 367.738281 169.319336 Z " fill="rgb(0, 0, 0)" fill-opacity="1.000000" />
<path d="M 50.079590 144.980957 L 54.532227 144.980957 L 54.532227 145.894043 L 52.851074 145.894043 L 52.851074 152.086914 L 54.532227 152.086914 L 54.532227 153.000000 L 50.079590 153.000000 L 50.079590 152.086914 L 51.760742 152.086914 L 51.760742 145.894043 L 50.079590 145.894043 Z " fill="rgb(0, 0, 0)" fill-opacity="1.000000" />
<path d="M 58.341797 152.108398 Q 59.711426 152.108398 60.253906 151.434326 Q 60.796387 150.760254 60.796387 148.998535 Q 60.796387 147.220703 60.256592 146.546631 Q 59.716797 145.872559 58.341797 145.872559 L 57.826172 145.872559 L 57.826172 152.108398 Z M 58.363281 144.980957 Q 60.200195 144.980957 61.070312 145.958496 Q 61.940430 146.936035 61.940430 148.998535 Q 61.940430 151.050293 61.070312 152.025146 Q 60.200195 153.000000 58.363281 153.000000 L 56.735840 153.000000 L 56.735840 144.980957 Z " fill="rgb(0, 0, 0)" fill-opacity="1.000000" />
<path d="M 64.058105 144.980957 L 68.816895 144.980957 L 68.816895 145.894043 L 65.143066 145.894043 L 65.143066 148.053223 L 68.655762 148.053223 L 68.655762 148.966309 L 65.143066 148.966309 L 65.143066 152.086914 L 68.918945 152.086914 L 68.918945 153.000000 L 64.058105 153.000000 Z " fill="rgb(0, 0, 0)" fill-opacity="1.000000" />
<path d="M 74.082031 149.213379 Q 74.500977 149.320801 74.796387 149.618896 Q 75.091797 149.916992 75.532227 150.808594 L 76.622559 153.000000 L 75.457031 153.000000 L 74.500977 150.975098 Q 74.087402 150.110352 73.757080 149.860596 Q 73.426758 149.610840 72.895020 149.610840 L 71.858398 149.610840 L 71.858398 153.000000 L 70.768066 153.000000 L 70.768066 144.980957 L 73.002441 144.980957 Q 74.323730 144.980957 75.027344 145.577148 Q 75.730957 146.173340 75.730957 147.301270 Q 75.730957 148.096191 75.298584 148.598389 Q 74.866211 149.100586 74.082031 149.213379 Z M 71.858398 145.872559 L 71.858398 148.719238 L 73.045410 148.719238 Q 73.824219 148.719238 74.205566 148.370117 Q 74.586914 148.020996 74.586914 147.301270 Q 74.586914 146.608398 74.181396 146.240479 Q 73.775879 145.872559 73.002441 145.872559 Z " fill="rgb(0, 0, 0)" fill-opacity="1.000000" />
<path d="M 100.878906 156.319336 L 100.878906 142.300781 L 101.738281 142.300781 L 101.738281 156.319336 Z " fill="rgb(0, 0, 0)" fill-opacity="1.000000" />
<path d="M 114.878906 156.319336 L 114.878906 142.300781 L 115.738281 142.300781 L 115.738281 156.319336 Z " fill="rgb(0, 0, 0)" fill-opacity="1.000000" />
<path d="M 142.878906 156.319336 L 142.878906 142.300781 L 143.738281 142.300781 L 143.738281 156.319336 Z " fill="rgb(0, 0, 0)" fill-opacity="1.000000" />
<path d="M 156.878906 156.319336 L 156.878906 142.300781 L 157.738281 142.300781 L 157.738281 156.319336 Z " fill="rgb(0, 0, 0)" fill-opacity="1.000000" />
<path d="M 164.630859 147.596680 Q 164.813477 147.209961 165.095459 147.024658 Q 165.377441 146.839355 165.774902 146.839355 Q 166.500000 146.839355 166.798096 147.400635 Q 167.096191 147.961914 167.096191 149.514160 L 167.096191 153.000000 L 166.193848 153.000000 L 166.193848 149.557129 Q 166.193848 148.284180 166.051514 147.975342 Q 165.909180 147.666504 165.533203 147.666504 Q 165.103516 147.666504 164.945068 147.996826 Q 164.786621 148.327148 164.786621 149.557129 L 164.786621 153.000000 L 163.884277 153.000000 L 163.884277 149.557129 Q 163.884277 148.268066 163.731201 147.967285 Q 163.578125 147.666504 163.180664 147.666504 Q 162.788574 147.666504 162.635498 147.996826 Q 162.482422 148.327148 162.482422 149.557129 L 162.482422 153.000000 L 161.585449 153.000000 L 161.585449 146.984375 L 162.482422 146.984375 L 162.482422 147.500000 Q 162.659668 147.177734 162.925537 147.008545 Q 163.191406 146.839355 163.529785 146.839355 Q 163.937988 146.839355 164.209229 147.027344 Q 164.480469 147.215332 164.630859 147.596680 Z " fill="rgb(0, 0, 0)" fill-opacity="1.000000" />
<path d="M 169.697266 147.005859 L 172.227051 147.005859 L 172.227051 152.231934 L 174.187500 152.231934 L 174.187500 153.000000 L 169.278320 153.000000 L 169.278320 152.231934 L 171.238770 152.231934 L 171.238770 147.773926 L 169.697266 147.773926 Z M 171.238770 144.669434 L 172.227051 144.669434 L 172.227051 145.915527 L 171.238770 145.915527 Z " fill="rgb(0, 0, 0)" fill-opacity="1.000000" />
<path d="M 179.608398 147.752441 L 179.608398 144.642578 L 180.596680 144.642578 L 180.596680 153.000000 L 179.608398 153.000000 L 179.608398 152.242676 Q 179.361328 152.688477 178.950439 152.922119 Q 178.539551 153.155762 178.002441 153.155762 Q 176.912109 153.155762 176.286377 152.309814 Q 175.660645 151.463867 175.660645 149.976074 Q 175.660645 148.509766 176.289062 147.674561 Q 176.917480 146.839355 178.002441 146.839355 Q 178.544922 146.839355 178.958496 147.072998 Q 179.372070 147.306641 179.608398 147.752441 Z M 176.702637 149.997559 Q 176.702637 151.146973 177.067871 151.732422 Q 177.433105 152.317871 178.147461 152.317871 Q 178.861816 152.317871 179.235107 151.727051 Q 179.608398 151.136230 179.608398 149.997559 Q 179.608398 148.853516 179.235107 148.265381 Q 178.861816 147.677246 178.147461 147.677246 Q 177.433105 147.677246 177.067871 148.262695 Q 176.702637 148.848145 176.702637 149.997559 Z " fill="rgb(0, 0, 0)" fill-opacity="1.000000" />
<path d="M 186.608398 147.752441 L 186.608398 144.642578 L 187.596680 144.642578 L 187.596680 153.000000 L 186.608398 153.000000 L 186.608398 152.242676 Q 186.361328 152.688477 185.950439 152.922119 Q 185.539551 153.155762 185.002441 153.155762 Q 183.912109 153.155762 183.286377 152.309814 Q 182.660645 151.463867 182.660645 149.976074 Q 182.660645 148.509766 183.289062 147.674561 Q 183.917480 146.839355 185.002441 146.839355 Q 185.544922 146.839355 185.958496 147.072998 Q 186.372070 147.306641 186.608398 147.752441 Z M 183.702637 149.997559 Q 183.702637 151.146973 184.067871 151.732422 Q 184.433105 152.317871 185.147461 152.317871 Q 185.861816 152.317871 186.235107 151.727051 Q 186.608398 151.136230 186.608398 149.997559 Q 186.608398 148.853516 186.235107 148.265381 Q 185.861816 147.677246 185.147461 147.677246 Q 184.433105 147.677246 184.067871 148.262695 Q 183.702637 148.848145 183.702637 149.997559 Z " fill="rgb(0, 0, 0)" fill-opacity="1.000000" />
<path d="M 192.861816 150.824707 Q 192.861816 151.490723 193.106201 151.829102 Q 193.350586 152.167480 193.828613 152.167480 L 194.983398 152.167480 L 194.983398 153.000000 L 193.731934 153.000000 Q 192.845703 153.000000 192.359619 152.433350 Q 191.873535 151.866699 191.873535 150.824707 L 191.873535 145.383789 L 190.289062 145.383789 L 190.289062 144.610352 L 192.861816 144.610352 Z " fill="rgb(0, 0, 0)" fill-opacity="1.000000" />
<path d="M 202.015625 149.498047 L 202.015625 149.981445 L 197.734863 149.981445 L 197.734863 150.013672 Q 197.691895 151.243652 198.204834 151.780762 Q 198.717773 152.317871 199.652344 152.317871 Q 200.125000 152.317871 200.640625 152.167480 Q 201.156250 152.017090 201.741699 151.710938 L 201.741699 152.693848 Q 201.177734 152.924805 200.654053 153.040283 Q 200.130371 153.155762 199.641602 153.155762 Q 198.239746 153.155762 197.450195 152.315186 Q 196.660645 151.474609 196.660645 149.997559 Q 196.660645 148.558105 197.434082 147.698730 Q 198.207520 146.839355 199.496582 146.839355 Q 200.645996 146.839355 201.309326 147.618164 Q 201.972656 148.396973 202.015625 149.498047 Z M 201.027344 149.208008 Q 200.962891 148.584961 200.573486 148.131104 Q 200.184082 147.677246 199.453613 147.677246 Q 198.739258 147.677246 198.277344 148.149902 Q 197.815430 148.622559 197.772461 149.213379 Z " fill="rgb(0, 0, 0)" fill-opacity="1.000000" />
<path d="M 203.000000 146.984375 L 203.977539 146.984375 L 205.024902 151.845215 L 205.884277 148.740723 L 206.727539 148.740723 L 207.597656 151.845215 L 208.645020 146.984375 L 209.622559 146.984375 L 208.215332 153.000000 L 207.270020 153.000000 L 206.308594 149.702148 L 205.352539 153.000000 L 204.407227 153.000000 Z " fill="rgb(0, 0, 0)" fill-opacity="1.000000" />
<path d="M 213.770508 149.976074 L 213.442871 149.976074 Q 212.578125 149.976074 212.140381 150.279541 Q 211.702637 150.583008 211.702637 151.184570 Q 211.702637 151.727051 212.030273 152.027832 Q 212.357910 152.328613 212.937988 152.328613 Q 213.754395 152.328613 214.221680 151.761963 Q 214.688965 151.195312 214.694336 150.196289 L 214.694336 149.976074 Z M 215.687988 149.567871 L 215.687988 153.000000 L 214.694336 153.000000 L 214.694336 152.108398 Q 214.377441 152.645508 213.896729 152.900635 Q 213.416016 153.155762 212.728516 153.155762 Q 211.810059 153.155762 211.262207 152.637451 Q 210.714355 152.119141 210.714355 151.249023 Q 210.714355 150.244629 211.388428 149.723633 Q 212.062500 149.202637 213.367676 149.202637 L 214.694336 149.202637 L 214.694336 149.046875 Q 214.688965 148.327148 214.329102 148.002197 Q 213.969238 147.677246 213.179688 147.677246 Q 212.674805 147.677246 212.159180 147.822266 Q 211.643555 147.967285 211.154785 148.246582 L 211.154785 147.258301 Q 211.702637 147.048828 212.204834 146.944092 Q 212.707031 146.839355 213.179688 146.839355 Q 213.926270 146.839355 214.455322 147.059570 Q 214.984375 147.279785 215.312012 147.720215 Q 215.516113 147.988770 215.602051 148.383545 Q 215.687988 148.778320 215.687988 149.567871 Z " fill="rgb(0, 0, 0)" fill-opacity="1.000000" />
<path d="M 223.203613 148.225098 Q 222.886719 147.978027 222.559082 147.865234 Q 222.231445 147.752441 221.839355 147.752441 Q 220.915527 147.752441 220.426758 148.332520 Q 219.937988 148.912598 219.937988 150.008301 L 219.937988 153.000000 L 218.944336 153.000000 L 218.944336 146.984375 L 219.937988 146.984375 L 219.937988 148.160645 Q 220.185059 147.521484 220.697998 147.180420 Q 221.210938 146.839355 221.914551 146.839355 Q 222.279785 146.839355 222.596680 146.930664 Q 222.913574 147.021973 223.203613 147.215332 Z " fill="rgb(0, 0, 0)" fill-opacity="1.000000" />
<path d="M 230.015625 149.498047 L 230.015625 149.981445 L 225.734863 149.981445 L 225.734863 150.013672 Q 225.691895 151.243652 226.204834 151.780762 Q 226.717773 152.317871 227.652344 152.317871 Q 228.125000 152.317871 228.640625 152.167480 Q 229.156250 152.017090 229.741699 151.710938 L 229.741699 152.693848 Q 229.177734 152.924805 228.654053 153.040283 Q 228.130371 153.155762 227.641602 153.155762 Q 226.239746 153.155762 225.450195 152.315186 Q 224.660645 151.474609 224.660645 149.997559 Q 224.660645 148.558105 225.434082 147.698730 Q 226.207520 146.839355 227.496582 146.839355 Q 228.645996 146.839355 229.309326 147.618164 Q 229.972656 148.396973 230.015625 149.498047 Z M 229.027344 149.208008 Q 228.962891 148.584961 228.573486 148.131104 Q 228.184082 147.677246 227.453613 147.677246 Q 226.739258 147.677246 226.277344 148.149902 Q 225.815430 148.622559 225.772461 149.213379 Z " fill="rgb(0, 0, 0)" fill-opacity="1.000000" />
<path d="M 240.878906 156.319336 L 240.878906 142.300781 L 241.738281 142.300781 L 241.738281 156.319336 Z " fill="rgb(0, 0, 0)" fill-opacity="1.000000" />
<path d="M 268.878906 156.319336 L 268.878906 142.300781 L 269.738281 142.300781 L 269.738281 156.319336 Z " fill="rgb(0, 0, 0)" fill-opacity="1.000000" />
<path d="M 301.585449 152.672363 L 301.585449 151.404785 Q 302.074219 151.839844 302.595215 152.057373 Q 303.116211 152.274902 303.674805 152.274902 Q 304.442871 152.274902 304.746338 151.874756 Q 305.049805 151.474609 305.049805 150.384277 L 305.049805 145.894043 L 303.003418 145.894043 L 303.003418 144.980957 L 306.134766 144.980957 L 306.134766 150.384277 Q 306.134766 151.898926 305.568115 152.527344 Q 305.001465 153.155762 303.674805 153.155762 Q 303.159180 153.155762 302.648926 153.037598 Q 302.138672 152.919434 301.585449 152.672363 Z " fill="rgb(0, 0, 0)" fill-opacity="1.000000" />
<path d="M 311.308594 152.086914 L 313.193848 144.980957 L 314.316406 144.980957 L 311.969238 153.000000 L 310.653320 153.000000 L 308.306152 144.980957 L 309.428711 144.980957 Z " fill="rgb(0, 0, 0)" fill-opacity="1.000000" />
<path d="M 315.193359 145.007812 L 316.643555 145.007812 L 318.029297 149.079102 L 319.425781 145.007812 L 320.881348 145.007812 L 320.881348 153.000000 L 319.876953 153.000000 L 319.876953 145.937012 L 318.448242 150.147949 L 317.626465 150.147949 L 316.192383 145.937012 L 316.192383 153.000000 L 315.193359 153.000000 Z " fill="rgb(0, 0, 0)" fill-opacity="1.000000" />
<path d="M 352.878906 156.319336 L 352.878906 142.300781 L 353.738281 142.300781 L 353.738281 156.319336 Z " fill="rgb(0, 0, 0)" fill-opacity="1.000000" />
<path d="M 366.878906 156.319336 L 366.878906 142.300781 L 367.738281 142.300781 L 367.738281 156.319336 Z " fill="rgb(0, 0, 0)" fill-opacity="1.000000" />
<path d="M 98.032227 137.142578 L 104.590332 133.866211 L 104.590332 140.418945 Z " fill="rgb(0, 0, 0)" fill-opacity="1.000000" />
<path d="M 104.892578 137.335938 L 104.892578 136.412109 L 111.729980 136.412109 L 111.729980 137.335938 Z " fill="rgb(0, 0, 0)" fill-opacity="1.000000" />
<path d="M 115.738281 137.335938 L 115.738281 143.319336 L 114.878906 143.319336 L 114.878906 137.335938 L 111.892578 137.335938 L 111.892578 136.412109 L 114.878906 136.412109 L 114.878906 129.300781 L 115.738281 129.300781 L 115.738281 136.412109 L 118.729980 136.412109 L 118.729980 137.335938 Z " fill="rgb(0, 0, 0)" fill-opacity="1.000000" />
<path d="M 118.892578 137.335938 L 118.892578 136.412109 L 125.729980 136.412109 L 125.729980 137.335938 Z " fill="rgb(0, 0, 0)" fill-opacity="1.000000" />
<path d="M 125.892578 137.335938 L 125.892578 136.412109 L 132.729980 136.412109 L 132.729980 137.335938 Z " fill="rgb(0, 0, 0)" fill-opacity="1.000000" />
<path d="M 132.892578 137.335938 L 132.892578 136.412109 L 139.729980 136.412109 L 139.729980 137.335938 Z " fill="rgb(0, 0, 0)" fill-opacity="1.000000" />
<path d="M 143.738281 137.335938 L 143.738281 143.319336 L 142.878906 143.319336 L 142.878906 137.335938 L 139.892578 137.335938 L 139.892578 136.412109 L 142.878906 136.412109 L 142.878906 129.300781 L 143.738281 129.300781 L 143.738281 136.412109 L 146.729980 136.412109 L 146.729980 137.335938 Z " fill="rgb(0, 0, 0)" fill-opacity="1.000000" />
<path d="M 146.892578 137.335938 L 146.892578 136.412109 L 153.729980 136.412109 L 153.729980 137.335938 Z " fill="rgb(0, 0, 0)" fill-opacity="1.000000" />
<path d="M 156.878906 143.319336 L 156.878906 137.335938 L 153.892578 137.335938 L 153.892578 136.412109 L 156.878906 136.412109 L 156.878906 129.300781 L 157.738281 129.300781 L 157.738281 143.319336 Z " fill="rgb(0, 0, 0)" fill-opacity="1.000000" />
<path d="M 187.645020 136.272461 L 187.645020 140.000000 L 186.651367 140.000000 L 186.651367 136.272461 Q 186.651367 135.461426 186.366699 135.080078 Q 186.082031 134.698730 185.475098 134.698730 Q 184.782227 134.698730 184.408936 135.190186 Q 184.035645 135.681641 184.035645 136.600098 L 184.035645 140.000000 L 183.047363 140.000000 L 183.047363 133.984375 L 184.035645 133.984375 L 184.035645 134.886719 Q 184.298828 134.371094 184.750000 134.105225 Q 185.201172 133.839355 185.818848 133.839355 Q 186.737305 133.839355 187.191162 134.443604 Q 187.645020 135.047852 187.645020 136.272461 Z " fill="rgb(0, 0, 0)" fill-opacity="1.000000" />
<path d="M 193.082031 136.213379 Q 193.500977 136.320801 193.796387 136.618896 Q 194.091797 136.916992 194.532227 137.808594 L 195.622559 140.000000 L 194.457031 140.000000 L 193.500977 137.975098 Q 193.087402 137.110352 192.757080 136.860596 Q 192.426758 136.610840 191.895020 136.610840 L 190.858398 136.610840 L 190.858398 140.000000 L 189.768066 140.000000 L 189.768066 131.980957 L 192.002441 131.980957 Q 193.323730 131.980957 194.027344 132.577148 Q 194.730957 133.173340 194.730957 134.301270 Q 194.730957 135.096191 194.298584 135.598389 Q 193.866211 136.100586 193.082031 136.213379 Z M 190.858398 132.872559 L 190.858398 135.719238 L 192.045410 135.719238 Q 192.824219 135.719238 193.205566 135.370117 Q 193.586914 135.020996 193.586914 134.301270 Q 193.586914 133.608398 193.181396 133.240479 Q 192.775879 132.872559 192.002441 132.872559 Z " fill="rgb(0, 0, 0)" fill-opacity="1.000000" />
<path d="M 197.058105 131.980957 L 201.816895 131.980957 L 201.816895 132.894043 L 198.143066 132.894043 L 198.143066 135.053223 L 201.655762 135.053223 L 201.655762 135.966309 L 198.143066 135.966309 L 198.143066 139.086914 L 201.918945 139.086914 L 201.918945 140.000000 L 197.058105 140.000000 Z " fill="rgb(0, 0, 0)" fill-opacity="1.000000" />
<path d="M 205.143066 132.872559 L 205.143066 135.885742 L 206.399902 135.885742 Q 207.151855 135.885742 207.573486 135.488281 Q 207.995117 135.090820 207.995117 134.376465 Q 207.995117 133.662109 207.576172 133.267334 Q 207.157227 132.872559 206.399902 132.872559 Z M 204.058105 131.980957 L 206.399902 131.980957 Q 207.742676 131.980957 208.435547 132.590576 Q 209.128418 133.200195 209.128418 134.376465 Q 209.128418 135.563477 208.438232 136.170410 Q 207.748047 136.777344 206.399902 136.777344 L 205.143066 136.777344 L 205.143066 140.000000 L 204.058105 140.000000 Z " fill="rgb(0, 0, 0)" fill-opacity="1.000000" />
<path d="M 211.154785 131.980957 L 212.245117 131.980957 L 212.245117 139.086914 L 216.117676 139.086914 L 216.117676 140.000000 L 211.154785 140.000000 Z " fill="rgb(0, 0, 0)" fill-opacity="1.000000" />
<path d="M 240.878906 143.319336 L 240.878906 129.300781 L 241.738281 129.300781 L 241.738281 143.319336 Z " fill="rgb(0, 0, 0)" fill-opacity="1.000000" />
<path d="M 268.878906 143.319336 L 268.878906 129.300781 L 269.738281 129.300781 L 269.738281 143.319336 Z " fill="rgb(0, 0, 0)" fill-opacity="1.000000" />
<path d="M 352.878906 143.319336 L 352.878906 129.300781 L 353.738281 129.300781 L 353.738281 143.319336 Z " fill="rgb(0, 0, 0)" fill-opacity="1.000000" />
<path d="M 366.878906 143.319336 L 366.878906 129.300781 L 367.738281 129.300781 L 367.738281 143.319336 Z " fill="rgb(0, 0, 0)" fill-opacity="1.000000" />
<path d="M 20.892578 124.335938 L 20.892578 123.412109 L 27.729980 123.412109 L 27.729980 124.335938 Z " fill="rgb(0, 0, 0)" fill-opacity="1.000000" />
<path d="M 27.892578 124.335938 L 27.892578 123.412109 L 34.729980 123.412109 L 34.729980 124.335938 Z " fill="rgb(0, 0, 0)" fill-opacity="1.000000" />
<path d="M 34.892578 124.335938 L 34.892578 123.412109 L 41.729980 123.412109 L 41.729980 124.335938 Z " fill="rgb(0, 0, 0)" fill-opacity="1.000000" />
<path d="M 41.892578 124.335938 L 41.892578 123.412109 L 48.729980 123.412109 L 48.729980 124.335938 Z " fill="rgb(0, 0, 0)" fill-opacity="1.000000" />
<path d="M 48.892578 124.335938 L 48.892578 123.412109 L 51.878906 123.412109 L 51.878906 116.300781 L 52.738281 116.300781 L 52.738281 123.412109 L 55.729980 123.412109 L 55.729980 124.335938 Z " fill="rgb(0, 0, 0)" fill-opacity="1.000000" />
<path d="M 55.892578 124.335938 L 55.892578 123.412109 L 62.729980 123.412109 L 62.729980 124.335938 Z " fill="rgb(0, 0, 0)" fill-opacity="1.000000" />
<path d="M 62.892578 124.335938 L 62.892578 123.412109 L 69.729980 123.412109 L 69.729980 124.335938 Z " fill="rgb(0, 0, 0)" fill-opacity="1.000000" />
<path d="M 73.308594 127.418945 L 70.032227 120.866211 L 76.590332 120.866211 Z " fill="rgb(0, 0, 0)" fill-opacity="1.000000" />
<path d="M 76.892578 124.335938 L 76.892578 123.412109 L 83.729980 123.412109 L 83.729980 124.335938 Z " fill="rgb(0, 0, 0)" fill-opacity="1.000000" />
<path d="M 83.892578 124.335938 L 83.892578 123.412109 L 90.729980 123.412109 L 90.729980 124.335938 Z " fill="rgb(0, 0, 0)" fill-opacity="1.000000" />
<path d="M 90.892578 124.335938 L 90.892578 123.412109 L 97.729980 123.412109 L 97.729980 124.335938 Z " fill="rgb(0, 0, 0)" fill-opacity="1.000000" />
<path d="M 100.878906 130.319336 L 100.878906 124.335938 L 97.892578 124.335938 L 97.892578 123.412109 L 101.738281 123.412109 L 101.738281 130.319336 Z " fill="rgb(0, 0, 0)" fill-opacity="1.000000" />
<path d="M 114.878906 130.319336 L 114.878906 116.300781 L 115.738281 116.300781 L 115.738281 130.319336 Z " fill="rgb(0, 0, 0)" fill-opacity="1.000000" />
<path d="M 142.878906 130.319336 L 142.878906 116.300781 L 143.738281 116.300781 L 143.738281 130.319336 Z " fill="rgb(0, 0, 0)" fill-opacity="1.000000" />
<path d="M 156.878906 130.319336 L 156.878906 123.412109 L 160.729980 123.412109 L 160.729980 124.335938 L 157.738281 124.335938 L 157.738281 130.319336 Z " fill="rgb(0, 0, 0)" fill-opacity="1.000000" />
<path d="M 160.892578 124.335938 L 160.892578 123.412109 L 167.729980 123.412109 L 167.729980 124.335938 Z " fill="rgb(0, 0, 0)" fill-opacity="1.000000" />
<path d="M 167.892578 124.335938 L 167.892578 123.412109 L 174.729980 123.412109 L 174.729980 124.335938 Z " fill="rgb(0, 0, 0)" fill-opacity="1.000000" />
<path d="M 174.892578 124.335938 L 174.892578 123.412109 L 181.729980 123.412109 L 181.729980 124.335938 Z " fill="rgb(0, 0, 0)" fill-opacity="1.000000" />
<path d="M 181.892578 124.335938 L 181.892578 123.412109 L 188.729980 123.412109 L 188.729980 124.335938 Z " fill="rgb(0, 0, 0)" fill-opacity="1.000000" />
<path d="M 192.308594 127.418945 L 189.032227 120.866211 L 195.590332 120.866211 Z " fill="rgb(0, 0, 0)" fill-opacity="1.000000" />
<path d="M 195.892578 124.335938 L 195.892578 123.412109 L 202.729980 123.412109 L 202.729980 124.335938 Z " fill="rgb(0, 0, 0)" fill-opacity="1.000000" />
<path d="M 202.892578 124.335938 L 202.892578 123.412109 L 209.729980 123.412109 L 209.729980 124.335938 Z " fill="rgb(0, 0, 0)" fill-opacity="1.000000" />
<path d="M 209.892578 124.335938 L 209.892578 123.412109 L 212.878906 123.412109 L 212.878906 116.300781 L 213.738281 116.300781 L 213.738281 123.412109 L 216.729980 123.412109 L 216.729980 124.335938 Z " fill="rgb(0, 0, 0)" fill-opacity="1.000000" />
<path d="M 216.892578 124.335938 L 216.892578 123.412109 L 223.729980 123.412109 L 223.729980 124.335938 Z " fill="rgb(0, 0, 0)" fill-opacity="1.000000" />
<path d="M 223.892578 124.335938 L 223.892578 123.412109 L 230.729980 123.412109 L 230.729980 124.335938 Z " fill="rgb(0, 0, 0)" fill-opacity="1.000000" />
<path d="M 230.892578 124.335938 L 230.892578 123.412109 L 237.729980 123.412109 L 237.729980 124.335938 Z " fill="rgb(0, 0, 0)" fill-opacity="1.000000" />
<path d="M 240.878906 130.319336 L 240.878906 124.335938 L 237.892578 124.335938 L 237.892578 123.412109 L 241.738281 123.412109 L 241.738281 130.319336 Z " fill="rgb(0, 0, 0)" fill-opacity="1.000000" />
<path d="M 268.878906 130.319336 L 268.878906 123.412109 L 272.729980 123.412109 L 272.729980 124.335938 L 269.738281 124.335938 L 269.738281 130.319336 Z " fill="rgb(0, 0, 0)" fill-opacity="1.000000" />
<path d="M 272.892578 124.335938 L 272.892578 123.412109 L 279.729980 123.412109 L 279.729980 124.335938 Z " fill="rgb(0, 0, 0)" fill-opacity="1.000000" />
<path d="M 279.892578 124.335938 L 279.892578 123.412109 L 286.729980 123.412109 L 286.729980 124.335938 Z " fill="rgb(0, 0, 0)" fill-opacity="1.000000" />
<path d="M 286.892578 124.335938 L 286.892578 123.412109 L 293.729980 123.412109 L 293.729980 124.335938 Z " fill="rgb(0, 0, 0)" fill-opacity="1.000000" />
<path d="M 293.892578 124.335938 L 293.892578 123.412109 L 300.729980 123.412109 L 300.729980 124.335938 Z " fill="rgb(0, 0, 0)" fill-opacity="1.000000" />
<path d="M 300.892578 124.335938 L 300.892578 123.412109 L 303.878906 123.412109 L 303.878906 116.300781 L 304.738281 116.300781 L 304.738281 123.412109 L 307.729980 123.412109 L 307.729980 124.335938 Z " fill="rgb(0, 0, 0)" fill-opacity="1.000000" />
<path d="M 307.892578 124.335938 L 307.892578 123.412109 L 314.729980 123.412109 L 314.729980 124.335938 Z " fill="rgb(0, 0, 0)" fill-opacity="1.000000" />
<path d="M 314.892578 124.335938 L 314.892578 123.412109 L 321.729980 123.412109 L 321.729980 124.335938 Z " fill="rgb(0, 0, 0)" fill-opacity="1.000000" />
<path d="M 325.308594 127.418945 L 322.032227 120.866211 L 328.590332 120.866211 Z " fill="rgb(0, 0, 0)" fill-opacity="1.000000" />
<path d="M 328.892578 124.335938 L 328.892578 123.412109 L 335.729980 123.412109 L 335.729980 124.335938 Z " fill="rgb(0, 0, 0)" fill-opacity="1.000000" />
<path d="M 335.892578 124.335938 L 335.892578 123.412109 L 342.729980 123.412109 L 342.729980 124.335938 Z " fill="rgb(0, 0, 0)" fill-opacity="1.000000" />
<path d="M 342.892578 124.335938 L 342.892578 123.412109 L 349.729980 123.412109 L 349.729980 124.335938 Z " fill="rgb(0, 0, 0)" fill-opacity="1.000000" />
<path d="M 352.878906 130.319336 L 352.878906 124.335938 L 349.892578 124.335938 L 349.892578 123.412109 L 353.738281 123.412109 L 353.738281 130.319336 Z " fill="rgb(0, 0, 0)" fill-opacity="1.000000" />
<path d="M 366.878906 130.319336 L 366.878906 116.300781 L 367.738281 116.300781 L 367.738281 130.319336 Z " fill="rgb(0, 0, 0)" fill-opacity="1.000000" />
<path d="M 51.878906 104.319336 L 51.878906 90.300781 L 52.738281 90.300781 L 52.738281 104.319336 Z " fill="rgb(0, 0, 0)" fill-opacity="1.000000" />
<path d="M 51.878906 117.319336 L 51.878906 103.300781 L 52.738281 103.300781 L 52.738281 117.319336 Z " fill="rgb(0, 0, 0)" fill-opacity="1.000000" />
<path d="M 72.878906 104.319336 L 72.878906 90.300781 L 73.738281 90.300781 L 73.738281 104.319336 Z " fill="rgb(0, 0, 0)" fill-opacity="1.000000" />
<path d="M 72.878906 117.319336 L 72.878906 103.300781 L 73.738281 103.300781 L 73.738281 117.319336 Z " fill="rgb(0, 0, 0)" fill-opacity="1.000000" />
<path d="M 114.878906 104.319336 L 114.878906 90.300781 L 115.738281 90.300781 L 115.738281 104.319336 Z " fill="rgb(0, 0, 0)" fill-opacity="1.000000" />
<path d="M 114.878906 117.319336 L 114.878906 103.300781 L 115.738281 103.300781 L 115.738281 117.319336 Z " fill="rgb(0, 0, 0)" fill-opacity="1.000000" />
<path d="M 142.878906 104.319336 L 142.878906 90.300781 L 143.738281 90.300781 L 143.738281 104.319336 Z " fill="rgb(0, 0, 0)" fill-opacity="1.000000" />
<path d="M 142.878906 117.319336 L 142.878906 103.300781 L 143.738281 103.300781 L 143.738281 117.319336 Z " fill="rgb(0, 0, 0)" fill-opacity="1.000000" />
<path d="M 191.878906 104.319336 L 191.878906 90.300781 L 192.738281 90.300781 L 192.738281 104.319336 Z " fill="rgb(0, 0, 0)" fill-opacity="1.000000" />
<path d="M 191.878906 117.319336 L 191.878906 103.300781 L 192.738281 103.300781 L 192.738281 117.319336 Z " fill="rgb(0, 0, 0)" fill-opacity="1.000000" />
<path d="M 212.878906 104.319336 L 212.878906 90.300781 L 213.738281 90.300781 L 213.738281 104.319336 Z " fill="rgb(0, 0, 0)" fill-opacity="1.000000" />
<path d="M 212.878906 117.319336 L 212.878906 103.300781 L 213.738281 103.300781 L 213.738281 117.319336 Z " fill="rgb(0, 0, 0)" fill-opacity="1.000000" />
<path d="M 303.878906 104.319336 L 303.878906 90.300781 L 304.738281 90.300781 L 304.738281 104.319336 Z " fill="rgb(0, 0, 0)" fill-opacity="1.000000" />
<path d="M 303.878906 117.319336 L 303.878906 103.300781 L 304.738281 103.300781 L 304.738281 117.319336 Z " fill="rgb(0, 0, 0)" fill-opacity="1.000000" />
<path d="M 324.878906 104.319336 L 324.878906 90.300781 L 325.738281 90.300781 L 325.738281 104.319336 Z " fill="rgb(0, 0, 0)" fill-opacity="1.000000" />
<path d="M 324.878906 117.319336 L 324.878906 103.300781 L 325.738281 103.300781 L 325.738281 117.319336 Z " fill="rgb(0, 0, 0)" fill-opacity="1.000000" />
<path d="M 366.878906 104.319336 L 366.878906 90.300781 L 367.738281 90.300781 L 367.738281 104.319336 Z " fill="rgb(0, 0, 0)" fill-opacity="1.000000" />
<path d="M 366.878906 117.319336 L 366.878906 103.300781 L 367.738281 103.300781 L 367.738281 117.319336 Z " fill="rgb(0, 0, 0)" fill-opacity="1.000000" />
<path d="M 20.892578 85.335938 L 20.892578 84.412109 L 27.729980 84.412109 L 27.729980 85.335938 Z " fill="rgb(0, 0, 0)" fill-opacity="1.000000" />
<path d="M 27.892578 85.335938 L 27.892578 84.412109 L 34.729980 84.412109 L 34.729980 85.335938 Z " fill="rgb(0, 0, 0)" fill-opacity="1.000000" />
<path d="M 34.892578 85.335938 L 34.892578 84.412109 L 41.729980 84.412109 L 41.729980 85.335938 Z " fill="rgb(0, 0, 0)" fill-opacity="1.000000" />
<path d="M 41.892578 85.335938 L 41.892578 84.412109 L 48.729980 84.412109 L 48.729980 85.335938 Z " fill="rgb(0, 0, 0)" fill-opacity="1.000000" />
<path d="M 49.032227 88.418945 L 52.308594 81.866211 L 55.590332 88.418945 Z " fill="rgb(0, 0, 0)" fill-opacity="1.000000" />
<path d="M 55.892578 85.335938 L 55.892578 84.412109 L 62.729980 84.412109 L 62.729980 85.335938 Z " fill="rgb(0, 0, 0)" fill-opacity="1.000000" />
<path d="M 62.892578 85.335938 L 62.892578 84.412109 L 69.729980 84.412109 L 69.729980 85.335938 Z " fill="rgb(0, 0, 0)" fill-opacity="1.000000" />
<path d="M 72.878906 91.319336 L 72.878906 85.335938 L 69.892578 85.335938 L 69.892578 84.412109 L 76.729980 84.412109 L 76.729980 85.335938 L 73.738281 85.335938 L 73.738281 91.319336 Z " fill="rgb(0, 0, 0)" fill-opacity="1.000000" />
<path d="M 76.892578 85.335938 L 76.892578 84.412109 L 83.729980 84.412109 L 83.729980 85.335938 Z " fill="rgb(0, 0, 0)" fill-opacity="1.000000" />
<path d="M 83.892578 85.335938 L 83.892578 84.412109 L 90.729980 84.412109 L 90.729980 85.335938 Z " fill="rgb(0, 0, 0)" fill-opacity="1.000000" />
<path d="M 90.892578 85.335938 L 90.892578 84.412109 L 97.729980 84.412109 L 97.729980 85.335938 Z " fill="rgb(0, 0, 0)" fill-opacity="1.000000" />
<path d="M 97.892578 85.335938 L 97.892578 84.412109 L 100.878906 84.412109 L 100.878906 77.300781 L 101.738281 77.300781 L 101.738281 85.335938 Z " fill="rgb(0, 0, 0)" fill-opacity="1.000000" />
<path d="M 114.878906 91.319336 L 114.878906 77.300781 L 115.738281 77.300781 L 115.738281 91.319336 Z " fill="rgb(0, 0, 0)" fill-opacity="1.000000" />
<path d="M 142.878906 91.319336 L 142.878906 77.300781 L 143.738281 77.300781 L 143.738281 91.319336 Z " fill="rgb(0, 0, 0)" fill-opacity="1.000000" />
<path d="M 156.878906 85.335938 L 156.878906 77.300781 L 157.738281 77.300781 L 157.738281 84.412109 L 160.729980 84.412109 L 160.729980 85.335938 Z " fill="rgb(0, 0, 0)" fill-opacity="1.000000" />
<path d="M 160.892578 85.335938 L 160.892578 84.412109 L 167.729980 84.412109 L 167.729980 85.335938 Z " fill="rgb(0, 0, 0)" fill-opacity="1.000000" />
<path d="M 167.892578 85.335938 L 167.892578 84.412109 L 174.729980 84.412109 L 174.729980 85.335938 Z " fill="rgb(0, 0, 0)" fill-opacity="1.000000" />
<path d="M 174.892578 85.335938 L 174.892578 84.412109 L 181.729980 84.412109 L 181.729980 85.335938 Z " fill="rgb(0, 0, 0)" fill-opacity="1.000000" />
<path d="M 181.892578 85.335938 L 181.892578 84.412109 L 188.729980 84.412109 L 188.729980 85.335938 Z " fill="rgb(0, 0, 0)" fill-opacity="1.000000" />
<path d="M 191.878906 91.319336 L 191.878906 85.335938 L 188.892578 85.335938 L 188.892578 84.412109 L 195.729980 84.412109 L 195.729980 85.335938 L 192.738281 85.335938 L 192.738281 91.319336 Z " fill="rgb(0, 0, 0)" fill-opacity="1.000000" />
<path d="M 195.892578 85.335938 L 195.892578 84.412109 L 202.729980 84.412109 L 202.729980 85.335938 Z " fill="rgb(0, 0, 0)" fill-opacity="1.000000" />
<path d="M 202.892578 85.335938 L 202.892578 84.412109 L 209.729980 84.412109 L 209.729980 85.335938 Z " fill="rgb(0, 0, 0)" fill-opacity="1.000000" />
<path d="M 210.032227 88.418945 L 213.308594 81.866211 L 216.590332 88.418945 Z " fill="rgb(0, 0, 0)" fill-opacity="1.000000" />
<path d="M 216.892578 85.335938 L 216.892578 84.412109 L 223.729980 84.412109 L 223.729980 85.335938 Z " fill="rgb(0, 0, 0)" fill-opacity="1.000000" />
<path d="M 223.892578 85.335938 L 223.892578 84.412109 L 230.729980 84.412109 L 230.729980 85.335938 Z " fill="rgb(0, 0, 0)" fill-opacity="1.000000" />
<path d="M 230.892578 85.335938 L 230.892578 84.412109 L 237.729980 84.412109 L 237.729980 85.335938 Z " fill="rgb(0, 0, 0)" fill-opacity="1.000000" />
<path d="M 237.892578 85.335938 L 237.892578 84.412109 L 240.878906 84.412109 L 240.878906 77.300781 L 241.738281 77.300781 L 241.738281 85.335938 Z " fill="rgb(0, 0, 0)" fill-opacity="1.000000" />
<path d="M 268.878906 85.335938 L 268.878906 77.300781 L 269.738281 77.300781 L 269.738281 84.412109 L 272.729980 84.412109 L 272.729980 85.335938 Z " fill="rgb(0, 0, 0)" fill-opacity="1.000000" />
<path d="M 272.892578 85.335938 L 272.892578 84.412109 L 279.729980 84.412109 L 279.729980 85.335938 Z " fill="rgb(0, 0, 0)" fill-opacity="1.000000" />
<path d="M 279.892578 85.335938 L 279.892578 84.412109 L 286.729980 84.412109 L 286.729980 85.335938 Z " fill="rgb(0, 0, 0)" fill-opacity="1.000000" />
<path d="M 286.892578 85.335938 L 286.892578 84.412109 L 293.729980 84.412109 L 293.729980 85.335938 Z " fill="rgb(0, 0, 0)" fill-opacity="1.000000" />
<path d="M 293.892578 85.335938 L 293.892578 84.412109 L 300.729980 84.412109 L 300.729980 85.335938 Z " fill="rgb(0, 0, 0)" fill-opacity="1.000000" />
<path d="M 301.032227 88.418945 L 304.308594 81.866211 L 307.590332 88.418945 Z " fill="rgb(0, 0, 0)" fill-opacity="1.000000" />
<path d="M 307.892578 85.335938 L 307.892578 84.412109 L 314.729980 84.412109 L 314.729980 85.335938 Z " fill="rgb(0, 0, 0)" fill-opacity="1.000000" />
<path d="M 314.892578 85.335938 L 314.892578 84.412109 L 321.729980 84.412109 L 321.729980 85.335938 Z " fill="rgb(0, 0, 0)" fill-opacity="1.000000" />
<path d="M 324.878906 91.319336 L 324.878906 85.335938 L 321.892578 85.335938 L 321.892578 84.412109 L 328.729980 84.412109 L 328.729980 85.335938 L 325.738281 85.335938 L 325.738281 91.319336 Z " fill="rgb(0, 0, 0)" fill-opacity="1.000000" />
<path d="M 328.892578 85.335938 L 328.892578 84.412109 L 335.729980 84.412109 L 335.729980 85.335938 Z " fill="rgb(0, 0, 0)" fill-opacity="1.000000" />
<path d="M 335.892578 85.335938 L 335.892578 84.412109 L 342.729980 84.412109 L 342.729980 85.335938 Z " fill="rgb(0, 0, 0)" fill-opacity="1.000000" />
<path d="M 342.892578 85.335938 L 342.892578 84.412109 L 349.729980 84.412109 L 349.729980 85.335938 Z " fill="rgb(0, 0, 0)" fill-opacity="1.000000" />
<path d="M 349.892578 85.335938 L 349.892578 84.412109 L 352.878906 84.412109 L 352.878906 77.300781 L 353.738281 77.300781 L 353.738281 85.335938 Z " fill="rgb(0, 0, 0)" fill-opacity="1.000000" />
<path d="M 366.878906 91.319336 L 366.878906 77.300781 L 367.738281 77.300781 L 367.738281 91.319336 Z " fill="rgb(0, 0, 0)" fill-opacity="1.000000" />
<path d="M 43.058105 53.980957 L 47.816895 53.980957 L 47.816895 54.894043 L 44.143066 54.894043 L 44.143066 57.053223 L 47.655762 57.053223 L 47.655762 57.966309 L 44.143066 57.966309 L 44.143066 61.086914 L 47.918945 61.086914 L 47.918945 62.000000 L 43.058105 62.000000 Z " fill="rgb(0, 0, 0)" fill-opacity="1.000000" />
<path d="M 100.878906 78.319336 L 100.878906 64.300781 L 101.738281 64.300781 L 101.738281 78.319336 Z " fill="rgb(0, 0, 0)" fill-opacity="1.000000" />
<path d="M 114.878906 78.319336 L 114.878906 64.300781 L 115.738281 64.300781 L 115.738281 78.319336 Z " fill="rgb(0, 0, 0)" fill-opacity="1.000000" />
<path d="M 142.878906 78.319336 L 142.878906 64.300781 L 143.738281 64.300781 L 143.738281 78.319336 Z " fill="rgb(0, 0, 0)" fill-opacity="1.000000" />
<path d="M 156.878906 78.319336 L 156.878906 64.300781 L 157.738281 64.300781 L 157.738281 78.319336 Z " fill="rgb(0, 0, 0)" fill-opacity="1.000000" />
<path d="M 238.032227 72.142578 L 244.590332 68.866211 L 244.590332 75.418945 Z " fill="rgb(0, 0, 0)" fill-opacity="1.000000" />
<path d="M 244.892578 72.335938 L 244.892578 71.412109 L 251.729980 71.412109 L 251.729980 72.335938 Z " fill="rgb(0, 0, 0)" fill-opacity="1.000000" />
<path d="M 251.892578 72.335938 L 251.892578 71.412109 L 258.729980 71.412109 L 258.729980 72.335938 Z " fill="rgb(0, 0, 0)" fill-opacity="1.000000" />
<path d="M 258.892578 72.335938 L 258.892578 71.412109 L 265.729980 71.412109 L 265.729980 72.335938 Z " fill="rgb(0, 0, 0)" fill-opacity="1.000000" />
<path d="M 268.878906 78.319336 L 268.878906 72.335938 L 265.892578 72.335938 L 265.892578 71.412109 L 268.878906 71.412109 L 268.878906 64.300781 L 269.738281 64.300781 L 269.738281 78.319336 Z " fill="rgb(0, 0, 0)" fill-opacity="1.000000" />
<path d="M 352.878906 78.319336 L 352.878906 64.300781 L 353.738281 64.300781 L 353.738281 78.319336 Z " fill="rgb(0, 0, 0)" fill-opacity="1.000000" />
<path d="M 366.878906 78.319336 L 366.878906 64.300781 L 367.738281 64.300781 L 367.738281 78.319336 Z " fill="rgb(0, 0, 0)" fill-opacity="1.000000" />
<path d="M 52.630859 56.596680 Q 52.813477 56.209961 53.095459 56.024658 Q 53.377441 55.839355 53.774902 55.839355 Q 54.500000 55.839355 54.798096 56.400635 Q 55.096191 56.961914 55.096191 58.514160 L 55.096191 62.000000 L 54.193848 62.000000 L 54.193848 58.557129 Q 54.193848 57.284180 54.051514 56.975342 Q 53.909180 56.666504 53.533203 56.666504 Q 53.103516 56.666504 52.945068 56.996826 Q 52.786621 57.327148 52.786621 58.557129 L 52.786621 62.000000 L 51.884277 62.000000 L 51.884277 58.557129 Q 51.884277 57.268066 51.731201 56.967285 Q 51.578125 56.666504 51.180664 56.666504 Q 50.788574 56.666504 50.635498 56.996826 Q 50.482422 57.327148 50.482422 58.557129 L 50.482422 62.000000 L 49.585449 62.000000 L 49.585449 55.984375 L 50.482422 55.984375 L 50.482422 56.500000 Q 50.659668 56.177734 50.925537 56.008545 Q 51.191406 55.839355 51.529785 55.839355 Q 51.937988 55.839355 52.209229 56.027344 Q 52.480469 56.215332 52.630859 56.596680 Z " fill="rgb(0, 0, 0)" fill-opacity="1.000000" />
<path d="M 59.770508 58.976074 L 59.442871 58.976074 Q 58.578125 58.976074 58.140381 59.279541 Q 57.702637 59.583008 57.702637 60.184570 Q 57.702637 60.727051 58.030273 61.027832 Q 58.357910 61.328613 58.937988 61.328613 Q 59.754395 61.328613 60.221680 60.761963 Q 60.688965 60.195312 60.694336 59.196289 L 60.694336 58.976074 Z M 61.687988 58.567871 L 61.687988 62.000000 L 60.694336 62.000000 L 60.694336 61.108398 Q 60.377441 61.645508 59.896729 61.900635 Q 59.416016 62.155762 58.728516 62.155762 Q 57.810059 62.155762 57.262207 61.637451 Q 56.714355 61.119141 56.714355 60.249023 Q 56.714355 59.244629 57.388428 58.723633 Q 58.062500 58.202637 59.367676 58.202637 L 60.694336 58.202637 L 60.694336 58.046875 Q 60.688965 57.327148 60.329102 57.002197 Q 59.969238 56.677246 59.179688 56.677246 Q 58.674805 56.677246 58.159180 56.822266 Q 57.643555 56.967285 57.154785 57.246582 L 57.154785 56.258301 Q 57.702637 56.048828 58.204834 55.944092 Q 58.707031 55.839355 59.179688 55.839355 Q 59.926270 55.839355 60.455322 56.059570 Q 60.984375 56.279785 61.312012 56.720215 Q 61.516113 56.988770 61.602051 57.383545 Q 61.687988 57.778320 61.687988 58.567871 Z " fill="rgb(0, 0, 0)" fill-opacity="1.000000" />
<path d="M 68.698730 61.693848 Q 68.301270 61.924805 67.879639 62.040283 Q 67.458008 62.155762 67.017578 62.155762 Q 65.621094 62.155762 64.834229 61.317871 Q 64.047363 60.479980 64.047363 58.997559 Q 64.047363 57.515137 64.834229 56.677246 Q 65.621094 55.839355 67.017578 55.839355 Q 67.452637 55.839355 67.866211 55.952148 Q 68.279785 56.064941 68.698730 56.301270 L 68.698730 57.337891 Q 68.306641 56.988770 67.911865 56.833008 Q 67.517090 56.677246 67.017578 56.677246 Q 66.088379 56.677246 65.588867 57.278809 Q 65.089355 57.880371 65.089355 58.997559 Q 65.089355 60.109375 65.591553 60.713623 Q 66.093750 61.317871 67.017578 61.317871 Q 67.533203 61.317871 67.941406 61.159424 Q 68.349609 61.000977 68.698730 60.667969 Z " fill="rgb(0, 0, 0)" fill-opacity="1.000000" />
<path d="M 75.226074 56.193848 L 75.226074 57.160645 Q 74.801758 56.913574 74.372070 56.790039 Q 73.942383 56.666504 73.496582 56.666504 Q 72.825195 56.666504 72.494873 56.884033 Q 72.164551 57.101562 72.164551 57.547363 Q 72.164551 57.950195 72.411621 58.148926 Q 72.658691 58.347656 73.641602 58.535645 L 74.039062 58.610840 Q 74.774902 58.750488 75.153564 59.169434 Q 75.532227 59.588379 75.532227 60.259766 Q 75.532227 61.151367 74.898438 61.653564 Q 74.264648 62.155762 73.136719 62.155762 Q 72.690918 62.155762 72.202148 62.061768 Q 71.713379 61.967773 71.144043 61.779785 L 71.144043 60.759277 Q 71.697266 61.043945 72.202148 61.186279 Q 72.707031 61.328613 73.158203 61.328613 Q 73.813477 61.328613 74.173340 61.062744 Q 74.533203 60.796875 74.533203 60.318848 Q 74.533203 59.631348 73.217285 59.368164 L 73.174316 59.357422 L 72.803711 59.282227 Q 71.949707 59.115723 71.557617 58.720947 Q 71.165527 58.326172 71.165527 57.644043 Q 71.165527 56.779297 71.750977 56.309326 Q 72.336426 55.839355 73.421387 55.839355 Q 73.904785 55.839355 74.350586 55.927979 Q 74.796387 56.016602 75.226074 56.193848 Z " fill="rgb(0, 0, 0)" fill-opacity="1.000000" />
<path d="M 100.878906 65.319336 L 100.878906 51.300781 L 101.738281 51.300781 L 101.738281 65.319336 Z " fill="rgb(0, 0, 0)" fill-opacity="1.000000" />
<path d="M 114.878906 65.319336 L 114.878906 51.300781 L 115.738281 51.300781 L 115.738281 65.319336 Z " fill="rgb(0, 0, 0)" fill-opacity="1.000000" />
<path d="M 142.878906 65.319336 L 142.878906 51.300781 L 143.738281 51.300781 L 143.738281 65.319336 Z " fill="rgb(0, 0, 0)" fill-opacity="1.000000" />
<path d="M 156.878906 65.319336 L 156.878906 51.300781 L 157.738281 51.300781 L 157.738281 65.319336 Z " fill="rgb(0, 0, 0)" fill-opacity="1.000000" />
<path d="M 180.226074 56.193848 L 180.226074 57.160645 Q 179.801758 56.913574 179.372070 56.790039 Q 178.942383 56.666504 178.496582 56.666504 Q 177.825195 56.666504 177.494873 56.884033 Q 177.164551 57.101562 177.164551 57.547363 Q 177.164551 57.950195 177.411621 58.148926 Q 177.658691 58.347656 178.641602 58.535645 L 179.039062 58.610840 Q 179.774902 58.750488 180.153564 59.169434 Q 180.532227 59.588379 180.532227 60.259766 Q 180.532227 61.151367 179.898438 61.653564 Q 179.264648 62.155762 178.136719 62.155762 Q 177.690918 62.155762 177.202148 62.061768 Q 176.713379 61.967773 176.144043 61.779785 L 176.144043 60.759277 Q 176.697266 61.043945 177.202148 61.186279 Q 177.707031 61.328613 178.158203 61.328613 Q 178.813477 61.328613 179.173340 61.062744 Q 179.533203 60.796875 179.533203 60.318848 Q 179.533203 59.631348 178.217285 59.368164 L 178.174316 59.357422 L 177.803711 59.282227 Q 176.949707 59.115723 176.557617 58.720947 Q 176.165527 58.326172 176.165527 57.644043 Q 176.165527 56.779297 176.750977 56.309326 Q 177.336426 55.839355 178.421387 55.839355 Q 178.904785 55.839355 179.350586 55.927979 Q 179.796387 56.016602 180.226074 56.193848 Z " fill="rgb(0, 0, 0)" fill-opacity="1.000000" />
<path d="M 188.015625 58.498047 L 188.015625 58.981445 L 183.734863 58.981445 L 183.734863 59.013672 Q 183.691895 60.243652 184.204834 60.780762 Q 184.717773 61.317871 185.652344 61.317871 Q 186.125000 61.317871 186.640625 61.167480 Q 187.156250 61.017090 187.741699 60.710938 L 187.741699 61.693848 Q 187.177734 61.924805 186.654053 62.040283 Q 186.130371 62.155762 185.641602 62.155762 Q 184.239746 62.155762 183.450195 61.315186 Q 182.660645 60.474609 182.660645 58.997559 Q 182.660645 57.558105 183.434082 56.698730 Q 184.207520 55.839355 185.496582 55.839355 Q 186.645996 55.839355 187.309326 56.618164 Q 187.972656 57.396973 188.015625 58.498047 Z M 187.027344 58.208008 Q 186.962891 57.584961 186.573486 57.131104 Q 186.184082 56.677246 185.453613 56.677246 Q 184.739258 56.677246 184.277344 57.149902 Q 183.815430 57.622559 183.772461 58.213379 Z " fill="rgb(0, 0, 0)" fill-opacity="1.000000" />
<path d="M 195.203613 57.225098 Q 194.886719 56.978027 194.559082 56.865234 Q 194.231445 56.752441 193.839355 56.752441 Q 192.915527 56.752441 192.426758 57.332520 Q 191.937988 57.912598 191.937988 59.008301 L 191.937988 62.000000 L 190.944336 62.000000 L 190.944336 55.984375 L 191.937988 55.984375 L 191.937988 57.160645 Q 192.185059 56.521484 192.697998 56.180420 Q 193.210938 55.839355 193.914551 55.839355 Q 194.279785 55.839355 194.596680 55.930664 Q 194.913574 56.021973 195.203613 56.215332 Z " fill="rgb(0, 0, 0)" fill-opacity="1.000000" />
<path d="M 196.537109 55.984375 L 197.562988 55.984375 L 199.308594 61.033203 L 201.059570 55.984375 L 202.085449 55.984375 L 199.947754 62.000000 L 198.674805 62.000000 Z " fill="rgb(0, 0, 0)" fill-opacity="1.000000" />
<path d="M 209.015625 58.498047 L 209.015625 58.981445 L 204.734863 58.981445 L 204.734863 59.013672 Q 204.691895 60.243652 205.204834 60.780762 Q 205.717773 61.317871 206.652344 61.317871 Q 207.125000 61.317871 207.640625 61.167480 Q 208.156250 61.017090 208.741699 60.710938 L 208.741699 61.693848 Q 208.177734 61.924805 207.654053 62.040283 Q 207.130371 62.155762 206.641602 62.155762 Q 205.239746 62.155762 204.450195 61.315186 Q 203.660645 60.474609 203.660645 58.997559 Q 203.660645 57.558105 204.434082 56.698730 Q 205.207520 55.839355 206.496582 55.839355 Q 207.645996 55.839355 208.309326 56.618164 Q 208.972656 57.396973 209.015625 58.498047 Z M 208.027344 58.208008 Q 207.962891 57.584961 207.573486 57.131104 Q 207.184082 56.677246 206.453613 56.677246 Q 205.739258 56.677246 205.277344 57.149902 Q 204.815430 57.622559 204.772461 58.213379 Z " fill="rgb(0, 0, 0)" fill-opacity="1.000000" />
<path d="M 216.203613 57.225098 Q 215.886719 56.978027 215.559082 56.865234 Q 215.231445 56.752441 214.839355 56.752441 Q 213.915527 56.752441 213.426758 57.332520 Q 212.937988 57.912598 212.937988 59.008301 L 212.937988 62.000000 L 211.944336 62.000000 L 211.944336 55.984375 L 212.937988 55.984375 L 212.937988 57.160645 Q 213.185059 56.521484 213.697998 56.180420 Q 214.210938 55.839355 214.914551 55.839355 Q 215.279785 55.839355 215.596680 55.930664 Q 215.913574 56.021973 216.203613 56.215332 Z " fill="rgb(0, 0, 0)" fill-opacity="1.000000" />
<path d="M 240.878906 65.319336 L 240.878906 51.300781 L 241.738281 51.300781 L 241.738281 65.319336 Z " fill="rgb(0, 0, 0)" fill-opacity="1.000000" />
<path d="M 268.878906 65.319336 L 268.878906 51.300781 L 269.738281 51.300781 L 269.738281 65.319336 Z " fill="rgb(0, 0, 0)" fill-opacity="1.000000" />
<path d="M 292.763184 61.715332 Q 292.349609 61.935547 291.914551 62.045654 Q 291.479492 62.155762 290.990723 62.155762 Q 289.449219 62.155762 288.597900 61.065430 Q 287.746582 59.975098 287.746582 57.998535 Q 287.746582 56.032715 288.603271 54.934326 Q 289.459961 53.835938 290.990723 53.835938 Q 291.479492 53.835938 291.914551 53.946045 Q 292.349609 54.056152 292.763184 54.276367 L 292.763184 55.388184 Q 292.365723 55.060547 291.909180 54.888672 Q 291.452637 54.716797 290.990723 54.716797 Q 289.932617 54.716797 289.406250 55.533203 Q 288.879883 56.349609 288.879883 57.998535 Q 288.879883 59.642090 289.406250 60.458496 Q 289.932617 61.274902 290.990723 61.274902 Q 291.463379 61.274902 291.917236 61.103027 Q 292.371094 60.931152 292.763184 60.603516 Z " fill="rgb(0, 0, 0)" fill-opacity="1.000000" />
<path d="M 297.861816 59.824707 Q 297.861816 60.490723 298.106201 60.829102 Q 298.350586 61.167480 298.828613 61.167480 L 299.983398 61.167480 L 299.983398 62.000000 L 298.731934 62.000000 Q 297.845703 62.000000 297.359619 61.433350 Q 296.873535 60.866699 296.873535 59.824707 L 296.873535 54.383789 L 295.289062 54.383789 L 295.289062 53.610352 L 297.861816 53.610352 Z " fill="rgb(0, 0, 0)" fill-opacity="1.000000" />
<path d="M 304.308594 56.677246 Q 303.556641 56.677246 303.169922 57.262695 Q 302.783203 57.848145 302.783203 58.997559 Q 302.783203 60.141602 303.169922 60.729736 Q 303.556641 61.317871 304.308594 61.317871 Q 305.065918 61.317871 305.452637 60.729736 Q 305.839355 60.141602 305.839355 58.997559 Q 305.839355 57.848145 305.452637 57.262695 Q 305.065918 56.677246 304.308594 56.677246 Z M 304.308594 55.839355 Q 305.560059 55.839355 306.223389 56.650391 Q 306.886719 57.461426 306.886719 58.997559 Q 306.886719 60.539062 306.226074 61.347412 Q 305.565430 62.155762 304.308594 62.155762 Q 303.057129 62.155762 302.396484 61.347412 Q 301.735840 60.539062 301.735840 58.997559 Q 301.735840 57.461426 302.396484 56.650391 Q 303.057129 55.839355 304.308594 55.839355 Z " fill="rgb(0, 0, 0)" fill-opacity="1.000000" />
<path d="M 311.222656 62.107422 L 311.222656 56.752441 L 309.520020 56.752441 L 309.520020 55.984375 L 312.210938 55.984375 L 312.210938 62.107422 Q 312.210938 63.154785 311.730225 63.721436 Q 311.249512 64.288086 310.363281 64.288086 L 308.999023 64.288086 L 308.999023 63.450195 L 310.255859 63.450195 Q 310.739258 63.450195 310.980957 63.114502 Q 311.222656 62.778809 311.222656 62.107422 Z M 311.222656 53.642578 L 312.210938 53.642578 L 312.210938 54.894043 L 311.222656 54.894043 Z " fill="rgb(0, 0, 0)" fill-opacity="1.000000" />
<path d="M 316.047363 59.722656 L 316.047363 55.995117 L 317.035645 55.995117 L 317.035645 59.722656 Q 317.035645 60.533691 317.322998 60.915039 Q 317.610352 61.296387 318.211914 61.296387 Q 318.910156 61.296387 319.280762 60.804932 Q 319.651367 60.313477 319.651367 59.395020 L 319.651367 55.995117 L 320.645020 55.995117 L 320.645020 62.000000 L 319.651367 62.000000 L 319.651367 61.097656 Q 319.388184 61.618652 318.934326 61.887207 Q 318.480469 62.155762 317.873535 62.155762 Q 316.949707 62.155762 316.498535 61.551514 Q 316.047363 60.947266 316.047363 59.722656 Z " fill="rgb(0, 0, 0)" fill-opacity="1.000000" />
<path d="M 328.203613 57.225098 Q 327.886719 56.978027 327.559082 56.865234 Q 327.231445 56.752441 326.839355 56.752441 Q 325.915527 56.752441 325.426758 57.332520 Q 324.937988 57.912598 324.937988 59.008301 L 324.937988 62.000000 L 323.944336 62.000000 L 323.944336 55.984375 L 324.937988 55.984375 L 324.937988 57.160645 Q 325.185059 56.521484 325.697998 56.180420 Q 326.210938 55.839355 326.914551 55.839355 Q 327.279785 55.839355 327.596680 55.930664 Q 327.913574 56.021973 328.203613 56.215332 Z " fill="rgb(0, 0, 0)" fill-opacity="1.000000" />
<path d="M 335.015625 58.498047 L 335.015625 58.981445 L 330.734863 58.981445 L 330.734863 59.013672 Q 330.691895 60.243652 331.204834 60.780762 Q 331.717773 61.317871 332.652344 61.317871 Q 333.125000 61.317871 333.640625 61.167480 Q 334.156250 61.017090 334.741699 60.710938 L 334.741699 61.693848 Q 334.177734 61.924805 333.654053 62.040283 Q 333.130371 62.155762 332.641602 62.155762 Q 331.239746 62.155762 330.450195 61.315186 Q 329.660645 60.474609 329.660645 58.997559 Q 329.660645 57.558105 330.434082 56.698730 Q 331.207520 55.839355 332.496582 55.839355 Q 333.645996 55.839355 334.309326 56.618164 Q 334.972656 57.396973 335.015625 58.498047 Z M 334.027344 58.208008 Q 333.962891 57.584961 333.573486 57.131104 Q 333.184082 56.677246 332.453613 56.677246 Q 331.739258 56.677246 331.277344 57.149902 Q 330.815430 57.622559 330.772461 58.213379 Z " fill="rgb(0, 0, 0)" fill-opacity="1.000000" />
<path d="M 352.878906 65.319336 L 352.878906 51.300781 L 353.738281 51.300781 L 353.738281 65.319336 Z " fill="rgb(0, 0, 0)" fill-opacity="1.000000" />
<path d="M 366.878906 65.319336 L 366.878906 51.300781 L 367.738281 51.300781 L 367.738281 65.319336 Z " fill="rgb(0, 0, 0)" fill-opacity="1.000000" />
<path d="M 100.878906 52.319336 L 100.878906 38.300781 L 101.738281 38.300781 L 101.738281 52.319336 Z " fill="rgb(0, 0, 0)" fill-opacity="1.000000" />
<path d="M 114.878906 52.319336 L 114.878906 38.300781 L 115.738281 38.300781 L 115.738281 52.319336 Z " fill="rgb(0, 0, 0)" fill-opacity="1.000000" />
<path d="M 142.878906 52.319336 L 142.878906 38.300781 L 143.738281 38.300781 L 143.738281 52.319336 Z " fill="rgb(0, 0, 0)" fill-opacity="1.000000" />
<path d="M 156.878906 52.319336 L 156.878906 38.300781 L 157.738281 38.300781 L 157.738281 52.319336 Z " fill="rgb(0, 0, 0)" fill-opacity="1.000000" />
<path d="M 187.645020 45.272461 L 187.645020 49.000000 L 186.651367 49.000000 L 186.651367 45.272461 Q 186.651367 44.461426 186.366699 44.080078 Q 186.082031 43.698730 185.475098 43.698730 Q 184.782227 43.698730 184.408936 44.190186 Q 184.035645 44.681641 184.035645 45.600098 L 184.035645 49.000000 L 183.047363 49.000000 L 183.047363 42.984375 L 184.035645 42.984375 L 184.035645 43.886719 Q 184.298828 43.371094 184.750000 43.105225 Q 185.201172 42.839355 185.818848 42.839355 Q 186.737305 42.839355 187.191162 43.443604 Q 187.645020 44.047852 187.645020 45.272461 Z " fill="rgb(0, 0, 0)" fill-opacity="1.000000" />
<path d="M 193.082031 45.213379 Q 193.500977 45.320801 193.796387 45.618896 Q 194.091797 45.916992 194.532227 46.808594 L 195.622559 49.000000 L 194.457031 49.000000 L 193.500977 46.975098 Q 193.087402 46.110352 192.757080 45.860596 Q 192.426758 45.610840 191.895020 45.610840 L 190.858398 45.610840 L 190.858398 49.000000 L 189.768066 49.000000 L 189.768066 40.980957 L 192.002441 40.980957 Q 193.323730 40.980957 194.027344 41.577148 Q 194.730957 42.173340 194.730957 43.301270 Q 194.730957 44.096191 194.298584 44.598389 Q 193.866211 45.100586 193.082031 45.213379 Z M 190.858398 41.872559 L 190.858398 44.719238 L 192.045410 44.719238 Q 192.824219 44.719238 193.205566 44.370117 Q 193.586914 44.020996 193.586914 43.301270 Q 193.586914 42.608398 193.181396 42.240479 Q 192.775879 41.872559 192.002441 41.872559 Z " fill="rgb(0, 0, 0)" fill-opacity="1.000000" />
<path d="M 197.058105 40.980957 L 201.816895 40.980957 L 201.816895 41.894043 L 198.143066 41.894043 L 198.143066 44.053223 L 201.655762 44.053223 L 201.655762 44.966309 L 198.143066 44.966309 L 198.143066 48.086914 L 201.918945 48.086914 L 201.918945 49.000000 L 197.058105 49.000000 Z " fill="rgb(0, 0, 0)" fill-opacity="1.000000" />
<path d="M 205.143066 41.872559 L 205.143066 44.885742 L 206.399902 44.885742 Q 207.151855 44.885742 207.573486 44.488281 Q 207.995117 44.090820 207.995117 43.376465 Q 207.995117 42.662109 207.576172 42.267334 Q 207.157227 41.872559 206.399902 41.872559 Z M 204.058105 40.980957 L 206.399902 40.980957 Q 207.742676 40.980957 208.435547 41.590576 Q 209.128418 42.200195 209.128418 43.376465 Q 209.128418 44.563477 208.438232 45.170410 Q 207.748047 45.777344 206.399902 45.777344 L 205.143066 45.777344 L 205.143066 49.000000 L 204.058105 49.000000 Z " fill="rgb(0, 0, 0)" fill-opacity="1.000000" />
<path d="M 211.154785 40.980957 L 212.245117 40.980957 L 212.245117 48.086914 L 216.117676 48.086914 L 216.117676 49.000000 L 211.154785 49.000000 Z " fill="rgb(0, 0, 0)" fill-opacity="1.000000" />
<path d="M 240.878906 52.319336 L 240.878906 38.300781 L 241.738281 38.300781 L 241.738281 45.412109 L 244.729980 45.412109 L 244.729980 46.335938 L 241.738281 46.335938 L 241.738281 52.319336 Z " fill="rgb(0, 0, 0)" fill-opacity="1.000000" />
<path d="M 244.892578 46.335938 L 244.892578 45.412109 L 251.729980 45.412109 L 251.729980 46.335938 Z " fill="rgb(0, 0, 0)" fill-opacity="1.000000" />
<path d="M 251.892578 46.335938 L 251.892578 45.412109 L 258.729980 45.412109 L 258.729980 46.335938 Z " fill="rgb(0, 0, 0)" fill-opacity="1.000000" />
<path d="M 258.892578 46.335938 L 258.892578 45.412109 L 265.729980 45.412109 L 265.729980 46.335938 Z " fill="rgb(0, 0, 0)" fill-opacity="1.000000" />
<path d="M 266.032227 49.418945 L 266.032227 42.866211 L 272.590332 46.142578 Z " fill="rgb(0, 0, 0)" fill-opacity="1.000000" />
<path d="M 352.878906 52.319336 L 352.878906 38.300781 L 353.738281 38.300781 L 353.738281 52.319336 Z " fill="rgb(0, 0, 0)" fill-opacity="1.000000" />
<path d="M 366.878906 52.319336 L 366.878906 38.300781 L 367.738281 38.300781 L 367.738281 52.319336 Z " fill="rgb(0, 0, 0)" fill-opacity="1.000000" />
<path d="M 20.892578 33.335938 L 20.892578 32.412109 L 27.729980 32.412109 L 27.729980 33.335938 Z " fill="rgb(0, 0, 0)" fill-opacity="1.000000" />
<path d="M 27.892578 33.335938 L 27.892578 32.412109 L 34.729980 32.412109 L 34.729980 33.335938 Z " fill="rgb(0, 0, 0)" fill-opacity="1.000000" />
<path d="M 34.892578 33.335938 L 34.892578 32.412109 L 41.729980 32.412109 L 41.729980 33.335938 Z " fill="rgb(0, 0, 0)" fill-opacity="1.000000" />
<path d="M 41.892578 33.335938 L 41.892578 32.412109 L 48.729980 32.412109 L 48.729980 33.335938 Z " fill="rgb(0, 0, 0)" fill-opacity="1.000000" />
<path d="M 48.892578 33.335938 L 48.892578 32.412109 L 55.729980 32.412109 L 55.729980 33.335938 Z " fill="rgb(0, 0, 0)" fill-opacity="1.000000" />
<path d="M 55.892578 33.335938 L 55.892578 32.412109 L 62.729980 32.412109 L 62.729980 33.335938 Z " fill="rgb(0, 0, 0)" fill-opacity="1.000000" />
<path d="M 62.892578 33.335938 L 62.892578 32.412109 L 69.729980 32.412109 L 69.729980 33.335938 Z " fill="rgb(0, 0, 0)" fill-opacity="1.000000" />
<path d="M 69.892578 33.335938 L 69.892578 32.412109 L 76.729980 32.412109 L 76.729980 33.335938 Z " fill="rgb(0, 0, 0)" fill-opacity="1.000000" />
<path d="M 76.892578 33.335938 L 76.892578 32.412109 L 83.729980 32.412109 L 83.729980 33.335938 Z " fill="rgb(0, 0, 0)" fill-opacity="1.000000" />
<path d="M 83.892578 33.335938 L 83.892578 32.412109 L 90.729980 32.412109 L 90.729980 33.335938 Z " fill="rgb(0, 0, 0)" fill-opacity="1.000000" />
<path d="M 90.892578 33.335938 L 90.892578 32.412109 L 97.729980 32.412109 L 97.729980 33.335938 Z " fill="rgb(0, 0, 0)" fill-opacity="1.000000" />
<path d="M 100.878906 39.319336 L 100.878906 33.335938 L 97.892578 33.335938 L 97.892578 32.412109 L 101.738281 32.412109 L 101.738281 39.319336 Z " fill="rgb(0, 0, 0)" fill-opacity="1.000000" />
<path d="M 114.878906 39.319336 L 114.878906 25.300781 L 115.738281 25.300781 L 115.738281 39.319336 Z " fill="rgb(0, 0, 0)" fill-opacity="1.000000" />
<path d="M 142.878906 39.319336 L 142.878906 25.300781 L 143.738281 25.300781 L 143.738281 39.319336 Z " fill="rgb(0, 0, 0)" fill-opacity="1.000000" />
<path d="M 156.878906 39.319336 L 156.878906 32.412109 L 160.729980 32.412109 L 160.729980 33.335938 L 157.738281 33.335938 L 157.738281 39.319336 Z " fill="rgb(0, 0, 0)" fill-opacity="1.000000" />
<path d="M 160.892578 33.335938 L 160.892578 32.412109 L 167.729980 32.412109 L 167.729980 33.335938 Z " fill="rgb(0, 0, 0)" fill-opacity="1.000000" />
<path d="M 167.892578 33.335938 L 167.892578 32.412109 L 174.729980 32.412109 L 174.729980 33.335938 Z " fill="rgb(0, 0, 0)" fill-opacity="1.000000" />
<path d="M 174.892578 33.335938 L 174.892578 32.412109 L 181.729980 32.412109 L 181.729980 33.335938 Z " fill="rgb(0, 0, 0)" fill-opacity="1.000000" />
<path d="M 181.892578 33.335938 L 181.892578 32.412109 L 188.729980 32.412109 L 188.729980 33.335938 Z " fill="rgb(0, 0, 0)" fill-opacity="1.000000" />
<path d="M 188.892578 33.335938 L 188.892578 32.412109 L 195.729980 32.412109 L 195.729980 33.335938 Z " fill="rgb(0, 0, 0)" fill-opacity="1.000000" />
<path d="M 195.892578 33.335938 L 195.892578 32.412109 L 202.729980 32.412109 L 202.729980 33.335938 Z " fill="rgb(0, 0, 0)" fill-opacity="1.000000" />
<path d="M 202.892578 33.335938 L 202.892578 32.412109 L 209.729980 32.412109 L 209.729980 33.335938 Z " fill="rgb(0, 0, 0)" fill-opacity="1.000000" />
<path d="M 209.892578 33.335938 L 209.892578 32.412109 L 216.729980 32.412109 L 216.729980 33.335938 Z " fill="rgb(0, 0, 0)" fill-opacity="1.000000" />
<path d="M 216.892578 33.335938 L 216.892578 32.412109 L 223.729980 32.412109 L 223.729980 33.335938 Z " fill="rgb(0, 0, 0)" fill-opacity="1.000000" />
<path d="M 223.892578 33.335938 L 223.892578 32.412109 L 230.729980 32.412109 L 230.729980 33.335938 Z " fill="rgb(0, 0, 0)" fill-opacity="1.000000" />
<path d="M 230.892578 33.335938 L 230.892578 32.412109 L 237.729980 32.412109 L 237.729980 33.335938 Z " fill="rgb(0, 0, 0)" fill-opacity="1.000000" />
<path d="M 240.878906 39.319336 L 240.878906 33.335938 L 237.892578 33.335938 L 237.892578 32.412109 L 241.738281 32.412109 L 241.738281 39.319336 Z " fill="rgb(0, 0, 0)" fill-opacity="1.000000" />
<path d="M 268.878906 39.319336 L 268.878906 32.412109 L 272.729980 32.412109 L 272.729980 33.335938 L 269.738281 33.335938 L 269.738281 39.319336 Z " fill="rgb(0, 0, 0)" fill-opacity="1.000000" />
<path d="M 272.892578 33.335938 L 272.892578 32.412109 L 279.729980 32.412109 L 279.729980 33.335938 Z " fill="rgb(0, 0, 0)" fill-opacity="1.000000" />
<path d="M 279.892578 33.335938 L 279.892578 32.412109 L 286.729980 32.412109 L 286.729980 33.335938 Z " fill="rgb(0, 0, 0)" fill-opacity="1.000000" />
<path d="M 286.892578 33.335938 L 286.892578 32.412109 L 293.729980 32.412109 L 293.729980 33.335938 Z " fill="rgb(0, 0, 0)" fill-opacity="1.000000" />
<path d="M 293.892578 33.335938 L 293.892578 32.412109 L 300.729980 32.412109 L 300.729980 33.335938 Z " fill="rgb(0, 0, 0)" fill-opacity="1.000000" />
<path d="M 300.892578 33.335938 L 300.892578 32.412109 L 307.729980 32.412109 L 307.729980 33.335938 Z " fill="rgb(0, 0, 0)" fill-opacity="1.000000" />
<path d="M 307.892578 33.335938 L 307.892578 32.412109 L 314.729980 32.412109 L 314.729980 33.335938 Z " fill="rgb(0, 0, 0)" fill-opacity="1.000000" />
<path d="M 314.892578 33.335938 L 314.892578 32.412109 L 321.729980 32.412109 L 321.729980 33.335938 Z " fill="rgb(0, 0, 0)" fill-opacity="1.000000" />
<path d="M 321.892578 33.335938 L 321.892578 32.412109 L 328.729980 32.412109 L 328.729980 33.335938 Z " fill="rgb(0, 0, 0)" fill-opacity="1.000000" />
<path d="M 328.892578 33.335938 L 328.892578 32.412109 L 335.729980 32.412109 L 335.729980 33.335938 Z " fill="rgb(0, 0, 0)" fill-opacity="1.000000" />
<path d="M 335.892578 33.335938 L 335.892578 32.412109 L 342.729980 32.412109 L 342.729980 33.335938 Z " fill="rgb(0, 0, 0)" fill-opacity="1.000000" />
<path d="M 342.892578 33.335938 L 342.892578 32.412109 L 349.729980 32.412109 L 349.729980 33.335938 Z " fill="rgb(0, 0, 0)" fill-opacity="1.000000" />
<path d="M 352.878906 39.319336 L 352.878906 33.335938 L 349.892578 33.335938 L 349.892578 32.412109 L 353.738281 32.412109 L 353.738281 39.319336 Z " fill="rgb(0, 0, 0)" fill-opacity="1.000000" />
<path d="M 366.878906 39.319336 L 366.878906 25.300781 L 367.738281 25.300781 L 367.738281 39.319336 Z " fill="rgb(0, 0, 0)" fill-opacity="1.000000" />
<path d="M 17.861816 20.824707 Q 17.861816 21.490723 18.106201 21.829102 Q 18.350586 22.167480 18.828613 22.167480 L 19.983398 22.167480 L 19.983398 23.000000 L 18.731934 23.000000 Q 17.845703 23.000000 17.359619 22.433350 Q 16.873535 21.866699 16.873535 20.824707 L 16.873535 15.383789 L 15.289062 15.383789 L 15.289062 14.610352 L 17.861816 14.610352 Z " fill="rgb(0, 0, 0)" fill-opacity="1.000000" />
<path d="M 22.697266 17.005859 L 25.227051 17.005859 L 25.227051 22.231934 L 27.187500 22.231934 L 27.187500 23.000000 L 22.278320 23.000000 L 22.278320 22.231934 L 24.238770 22.231934 L 24.238770 17.773926 L 22.697266 17.773926 Z M 24.238770 14.669434 L 25.227051 14.669434 L 25.227051 15.915527 L 24.238770 15.915527 Z " fill="rgb(0, 0, 0)" fill-opacity="1.000000" />
<path d="M 34.015625 19.498047 L 34.015625 19.981445 L 29.734863 19.981445 L 29.734863 20.013672 Q 29.691895 21.243652 30.204834 21.780762 Q 30.717773 22.317871 31.652344 22.317871 Q 32.125000 22.317871 32.640625 22.167480 Q 33.156250 22.017090 33.741699 21.710938 L 33.741699 22.693848 Q 33.177734 22.924805 32.654053 23.040283 Q 32.130371 23.155762 31.641602 23.155762 Q 30.239746 23.155762 29.450195 22.315186 Q 28.660645 21.474609 28.660645 19.997559 Q 28.660645 18.558105 29.434082 17.698730 Q 30.207520 16.839355 31.496582 16.839355 Q 32.645996 16.839355 33.309326 17.618164 Q 33.972656 18.396973 34.015625 19.498047 Z M 33.027344 19.208008 Q 32.962891 18.584961 32.573486 18.131104 Q 32.184082 17.677246 31.453613 17.677246 Q 30.739258 17.677246 30.277344 18.149902 Q 29.815430 18.622559 29.772461 19.213379 Z " fill="rgb(0, 0, 0)" fill-opacity="1.000000" />
<path d="M 40.645020 19.272461 L 40.645020 23.000000 L 39.651367 23.000000 L 39.651367 19.272461 Q 39.651367 18.461426 39.366699 18.080078 Q 39.082031 17.698730 38.475098 17.698730 Q 37.782227 17.698730 37.408936 18.190186 Q 37.035645 18.681641 37.035645 19.600098 L 37.035645 23.000000 L 36.047363 23.000000 L 36.047363 16.984375 L 37.035645 16.984375 L 37.035645 17.886719 Q 37.298828 17.371094 37.750000 17.105225 Q 38.201172 16.839355 38.818848 16.839355 Q 39.737305 16.839355 40.191162 17.443604 Q 40.645020 18.047852 40.645020 19.272461 Z " fill="rgb(0, 0, 0)" fill-opacity="1.000000" />
<path d="M 45.297852 15.276367 L 45.297852 16.984375 L 47.542969 16.984375 L 47.542969 17.752441 L 45.297852 17.752441 L 45.297852 21.018066 Q 45.297852 21.684082 45.550293 21.947266 Q 45.802734 22.210449 46.431152 22.210449 L 47.542969 22.210449 L 47.542969 23.000000 L 46.334473 23.000000 Q 45.222656 23.000000 44.766113 22.554199 Q 44.309570 22.108398 44.309570 21.018066 L 44.309570 17.752441 L 42.703613 17.752441 L 42.703613 16.984375 L 44.309570 16.984375 L 44.309570 15.276367 Z " fill="rgb(0, 0, 0)" fill-opacity="1.000000" />
<path d="M 114.878906 26.319336 L 114.878906 12.300781 L 115.738281 12.300781 L 115.738281 26.319336 Z " fill="rgb(0, 0, 0)" fill-opacity="1.000000" />
<path d="M 142.878906 26.319336 L 142.878906 12.300781 L 143.738281 12.300781 L 143.738281 26.319336 Z " fill="rgb(0, 0, 0)" fill-opacity="1.000000" />
<path d="M 152.435547 15.254883 L 152.435547 16.355957 Q 151.941406 16.039062 151.444580 15.877930 Q 150.947754 15.716797 150.442871 15.716797 Q 149.674805 15.716797 149.229004 16.073975 Q 148.783203 16.431152 148.783203 17.038086 Q 148.783203 17.569824 149.075928 17.849121 Q 149.368652 18.128418 150.168945 18.316406 L 150.738281 18.445312 Q 151.866211 18.708496 152.381836 19.272461 Q 152.897461 19.836426 152.897461 20.808594 Q 152.897461 21.952637 152.188477 22.554199 Q 151.479492 23.155762 150.125977 23.155762 Q 149.562012 23.155762 148.992676 23.034912 Q 148.423340 22.914062 147.848633 22.672363 L 147.848633 21.517578 Q 148.466309 21.909668 149.016846 22.092285 Q 149.567383 22.274902 150.125977 22.274902 Q 150.947754 22.274902 151.404297 21.906982 Q 151.860840 21.539062 151.860840 20.878418 Q 151.860840 20.276855 151.546631 19.959961 Q 151.232422 19.643066 150.453613 19.471191 L 149.873535 19.336914 Q 148.756348 19.084473 148.251465 18.574219 Q 147.746582 18.063965 147.746582 17.204590 Q 147.746582 16.130371 148.468994 15.483154 Q 149.191406 14.835938 150.389160 14.835938 Q 150.851074 14.835938 151.361328 14.940674 Q 151.871582 15.045410 152.435547 15.254883 Z " fill="rgb(0, 0, 0)" fill-opacity="1.000000" />
<path d="M 160.015625 19.498047 L 160.015625 19.981445 L 155.734863 19.981445 L 155.734863 20.013672 Q 155.691895 21.243652 156.204834 21.780762 Q 156.717773 22.317871 157.652344 22.317871 Q 158.125000 22.317871 158.640625 22.167480 Q 159.156250 22.017090 159.741699 21.710938 L 159.741699 22.693848 Q 159.177734 22.924805 158.654053 23.040283 Q 158.130371 23.155762 157.641602 23.155762 Q 156.239746 23.155762 155.450195 22.315186 Q 154.660645 21.474609 154.660645 19.997559 Q 154.660645 18.558105 155.434082 17.698730 Q 156.207520 16.839355 157.496582 16.839355 Q 158.645996 16.839355 159.309326 17.618164 Q 159.972656 18.396973 160.015625 19.498047 Z M 159.027344 19.208008 Q 158.962891 18.584961 158.573486 18.131104 Q 158.184082 17.677246 157.453613 17.677246 Q 156.739258 17.677246 156.277344 18.149902 Q 155.815430 18.622559 155.772461 19.213379 Z " fill="rgb(0, 0, 0)" fill-opacity="1.000000" />
<path d="M 167.203613 18.225098 Q 166.886719 17.978027 166.559082 17.865234 Q 166.231445 17.752441 165.839355 17.752441 Q 164.915527 17.752441 164.426758 18.332520 Q 163.937988 18.912598 163.937988 20.008301 L 163.937988 23.000000 L 162.944336 23.000000 L 162.944336 16.984375 L 163.937988 16.984375 L 163.937988 18.160645 Q 164.185059 17.521484 164.697998 17.180420 Q 165.210938 16.839355 165.914551 16.839355 Q 166.279785 16.839355 166.596680 16.930664 Q 166.913574 17.021973 167.203613 17.215332 Z " fill="rgb(0, 0, 0)" fill-opacity="1.000000" />
<path d="M 168.537109 16.984375 L 169.562988 16.984375 L 171.308594 22.033203 L 173.059570 16.984375 L 174.085449 16.984375 L 171.947754 23.000000 L 170.674805 23.000000 Z " fill="rgb(0, 0, 0)" fill-opacity="1.000000" />
<path d="M 181.015625 19.498047 L 181.015625 19.981445 L 176.734863 19.981445 L 176.734863 20.013672 Q 176.691895 21.243652 177.204834 21.780762 Q 177.717773 22.317871 178.652344 22.317871 Q 179.125000 22.317871 179.640625 22.167480 Q 180.156250 22.017090 180.741699 21.710938 L 180.741699 22.693848 Q 180.177734 22.924805 179.654053 23.040283 Q 179.130371 23.155762 178.641602 23.155762 Q 177.239746 23.155762 176.450195 22.315186 Q 175.660645 21.474609 175.660645 19.997559 Q 175.660645 18.558105 176.434082 17.698730 Q 177.207520 16.839355 178.496582 16.839355 Q 179.645996 16.839355 180.309326 17.618164 Q 180.972656 18.396973 181.015625 19.498047 Z M 180.027344 19.208008 Q 179.962891 18.584961 179.573486 18.131104 Q 179.184082 17.677246 178.453613 17.677246 Q 177.739258 17.677246 177.277344 18.149902 Q 176.815430 18.622559 176.772461 19.213379 Z " fill="rgb(0, 0, 0)" fill-opacity="1.000000" />
<path d="M 188.203613 18.225098 Q 187.886719 17.978027 187.559082 17.865234 Q 187.231445 17.752441 186.839355 17.752441 Q 185.915527 17.752441 185.426758 18.332520 Q 184.937988 18.912598 184.937988 20.008301 L 184.937988 23.000000 L 183.944336 23.000000 L 183.944336 16.984375 L 184.937988 16.984375 L 184.937988 18.160645 Q 185.185059 17.521484 185.697998 17.180420 Q 186.210938 16.839355 186.914551 16.839355 Q 187.279785 16.839355 187.596680 16.930664 Q 187.913574 17.021973 188.203613 17.215332 Z " fill="rgb(0, 0, 0)" fill-opacity="1.000000" />
<path d="M 366.878906 26.319336 L 366.878906 12.300781 L 367.738281 12.300781 L 367.738281 26.319336 Z " fill="rgb(0, 0, 0)" fill-opacity="1.000000" />
<path d="M 6.892578 7.335938 L 6.892578 6.412109 L 13.729980 6.412109 L 13.729980 7.335938 Z " fill="rgb(0, 0, 0)" fill-opacity="1.000000" />
<path d="M 13.892578 7.335938 L 13.892578 6.412109 L 20.729980 6.412109 L 20.729980 7.335938 Z " fill="rgb(0, 0, 0)" fill-opacity="1.000000" />
<path d="M 20.892578 7.335938 L 20.892578 6.412109 L 27.729980 6.412109 L 27.729980 7.335938 Z " fill="rgb(0, 0, 0)" fill-opacity="1.000000" />
<path d="M 27.892578 7.335938 L 27.892578 6.412109 L 34.729980 6.412109 L 34.729980 7.335938 Z " fill="rgb(0, 0, 0)" fill-opacity="1.000000" />
<path d="M 34.892578 7.335938 L 34.892578 6.412109 L 41.729980 6.412109 L 41.729980 7.335938 Z " fill="rgb(0, 0, 0)" fill-opacity="1.000000" />
<path d="M 41.892578 7.335938 L 41.892578 6.412109 L 48.729980 6.412109 L 48.729980 7.335938 Z " fill="rgb(0, 0, 0)" fill-opacity="1.000000" />
<path d="M 48.892578 7.335938 L 48.892578 6.412109 L 55.729980 6.412109 L 55.729980 7.335938 Z " fill="rgb(0, 0, 0)" fill-opacity="1.000000" />
<path d="M 55.892578 7.335938 L 55.892578 6.412109 L 62.729980 6.412109 L 62.729980 7.335938 Z " fill="rgb(0, 0, 0)" fill-opacity="1.000000" />
<path d="M 62.892578 7.335938 L 62.892578 6.412109 L 69.729980 6.412109 L 69.729980 7.335938 Z " fill="rgb(0, 0, 0)" fill-opacity="1.000000" />
<path d="M 69.892578 7.335938 L 69.892578 6.412109 L 76.729980 6.412109 L 76.729980 7.335938 Z " fill="rgb(0, 0, 0)" fill-opacity="1.000000" />
<path d="M 76.892578 7.335938 L 76.892578 6.412109 L 83.729980 6.412109 L 83.729980 7.335938 Z " fill="rgb(0, 0, 0)" fill-opacity="1.000000" />
<path d="M 83.892578 7.335938 L 83.892578 6.412109 L 90.729980 6.412109 L 90.729980 7.335938 Z " fill="rgb(0, 0, 0)" fill-opacity="1.000000" />
<path d="M 90.892578 7.335938 L 90.892578 6.412109 L 97.729980 6.412109 L 97.729980 7.335938 Z " fill="rgb(0, 0, 0)" fill-opacity="1.000000" />
<path d="M 97.892578 7.335938 L 97.892578 6.412109 L 104.729980 6.412109 L 104.729980 7.335938 Z " fill="rgb(0, 0, 0)" fill-opacity="1.000000" />
<path d="M 104.892578 7.335938 L 104.892578 6.412109 L 111.729980 6.412109 L 111.729980 7.335938 Z " fill="rgb(0, 0, 0)" fill-opacity="1.000000" />
<path d="M 114.878906 13.319336 L 114.878906 7.335938 L 111.892578 7.335938 L 111.892578 6.412109 L 115.738281 6.412109 L 115.738281 13.319336 Z " fill="rgb(0, 0, 0)" fill-opacity="1.000000" />
<path d="M 142.878906 13.319336 L 142.878906 6.412109 L 146.729980 6.412109 L 146.729980 7.335938 L 143.738281 7.335938 L 143.738281 13.319336 Z " fill="rgb(0, 0, 0)" fill-opacity="1.000000" />
<path d="M 146.892578 7.335938 L 146.892578 6.412109 L 153.729980 6.412109 L 153.729980 7.335938 Z " fill="rgb(0, 0, 0)" fill-opacity="1.000000" />
<path d="M 153.892578 7.335938 L 153.892578 6.412109 L 160.729980 6.412109 L 160.729980 7.335938 Z " fill="rgb(0, 0, 0)" fill-opacity="1.000000" />
<path d="M 160.892578 7.335938 L 160.892578 6.412109 L 167.729980 6.412109 L 167.729980 7.335938 Z " fill="rgb(0, 0, 0)" fill-opacity="1.000000" />
<path d="M 167.892578 7.335938 L 167.892578 6.412109 L 174.729980 6.412109 L 174.729980 7.335938 Z " fill="rgb(0, 0, 0)" fill-opacity="1.000000" />
<path d="M 174.892578 7.335938 L 174.892578 6.412109 L 181.729980 6.412109 L 181.729980 7.335938 Z " fill="rgb(0, 0, 0)" fill-opacity="1.000000" />
<path d="M 181.892578 7.335938 L 181.892578 6.412109 L 188.729980 6.412109 L 188.729980 7.335938 Z " fill="rgb(0, 0, 0)" fill-opacity="1.000000" />
<path d="M 188.892578 7.335938 L 188.892578 6.412109 L 195.729980 6.412109 L 195.729980 7.335938 Z " fill="rgb(0, 0, 0)" fill-opacity="1.000000" />
<path d="M 195.892578 7.335938 L 195.892578 6.412109 L 202.729980 6.412109 L 202.729980 7.335938 Z " fill="rgb(0, 0, 0)" fill-opacity="1.000000" />
<path d="M 202.892578 7.335938 L 202.892578 6.412109 L 209.729980 6.412109 L 209.729980 7.335938 Z " fill="rgb(0, 0, 0)" fill-opacity="1.000000" />
<path d="M 209.892578 7.335938 L 209.892578 6.412109 L 216.729980 6.412109 L 216.729980 7.335938 Z " fill="rgb(0, 0, 0)" fill-opacity="1.000000" />
<path d="M 216.892578 7.335938 L 216.892578 6.412109 L 223.729980 6.412109 L 223.729980 7.335938 Z " fill="rgb(0, 0, 0)" fill-opacity="1.000000" />
<path d="M 223.892578 7.335938 L 223.892578 6.412109 L 230.729980 6.412109 L 230.729980 7.335938 Z " fill="rgb(0, 0, 0)" fill-opacity="1.000000" />
<path d="M 230.892578 7.335938 L 230.892578 6.412109 L 237.729980 6.412109 L 237.729980 7.335938 Z " fill="rgb(0, 0, 0)" fill-opacity="1.000000" />
<path d="M 237.892578 7.335938 L 237.892578 6.412109 L 244.729980 6.412109 L 244.729980 7.335938 Z " fill="rgb(0, 0, 0)" fill-opacity="1.000000" />
<path d="M 244.892578 7.335938 L 244.892578 6.412109 L 251.729980 6.412109 L 251.729980 7.335938 Z " fill="rgb(0, 0, 0)" fill-opacity="1.000000" />
<path d="M 251.892578 7.335938 L 251.892578 6.412109 L 258.729980 6.412109 L 258.729980 7.335938 Z " fill="rgb(0, 0, 0)" fill-opacity="1.000000" />
<path d="M 258.892578 7.335938 L 258.892578 6.412109 L 265.729980 6.412109 L 265.729980 7.335938 Z " fill="rgb(0, 0, 0)" fill-opacity="1.000000" />
<path d="M 265.892578 7.335938 L 265.892578 6.412109 L 272.729980 6.412109 L 272.729980 7.335938 Z " fill="rgb(0, 0, 0)" fill-opacity="1.000000" />
<path d="M 272.892578 7.335938 L 272.892578 6.412109 L 279.729980 6.412109 L 279.729980 7.335938 Z " fill="rgb(0, 0, 0)" fill-opacity="1.000000" />
<path d="M 279.892578 7.335938 L 279.892578 6.412109 L 286.729980 6.412109 L 286.729980 7.335938 Z " fill="rgb(0, 0, 0)" fill-opacity="1.000000" />
<path d="M 286.892578 7.335938 L 286.892578 6.412109 L 293.729980 6.412109 L 293.729980 7.335938 Z " fill="rgb(0, 0, 0)" fill-opacity="1.000000" />
<path d="M 293.892578 7.335938 L 293.892578 6.412109 L 300.729980 6.412109 L 300.729980 7.335938 Z " fill="rgb(0, 0, 0)" fill-opacity="1.000000" />
<path d="M 300.892578 7.335938 L 300.892578 6.412109 L 307.729980 6.412109 L 307.729980 7.335938 Z " fill="rgb(0, 0, 0)" fill-opacity="1.000000" />
<path d="M 307.892578 7.335938 L 307.892578 6.412109 L 314.729980 6.412109 L 314.729980 7.335938 Z " fill="rgb(0, 0, 0)" fill-opacity="1.000000" />
<path d="M 314.892578 7.335938 L 314.892578 6.412109 L 321.729980 6.412109 L 321.729980 7.335938 Z " fill="rgb(0, 0, 0)" fill-opacity="1.000000" />
<path d="M 321.892578 7.335938 L 321.892578 6.412109 L 328.729980 6.412109 L 328.729980 7.335938 Z " fill="rgb(0, 0, 0)" fill-opacity="1.000000" />
<path d="M 328.892578 7.335938 L 328.892578 6.412109 L 335.729980 6.412109 L 335.729980 7.335938 Z " fill="rgb(0, 0, 0)" fill-opacity="1.000000" />
<path d="M 335.892578 7.335938 L 335.892578 6.412109 L 342.729980 6.412109 L 342.729980 7.335938 Z " fill="rgb(0, 0, 0)" fill-opacity="1.000000" />
<path d="M 342.892578 7.335938 L 342.892578 6.412109 L 349.729980 6.412109 L 349.729980 7.335938 Z " fill="rgb(0, 0, 0)" fill-opacity="1.000000" />
<path d="M 349.892578 7.335938 L 349.892578 6.412109 L 356.729980 6.412109 L 356.729980 7.335938 Z " fill="rgb(0, 0, 0)" fill-opacity="1.000000" />
<path d="M 356.892578 7.335938 L 356.892578 6.412109 L 363.729980 6.412109 L 363.729980 7.335938 Z " fill="rgb(0, 0, 0)" fill-opacity="1.000000" />
<path d="M 366.878906 13.319336 L 366.878906 7.335938 L 363.892578 7.335938 L 363.892578 6.412109 L 367.738281 6.412109 L 367.738281 13.319336 Z " fill="rgb(0, 0, 0)" fill-opacity="1.000000" />
</svg>