<svg xmlns="http://www.w3.org/2000/svg" version="1.1" width="330" height="66">
<path d="M 2.878906 13.319336 L 2.878906 6.412109 L 6.729980 6.412109 L 6.729980 7.335938 L 3.738281 7.335938 L 3.738281 13.319336 Z " fill="rgb(0, 0, 0)" fill-opacity="1.000000" />
<path d="M 2.878906 26.319336 L 2.878906 12.300781 L 3.738281 12.300781 L 3.738281 26.319336 Z " fill="rgb(0, 0, 0)" fill-opacity="1.000000" />
<path d="M 2.878906 39.319336 L 2.878906 25.300781 L 3.738281 25.300781 L 3.738281 39.319336 Z " fill="rgb(0, 0, 0)" fill-opacity="1.000000" />
<path d="M 2.878906 52.319336 L 2.878906 38.300781 L 3.738281 38.300781 L 3.738281 52.319336 Z " fill="rgb(0, 0, 0)" fill-opacity="1.000000" />
<path d="M 2.878906 59.335938 L 2.878906 51.300781 L 3.738281 51.300781 L 3.738281 58.412109 L 6.729980 58.412109 L 6.729980 59.335938 Z " fill="rgb(0, 0, 0)" fill-opacity="1.000000" />
<path d="M 6.892578 59.335938 L 6.892578 58.412109 L 13.729980 58.412109 L 13.729980 59.335938 Z " fill="rgb(0, 0, 0)" fill-opacity="1.000000" />
<path d="M 13.892578 59.335938 L 13.892578 58.412109 L 20.729980 58.412109 L 20.729980 59.335938 Z " fill="rgb(0, 0, 0)" fill-opacity="1.000000" />
<path d="M 20.892578 59.335938 L 20.892578 58.412109 L 27.729980 58.412109 L 27.729980 59.335938 Z " fill="rgb(0, 0, 0)" fill-opacity="1.000000" />
<path d="M 27.892578 59.335938 L 27.892578 58.412109 L 34.729980 58.412109 L 34.729980 59.335938 Z " fill="rgb(0, 0, 0)" fill-opacity="1.000000" />
<path d="M 34.892578 59.335938 L 34.892578 58.412109 L 41.729980 58.412109 L 41.729980 59.335938 Z " fill="rgb(0, 0, 0)" fill-opacity="1.000000" />
<path d="M 41.892578 59.335938 L 41.892578 58.412109 L 48.729980 58.412109 L 48.729980 59.335938 Z " fill="rgb(0, 0, 0)" fill-opacity="1.000000" />
<path d="M 48.892578 59.335938 L 48.892578 58.412109 L 55.729980 58.412109 L 55.729980 59.335938 Z " fill="rgb(0, 0, 0)" fill-opacity="1.000000" />
<path d="M 55.892578 59.335938 L 55.892578 58.412109 L 62.729980 58.412109 L 62.729980 59.335938 Z " fill="rgb(0, 0, 0)" fill-opacity="1.000000" />
<path d="M 62.892578 59.335938 L 62.892578 58.412109 L 69.729980 58.412109 L 69.729980 59.335938 Z " fill="rgb(0, 0, 0)" fill-opacity="1.000000" />
<path d="M 69.892578 59.335938 L 69.892578 58.412109 L 76.729980 58.412109 L 76.729980 59.335938 Z " fill="rgb(0, 0, 0)" fill-opacity="1.000000" />
<path d="M 76.892578 59.335938 L 76.892578 58.412109 L 79.878906 58.412109 L 79.878906 51.300781 L 80.738281 51.300781 L 80.738281 59.335938 Z " fill="rgb(0, 0, 0)" fill-opacity="1.000000" />
<path d="M 128.878906 59.335938 L 128.878906 51.300781 L 129.738281 51.300781 L 129.738281 58.412109 L 132.729980 58.412109 L 132.729980 59.335938 Z " fill="rgb(0, 0, 0)" fill-opacity="1.000000" />
<path d="M 132.892578 59.335938 L 132.892578 58.412109 L 139.729980 58.412109 L 139.729980 59.335938 Z " fill="rgb(0, 0, 0)" fill-opacity="1.000000" />
<path d="M 139.892578 59.335938 L 139.892578 58.412109 L 146.729980 58.412109 L 146.729980 59.335938 Z " fill="rgb(0, 0, 0)" fill-opacity="1.000000" />
<path d="M 146.892578 59.335938 L 146.892578 58.412109 L 153.729980 58.412109 L 153.729980 59.335938 Z " fill="rgb(0, 0, 0)" fill-opacity="1.000000" />
<path d="M 153.892578 59.335938 L 153.892578 58.412109 L 160.729980 58.412109 L 160.729980 59.335938 Z " fill="rgb(0, 0, 0)" fill-opacity="1.000000" />
<path d="M 160.892578 59.335938 L 160.892578 58.412109 L 167.729980 58.412109 L 167.729980 59.335938 Z " fill="rgb(0, 0, 0)" fill-opacity="1.000000" />
<path d="M 167.892578 59.335938 L 167.892578 58.412109 L 174.729980 58.412109 L 174.729980 59.335938 Z " fill="rgb(0, 0, 0)" fill-opacity="1.000000" />
<path d="M 174.892578 59.335938 L 174.892578 58.412109 L 181.729980 58.412109 L 181.729980 59.335938 Z " fill="rgb(0, 0, 0)" fill-opacity="1.000000" />
<path d="M 181.892578 59.335938 L 181.892578 58.412109 L 188.729980 58.412109 L 188.729980 59.335938 Z " fill="rgb(0, 0, 0)" fill-opacity="1.000000" />
<path d="M 188.892578 59.335938 L 188.892578 58.412109 L 195.729980 58.412109 L 195.729980 59.335938 Z " fill="rgb(0, 0, 0)" fill-opacity="1.000000" />
<path d="M 195.892578 59.335938 L 195.892578 58.412109 L 198.878906 58.412109 L 198.878906 51.300781 L 199.738281 51.300781 L 199.738281 59.335938 Z " fill="rgb(0, 0, 0)" fill-opacity="1.000000" />
<path d="M 254.878906 59.335938 L 254.878906 51.300781 L 255.738281 51.300781 L 255.738281 58.412109 L 258.729980 58.412109 L 258.729980 59.335938 Z " fill="rgb(0, 0, 0)" fill-opacity="1.000000" />
<path d="M 258.892578 59.335938 L 258.892578 58.412109 L 265.729980 58.412109 L 265.729980 59.335938 Z " fill="rgb(0, 0, 0)" fill-opacity="1.000000" />
<path d="M 265.892578 59.335938 L 265.892578 58.412109 L 272.729980 58.412109 L 272.729980 59.335938 Z " fill="rgb(0, 0, 0)" fill-opacity="1.000000" />
<path d="M 272.892578 59.335938 L 272.892578 58.412109 L 279.729980 58.412109 L 279.729980 59.335938 Z " fill="rgb(0, 0, 0)" fill-opacity="1.000000" />
<path d="M 279.892578 59.335938 L 279.892578 58.412109 L 286.729980 58.412109 L 286.729980 59.335938 Z " fill="rgb(0, 0, 0)" fill-opacity="1.000000" />
<path d="M 286.892578 59.335938 L 286.892578 58.412109 L 293.729980 58.412109 L 293.729980 59.335938 Z " fill="rgb(0, 0, 0)" fill-opacity="1.000000" />
<path d="M 293.892578 59.335938 L 293.892578 58.412109 L 300.729980 58.412109 L 300.729980 59.335938 Z " fill="rgb(0, 0, 0)" fill-opacity="1.000000" />
<path d="M 300.892578 59.335938 L 300.892578 58.412109 L 307.729980 58.412109 L 307.729980 59.335938 Z " fill="rgb(0, 0, 0)" fill-opacity="1.000000" />
<path d="M 307.892578 59.335938 L 307.892578 58.412109 L 314.729980 58.412109 L 314.729980 59.335938 Z " fill="rgb(0, 0, 0)" fill-opacity="1.000000" />
<path d="M 314.892578 59.335938 L 314.892578 58.412109 L 321.729980 58.412109 L 321.729980 59.335938 Z " fill="rgb(0, 0, 0)" fill-opacity="1.000000" />
<path d="M 321.892578 59.335938 L 321.892578 58.412109 L 324.878906 58.412109 L 324.878906 51.300781 L 325.738281 51.300781 L 325.738281 59.335938 Z " fill="rgb(0, 0, 0)" fill-opacity="1.000000" />
<path d="M 32.082031 32.213379 Q 32.500977 32.320801 32.796387 32.618896 Q 33.091797 32.916992 33.532227 33.808594 L 34.622559 36.000000 L 33.457031 36.000000 L 32.500977 33.975098 Q 32.087402 33.110352 31.757080 32.860596 Q 31.426758 32.610840 30.895020 32.610840 L 29.858398 32.610840 L 29.858398 36.000000 L 28.768066 36.000000 L 28.768066 27.980957 L 31.002441 27.980957 Q 32.323730 27.980957 33.027344 28.577148 Q 33.730957 29.173340 33.730957 30.301270 Q 33.730957 31.096191 33.298584 31.598389 Q 32.866211 32.100586 32.082031 32.213379 Z M 29.858398 28.872559 L 29.858398 31.719238 L 31.045410 31.719238 Q 31.824219 31.719238 32.205566 31.370117 Q 32.586914 31.020996 32.586914 30.301270 Q 32.586914 29.608398 32.181396 29.240479 Q 31.775879 28.872559 31.002441 28.872559 Z " fill="rgb(0, 0, 0)" fill-opacity="1.000000" />
<path d="M 77.032227 46.142578 L 83.590332 42.866211 L 83.590332 49.418945 Z " fill="rgb(0, 0, 0)" fill-opacity="1.000000" />
<path d="M 83.892578 46.335938 L 83.892578 45.412109 L 90.729980 45.412109 L 90.729980 46.335938 Z " fill="rgb(0, 0, 0)" fill-opacity="1.000000" />
<path d="M 90.892578 46.335938 L 90.892578 45.412109 L 97.729980 45.412109 L 97.729980 46.335938 Z " fill="rgb(0, 0, 0)" fill-opacity="1.000000" />
<path d="M 97.892578 46.335938 L 97.892578 45.412109 L 104.729980 45.412109 L 104.729980 46.335938 Z " fill="rgb(0, 0, 0)" fill-opacity="1.000000" />
<path d="M 104.892578 46.335938 L 104.892578 45.412109 L 111.729980 45.412109 L 111.729980 46.335938 Z " fill="rgb(0, 0, 0)" fill-opacity="1.000000" />
<path d="M 111.892578 46.335938 L 111.892578 45.412109 L 118.729980 45.412109 L 118.729980 46.335938 Z " fill="rgb(0, 0, 0)" fill-opacity="1.000000" />
<path d="M 118.892578 46.335938 L 118.892578 45.412109 L 125.729980 45.412109 L 125.729980 46.335938 Z " fill="rgb(0, 0, 0)" fill-opacity="1.000000" />
<path d="M 128.878906 52.319336 L 128.878906 38.300781 L 129.738281 38.300781 L 129.738281 52.319336 Z " fill="rgb(0, 0, 0)" fill-opacity="1.000000" />
<path d="M 196.032227 46.142578 L 202.590332 42.866211 L 202.590332 49.418945 Z " fill="rgb(0, 0, 0)" fill-opacity="1.000000" />
<path d="M 202.892578 46.335938 L 202.892578 45.412109 L 209.729980 45.412109 L 209.729980 46.335938 Z " fill="rgb(0, 0, 0)" fill-opacity="1.000000" />
<path d="M 209.892578 46.335938 L 209.892578 45.412109 L 216.729980 45.412109 L 216.729980 46.335938 Z " fill="rgb(0, 0, 0)" fill-opacity="1.000000" />
<path d="M 216.892578 46.335938 L 216.892578 45.412109 L 223.729980 45.412109 L 223.729980 46.335938 Z " fill="rgb(0, 0, 0)" fill-opacity="1.000000" />
<path d="M 223.892578 46.335938 L 223.892578 45.412109 L 230.729980 45.412109 L 230.729980 46.335938 Z " fill="rgb(0, 0, 0)" fill-opacity="1.000000" />
<path d="M 230.892578 46.335938 L 230.892578 45.412109 L 237.729980 45.412109 L 237.729980 46.335938 Z " fill="rgb(0, 0, 0)" fill-opacity="1.000000" />
<path d="M 237.892578 46.335938 L 237.892578 45.412109 L 244.729980 45.412109 L 244.729980 46.335938 Z " fill="rgb(0, 0, 0)" fill-opacity="1.000000" />
<path d="M 244.892578 46.335938 L 244.892578 45.412109 L 251.729980 45.412109 L 251.729980 46.335938 Z " fill="rgb(0, 0, 0)" fill-opacity="1.000000" />
<path d="M 254.878906 52.319336 L 254.878906 46.335938 L 251.892578 46.335938 L 251.892578 45.412109 L 254.878906 45.412109 L 254.878906 38.300781 L 255.738281 38.300781 L 255.738281 52.319336 Z " fill="rgb(0, 0, 0)" fill-opacity="1.000000" />
<path d="M 324.878906 52.319336 L 324.878906 38.300781 L 325.738281 38.300781 L 325.738281 52.319336 Z " fill="rgb(0, 0, 0)" fill-opacity="1.000000" />
<path d="M 36.058105 27.980957 L 40.816895 27.980957 L 40.816895 28.894043 L 37.143066 28.894043 L 37.143066 31.053223 L 40.655762 31.053223 L 40.655762 31.966309 L 37.143066 31.966309 L 37.143066 35.086914 L 40.918945 35.086914 L 40.918945 36.000000 L 36.058105 36.000000 Z " fill="rgb(0, 0, 0)" fill-opacity="1.000000" />
<path d="M 44.143066 28.872559 L 44.143066 31.885742 L 45.399902 31.885742 Q 46.151855 31.885742 46.573486 31.488281 Q 46.995117 31.090820 46.995117 30.376465 Q 46.995117 29.662109 46.576172 29.267334 Q 46.157227 28.872559 45.399902 28.872559 Z M 43.058105 27.980957 L 45.399902 27.980957 Q 46.742676 27.980957 47.435547 28.590576 Q 48.128418 29.200195 48.128418 30.376465 Q 48.128418 31.563477 47.438232 32.170410 Q 46.748047 32.777344 45.399902 32.777344 L 44.143066 32.777344 L 44.143066 36.000000 L 43.058105 36.000000 Z " fill="rgb(0, 0, 0)" fill-opacity="1.000000" />
<path d="M 50.154785 27.980957 L 51.245117 27.980957 L 51.245117 35.086914 L 55.117676 35.086914 L 55.117676 36.000000 L 50.154785 36.000000 Z " fill="rgb(0, 0, 0)" fill-opacity="1.000000" />
<path d="M 79.878906 39.319336 L 79.878906 25.300781 L 80.738281 25.300781 L 80.738281 39.319336 Z " fill="rgb(0, 0, 0)" fill-opacity="1.000000" />
<path d="M 128.878906 39.319336 L 128.878906 25.300781 L 129.738281 25.300781 L 129.738281 39.319336 Z " fill="rgb(0, 0, 0)" fill-opacity="1.000000" />
<path d="M 145.763184 35.715332 Q 145.349609 35.935547 144.914551 36.045654 Q 144.479492 36.155762 143.990723 36.155762 Q 142.449219 36.155762 141.597900 35.065430 Q 140.746582 33.975098 140.746582 31.998535 Q 140.746582 30.032715 141.603271 28.934326 Q 142.459961 27.835938 143.990723 27.835938 Q 144.479492 27.835938 144.914551 27.946045 Q 145.349609 28.056152 145.763184 28.276367 L 145.763184 29.388184 Q 145.365723 29.060547 144.909180 28.888672 Q 144.452637 28.716797 143.990723 28.716797 Q 142.932617 28.716797 142.406250 29.533203 Q 141.879883 30.349609 141.879883 31.998535 Q 141.879883 33.642090 142.406250 34.458496 Q 142.932617 35.274902 143.990723 35.274902 Q 144.463379 35.274902 144.917236 35.103027 Q 145.371094 34.931152 145.763184 34.603516 Z " fill="rgb(0, 0, 0)" fill-opacity="1.000000" />
<path d="M 150.861816 33.824707 Q 150.861816 34.490723 151.106201 34.829102 Q 151.350586 35.167480 151.828613 35.167480 L 152.983398 35.167480 L 152.983398 36.000000 L 151.731934 36.000000 Q 150.845703 36.000000 150.359619 35.433350 Q 149.873535 34.866699 149.873535 33.824707 L 149.873535 28.383789 L 148.289062 28.383789 L 148.289062 27.610352 L 150.861816 27.610352 Z " fill="rgb(0, 0, 0)" fill-opacity="1.000000" />
<path d="M 157.308594 30.677246 Q 156.556641 30.677246 156.169922 31.262695 Q 155.783203 31.848145 155.783203 32.997559 Q 155.783203 34.141602 156.169922 34.729736 Q 156.556641 35.317871 157.308594 35.317871 Q 158.065918 35.317871 158.452637 34.729736 Q 158.839355 34.141602 158.839355 32.997559 Q 158.839355 31.848145 158.452637 31.262695 Q 158.065918 30.677246 157.308594 30.677246 Z M 157.308594 29.839355 Q 158.560059 29.839355 159.223389 30.650391 Q 159.886719 31.461426 159.886719 32.997559 Q 159.886719 34.539062 159.226074 35.347412 Q 158.565430 36.155762 157.308594 36.155762 Q 156.057129 36.155762 155.396484 35.347412 Q 154.735840 34.539062 154.735840 32.997559 Q 154.735840 31.461426 155.396484 30.650391 Q 156.057129 29.839355 157.308594 29.839355 Z " fill="rgb(0, 0, 0)" fill-opacity="1.000000" />
<path d="M 164.222656 36.107422 L 164.222656 30.752441 L 162.520020 30.752441 L 162.520020 29.984375 L 165.210938 29.984375 L 165.210938 36.107422 Q 165.210938 37.154785 164.730225 37.721436 Q 164.249512 38.288086 163.363281 38.288086 L 161.999023 38.288086 L 161.999023 37.450195 L 163.255859 37.450195 Q 163.739258 37.450195 163.980957 37.114502 Q 164.222656 36.778809 164.222656 36.107422 Z M 164.222656 27.642578 L 165.210938 27.642578 L 165.210938 28.894043 L 164.222656 28.894043 Z " fill="rgb(0, 0, 0)" fill-opacity="1.000000" />
<path d="M 169.047363 33.722656 L 169.047363 29.995117 L 170.035645 29.995117 L 170.035645 33.722656 Q 170.035645 34.533691 170.322998 34.915039 Q 170.610352 35.296387 171.211914 35.296387 Q 171.910156 35.296387 172.280762 34.804932 Q 172.651367 34.313477 172.651367 33.395020 L 172.651367 29.995117 L 173.645020 29.995117 L 173.645020 36.000000 L 172.651367 36.000000 L 172.651367 35.097656 Q 172.388184 35.618652 171.934326 35.887207 Q 171.480469 36.155762 170.873535 36.155762 Q 169.949707 36.155762 169.498535 35.551514 Q 169.047363 34.947266 169.047363 33.722656 Z " fill="rgb(0, 0, 0)" fill-opacity="1.000000" />
<path d="M 181.203613 31.225098 Q 180.886719 30.978027 180.559082 30.865234 Q 180.231445 30.752441 179.839355 30.752441 Q 178.915527 30.752441 178.426758 31.332520 Q 177.937988 31.912598 177.937988 33.008301 L 177.937988 36.000000 L 176.944336 36.000000 L 176.944336 29.984375 L 177.937988 29.984375 L 177.937988 31.160645 Q 178.185059 30.521484 178.697998 30.180420 Q 179.210938 29.839355 179.914551 29.839355 Q 180.279785 29.839355 180.596680 29.930664 Q 180.913574 30.021973 181.203613 30.215332 Z " fill="rgb(0, 0, 0)" fill-opacity="1.000000" />
<path d="M 188.015625 32.498047 L 188.015625 32.981445 L 183.734863 32.981445 L 183.734863 33.013672 Q 183.691895 34.243652 184.204834 34.780762 Q 184.717773 35.317871 185.652344 35.317871 Q 186.125000 35.317871 186.640625 35.167480 Q 187.156250 35.017090 187.741699 34.710938 L 187.741699 35.693848 Q 187.177734 35.924805 186.654053 36.040283 Q 186.130371 36.155762 185.641602 36.155762 Q 184.239746 36.155762 183.450195 35.315186 Q 182.660645 34.474609 182.660645 32.997559 Q 182.660645 31.558105 183.434082 30.698730 Q 184.207520 29.839355 185.496582 29.839355 Q 186.645996 29.839355 187.309326 30.618164 Q 187.972656 31.396973 188.015625 32.498047 Z M 187.027344 32.208008 Q 186.962891 31.584961 186.573486 31.131104 Q 186.184082 30.677246 185.453613 30.677246 Q 184.739258 30.677246 184.277344 31.149902 Q 183.815430 31.622559 183.772461 32.213379 Z " fill="rgb(0, 0, 0)" fill-opacity="1.000000" />
<path d="M 198.878906 39.319336 L 198.878906 25.300781 L 199.738281 25.300781 L 199.738281 39.319336 Z " fill="rgb(0, 0, 0)" fill-opacity="1.000000" />
<path d="M 254.878906 39.319336 L 254.878906 25.300781 L 255.738281 25.300781 L 255.738281 39.319336 Z " fill="rgb(0, 0, 0)" fill-opacity="1.000000" />
<path d="M 280.585449 35.672363 L 280.585449 34.404785 Q 281.074219 34.839844 281.595215 35.057373 Q 282.116211 35.274902 282.674805 35.274902 Q 283.442871 35.274902 283.746338 34.874756 Q 284.049805 34.474609 284.049805 33.384277 L 284.049805 28.894043 L 282.003418 28.894043 L 282.003418 27.980957 L 285.134766 27.980957 L 285.134766 33.384277 Q 285.134766 34.898926 284.568115 35.527344 Q 284.001465 36.155762 282.674805 36.155762 Q 282.159180 36.155762 281.648926 36.037598 Q 281.138672 35.919434 280.585449 35.672363 Z " fill="rgb(0, 0, 0)" fill-opacity="1.000000" />
<path d="M 290.308594 35.086914 L 292.193848 27.980957 L 293.316406 27.980957 L 290.969238 36.000000 L 289.653320 36.000000 L 287.306152 27.980957 L 288.428711 27.980957 Z " fill="rgb(0, 0, 0)" fill-opacity="1.000000" />
<path d="M 294.193359 28.007812 L 295.643555 28.007812 L 297.029297 32.079102 L 298.425781 28.007812 L 299.881348 28.007812 L 299.881348 36.000000 L 298.876953 36.000000 L 298.876953 28.937012 L 297.448242 33.147949 L 296.626465 33.147949 L 295.192383 28.937012 L 295.192383 36.000000 L 294.193359 36.000000 Z " fill="rgb(0, 0, 0)" fill-opacity="1.000000" />
<path d="M 324.878906 39.319336 L 324.878906 25.300781 L 325.738281 25.300781 L 325.738281 39.319336 Z " fill="rgb(0, 0, 0)" fill-opacity="1.000000" />
<path d="M 79.878906 26.319336 L 79.878906 12.300781 L 80.738281 12.300781 L 80.738281 19.412109 L 83.729980 19.412109 L 83.729980 20.335938 L 80.738281 20.335938 L 80.738281 26.319336 Z " fill="rgb(0, 0, 0)" fill-opacity="1.000000" />
<path d="M 83.892578 20.335938 L 83.892578 19.412109 L 90.729980 19.412109 L 90.729980 20.335938 Z " fill="rgb(0, 0, 0)" fill-opacity="1.000000" />
<path d="M 90.892578 20.335938 L 90.892578 19.412109 L 97.729980 19.412109 L 97.729980 20.335938 Z " fill="rgb(0, 0, 0)" fill-opacity="1.000000" />
<path d="M 97.892578 20.335938 L 97.892578 19.412109 L 104.729980 19.412109 L 104.729980 20.335938 Z " fill="rgb(0, 0, 0)" fill-opacity="1.000000" />
<path d="M 104.892578 20.335938 L 104.892578 19.412109 L 111.729980 19.412109 L 111.729980 20.335938 Z " fill="rgb(0, 0, 0)" fill-opacity="1.000000" />
<path d="M 111.892578 20.335938 L 111.892578 19.412109 L 118.729980 19.412109 L 118.729980 20.335938 Z " fill="rgb(0, 0, 0)" fill-opacity="1.000000" />
<path d="M 118.892578 20.335938 L 118.892578 19.412109 L 125.729980 19.412109 L 125.729980 20.335938 Z " fill="rgb(0, 0, 0)" fill-opacity="1.000000" />
<path d="M 126.032227 23.418945 L 126.032227 16.866211 L 132.590332 20.142578 Z " fill="rgb(0, 0, 0)" fill-opacity="1.000000" />
<path d="M 198.878906 26.319336 L 198.878906 12.300781 L 199.738281 12.300781 L 199.738281 19.412109 L 202.729980 19.412109 L 202.729980 20.335938 L 199.738281 20.335938 L 199.738281 26.319336 Z " fill="rgb(0, 0, 0)" fill-opacity="1.000000" />
<path d="M 202.892578 20.335938 L 202.892578 19.412109 L 209.729980 19.412109 L 209.729980 20.335938 Z " fill="rgb(0, 0, 0)" fill-opacity="1.000000" />
<path d="M 209.892578 20.335938 L 209.892578 19.412109 L 216.729980 19.412109 L 216.729980 20.335938 Z " fill="rgb(0, 0, 0)" fill-opacity="1.000000" />
<path d="M 216.892578 20.335938 L 216.892578 19.412109 L 223.729980 19.412109 L 223.729980 20.335938 Z " fill="rgb(0, 0, 0)" fill-opacity="1.000000" />
<path d="M 223.892578 20.335938 L 223.892578 19.412109 L 230.729980 19.412109 L 230.729980 20.335938 Z " fill="rgb(0, 0, 0)" fill-opacity="1.000000" />
<path d="M 230.892578 20.335938 L 230.892578 19.412109 L 237.729980 19.412109 L 237.729980 20.335938 Z " fill="rgb(0, 0, 0)" fill-opacity="1.000000" />
<path d="M 237.892578 20.335938 L 237.892578 19.412109 L 244.729980 19.412109 L 244.729980 20.335938 Z " fill="rgb(0, 0, 0)" fill-opacity="1.000000" />
<path d="M 244.892578 20.335938 L 244.892578 19.412109 L 251.729980 19.412109 L 251.729980 20.335938 Z " fill="rgb(0, 0, 0)" fill-opacity="1.000000" />
<path d="M 252.032227 23.418945 L 252.032227 16.866211 L 258.590332 20.142578 Z " fill="rgb(0, 0, 0)" fill-opacity="1.000000" />
<path d="M 324.878906 26.319336 L 324.878906 12.300781 L 325.738281 12.300781 L 325.738281 26.319336 Z " fill="rgb(0, 0, 0)" fill-opacity="1.000000" />
<path d="M 6.892578 7.335938 L 6.892578 6.412109 L 13.729980 6.412109 L 13.729980 7.335938 Z " fill="rgb(0, 0, 0)" fill-opacity="1.000000" />
<path d="M 13.892578 7.335938 L 13.892578 6.412109 L 20.729980 6.412109 L 20.729980 7.335938 Z " fill="rgb(0, 0, 0)" fill-opacity="1.000000" />
<path d="M 20.892578 7.335938 L 20.892578 6.412109 L 27.729980 6.412109 L 27.729980 7.335938 Z " fill="rgb(0, 0, 0)" fill-opacity="1.000000" />
<path d="M 27.892578 7.335938 L 27.892578 6.412109 L 34.729980 6.412109 L 34.729980 7.335938 Z " fill="rgb(0, 0, 0)" fill-opacity="1.000000" />
<path d="M 34.892578 7.335938 L 34.892578 6.412109 L 41.729980 6.412109 L 41.729980 7.335938 Z " fill="rgb(0, 0, 0)" fill-opacity="1.000000" />
<path d="M 41.892578 7.335938 L 41.892578 6.412109 L 48.729980 6.412109 L 48.729980 7.335938 Z " fill="rgb(0, 0, 0)" fill-opacity="1.000000" />
<path d="M 48.892578 7.335938 L 48.892578 6.412109 L 55.729980 6.412109 L 55.729980 7.335938 Z " fill="rgb(0, 0, 0)" fill-opacity="1.000000" />
<path d="M 55.892578 7.335938 L 55.892578 6.412109 L 62.729980 6.412109 L 62.729980 7.335938 Z " fill="rgb(0, 0, 0)" fill-opacity="1.000000" />
<path d="M 62.892578 7.335938 L 62.892578 6.412109 L 69.729980 6.412109 L 69.729980 7.335938 Z " fill="rgb(0, 0, 0)" fill-opacity="1.000000" />
<path d="M 69.892578 7.335938 L 69.892578 6.412109 L 76.729980 6.412109 L 76.729980 7.335938 Z " fill="rgb(0, 0, 0)" fill-opacity="1.000000" />
<path d="M 79.878906 13.319336 L 79.878906 7.335938 L 76.892578 7.335938 L 76.892578 6.412109 L 80.738281 6.412109 L 80.738281 13.319336 Z " fill="rgb(0, 0, 0)" fill-opacity="1.000000" />
<path d="M 128.878906 13.319336 L 128.878906 6.412109 L 132.729980 6.412109 L 132.729980 7.335938 L 129.738281 7.335938 L 129.738281 13.319336 Z " fill="rgb(0, 0, 0)" fill-opacity="1.000000" />
<path d="M 132.892578 7.335938 L 132.892578 6.412109 L 139.729980 6.412109 L 139.729980 7.335938 Z " fill="rgb(0, 0, 0)" fill-opacity="1.000000" />
<path d="M 139.892578 7.335938 L 139.892578 6.412109 L 146.729980 6.412109 L 146.729980 7.335938 Z " fill="rgb(0, 0, 0)" fill-opacity="1.000000" />
<path d="M 146.892578 7.335938 L 146.892578 6.412109 L 153.729980 6.412109 L 153.729980 7.335938 Z " fill="rgb(0, 0, 0)" fill-opacity="1.000000" />
<path d="M 153.892578 7.335938 L 153.892578 6.412109 L 160.729980 6.412109 L 160.729980 7.335938 Z " fill="rgb(0, 0, 0)" fill-opacity="1.000000" />
<path d="M 160.892578 7.335938 L 160.892578 6.412109 L 167.729980 6.412109 L 167.729980 7.335938 Z " fill="rgb(0, 0, 0)" fill-opacity="1.000000" />
<path d="M 167.892578 7.335938 L 167.892578 6.412109 L 174.729980 6.412109 L 174.729980 7.335938 Z " fill="rgb(0, 0, 0)" fill-opacity="1.000000" />
<path d="M 174.892578 7.335938 L 174.892578 6.412109 L 181.729980 6.412109 L 181.729980 7.335938 Z " fill="rgb(0, 0, 0)" fill-opacity="1.000000" />
<path d="M 181.892578 7.335938 L 181.892578 6.412109 L 188.729980 6.412109 L 188.729980 7.335938 Z " fill="rgb(0, 0, 0)" fill-opacity="1.000000" />
<path d="M 188.892578 7.335938 L 188.892578 6.412109 L 195.729980 6.412109 L 195.729980 7.335938 Z " fill="rgb(0, 0, 0)" fill-opacity="1.000000" />
<path d="M 198.878906 13.319336 L 198.878906 7.335938 L 195.892578 7.335938 L 195.892578 6.412109 L 199.738281 6.412109 L 199.738281 13.319336 Z " fill="rgb(0, 0, 0)" fill-opacity="1.000000" />
<path d="M 254.878906 13.319336 L 254.878906 6.412109 L 258.729980 6.412109 L 258.729980 7.335938 L 255.738281 7.335938 L 255.738281 13.319336 Z " fill="rgb(0, 0, 0)" fill-opacity="1.000000" />
<path d="M 258.892578 7.335938 L 258.892578 6.412109 L 265.729980 6.412109 L 265.729980 7.335938 Z " fill="rgb(0, 0, 0)" fill-opacity="1.000000" />
<path d="M 265.892578 7.335938 L 265.892578 6.412109 L 272.729980 6.412109 L 272.729980 7.335938 Z " fill="rgb(0, 0, 0)" fill-opacity="1.000000" />
<path d="M 272.892578 7.335938 L 272.892578 6.412109 L 279.729980 6.412109 L 279.729980 7.335938 Z " fill="rgb(0, 0, 0)" fill-opacity="1.000000" />
<path d="M 279.892578 7.335938 L 279.892578 6.412109 L 286.729980 6.412109 L 286.729980 7.335938 Z " fill="rgb(0, 0, 0)" fill-opacity="1.000000" />
<path d="M 286.892578 7.335938 L 286.892578 6.412109 L 293.729980 6.412109 L 293.729980 7.335938 Z " fill="rgb(0, 0, 0)" fill-opacity="1.000000" />
<path d="M 293.892578 7.335938 L 293.892578 6.412109 L 300.729980 6.412109 L 300.729980 7.335938 Z " fill="rgb(0, 0, 0)" fill-opacity="1.000000" />
<path d="M 300.892578 7.335938 L 300.892578 6.412109 L 307.729980 6.412109 L 307.729980 7.335938 Z " fill="rgb(0, 0, 0)" fill-opacity="1.000000" />
<path d="M 307.892578 7.335938 L 307.892578 6.412109 L 314.729980 6.412109 L 314.729980 7.335938 Z " fill="rgb(0, 0, 0)" fill-opacity="1.000000" />
<path d="M 314.892578 7.335938 L 314.892578 6.412109 L 321.729980 6.412109 L 321.729980 7.335938 Z " fill="rgb(0, 0, 0)" fill-opacity="1.000000" />
<path d="M 324.878906 13.319336 L 324.878906 7.335938 L 321.892578 7.335938 L 321.892578 6.412109 L 325.738281 6.412109 L 325.738281 13.319336 Z " fill="rgb(0, 0, 0)" fill-opacity="1.000000" />
</svg>