<svg xmlns="http://www.w3.org/2000/svg" version="1.1" width="274" height="170">
<path d="M 2.878906 78.319336 L 2.878906 71.412109 L 6.729980 71.412109 L 6.729980 72.335938 L 3.738281 72.335938 L 3.738281 78.319336 Z " fill="rgb(0, 0, 0)" fill-opacity="1.000000" />
<path d="M 2.878906 91.319336 L 2.878906 77.300781 L 3.738281 77.300781 L 3.738281 91.319336 Z " fill="rgb(0, 0, 0)" fill-opacity="1.000000" />
<path d="M 2.878906 98.335938 L 2.878906 90.300781 L 3.738281 90.300781 L 3.738281 97.412109 L 6.729980 97.412109 L 6.729980 98.335938 Z " fill="rgb(0, 0, 0)" fill-opacity="1.000000" />
<path d="M 107.878906 143.319336 L 107.878906 136.412109 L 111.729980 136.412109 L 111.729980 137.335938 L 108.738281 137.335938 L 108.738281 143.319336 Z " fill="rgb(0, 0, 0)" fill-opacity="1.000000" />
<path d="M 107.878906 156.319336 L 107.878906 142.300781 L 108.738281 142.300781 L 108.738281 156.319336 Z " fill="rgb(0, 0, 0)" fill-opacity="1.000000" />
<path d="M 107.878906 163.335938 L 107.878906 155.300781 L 108.738281 155.300781 L 108.738281 162.412109 L 111.729980 162.412109 L 111.729980 163.335938 Z " fill="rgb(0, 0, 0)" fill-opacity="1.000000" />
<path d="M 111.892578 163.335938 L 111.892578 162.412109 L 118.729980 162.412109 L 118.729980 163.335938 Z " fill="rgb(0, 0, 0)" fill-opacity="1.000000" />
<path d="M 118.892578 163.335938 L 118.892578 162.412109 L 125.729980 162.412109 L 125.729980 163.335938 Z " fill="rgb(0, 0, 0)" fill-opacity="1.000000" />
<path d="M 125.892578 163.335938 L 125.892578 162.412109 L 132.729980 162.412109 L 132.729980 163.335938 Z " fill="rgb(0, 0, 0)" fill-opacity="1.000000" />
<path d="M 132.892578 163.335938 L 132.892578 162.412109 L 139.729980 162.412109 L 139.729980 163.335938 Z " fill="rgb(0, 0, 0)" fill-opacity="1.000000" />
<path d="M 139.892578 163.335938 L 139.892578 162.412109 L 146.729980 162.412109 L 146.729980 163.335938 Z " fill="rgb(0, 0, 0)" fill-opacity="1.000000" />
<path d="M 146.892578 163.335938 L 146.892578 162.412109 L 153.729980 162.412109 L 153.729980 163.335938 Z " fill="rgb(0, 0, 0)" fill-opacity="1.000000" />
<path d="M 153.892578 163.335938 L 153.892578 162.412109 L 160.729980 162.412109 L 160.729980 163.335938 Z " fill="rgb(0, 0, 0)" fill-opacity="1.000000" />
<path d="M 160.892578 163.335938 L 160.892578 162.412109 L 163.878906 162.412109 L 163.878906 155.300781 L 164.738281 155.300781 L 164.738281 163.335938 Z " fill="rgb(0, 0, 0)" fill-opacity="1.000000" />
<path d="M 134.450195 152.092285 L 136.136719 152.092285 L 136.136719 146.033691 L 134.117188 147.005859 L 134.117188 145.963867 L 136.125977 145.007812 L 137.210938 145.007812 L 137.210938 152.092285 L 138.875977 152.092285 L 138.875977 153.000000 L 134.450195 153.000000 Z " fill="rgb(0, 0, 0)" fill-opacity="1.000000" />
<path d="M 163.878906 156.319336 L 163.878906 142.300781 L 164.738281 142.300781 L 164.738281 156.319336 Z " fill="rgb(0, 0, 0)" fill-opacity="1.000000" />
<path d="M 111.892578 137.335938 L 111.892578 136.412109 L 118.729980 136.412109 L 118.729980 137.335938 Z " fill="rgb(0, 0, 0)" fill-opacity="1.000000" />
<path d="M 118.892578 137.335938 L 118.892578 136.412109 L 125.729980 136.412109 L 125.729980 137.335938 Z " fill="rgb(0, 0, 0)" fill-opacity="1.000000" />
<path d="M 125.892578 137.335938 L 125.892578 136.412109 L 132.729980 136.412109 L 132.729980 137.335938 Z " fill="rgb(0, 0, 0)" fill-opacity="1.000000" />
<path d="M 132.892578 137.335938 L 132.892578 136.412109 L 139.729980 136.412109 L 139.729980 137.335938 Z " fill="rgb(0, 0, 0)" fill-opacity="1.000000" />
<path d="M 139.892578 137.335938 L 139.892578 136.412109 L 146.729980 136.412109 L 146.729980 137.335938 Z " fill="rgb(0, 0, 0)" fill-opacity="1.000000" />
<path d="M 146.892578 137.335938 L 146.892578 136.412109 L 153.729980 136.412109 L 153.729980 137.335938 Z " fill="rgb(0, 0, 0)" fill-opacity="1.000000" />
<path d="M 153.892578 137.335938 L 153.892578 136.412109 L 160.729980 136.412109 L 160.729980 137.335938 Z " fill="rgb(0, 0, 0)" fill-opacity="1.000000" />
<path d="M 163.878906 143.319336 L 163.878906 137.335938 L 160.892578 137.335938 L 160.892578 136.412109 L 164.738281 136.412109 L 164.738281 143.319336 Z " fill="rgb(0, 0, 0)" fill-opacity="1.000000" />
<path d="M 135.878906 117.319336 L 135.878906 103.300781 L 136.738281 103.300781 L 136.738281 117.319336 Z " fill="rgb(0, 0, 0)" fill-opacity="1.000000" />
<path d="M 136.308594 127.418945 L 133.032227 120.866211 L 139.590332 120.866211 Z " fill="rgb(0, 0, 0)" fill-opacity="1.000000" />
<path d="M 6.892578 98.335938 L 6.892578 97.412109 L 13.729980 97.412109 L 13.729980 98.335938 Z " fill="rgb(0, 0, 0)" fill-opacity="1.000000" />
<path d="M 13.892578 98.335938 L 13.892578 97.412109 L 20.729980 97.412109 L 20.729980 98.335938 Z " fill="rgb(0, 0, 0)" fill-opacity="1.000000" />
<path d="M 20.892578 98.335938 L 20.892578 97.412109 L 27.729980 97.412109 L 27.729980 98.335938 Z " fill="rgb(0, 0, 0)" fill-opacity="1.000000" />
<path d="M 27.892578 98.335938 L 27.892578 97.412109 L 34.729980 97.412109 L 34.729980 98.335938 Z " fill="rgb(0, 0, 0)" fill-opacity="1.000000" />
<path d="M 34.892578 98.335938 L 34.892578 97.412109 L 41.729980 97.412109 L 41.729980 98.335938 Z " fill="rgb(0, 0, 0)" fill-opacity="1.000000" />
<path d="M 41.892578 98.335938 L 41.892578 97.412109 L 48.729980 97.412109 L 48.729980 98.335938 Z " fill="rgb(0, 0, 0)" fill-opacity="1.000000" />
<path d="M 48.892578 98.335938 L 48.892578 97.412109 L 55.729980 97.412109 L 55.729980 98.335938 Z " fill="rgb(0, 0, 0)" fill-opacity="1.000000" />
<path d="M 55.892578 98.335938 L 55.892578 97.412109 L 58.878906 97.412109 L 58.878906 90.300781 L 59.738281 90.300781 L 59.738281 98.335938 Z " fill="rgb(0, 0, 0)" fill-opacity="1.000000" />
<path d="M 93.449219 98.797852 L 93.449219 90.300781 L 95.167969 90.300781 L 95.167969 96.950195 L 97.729980 96.950195 L 97.729980 98.797852 Z " fill="rgb(0, 0, 0)" fill-opacity="1.000000" />
<path d="M 97.892578 98.797852 L 97.892578 96.950195 L 104.729980 96.950195 L 104.729980 98.797852 Z " fill="rgb(0, 0, 0)" fill-opacity="1.000000" />
<path d="M 104.892578 98.797852 L 104.892578 96.950195 L 111.729980 96.950195 L 111.729980 98.797852 Z " fill="rgb(0, 0, 0)" fill-opacity="1.000000" />
<path d="M 111.892578 98.797852 L 111.892578 96.950195 L 118.729980 96.950195 L 118.729980 98.797852 Z " fill="rgb(0, 0, 0)" fill-opacity="1.000000" />
<path d="M 118.892578 98.797852 L 118.892578 96.950195 L 125.729980 96.950195 L 125.729980 98.797852 Z " fill="rgb(0, 0, 0)" fill-opacity="1.000000" />
<path d="M 125.892578 98.797852 L 125.892578 96.950195 L 132.729980 96.950195 L 132.729980 98.797852 Z " fill="rgb(0, 0, 0)" fill-opacity="1.000000" />
<path d="M 132.892578 98.797852 L 132.892578 96.950195 L 139.729980 96.950195 L 139.729980 98.797852 Z " fill="rgb(0, 0, 0)" fill-opacity="1.000000" />
<path d="M 139.892578 98.797852 L 139.892578 96.950195 L 146.729980 96.950195 L 146.729980 98.797852 Z " fill="rgb(0, 0, 0)" fill-opacity="1.000000" />
<path d="M 146.892578 98.797852 L 146.892578 96.950195 L 153.729980 96.950195 L 153.729980 98.797852 Z " fill="rgb(0, 0, 0)" fill-opacity="1.000000" />
<path d="M 153.892578 98.797852 L 153.892578 96.950195 L 160.729980 96.950195 L 160.729980 98.797852 Z " fill="rgb(0, 0, 0)" fill-opacity="1.000000" />
<path d="M 160.892578 98.797852 L 160.892578 96.950195 L 167.729980 96.950195 L 167.729980 98.797852 Z " fill="rgb(0, 0, 0)" fill-opacity="1.000000" />
<path d="M 167.892578 98.797852 L 167.892578 96.950195 L 174.729980 96.950195 L 174.729980 98.797852 Z " fill="rgb(0, 0, 0)" fill-opacity="1.000000" />
<path d="M 174.892578 98.797852 L 174.892578 96.950195 L 177.449219 96.950195 L 177.449219 90.300781 L 179.167969 90.300781 L 179.167969 98.797852 Z " fill="rgb(0, 0, 0)" fill-opacity="1.000000" />
<path d="M 212.878906 98.335938 L 212.878906 90.300781 L 213.738281 90.300781 L 213.738281 97.412109 L 216.729980 97.412109 L 216.729980 98.335938 Z " fill="rgb(0, 0, 0)" fill-opacity="1.000000" />
<path d="M 216.892578 98.335938 L 216.892578 97.412109 L 223.729980 97.412109 L 223.729980 98.335938 Z " fill="rgb(0, 0, 0)" fill-opacity="1.000000" />
<path d="M 223.892578 98.335938 L 223.892578 97.412109 L 230.729980 97.412109 L 230.729980 98.335938 Z " fill="rgb(0, 0, 0)" fill-opacity="1.000000" />
<path d="M 230.892578 98.335938 L 230.892578 97.412109 L 237.729980 97.412109 L 237.729980 98.335938 Z " fill="rgb(0, 0, 0)" fill-opacity="1.000000" />
<path d="M 237.892578 98.335938 L 237.892578 97.412109 L 244.729980 97.412109 L 244.729980 98.335938 Z " fill="rgb(0, 0, 0)" fill-opacity="1.000000" />
<path d="M 244.892578 98.335938 L 244.892578 97.412109 L 251.729980 97.412109 L 251.729980 98.335938 Z " fill="rgb(0, 0, 0)" fill-opacity="1.000000" />
<path d="M 251.892578 98.335938 L 251.892578 97.412109 L 258.729980 97.412109 L 258.729980 98.335938 Z " fill="rgb(0, 0, 0)" fill-opacity="1.000000" />
<path d="M 258.892578 98.335938 L 258.892578 97.412109 L 265.729980 97.412109 L 265.729980 98.335938 Z " fill="rgb(0, 0, 0)" fill-opacity="1.000000" />
<path d="M 265.892578 98.335938 L 265.892578 97.412109 L 268.878906 97.412109 L 268.878906 90.300781 L 269.738281 90.300781 L 269.738281 98.335938 Z " fill="rgb(0, 0, 0)" fill-opacity="1.000000" />
<path d="M 26.645020 84.272461 L 26.645020 88.000000 L 25.651367 88.000000 L 25.651367 84.272461 Q 25.651367 83.461426 25.366699 83.080078 Q 25.082031 82.698730 24.475098 82.698730 Q 23.782227 82.698730 23.408936 83.190186 Q 23.035645 83.681641 23.035645 84.600098 L 23.035645 88.000000 L 22.047363 88.000000 L 22.047363 81.984375 L 23.035645 81.984375 L 23.035645 82.886719 Q 23.298828 82.371094 23.750000 82.105225 Q 24.201172 81.839355 24.818848 81.839355 Q 25.737305 81.839355 26.191162 82.443604 Q 26.645020 83.047852 26.645020 84.272461 Z " fill="rgb(0, 0, 0)" fill-opacity="1.000000" />
<path d="M 29.697266 82.005859 L 32.227051 82.005859 L 32.227051 87.231934 L 34.187500 87.231934 L 34.187500 88.000000 L 29.278320 88.000000 L 29.278320 87.231934 L 31.238770 87.231934 L 31.238770 82.773926 L 29.697266 82.773926 Z M 31.238770 79.669434 L 32.227051 79.669434 L 32.227051 80.915527 L 31.238770 80.915527 Z " fill="rgb(0, 0, 0)" fill-opacity="1.000000" />
<path d="M 38.861816 85.824707 Q 38.861816 86.490723 39.106201 86.829102 Q 39.350586 87.167480 39.828613 87.167480 L 40.983398 87.167480 L 40.983398 88.000000 L 39.731934 88.000000 Q 38.845703 88.000000 38.359619 87.433350 Q 37.873535 86.866699 37.873535 85.824707 L 37.873535 80.383789 L 36.289062 80.383789 L 36.289062 79.610352 L 38.861816 79.610352 Z " fill="rgb(0, 0, 0)" fill-opacity="1.000000" />
<path d="M 58.878906 91.319336 L 58.878906 77.300781 L 59.738281 77.300781 L 59.738281 91.319336 Z " fill="rgb(0, 0, 0)" fill-opacity="1.000000" />
<path d="M 63.032227 85.142578 L 69.590332 81.866211 L 69.590332 88.418945 Z " fill="rgb(0, 0, 0)" fill-opacity="1.000000" />
<path d="M 69.892578 85.335938 L 69.892578 84.412109 L 76.729980 84.412109 L 76.729980 85.335938 Z " fill="rgb(0, 0, 0)" fill-opacity="1.000000" />
<path d="M 76.892578 85.335938 L 76.892578 84.412109 L 83.729980 84.412109 L 83.729980 85.335938 Z " fill="rgb(0, 0, 0)" fill-opacity="1.000000" />
<path d="M 83.892578 85.335938 L 83.892578 84.412109 L 90.729980 84.412109 L 90.729980 85.335938 Z " fill="rgb(0, 0, 0)" fill-opacity="1.000000" />
<path d="M 93.449219 91.319336 L 93.449219 77.300781 L 95.167969 77.300781 L 95.167969 91.319336 Z " fill="rgb(0, 0, 0)" fill-opacity="1.000000" />
<path d="M 101.023926 79.105469 L 103.301270 79.105469 L 103.301270 79.873535 L 102.012207 79.873535 L 102.012207 88.145020 L 103.301270 88.145020 L 103.301270 88.913086 L 101.023926 88.913086 Z " fill="rgb(0, 0, 0)" fill-opacity="1.000000" />
<path d="M 106.450195 87.092285 L 108.136719 87.092285 L 108.136719 81.033691 L 106.117188 82.005859 L 106.117188 80.963867 L 108.125977 80.007812 L 109.210938 80.007812 L 109.210938 87.092285 L 110.875977 87.092285 L 110.875977 88.000000 L 106.450195 88.000000 Z " fill="rgb(0, 0, 0)" fill-opacity="1.000000" />
<path d="M 122.023926 79.105469 L 124.301270 79.105469 L 124.301270 79.873535 L 123.012207 79.873535 L 123.012207 88.145020 L 124.301270 88.145020 L 124.301270 88.913086 L 122.023926 88.913086 Z " fill="rgb(0, 0, 0)" fill-opacity="1.000000" />
<path d="M 128.003418 87.086914 L 131.687988 87.086914 L 131.687988 88.000000 L 126.816406 88.000000 L 126.816406 87.086914 Q 127.820801 86.028809 128.572754 85.217773 Q 129.324707 84.406738 129.609375 84.073730 Q 130.146484 83.418457 130.334473 83.012939 Q 130.522461 82.607422 130.522461 82.183105 Q 130.522461 81.511719 130.127686 81.130371 Q 129.732910 80.749023 129.045410 80.749023 Q 128.556641 80.749023 128.019531 80.926270 Q 127.482422 81.103516 126.880859 81.463379 L 126.880859 80.367676 Q 127.434082 80.104492 127.968506 79.970215 Q 128.502930 79.835938 129.023926 79.835938 Q 130.200195 79.835938 130.917236 80.461670 Q 131.634277 81.087402 131.634277 82.102539 Q 131.634277 82.618164 131.395264 83.133789 Q 131.156250 83.649414 130.619141 84.272461 Q 130.318359 84.621582 129.746338 85.239258 Q 129.174316 85.856934 128.003418 87.086914 Z " fill="rgb(0, 0, 0)" fill-opacity="1.000000" />
<path d="M 144.167969 83.708496 Q 144.957520 83.917969 145.376465 84.452393 Q 145.795410 84.986816 145.795410 85.787109 Q 145.795410 86.893555 145.051514 87.524658 Q 144.307617 88.155762 142.991699 88.155762 Q 142.438477 88.155762 141.863770 88.053711 Q 141.289062 87.951660 140.735840 87.758301 L 140.735840 86.678711 Q 141.283691 86.963379 141.815430 87.103027 Q 142.347168 87.242676 142.873535 87.242676 Q 143.765137 87.242676 144.243164 86.839844 Q 144.721191 86.437012 144.721191 85.679688 Q 144.721191 84.981445 144.243164 84.570557 Q 143.765137 84.159668 142.948730 84.159668 L 142.121582 84.159668 L 142.121582 83.268066 L 142.948730 83.268066 Q 143.695312 83.268066 144.114258 82.940430 Q 144.533203 82.612793 144.533203 82.027344 Q 144.533203 81.409668 144.143799 81.079346 Q 143.754395 80.749023 143.034668 80.749023 Q 142.556641 80.749023 142.046387 80.856445 Q 141.536133 80.963867 140.977539 81.178711 L 140.977539 80.179688 Q 141.627441 80.007812 142.135010 79.921875 Q 142.642578 79.835938 143.034668 79.835938 Q 144.205566 79.835938 144.906494 80.424072 Q 145.607422 81.012207 145.607422 81.984375 Q 145.607422 82.645020 145.239502 83.085449 Q 144.871582 83.525879 144.167969 83.708496 Z " fill="rgb(0, 0, 0)" fill-opacity="1.000000" />
<path d="M 150.867188 79.105469 L 150.867188 88.913086 L 148.589844 88.913086 L 148.589844 88.145020 L 149.878906 88.145020 L 149.878906 79.873535 L 148.589844 79.873535 L 148.589844 79.105469 Z " fill="rgb(0, 0, 0)" fill-opacity="1.000000" />
<path d="M 164.947754 80.969238 L 162.417969 85.207031 L 164.947754 85.207031 Z M 164.770508 79.980957 L 166.027344 79.980957 L 166.027344 85.207031 L 167.096191 85.207031 L 167.096191 86.087891 L 166.027344 86.087891 L 166.027344 88.000000 L 164.947754 88.000000 L 164.947754 86.087891 L 161.547852 86.087891 L 161.547852 85.062012 Z " fill="rgb(0, 0, 0)" fill-opacity="1.000000" />
<path d="M 171.867188 79.105469 L 171.867188 88.913086 L 169.589844 88.913086 L 169.589844 88.145020 L 170.878906 88.145020 L 170.878906 79.873535 L 169.589844 79.873535 L 169.589844 79.105469 Z " fill="rgb(0, 0, 0)" fill-opacity="1.000000" />
<path d="M 177.449219 91.319336 L 177.449219 77.300781 L 179.167969 77.300781 L 179.167969 91.319336 Z " fill="rgb(0, 0, 0)" fill-opacity="1.000000" />
<path d="M 181.892578 85.335938 L 181.892578 84.412109 L 188.729980 84.412109 L 188.729980 85.335938 Z " fill="rgb(0, 0, 0)" fill-opacity="1.000000" />
<path d="M 188.892578 85.335938 L 188.892578 84.412109 L 195.729980 84.412109 L 195.729980 85.335938 Z " fill="rgb(0, 0, 0)" fill-opacity="1.000000" />
<path d="M 195.892578 85.335938 L 195.892578 84.412109 L 202.729980 84.412109 L 202.729980 85.335938 Z " fill="rgb(0, 0, 0)" fill-opacity="1.000000" />
<path d="M 203.032227 88.418945 L 203.032227 81.866211 L 209.590332 85.142578 Z " fill="rgb(0, 0, 0)" fill-opacity="1.000000" />
<path d="M 212.878906 91.319336 L 212.878906 77.300781 L 213.738281 77.300781 L 213.738281 91.319336 Z " fill="rgb(0, 0, 0)" fill-opacity="1.000000" />
<path d="M 236.645020 84.272461 L 236.645020 88.000000 L 235.651367 88.000000 L 235.651367 84.272461 Q 235.651367 83.461426 235.366699 83.080078 Q 235.082031 82.698730 234.475098 82.698730 Q 233.782227 82.698730 233.408936 83.190186 Q 233.035645 83.681641 233.035645 84.600098 L 233.035645 88.000000 L 232.047363 88.000000 L 232.047363 81.984375 L 233.035645 81.984375 L 233.035645 82.886719 Q 233.298828 82.371094 233.750000 82.105225 Q 234.201172 81.839355 234.818848 81.839355 Q 235.737305 81.839355 236.191162 82.443604 Q 236.645020 83.047852 236.645020 84.272461 Z " fill="rgb(0, 0, 0)" fill-opacity="1.000000" />
<path d="M 239.697266 82.005859 L 242.227051 82.005859 L 242.227051 87.231934 L 244.187500 87.231934 L 244.187500 88.000000 L 239.278320 88.000000 L 239.278320 87.231934 L 241.238770 87.231934 L 241.238770 82.773926 L 239.697266 82.773926 Z M 241.238770 79.669434 L 242.227051 79.669434 L 242.227051 80.915527 L 241.238770 80.915527 Z " fill="rgb(0, 0, 0)" fill-opacity="1.000000" />
<path d="M 248.861816 85.824707 Q 248.861816 86.490723 249.106201 86.829102 Q 249.350586 87.167480 249.828613 87.167480 L 250.983398 87.167480 L 250.983398 88.000000 L 249.731934 88.000000 Q 248.845703 88.000000 248.359619 87.433350 Q 247.873535 86.866699 247.873535 85.824707 L 247.873535 80.383789 L 246.289062 80.383789 L 246.289062 79.610352 L 248.861816 79.610352 Z " fill="rgb(0, 0, 0)" fill-opacity="1.000000" />
<path d="M 268.878906 91.319336 L 268.878906 77.300781 L 269.738281 77.300781 L 269.738281 91.319336 Z " fill="rgb(0, 0, 0)" fill-opacity="1.000000" />
<path d="M 6.892578 72.335938 L 6.892578 71.412109 L 13.729980 71.412109 L 13.729980 72.335938 Z " fill="rgb(0, 0, 0)" fill-opacity="1.000000" />
<path d="M 13.892578 72.335938 L 13.892578 71.412109 L 20.729980 71.412109 L 20.729980 72.335938 Z " fill="rgb(0, 0, 0)" fill-opacity="1.000000" />
<path d="M 20.892578 72.335938 L 20.892578 71.412109 L 27.729980 71.412109 L 27.729980 72.335938 Z " fill="rgb(0, 0, 0)" fill-opacity="1.000000" />
<path d="M 27.892578 72.335938 L 27.892578 71.412109 L 34.729980 71.412109 L 34.729980 72.335938 Z " fill="rgb(0, 0, 0)" fill-opacity="1.000000" />
<path d="M 34.892578 72.335938 L 34.892578 71.412109 L 41.729980 71.412109 L 41.729980 72.335938 Z " fill="rgb(0, 0, 0)" fill-opacity="1.000000" />
<path d="M 41.892578 72.335938 L 41.892578 71.412109 L 48.729980 71.412109 L 48.729980 72.335938 Z " fill="rgb(0, 0, 0)" fill-opacity="1.000000" />
<path d="M 48.892578 72.335938 L 48.892578 71.412109 L 55.729980 71.412109 L 55.729980 72.335938 Z " fill="rgb(0, 0, 0)" fill-opacity="1.000000" />
<path d="M 58.878906 78.319336 L 58.878906 72.335938 L 55.892578 72.335938 L 55.892578 71.412109 L 59.738281 71.412109 L 59.738281 78.319336 Z " fill="rgb(0, 0, 0)" fill-opacity="1.000000" />
<path d="M 93.449219 78.319336 L 93.449219 70.950195 L 97.729980 70.950195 L 97.729980 72.797852 L 95.167969 72.797852 L 95.167969 78.319336 Z " fill="rgb(0, 0, 0)" fill-opacity="1.000000" />
<path d="M 97.892578 72.797852 L 97.892578 70.950195 L 104.729980 70.950195 L 104.729980 72.797852 Z " fill="rgb(0, 0, 0)" fill-opacity="1.000000" />
<path d="M 104.892578 72.797852 L 104.892578 70.950195 L 111.729980 70.950195 L 111.729980 72.797852 Z " fill="rgb(0, 0, 0)" fill-opacity="1.000000" />
<path d="M 111.892578 72.797852 L 111.892578 70.950195 L 118.729980 70.950195 L 118.729980 72.797852 Z " fill="rgb(0, 0, 0)" fill-opacity="1.000000" />
<path d="M 118.892578 72.797852 L 118.892578 70.950195 L 125.729980 70.950195 L 125.729980 72.797852 Z " fill="rgb(0, 0, 0)" fill-opacity="1.000000" />
<path d="M 125.892578 72.797852 L 125.892578 70.950195 L 132.729980 70.950195 L 132.729980 72.797852 Z " fill="rgb(0, 0, 0)" fill-opacity="1.000000" />
<path d="M 132.892578 72.797852 L 132.892578 70.950195 L 139.729980 70.950195 L 139.729980 72.797852 Z " fill="rgb(0, 0, 0)" fill-opacity="1.000000" />
<path d="M 139.892578 72.797852 L 139.892578 70.950195 L 146.729980 70.950195 L 146.729980 72.797852 Z " fill="rgb(0, 0, 0)" fill-opacity="1.000000" />
<path d="M 146.892578 72.797852 L 146.892578 70.950195 L 153.729980 70.950195 L 153.729980 72.797852 Z " fill="rgb(0, 0, 0)" fill-opacity="1.000000" />
<path d="M 153.892578 72.797852 L 153.892578 70.950195 L 160.729980 70.950195 L 160.729980 72.797852 Z " fill="rgb(0, 0, 0)" fill-opacity="1.000000" />
<path d="M 160.892578 72.797852 L 160.892578 70.950195 L 167.729980 70.950195 L 167.729980 72.797852 Z " fill="rgb(0, 0, 0)" fill-opacity="1.000000" />
<path d="M 167.892578 72.797852 L 167.892578 70.950195 L 174.729980 70.950195 L 174.729980 72.797852 Z " fill="rgb(0, 0, 0)" fill-opacity="1.000000" />
<path d="M 177.449219 78.319336 L 177.449219 72.797852 L 174.892578 72.797852 L 174.892578 70.950195 L 179.167969 70.950195 L 179.167969 78.319336 Z " fill="rgb(0, 0, 0)" fill-opacity="1.000000" />
<path d="M 212.878906 78.319336 L 212.878906 71.412109 L 216.729980 71.412109 L 216.729980 72.335938 L 213.738281 72.335938 L 213.738281 78.319336 Z " fill="rgb(0, 0, 0)" fill-opacity="1.000000" />
<path d="M 216.892578 72.335938 L 216.892578 71.412109 L 223.729980 71.412109 L 223.729980 72.335938 Z " fill="rgb(0, 0, 0)" fill-opacity="1.000000" />
<path d="M 223.892578 72.335938 L 223.892578 71.412109 L 230.729980 71.412109 L 230.729980 72.335938 Z " fill="rgb(0, 0, 0)" fill-opacity="1.000000" />
<path d="M 230.892578 72.335938 L 230.892578 71.412109 L 237.729980 71.412109 L 237.729980 72.335938 Z " fill="rgb(0, 0, 0)" fill-opacity="1.000000" />
<path d="M 237.892578 72.335938 L 237.892578 71.412109 L 244.729980 71.412109 L 244.729980 72.335938 Z " fill="rgb(0, 0, 0)" fill-opacity="1.000000" />
<path d="M 244.892578 72.335938 L 244.892578 71.412109 L 251.729980 71.412109 L 251.729980 72.335938 Z " fill="rgb(0, 0, 0)" fill-opacity="1.000000" />
<path d="M 251.892578 72.335938 L 251.892578 71.412109 L 258.729980 71.412109 L 258.729980 72.335938 Z " fill="rgb(0, 0, 0)" fill-opacity="1.000000" />
<path d="M 258.892578 72.335938 L 258.892578 71.412109 L 265.729980 71.412109 L 265.729980 72.335938 Z " fill="rgb(0, 0, 0)" fill-opacity="1.000000" />
<path d="M 268.878906 78.319336 L 268.878906 72.335938 L 265.892578 72.335938 L 265.892578 71.412109 L 269.738281 71.412109 L 269.738281 78.319336 Z " fill="rgb(0, 0, 0)" fill-opacity="1.000000" />
<path d="M 107.878906 13.319336 L 107.878906 6.412109 L 111.729980 6.412109 L 111.729980 7.335938 L 108.738281 7.335938 L 108.738281 13.319336 Z " fill="rgb(0, 0, 0)" fill-opacity="1.000000" />
<path d="M 107.878906 26.319336 L 107.878906 12.300781 L 108.738281 12.300781 L 108.738281 26.319336 Z " fill="rgb(0, 0, 0)" fill-opacity="1.000000" />
<path d="M 107.878906 33.335938 L 107.878906 25.300781 L 108.738281 25.300781 L 108.738281 32.412109 L 111.729980 32.412109 L 111.729980 33.335938 Z " fill="rgb(0, 0, 0)" fill-opacity="1.000000" />
<path d="M 133.032227 49.418945 L 136.308594 42.866211 L 139.590332 49.418945 Z " fill="rgb(0, 0, 0)" fill-opacity="1.000000" />
<path d="M 135.878906 65.319336 L 135.878906 51.300781 L 136.738281 51.300781 L 136.738281 65.319336 Z " fill="rgb(0, 0, 0)" fill-opacity="1.000000" />
<path d="M 111.892578 33.335938 L 111.892578 32.412109 L 118.729980 32.412109 L 118.729980 33.335938 Z " fill="rgb(0, 0, 0)" fill-opacity="1.000000" />
<path d="M 118.892578 33.335938 L 118.892578 32.412109 L 125.729980 32.412109 L 125.729980 33.335938 Z " fill="rgb(0, 0, 0)" fill-opacity="1.000000" />
<path d="M 125.892578 33.335938 L 125.892578 32.412109 L 132.729980 32.412109 L 132.729980 33.335938 Z " fill="rgb(0, 0, 0)" fill-opacity="1.000000" />
<path d="M 132.892578 33.335938 L 132.892578 32.412109 L 139.729980 32.412109 L 139.729980 33.335938 Z " fill="rgb(0, 0, 0)" fill-opacity="1.000000" />
<path d="M 139.892578 33.335938 L 139.892578 32.412109 L 146.729980 32.412109 L 146.729980 33.335938 Z " fill="rgb(0, 0, 0)" fill-opacity="1.000000" />
<path d="M 146.892578 33.335938 L 146.892578 32.412109 L 153.729980 32.412109 L 153.729980 33.335938 Z " fill="rgb(0, 0, 0)" fill-opacity="1.000000" />
<path d="M 153.892578 33.335938 L 153.892578 32.412109 L 160.729980 32.412109 L 160.729980 33.335938 Z " fill="rgb(0, 0, 0)" fill-opacity="1.000000" />
<path d="M 160.892578 33.335938 L 160.892578 32.412109 L 163.878906 32.412109 L 163.878906 25.300781 L 164.738281 25.300781 L 164.738281 33.335938 Z " fill="rgb(0, 0, 0)" fill-opacity="1.000000" />
<path d="M 131.645020 19.272461 L 131.645020 23.000000 L 130.651367 23.000000 L 130.651367 19.272461 Q 130.651367 18.461426 130.366699 18.080078 Q 130.082031 17.698730 129.475098 17.698730 Q 128.782227 17.698730 128.408936 18.190186 Q 128.035645 18.681641 128.035645 19.600098 L 128.035645 23.000000 L 127.047363 23.000000 L 127.047363 16.984375 L 128.035645 16.984375 L 128.035645 17.886719 Q 128.298828 17.371094 128.750000 17.105225 Q 129.201172 16.839355 129.818848 16.839355 Q 130.737305 16.839355 131.191162 17.443604 Q 131.645020 18.047852 131.645020 19.272461 Z " fill="rgb(0, 0, 0)" fill-opacity="1.000000" />
<path d="M 134.697266 17.005859 L 137.227051 17.005859 L 137.227051 22.231934 L 139.187500 22.231934 L 139.187500 23.000000 L 134.278320 23.000000 L 134.278320 22.231934 L 136.238770 22.231934 L 136.238770 17.773926 L 134.697266 17.773926 Z M 136.238770 14.669434 L 137.227051 14.669434 L 137.227051 15.915527 L 136.238770 15.915527 Z " fill="rgb(0, 0, 0)" fill-opacity="1.000000" />
<path d="M 143.861816 20.824707 Q 143.861816 21.490723 144.106201 21.829102 Q 144.350586 22.167480 144.828613 22.167480 L 145.983398 22.167480 L 145.983398 23.000000 L 144.731934 23.000000 Q 143.845703 23.000000 143.359619 22.433350 Q 142.873535 21.866699 142.873535 20.824707 L 142.873535 15.383789 L 141.289062 15.383789 L 141.289062 14.610352 L 143.861816 14.610352 Z " fill="rgb(0, 0, 0)" fill-opacity="1.000000" />
<path d="M 163.878906 26.319336 L 163.878906 12.300781 L 164.738281 12.300781 L 164.738281 26.319336 Z " fill="rgb(0, 0, 0)" fill-opacity="1.000000" />
<path d="M 111.892578 7.335938 L 111.892578 6.412109 L 118.729980 6.412109 L 118.729980 7.335938 Z " fill="rgb(0, 0, 0)" fill-opacity="1.000000" />
<path d="M 118.892578 7.335938 L 118.892578 6.412109 L 125.729980 6.412109 L 125.729980 7.335938 Z " fill="rgb(0, 0, 0)" fill-opacity="1.000000" />
<path d="M 125.892578 7.335938 L 125.892578 6.412109 L 132.729980 6.412109 L 132.729980 7.335938 Z " fill="rgb(0, 0, 0)" fill-opacity="1.000000" />
<path d="M 132.892578 7.335938 L 132.892578 6.412109 L 139.729980 6.412109 L 139.729980 7.335938 Z " fill="rgb(0, 0, 0)" fill-opacity="1.000000" />
<path d="M 139.892578 7.335938 L 139.892578 6.412109 L 146.729980 6.412109 L 146.729980 7.335938 Z " fill="rgb(0, 0, 0)" fill-opacity="1.000000" />
<path d="M 146.892578 7.335938 L 146.892578 6.412109 L 153.729980 6.412109 L 153.729980 7.335938 Z " fill="rgb(0, 0, 0)" fill-opacity="1.000000" />
<path d="M 153.892578 7.335938 L 153.892578 6.412109 L 160.729980 6.412109 L 160.729980 7.335938 Z " fill="rgb(0, 0, 0)" fill-opacity="1.000000" />
<path d="M 163.878906 13.319336 L 163.878906 7.335938 L 160.892578 7.335938 L 160.892578 6.412109 L 164.738281 6.412109 L 164.738281 13.319336 Z " fill="rgb(0, 0, 0)" fill-opacity="1.000000" />
</svg>