<svg xmlns="http://www.w3.org/2000/svg" version="1.1" width="190" height="92">
<path d="M 2.878906 65.319336 L 2.878906 58.412109 L 6.729980 58.412109 L 6.729980 59.335938 L 3.738281 59.335938 L 3.738281 65.319336 Z " fill="rgb(0, 0, 0)" fill-opacity="1.000000" />
<path d="M 2.878906 78.319336 L 2.878906 64.300781 L 3.738281 64.300781 L 3.738281 78.319336 Z " fill="rgb(0, 0, 0)" fill-opacity="1.000000" />
<path d="M 2.878906 85.335938 L 2.878906 77.300781 L 3.738281 77.300781 L 3.738281 84.412109 L 6.729980 84.412109 L 6.729980 85.335938 Z " fill="rgb(0, 0, 0)" fill-opacity="1.000000" />
<path d="M 6.892578 85.335938 L 6.892578 84.412109 L 13.729980 84.412109 L 13.729980 85.335938 Z " fill="rgb(0, 0, 0)" fill-opacity="1.000000" />
<path d="M 13.892578 85.335938 L 13.892578 84.412109 L 20.729980 84.412109 L 20.729980 85.335938 Z " fill="rgb(0, 0, 0)" fill-opacity="1.000000" />
<path d="M 20.892578 85.335938 L 20.892578 84.412109 L 27.729980 84.412109 L 27.729980 85.335938 Z " fill="rgb(0, 0, 0)" fill-opacity="1.000000" />
<path d="M 27.892578 85.335938 L 27.892578 84.412109 L 34.729980 84.412109 L 34.729980 85.335938 Z " fill="rgb(0, 0, 0)" fill-opacity="1.000000" />
<path d="M 34.892578 85.335938 L 34.892578 84.412109 L 41.729980 84.412109 L 41.729980 85.335938 Z " fill="rgb(0, 0, 0)" fill-opacity="1.000000" />
<path d="M 41.892578 85.335938 L 41.892578 84.412109 L 48.729980 84.412109 L 48.729980 85.335938 Z " fill="rgb(0, 0, 0)" fill-opacity="1.000000" />
<path d="M 48.892578 85.335938 L 48.892578 84.412109 L 55.729980 84.412109 L 55.729980 85.335938 Z " fill="rgb(0, 0, 0)" fill-opacity="1.000000" />
<path d="M 55.892578 85.335938 L 55.892578 84.412109 L 58.878906 84.412109 L 58.878906 77.300781 L 59.738281 77.300781 L 59.738281 85.335938 Z " fill="rgb(0, 0, 0)" fill-opacity="1.000000" />
<path d="M 128.878906 85.335938 L 128.878906 77.300781 L 129.738281 77.300781 L 129.738281 84.412109 L 132.729980 84.412109 L 132.729980 85.335938 Z " fill="rgb(0, 0, 0)" fill-opacity="1.000000" />
<path d="M 132.892578 85.335938 L 132.892578 84.412109 L 139.729980 84.412109 L 139.729980 85.335938 Z " fill="rgb(0, 0, 0)" fill-opacity="1.000000" />
<path d="M 139.892578 85.335938 L 139.892578 84.412109 L 146.729980 84.412109 L 146.729980 85.335938 Z " fill="rgb(0, 0, 0)" fill-opacity="1.000000" />
<path d="M 146.892578 85.335938 L 146.892578 84.412109 L 153.729980 84.412109 L 153.729980 85.335938 Z " fill="rgb(0, 0, 0)" fill-opacity="1.000000" />
<path d="M 153.892578 85.335938 L 153.892578 84.412109 L 160.729980 84.412109 L 160.729980 85.335938 Z " fill="rgb(0, 0, 0)" fill-opacity="1.000000" />
<path d="M 160.892578 85.335938 L 160.892578 84.412109 L 167.729980 84.412109 L 167.729980 85.335938 Z " fill="rgb(0, 0, 0)" fill-opacity="1.000000" />
<path d="M 167.892578 85.335938 L 167.892578 84.412109 L 174.729980 84.412109 L 174.729980 85.335938 Z " fill="rgb(0, 0, 0)" fill-opacity="1.000000" />
<path d="M 174.892578 85.335938 L 174.892578 84.412109 L 181.729980 84.412109 L 181.729980 85.335938 Z " fill="rgb(0, 0, 0)" fill-opacity="1.000000" />
<path d="M 181.892578 85.335938 L 181.892578 84.412109 L 184.878906 84.412109 L 184.878906 77.300781 L 185.738281 77.300781 L 185.738281 85.335938 Z " fill="rgb(0, 0, 0)" fill-opacity="1.000000" />
<path d="M 27.015625 71.498047 L 27.015625 71.981445 L 22.734863 71.981445 L 22.734863 72.013672 Q 22.691895 73.243652 23.204834 73.780762 Q 23.717773 74.317871 24.652344 74.317871 Q 25.125000 74.317871 25.640625 74.167480 Q 26.156250 74.017090 26.741699 73.710938 L 26.741699 74.693848 Q 26.177734 74.924805 25.654053 75.040283 Q 25.130371 75.155762 24.641602 75.155762 Q 23.239746 75.155762 22.450195 74.315186 Q 21.660645 73.474609 21.660645 71.997559 Q 21.660645 70.558105 22.434082 69.698730 Q 23.207520 68.839355 24.496582 68.839355 Q 25.645996 68.839355 26.309326 69.618164 Q 26.972656 70.396973 27.015625 71.498047 Z M 26.027344 71.208008 Q 25.962891 70.584961 25.573486 70.131104 Q 25.184082 69.677246 24.453613 69.677246 Q 23.739258 69.677246 23.277344 70.149902 Q 22.815430 70.622559 22.772461 71.213379 Z " fill="rgb(0, 0, 0)" fill-opacity="1.000000" />
<path d="M 29.047363 72.722656 L 29.047363 68.995117 L 30.035645 68.995117 L 30.035645 72.722656 Q 30.035645 73.533691 30.322998 73.915039 Q 30.610352 74.296387 31.211914 74.296387 Q 31.910156 74.296387 32.280762 73.804932 Q 32.651367 73.313477 32.651367 72.395020 L 32.651367 68.995117 L 33.645020 68.995117 L 33.645020 75.000000 L 32.651367 75.000000 L 32.651367 74.097656 Q 32.388184 74.618652 31.934326 74.887207 Q 31.480469 75.155762 30.873535 75.155762 Q 29.949707 75.155762 29.498535 74.551514 Q 29.047363 73.947266 29.047363 72.722656 Z " fill="rgb(0, 0, 0)" fill-opacity="1.000000" />
<path d="M 41.203613 70.225098 Q 40.886719 69.978027 40.559082 69.865234 Q 40.231445 69.752441 39.839355 69.752441 Q 38.915527 69.752441 38.426758 70.332520 Q 37.937988 70.912598 37.937988 72.008301 L 37.937988 75.000000 L 36.944336 75.000000 L 36.944336 68.984375 L 37.937988 68.984375 L 37.937988 70.160645 Q 38.185059 69.521484 38.697998 69.180420 Q 39.210938 68.839355 39.914551 68.839355 Q 40.279785 68.839355 40.596680 68.930664 Q 40.913574 69.021973 41.203613 69.215332 Z " fill="rgb(0, 0, 0)" fill-opacity="1.000000" />
<path d="M 58.878906 78.319336 L 58.878906 64.300781 L 59.738281 64.300781 L 59.738281 78.319336 Z " fill="rgb(0, 0, 0)" fill-opacity="1.000000" />
<path d="M 63.032227 72.142578 L 69.590332 68.866211 L 69.590332 75.418945 Z " fill="rgb(0, 0, 0)" fill-opacity="1.000000" />
<path d="M 69.892578 72.335938 L 69.892578 71.412109 L 76.729980 71.412109 L 76.729980 72.335938 Z " fill="rgb(0, 0, 0)" fill-opacity="1.000000" />
<path d="M 76.892578 72.335938 L 76.892578 71.412109 L 83.729980 71.412109 L 83.729980 72.335938 Z " fill="rgb(0, 0, 0)" fill-opacity="1.000000" />
<path d="M 83.892578 72.335938 L 83.892578 71.412109 L 90.729980 71.412109 L 90.729980 72.335938 Z " fill="rgb(0, 0, 0)" fill-opacity="1.000000" />
<path d="M 90.892578 72.335938 L 90.892578 71.412109 L 97.729980 71.412109 L 97.729980 72.335938 Z " fill="rgb(0, 0, 0)" fill-opacity="1.000000" />
<path d="M 97.892578 72.335938 L 97.892578 71.412109 L 104.729980 71.412109 L 104.729980 72.335938 Z " fill="rgb(0, 0, 0)" fill-opacity="1.000000" />
<path d="M 104.892578 72.335938 L 104.892578 71.412109 L 111.729980 71.412109 L 111.729980 72.335938 Z " fill="rgb(0, 0, 0)" fill-opacity="1.000000" />
<path d="M 111.892578 72.335938 L 111.892578 71.412109 L 118.729980 71.412109 L 118.729980 72.335938 Z " fill="rgb(0, 0, 0)" fill-opacity="1.000000" />
<path d="M 118.892578 72.335938 L 118.892578 71.412109 L 125.729980 71.412109 L 125.729980 72.335938 Z " fill="rgb(0, 0, 0)" fill-opacity="1.000000" />
<path d="M 128.878906 78.319336 L 128.878906 64.300781 L 129.738281 64.300781 L 129.738281 78.319336 Z " fill="rgb(0, 0, 0)" fill-opacity="1.000000" />
<path d="M 148.047363 72.722656 L 148.047363 68.995117 L 149.035645 68.995117 L 149.035645 72.722656 Q 149.035645 73.533691 149.322998 73.915039 Q 149.610352 74.296387 150.211914 74.296387 Q 150.910156 74.296387 151.280762 73.804932 Q 151.651367 73.313477 151.651367 72.395020 L 151.651367 68.995117 L 152.645020 68.995117 L 152.645020 75.000000 L 151.651367 75.000000 L 151.651367 74.097656 Q 151.388184 74.618652 150.934326 74.887207 Q 150.480469 75.155762 149.873535 75.155762 Q 148.949707 75.155762 148.498535 74.551514 Q 148.047363 73.947266 148.047363 72.722656 Z " fill="rgb(0, 0, 0)" fill-opacity="1.000000" />
<path d="M 159.226074 69.193848 L 159.226074 70.160645 Q 158.801758 69.913574 158.372070 69.790039 Q 157.942383 69.666504 157.496582 69.666504 Q 156.825195 69.666504 156.494873 69.884033 Q 156.164551 70.101562 156.164551 70.547363 Q 156.164551 70.950195 156.411621 71.148926 Q 156.658691 71.347656 157.641602 71.535645 L 158.039062 71.610840 Q 158.774902 71.750488 159.153564 72.169434 Q 159.532227 72.588379 159.532227 73.259766 Q 159.532227 74.151367 158.898438 74.653564 Q 158.264648 75.155762 157.136719 75.155762 Q 156.690918 75.155762 156.202148 75.061768 Q 155.713379 74.967773 155.144043 74.779785 L 155.144043 73.759277 Q 155.697266 74.043945 156.202148 74.186279 Q 156.707031 74.328613 157.158203 74.328613 Q 157.813477 74.328613 158.173340 74.062744 Q 158.533203 73.796875 158.533203 73.318848 Q 158.533203 72.631348 157.217285 72.368164 L 157.174316 72.357422 L 156.803711 72.282227 Q 155.949707 72.115723 155.557617 71.720947 Q 155.165527 71.326172 155.165527 70.644043 Q 155.165527 69.779297 155.750977 69.309326 Q 156.336426 68.839355 157.421387 68.839355 Q 157.904785 68.839355 158.350586 68.927979 Q 158.796387 69.016602 159.226074 69.193848 Z " fill="rgb(0, 0, 0)" fill-opacity="1.000000" />
<path d="M 165.608398 69.752441 L 165.608398 66.642578 L 166.596680 66.642578 L 166.596680 75.000000 L 165.608398 75.000000 L 165.608398 74.242676 Q 165.361328 74.688477 164.950439 74.922119 Q 164.539551 75.155762 164.002441 75.155762 Q 162.912109 75.155762 162.286377 74.309814 Q 161.660645 73.463867 161.660645 71.976074 Q 161.660645 70.509766 162.289062 69.674561 Q 162.917480 68.839355 164.002441 68.839355 Q 164.544922 68.839355 164.958496 69.072998 Q 165.372070 69.306641 165.608398 69.752441 Z M 162.702637 71.997559 Q 162.702637 73.146973 163.067871 73.732422 Q 163.433105 74.317871 164.147461 74.317871 Q 164.861816 74.317871 165.235107 73.727051 Q 165.608398 73.136230 165.608398 71.997559 Q 165.608398 70.853516 165.235107 70.265381 Q 164.861816 69.677246 164.147461 69.677246 Q 163.433105 69.677246 163.067871 70.262695 Q 162.702637 70.848145 162.702637 71.997559 Z " fill="rgb(0, 0, 0)" fill-opacity="1.000000" />
<path d="M 184.878906 78.319336 L 184.878906 64.300781 L 185.738281 64.300781 L 185.738281 78.319336 Z " fill="rgb(0, 0, 0)" fill-opacity="1.000000" />
<path d="M 6.892578 59.335938 L 6.892578 58.412109 L 13.729980 58.412109 L 13.729980 59.335938 Z " fill="rgb(0, 0, 0)" fill-opacity="1.000000" />
<path d="M 13.892578 59.335938 L 13.892578 58.412109 L 20.729980 58.412109 L 20.729980 59.335938 Z " fill="rgb(0, 0, 0)" fill-opacity="1.000000" />
<path d="M 20.892578 59.335938 L 20.892578 58.412109 L 27.729980 58.412109 L 27.729980 59.335938 Z " fill="rgb(0, 0, 0)" fill-opacity="1.000000" />
<path d="M 27.892578 59.335938 L 27.892578 58.412109 L 34.729980 58.412109 L 34.729980 59.335938 Z " fill="rgb(0, 0, 0)" fill-opacity="1.000000" />
<path d="M 34.892578 59.335938 L 34.892578 58.412109 L 41.729980 58.412109 L 41.729980 59.335938 Z " fill="rgb(0, 0, 0)" fill-opacity="1.000000" />
<path d="M 41.892578 59.335938 L 41.892578 58.412109 L 48.729980 58.412109 L 48.729980 59.335938 Z " fill="rgb(0, 0, 0)" fill-opacity="1.000000" />
<path d="M 48.892578 59.335938 L 48.892578 58.412109 L 55.729980 58.412109 L 55.729980 59.335938 Z " fill="rgb(0, 0, 0)" fill-opacity="1.000000" />
<path d="M 58.878906 65.319336 L 58.878906 59.335938 L 55.892578 59.335938 L 55.892578 58.412109 L 59.738281 58.412109 L 59.738281 65.319336 Z " fill="rgb(0, 0, 0)" fill-opacity="1.000000" />
<path d="M 128.878906 65.319336 L 128.878906 58.412109 L 132.729980 58.412109 L 132.729980 59.335938 L 129.738281 59.335938 L 129.738281 65.319336 Z " fill="rgb(0, 0, 0)" fill-opacity="1.000000" />
<path d="M 132.892578 59.335938 L 132.892578 58.412109 L 139.729980 58.412109 L 139.729980 59.335938 Z " fill="rgb(0, 0, 0)" fill-opacity="1.000000" />
<path d="M 139.892578 59.335938 L 139.892578 58.412109 L 146.729980 58.412109 L 146.729980 59.335938 Z " fill="rgb(0, 0, 0)" fill-opacity="1.000000" />
<path d="M 146.892578 59.335938 L 146.892578 58.412109 L 153.729980 58.412109 L 153.729980 59.335938 Z " fill="rgb(0, 0, 0)" fill-opacity="1.000000" />
<path d="M 153.892578 59.335938 L 153.892578 58.412109 L 160.729980 58.412109 L 160.729980 59.335938 Z " fill="rgb(0, 0, 0)" fill-opacity="1.000000" />
<path d="M 160.892578 59.335938 L 160.892578 58.412109 L 167.729980 58.412109 L 167.729980 59.335938 Z " fill="rgb(0, 0, 0)" fill-opacity="1.000000" />
<path d="M 167.892578 59.335938 L 167.892578 58.412109 L 174.729980 58.412109 L 174.729980 59.335938 Z " fill="rgb(0, 0, 0)" fill-opacity="1.000000" />
<path d="M 174.892578 59.335938 L 174.892578 58.412109 L 181.729980 58.412109 L 181.729980 59.335938 Z " fill="rgb(0, 0, 0)" fill-opacity="1.000000" />
<path d="M 184.878906 65.319336 L 184.878906 59.335938 L 181.892578 59.335938 L 181.892578 58.412109 L 185.738281 58.412109 L 185.738281 65.319336 Z " fill="rgb(0, 0, 0)" fill-opacity="1.000000" />
<path d="M 30.878906 26.319336 L 30.878906 19.412109 L 34.729980 19.412109 L 34.729980 20.335938 L 31.738281 20.335938 L 31.738281 26.319336 Z " fill="rgb(0, 0, 0)" fill-opacity="1.000000" />
<path d="M 30.878906 39.319336 L 30.878906 25.300781 L 31.738281 25.300781 L 31.738281 39.319336 Z " fill="rgb(0, 0, 0)" fill-opacity="1.000000" />
<path d="M 30.878906 52.319336 L 30.878906 38.300781 L 31.738281 38.300781 L 31.738281 52.319336 Z " fill="rgb(0, 0, 0)" fill-opacity="1.000000" />
<path d="M 65.878906 33.335938 L 65.878906 25.300781 L 66.738281 25.300781 L 66.738281 32.412109 L 69.729980 32.412109 L 69.729980 33.335938 Z " fill="rgb(0, 0, 0)" fill-opacity="1.000000" />
<path d="M 157.308594 49.418945 L 154.032227 42.866211 L 160.590332 42.866211 Z " fill="rgb(0, 0, 0)" fill-opacity="1.000000" />
<path d="M 69.892578 33.335938 L 69.892578 32.412109 L 76.729980 32.412109 L 76.729980 33.335938 Z " fill="rgb(0, 0, 0)" fill-opacity="1.000000" />
<path d="M 76.892578 33.335938 L 76.892578 32.412109 L 83.729980 32.412109 L 83.729980 33.335938 Z " fill="rgb(0, 0, 0)" fill-opacity="1.000000" />
<path d="M 83.892578 33.335938 L 83.892578 32.412109 L 90.729980 32.412109 L 90.729980 33.335938 Z " fill="rgb(0, 0, 0)" fill-opacity="1.000000" />
<path d="M 90.892578 33.335938 L 90.892578 32.412109 L 97.729980 32.412109 L 97.729980 33.335938 Z " fill="rgb(0, 0, 0)" fill-opacity="1.000000" />
<path d="M 97.892578 33.335938 L 97.892578 32.412109 L 104.729980 32.412109 L 104.729980 33.335938 Z " fill="rgb(0, 0, 0)" fill-opacity="1.000000" />
<path d="M 104.892578 33.335938 L 104.892578 32.412109 L 111.729980 32.412109 L 111.729980 33.335938 Z " fill="rgb(0, 0, 0)" fill-opacity="1.000000" />
<path d="M 111.892578 33.335938 L 111.892578 32.412109 L 118.729980 32.412109 L 118.729980 33.335938 Z " fill="rgb(0, 0, 0)" fill-opacity="1.000000" />
<path d="M 118.892578 33.335938 L 118.892578 32.412109 L 121.878906 32.412109 L 121.878906 25.300781 L 122.738281 25.300781 L 122.738281 33.335938 Z " fill="rgb(0, 0, 0)" fill-opacity="1.000000" />
<path d="M 156.878906 39.319336 L 156.878906 25.300781 L 157.738281 25.300781 L 157.738281 39.319336 Z " fill="rgb(0, 0, 0)" fill-opacity="1.000000" />
<path d="M 34.892578 20.335938 L 34.892578 19.412109 L 41.729980 19.412109 L 41.729980 20.335938 Z " fill="rgb(0, 0, 0)" fill-opacity="1.000000" />
<path d="M 41.892578 20.335938 L 41.892578 19.412109 L 48.729980 19.412109 L 48.729980 20.335938 Z " fill="rgb(0, 0, 0)" fill-opacity="1.000000" />
<path d="M 48.892578 20.335938 L 48.892578 19.412109 L 55.729980 19.412109 L 55.729980 20.335938 Z " fill="rgb(0, 0, 0)" fill-opacity="1.000000" />
<path d="M 56.032227 23.418945 L 56.032227 16.866211 L 62.590332 20.142578 Z " fill="rgb(0, 0, 0)" fill-opacity="1.000000" />
<path d="M 65.878906 26.319336 L 65.878906 12.300781 L 66.738281 12.300781 L 66.738281 26.319336 Z " fill="rgb(0, 0, 0)" fill-opacity="1.000000" />
<path d="M 90.203613 18.225098 Q 89.886719 17.978027 89.559082 17.865234 Q 89.231445 17.752441 88.839355 17.752441 Q 87.915527 17.752441 87.426758 18.332520 Q 86.937988 18.912598 86.937988 20.008301 L 86.937988 23.000000 L 85.944336 23.000000 L 85.944336 16.984375 L 86.937988 16.984375 L 86.937988 18.160645 Q 87.185059 17.521484 87.697998 17.180420 Q 88.210938 16.839355 88.914551 16.839355 Q 89.279785 16.839355 89.596680 16.930664 Q 89.913574 17.021973 90.203613 17.215332 Z " fill="rgb(0, 0, 0)" fill-opacity="1.000000" />
<path d="M 92.047363 20.722656 L 92.047363 16.995117 L 93.035645 16.995117 L 93.035645 20.722656 Q 93.035645 21.533691 93.322998 21.915039 Q 93.610352 22.296387 94.211914 22.296387 Q 94.910156 22.296387 95.280762 21.804932 Q 95.651367 21.313477 95.651367 20.395020 L 95.651367 16.995117 L 96.645020 16.995117 L 96.645020 23.000000 L 95.651367 23.000000 L 95.651367 22.097656 Q 95.388184 22.618652 94.934326 22.887207 Q 94.480469 23.155762 93.873535 23.155762 Q 92.949707 23.155762 92.498535 22.551514 Q 92.047363 21.947266 92.047363 20.722656 Z " fill="rgb(0, 0, 0)" fill-opacity="1.000000" />
<path d="M 102.930664 19.997559 Q 102.930664 18.848145 102.565430 18.262695 Q 102.200195 17.677246 101.485840 17.677246 Q 100.766113 17.677246 100.395508 18.265381 Q 100.024902 18.853516 100.024902 19.997559 Q 100.024902 21.136230 100.395508 21.727051 Q 100.766113 22.317871 101.485840 22.317871 Q 102.200195 22.317871 102.565430 21.732422 Q 102.930664 21.146973 102.930664 19.997559 Z M 100.024902 17.752441 Q 100.261230 17.312012 100.677490 17.075684 Q 101.093750 16.839355 101.641602 16.839355 Q 102.726562 16.839355 103.349609 17.674561 Q 103.972656 18.509766 103.972656 19.976074 Q 103.972656 21.463867 103.346924 22.309814 Q 102.721191 23.155762 101.630859 23.155762 Q 101.093750 23.155762 100.682861 22.922119 Q 100.271973 22.688477 100.024902 22.242676 L 100.024902 23.000000 L 99.036621 23.000000 L 99.036621 14.642578 L 100.024902 14.642578 Z " fill="rgb(0, 0, 0)" fill-opacity="1.000000" />
<path d="M 121.878906 26.319336 L 121.878906 12.300781 L 122.738281 12.300781 L 122.738281 26.319336 Z " fill="rgb(0, 0, 0)" fill-opacity="1.000000" />
<path d="M 125.892578 20.335938 L 125.892578 19.412109 L 132.729980 19.412109 L 132.729980 20.335938 Z " fill="rgb(0, 0, 0)" fill-opacity="1.000000" />
<path d="M 132.892578 20.335938 L 132.892578 19.412109 L 139.729980 19.412109 L 139.729980 20.335938 Z " fill="rgb(0, 0, 0)" fill-opacity="1.000000" />
<path d="M 139.892578 20.335938 L 139.892578 19.412109 L 146.729980 19.412109 L 146.729980 20.335938 Z " fill="rgb(0, 0, 0)" fill-opacity="1.000000" />
<path d="M 146.892578 20.335938 L 146.892578 19.412109 L 153.729980 19.412109 L 153.729980 20.335938 Z " fill="rgb(0, 0, 0)" fill-opacity="1.000000" />
<path d="M 156.878906 26.319336 L 156.878906 20.335938 L 153.892578 20.335938 L 153.892578 19.412109 L 157.738281 19.412109 L 157.738281 26.319336 Z " fill="rgb(0, 0, 0)" fill-opacity="1.000000" />
<path d="M 65.878906 13.319336 L 65.878906 6.412109 L 69.729980 6.412109 L 69.729980 7.335938 L 66.738281 7.335938 L 66.738281 13.319336 Z " fill="rgb(0, 0, 0)" fill-opacity="1.000000" />
<path d="M 69.892578 7.335938 L 69.892578 6.412109 L 76.729980 6.412109 L 76.729980 7.335938 Z " fill="rgb(0, 0, 0)" fill-opacity="1.000000" />
<path d="M 76.892578 7.335938 L 76.892578 6.412109 L 83.729980 6.412109 L 83.729980 7.335938 Z " fill="rgb(0, 0, 0)" fill-opacity="1.000000" />
<path d="M 83.892578 7.335938 L 83.892578 6.412109 L 90.729980 6.412109 L 90.729980 7.335938 Z " fill="rgb(0, 0, 0)" fill-opacity="1.000000" />
<path d="M 90.892578 7.335938 L 90.892578 6.412109 L 97.729980 6.412109 L 97.729980 7.335938 Z " fill="rgb(0, 0, 0)" fill-opacity="1.000000" />
<path d="M 97.892578 7.335938 L 97.892578 6.412109 L 104.729980 6.412109 L 104.729980 7.335938 Z " fill="rgb(0, 0, 0)" fill-opacity="1.000000" />
<path d="M 104.892578 7.335938 L 104.892578 6.412109 L 111.729980 6.412109 L 111.729980 7.335938 Z " fill="rgb(0, 0, 0)" fill-opacity="1.000000" />
<path d="M 111.892578 7.335938 L 111.892578 6.412109 L 118.729980 6.412109 L 118.729980 7.335938 Z " fill="rgb(0, 0, 0)" fill-opacity="1.000000" />
<path d="M 121.878906 13.319336 L 121.878906 7.335938 L 118.892578 7.335938 L 118.892578 6.412109 L 122.738281 6.412109 L 122.738281 13.319336 Z " fill="rgb(0, 0, 0)" fill-opacity="1.000000" />
</svg>