<svg xmlns="http://www.w3.org/2000/svg" version="1.1" width="253" height="118">
<path d="M 8.450195 35.092285 L 10.136719 35.092285 L 10.136719 29.033691 L 8.117188 30.005859 L 8.117188 28.963867 L 10.125977 28.007812 L 11.210938 28.007812 L 11.210938 35.092285 L 12.875977 35.092285 L 12.875977 36.000000 L 8.450195 36.000000 Z " fill="rgb(0, 0, 0)" fill-opacity="1.000000" />
<path d="M 9.003418 87.086914 L 12.687988 87.086914 L 12.687988 88.000000 L 7.816406 88.000000 L 7.816406 87.086914 Q 8.820801 86.028809 9.572754 85.217773 Q 10.324707 84.406738 10.609375 84.073730 Q 11.146484 83.418457 11.334473 83.012939 Q 11.522461 82.607422 11.522461 82.183105 Q 11.522461 81.511719 11.127686 81.130371 Q 10.732910 80.749023 10.045410 80.749023 Q 9.556641 80.749023 9.019531 80.926270 Q 8.482422 81.103516 7.880859 81.463379 L 7.880859 80.367676 Q 8.434082 80.104492 8.968506 79.970215 Q 9.502930 79.835938 10.023926 79.835938 Q 11.200195 79.835938 11.917236 80.461670 Q 12.634277 81.087402 12.634277 82.102539 Q 12.634277 82.618164 12.395264 83.133789 Q 12.156250 83.649414 11.619141 84.272461 Q 11.318359 84.621582 10.746338 85.239258 Q 10.174316 85.856934 9.003418 87.086914 Z " fill="rgb(0, 0, 0)" fill-opacity="1.000000" />
<path d="M 44.878906 98.335938 L 44.878906 90.300781 L 45.738281 90.300781 L 45.738281 97.412109 L 48.729980 97.412109 L 48.729980 98.335938 Z " fill="rgb(0, 0, 0)" fill-opacity="1.000000" />
<path d="M 48.892578 98.335938 L 48.892578 97.412109 L 55.729980 97.412109 L 55.729980 98.335938 Z " fill="rgb(0, 0, 0)" fill-opacity="1.000000" />
<path d="M 55.892578 98.335938 L 55.892578 97.412109 L 62.729980 97.412109 L 62.729980 98.335938 Z " fill="rgb(0, 0, 0)" fill-opacity="1.000000" />
<path d="M 62.892578 98.335938 L 62.892578 97.412109 L 69.729980 97.412109 L 69.729980 98.335938 Z " fill="rgb(0, 0, 0)" fill-opacity="1.000000" />
<path d="M 69.892578 98.335938 L 69.892578 97.412109 L 76.729980 97.412109 L 76.729980 98.335938 Z " fill="rgb(0, 0, 0)" fill-opacity="1.000000" />
<path d="M 76.892578 98.335938 L 76.892578 97.412109 L 83.729980 97.412109 L 83.729980 98.335938 Z " fill="rgb(0, 0, 0)" fill-opacity="1.000000" />
<path d="M 83.892578 98.335938 L 83.892578 97.412109 L 90.729980 97.412109 L 90.729980 98.335938 Z " fill="rgb(0, 0, 0)" fill-opacity="1.000000" />
<path d="M 90.892578 98.335938 L 90.892578 97.412109 L 97.729980 97.412109 L 97.729980 98.335938 Z " fill="rgb(0, 0, 0)" fill-opacity="1.000000" />
<path d="M 97.892578 98.335938 L 97.892578 97.412109 L 100.878906 97.412109 L 100.878906 90.300781 L 101.738281 90.300781 L 101.738281 98.335938 Z " fill="rgb(0, 0, 0)" fill-opacity="1.000000" />
<path d="M 156.878906 98.335938 L 156.878906 90.300781 L 157.738281 90.300781 L 157.738281 97.412109 L 160.729980 97.412109 L 160.729980 98.335938 Z " fill="rgb(0, 0, 0)" fill-opacity="1.000000" />
<path d="M 160.892578 98.335938 L 160.892578 97.412109 L 167.729980 97.412109 L 167.729980 98.335938 Z " fill="rgb(0, 0, 0)" fill-opacity="1.000000" />
<path d="M 167.892578 98.335938 L 167.892578 97.412109 L 174.729980 97.412109 L 174.729980 98.335938 Z " fill="rgb(0, 0, 0)" fill-opacity="1.000000" />
<path d="M 174.892578 98.335938 L 174.892578 97.412109 L 181.729980 97.412109 L 181.729980 98.335938 Z " fill="rgb(0, 0, 0)" fill-opacity="1.000000" />
<path d="M 181.892578 98.335938 L 181.892578 97.412109 L 188.729980 97.412109 L 188.729980 98.335938 Z " fill="rgb(0, 0, 0)" fill-opacity="1.000000" />
<path d="M 188.892578 98.335938 L 188.892578 97.412109 L 195.729980 97.412109 L 195.729980 98.335938 Z " fill="rgb(0, 0, 0)" fill-opacity="1.000000" />
<path d="M 195.892578 98.335938 L 195.892578 97.412109 L 202.729980 97.412109 L 202.729980 98.335938 Z " fill="rgb(0, 0, 0)" fill-opacity="1.000000" />
<path d="M 202.892578 98.335938 L 202.892578 97.412109 L 209.729980 97.412109 L 209.729980 98.335938 Z " fill="rgb(0, 0, 0)" fill-opacity="1.000000" />
<path d="M 209.892578 98.335938 L 209.892578 97.412109 L 212.878906 97.412109 L 212.878906 90.300781 L 213.738281 90.300781 L 213.738281 98.335938 Z " fill="rgb(0, 0, 0)" fill-opacity="1.000000" />
<path d="M 44.878906 91.319336 L 44.878906 77.300781 L 45.738281 77.300781 L 45.738281 91.319336 Z " fill="rgb(0, 0, 0)" fill-opacity="1.000000" />
<path d="M 69.203613 83.225098 Q 68.886719 82.978027 68.559082 82.865234 Q 68.231445 82.752441 67.839355 82.752441 Q 66.915527 82.752441 66.426758 83.332520 Q 65.937988 83.912598 65.937988 85.008301 L 65.937988 88.000000 L 64.944336 88.000000 L 64.944336 81.984375 L 65.937988 81.984375 L 65.937988 83.160645 Q 66.185059 82.521484 66.697998 82.180420 Q 67.210938 81.839355 67.914551 81.839355 Q 68.279785 81.839355 68.596680 81.930664 Q 68.913574 82.021973 69.203613 82.215332 Z " fill="rgb(0, 0, 0)" fill-opacity="1.000000" />
<path d="M 71.047363 85.722656 L 71.047363 81.995117 L 72.035645 81.995117 L 72.035645 85.722656 Q 72.035645 86.533691 72.322998 86.915039 Q 72.610352 87.296387 73.211914 87.296387 Q 73.910156 87.296387 74.280762 86.804932 Q 74.651367 86.313477 74.651367 85.395020 L 74.651367 81.995117 L 75.645020 81.995117 L 75.645020 88.000000 L 74.651367 88.000000 L 74.651367 87.097656 Q 74.388184 87.618652 73.934326 87.887207 Q 73.480469 88.155762 72.873535 88.155762 Q 71.949707 88.155762 71.498535 87.551514 Q 71.047363 86.947266 71.047363 85.722656 Z " fill="rgb(0, 0, 0)" fill-opacity="1.000000" />
<path d="M 81.930664 84.997559 Q 81.930664 83.848145 81.565430 83.262695 Q 81.200195 82.677246 80.485840 82.677246 Q 79.766113 82.677246 79.395508 83.265381 Q 79.024902 83.853516 79.024902 84.997559 Q 79.024902 86.136230 79.395508 86.727051 Q 79.766113 87.317871 80.485840 87.317871 Q 81.200195 87.317871 81.565430 86.732422 Q 81.930664 86.146973 81.930664 84.997559 Z M 79.024902 82.752441 Q 79.261230 82.312012 79.677490 82.075684 Q 80.093750 81.839355 80.641602 81.839355 Q 81.726562 81.839355 82.349609 82.674561 Q 82.972656 83.509766 82.972656 84.976074 Q 82.972656 86.463867 82.346924 87.309814 Q 81.721191 88.155762 80.630859 88.155762 Q 80.093750 88.155762 79.682861 87.922119 Q 79.271973 87.688477 79.024902 87.242676 L 79.024902 88.000000 L 78.036621 88.000000 L 78.036621 79.642578 L 79.024902 79.642578 Z " fill="rgb(0, 0, 0)" fill-opacity="1.000000" />
<path d="M 100.878906 91.319336 L 100.878906 77.300781 L 101.738281 77.300781 L 101.738281 91.319336 Z " fill="rgb(0, 0, 0)" fill-opacity="1.000000" />
<path d="M 105.032227 85.142578 L 111.590332 81.866211 L 111.590332 88.418945 Z " fill="rgb(0, 0, 0)" fill-opacity="1.000000" />
<path d="M 111.892578 85.335938 L 111.892578 84.412109 L 118.729980 84.412109 L 118.729980 85.335938 Z " fill="rgb(0, 0, 0)" fill-opacity="1.000000" />
<path d="M 118.892578 85.335938 L 118.892578 84.412109 L 125.729980 84.412109 L 125.729980 85.335938 Z " fill="rgb(0, 0, 0)" fill-opacity="1.000000" />
<path d="M 125.892578 85.335938 L 125.892578 84.412109 L 128.878906 84.412109 L 128.878906 77.300781 L 129.738281 77.300781 L 129.738281 84.412109 L 132.729980 84.412109 L 132.729980 85.335938 Z " fill="rgb(0, 0, 0)" fill-opacity="1.000000" />
<path d="M 132.892578 85.335938 L 132.892578 84.412109 L 139.729980 84.412109 L 139.729980 85.335938 Z " fill="rgb(0, 0, 0)" fill-opacity="1.000000" />
<path d="M 139.892578 85.335938 L 139.892578 84.412109 L 146.729980 84.412109 L 146.729980 85.335938 Z " fill="rgb(0, 0, 0)" fill-opacity="1.000000" />
<path d="M 147.032227 88.418945 L 147.032227 81.866211 L 153.590332 85.142578 Z " fill="rgb(0, 0, 0)" fill-opacity="1.000000" />
<path d="M 156.878906 91.319336 L 156.878906 77.300781 L 157.738281 77.300781 L 157.738281 91.319336 Z " fill="rgb(0, 0, 0)" fill-opacity="1.000000" />
<path d="M 178.861816 85.824707 Q 178.861816 86.490723 179.106201 86.829102 Q 179.350586 87.167480 179.828613 87.167480 L 180.983398 87.167480 L 180.983398 88.000000 L 179.731934 88.000000 Q 178.845703 88.000000 178.359619 87.433350 Q 177.873535 86.866699 177.873535 85.824707 L 177.873535 80.383789 L 176.289062 80.383789 L 176.289062 79.610352 L 178.861816 79.610352 Z " fill="rgb(0, 0, 0)" fill-opacity="1.000000" />
<path d="M 183.697266 82.005859 L 186.227051 82.005859 L 186.227051 87.231934 L 188.187500 87.231934 L 188.187500 88.000000 L 183.278320 88.000000 L 183.278320 87.231934 L 185.238770 87.231934 L 185.238770 82.773926 L 183.697266 82.773926 Z M 185.238770 79.669434 L 186.227051 79.669434 L 186.227051 80.915527 L 185.238770 80.915527 Z " fill="rgb(0, 0, 0)" fill-opacity="1.000000" />
<path d="M 195.203613 83.225098 Q 194.886719 82.978027 194.559082 82.865234 Q 194.231445 82.752441 193.839355 82.752441 Q 192.915527 82.752441 192.426758 83.332520 Q 191.937988 83.912598 191.937988 85.008301 L 191.937988 88.000000 L 190.944336 88.000000 L 190.944336 81.984375 L 191.937988 81.984375 L 191.937988 83.160645 Q 192.185059 82.521484 192.697998 82.180420 Q 193.210938 81.839355 193.914551 81.839355 Q 194.279785 81.839355 194.596680 81.930664 Q 194.913574 82.021973 195.203613 82.215332 Z " fill="rgb(0, 0, 0)" fill-opacity="1.000000" />
<path d="M 212.878906 91.319336 L 212.878906 77.300781 L 213.738281 77.300781 L 213.738281 91.319336 Z " fill="rgb(0, 0, 0)" fill-opacity="1.000000" />
<path d="M 44.878906 78.319336 L 44.878906 71.412109 L 48.729980 71.412109 L 48.729980 72.335938 L 45.738281 72.335938 L 45.738281 78.319336 Z " fill="rgb(0, 0, 0)" fill-opacity="1.000000" />
<path d="M 48.892578 72.335938 L 48.892578 71.412109 L 55.729980 71.412109 L 55.729980 72.335938 Z " fill="rgb(0, 0, 0)" fill-opacity="1.000000" />
<path d="M 55.892578 72.335938 L 55.892578 71.412109 L 62.729980 71.412109 L 62.729980 72.335938 Z " fill="rgb(0, 0, 0)" fill-opacity="1.000000" />
<path d="M 62.892578 72.335938 L 62.892578 71.412109 L 69.729980 71.412109 L 69.729980 72.335938 Z " fill="rgb(0, 0, 0)" fill-opacity="1.000000" />
<path d="M 69.892578 72.335938 L 69.892578 71.412109 L 76.729980 71.412109 L 76.729980 72.335938 Z " fill="rgb(0, 0, 0)" fill-opacity="1.000000" />
<path d="M 76.892578 72.335938 L 76.892578 71.412109 L 83.729980 71.412109 L 83.729980 72.335938 Z " fill="rgb(0, 0, 0)" fill-opacity="1.000000" />
<path d="M 83.892578 72.335938 L 83.892578 71.412109 L 90.729980 71.412109 L 90.729980 72.335938 Z " fill="rgb(0, 0, 0)" fill-opacity="1.000000" />
<path d="M 90.892578 72.335938 L 90.892578 71.412109 L 97.729980 71.412109 L 97.729980 72.335938 Z " fill="rgb(0, 0, 0)" fill-opacity="1.000000" />
<path d="M 100.878906 78.319336 L 100.878906 72.335938 L 97.892578 72.335938 L 97.892578 71.412109 L 101.738281 71.412109 L 101.738281 78.319336 Z " fill="rgb(0, 0, 0)" fill-opacity="1.000000" />
<path d="M 128.878906 78.319336 L 128.878906 64.300781 L 129.738281 64.300781 L 129.738281 78.319336 Z " fill="rgb(0, 0, 0)" fill-opacity="1.000000" />
<path d="M 156.878906 78.319336 L 156.878906 71.412109 L 160.729980 71.412109 L 160.729980 72.335938 L 157.738281 72.335938 L 157.738281 78.319336 Z " fill="rgb(0, 0, 0)" fill-opacity="1.000000" />
<path d="M 160.892578 72.335938 L 160.892578 71.412109 L 167.729980 71.412109 L 167.729980 72.335938 Z " fill="rgb(0, 0, 0)" fill-opacity="1.000000" />
<path d="M 167.892578 72.335938 L 167.892578 71.412109 L 174.729980 71.412109 L 174.729980 72.335938 Z " fill="rgb(0, 0, 0)" fill-opacity="1.000000" />
<path d="M 174.892578 72.335938 L 174.892578 71.412109 L 181.729980 71.412109 L 181.729980 72.335938 Z " fill="rgb(0, 0, 0)" fill-opacity="1.000000" />
<path d="M 181.892578 72.335938 L 181.892578 71.412109 L 188.729980 71.412109 L 188.729980 72.335938 Z " fill="rgb(0, 0, 0)" fill-opacity="1.000000" />
<path d="M 188.892578 72.335938 L 188.892578 71.412109 L 195.729980 71.412109 L 195.729980 72.335938 Z " fill="rgb(0, 0, 0)" fill-opacity="1.000000" />
<path d="M 195.892578 72.335938 L 195.892578 71.412109 L 202.729980 71.412109 L 202.729980 72.335938 Z " fill="rgb(0, 0, 0)" fill-opacity="1.000000" />
<path d="M 202.892578 72.335938 L 202.892578 71.412109 L 209.729980 71.412109 L 209.729980 72.335938 Z " fill="rgb(0, 0, 0)" fill-opacity="1.000000" />
<path d="M 212.878906 78.319336 L 212.878906 72.335938 L 209.892578 72.335938 L 209.892578 71.412109 L 213.738281 71.412109 L 213.738281 78.319336 Z " fill="rgb(0, 0, 0)" fill-opacity="1.000000" />
<path d="M 100.878906 46.335938 L 100.878906 38.300781 L 101.738281 38.300781 L 101.738281 45.412109 L 104.729980 45.412109 L 104.729980 46.335938 Z " fill="rgb(0, 0, 0)" fill-opacity="1.000000" />
<path d="M 128.878906 65.319336 L 128.878906 51.300781 L 129.738281 51.300781 L 129.738281 65.319336 Z " fill="rgb(0, 0, 0)" fill-opacity="1.000000" />
<path d="M 104.892578 46.335938 L 104.892578 45.412109 L 111.729980 45.412109 L 111.729980 46.335938 Z " fill="rgb(0, 0, 0)" fill-opacity="1.000000" />
<path d="M 111.892578 46.335938 L 111.892578 45.412109 L 118.729980 45.412109 L 118.729980 46.335938 Z " fill="rgb(0, 0, 0)" fill-opacity="1.000000" />
<path d="M 118.892578 46.335938 L 118.892578 45.412109 L 125.729980 45.412109 L 125.729980 46.335938 Z " fill="rgb(0, 0, 0)" fill-opacity="1.000000" />
<path d="M 125.892578 46.335938 L 125.892578 45.412109 L 132.729980 45.412109 L 132.729980 46.335938 Z " fill="rgb(0, 0, 0)" fill-opacity="1.000000" />
<path d="M 132.892578 46.335938 L 132.892578 45.412109 L 139.729980 45.412109 L 139.729980 46.335938 Z " fill="rgb(0, 0, 0)" fill-opacity="1.000000" />
<path d="M 139.892578 46.335938 L 139.892578 45.412109 L 146.729980 45.412109 L 146.729980 46.335938 Z " fill="rgb(0, 0, 0)" fill-opacity="1.000000" />
<path d="M 146.892578 46.335938 L 146.892578 45.412109 L 153.729980 45.412109 L 153.729980 46.335938 Z " fill="rgb(0, 0, 0)" fill-opacity="1.000000" />
<path d="M 153.892578 46.335938 L 153.892578 45.412109 L 156.878906 45.412109 L 156.878906 38.300781 L 157.738281 38.300781 L 157.738281 46.335938 Z " fill="rgb(0, 0, 0)" fill-opacity="1.000000" />
<path d="M 100.878906 39.319336 L 100.878906 25.300781 L 101.738281 25.300781 L 101.738281 39.319336 Z " fill="rgb(0, 0, 0)" fill-opacity="1.000000" />
<path d="M 120.047363 33.722656 L 120.047363 29.995117 L 121.035645 29.995117 L 121.035645 33.722656 Q 121.035645 34.533691 121.322998 34.915039 Q 121.610352 35.296387 122.211914 35.296387 Q 122.910156 35.296387 123.280762 34.804932 Q 123.651367 34.313477 123.651367 33.395020 L 123.651367 29.995117 L 124.645020 29.995117 L 124.645020 36.000000 L 123.651367 36.000000 L 123.651367 35.097656 Q 123.388184 35.618652 122.934326 35.887207 Q 122.480469 36.155762 121.873535 36.155762 Q 120.949707 36.155762 120.498535 35.551514 Q 120.047363 34.947266 120.047363 33.722656 Z " fill="rgb(0, 0, 0)" fill-opacity="1.000000" />
<path d="M 131.226074 30.193848 L 131.226074 31.160645 Q 130.801758 30.913574 130.372070 30.790039 Q 129.942383 30.666504 129.496582 30.666504 Q 128.825195 30.666504 128.494873 30.884033 Q 128.164551 31.101562 128.164551 31.547363 Q 128.164551 31.950195 128.411621 32.148926 Q 128.658691 32.347656 129.641602 32.535645 L 130.039062 32.610840 Q 130.774902 32.750488 131.153564 33.169434 Q 131.532227 33.588379 131.532227 34.259766 Q 131.532227 35.151367 130.898438 35.653564 Q 130.264648 36.155762 129.136719 36.155762 Q 128.690918 36.155762 128.202148 36.061768 Q 127.713379 35.967773 127.144043 35.779785 L 127.144043 34.759277 Q 127.697266 35.043945 128.202148 35.186279 Q 128.707031 35.328613 129.158203 35.328613 Q 129.813477 35.328613 130.173340 35.062744 Q 130.533203 34.796875 130.533203 34.318848 Q 130.533203 33.631348 129.217285 33.368164 L 129.174316 33.357422 L 128.803711 33.282227 Q 127.949707 33.115723 127.557617 32.720947 Q 127.165527 32.326172 127.165527 31.644043 Q 127.165527 30.779297 127.750977 30.309326 Q 128.336426 29.839355 129.421387 29.839355 Q 129.904785 29.839355 130.350586 29.927979 Q 130.796387 30.016602 131.226074 30.193848 Z " fill="rgb(0, 0, 0)" fill-opacity="1.000000" />
<path d="M 137.608398 30.752441 L 137.608398 27.642578 L 138.596680 27.642578 L 138.596680 36.000000 L 137.608398 36.000000 L 137.608398 35.242676 Q 137.361328 35.688477 136.950439 35.922119 Q 136.539551 36.155762 136.002441 36.155762 Q 134.912109 36.155762 134.286377 35.309814 Q 133.660645 34.463867 133.660645 32.976074 Q 133.660645 31.509766 134.289062 30.674561 Q 134.917480 29.839355 136.002441 29.839355 Q 136.544922 29.839355 136.958496 30.072998 Q 137.372070 30.306641 137.608398 30.752441 Z M 134.702637 32.997559 Q 134.702637 34.146973 135.067871 34.732422 Q 135.433105 35.317871 136.147461 35.317871 Q 136.861816 35.317871 137.235107 34.727051 Q 137.608398 34.136230 137.608398 32.997559 Q 137.608398 31.853516 137.235107 31.265381 Q 136.861816 30.677246 136.147461 30.677246 Q 135.433105 30.677246 135.067871 31.262695 Q 134.702637 31.848145 134.702637 32.997559 Z " fill="rgb(0, 0, 0)" fill-opacity="1.000000" />
<path d="M 156.878906 39.319336 L 156.878906 25.300781 L 157.738281 25.300781 L 157.738281 39.319336 Z " fill="rgb(0, 0, 0)" fill-opacity="1.000000" />
<path d="M 100.878906 26.319336 L 100.878906 19.412109 L 104.729980 19.412109 L 104.729980 20.335938 L 101.738281 20.335938 L 101.738281 26.319336 Z " fill="rgb(0, 0, 0)" fill-opacity="1.000000" />
<path d="M 104.892578 20.335938 L 104.892578 19.412109 L 111.729980 19.412109 L 111.729980 20.335938 Z " fill="rgb(0, 0, 0)" fill-opacity="1.000000" />
<path d="M 111.892578 20.335938 L 111.892578 19.412109 L 118.729980 19.412109 L 118.729980 20.335938 Z " fill="rgb(0, 0, 0)" fill-opacity="1.000000" />
<path d="M 118.892578 20.335938 L 118.892578 19.412109 L 125.729980 19.412109 L 125.729980 20.335938 Z " fill="rgb(0, 0, 0)" fill-opacity="1.000000" />
<path d="M 125.892578 20.335938 L 125.892578 19.412109 L 132.729980 19.412109 L 132.729980 20.335938 Z " fill="rgb(0, 0, 0)" fill-opacity="1.000000" />
<path d="M 132.892578 20.335938 L 132.892578 19.412109 L 139.729980 19.412109 L 139.729980 20.335938 Z " fill="rgb(0, 0, 0)" fill-opacity="1.000000" />
<path d="M 139.892578 20.335938 L 139.892578 19.412109 L 146.729980 19.412109 L 146.729980 20.335938 Z " fill="rgb(0, 0, 0)" fill-opacity="1.000000" />
<path d="M 146.892578 20.335938 L 146.892578 19.412109 L 153.729980 19.412109 L 153.729980 20.335938 Z " fill="rgb(0, 0, 0)" fill-opacity="1.000000" />
<path d="M 156.878906 26.319336 L 156.878906 20.335938 L 153.892578 20.335938 L 153.892578 19.412109 L 157.738281 19.412109 L 157.738281 26.319336 Z " fill="rgb(0, 0, 0)" fill-opacity="1.000000" />
</svg>