<svg xmlns="http://www.w3.org/2000/svg" version="1.1" width="274" height="170">
<path d="M 2.878906 78.319336 L 2.878906 71.412109 L 6.729980 71.412109 L 6.729980 72.335938 L 3.738281 72.335938 L 3.738281 78.319336 Z " fill="rgb(0, 0, 0)" fill-opacity="1.000000" />
<path d="M 2.878906 91.319336 L 2.878906 77.300781 L 3.738281 77.300781 L 3.738281 91.319336 Z " fill="rgb(0, 0, 0)" fill-opacity="1.000000" />
<path d="M 2.878906 98.335938 L 2.878906 90.300781 L 3.738281 90.300781 L 3.738281 97.412109 L 6.729980 97.412109 L 6.729980 98.335938 Z " fill="rgb(0, 0, 0)" fill-opacity="1.000000" />
<path d="M 107.878906 143.319336 L 107.878906 136.412109 L 111.729980 136.412109 L 111.729980 137.335938 L 108.738281 137.335938 L 108.738281 143.319336 Z " fill="rgb(0, 0, 0)" fill-opacity="1.000000" />
<path d="M 107.878906 156.319336 L 107.878906 142.300781 L 108.738281 142.300781 L 108.738281 156.319336 Z " fill="rgb(0, 0, 0)" fill-opacity="1.000000" />
<path d="M 107.878906 163.335938 L 107.878906 155.300781 L 108.738281 155.300781 L 108.738281 162.412109 L 111.729980 162.412109 L 111.729980 163.335938 Z " fill="rgb(0, 0, 0)" fill-opacity="1.000000" />
<path d="M 111.892578 163.335938 L 111.892578 162.412109 L 118.729980 162.412109 L 118.729980 163.335938 Z " fill="rgb(0, 0, 0)" fill-opacity="1.000000" />
<path d="M 118.892578 163.335938 L 118.892578 162.412109 L 125.729980 162.412109 L 125.729980 163.335938 Z " fill="rgb(0, 0, 0)" fill-opacity="1.000000" />
<path d="M 125.892578 163.335938 L 125.892578 162.412109 L 132.729980 162.412109 L 132.729980 163.335938 Z " fill="rgb(0, 0, 0)" fill-opacity="1.000000" />
<path d="M 132.892578 163.335938 L 132.892578 162.412109 L 139.729980 162.412109 L 139.729980 163.335938 Z " fill="rgb(0, 0, 0)" fill-opacity="1.000000" />
<path d="M 139.892578 163.335938 L 139.892578 162.412109 L 146.729980 162.412109 L 146.729980 163.335938 Z " fill="rgb(0, 0, 0)" fill-opacity="1.000000" />
<path d="M 146.892578 163.335938 L 146.892578 162.412109 L 153.729980 162.412109 L 153.729980 163.335938 Z " fill="rgb(0, 0, 0)" fill-opacity="1.000000" />
<path d="M 153.892578 163.335938 L 153.892578 162.412109 L 160.729980 162.412109 L 160.729980 163.335938 Z " fill="rgb(0, 0, 0)" fill-opacity="1.000000" />
<path d="M 160.892578 163.335938 L 160.892578 162.412109 L 163.878906 162.412109 L 163.878906 155.300781 L 164.738281 155.300781 L 164.738281 163.335938 Z " fill="rgb(0, 0, 0)" fill-opacity="1.000000" />
<path d="M 115.023926 144.105469 L 117.301270 144.105469 L 117.301270 144.873535 L 116.012207 144.873535 L 116.012207 153.145020 L 117.301270 153.145020 L 117.301270 153.913086 L 115.023926 153.913086 Z " fill="rgb(0, 0, 0)" fill-opacity="1.000000" />
<path d="M 120.450195 152.092285 L 122.136719 152.092285 L 122.136719 146.033691 L 120.117188 147.005859 L 120.117188 145.963867 L 122.125977 145.007812 L 123.210938 145.007812 L 123.210938 152.092285 L 124.875977 152.092285 L 124.875977 153.000000 L 120.450195 153.000000 Z " fill="rgb(0, 0, 0)" fill-opacity="1.000000" />
<path d="M 135.003418 152.086914 L 138.687988 152.086914 L 138.687988 153.000000 L 133.816406 153.000000 L 133.816406 152.086914 Q 134.820801 151.028809 135.572754 150.217773 Q 136.324707 149.406738 136.609375 149.073730 Q 137.146484 148.418457 137.334473 148.012939 Q 137.522461 147.607422 137.522461 147.183105 Q 137.522461 146.511719 137.127686 146.130371 Q 136.732910 145.749023 136.045410 145.749023 Q 135.556641 145.749023 135.019531 145.926270 Q 134.482422 146.103516 133.880859 146.463379 L 133.880859 145.367676 Q 134.434082 145.104492 134.968506 144.970215 Q 135.502930 144.835938 136.023926 144.835938 Q 137.200195 144.835938 137.917236 145.461670 Q 138.634277 146.087402 138.634277 147.102539 Q 138.634277 147.618164 138.395264 148.133789 Q 138.156250 148.649414 137.619141 149.272461 Q 137.318359 149.621582 136.746338 150.239258 Q 136.174316 150.856934 135.003418 152.086914 Z " fill="rgb(0, 0, 0)" fill-opacity="1.000000" />
<path d="M 151.167969 148.708496 Q 151.957520 148.917969 152.376465 149.452393 Q 152.795410 149.986816 152.795410 150.787109 Q 152.795410 151.893555 152.051514 152.524658 Q 151.307617 153.155762 149.991699 153.155762 Q 149.438477 153.155762 148.863770 153.053711 Q 148.289062 152.951660 147.735840 152.758301 L 147.735840 151.678711 Q 148.283691 151.963379 148.815430 152.103027 Q 149.347168 152.242676 149.873535 152.242676 Q 150.765137 152.242676 151.243164 151.839844 Q 151.721191 151.437012 151.721191 150.679688 Q 151.721191 149.981445 151.243164 149.570557 Q 150.765137 149.159668 149.948730 149.159668 L 149.121582 149.159668 L 149.121582 148.268066 L 149.948730 148.268066 Q 150.695312 148.268066 151.114258 147.940430 Q 151.533203 147.612793 151.533203 147.027344 Q 151.533203 146.409668 151.143799 146.079346 Q 150.754395 145.749023 150.034668 145.749023 Q 149.556641 145.749023 149.046387 145.856445 Q 148.536133 145.963867 147.977539 146.178711 L 147.977539 145.179688 Q 148.627441 145.007812 149.135010 144.921875 Q 149.642578 144.835938 150.034668 144.835938 Q 151.205566 144.835938 151.906494 145.424072 Q 152.607422 146.012207 152.607422 146.984375 Q 152.607422 147.645020 152.239502 148.085449 Q 151.871582 148.525879 151.167969 148.708496 Z " fill="rgb(0, 0, 0)" fill-opacity="1.000000" />
<path d="M 157.867188 144.105469 L 157.867188 153.913086 L 155.589844 153.913086 L 155.589844 153.145020 L 156.878906 153.145020 L 156.878906 144.873535 L 155.589844 144.873535 L 155.589844 144.105469 Z " fill="rgb(0, 0, 0)" fill-opacity="1.000000" />
<path d="M 163.878906 156.319336 L 163.878906 142.300781 L 164.738281 142.300781 L 164.738281 156.319336 Z " fill="rgb(0, 0, 0)" fill-opacity="1.000000" />
<path d="M 111.892578 137.335938 L 111.892578 136.412109 L 118.729980 136.412109 L 118.729980 137.335938 Z " fill="rgb(0, 0, 0)" fill-opacity="1.000000" />
<path d="M 118.892578 137.335938 L 118.892578 136.412109 L 125.729980 136.412109 L 125.729980 137.335938 Z " fill="rgb(0, 0, 0)" fill-opacity="1.000000" />
<path d="M 125.892578 137.335938 L 125.892578 136.412109 L 132.729980 136.412109 L 132.729980 137.335938 Z " fill="rgb(0, 0, 0)" fill-opacity="1.000000" />
<path d="M 132.892578 137.335938 L 132.892578 136.412109 L 139.729980 136.412109 L 139.729980 137.335938 Z " fill="rgb(0, 0, 0)" fill-opacity="1.000000" />
<path d="M 139.892578 137.335938 L 139.892578 136.412109 L 146.729980 136.412109 L 146.729980 137.335938 Z " fill="rgb(0, 0, 0)" fill-opacity="1.000000" />
<path d="M 146.892578 137.335938 L 146.892578 136.412109 L 153.729980 136.412109 L 153.729980 137.335938 Z " fill="rgb(0, 0, 0)" fill-opacity="1.000000" />
<path d="M 153.892578 137.335938 L 153.892578 136.412109 L 160.729980 136.412109 L 160.729980 137.335938 Z " fill="rgb(0, 0, 0)" fill-opacity="1.000000" />
<path d="M 163.878906 143.319336 L 163.878906 137.335938 L 160.892578 137.335938 L 160.892578 136.412109 L 164.738281 136.412109 L 164.738281 143.319336 Z " fill="rgb(0, 0, 0)" fill-opacity="1.000000" />
<path d="M 135.878906 117.319336 L 135.878906 103.300781 L 136.738281 103.300781 L 136.738281 117.319336 Z " fill="rgb(0, 0, 0)" fill-opacity="1.000000" />
<path d="M 136.308594 127.418945 L 133.032227 120.866211 L 139.590332 120.866211 Z " fill="rgb(0, 0, 0)" fill-opacity="1.000000" />
<path d="M 6.892578 98.335938 L 6.892578 97.412109 L 13.729980 97.412109 L 13.729980 98.335938 Z " fill="rgb(0, 0, 0)" fill-opacity="1.000000" />
<path d="M 13.892578 98.335938 L 13.892578 97.412109 L 20.729980 97.412109 L 20.729980 98.335938 Z " fill="rgb(0, 0, 0)" fill-opacity="1.000000" />
<path d="M 20.892578 98.335938 L 20.892578 97.412109 L 27.729980 97.412109 L 27.729980 98.335938 Z " fill="rgb(0, 0, 0)" fill-opacity="1.000000" />
<path d="M 27.892578 98.335938 L 27.892578 97.412109 L 34.729980 97.412109 L 34.729980 98.335938 Z " fill="rgb(0, 0, 0)" fill-opacity="1.000000" />
<path d="M 34.892578 98.335938 L 34.892578 97.412109 L 41.729980 97.412109 L 41.729980 98.335938 Z " fill="rgb(0, 0, 0)" fill-opacity="1.000000" />
<path d="M 41.892578 98.335938 L 41.892578 97.412109 L 48.729980 97.412109 L 48.729980 98.335938 Z " fill="rgb(0, 0, 0)" fill-opacity="1.000000" />
<path d="M 48.892578 98.335938 L 48.892578 97.412109 L 55.729980 97.412109 L 55.729980 98.335938 Z " fill="rgb(0, 0, 0)" fill-opacity="1.000000" />
<path d="M 55.892578 98.335938 L 55.892578 97.412109 L 58.878906 97.412109 L 58.878906 90.300781 L 59.738281 90.300781 L 59.738281 98.335938 Z " fill="rgb(0, 0, 0)" fill-opacity="1.000000" />
<path d="M 93.449219 98.797852 L 93.449219 90.300781 L 95.167969 90.300781 L 95.167969 96.950195 L 97.729980 96.950195 L 97.729980 98.797852 Z " fill="rgb(0, 0, 0)" fill-opacity="1.000000" />
<path d="M 97.892578 98.797852 L 97.892578 96.950195 L 104.729980 96.950195 L 104.729980 98.797852 Z " fill="rgb(0, 0, 0)" fill-opacity="1.000000" />
<path d="M 104.892578 98.797852 L 104.892578 96.950195 L 111.729980 96.950195 L 111.729980 98.797852 Z " fill="rgb(0, 0, 0)" fill-opacity="1.000000" />
<path d="M 111.892578 98.797852 L 111.892578 96.950195 L 118.729980 96.950195 L 118.729980 98.797852 Z " fill="rgb(0, 0, 0)" fill-opacity="1.000000" />
<path d="M 118.892578 98.797852 L 118.892578 96.950195 L 125.729980 96.950195 L 125.729980 98.797852 Z " fill="rgb(0, 0, 0)" fill-opacity="1.000000" />
<path d="M 125.892578 98.797852 L 125.892578 96.950195 L 132.729980 96.950195 L 132.729980 98.797852 Z " fill="rgb(0, 0, 0)" fill-opacity="1.000000" />
<path d="M 132.892578 98.797852 L 132.892578 96.950195 L 139.729980 96.950195 L 139.729980 98.797852 Z " fill="rgb(0, 0, 0)" fill-opacity="1.000000" />
<path d="M 139.892578 98.797852 L 139.892578 96.950195 L 146.729980 96.950195 L 146.729980 98.797852 Z " fill="rgb(0, 0, 0)" fill-opacity="1.000000" />
<path d="M 146.892578 98.797852 L 146.892578 96.950195 L 153.729980 96.950195 L 153.729980 98.797852 Z " fill="rgb(0, 0, 0)" fill-opacity="1.000000" />
<path d="M 153.892578 98.797852 L 153.892578 96.950195 L 160.729980 96.950195 L 160.729980 98.797852 Z " fill="rgb(0, 0, 0)" fill-opacity="1.000000" />
<path d="M 160.892578 98.797852 L 160.892578 96.950195 L 167.729980 96.950195 L 167.729980 98.797852 Z " fill="rgb(0, 0, 0)" fill-opacity="1.000000" />
<path d="M 167.892578 98.797852 L 167.892578 96.950195 L 174.729980 96.950195 L 174.729980 98.797852 Z " fill="rgb(0, 0, 0)" fill-opacity="1.000000" />
<path d="M 174.892578 98.797852 L 174.892578 96.950195 L 177.449219 96.950195 L 177.449219 90.300781 L 179.167969 90.300781 L 179.167969 98.797852 Z " fill="rgb(0, 0, 0)" fill-opacity="1.000000" />
<path d="M 212.878906 98.335938 L 212.878906 90.300781 L 213.738281 90.300781 L 213.738281 97.412109 L 216.729980 97.412109 L 216.729980 98.335938 Z " fill="rgb(0, 0, 0)" fill-opacity="1.000000" />
<path d="M 216.892578 98.335938 L 216.892578 97.412109 L 223.729980 97.412109 L 223.729980 98.335938 Z " fill="rgb(0, 0, 0)" fill-opacity="1.000000" />
<path d="M 223.892578 98.335938 L 223.892578 97.412109 L 230.729980 97.412109 L 230.729980 98.335938 Z " fill="rgb(0, 0, 0)" fill-opacity="1.000000" />
<path d="M 230.892578 98.335938 L 230.892578 97.412109 L 237.729980 97.412109 L 237.729980 98.335938 Z " fill="rgb(0, 0, 0)" fill-opacity="1.000000" />
<path d="M 237.892578 98.335938 L 237.892578 97.412109 L 244.729980 97.412109 L 244.729980 98.335938 Z " fill="rgb(0, 0, 0)" fill-opacity="1.000000" />
<path d="M 244.892578 98.335938 L 244.892578 97.412109 L 251.729980 97.412109 L 251.729980 98.335938 Z " fill="rgb(0, 0, 0)" fill-opacity="1.000000" />
<path d="M 251.892578 98.335938 L 251.892578 97.412109 L 258.729980 97.412109 L 258.729980 98.335938 Z " fill="rgb(0, 0, 0)" fill-opacity="1.000000" />
<path d="M 258.892578 98.335938 L 258.892578 97.412109 L 265.729980 97.412109 L 265.729980 98.335938 Z " fill="rgb(0, 0, 0)" fill-opacity="1.000000" />
<path d="M 265.892578 98.335938 L 265.892578 97.412109 L 268.878906 97.412109 L 268.878906 90.300781 L 269.738281 90.300781 L 269.738281 98.335938 Z " fill="rgb(0, 0, 0)" fill-opacity="1.000000" />
<path d="M 29.450195 87.092285 L 31.136719 87.092285 L 31.136719 81.033691 L 29.117188 82.005859 L 29.117188 80.963867 L 31.125977 80.007812 L 32.210938 80.007812 L 32.210938 87.092285 L 33.875977 87.092285 L 33.875977 88.000000 L 29.450195 88.000000 Z " fill="rgb(0, 0, 0)" fill-opacity="1.000000" />
<path d="M 58.878906 91.319336 L 58.878906 77.300781 L 59.738281 77.300781 L 59.738281 91.319336 Z " fill="rgb(0, 0, 0)" fill-opacity="1.000000" />
<path d="M 63.032227 85.142578 L 69.590332 81.866211 L 69.590332 88.418945 Z " fill="rgb(0, 0, 0)" fill-opacity="1.000000" />
<path d="M 69.892578 85.335938 L 69.892578 84.412109 L 76.729980 84.412109 L 76.729980 85.335938 Z " fill="rgb(0, 0, 0)" fill-opacity="1.000000" />
<path d="M 76.892578 85.335938 L 76.892578 84.412109 L 83.729980 84.412109 L 83.729980 85.335938 Z " fill="rgb(0, 0, 0)" fill-opacity="1.000000" />
<path d="M 83.892578 85.335938 L 83.892578 84.412109 L 90.729980 84.412109 L 90.729980 85.335938 Z " fill="rgb(0, 0, 0)" fill-opacity="1.000000" />
<path d="M 93.449219 91.319336 L 93.449219 77.300781 L 95.167969 77.300781 L 95.167969 91.319336 Z " fill="rgb(0, 0, 0)" fill-opacity="1.000000" />
<path d="M 135.003418 87.086914 L 138.687988 87.086914 L 138.687988 88.000000 L 133.816406 88.000000 L 133.816406 87.086914 Q 134.820801 86.028809 135.572754 85.217773 Q 136.324707 84.406738 136.609375 84.073730 Q 137.146484 83.418457 137.334473 83.012939 Q 137.522461 82.607422 137.522461 82.183105 Q 137.522461 81.511719 137.127686 81.130371 Q 136.732910 80.749023 136.045410 80.749023 Q 135.556641 80.749023 135.019531 80.926270 Q 134.482422 81.103516 133.880859 81.463379 L 133.880859 80.367676 Q 134.434082 80.104492 134.968506 79.970215 Q 135.502930 79.835938 136.023926 79.835938 Q 137.200195 79.835938 137.917236 80.461670 Q 138.634277 81.087402 138.634277 82.102539 Q 138.634277 82.618164 138.395264 83.133789 Q 138.156250 83.649414 137.619141 84.272461 Q 137.318359 84.621582 136.746338 85.239258 Q 136.174316 85.856934 135.003418 87.086914 Z " fill="rgb(0, 0, 0)" fill-opacity="1.000000" />
<path d="M 177.449219 91.319336 L 177.449219 77.300781 L 179.167969 77.300781 L 179.167969 91.319336 Z " fill="rgb(0, 0, 0)" fill-opacity="1.000000" />
<path d="M 181.892578 85.335938 L 181.892578 84.412109 L 188.729980 84.412109 L 188.729980 85.335938 Z " fill="rgb(0, 0, 0)" fill-opacity="1.000000" />
<path d="M 188.892578 85.335938 L 188.892578 84.412109 L 195.729980 84.412109 L 195.729980 85.335938 Z " fill="rgb(0, 0, 0)" fill-opacity="1.000000" />
<path d="M 195.892578 85.335938 L 195.892578 84.412109 L 202.729980 84.412109 L 202.729980 85.335938 Z " fill="rgb(0, 0, 0)" fill-opacity="1.000000" />
<path d="M 203.032227 88.418945 L 203.032227 81.866211 L 209.590332 85.142578 Z " fill="rgb(0, 0, 0)" fill-opacity="1.000000" />
<path d="M 212.878906 91.319336 L 212.878906 77.300781 L 213.738281 77.300781 L 213.738281 91.319336 Z " fill="rgb(0, 0, 0)" fill-opacity="1.000000" />
<path d="M 242.167969 83.708496 Q 242.957520 83.917969 243.376465 84.452393 Q 243.795410 84.986816 243.795410 85.787109 Q 243.795410 86.893555 243.051514 87.524658 Q 242.307617 88.155762 240.991699 88.155762 Q 240.438477 88.155762 239.863770 88.053711 Q 239.289062 87.951660 238.735840 87.758301 L 238.735840 86.678711 Q 239.283691 86.963379 239.815430 87.103027 Q 240.347168 87.242676 240.873535 87.242676 Q 241.765137 87.242676 242.243164 86.839844 Q 242.721191 86.437012 242.721191 85.679688 Q 242.721191 84.981445 242.243164 84.570557 Q 241.765137 84.159668 240.948730 84.159668 L 240.121582 84.159668 L 240.121582 83.268066 L 240.948730 83.268066 Q 241.695312 83.268066 242.114258 82.940430 Q 242.533203 82.612793 242.533203 82.027344 Q 242.533203 81.409668 242.143799 81.079346 Q 241.754395 80.749023 241.034668 80.749023 Q 240.556641 80.749023 240.046387 80.856445 Q 239.536133 80.963867 238.977539 81.178711 L 238.977539 80.179688 Q 239.627441 80.007812 240.135010 79.921875 Q 240.642578 79.835938 241.034668 79.835938 Q 242.205566 79.835938 242.906494 80.424072 Q 243.607422 81.012207 243.607422 81.984375 Q 243.607422 82.645020 243.239502 83.085449 Q 242.871582 83.525879 242.167969 83.708496 Z " fill="rgb(0, 0, 0)" fill-opacity="1.000000" />
<path d="M 268.878906 91.319336 L 268.878906 77.300781 L 269.738281 77.300781 L 269.738281 91.319336 Z " fill="rgb(0, 0, 0)" fill-opacity="1.000000" />
<path d="M 6.892578 72.335938 L 6.892578 71.412109 L 13.729980 71.412109 L 13.729980 72.335938 Z " fill="rgb(0, 0, 0)" fill-opacity="1.000000" />
<path d="M 13.892578 72.335938 L 13.892578 71.412109 L 20.729980 71.412109 L 20.729980 72.335938 Z " fill="rgb(0, 0, 0)" fill-opacity="1.000000" />
<path d="M 20.892578 72.335938 L 20.892578 71.412109 L 27.729980 71.412109 L 27.729980 72.335938 Z " fill="rgb(0, 0, 0)" fill-opacity="1.000000" />
<path d="M 27.892578 72.335938 L 27.892578 71.412109 L 34.729980 71.412109 L 34.729980 72.335938 Z " fill="rgb(0, 0, 0)" fill-opacity="1.000000" />
<path d="M 34.892578 72.335938 L 34.892578 71.412109 L 41.729980 71.412109 L 41.729980 72.335938 Z " fill="rgb(0, 0, 0)" fill-opacity="1.000000" />
<path d="M 41.892578 72.335938 L 41.892578 71.412109 L 48.729980 71.412109 L 48.729980 72.335938 Z " fill="rgb(0, 0, 0)" fill-opacity="1.000000" />
<path d="M 48.892578 72.335938 L 48.892578 71.412109 L 55.729980 71.412109 L 55.729980 72.335938 Z " fill="rgb(0, 0, 0)" fill-opacity="1.000000" />
<path d="M 58.878906 78.319336 L 58.878906 72.335938 L 55.892578 72.335938 L 55.892578 71.412109 L 59.738281 71.412109 L 59.738281 78.319336 Z " fill="rgb(0, 0, 0)" fill-opacity="1.000000" />
<path d="M 93.449219 78.319336 L 93.449219 70.950195 L 97.729980 70.950195 L 97.729980 72.797852 L 95.167969 72.797852 L 95.167969 78.319336 Z " fill="rgb(0, 0, 0)" fill-opacity="1.000000" />
<path d="M 97.892578 72.797852 L 97.892578 70.950195 L 104.729980 70.950195 L 104.729980 72.797852 Z " fill="rgb(0, 0, 0)" fill-opacity="1.000000" />
<path d="M 104.892578 72.797852 L 104.892578 70.950195 L 111.729980 70.950195 L 111.729980 72.797852 Z " fill="rgb(0, 0, 0)" fill-opacity="1.000000" />
<path d="M 111.892578 72.797852 L 111.892578 70.950195 L 118.729980 70.950195 L 118.729980 72.797852 Z " fill="rgb(0, 0, 0)" fill-opacity="1.000000" />
<path d="M 118.892578 72.797852 L 118.892578 70.950195 L 125.729980 70.950195 L 125.729980 72.797852 Z " fill="rgb(0, 0, 0)" fill-opacity="1.000000" />
<path d="M 125.892578 72.797852 L 125.892578 70.950195 L 132.729980 70.950195 L 132.729980 72.797852 Z " fill="rgb(0, 0, 0)" fill-opacity="1.000000" />
<path d="M 132.892578 72.797852 L 132.892578 70.950195 L 139.729980 70.950195 L 139.729980 72.797852 Z " fill="rgb(0, 0, 0)" fill-opacity="1.000000" />
<path d="M 139.892578 72.797852 L 139.892578 70.950195 L 146.729980 70.950195 L 146.729980 72.797852 Z " fill="rgb(0, 0, 0)" fill-opacity="1.000000" />
<path d="M 146.892578 72.797852 L 146.892578 70.950195 L 153.729980 70.950195 L 153.729980 72.797852 Z " fill="rgb(0, 0, 0)" fill-opacity="1.000000" />
<path d="M 153.892578 72.797852 L 153.892578 70.950195 L 160.729980 70.950195 L 160.729980 72.797852 Z " fill="rgb(0, 0, 0)" fill-opacity="1.000000" />
<path d="M 160.892578 72.797852 L 160.892578 70.950195 L 167.729980 70.950195 L 167.729980 72.797852 Z " fill="rgb(0, 0, 0)" fill-opacity="1.000000" />
<path d="M 167.892578 72.797852 L 167.892578 70.950195 L 174.729980 70.950195 L 174.729980 72.797852 Z " fill="rgb(0, 0, 0)" fill-opacity="1.000000" />
<path d="M 177.449219 78.319336 L 177.449219 72.797852 L 174.892578 72.797852 L 174.892578 70.950195 L 179.167969 70.950195 L 179.167969 78.319336 Z " fill="rgb(0, 0, 0)" fill-opacity="1.000000" />
<path d="M 212.878906 78.319336 L 212.878906 71.412109 L 216.729980 71.412109 L 216.729980 72.335938 L 213.738281 72.335938 L 213.738281 78.319336 Z " fill="rgb(0, 0, 0)" fill-opacity="1.000000" />
<path d="M 216.892578 72.335938 L 216.892578 71.412109 L 223.729980 71.412109 L 223.729980 72.335938 Z " fill="rgb(0, 0, 0)" fill-opacity="1.000000" />
<path d="M 223.892578 72.335938 L 223.892578 71.412109 L 230.729980 71.412109 L 230.729980 72.335938 Z " fill="rgb(0, 0, 0)" fill-opacity="1.000000" />
<path d="M 230.892578 72.335938 L 230.892578 71.412109 L 237.729980 71.412109 L 237.729980 72.335938 Z " fill="rgb(0, 0, 0)" fill-opacity="1.000000" />
<path d="M 237.892578 72.335938 L 237.892578 71.412109 L 244.729980 71.412109 L 244.729980 72.335938 Z " fill="rgb(0, 0, 0)" fill-opacity="1.000000" />
<path d="M 244.892578 72.335938 L 244.892578 71.412109 L 251.729980 71.412109 L 251.729980 72.335938 Z " fill="rgb(0, 0, 0)" fill-opacity="1.000000" />
<path d="M 251.892578 72.335938 L 251.892578 71.412109 L 258.729980 71.412109 L 258.729980 72.335938 Z " fill="rgb(0, 0, 0)" fill-opacity="1.000000" />
<path d="M 258.892578 72.335938 L 258.892578 71.412109 L 265.729980 71.412109 L 265.729980 72.335938 Z " fill="rgb(0, 0, 0)" fill-opacity="1.000000" />
<path d="M 268.878906 78.319336 L 268.878906 72.335938 L 265.892578 72.335938 L 265.892578 71.412109 L 269.738281 71.412109 L 269.738281 78.319336 Z " fill="rgb(0, 0, 0)" fill-opacity="1.000000" />
<path d="M 93.878906 13.319336 L 93.878906 6.412109 L 97.729980 6.412109 L 97.729980 7.335938 L 94.738281 7.335938 L 94.738281 13.319336 Z " fill="rgb(0, 0, 0)" fill-opacity="1.000000" />
<path d="M 93.878906 26.319336 L 93.878906 12.300781 L 94.738281 12.300781 L 94.738281 26.319336 Z " fill="rgb(0, 0, 0)" fill-opacity="1.000000" />
<path d="M 93.878906 33.335938 L 93.878906 25.300781 L 94.738281 25.300781 L 94.738281 32.412109 L 97.729980 32.412109 L 97.729980 33.335938 Z " fill="rgb(0, 0, 0)" fill-opacity="1.000000" />
<path d="M 133.032227 49.418945 L 136.308594 42.866211 L 139.590332 49.418945 Z " fill="rgb(0, 0, 0)" fill-opacity="1.000000" />
<path d="M 135.878906 65.319336 L 135.878906 51.300781 L 136.738281 51.300781 L 136.738281 65.319336 Z " fill="rgb(0, 0, 0)" fill-opacity="1.000000" />
<path d="M 97.892578 33.335938 L 97.892578 32.412109 L 104.729980 32.412109 L 104.729980 33.335938 Z " fill="rgb(0, 0, 0)" fill-opacity="1.000000" />
<path d="M 104.892578 33.335938 L 104.892578 32.412109 L 111.729980 32.412109 L 111.729980 33.335938 Z " fill="rgb(0, 0, 0)" fill-opacity="1.000000" />
<path d="M 111.892578 33.335938 L 111.892578 32.412109 L 118.729980 32.412109 L 118.729980 33.335938 Z " fill="rgb(0, 0, 0)" fill-opacity="1.000000" />
<path d="M 118.892578 33.335938 L 118.892578 32.412109 L 125.729980 32.412109 L 125.729980 33.335938 Z " fill="rgb(0, 0, 0)" fill-opacity="1.000000" />
<path d="M 125.892578 33.335938 L 125.892578 32.412109 L 132.729980 32.412109 L 132.729980 33.335938 Z " fill="rgb(0, 0, 0)" fill-opacity="1.000000" />
<path d="M 132.892578 33.335938 L 132.892578 32.412109 L 139.729980 32.412109 L 139.729980 33.335938 Z " fill="rgb(0, 0, 0)" fill-opacity="1.000000" />
<path d="M 139.892578 33.335938 L 139.892578 32.412109 L 146.729980 32.412109 L 146.729980 33.335938 Z " fill="rgb(0, 0, 0)" fill-opacity="1.000000" />
<path d="M 146.892578 33.335938 L 146.892578 32.412109 L 153.729980 32.412109 L 153.729980 33.335938 Z " fill="rgb(0, 0, 0)" fill-opacity="1.000000" />
<path d="M 153.892578 33.335938 L 153.892578 32.412109 L 160.729980 32.412109 L 160.729980 33.335938 Z " fill="rgb(0, 0, 0)" fill-opacity="1.000000" />
<path d="M 160.892578 33.335938 L 160.892578 32.412109 L 167.729980 32.412109 L 167.729980 33.335938 Z " fill="rgb(0, 0, 0)" fill-opacity="1.000000" />
<path d="M 167.892578 33.335938 L 167.892578 32.412109 L 174.729980 32.412109 L 174.729980 33.335938 Z " fill="rgb(0, 0, 0)" fill-opacity="1.000000" />
<path d="M 174.892578 33.335938 L 174.892578 32.412109 L 177.878906 32.412109 L 177.878906 25.300781 L 178.738281 25.300781 L 178.738281 33.335938 Z " fill="rgb(0, 0, 0)" fill-opacity="1.000000" />
<path d="M 134.450195 22.092285 L 136.136719 22.092285 L 136.136719 16.033691 L 134.117188 17.005859 L 134.117188 15.963867 L 136.125977 15.007812 L 137.210938 15.007812 L 137.210938 22.092285 L 138.875977 22.092285 L 138.875977 23.000000 L 134.450195 23.000000 Z " fill="rgb(0, 0, 0)" fill-opacity="1.000000" />
<path d="M 177.878906 26.319336 L 177.878906 12.300781 L 178.738281 12.300781 L 178.738281 26.319336 Z " fill="rgb(0, 0, 0)" fill-opacity="1.000000" />
<path d="M 97.892578 7.335938 L 97.892578 6.412109 L 104.729980 6.412109 L 104.729980 7.335938 Z " fill="rgb(0, 0, 0)" fill-opacity="1.000000" />
<path d="M 104.892578 7.335938 L 104.892578 6.412109 L 111.729980 6.412109 L 111.729980 7.335938 Z " fill="rgb(0, 0, 0)" fill-opacity="1.000000" />
<path d="M 111.892578 7.335938 L 111.892578 6.412109 L 118.729980 6.412109 L 118.729980 7.335938 Z " fill="rgb(0, 0, 0)" fill-opacity="1.000000" />
<path d="M 118.892578 7.335938 L 118.892578 6.412109 L 125.729980 6.412109 L 125.729980 7.335938 Z " fill="rgb(0, 0, 0)" fill-opacity="1.000000" />
<path d="M 125.892578 7.335938 L 125.892578 6.412109 L 132.729980 6.412109 L 132.729980 7.335938 Z " fill="rgb(0, 0, 0)" fill-opacity="1.000000" />
<path d="M 132.892578 7.335938 L 132.892578 6.412109 L 139.729980 6.412109 L 139.729980 7.335938 Z " fill="rgb(0, 0, 0)" fill-opacity="1.000000" />
<path d="M 139.892578 7.335938 L 139.892578 6.412109 L 146.729980 6.412109 L 146.729980 7.335938 Z " fill="rgb(0, 0, 0)" fill-opacity="1.000000" />
<path d="M 146.892578 7.335938 L 146.892578 6.412109 L 153.729980 6.412109 L 153.729980 7.335938 Z " fill="rgb(0, 0, 0)" fill-opacity="1.000000" />
<path d="M 153.892578 7.335938 L 153.892578 6.412109 L 160.729980 6.412109 L 160.729980 7.335938 Z " fill="rgb(0, 0, 0)" fill-opacity="1.000000" />
<path d="M 160.892578 7.335938 L 160.892578 6.412109 L 167.729980 6.412109 L 167.729980 7.335938 Z " fill="rgb(0, 0, 0)" fill-opacity="1.000000" />
<path d="M 167.892578 7.335938 L 167.892578 6.412109 L 174.729980 6.412109 L 174.729980 7.335938 Z " fill="rgb(0, 0, 0)" fill-opacity="1.000000" />
<path d="M 177.878906 13.319336 L 177.878906 7.335938 L 174.892578 7.335938 L 174.892578 6.412109 L 178.738281 6.412109 L 178.738281 13.319336 Z " fill="rgb(0, 0, 0)" fill-opacity="1.000000" />
</svg>