<svg xmlns="http://www.w3.org/2000/svg" version="1.1" width="218" height="196">
<path d="M 23.089355 176.830078 L 24.979980 176.830078 L 24.979980 179.000000 L 23.089355 179.000000 Z " fill="rgb(0, 0, 0)" fill-opacity="1.000000" />
<path d="M 30.089355 176.830078 L 31.979980 176.830078 L 31.979980 179.000000 L 30.089355 179.000000 Z " fill="rgb(0, 0, 0)" fill-opacity="1.000000" />
<path d="M 37.089355 176.830078 L 38.979980 176.830078 L 38.979980 179.000000 L 37.089355 179.000000 Z " fill="rgb(0, 0, 0)" fill-opacity="1.000000" />
<path d="M 63.032227 176.142578 L 69.590332 172.866211 L 69.590332 179.418945 Z " fill="rgb(0, 0, 0)" fill-opacity="1.000000" />
<path d="M 69.892578 176.335938 L 69.892578 175.412109 L 76.729980 175.412109 L 76.729980 176.335938 Z " fill="rgb(0, 0, 0)" fill-opacity="1.000000" />
<path d="M 76.892578 176.335938 L 76.892578 175.412109 L 79.878906 175.412109 L 79.878906 168.300781 L 80.738281 168.300781 L 80.738281 176.335938 Z " fill="rgb(0, 0, 0)" fill-opacity="1.000000" />
<path d="M 79.878906 169.319336 L 79.878906 155.300781 L 80.738281 155.300781 L 80.738281 169.319336 Z " fill="rgb(0, 0, 0)" fill-opacity="1.000000" />
<path d="M 51.878906 117.319336 L 51.878906 110.412109 L 55.729980 110.412109 L 55.729980 111.335938 L 52.738281 111.335938 L 52.738281 117.319336 Z " fill="rgb(0, 0, 0)" fill-opacity="1.000000" />
<path d="M 51.878906 130.319336 L 51.878906 116.300781 L 52.738281 116.300781 L 52.738281 130.319336 Z " fill="rgb(0, 0, 0)" fill-opacity="1.000000" />
<path d="M 51.878906 137.335938 L 51.878906 129.300781 L 52.738281 129.300781 L 52.738281 136.412109 L 55.729980 136.412109 L 55.729980 137.335938 Z " fill="rgb(0, 0, 0)" fill-opacity="1.000000" />
<path d="M 79.878906 156.319336 L 79.878906 142.300781 L 80.738281 142.300781 L 80.738281 156.319336 Z " fill="rgb(0, 0, 0)" fill-opacity="1.000000" />
<path d="M 55.892578 137.335938 L 55.892578 136.412109 L 62.729980 136.412109 L 62.729980 137.335938 Z " fill="rgb(0, 0, 0)" fill-opacity="1.000000" />
<path d="M 62.892578 137.335938 L 62.892578 136.412109 L 69.729980 136.412109 L 69.729980 137.335938 Z " fill="rgb(0, 0, 0)" fill-opacity="1.000000" />
<path d="M 69.892578 137.335938 L 69.892578 136.412109 L 76.729980 136.412109 L 76.729980 137.335938 Z " fill="rgb(0, 0, 0)" fill-opacity="1.000000" />
<path d="M 76.892578 137.335938 L 76.892578 136.412109 L 83.729980 136.412109 L 83.729980 137.335938 Z " fill="rgb(0, 0, 0)" fill-opacity="1.000000" />
<path d="M 83.892578 137.335938 L 83.892578 136.412109 L 90.729980 136.412109 L 90.729980 137.335938 Z " fill="rgb(0, 0, 0)" fill-opacity="1.000000" />
<path d="M 90.892578 137.335938 L 90.892578 136.412109 L 97.729980 136.412109 L 97.729980 137.335938 Z " fill="rgb(0, 0, 0)" fill-opacity="1.000000" />
<path d="M 97.892578 137.335938 L 97.892578 136.412109 L 104.729980 136.412109 L 104.729980 137.335938 Z " fill="rgb(0, 0, 0)" fill-opacity="1.000000" />
<path d="M 104.892578 137.335938 L 104.892578 136.412109 L 107.878906 136.412109 L 107.878906 129.300781 L 108.738281 129.300781 L 108.738281 137.335938 Z " fill="rgb(0, 0, 0)" fill-opacity="1.000000" />
<path d="M 59.023926 118.105469 L 61.301270 118.105469 L 61.301270 118.873535 L 60.012207 118.873535 L 60.012207 127.145020 L 61.301270 127.145020 L 61.301270 127.913086 L 59.023926 127.913086 Z " fill="rgb(0, 0, 0)" fill-opacity="1.000000" />
<path d="M 64.450195 126.092285 L 66.136719 126.092285 L 66.136719 120.033691 L 64.117188 121.005859 L 64.117188 119.963867 L 66.125977 119.007812 L 67.210938 119.007812 L 67.210938 126.092285 L 68.875977 126.092285 L 68.875977 127.000000 L 64.450195 127.000000 Z " fill="rgb(0, 0, 0)" fill-opacity="1.000000" />
<path d="M 79.003418 126.086914 L 82.687988 126.086914 L 82.687988 127.000000 L 77.816406 127.000000 L 77.816406 126.086914 Q 78.820801 125.028809 79.572754 124.217773 Q 80.324707 123.406738 80.609375 123.073730 Q 81.146484 122.418457 81.334473 122.012939 Q 81.522461 121.607422 81.522461 121.183105 Q 81.522461 120.511719 81.127686 120.130371 Q 80.732910 119.749023 80.045410 119.749023 Q 79.556641 119.749023 79.019531 119.926270 Q 78.482422 120.103516 77.880859 120.463379 L 77.880859 119.367676 Q 78.434082 119.104492 78.968506 118.970215 Q 79.502930 118.835938 80.023926 118.835938 Q 81.200195 118.835938 81.917236 119.461670 Q 82.634277 120.087402 82.634277 121.102539 Q 82.634277 121.618164 82.395264 122.133789 Q 82.156250 122.649414 81.619141 123.272461 Q 81.318359 123.621582 80.746338 124.239258 Q 80.174316 124.856934 79.003418 126.086914 Z " fill="rgb(0, 0, 0)" fill-opacity="1.000000" />
<path d="M 95.167969 122.708496 Q 95.957520 122.917969 96.376465 123.452393 Q 96.795410 123.986816 96.795410 124.787109 Q 96.795410 125.893555 96.051514 126.524658 Q 95.307617 127.155762 93.991699 127.155762 Q 93.438477 127.155762 92.863770 127.053711 Q 92.289062 126.951660 91.735840 126.758301 L 91.735840 125.678711 Q 92.283691 125.963379 92.815430 126.103027 Q 93.347168 126.242676 93.873535 126.242676 Q 94.765137 126.242676 95.243164 125.839844 Q 95.721191 125.437012 95.721191 124.679688 Q 95.721191 123.981445 95.243164 123.570557 Q 94.765137 123.159668 93.948730 123.159668 L 93.121582 123.159668 L 93.121582 122.268066 L 93.948730 122.268066 Q 94.695312 122.268066 95.114258 121.940430 Q 95.533203 121.612793 95.533203 121.027344 Q 95.533203 120.409668 95.143799 120.079346 Q 94.754395 119.749023 94.034668 119.749023 Q 93.556641 119.749023 93.046387 119.856445 Q 92.536133 119.963867 91.977539 120.178711 L 91.977539 119.179688 Q 92.627441 119.007812 93.135010 118.921875 Q 93.642578 118.835938 94.034668 118.835938 Q 95.205566 118.835938 95.906494 119.424072 Q 96.607422 120.012207 96.607422 120.984375 Q 96.607422 121.645020 96.239502 122.085449 Q 95.871582 122.525879 95.167969 122.708496 Z " fill="rgb(0, 0, 0)" fill-opacity="1.000000" />
<path d="M 101.867188 118.105469 L 101.867188 127.913086 L 99.589844 127.913086 L 99.589844 127.145020 L 100.878906 127.145020 L 100.878906 118.873535 L 99.589844 118.873535 L 99.589844 118.105469 Z " fill="rgb(0, 0, 0)" fill-opacity="1.000000" />
<path d="M 107.878906 130.319336 L 107.878906 116.300781 L 108.738281 116.300781 L 108.738281 130.319336 Z " fill="rgb(0, 0, 0)" fill-opacity="1.000000" />
<path d="M 112.032227 124.142578 L 118.590332 120.866211 L 118.590332 127.418945 Z " fill="rgb(0, 0, 0)" fill-opacity="1.000000" />
<path d="M 118.892578 124.335938 L 118.892578 123.412109 L 125.729980 123.412109 L 125.729980 124.335938 Z " fill="rgb(0, 0, 0)" fill-opacity="1.000000" />
<path d="M 125.892578 124.335938 L 125.892578 123.412109 L 128.878906 123.412109 L 128.878906 116.300781 L 129.738281 116.300781 L 129.738281 124.335938 Z " fill="rgb(0, 0, 0)" fill-opacity="1.000000" />
<path d="M 55.892578 111.335938 L 55.892578 110.412109 L 62.729980 110.412109 L 62.729980 111.335938 Z " fill="rgb(0, 0, 0)" fill-opacity="1.000000" />
<path d="M 62.892578 111.335938 L 62.892578 110.412109 L 69.729980 110.412109 L 69.729980 111.335938 Z " fill="rgb(0, 0, 0)" fill-opacity="1.000000" />
<path d="M 69.892578 111.335938 L 69.892578 110.412109 L 76.729980 110.412109 L 76.729980 111.335938 Z " fill="rgb(0, 0, 0)" fill-opacity="1.000000" />
<path d="M 76.892578 111.335938 L 76.892578 110.412109 L 83.729980 110.412109 L 83.729980 111.335938 Z " fill="rgb(0, 0, 0)" fill-opacity="1.000000" />
<path d="M 83.892578 111.335938 L 83.892578 110.412109 L 90.729980 110.412109 L 90.729980 111.335938 Z " fill="rgb(0, 0, 0)" fill-opacity="1.000000" />
<path d="M 90.892578 111.335938 L 90.892578 110.412109 L 97.729980 110.412109 L 97.729980 111.335938 Z " fill="rgb(0, 0, 0)" fill-opacity="1.000000" />
<path d="M 97.892578 111.335938 L 97.892578 110.412109 L 104.729980 110.412109 L 104.729980 111.335938 Z " fill="rgb(0, 0, 0)" fill-opacity="1.000000" />
<path d="M 107.878906 117.319336 L 107.878906 111.335938 L 104.892578 111.335938 L 104.892578 110.412109 L 108.738281 110.412109 L 108.738281 117.319336 Z " fill="rgb(0, 0, 0)" fill-opacity="1.000000" />
<path d="M 128.878906 117.319336 L 128.878906 103.300781 L 129.738281 103.300781 L 129.738281 117.319336 Z " fill="rgb(0, 0, 0)" fill-opacity="1.000000" />
<path d="M 100.878906 65.319336 L 100.878906 58.412109 L 104.729980 58.412109 L 104.729980 59.335938 L 101.738281 59.335938 L 101.738281 65.319336 Z " fill="rgb(0, 0, 0)" fill-opacity="1.000000" />
<path d="M 100.878906 78.319336 L 100.878906 64.300781 L 101.738281 64.300781 L 101.738281 78.319336 Z " fill="rgb(0, 0, 0)" fill-opacity="1.000000" />
<path d="M 100.878906 85.335938 L 100.878906 77.300781 L 101.738281 77.300781 L 101.738281 84.412109 L 104.729980 84.412109 L 104.729980 85.335938 Z " fill="rgb(0, 0, 0)" fill-opacity="1.000000" />
<path d="M 128.878906 104.319336 L 128.878906 90.300781 L 129.738281 90.300781 L 129.738281 104.319336 Z " fill="rgb(0, 0, 0)" fill-opacity="1.000000" />
<path d="M 104.892578 85.335938 L 104.892578 84.412109 L 111.729980 84.412109 L 111.729980 85.335938 Z " fill="rgb(0, 0, 0)" fill-opacity="1.000000" />
<path d="M 111.892578 85.335938 L 111.892578 84.412109 L 118.729980 84.412109 L 118.729980 85.335938 Z " fill="rgb(0, 0, 0)" fill-opacity="1.000000" />
<path d="M 118.892578 85.335938 L 118.892578 84.412109 L 125.729980 84.412109 L 125.729980 85.335938 Z " fill="rgb(0, 0, 0)" fill-opacity="1.000000" />
<path d="M 125.892578 85.335938 L 125.892578 84.412109 L 132.729980 84.412109 L 132.729980 85.335938 Z " fill="rgb(0, 0, 0)" fill-opacity="1.000000" />
<path d="M 132.892578 85.335938 L 132.892578 84.412109 L 139.729980 84.412109 L 139.729980 85.335938 Z " fill="rgb(0, 0, 0)" fill-opacity="1.000000" />
<path d="M 139.892578 85.335938 L 139.892578 84.412109 L 146.729980 84.412109 L 146.729980 85.335938 Z " fill="rgb(0, 0, 0)" fill-opacity="1.000000" />
<path d="M 146.892578 85.335938 L 146.892578 84.412109 L 153.729980 84.412109 L 153.729980 85.335938 Z " fill="rgb(0, 0, 0)" fill-opacity="1.000000" />
<path d="M 153.892578 85.335938 L 153.892578 84.412109 L 156.878906 84.412109 L 156.878906 77.300781 L 157.738281 77.300781 L 157.738281 85.335938 Z " fill="rgb(0, 0, 0)" fill-opacity="1.000000" />
<path d="M 108.023926 66.105469 L 110.301270 66.105469 L 110.301270 66.873535 L 109.012207 66.873535 L 109.012207 75.145020 L 110.301270 75.145020 L 110.301270 75.913086 L 108.023926 75.913086 Z " fill="rgb(0, 0, 0)" fill-opacity="1.000000" />
<path d="M 113.450195 74.092285 L 115.136719 74.092285 L 115.136719 68.033691 L 113.117188 69.005859 L 113.117188 67.963867 L 115.125977 67.007812 L 116.210938 67.007812 L 116.210938 74.092285 L 117.875977 74.092285 L 117.875977 75.000000 L 113.450195 75.000000 Z " fill="rgb(0, 0, 0)" fill-opacity="1.000000" />
<path d="M 128.003418 74.086914 L 131.687988 74.086914 L 131.687988 75.000000 L 126.816406 75.000000 L 126.816406 74.086914 Q 127.820801 73.028809 128.572754 72.217773 Q 129.324707 71.406738 129.609375 71.073730 Q 130.146484 70.418457 130.334473 70.012939 Q 130.522461 69.607422 130.522461 69.183105 Q 130.522461 68.511719 130.127686 68.130371 Q 129.732910 67.749023 129.045410 67.749023 Q 128.556641 67.749023 128.019531 67.926270 Q 127.482422 68.103516 126.880859 68.463379 L 126.880859 67.367676 Q 127.434082 67.104492 127.968506 66.970215 Q 128.502930 66.835938 129.023926 66.835938 Q 130.200195 66.835938 130.917236 67.461670 Q 131.634277 68.087402 131.634277 69.102539 Q 131.634277 69.618164 131.395264 70.133789 Q 131.156250 70.649414 130.619141 71.272461 Q 130.318359 71.621582 129.746338 72.239258 Q 129.174316 72.856934 128.003418 74.086914 Z " fill="rgb(0, 0, 0)" fill-opacity="1.000000" />
<path d="M 144.167969 70.708496 Q 144.957520 70.917969 145.376465 71.452393 Q 145.795410 71.986816 145.795410 72.787109 Q 145.795410 73.893555 145.051514 74.524658 Q 144.307617 75.155762 142.991699 75.155762 Q 142.438477 75.155762 141.863770 75.053711 Q 141.289062 74.951660 140.735840 74.758301 L 140.735840 73.678711 Q 141.283691 73.963379 141.815430 74.103027 Q 142.347168 74.242676 142.873535 74.242676 Q 143.765137 74.242676 144.243164 73.839844 Q 144.721191 73.437012 144.721191 72.679688 Q 144.721191 71.981445 144.243164 71.570557 Q 143.765137 71.159668 142.948730 71.159668 L 142.121582 71.159668 L 142.121582 70.268066 L 142.948730 70.268066 Q 143.695312 70.268066 144.114258 69.940430 Q 144.533203 69.612793 144.533203 69.027344 Q 144.533203 68.409668 144.143799 68.079346 Q 143.754395 67.749023 143.034668 67.749023 Q 142.556641 67.749023 142.046387 67.856445 Q 141.536133 67.963867 140.977539 68.178711 L 140.977539 67.179688 Q 141.627441 67.007812 142.135010 66.921875 Q 142.642578 66.835938 143.034668 66.835938 Q 144.205566 66.835938 144.906494 67.424072 Q 145.607422 68.012207 145.607422 68.984375 Q 145.607422 69.645020 145.239502 70.085449 Q 144.871582 70.525879 144.167969 70.708496 Z " fill="rgb(0, 0, 0)" fill-opacity="1.000000" />
<path d="M 150.867188 66.105469 L 150.867188 75.913086 L 148.589844 75.913086 L 148.589844 75.145020 L 149.878906 75.145020 L 149.878906 66.873535 L 148.589844 66.873535 L 148.589844 66.105469 Z " fill="rgb(0, 0, 0)" fill-opacity="1.000000" />
<path d="M 156.878906 78.319336 L 156.878906 64.300781 L 157.738281 64.300781 L 157.738281 78.319336 Z " fill="rgb(0, 0, 0)" fill-opacity="1.000000" />
<path d="M 161.032227 72.142578 L 167.590332 68.866211 L 167.590332 75.418945 Z " fill="rgb(0, 0, 0)" fill-opacity="1.000000" />
<path d="M 167.892578 72.335938 L 167.892578 71.412109 L 174.729980 71.412109 L 174.729980 72.335938 Z " fill="rgb(0, 0, 0)" fill-opacity="1.000000" />
<path d="M 174.892578 72.335938 L 174.892578 71.412109 L 181.729980 71.412109 L 181.729980 72.335938 Z " fill="rgb(0, 0, 0)" fill-opacity="1.000000" />
<path d="M 181.892578 72.335938 L 181.892578 71.412109 L 184.878906 71.412109 L 184.878906 64.300781 L 185.738281 64.300781 L 185.738281 72.335938 Z " fill="rgb(0, 0, 0)" fill-opacity="1.000000" />
<path d="M 104.892578 59.335938 L 104.892578 58.412109 L 111.729980 58.412109 L 111.729980 59.335938 Z " fill="rgb(0, 0, 0)" fill-opacity="1.000000" />
<path d="M 111.892578 59.335938 L 111.892578 58.412109 L 118.729980 58.412109 L 118.729980 59.335938 Z " fill="rgb(0, 0, 0)" fill-opacity="1.000000" />
<path d="M 118.892578 59.335938 L 118.892578 58.412109 L 125.729980 58.412109 L 125.729980 59.335938 Z " fill="rgb(0, 0, 0)" fill-opacity="1.000000" />
<path d="M 125.892578 59.335938 L 125.892578 58.412109 L 132.729980 58.412109 L 132.729980 59.335938 Z " fill="rgb(0, 0, 0)" fill-opacity="1.000000" />
<path d="M 132.892578 59.335938 L 132.892578 58.412109 L 139.729980 58.412109 L 139.729980 59.335938 Z " fill="rgb(0, 0, 0)" fill-opacity="1.000000" />
<path d="M 139.892578 59.335938 L 139.892578 58.412109 L 146.729980 58.412109 L 146.729980 59.335938 Z " fill="rgb(0, 0, 0)" fill-opacity="1.000000" />
<path d="M 146.892578 59.335938 L 146.892578 58.412109 L 153.729980 58.412109 L 153.729980 59.335938 Z " fill="rgb(0, 0, 0)" fill-opacity="1.000000" />
<path d="M 156.878906 65.319336 L 156.878906 59.335938 L 153.892578 59.335938 L 153.892578 58.412109 L 157.738281 58.412109 L 157.738281 65.319336 Z " fill="rgb(0, 0, 0)" fill-opacity="1.000000" />
<path d="M 184.878906 65.319336 L 184.878906 51.300781 L 185.738281 51.300781 L 185.738281 65.319336 Z " fill="rgb(0, 0, 0)" fill-opacity="1.000000" />
<path d="M 156.878906 13.319336 L 156.878906 6.412109 L 160.729980 6.412109 L 160.729980 7.335938 L 157.738281 7.335938 L 157.738281 13.319336 Z " fill="rgb(0, 0, 0)" fill-opacity="1.000000" />
<path d="M 156.878906 26.319336 L 156.878906 12.300781 L 157.738281 12.300781 L 157.738281 26.319336 Z " fill="rgb(0, 0, 0)" fill-opacity="1.000000" />
<path d="M 156.878906 33.335938 L 156.878906 25.300781 L 157.738281 25.300781 L 157.738281 32.412109 L 160.729980 32.412109 L 160.729980 33.335938 Z " fill="rgb(0, 0, 0)" fill-opacity="1.000000" />
<path d="M 184.878906 52.319336 L 184.878906 38.300781 L 185.738281 38.300781 L 185.738281 52.319336 Z " fill="rgb(0, 0, 0)" fill-opacity="1.000000" />
<path d="M 160.892578 33.335938 L 160.892578 32.412109 L 167.729980 32.412109 L 167.729980 33.335938 Z " fill="rgb(0, 0, 0)" fill-opacity="1.000000" />
<path d="M 167.892578 33.335938 L 167.892578 32.412109 L 174.729980 32.412109 L 174.729980 33.335938 Z " fill="rgb(0, 0, 0)" fill-opacity="1.000000" />
<path d="M 174.892578 33.335938 L 174.892578 32.412109 L 181.729980 32.412109 L 181.729980 33.335938 Z " fill="rgb(0, 0, 0)" fill-opacity="1.000000" />
<path d="M 181.892578 33.335938 L 181.892578 32.412109 L 188.729980 32.412109 L 188.729980 33.335938 Z " fill="rgb(0, 0, 0)" fill-opacity="1.000000" />
<path d="M 188.892578 33.335938 L 188.892578 32.412109 L 195.729980 32.412109 L 195.729980 33.335938 Z " fill="rgb(0, 0, 0)" fill-opacity="1.000000" />
<path d="M 195.892578 33.335938 L 195.892578 32.412109 L 202.729980 32.412109 L 202.729980 33.335938 Z " fill="rgb(0, 0, 0)" fill-opacity="1.000000" />
<path d="M 202.892578 33.335938 L 202.892578 32.412109 L 209.729980 32.412109 L 209.729980 33.335938 Z " fill="rgb(0, 0, 0)" fill-opacity="1.000000" />
<path d="M 209.892578 33.335938 L 209.892578 32.412109 L 212.878906 32.412109 L 212.878906 25.300781 L 213.738281 25.300781 L 213.738281 33.335938 Z " fill="rgb(0, 0, 0)" fill-opacity="1.000000" />
<path d="M 164.023926 14.105469 L 166.301270 14.105469 L 166.301270 14.873535 L 165.012207 14.873535 L 165.012207 23.145020 L 166.301270 23.145020 L 166.301270 23.913086 L 164.023926 23.913086 Z " fill="rgb(0, 0, 0)" fill-opacity="1.000000" />
<path d="M 169.450195 22.092285 L 171.136719 22.092285 L 171.136719 16.033691 L 169.117188 17.005859 L 169.117188 15.963867 L 171.125977 15.007812 L 172.210938 15.007812 L 172.210938 22.092285 L 173.875977 22.092285 L 173.875977 23.000000 L 169.450195 23.000000 Z " fill="rgb(0, 0, 0)" fill-opacity="1.000000" />
<path d="M 184.003418 22.086914 L 187.687988 22.086914 L 187.687988 23.000000 L 182.816406 23.000000 L 182.816406 22.086914 Q 183.820801 21.028809 184.572754 20.217773 Q 185.324707 19.406738 185.609375 19.073730 Q 186.146484 18.418457 186.334473 18.012939 Q 186.522461 17.607422 186.522461 17.183105 Q 186.522461 16.511719 186.127686 16.130371 Q 185.732910 15.749023 185.045410 15.749023 Q 184.556641 15.749023 184.019531 15.926270 Q 183.482422 16.103516 182.880859 16.463379 L 182.880859 15.367676 Q 183.434082 15.104492 183.968506 14.970215 Q 184.502930 14.835938 185.023926 14.835938 Q 186.200195 14.835938 186.917236 15.461670 Q 187.634277 16.087402 187.634277 17.102539 Q 187.634277 17.618164 187.395264 18.133789 Q 187.156250 18.649414 186.619141 19.272461 Q 186.318359 19.621582 185.746338 20.239258 Q 185.174316 20.856934 184.003418 22.086914 Z " fill="rgb(0, 0, 0)" fill-opacity="1.000000" />
<path d="M 200.167969 18.708496 Q 200.957520 18.917969 201.376465 19.452393 Q 201.795410 19.986816 201.795410 20.787109 Q 201.795410 21.893555 201.051514 22.524658 Q 200.307617 23.155762 198.991699 23.155762 Q 198.438477 23.155762 197.863770 23.053711 Q 197.289062 22.951660 196.735840 22.758301 L 196.735840 21.678711 Q 197.283691 21.963379 197.815430 22.103027 Q 198.347168 22.242676 198.873535 22.242676 Q 199.765137 22.242676 200.243164 21.839844 Q 200.721191 21.437012 200.721191 20.679688 Q 200.721191 19.981445 200.243164 19.570557 Q 199.765137 19.159668 198.948730 19.159668 L 198.121582 19.159668 L 198.121582 18.268066 L 198.948730 18.268066 Q 199.695312 18.268066 200.114258 17.940430 Q 200.533203 17.612793 200.533203 17.027344 Q 200.533203 16.409668 200.143799 16.079346 Q 199.754395 15.749023 199.034668 15.749023 Q 198.556641 15.749023 198.046387 15.856445 Q 197.536133 15.963867 196.977539 16.178711 L 196.977539 15.179688 Q 197.627441 15.007812 198.135010 14.921875 Q 198.642578 14.835938 199.034668 14.835938 Q 200.205566 14.835938 200.906494 15.424072 Q 201.607422 16.012207 201.607422 16.984375 Q 201.607422 17.645020 201.239502 18.085449 Q 200.871582 18.525879 200.167969 18.708496 Z " fill="rgb(0, 0, 0)" fill-opacity="1.000000" />
<path d="M 206.867188 14.105469 L 206.867188 23.913086 L 204.589844 23.913086 L 204.589844 23.145020 L 205.878906 23.145020 L 205.878906 14.873535 L 204.589844 14.873535 L 204.589844 14.105469 Z " fill="rgb(0, 0, 0)" fill-opacity="1.000000" />
<path d="M 212.878906 26.319336 L 212.878906 12.300781 L 213.738281 12.300781 L 213.738281 26.319336 Z " fill="rgb(0, 0, 0)" fill-opacity="1.000000" />
<path d="M 160.892578 7.335938 L 160.892578 6.412109 L 167.729980 6.412109 L 167.729980 7.335938 Z " fill="rgb(0, 0, 0)" fill-opacity="1.000000" />
<path d="M 167.892578 7.335938 L 167.892578 6.412109 L 174.729980 6.412109 L 174.729980 7.335938 Z " fill="rgb(0, 0, 0)" fill-opacity="1.000000" />
<path d="M 174.892578 7.335938 L 174.892578 6.412109 L 181.729980 6.412109 L 181.729980 7.335938 Z " fill="rgb(0, 0, 0)" fill-opacity="1.000000" />
<path d="M 181.892578 7.335938 L 181.892578 6.412109 L 188.729980 6.412109 L 188.729980 7.335938 Z " fill="rgb(0, 0, 0)" fill-opacity="1.000000" />
<path d="M 188.892578 7.335938 L 188.892578 6.412109 L 195.729980 6.412109 L 195.729980 7.335938 Z " fill="rgb(0, 0, 0)" fill-opacity="1.000000" />
<path d="M 195.892578 7.335938 L 195.892578 6.412109 L 202.729980 6.412109 L 202.729980 7.335938 Z " fill="rgb(0, 0, 0)" fill-opacity="1.000000" />
<path d="M 202.892578 7.335938 L 202.892578 6.412109 L 209.729980 6.412109 L 209.729980 7.335938 Z " fill="rgb(0, 0, 0)" fill-opacity="1.000000" />
<path d="M 212.878906 13.319336 L 212.878906 7.335938 L 209.892578 7.335938 L 209.892578 6.412109 L 213.738281 6.412109 L 213.738281 13.319336 Z " fill="rgb(0, 0, 0)" fill-opacity="1.000000" />
</svg>