<svg xmlns="http://www.w3.org/2000/svg" version="1.1" width="302" height="170">
<path d="M 8.450195 35.092285 L 10.136719 35.092285 L 10.136719 29.033691 L 8.117188 30.005859 L 8.117188 28.963867 L 10.125977 28.007812 L 11.210938 28.007812 L 11.210938 35.092285 L 12.875977 35.092285 L 12.875977 36.000000 L 8.450195 36.000000 Z " fill="rgb(0, 0, 0)" fill-opacity="1.000000" />
<path d="M 9.003418 87.086914 L 12.687988 87.086914 L 12.687988 88.000000 L 7.816406 88.000000 L 7.816406 87.086914 Q 8.820801 86.028809 9.572754 85.217773 Q 10.324707 84.406738 10.609375 84.073730 Q 11.146484 83.418457 11.334473 83.012939 Q 11.522461 82.607422 11.522461 82.183105 Q 11.522461 81.511719 11.127686 81.130371 Q 10.732910 80.749023 10.045410 80.749023 Q 9.556641 80.749023 9.019531 80.926270 Q 8.482422 81.103516 7.880859 81.463379 L 7.880859 80.367676 Q 8.434082 80.104492 8.968506 79.970215 Q 9.502930 79.835938 10.023926 79.835938 Q 11.200195 79.835938 11.917236 80.461670 Q 12.634277 81.087402 12.634277 82.102539 Q 12.634277 82.618164 12.395264 83.133789 Q 12.156250 83.649414 11.619141 84.272461 Q 11.318359 84.621582 10.746338 85.239258 Q 10.174316 85.856934 9.003418 87.086914 Z " fill="rgb(0, 0, 0)" fill-opacity="1.000000" />
<path d="M 11.167969 135.708496 Q 11.957520 135.917969 12.376465 136.452393 Q 12.795410 136.986816 12.795410 137.787109 Q 12.795410 138.893555 12.051514 139.524658 Q 11.307617 140.155762 9.991699 140.155762 Q 9.438477 140.155762 8.863770 140.053711 Q 8.289062 139.951660 7.735840 139.758301 L 7.735840 138.678711 Q 8.283691 138.963379 8.815430 139.103027 Q 9.347168 139.242676 9.873535 139.242676 Q 10.765137 139.242676 11.243164 138.839844 Q 11.721191 138.437012 11.721191 137.679688 Q 11.721191 136.981445 11.243164 136.570557 Q 10.765137 136.159668 9.948730 136.159668 L 9.121582 136.159668 L 9.121582 135.268066 L 9.948730 135.268066 Q 10.695312 135.268066 11.114258 134.940430 Q 11.533203 134.612793 11.533203 134.027344 Q 11.533203 133.409668 11.143799 133.079346 Q 10.754395 132.749023 10.034668 132.749023 Q 9.556641 132.749023 9.046387 132.856445 Q 8.536133 132.963867 7.977539 133.178711 L 7.977539 132.179688 Q 8.627441 132.007812 9.135010 131.921875 Q 9.642578 131.835938 10.034668 131.835938 Q 11.205566 131.835938 11.906494 132.424072 Q 12.607422 133.012207 12.607422 133.984375 Q 12.607422 134.645020 12.239502 135.085449 Q 11.871582 135.525879 11.167969 135.708496 Z " fill="rgb(0, 0, 0)" fill-opacity="1.000000" />
<path d="M 30.878906 150.335938 L 30.878906 142.300781 L 31.738281 142.300781 L 31.738281 149.412109 L 34.729980 149.412109 L 34.729980 150.335938 Z " fill="rgb(0, 0, 0)" fill-opacity="1.000000" />
<path d="M 41.892578 150.335938 L 41.892578 149.412109 L 48.729980 149.412109 L 48.729980 150.335938 Z " fill="rgb(0, 0, 0)" fill-opacity="1.000000" />
<path d="M 55.892578 150.335938 L 55.892578 149.412109 L 62.729980 149.412109 L 62.729980 150.335938 Z " fill="rgb(0, 0, 0)" fill-opacity="1.000000" />
<path d="M 69.892578 150.335938 L 69.892578 149.412109 L 76.729980 149.412109 L 76.729980 150.335938 Z " fill="rgb(0, 0, 0)" fill-opacity="1.000000" />
<path d="M 83.892578 150.335938 L 83.892578 149.412109 L 86.878906 149.412109 L 86.878906 142.300781 L 87.738281 142.300781 L 87.738281 150.335938 Z " fill="rgb(0, 0, 0)" fill-opacity="1.000000" />
<path d="M 128.878906 150.335938 L 128.878906 142.300781 L 129.738281 142.300781 L 129.738281 149.412109 L 132.729980 149.412109 L 132.729980 150.335938 Z " fill="rgb(0, 0, 0)" fill-opacity="1.000000" />
<path d="M 132.892578 150.335938 L 132.892578 149.412109 L 139.729980 149.412109 L 139.729980 150.335938 Z " fill="rgb(0, 0, 0)" fill-opacity="1.000000" />
<path d="M 139.892578 150.335938 L 139.892578 149.412109 L 146.729980 149.412109 L 146.729980 150.335938 Z " fill="rgb(0, 0, 0)" fill-opacity="1.000000" />
<path d="M 146.892578 150.335938 L 146.892578 149.412109 L 153.729980 149.412109 L 153.729980 150.335938 Z " fill="rgb(0, 0, 0)" fill-opacity="1.000000" />
<path d="M 153.892578 150.335938 L 153.892578 149.412109 L 160.729980 149.412109 L 160.729980 150.335938 Z " fill="rgb(0, 0, 0)" fill-opacity="1.000000" />
<path d="M 160.892578 150.335938 L 160.892578 149.412109 L 167.729980 149.412109 L 167.729980 150.335938 Z " fill="rgb(0, 0, 0)" fill-opacity="1.000000" />
<path d="M 167.892578 150.335938 L 167.892578 149.412109 L 174.729980 149.412109 L 174.729980 150.335938 Z " fill="rgb(0, 0, 0)" fill-opacity="1.000000" />
<path d="M 174.892578 150.335938 L 174.892578 149.412109 L 181.729980 149.412109 L 181.729980 150.335938 Z " fill="rgb(0, 0, 0)" fill-opacity="1.000000" />
<path d="M 181.892578 150.335938 L 181.892578 149.412109 L 184.878906 149.412109 L 184.878906 142.300781 L 185.738281 142.300781 L 185.738281 150.335938 Z " fill="rgb(0, 0, 0)" fill-opacity="1.000000" />
<path d="M 240.878906 150.335938 L 240.878906 142.300781 L 241.738281 142.300781 L 241.738281 149.412109 L 244.729980 149.412109 L 244.729980 150.335938 Z " fill="rgb(0, 0, 0)" fill-opacity="1.000000" />
<path d="M 251.892578 150.335938 L 251.892578 149.412109 L 258.729980 149.412109 L 258.729980 150.335938 Z " fill="rgb(0, 0, 0)" fill-opacity="1.000000" />
<path d="M 265.892578 150.335938 L 265.892578 149.412109 L 272.729980 149.412109 L 272.729980 150.335938 Z " fill="rgb(0, 0, 0)" fill-opacity="1.000000" />
<path d="M 279.892578 150.335938 L 279.892578 149.412109 L 286.729980 149.412109 L 286.729980 150.335938 Z " fill="rgb(0, 0, 0)" fill-opacity="1.000000" />
<path d="M 293.892578 150.335938 L 293.892578 149.412109 L 296.878906 149.412109 L 296.878906 142.300781 L 297.738281 142.300781 L 297.738281 150.335938 Z " fill="rgb(0, 0, 0)" fill-opacity="1.000000" />
<path d="M 107.878906 137.335938 L 107.878906 129.300781 L 108.738281 129.300781 L 108.738281 136.412109 L 111.729980 136.412109 L 111.729980 137.335938 Z " fill="rgb(0, 0, 0)" fill-opacity="1.000000" />
<path d="M 111.892578 137.335938 L 111.892578 136.412109 L 118.729980 136.412109 L 118.729980 137.335938 Z " fill="rgb(0, 0, 0)" fill-opacity="1.000000" />
<path d="M 119.032227 140.418945 L 119.032227 133.866211 L 125.590332 137.142578 Z " fill="rgb(0, 0, 0)" fill-opacity="1.000000" />
<path d="M 128.878906 143.319336 L 128.878906 129.300781 L 129.738281 129.300781 L 129.738281 143.319336 Z " fill="rgb(0, 0, 0)" fill-opacity="1.000000" />
<path d="M 151.608398 138.066406 Q 151.361328 138.694824 150.979980 139.720703 Q 150.448242 141.138672 150.265625 141.450195 Q 150.018555 141.869141 149.647949 142.078613 Q 149.277344 142.288086 148.783203 142.288086 L 147.988281 142.288086 L 147.988281 141.460938 L 148.573730 141.460938 Q 149.008789 141.460938 149.255859 141.208496 Q 149.502930 140.956055 149.884277 139.903320 L 147.558594 133.984375 L 148.605957 133.984375 L 150.389160 138.689453 L 152.145508 133.984375 L 153.192871 133.984375 Z " fill="rgb(0, 0, 0)" fill-opacity="1.000000" />
<path d="M 160.015625 136.498047 L 160.015625 136.981445 L 155.734863 136.981445 L 155.734863 137.013672 Q 155.691895 138.243652 156.204834 138.780762 Q 156.717773 139.317871 157.652344 139.317871 Q 158.125000 139.317871 158.640625 139.167480 Q 159.156250 139.017090 159.741699 138.710938 L 159.741699 139.693848 Q 159.177734 139.924805 158.654053 140.040283 Q 158.130371 140.155762 157.641602 140.155762 Q 156.239746 140.155762 155.450195 139.315186 Q 154.660645 138.474609 154.660645 136.997559 Q 154.660645 135.558105 155.434082 134.698730 Q 156.207520 133.839355 157.496582 133.839355 Q 158.645996 133.839355 159.309326 134.618164 Q 159.972656 135.396973 160.015625 136.498047 Z M 159.027344 136.208008 Q 158.962891 135.584961 158.573486 135.131104 Q 158.184082 134.677246 157.453613 134.677246 Q 156.739258 134.677246 156.277344 135.149902 Q 155.815430 135.622559 155.772461 136.213379 Z " fill="rgb(0, 0, 0)" fill-opacity="1.000000" />
<path d="M 166.645020 136.272461 L 166.645020 140.000000 L 165.651367 140.000000 L 165.651367 136.272461 Q 165.651367 135.461426 165.366699 135.080078 Q 165.082031 134.698730 164.475098 134.698730 Q 163.782227 134.698730 163.408936 135.190186 Q 163.035645 135.681641 163.035645 136.600098 L 163.035645 140.000000 L 162.047363 140.000000 L 162.047363 133.984375 L 163.035645 133.984375 L 163.035645 134.886719 Q 163.298828 134.371094 163.750000 134.105225 Q 164.201172 133.839355 164.818848 133.839355 Q 165.737305 133.839355 166.191162 134.443604 Q 166.645020 135.047852 166.645020 136.272461 Z " fill="rgb(0, 0, 0)" fill-opacity="1.000000" />
<path d="M 184.878906 143.319336 L 184.878906 129.300781 L 185.738281 129.300781 L 185.738281 143.319336 Z " fill="rgb(0, 0, 0)" fill-opacity="1.000000" />
<path d="M 30.878906 130.319336 L 30.878906 123.412109 L 34.729980 123.412109 L 34.729980 124.335938 L 31.738281 124.335938 L 31.738281 130.319336 Z " fill="rgb(0, 0, 0)" fill-opacity="1.000000" />
<path d="M 41.892578 124.335938 L 41.892578 123.412109 L 48.729980 123.412109 L 48.729980 124.335938 Z " fill="rgb(0, 0, 0)" fill-opacity="1.000000" />
<path d="M 55.892578 124.335938 L 55.892578 123.412109 L 62.729980 123.412109 L 62.729980 124.335938 Z " fill="rgb(0, 0, 0)" fill-opacity="1.000000" />
<path d="M 69.892578 124.335938 L 69.892578 123.412109 L 76.729980 123.412109 L 76.729980 124.335938 Z " fill="rgb(0, 0, 0)" fill-opacity="1.000000" />
<path d="M 86.878906 130.319336 L 86.878906 124.335938 L 83.892578 124.335938 L 83.892578 123.412109 L 87.738281 123.412109 L 87.738281 130.319336 Z " fill="rgb(0, 0, 0)" fill-opacity="1.000000" />
<path d="M 107.878906 130.319336 L 107.878906 116.300781 L 108.738281 116.300781 L 108.738281 130.319336 Z " fill="rgb(0, 0, 0)" fill-opacity="1.000000" />
<path d="M 128.878906 130.319336 L 128.878906 123.412109 L 132.729980 123.412109 L 132.729980 124.335938 L 129.738281 124.335938 L 129.738281 130.319336 Z " fill="rgb(0, 0, 0)" fill-opacity="1.000000" />
<path d="M 132.892578 124.335938 L 132.892578 123.412109 L 139.729980 123.412109 L 139.729980 124.335938 Z " fill="rgb(0, 0, 0)" fill-opacity="1.000000" />
<path d="M 139.892578 124.335938 L 139.892578 123.412109 L 146.729980 123.412109 L 146.729980 124.335938 Z " fill="rgb(0, 0, 0)" fill-opacity="1.000000" />
<path d="M 146.892578 124.335938 L 146.892578 123.412109 L 153.729980 123.412109 L 153.729980 124.335938 Z " fill="rgb(0, 0, 0)" fill-opacity="1.000000" />
<path d="M 153.892578 124.335938 L 153.892578 123.412109 L 160.729980 123.412109 L 160.729980 124.335938 Z " fill="rgb(0, 0, 0)" fill-opacity="1.000000" />
<path d="M 160.892578 124.335938 L 160.892578 123.412109 L 167.729980 123.412109 L 167.729980 124.335938 Z " fill="rgb(0, 0, 0)" fill-opacity="1.000000" />
<path d="M 167.892578 124.335938 L 167.892578 123.412109 L 174.729980 123.412109 L 174.729980 124.335938 Z " fill="rgb(0, 0, 0)" fill-opacity="1.000000" />
<path d="M 174.892578 124.335938 L 174.892578 123.412109 L 181.729980 123.412109 L 181.729980 124.335938 Z " fill="rgb(0, 0, 0)" fill-opacity="1.000000" />
<path d="M 184.878906 130.319336 L 184.878906 124.335938 L 181.892578 124.335938 L 181.892578 123.412109 L 185.738281 123.412109 L 185.738281 130.319336 Z " fill="rgb(0, 0, 0)" fill-opacity="1.000000" />
<path d="M 240.878906 130.319336 L 240.878906 123.412109 L 244.729980 123.412109 L 244.729980 124.335938 L 241.738281 124.335938 L 241.738281 130.319336 Z " fill="rgb(0, 0, 0)" fill-opacity="1.000000" />
<path d="M 251.892578 124.335938 L 251.892578 123.412109 L 258.729980 123.412109 L 258.729980 124.335938 Z " fill="rgb(0, 0, 0)" fill-opacity="1.000000" />
<path d="M 265.892578 124.335938 L 265.892578 123.412109 L 272.729980 123.412109 L 272.729980 124.335938 Z " fill="rgb(0, 0, 0)" fill-opacity="1.000000" />
<path d="M 279.892578 124.335938 L 279.892578 123.412109 L 286.729980 123.412109 L 286.729980 124.335938 Z " fill="rgb(0, 0, 0)" fill-opacity="1.000000" />
<path d="M 296.878906 130.319336 L 296.878906 124.335938 L 293.892578 124.335938 L 293.892578 123.412109 L 297.738281 123.412109 L 297.738281 130.319336 Z " fill="rgb(0, 0, 0)" fill-opacity="1.000000" />
<path d="M 79.878906 98.335938 L 79.878906 90.300781 L 80.738281 90.300781 L 80.738281 97.412109 L 83.729980 97.412109 L 83.729980 98.335938 Z " fill="rgb(0, 0, 0)" fill-opacity="1.000000" />
<path d="M 107.878906 117.319336 L 107.878906 103.300781 L 108.738281 103.300781 L 108.738281 117.319336 Z " fill="rgb(0, 0, 0)" fill-opacity="1.000000" />
<path d="M 83.892578 98.335938 L 83.892578 97.412109 L 90.729980 97.412109 L 90.729980 98.335938 Z " fill="rgb(0, 0, 0)" fill-opacity="1.000000" />
<path d="M 90.892578 98.335938 L 90.892578 97.412109 L 97.729980 97.412109 L 97.729980 98.335938 Z " fill="rgb(0, 0, 0)" fill-opacity="1.000000" />
<path d="M 97.892578 98.335938 L 97.892578 97.412109 L 104.729980 97.412109 L 104.729980 98.335938 Z " fill="rgb(0, 0, 0)" fill-opacity="1.000000" />
<path d="M 104.892578 98.335938 L 104.892578 97.412109 L 111.729980 97.412109 L 111.729980 98.335938 Z " fill="rgb(0, 0, 0)" fill-opacity="1.000000" />
<path d="M 111.892578 98.335938 L 111.892578 97.412109 L 118.729980 97.412109 L 118.729980 98.335938 Z " fill="rgb(0, 0, 0)" fill-opacity="1.000000" />
<path d="M 118.892578 98.335938 L 118.892578 97.412109 L 125.729980 97.412109 L 125.729980 98.335938 Z " fill="rgb(0, 0, 0)" fill-opacity="1.000000" />
<path d="M 125.892578 98.335938 L 125.892578 97.412109 L 132.729980 97.412109 L 132.729980 98.335938 Z " fill="rgb(0, 0, 0)" fill-opacity="1.000000" />
<path d="M 132.892578 98.335938 L 132.892578 97.412109 L 135.878906 97.412109 L 135.878906 90.300781 L 136.738281 90.300781 L 136.738281 98.335938 Z " fill="rgb(0, 0, 0)" fill-opacity="1.000000" />
<path d="M 191.878906 98.335938 L 191.878906 90.300781 L 192.738281 90.300781 L 192.738281 97.412109 L 195.729980 97.412109 L 195.729980 98.335938 Z " fill="rgb(0, 0, 0)" fill-opacity="1.000000" />
<path d="M 202.892578 98.335938 L 202.892578 97.412109 L 209.729980 97.412109 L 209.729980 98.335938 Z " fill="rgb(0, 0, 0)" fill-opacity="1.000000" />
<path d="M 216.892578 98.335938 L 216.892578 97.412109 L 223.729980 97.412109 L 223.729980 98.335938 Z " fill="rgb(0, 0, 0)" fill-opacity="1.000000" />
<path d="M 230.892578 98.335938 L 230.892578 97.412109 L 237.729980 97.412109 L 237.729980 98.335938 Z " fill="rgb(0, 0, 0)" fill-opacity="1.000000" />
<path d="M 244.892578 98.335938 L 244.892578 97.412109 L 247.878906 97.412109 L 247.878906 90.300781 L 248.738281 90.300781 L 248.738281 98.335938 Z " fill="rgb(0, 0, 0)" fill-opacity="1.000000" />
<path d="M 79.878906 91.319336 L 79.878906 77.300781 L 80.738281 77.300781 L 80.738281 91.319336 Z " fill="rgb(0, 0, 0)" fill-opacity="1.000000" />
<path d="M 104.203613 83.225098 Q 103.886719 82.978027 103.559082 82.865234 Q 103.231445 82.752441 102.839355 82.752441 Q 101.915527 82.752441 101.426758 83.332520 Q 100.937988 83.912598 100.937988 85.008301 L 100.937988 88.000000 L 99.944336 88.000000 L 99.944336 81.984375 L 100.937988 81.984375 L 100.937988 83.160645 Q 101.185059 82.521484 101.697998 82.180420 Q 102.210938 81.839355 102.914551 81.839355 Q 103.279785 81.839355 103.596680 81.930664 Q 103.913574 82.021973 104.203613 82.215332 Z " fill="rgb(0, 0, 0)" fill-opacity="1.000000" />
<path d="M 106.047363 85.722656 L 106.047363 81.995117 L 107.035645 81.995117 L 107.035645 85.722656 Q 107.035645 86.533691 107.322998 86.915039 Q 107.610352 87.296387 108.211914 87.296387 Q 108.910156 87.296387 109.280762 86.804932 Q 109.651367 86.313477 109.651367 85.395020 L 109.651367 81.995117 L 110.645020 81.995117 L 110.645020 88.000000 L 109.651367 88.000000 L 109.651367 87.097656 Q 109.388184 87.618652 108.934326 87.887207 Q 108.480469 88.155762 107.873535 88.155762 Q 106.949707 88.155762 106.498535 87.551514 Q 106.047363 86.947266 106.047363 85.722656 Z " fill="rgb(0, 0, 0)" fill-opacity="1.000000" />
<path d="M 116.930664 84.997559 Q 116.930664 83.848145 116.565430 83.262695 Q 116.200195 82.677246 115.485840 82.677246 Q 114.766113 82.677246 114.395508 83.265381 Q 114.024902 83.853516 114.024902 84.997559 Q 114.024902 86.136230 114.395508 86.727051 Q 114.766113 87.317871 115.485840 87.317871 Q 116.200195 87.317871 116.565430 86.732422 Q 116.930664 86.146973 116.930664 84.997559 Z M 114.024902 82.752441 Q 114.261230 82.312012 114.677490 82.075684 Q 115.093750 81.839355 115.641602 81.839355 Q 116.726562 81.839355 117.349609 82.674561 Q 117.972656 83.509766 117.972656 84.976074 Q 117.972656 86.463867 117.346924 87.309814 Q 116.721191 88.155762 115.630859 88.155762 Q 115.093750 88.155762 114.682861 87.922119 Q 114.271973 87.688477 114.024902 87.242676 L 114.024902 88.000000 L 113.036621 88.000000 L 113.036621 79.642578 L 114.024902 79.642578 Z " fill="rgb(0, 0, 0)" fill-opacity="1.000000" />
<path d="M 135.878906 91.319336 L 135.878906 77.300781 L 136.738281 77.300781 L 136.738281 91.319336 Z " fill="rgb(0, 0, 0)" fill-opacity="1.000000" />
<path d="M 140.032227 85.142578 L 146.590332 81.866211 L 146.590332 88.418945 Z " fill="rgb(0, 0, 0)" fill-opacity="1.000000" />
<path d="M 146.892578 85.335938 L 146.892578 84.412109 L 153.729980 84.412109 L 153.729980 85.335938 Z " fill="rgb(0, 0, 0)" fill-opacity="1.000000" />
<path d="M 153.892578 85.335938 L 153.892578 84.412109 L 160.729980 84.412109 L 160.729980 85.335938 Z " fill="rgb(0, 0, 0)" fill-opacity="1.000000" />
<path d="M 160.892578 85.335938 L 160.892578 84.412109 L 163.878906 84.412109 L 163.878906 77.300781 L 164.738281 77.300781 L 164.738281 85.335938 Z " fill="rgb(0, 0, 0)" fill-opacity="1.000000" />
<path d="M 79.878906 78.319336 L 79.878906 71.412109 L 83.729980 71.412109 L 83.729980 72.335938 L 80.738281 72.335938 L 80.738281 78.319336 Z " fill="rgb(0, 0, 0)" fill-opacity="1.000000" />
<path d="M 83.892578 72.335938 L 83.892578 71.412109 L 90.729980 71.412109 L 90.729980 72.335938 Z " fill="rgb(0, 0, 0)" fill-opacity="1.000000" />
<path d="M 90.892578 72.335938 L 90.892578 71.412109 L 97.729980 71.412109 L 97.729980 72.335938 Z " fill="rgb(0, 0, 0)" fill-opacity="1.000000" />
<path d="M 97.892578 72.335938 L 97.892578 71.412109 L 104.729980 71.412109 L 104.729980 72.335938 Z " fill="rgb(0, 0, 0)" fill-opacity="1.000000" />
<path d="M 104.892578 72.335938 L 104.892578 71.412109 L 111.729980 71.412109 L 111.729980 72.335938 Z " fill="rgb(0, 0, 0)" fill-opacity="1.000000" />
<path d="M 111.892578 72.335938 L 111.892578 71.412109 L 118.729980 71.412109 L 118.729980 72.335938 Z " fill="rgb(0, 0, 0)" fill-opacity="1.000000" />
<path d="M 118.892578 72.335938 L 118.892578 71.412109 L 125.729980 71.412109 L 125.729980 72.335938 Z " fill="rgb(0, 0, 0)" fill-opacity="1.000000" />
<path d="M 125.892578 72.335938 L 125.892578 71.412109 L 132.729980 71.412109 L 132.729980 72.335938 Z " fill="rgb(0, 0, 0)" fill-opacity="1.000000" />
<path d="M 135.878906 78.319336 L 135.878906 72.335938 L 132.892578 72.335938 L 132.892578 71.412109 L 136.738281 71.412109 L 136.738281 78.319336 Z " fill="rgb(0, 0, 0)" fill-opacity="1.000000" />
<path d="M 163.878906 78.319336 L 163.878906 64.300781 L 164.738281 64.300781 L 164.738281 78.319336 Z " fill="rgb(0, 0, 0)" fill-opacity="1.000000" />
<path d="M 191.878906 78.319336 L 191.878906 71.412109 L 195.729980 71.412109 L 195.729980 72.335938 L 192.738281 72.335938 L 192.738281 78.319336 Z " fill="rgb(0, 0, 0)" fill-opacity="1.000000" />
<path d="M 202.892578 72.335938 L 202.892578 71.412109 L 209.729980 71.412109 L 209.729980 72.335938 Z " fill="rgb(0, 0, 0)" fill-opacity="1.000000" />
<path d="M 216.892578 72.335938 L 216.892578 71.412109 L 223.729980 71.412109 L 223.729980 72.335938 Z " fill="rgb(0, 0, 0)" fill-opacity="1.000000" />
<path d="M 230.892578 72.335938 L 230.892578 71.412109 L 237.729980 71.412109 L 237.729980 72.335938 Z " fill="rgb(0, 0, 0)" fill-opacity="1.000000" />
<path d="M 247.878906 78.319336 L 247.878906 72.335938 L 244.892578 72.335938 L 244.892578 71.412109 L 248.738281 71.412109 L 248.738281 78.319336 Z " fill="rgb(0, 0, 0)" fill-opacity="1.000000" />
<path d="M 135.878906 46.335938 L 135.878906 38.300781 L 136.738281 38.300781 L 136.738281 45.412109 L 139.729980 45.412109 L 139.729980 46.335938 Z " fill="rgb(0, 0, 0)" fill-opacity="1.000000" />
<path d="M 163.878906 65.319336 L 163.878906 51.300781 L 164.738281 51.300781 L 164.738281 65.319336 Z " fill="rgb(0, 0, 0)" fill-opacity="1.000000" />
<path d="M 139.892578 46.335938 L 139.892578 45.412109 L 146.729980 45.412109 L 146.729980 46.335938 Z " fill="rgb(0, 0, 0)" fill-opacity="1.000000" />
<path d="M 146.892578 46.335938 L 146.892578 45.412109 L 153.729980 45.412109 L 153.729980 46.335938 Z " fill="rgb(0, 0, 0)" fill-opacity="1.000000" />
<path d="M 153.892578 46.335938 L 153.892578 45.412109 L 160.729980 45.412109 L 160.729980 46.335938 Z " fill="rgb(0, 0, 0)" fill-opacity="1.000000" />
<path d="M 160.892578 46.335938 L 160.892578 45.412109 L 167.729980 45.412109 L 167.729980 46.335938 Z " fill="rgb(0, 0, 0)" fill-opacity="1.000000" />
<path d="M 167.892578 46.335938 L 167.892578 45.412109 L 174.729980 45.412109 L 174.729980 46.335938 Z " fill="rgb(0, 0, 0)" fill-opacity="1.000000" />
<path d="M 174.892578 46.335938 L 174.892578 45.412109 L 181.729980 45.412109 L 181.729980 46.335938 Z " fill="rgb(0, 0, 0)" fill-opacity="1.000000" />
<path d="M 181.892578 46.335938 L 181.892578 45.412109 L 188.729980 45.412109 L 188.729980 46.335938 Z " fill="rgb(0, 0, 0)" fill-opacity="1.000000" />
<path d="M 188.892578 46.335938 L 188.892578 45.412109 L 191.878906 45.412109 L 191.878906 38.300781 L 192.738281 38.300781 L 192.738281 46.335938 Z " fill="rgb(0, 0, 0)" fill-opacity="1.000000" />
<path d="M 135.878906 39.319336 L 135.878906 25.300781 L 136.738281 25.300781 L 136.738281 39.319336 Z " fill="rgb(0, 0, 0)" fill-opacity="1.000000" />
<path d="M 155.047363 33.722656 L 155.047363 29.995117 L 156.035645 29.995117 L 156.035645 33.722656 Q 156.035645 34.533691 156.322998 34.915039 Q 156.610352 35.296387 157.211914 35.296387 Q 157.910156 35.296387 158.280762 34.804932 Q 158.651367 34.313477 158.651367 33.395020 L 158.651367 29.995117 L 159.645020 29.995117 L 159.645020 36.000000 L 158.651367 36.000000 L 158.651367 35.097656 Q 158.388184 35.618652 157.934326 35.887207 Q 157.480469 36.155762 156.873535 36.155762 Q 155.949707 36.155762 155.498535 35.551514 Q 155.047363 34.947266 155.047363 33.722656 Z " fill="rgb(0, 0, 0)" fill-opacity="1.000000" />
<path d="M 166.226074 30.193848 L 166.226074 31.160645 Q 165.801758 30.913574 165.372070 30.790039 Q 164.942383 30.666504 164.496582 30.666504 Q 163.825195 30.666504 163.494873 30.884033 Q 163.164551 31.101562 163.164551 31.547363 Q 163.164551 31.950195 163.411621 32.148926 Q 163.658691 32.347656 164.641602 32.535645 L 165.039062 32.610840 Q 165.774902 32.750488 166.153564 33.169434 Q 166.532227 33.588379 166.532227 34.259766 Q 166.532227 35.151367 165.898438 35.653564 Q 165.264648 36.155762 164.136719 36.155762 Q 163.690918 36.155762 163.202148 36.061768 Q 162.713379 35.967773 162.144043 35.779785 L 162.144043 34.759277 Q 162.697266 35.043945 163.202148 35.186279 Q 163.707031 35.328613 164.158203 35.328613 Q 164.813477 35.328613 165.173340 35.062744 Q 165.533203 34.796875 165.533203 34.318848 Q 165.533203 33.631348 164.217285 33.368164 L 164.174316 33.357422 L 163.803711 33.282227 Q 162.949707 33.115723 162.557617 32.720947 Q 162.165527 32.326172 162.165527 31.644043 Q 162.165527 30.779297 162.750977 30.309326 Q 163.336426 29.839355 164.421387 29.839355 Q 164.904785 29.839355 165.350586 29.927979 Q 165.796387 30.016602 166.226074 30.193848 Z " fill="rgb(0, 0, 0)" fill-opacity="1.000000" />
<path d="M 172.608398 30.752441 L 172.608398 27.642578 L 173.596680 27.642578 L 173.596680 36.000000 L 172.608398 36.000000 L 172.608398 35.242676 Q 172.361328 35.688477 171.950439 35.922119 Q 171.539551 36.155762 171.002441 36.155762 Q 169.912109 36.155762 169.286377 35.309814 Q 168.660645 34.463867 168.660645 32.976074 Q 168.660645 31.509766 169.289062 30.674561 Q 169.917480 29.839355 171.002441 29.839355 Q 171.544922 29.839355 171.958496 30.072998 Q 172.372070 30.306641 172.608398 30.752441 Z M 169.702637 32.997559 Q 169.702637 34.146973 170.067871 34.732422 Q 170.433105 35.317871 171.147461 35.317871 Q 171.861816 35.317871 172.235107 34.727051 Q 172.608398 34.136230 172.608398 32.997559 Q 172.608398 31.853516 172.235107 31.265381 Q 171.861816 30.677246 171.147461 30.677246 Q 170.433105 30.677246 170.067871 31.262695 Q 169.702637 31.848145 169.702637 32.997559 Z " fill="rgb(0, 0, 0)" fill-opacity="1.000000" />
<path d="M 191.878906 39.319336 L 191.878906 25.300781 L 192.738281 25.300781 L 192.738281 39.319336 Z " fill="rgb(0, 0, 0)" fill-opacity="1.000000" />
<path d="M 135.878906 26.319336 L 135.878906 19.412109 L 139.729980 19.412109 L 139.729980 20.335938 L 136.738281 20.335938 L 136.738281 26.319336 Z " fill="rgb(0, 0, 0)" fill-opacity="1.000000" />
<path d="M 139.892578 20.335938 L 139.892578 19.412109 L 146.729980 19.412109 L 146.729980 20.335938 Z " fill="rgb(0, 0, 0)" fill-opacity="1.000000" />
<path d="M 146.892578 20.335938 L 146.892578 19.412109 L 153.729980 19.412109 L 153.729980 20.335938 Z " fill="rgb(0, 0, 0)" fill-opacity="1.000000" />
<path d="M 153.892578 20.335938 L 153.892578 19.412109 L 160.729980 19.412109 L 160.729980 20.335938 Z " fill="rgb(0, 0, 0)" fill-opacity="1.000000" />
<path d="M 160.892578 20.335938 L 160.892578 19.412109 L 167.729980 19.412109 L 167.729980 20.335938 Z " fill="rgb(0, 0, 0)" fill-opacity="1.000000" />
<path d="M 167.892578 20.335938 L 167.892578 19.412109 L 174.729980 19.412109 L 174.729980 20.335938 Z " fill="rgb(0, 0, 0)" fill-opacity="1.000000" />
<path d="M 174.892578 20.335938 L 174.892578 19.412109 L 181.729980 19.412109 L 181.729980 20.335938 Z " fill="rgb(0, 0, 0)" fill-opacity="1.000000" />
<path d="M 181.892578 20.335938 L 181.892578 19.412109 L 188.729980 19.412109 L 188.729980 20.335938 Z " fill="rgb(0, 0, 0)" fill-opacity="1.000000" />
<path d="M 191.878906 26.319336 L 191.878906 20.335938 L 188.892578 20.335938 L 188.892578 19.412109 L 192.738281 19.412109 L 192.738281 26.319336 Z " fill="rgb(0, 0, 0)" fill-opacity="1.000000" />
</svg>