<svg xmlns="http://www.w3.org/2000/svg" version="1.1" width="218" height="196">
<path d="M 2.878906 169.319336 L 2.878906 162.412109 L 6.729980 162.412109 L 6.729980 163.335938 L 3.738281 163.335938 L 3.738281 169.319336 Z " fill="rgb(0, 0, 0)" fill-opacity="1.000000" />
<path d="M 2.878906 182.319336 L 2.878906 168.300781 L 3.738281 168.300781 L 3.738281 182.319336 Z " fill="rgb(0, 0, 0)" fill-opacity="1.000000" />
<path d="M 2.878906 189.335938 L 2.878906 181.300781 L 3.738281 181.300781 L 3.738281 188.412109 L 6.729980 188.412109 L 6.729980 189.335938 Z " fill="rgb(0, 0, 0)" fill-opacity="1.000000" />
<path d="M 6.892578 189.335938 L 6.892578 188.412109 L 13.729980 188.412109 L 13.729980 189.335938 Z " fill="rgb(0, 0, 0)" fill-opacity="1.000000" />
<path d="M 13.892578 189.335938 L 13.892578 188.412109 L 20.729980 188.412109 L 20.729980 189.335938 Z " fill="rgb(0, 0, 0)" fill-opacity="1.000000" />
<path d="M 20.892578 189.335938 L 20.892578 188.412109 L 27.729980 188.412109 L 27.729980 189.335938 Z " fill="rgb(0, 0, 0)" fill-opacity="1.000000" />
<path d="M 27.892578 189.335938 L 27.892578 188.412109 L 34.729980 188.412109 L 34.729980 189.335938 Z " fill="rgb(0, 0, 0)" fill-opacity="1.000000" />
<path d="M 34.892578 189.335938 L 34.892578 188.412109 L 41.729980 188.412109 L 41.729980 189.335938 Z " fill="rgb(0, 0, 0)" fill-opacity="1.000000" />
<path d="M 41.892578 189.335938 L 41.892578 188.412109 L 48.729980 188.412109 L 48.729980 189.335938 Z " fill="rgb(0, 0, 0)" fill-opacity="1.000000" />
<path d="M 48.892578 189.335938 L 48.892578 188.412109 L 55.729980 188.412109 L 55.729980 189.335938 Z " fill="rgb(0, 0, 0)" fill-opacity="1.000000" />
<path d="M 55.892578 189.335938 L 55.892578 188.412109 L 58.878906 188.412109 L 58.878906 181.300781 L 59.738281 181.300781 L 59.738281 189.335938 Z " fill="rgb(0, 0, 0)" fill-opacity="1.000000" />
<path d="M 27.203613 174.225098 Q 26.886719 173.978027 26.559082 173.865234 Q 26.231445 173.752441 25.839355 173.752441 Q 24.915527 173.752441 24.426758 174.332520 Q 23.937988 174.912598 23.937988 176.008301 L 23.937988 179.000000 L 22.944336 179.000000 L 22.944336 172.984375 L 23.937988 172.984375 L 23.937988 174.160645 Q 24.185059 173.521484 24.697998 173.180420 Q 25.210938 172.839355 25.914551 172.839355 Q 26.279785 172.839355 26.596680 172.930664 Q 26.913574 173.021973 27.203613 173.215332 Z " fill="rgb(0, 0, 0)" fill-opacity="1.000000" />
<path d="M 29.047363 176.722656 L 29.047363 172.995117 L 30.035645 172.995117 L 30.035645 176.722656 Q 30.035645 177.533691 30.322998 177.915039 Q 30.610352 178.296387 31.211914 178.296387 Q 31.910156 178.296387 32.280762 177.804932 Q 32.651367 177.313477 32.651367 176.395020 L 32.651367 172.995117 L 33.645020 172.995117 L 33.645020 179.000000 L 32.651367 179.000000 L 32.651367 178.097656 Q 32.388184 178.618652 31.934326 178.887207 Q 31.480469 179.155762 30.873535 179.155762 Q 29.949707 179.155762 29.498535 178.551514 Q 29.047363 177.947266 29.047363 176.722656 Z " fill="rgb(0, 0, 0)" fill-opacity="1.000000" />
<path d="M 39.930664 175.997559 Q 39.930664 174.848145 39.565430 174.262695 Q 39.200195 173.677246 38.485840 173.677246 Q 37.766113 173.677246 37.395508 174.265381 Q 37.024902 174.853516 37.024902 175.997559 Q 37.024902 177.136230 37.395508 177.727051 Q 37.766113 178.317871 38.485840 178.317871 Q 39.200195 178.317871 39.565430 177.732422 Q 39.930664 177.146973 39.930664 175.997559 Z M 37.024902 173.752441 Q 37.261230 173.312012 37.677490 173.075684 Q 38.093750 172.839355 38.641602 172.839355 Q 39.726562 172.839355 40.349609 173.674561 Q 40.972656 174.509766 40.972656 175.976074 Q 40.972656 177.463867 40.346924 178.309814 Q 39.721191 179.155762 38.630859 179.155762 Q 38.093750 179.155762 37.682861 178.922119 Q 37.271973 178.688477 37.024902 178.242676 L 37.024902 179.000000 L 36.036621 179.000000 L 36.036621 170.642578 L 37.024902 170.642578 Z " fill="rgb(0, 0, 0)" fill-opacity="1.000000" />
<path d="M 58.878906 182.319336 L 58.878906 168.300781 L 59.738281 168.300781 L 59.738281 182.319336 Z " fill="rgb(0, 0, 0)" fill-opacity="1.000000" />
<path d="M 63.032227 176.142578 L 69.590332 172.866211 L 69.590332 179.418945 Z " fill="rgb(0, 0, 0)" fill-opacity="1.000000" />
<path d="M 69.892578 176.335938 L 69.892578 175.412109 L 76.729980 175.412109 L 76.729980 176.335938 Z " fill="rgb(0, 0, 0)" fill-opacity="1.000000" />
<path d="M 76.892578 176.335938 L 76.892578 175.412109 L 79.878906 175.412109 L 79.878906 168.300781 L 80.738281 168.300781 L 80.738281 176.335938 Z " fill="rgb(0, 0, 0)" fill-opacity="1.000000" />
<path d="M 6.892578 163.335938 L 6.892578 162.412109 L 13.729980 162.412109 L 13.729980 163.335938 Z " fill="rgb(0, 0, 0)" fill-opacity="1.000000" />
<path d="M 13.892578 163.335938 L 13.892578 162.412109 L 20.729980 162.412109 L 20.729980 163.335938 Z " fill="rgb(0, 0, 0)" fill-opacity="1.000000" />
<path d="M 20.892578 163.335938 L 20.892578 162.412109 L 27.729980 162.412109 L 27.729980 163.335938 Z " fill="rgb(0, 0, 0)" fill-opacity="1.000000" />
<path d="M 27.892578 163.335938 L 27.892578 162.412109 L 34.729980 162.412109 L 34.729980 163.335938 Z " fill="rgb(0, 0, 0)" fill-opacity="1.000000" />
<path d="M 34.892578 163.335938 L 34.892578 162.412109 L 41.729980 162.412109 L 41.729980 163.335938 Z " fill="rgb(0, 0, 0)" fill-opacity="1.000000" />
<path d="M 41.892578 163.335938 L 41.892578 162.412109 L 48.729980 162.412109 L 48.729980 163.335938 Z " fill="rgb(0, 0, 0)" fill-opacity="1.000000" />
<path d="M 48.892578 163.335938 L 48.892578 162.412109 L 55.729980 162.412109 L 55.729980 163.335938 Z " fill="rgb(0, 0, 0)" fill-opacity="1.000000" />
<path d="M 58.878906 169.319336 L 58.878906 163.335938 L 55.892578 163.335938 L 55.892578 162.412109 L 59.738281 162.412109 L 59.738281 169.319336 Z " fill="rgb(0, 0, 0)" fill-opacity="1.000000" />
<path d="M 79.878906 169.319336 L 79.878906 155.300781 L 80.738281 155.300781 L 80.738281 169.319336 Z " fill="rgb(0, 0, 0)" fill-opacity="1.000000" />
<path d="M 51.878906 117.319336 L 51.878906 110.412109 L 55.729980 110.412109 L 55.729980 111.335938 L 52.738281 111.335938 L 52.738281 117.319336 Z " fill="rgb(0, 0, 0)" fill-opacity="1.000000" />
<path d="M 51.878906 130.319336 L 51.878906 116.300781 L 52.738281 116.300781 L 52.738281 130.319336 Z " fill="rgb(0, 0, 0)" fill-opacity="1.000000" />
<path d="M 51.878906 137.335938 L 51.878906 129.300781 L 52.738281 129.300781 L 52.738281 136.412109 L 55.729980 136.412109 L 55.729980 137.335938 Z " fill="rgb(0, 0, 0)" fill-opacity="1.000000" />
<path d="M 79.878906 156.319336 L 79.878906 142.300781 L 80.738281 142.300781 L 80.738281 156.319336 Z " fill="rgb(0, 0, 0)" fill-opacity="1.000000" />
<path d="M 55.892578 137.335938 L 55.892578 136.412109 L 62.729980 136.412109 L 62.729980 137.335938 Z " fill="rgb(0, 0, 0)" fill-opacity="1.000000" />
<path d="M 62.892578 137.335938 L 62.892578 136.412109 L 69.729980 136.412109 L 69.729980 137.335938 Z " fill="rgb(0, 0, 0)" fill-opacity="1.000000" />
<path d="M 69.892578 137.335938 L 69.892578 136.412109 L 76.729980 136.412109 L 76.729980 137.335938 Z " fill="rgb(0, 0, 0)" fill-opacity="1.000000" />
<path d="M 76.892578 137.335938 L 76.892578 136.412109 L 83.729980 136.412109 L 83.729980 137.335938 Z " fill="rgb(0, 0, 0)" fill-opacity="1.000000" />
<path d="M 83.892578 137.335938 L 83.892578 136.412109 L 90.729980 136.412109 L 90.729980 137.335938 Z " fill="rgb(0, 0, 0)" fill-opacity="1.000000" />
<path d="M 90.892578 137.335938 L 90.892578 136.412109 L 97.729980 136.412109 L 97.729980 137.335938 Z " fill="rgb(0, 0, 0)" fill-opacity="1.000000" />
<path d="M 97.892578 137.335938 L 97.892578 136.412109 L 104.729980 136.412109 L 104.729980 137.335938 Z " fill="rgb(0, 0, 0)" fill-opacity="1.000000" />
<path d="M 104.892578 137.335938 L 104.892578 136.412109 L 107.878906 136.412109 L 107.878906 129.300781 L 108.738281 129.300781 L 108.738281 137.335938 Z " fill="rgb(0, 0, 0)" fill-opacity="1.000000" />
<path d="M 76.015625 123.498047 L 76.015625 123.981445 L 71.734863 123.981445 L 71.734863 124.013672 Q 71.691895 125.243652 72.204834 125.780762 Q 72.717773 126.317871 73.652344 126.317871 Q 74.125000 126.317871 74.640625 126.167480 Q 75.156250 126.017090 75.741699 125.710938 L 75.741699 126.693848 Q 75.177734 126.924805 74.654053 127.040283 Q 74.130371 127.155762 73.641602 127.155762 Q 72.239746 127.155762 71.450195 126.315186 Q 70.660645 125.474609 70.660645 123.997559 Q 70.660645 122.558105 71.434082 121.698730 Q 72.207520 120.839355 73.496582 120.839355 Q 74.645996 120.839355 75.309326 121.618164 Q 75.972656 122.396973 76.015625 123.498047 Z M 75.027344 123.208008 Q 74.962891 122.584961 74.573486 122.131104 Q 74.184082 121.677246 73.453613 121.677246 Q 72.739258 121.677246 72.277344 122.149902 Q 71.815430 122.622559 71.772461 123.213379 Z " fill="rgb(0, 0, 0)" fill-opacity="1.000000" />
<path d="M 78.047363 124.722656 L 78.047363 120.995117 L 79.035645 120.995117 L 79.035645 124.722656 Q 79.035645 125.533691 79.322998 125.915039 Q 79.610352 126.296387 80.211914 126.296387 Q 80.910156 126.296387 81.280762 125.804932 Q 81.651367 125.313477 81.651367 124.395020 L 81.651367 120.995117 L 82.645020 120.995117 L 82.645020 127.000000 L 81.651367 127.000000 L 81.651367 126.097656 Q 81.388184 126.618652 80.934326 126.887207 Q 80.480469 127.155762 79.873535 127.155762 Q 78.949707 127.155762 78.498535 126.551514 Q 78.047363 125.947266 78.047363 124.722656 Z " fill="rgb(0, 0, 0)" fill-opacity="1.000000" />
<path d="M 90.203613 122.225098 Q 89.886719 121.978027 89.559082 121.865234 Q 89.231445 121.752441 88.839355 121.752441 Q 87.915527 121.752441 87.426758 122.332520 Q 86.937988 122.912598 86.937988 124.008301 L 86.937988 127.000000 L 85.944336 127.000000 L 85.944336 120.984375 L 86.937988 120.984375 L 86.937988 122.160645 Q 87.185059 121.521484 87.697998 121.180420 Q 88.210938 120.839355 88.914551 120.839355 Q 89.279785 120.839355 89.596680 120.930664 Q 89.913574 121.021973 90.203613 121.215332 Z " fill="rgb(0, 0, 0)" fill-opacity="1.000000" />
<path d="M 107.878906 130.319336 L 107.878906 116.300781 L 108.738281 116.300781 L 108.738281 130.319336 Z " fill="rgb(0, 0, 0)" fill-opacity="1.000000" />
<path d="M 112.032227 124.142578 L 118.590332 120.866211 L 118.590332 127.418945 Z " fill="rgb(0, 0, 0)" fill-opacity="1.000000" />
<path d="M 118.892578 124.335938 L 118.892578 123.412109 L 125.729980 123.412109 L 125.729980 124.335938 Z " fill="rgb(0, 0, 0)" fill-opacity="1.000000" />
<path d="M 125.892578 124.335938 L 125.892578 123.412109 L 128.878906 123.412109 L 128.878906 116.300781 L 129.738281 116.300781 L 129.738281 124.335938 Z " fill="rgb(0, 0, 0)" fill-opacity="1.000000" />
<path d="M 55.892578 111.335938 L 55.892578 110.412109 L 62.729980 110.412109 L 62.729980 111.335938 Z " fill="rgb(0, 0, 0)" fill-opacity="1.000000" />
<path d="M 62.892578 111.335938 L 62.892578 110.412109 L 69.729980 110.412109 L 69.729980 111.335938 Z " fill="rgb(0, 0, 0)" fill-opacity="1.000000" />
<path d="M 69.892578 111.335938 L 69.892578 110.412109 L 76.729980 110.412109 L 76.729980 111.335938 Z " fill="rgb(0, 0, 0)" fill-opacity="1.000000" />
<path d="M 76.892578 111.335938 L 76.892578 110.412109 L 83.729980 110.412109 L 83.729980 111.335938 Z " fill="rgb(0, 0, 0)" fill-opacity="1.000000" />
<path d="M 83.892578 111.335938 L 83.892578 110.412109 L 90.729980 110.412109 L 90.729980 111.335938 Z " fill="rgb(0, 0, 0)" fill-opacity="1.000000" />
<path d="M 90.892578 111.335938 L 90.892578 110.412109 L 97.729980 110.412109 L 97.729980 111.335938 Z " fill="rgb(0, 0, 0)" fill-opacity="1.000000" />
<path d="M 97.892578 111.335938 L 97.892578 110.412109 L 104.729980 110.412109 L 104.729980 111.335938 Z " fill="rgb(0, 0, 0)" fill-opacity="1.000000" />
<path d="M 107.878906 117.319336 L 107.878906 111.335938 L 104.892578 111.335938 L 104.892578 110.412109 L 108.738281 110.412109 L 108.738281 117.319336 Z " fill="rgb(0, 0, 0)" fill-opacity="1.000000" />
<path d="M 128.878906 117.319336 L 128.878906 103.300781 L 129.738281 103.300781 L 129.738281 117.319336 Z " fill="rgb(0, 0, 0)" fill-opacity="1.000000" />
<path d="M 100.878906 65.319336 L 100.878906 58.412109 L 104.729980 58.412109 L 104.729980 59.335938 L 101.738281 59.335938 L 101.738281 65.319336 Z " fill="rgb(0, 0, 0)" fill-opacity="1.000000" />
<path d="M 100.878906 78.319336 L 100.878906 64.300781 L 101.738281 64.300781 L 101.738281 78.319336 Z " fill="rgb(0, 0, 0)" fill-opacity="1.000000" />
<path d="M 100.878906 85.335938 L 100.878906 77.300781 L 101.738281 77.300781 L 101.738281 84.412109 L 104.729980 84.412109 L 104.729980 85.335938 Z " fill="rgb(0, 0, 0)" fill-opacity="1.000000" />
<path d="M 128.878906 104.319336 L 128.878906 90.300781 L 129.738281 90.300781 L 129.738281 104.319336 Z " fill="rgb(0, 0, 0)" fill-opacity="1.000000" />
<path d="M 104.892578 85.335938 L 104.892578 84.412109 L 111.729980 84.412109 L 111.729980 85.335938 Z " fill="rgb(0, 0, 0)" fill-opacity="1.000000" />
<path d="M 111.892578 85.335938 L 111.892578 84.412109 L 118.729980 84.412109 L 118.729980 85.335938 Z " fill="rgb(0, 0, 0)" fill-opacity="1.000000" />
<path d="M 118.892578 85.335938 L 118.892578 84.412109 L 125.729980 84.412109 L 125.729980 85.335938 Z " fill="rgb(0, 0, 0)" fill-opacity="1.000000" />
<path d="M 125.892578 85.335938 L 125.892578 84.412109 L 132.729980 84.412109 L 132.729980 85.335938 Z " fill="rgb(0, 0, 0)" fill-opacity="1.000000" />
<path d="M 132.892578 85.335938 L 132.892578 84.412109 L 139.729980 84.412109 L 139.729980 85.335938 Z " fill="rgb(0, 0, 0)" fill-opacity="1.000000" />
<path d="M 139.892578 85.335938 L 139.892578 84.412109 L 146.729980 84.412109 L 146.729980 85.335938 Z " fill="rgb(0, 0, 0)" fill-opacity="1.000000" />
<path d="M 146.892578 85.335938 L 146.892578 84.412109 L 153.729980 84.412109 L 153.729980 85.335938 Z " fill="rgb(0, 0, 0)" fill-opacity="1.000000" />
<path d="M 153.892578 85.335938 L 153.892578 84.412109 L 156.878906 84.412109 L 156.878906 77.300781 L 157.738281 77.300781 L 157.738281 85.335938 Z " fill="rgb(0, 0, 0)" fill-opacity="1.000000" />
<path d="M 120.047363 72.722656 L 120.047363 68.995117 L 121.035645 68.995117 L 121.035645 72.722656 Q 121.035645 73.533691 121.322998 73.915039 Q 121.610352 74.296387 122.211914 74.296387 Q 122.910156 74.296387 123.280762 73.804932 Q 123.651367 73.313477 123.651367 72.395020 L 123.651367 68.995117 L 124.645020 68.995117 L 124.645020 75.000000 L 123.651367 75.000000 L 123.651367 74.097656 Q 123.388184 74.618652 122.934326 74.887207 Q 122.480469 75.155762 121.873535 75.155762 Q 120.949707 75.155762 120.498535 74.551514 Q 120.047363 73.947266 120.047363 72.722656 Z " fill="rgb(0, 0, 0)" fill-opacity="1.000000" />
<path d="M 131.226074 69.193848 L 131.226074 70.160645 Q 130.801758 69.913574 130.372070 69.790039 Q 129.942383 69.666504 129.496582 69.666504 Q 128.825195 69.666504 128.494873 69.884033 Q 128.164551 70.101562 128.164551 70.547363 Q 128.164551 70.950195 128.411621 71.148926 Q 128.658691 71.347656 129.641602 71.535645 L 130.039062 71.610840 Q 130.774902 71.750488 131.153564 72.169434 Q 131.532227 72.588379 131.532227 73.259766 Q 131.532227 74.151367 130.898438 74.653564 Q 130.264648 75.155762 129.136719 75.155762 Q 128.690918 75.155762 128.202148 75.061768 Q 127.713379 74.967773 127.144043 74.779785 L 127.144043 73.759277 Q 127.697266 74.043945 128.202148 74.186279 Q 128.707031 74.328613 129.158203 74.328613 Q 129.813477 74.328613 130.173340 74.062744 Q 130.533203 73.796875 130.533203 73.318848 Q 130.533203 72.631348 129.217285 72.368164 L 129.174316 72.357422 L 128.803711 72.282227 Q 127.949707 72.115723 127.557617 71.720947 Q 127.165527 71.326172 127.165527 70.644043 Q 127.165527 69.779297 127.750977 69.309326 Q 128.336426 68.839355 129.421387 68.839355 Q 129.904785 68.839355 130.350586 68.927979 Q 130.796387 69.016602 131.226074 69.193848 Z " fill="rgb(0, 0, 0)" fill-opacity="1.000000" />
<path d="M 137.608398 69.752441 L 137.608398 66.642578 L 138.596680 66.642578 L 138.596680 75.000000 L 137.608398 75.000000 L 137.608398 74.242676 Q 137.361328 74.688477 136.950439 74.922119 Q 136.539551 75.155762 136.002441 75.155762 Q 134.912109 75.155762 134.286377 74.309814 Q 133.660645 73.463867 133.660645 71.976074 Q 133.660645 70.509766 134.289062 69.674561 Q 134.917480 68.839355 136.002441 68.839355 Q 136.544922 68.839355 136.958496 69.072998 Q 137.372070 69.306641 137.608398 69.752441 Z M 134.702637 71.997559 Q 134.702637 73.146973 135.067871 73.732422 Q 135.433105 74.317871 136.147461 74.317871 Q 136.861816 74.317871 137.235107 73.727051 Q 137.608398 73.136230 137.608398 71.997559 Q 137.608398 70.853516 137.235107 70.265381 Q 136.861816 69.677246 136.147461 69.677246 Q 135.433105 69.677246 135.067871 70.262695 Q 134.702637 70.848145 134.702637 71.997559 Z " fill="rgb(0, 0, 0)" fill-opacity="1.000000" />
<path d="M 156.878906 78.319336 L 156.878906 64.300781 L 157.738281 64.300781 L 157.738281 78.319336 Z " fill="rgb(0, 0, 0)" fill-opacity="1.000000" />
<path d="M 161.032227 72.142578 L 167.590332 68.866211 L 167.590332 75.418945 Z " fill="rgb(0, 0, 0)" fill-opacity="1.000000" />
<path d="M 167.892578 72.335938 L 167.892578 71.412109 L 174.729980 71.412109 L 174.729980 72.335938 Z " fill="rgb(0, 0, 0)" fill-opacity="1.000000" />
<path d="M 174.892578 72.335938 L 174.892578 71.412109 L 181.729980 71.412109 L 181.729980 72.335938 Z " fill="rgb(0, 0, 0)" fill-opacity="1.000000" />
<path d="M 181.892578 72.335938 L 181.892578 71.412109 L 184.878906 71.412109 L 184.878906 64.300781 L 185.738281 64.300781 L 185.738281 72.335938 Z " fill="rgb(0, 0, 0)" fill-opacity="1.000000" />
<path d="M 104.892578 59.335938 L 104.892578 58.412109 L 111.729980 58.412109 L 111.729980 59.335938 Z " fill="rgb(0, 0, 0)" fill-opacity="1.000000" />
<path d="M 111.892578 59.335938 L 111.892578 58.412109 L 118.729980 58.412109 L 118.729980 59.335938 Z " fill="rgb(0, 0, 0)" fill-opacity="1.000000" />
<path d="M 118.892578 59.335938 L 118.892578 58.412109 L 125.729980 58.412109 L 125.729980 59.335938 Z " fill="rgb(0, 0, 0)" fill-opacity="1.000000" />
<path d="M 125.892578 59.335938 L 125.892578 58.412109 L 132.729980 58.412109 L 132.729980 59.335938 Z " fill="rgb(0, 0, 0)" fill-opacity="1.000000" />
<path d="M 132.892578 59.335938 L 132.892578 58.412109 L 139.729980 58.412109 L 139.729980 59.335938 Z " fill="rgb(0, 0, 0)" fill-opacity="1.000000" />
<path d="M 139.892578 59.335938 L 139.892578 58.412109 L 146.729980 58.412109 L 146.729980 59.335938 Z " fill="rgb(0, 0, 0)" fill-opacity="1.000000" />
<path d="M 146.892578 59.335938 L 146.892578 58.412109 L 153.729980 58.412109 L 153.729980 59.335938 Z " fill="rgb(0, 0, 0)" fill-opacity="1.000000" />
<path d="M 156.878906 65.319336 L 156.878906 59.335938 L 153.892578 59.335938 L 153.892578 58.412109 L 157.738281 58.412109 L 157.738281 65.319336 Z " fill="rgb(0, 0, 0)" fill-opacity="1.000000" />
<path d="M 184.878906 65.319336 L 184.878906 51.300781 L 185.738281 51.300781 L 185.738281 65.319336 Z " fill="rgb(0, 0, 0)" fill-opacity="1.000000" />
<path d="M 156.878906 13.319336 L 156.878906 6.412109 L 160.729980 6.412109 L 160.729980 7.335938 L 157.738281 7.335938 L 157.738281 13.319336 Z " fill="rgb(0, 0, 0)" fill-opacity="1.000000" />
<path d="M 156.878906 26.319336 L 156.878906 12.300781 L 157.738281 12.300781 L 157.738281 26.319336 Z " fill="rgb(0, 0, 0)" fill-opacity="1.000000" />
<path d="M 156.878906 33.335938 L 156.878906 25.300781 L 157.738281 25.300781 L 157.738281 32.412109 L 160.729980 32.412109 L 160.729980 33.335938 Z " fill="rgb(0, 0, 0)" fill-opacity="1.000000" />
<path d="M 184.878906 52.319336 L 184.878906 38.300781 L 185.738281 38.300781 L 185.738281 52.319336 Z " fill="rgb(0, 0, 0)" fill-opacity="1.000000" />
<path d="M 160.892578 33.335938 L 160.892578 32.412109 L 167.729980 32.412109 L 167.729980 33.335938 Z " fill="rgb(0, 0, 0)" fill-opacity="1.000000" />
<path d="M 167.892578 33.335938 L 167.892578 32.412109 L 174.729980 32.412109 L 174.729980 33.335938 Z " fill="rgb(0, 0, 0)" fill-opacity="1.000000" />
<path d="M 174.892578 33.335938 L 174.892578 32.412109 L 181.729980 32.412109 L 181.729980 33.335938 Z " fill="rgb(0, 0, 0)" fill-opacity="1.000000" />
<path d="M 181.892578 33.335938 L 181.892578 32.412109 L 188.729980 32.412109 L 188.729980 33.335938 Z " fill="rgb(0, 0, 0)" fill-opacity="1.000000" />
<path d="M 188.892578 33.335938 L 188.892578 32.412109 L 195.729980 32.412109 L 195.729980 33.335938 Z " fill="rgb(0, 0, 0)" fill-opacity="1.000000" />
<path d="M 195.892578 33.335938 L 195.892578 32.412109 L 202.729980 32.412109 L 202.729980 33.335938 Z " fill="rgb(0, 0, 0)" fill-opacity="1.000000" />
<path d="M 202.892578 33.335938 L 202.892578 32.412109 L 209.729980 32.412109 L 209.729980 33.335938 Z " fill="rgb(0, 0, 0)" fill-opacity="1.000000" />
<path d="M 209.892578 33.335938 L 209.892578 32.412109 L 212.878906 32.412109 L 212.878906 25.300781 L 213.738281 25.300781 L 213.738281 33.335938 Z " fill="rgb(0, 0, 0)" fill-opacity="1.000000" />
<path d="M 181.203613 18.225098 Q 180.886719 17.978027 180.559082 17.865234 Q 180.231445 17.752441 179.839355 17.752441 Q 178.915527 17.752441 178.426758 18.332520 Q 177.937988 18.912598 177.937988 20.008301 L 177.937988 23.000000 L 176.944336 23.000000 L 176.944336 16.984375 L 177.937988 16.984375 L 177.937988 18.160645 Q 178.185059 17.521484 178.697998 17.180420 Q 179.210938 16.839355 179.914551 16.839355 Q 180.279785 16.839355 180.596680 16.930664 Q 180.913574 17.021973 181.203613 17.215332 Z " fill="rgb(0, 0, 0)" fill-opacity="1.000000" />
<path d="M 183.047363 20.722656 L 183.047363 16.995117 L 184.035645 16.995117 L 184.035645 20.722656 Q 184.035645 21.533691 184.322998 21.915039 Q 184.610352 22.296387 185.211914 22.296387 Q 185.910156 22.296387 186.280762 21.804932 Q 186.651367 21.313477 186.651367 20.395020 L 186.651367 16.995117 L 187.645020 16.995117 L 187.645020 23.000000 L 186.651367 23.000000 L 186.651367 22.097656 Q 186.388184 22.618652 185.934326 22.887207 Q 185.480469 23.155762 184.873535 23.155762 Q 183.949707 23.155762 183.498535 22.551514 Q 183.047363 21.947266 183.047363 20.722656 Z " fill="rgb(0, 0, 0)" fill-opacity="1.000000" />
<path d="M 193.930664 19.997559 Q 193.930664 18.848145 193.565430 18.262695 Q 193.200195 17.677246 192.485840 17.677246 Q 191.766113 17.677246 191.395508 18.265381 Q 191.024902 18.853516 191.024902 19.997559 Q 191.024902 21.136230 191.395508 21.727051 Q 191.766113 22.317871 192.485840 22.317871 Q 193.200195 22.317871 193.565430 21.732422 Q 193.930664 21.146973 193.930664 19.997559 Z M 191.024902 17.752441 Q 191.261230 17.312012 191.677490 17.075684 Q 192.093750 16.839355 192.641602 16.839355 Q 193.726562 16.839355 194.349609 17.674561 Q 194.972656 18.509766 194.972656 19.976074 Q 194.972656 21.463867 194.346924 22.309814 Q 193.721191 23.155762 192.630859 23.155762 Q 192.093750 23.155762 191.682861 22.922119 Q 191.271973 22.688477 191.024902 22.242676 L 191.024902 23.000000 L 190.036621 23.000000 L 190.036621 14.642578 L 191.024902 14.642578 Z " fill="rgb(0, 0, 0)" fill-opacity="1.000000" />
<path d="M 212.878906 26.319336 L 212.878906 12.300781 L 213.738281 12.300781 L 213.738281 26.319336 Z " fill="rgb(0, 0, 0)" fill-opacity="1.000000" />
<path d="M 160.892578 7.335938 L 160.892578 6.412109 L 167.729980 6.412109 L 167.729980 7.335938 Z " fill="rgb(0, 0, 0)" fill-opacity="1.000000" />
<path d="M 167.892578 7.335938 L 167.892578 6.412109 L 174.729980 6.412109 L 174.729980 7.335938 Z " fill="rgb(0, 0, 0)" fill-opacity="1.000000" />
<path d="M 174.892578 7.335938 L 174.892578 6.412109 L 181.729980 6.412109 L 181.729980 7.335938 Z " fill="rgb(0, 0, 0)" fill-opacity="1.000000" />
<path d="M 181.892578 7.335938 L 181.892578 6.412109 L 188.729980 6.412109 L 188.729980 7.335938 Z " fill="rgb(0, 0, 0)" fill-opacity="1.000000" />
<path d="M 188.892578 7.335938 L 188.892578 6.412109 L 195.729980 6.412109 L 195.729980 7.335938 Z " fill="rgb(0, 0, 0)" fill-opacity="1.000000" />
<path d="M 195.892578 7.335938 L 195.892578 6.412109 L 202.729980 6.412109 L 202.729980 7.335938 Z " fill="rgb(0, 0, 0)" fill-opacity="1.000000" />
<path d="M 202.892578 7.335938 L 202.892578 6.412109 L 209.729980 6.412109 L 209.729980 7.335938 Z " fill="rgb(0, 0, 0)" fill-opacity="1.000000" />
<path d="M 212.878906 13.319336 L 212.878906 7.335938 L 209.892578 7.335938 L 209.892578 6.412109 L 213.738281 6.412109 L 213.738281 13.319336 Z " fill="rgb(0, 0, 0)" fill-opacity="1.000000" />
</svg>