<svg xmlns="http://www.w3.org/2000/svg" version="1.1" width="414" height="170">
<path d="M 8.450195 35.092285 L 10.136719 35.092285 L 10.136719 29.033691 L 8.117188 30.005859 L 8.117188 28.963867 L 10.125977 28.007812 L 11.210938 28.007812 L 11.210938 35.092285 L 12.875977 35.092285 L 12.875977 36.000000 L 8.450195 36.000000 Z " fill="rgb(0, 0, 0)" fill-opacity="1.000000" />
<path d="M 9.003418 87.086914 L 12.687988 87.086914 L 12.687988 88.000000 L 7.816406 88.000000 L 7.816406 87.086914 Q 8.820801 86.028809 9.572754 85.217773 Q 10.324707 84.406738 10.609375 84.073730 Q 11.146484 83.418457 11.334473 83.012939 Q 11.522461 82.607422 11.522461 82.183105 Q 11.522461 81.511719 11.127686 81.130371 Q 10.732910 80.749023 10.045410 80.749023 Q 9.556641 80.749023 9.019531 80.926270 Q 8.482422 81.103516 7.880859 81.463379 L 7.880859 80.367676 Q 8.434082 80.104492 8.968506 79.970215 Q 9.502930 79.835938 10.023926 79.835938 Q 11.200195 79.835938 11.917236 80.461670 Q 12.634277 81.087402 12.634277 82.102539 Q 12.634277 82.618164 12.395264 83.133789 Q 12.156250 83.649414 11.619141 84.272461 Q 11.318359 84.621582 10.746338 85.239258 Q 10.174316 85.856934 9.003418 87.086914 Z " fill="rgb(0, 0, 0)" fill-opacity="1.000000" />
<path d="M 11.167969 135.708496 Q 11.957520 135.917969 12.376465 136.452393 Q 12.795410 136.986816 12.795410 137.787109 Q 12.795410 138.893555 12.051514 139.524658 Q 11.307617 140.155762 9.991699 140.155762 Q 9.438477 140.155762 8.863770 140.053711 Q 8.289062 139.951660 7.735840 139.758301 L 7.735840 138.678711 Q 8.283691 138.963379 8.815430 139.103027 Q 9.347168 139.242676 9.873535 139.242676 Q 10.765137 139.242676 11.243164 138.839844 Q 11.721191 138.437012 11.721191 137.679688 Q 11.721191 136.981445 11.243164 136.570557 Q 10.765137 136.159668 9.948730 136.159668 L 9.121582 136.159668 L 9.121582 135.268066 L 9.948730 135.268066 Q 10.695312 135.268066 11.114258 134.940430 Q 11.533203 134.612793 11.533203 134.027344 Q 11.533203 133.409668 11.143799 133.079346 Q 10.754395 132.749023 10.034668 132.749023 Q 9.556641 132.749023 9.046387 132.856445 Q 8.536133 132.963867 7.977539 133.178711 L 7.977539 132.179688 Q 8.627441 132.007812 9.135010 131.921875 Q 9.642578 131.835938 10.034668 131.835938 Q 11.205566 131.835938 11.906494 132.424072 Q 12.607422 133.012207 12.607422 133.984375 Q 12.607422 134.645020 12.239502 135.085449 Q 11.871582 135.525879 11.167969 135.708496 Z " fill="rgb(0, 0, 0)" fill-opacity="1.000000" />
<path d="M 44.878906 150.335938 L 44.878906 142.300781 L 45.738281 142.300781 L 45.738281 149.412109 L 48.729980 149.412109 L 48.729980 150.335938 Z " fill="rgb(0, 0, 0)" fill-opacity="1.000000" />
<path d="M 48.892578 150.335938 L 48.892578 149.412109 L 55.729980 149.412109 L 55.729980 150.335938 Z " fill="rgb(0, 0, 0)" fill-opacity="1.000000" />
<path d="M 55.892578 150.335938 L 55.892578 149.412109 L 62.729980 149.412109 L 62.729980 150.335938 Z " fill="rgb(0, 0, 0)" fill-opacity="1.000000" />
<path d="M 62.892578 150.335938 L 62.892578 149.412109 L 69.729980 149.412109 L 69.729980 150.335938 Z " fill="rgb(0, 0, 0)" fill-opacity="1.000000" />
<path d="M 69.892578 150.335938 L 69.892578 149.412109 L 76.729980 149.412109 L 76.729980 150.335938 Z " fill="rgb(0, 0, 0)" fill-opacity="1.000000" />
<path d="M 76.892578 150.335938 L 76.892578 149.412109 L 83.729980 149.412109 L 83.729980 150.335938 Z " fill="rgb(0, 0, 0)" fill-opacity="1.000000" />
<path d="M 83.892578 150.335938 L 83.892578 149.412109 L 90.729980 149.412109 L 90.729980 150.335938 Z " fill="rgb(0, 0, 0)" fill-opacity="1.000000" />
<path d="M 90.892578 150.335938 L 90.892578 149.412109 L 97.729980 149.412109 L 97.729980 150.335938 Z " fill="rgb(0, 0, 0)" fill-opacity="1.000000" />
<path d="M 97.892578 150.335938 L 97.892578 149.412109 L 100.878906 149.412109 L 100.878906 142.300781 L 101.738281 142.300781 L 101.738281 150.335938 Z " fill="rgb(0, 0, 0)" fill-opacity="1.000000" />
<path d="M 156.878906 150.335938 L 156.878906 142.300781 L 157.738281 142.300781 L 157.738281 149.412109 L 160.729980 149.412109 L 160.729980 150.335938 Z " fill="rgb(0, 0, 0)" fill-opacity="1.000000" />
<path d="M 160.892578 150.335938 L 160.892578 149.412109 L 167.729980 149.412109 L 167.729980 150.335938 Z " fill="rgb(0, 0, 0)" fill-opacity="1.000000" />
<path d="M 167.892578 150.335938 L 167.892578 149.412109 L 174.729980 149.412109 L 174.729980 150.335938 Z " fill="rgb(0, 0, 0)" fill-opacity="1.000000" />
<path d="M 174.892578 150.335938 L 174.892578 149.412109 L 181.729980 149.412109 L 181.729980 150.335938 Z " fill="rgb(0, 0, 0)" fill-opacity="1.000000" />
<path d="M 181.892578 150.335938 L 181.892578 149.412109 L 188.729980 149.412109 L 188.729980 150.335938 Z " fill="rgb(0, 0, 0)" fill-opacity="1.000000" />
<path d="M 188.892578 150.335938 L 188.892578 149.412109 L 195.729980 149.412109 L 195.729980 150.335938 Z " fill="rgb(0, 0, 0)" fill-opacity="1.000000" />
<path d="M 195.892578 150.335938 L 195.892578 149.412109 L 202.729980 149.412109 L 202.729980 150.335938 Z " fill="rgb(0, 0, 0)" fill-opacity="1.000000" />
<path d="M 202.892578 150.335938 L 202.892578 149.412109 L 209.729980 149.412109 L 209.729980 150.335938 Z " fill="rgb(0, 0, 0)" fill-opacity="1.000000" />
<path d="M 209.892578 150.335938 L 209.892578 149.412109 L 212.878906 149.412109 L 212.878906 142.300781 L 213.738281 142.300781 L 213.738281 150.335938 Z " fill="rgb(0, 0, 0)" fill-opacity="1.000000" />
<path d="M 240.878906 150.335938 L 240.878906 142.300781 L 241.738281 142.300781 L 241.738281 149.412109 L 244.729980 149.412109 L 244.729980 150.335938 Z " fill="rgb(0, 0, 0)" fill-opacity="1.000000" />
<path d="M 244.892578 150.335938 L 244.892578 149.412109 L 251.729980 149.412109 L 251.729980 150.335938 Z " fill="rgb(0, 0, 0)" fill-opacity="1.000000" />
<path d="M 251.892578 150.335938 L 251.892578 149.412109 L 258.729980 149.412109 L 258.729980 150.335938 Z " fill="rgb(0, 0, 0)" fill-opacity="1.000000" />
<path d="M 258.892578 150.335938 L 258.892578 149.412109 L 265.729980 149.412109 L 265.729980 150.335938 Z " fill="rgb(0, 0, 0)" fill-opacity="1.000000" />
<path d="M 265.892578 150.335938 L 265.892578 149.412109 L 272.729980 149.412109 L 272.729980 150.335938 Z " fill="rgb(0, 0, 0)" fill-opacity="1.000000" />
<path d="M 272.892578 150.335938 L 272.892578 149.412109 L 279.729980 149.412109 L 279.729980 150.335938 Z " fill="rgb(0, 0, 0)" fill-opacity="1.000000" />
<path d="M 279.892578 150.335938 L 279.892578 149.412109 L 286.729980 149.412109 L 286.729980 150.335938 Z " fill="rgb(0, 0, 0)" fill-opacity="1.000000" />
<path d="M 286.892578 150.335938 L 286.892578 149.412109 L 293.729980 149.412109 L 293.729980 150.335938 Z " fill="rgb(0, 0, 0)" fill-opacity="1.000000" />
<path d="M 293.892578 150.335938 L 293.892578 149.412109 L 296.878906 149.412109 L 296.878906 142.300781 L 297.738281 142.300781 L 297.738281 150.335938 Z " fill="rgb(0, 0, 0)" fill-opacity="1.000000" />
<path d="M 352.878906 150.335938 L 352.878906 142.300781 L 353.738281 142.300781 L 353.738281 149.412109 L 356.729980 149.412109 L 356.729980 150.335938 Z " fill="rgb(0, 0, 0)" fill-opacity="1.000000" />
<path d="M 356.892578 150.335938 L 356.892578 149.412109 L 363.729980 149.412109 L 363.729980 150.335938 Z " fill="rgb(0, 0, 0)" fill-opacity="1.000000" />
<path d="M 363.892578 150.335938 L 363.892578 149.412109 L 370.729980 149.412109 L 370.729980 150.335938 Z " fill="rgb(0, 0, 0)" fill-opacity="1.000000" />
<path d="M 370.892578 150.335938 L 370.892578 149.412109 L 377.729980 149.412109 L 377.729980 150.335938 Z " fill="rgb(0, 0, 0)" fill-opacity="1.000000" />
<path d="M 377.892578 150.335938 L 377.892578 149.412109 L 384.729980 149.412109 L 384.729980 150.335938 Z " fill="rgb(0, 0, 0)" fill-opacity="1.000000" />
<path d="M 384.892578 150.335938 L 384.892578 149.412109 L 391.729980 149.412109 L 391.729980 150.335938 Z " fill="rgb(0, 0, 0)" fill-opacity="1.000000" />
<path d="M 391.892578 150.335938 L 391.892578 149.412109 L 398.729980 149.412109 L 398.729980 150.335938 Z " fill="rgb(0, 0, 0)" fill-opacity="1.000000" />
<path d="M 398.892578 150.335938 L 398.892578 149.412109 L 405.729980 149.412109 L 405.729980 150.335938 Z " fill="rgb(0, 0, 0)" fill-opacity="1.000000" />
<path d="M 405.892578 150.335938 L 405.892578 149.412109 L 408.878906 149.412109 L 408.878906 142.300781 L 409.738281 142.300781 L 409.738281 150.335938 Z " fill="rgb(0, 0, 0)" fill-opacity="1.000000" />
<path d="M 44.878906 143.319336 L 44.878906 129.300781 L 45.738281 129.300781 L 45.738281 143.319336 Z " fill="rgb(0, 0, 0)" fill-opacity="1.000000" />
<path d="M 74.608398 134.752441 L 74.608398 131.642578 L 75.596680 131.642578 L 75.596680 140.000000 L 74.608398 140.000000 L 74.608398 139.242676 Q 74.361328 139.688477 73.950439 139.922119 Q 73.539551 140.155762 73.002441 140.155762 Q 71.912109 140.155762 71.286377 139.309814 Q 70.660645 138.463867 70.660645 136.976074 Q 70.660645 135.509766 71.289062 134.674561 Q 71.917480 133.839355 73.002441 133.839355 Q 73.544922 133.839355 73.958496 134.072998 Q 74.372070 134.306641 74.608398 134.752441 Z M 71.702637 136.997559 Q 71.702637 138.146973 72.067871 138.732422 Q 72.433105 139.317871 73.147461 139.317871 Q 73.861816 139.317871 74.235107 138.727051 Q 74.608398 138.136230 74.608398 136.997559 Q 74.608398 135.853516 74.235107 135.265381 Q 73.861816 134.677246 73.147461 134.677246 Q 72.433105 134.677246 72.067871 135.262695 Q 71.702637 135.848145 71.702637 136.997559 Z " fill="rgb(0, 0, 0)" fill-opacity="1.000000" />
<path d="M 100.878906 143.319336 L 100.878906 129.300781 L 101.738281 129.300781 L 101.738281 143.319336 Z " fill="rgb(0, 0, 0)" fill-opacity="1.000000" />
<path d="M 105.032227 137.142578 L 111.590332 133.866211 L 111.590332 140.418945 Z " fill="rgb(0, 0, 0)" fill-opacity="1.000000" />
<path d="M 111.892578 137.335938 L 111.892578 136.412109 L 118.729980 136.412109 L 118.729980 137.335938 Z " fill="rgb(0, 0, 0)" fill-opacity="1.000000" />
<path d="M 118.892578 137.335938 L 118.892578 136.412109 L 125.729980 136.412109 L 125.729980 137.335938 Z " fill="rgb(0, 0, 0)" fill-opacity="1.000000" />
<path d="M 125.892578 137.335938 L 125.892578 136.412109 L 128.878906 136.412109 L 128.878906 129.300781 L 129.738281 129.300781 L 129.738281 136.412109 L 132.729980 136.412109 L 132.729980 137.335938 Z " fill="rgb(0, 0, 0)" fill-opacity="1.000000" />
<path d="M 132.892578 137.335938 L 132.892578 136.412109 L 139.729980 136.412109 L 139.729980 137.335938 Z " fill="rgb(0, 0, 0)" fill-opacity="1.000000" />
<path d="M 139.892578 137.335938 L 139.892578 136.412109 L 146.729980 136.412109 L 146.729980 137.335938 Z " fill="rgb(0, 0, 0)" fill-opacity="1.000000" />
<path d="M 147.032227 140.418945 L 147.032227 133.866211 L 153.590332 137.142578 Z " fill="rgb(0, 0, 0)" fill-opacity="1.000000" />
<path d="M 156.878906 143.319336 L 156.878906 129.300781 L 157.738281 129.300781 L 157.738281 143.319336 Z " fill="rgb(0, 0, 0)" fill-opacity="1.000000" />
<path d="M 188.015625 136.498047 L 188.015625 136.981445 L 183.734863 136.981445 L 183.734863 137.013672 Q 183.691895 138.243652 184.204834 138.780762 Q 184.717773 139.317871 185.652344 139.317871 Q 186.125000 139.317871 186.640625 139.167480 Q 187.156250 139.017090 187.741699 138.710938 L 187.741699 139.693848 Q 187.177734 139.924805 186.654053 140.040283 Q 186.130371 140.155762 185.641602 140.155762 Q 184.239746 140.155762 183.450195 139.315186 Q 182.660645 138.474609 182.660645 136.997559 Q 182.660645 135.558105 183.434082 134.698730 Q 184.207520 133.839355 185.496582 133.839355 Q 186.645996 133.839355 187.309326 134.618164 Q 187.972656 135.396973 188.015625 136.498047 Z M 187.027344 136.208008 Q 186.962891 135.584961 186.573486 135.131104 Q 186.184082 134.677246 185.453613 134.677246 Q 184.739258 134.677246 184.277344 135.149902 Q 183.815430 135.622559 183.772461 136.213379 Z " fill="rgb(0, 0, 0)" fill-opacity="1.000000" />
<path d="M 212.878906 143.319336 L 212.878906 129.300781 L 213.738281 129.300781 L 213.738281 143.319336 Z " fill="rgb(0, 0, 0)" fill-opacity="1.000000" />
<path d="M 240.878906 143.319336 L 240.878906 129.300781 L 241.738281 129.300781 L 241.738281 143.319336 Z " fill="rgb(0, 0, 0)" fill-opacity="1.000000" />
<path d="M 271.709473 131.642578 L 271.709473 132.464355 L 270.586914 132.464355 Q 270.055176 132.464355 269.848389 132.681885 Q 269.641602 132.899414 269.641602 133.452637 L 269.641602 133.984375 L 271.709473 133.984375 L 271.709473 134.752441 L 269.641602 134.752441 L 269.641602 140.000000 L 268.653320 140.000000 L 268.653320 134.752441 L 267.047363 134.752441 L 267.047363 133.984375 L 268.653320 133.984375 L 268.653320 133.565430 Q 268.653320 132.577148 269.107178 132.109863 Q 269.561035 131.642578 270.522461 131.642578 Z " fill="rgb(0, 0, 0)" fill-opacity="1.000000" />
<path d="M 296.878906 143.319336 L 296.878906 129.300781 L 297.738281 129.300781 L 297.738281 143.319336 Z " fill="rgb(0, 0, 0)" fill-opacity="1.000000" />
<path d="M 301.032227 137.142578 L 307.590332 133.866211 L 307.590332 140.418945 Z " fill="rgb(0, 0, 0)" fill-opacity="1.000000" />
<path d="M 307.892578 137.335938 L 307.892578 136.412109 L 314.729980 136.412109 L 314.729980 137.335938 Z " fill="rgb(0, 0, 0)" fill-opacity="1.000000" />
<path d="M 314.892578 137.335938 L 314.892578 136.412109 L 321.729980 136.412109 L 321.729980 137.335938 Z " fill="rgb(0, 0, 0)" fill-opacity="1.000000" />
<path d="M 321.892578 137.335938 L 321.892578 136.412109 L 324.878906 136.412109 L 324.878906 129.300781 L 325.738281 129.300781 L 325.738281 136.412109 L 328.729980 136.412109 L 328.729980 137.335938 Z " fill="rgb(0, 0, 0)" fill-opacity="1.000000" />
<path d="M 328.892578 137.335938 L 328.892578 136.412109 L 335.729980 136.412109 L 335.729980 137.335938 Z " fill="rgb(0, 0, 0)" fill-opacity="1.000000" />
<path d="M 335.892578 137.335938 L 335.892578 136.412109 L 342.729980 136.412109 L 342.729980 137.335938 Z " fill="rgb(0, 0, 0)" fill-opacity="1.000000" />
<path d="M 343.032227 140.418945 L 343.032227 133.866211 L 349.590332 137.142578 Z " fill="rgb(0, 0, 0)" fill-opacity="1.000000" />
<path d="M 352.878906 143.319336 L 352.878906 129.300781 L 353.738281 129.300781 L 353.738281 143.319336 Z " fill="rgb(0, 0, 0)" fill-opacity="1.000000" />
<path d="M 382.608398 136.943848 Q 382.608398 135.832031 382.245850 135.254639 Q 381.883301 134.677246 381.190430 134.677246 Q 380.465332 134.677246 380.083984 135.254639 Q 379.702637 135.832031 379.702637 136.943848 Q 379.702637 138.055664 380.086670 138.638428 Q 380.470703 139.221191 381.201172 139.221191 Q 381.883301 139.221191 382.245850 138.635742 Q 382.608398 138.050293 382.608398 136.943848 Z M 383.596680 139.613281 Q 383.596680 140.966797 382.957520 141.665039 Q 382.318359 142.363281 381.077637 142.363281 Q 380.669434 142.363281 380.223633 142.288086 Q 379.777832 142.212891 379.332031 142.067871 L 379.332031 141.090332 Q 379.858398 141.337402 380.288086 141.455566 Q 380.717773 141.573730 381.077637 141.573730 Q 381.877930 141.573730 382.243164 141.138672 Q 382.608398 140.703613 382.608398 139.758301 L 382.608398 139.715332 L 382.608398 139.043945 Q 382.372070 139.548828 381.963867 139.795898 Q 381.555664 140.042969 380.970215 140.042969 Q 379.917480 140.042969 379.289062 139.199707 Q 378.660645 138.356445 378.660645 136.943848 Q 378.660645 135.525879 379.289062 134.682617 Q 379.917480 133.839355 380.970215 133.839355 Q 381.550293 133.839355 381.953125 134.070312 Q 382.355957 134.301270 382.608398 134.784668 L 382.608398 134.005859 L 383.596680 134.005859 Z " fill="rgb(0, 0, 0)" fill-opacity="1.000000" />
<path d="M 408.878906 143.319336 L 408.878906 129.300781 L 409.738281 129.300781 L 409.738281 143.319336 Z " fill="rgb(0, 0, 0)" fill-opacity="1.000000" />
<path d="M 44.878906 130.319336 L 44.878906 123.412109 L 48.729980 123.412109 L 48.729980 124.335938 L 45.738281 124.335938 L 45.738281 130.319336 Z " fill="rgb(0, 0, 0)" fill-opacity="1.000000" />
<path d="M 48.892578 124.335938 L 48.892578 123.412109 L 55.729980 123.412109 L 55.729980 124.335938 Z " fill="rgb(0, 0, 0)" fill-opacity="1.000000" />
<path d="M 55.892578 124.335938 L 55.892578 123.412109 L 62.729980 123.412109 L 62.729980 124.335938 Z " fill="rgb(0, 0, 0)" fill-opacity="1.000000" />
<path d="M 62.892578 124.335938 L 62.892578 123.412109 L 69.729980 123.412109 L 69.729980 124.335938 Z " fill="rgb(0, 0, 0)" fill-opacity="1.000000" />
<path d="M 69.892578 124.335938 L 69.892578 123.412109 L 76.729980 123.412109 L 76.729980 124.335938 Z " fill="rgb(0, 0, 0)" fill-opacity="1.000000" />
<path d="M 76.892578 124.335938 L 76.892578 123.412109 L 83.729980 123.412109 L 83.729980 124.335938 Z " fill="rgb(0, 0, 0)" fill-opacity="1.000000" />
<path d="M 83.892578 124.335938 L 83.892578 123.412109 L 90.729980 123.412109 L 90.729980 124.335938 Z " fill="rgb(0, 0, 0)" fill-opacity="1.000000" />
<path d="M 90.892578 124.335938 L 90.892578 123.412109 L 97.729980 123.412109 L 97.729980 124.335938 Z " fill="rgb(0, 0, 0)" fill-opacity="1.000000" />
<path d="M 100.878906 130.319336 L 100.878906 124.335938 L 97.892578 124.335938 L 97.892578 123.412109 L 101.738281 123.412109 L 101.738281 130.319336 Z " fill="rgb(0, 0, 0)" fill-opacity="1.000000" />
<path d="M 128.878906 130.319336 L 128.878906 116.300781 L 129.738281 116.300781 L 129.738281 130.319336 Z " fill="rgb(0, 0, 0)" fill-opacity="1.000000" />
<path d="M 156.878906 130.319336 L 156.878906 123.412109 L 160.729980 123.412109 L 160.729980 124.335938 L 157.738281 124.335938 L 157.738281 130.319336 Z " fill="rgb(0, 0, 0)" fill-opacity="1.000000" />
<path d="M 160.892578 124.335938 L 160.892578 123.412109 L 167.729980 123.412109 L 167.729980 124.335938 Z " fill="rgb(0, 0, 0)" fill-opacity="1.000000" />
<path d="M 167.892578 124.335938 L 167.892578 123.412109 L 174.729980 123.412109 L 174.729980 124.335938 Z " fill="rgb(0, 0, 0)" fill-opacity="1.000000" />
<path d="M 174.892578 124.335938 L 174.892578 123.412109 L 181.729980 123.412109 L 181.729980 124.335938 Z " fill="rgb(0, 0, 0)" fill-opacity="1.000000" />
<path d="M 181.892578 124.335938 L 181.892578 123.412109 L 188.729980 123.412109 L 188.729980 124.335938 Z " fill="rgb(0, 0, 0)" fill-opacity="1.000000" />
<path d="M 188.892578 124.335938 L 188.892578 123.412109 L 195.729980 123.412109 L 195.729980 124.335938 Z " fill="rgb(0, 0, 0)" fill-opacity="1.000000" />
<path d="M 195.892578 124.335938 L 195.892578 123.412109 L 202.729980 123.412109 L 202.729980 124.335938 Z " fill="rgb(0, 0, 0)" fill-opacity="1.000000" />
<path d="M 202.892578 124.335938 L 202.892578 123.412109 L 209.729980 123.412109 L 209.729980 124.335938 Z " fill="rgb(0, 0, 0)" fill-opacity="1.000000" />
<path d="M 212.878906 130.319336 L 212.878906 124.335938 L 209.892578 124.335938 L 209.892578 123.412109 L 213.738281 123.412109 L 213.738281 130.319336 Z " fill="rgb(0, 0, 0)" fill-opacity="1.000000" />
<path d="M 240.878906 130.319336 L 240.878906 123.412109 L 244.729980 123.412109 L 244.729980 124.335938 L 241.738281 124.335938 L 241.738281 130.319336 Z " fill="rgb(0, 0, 0)" fill-opacity="1.000000" />
<path d="M 244.892578 124.335938 L 244.892578 123.412109 L 251.729980 123.412109 L 251.729980 124.335938 Z " fill="rgb(0, 0, 0)" fill-opacity="1.000000" />
<path d="M 251.892578 124.335938 L 251.892578 123.412109 L 258.729980 123.412109 L 258.729980 124.335938 Z " fill="rgb(0, 0, 0)" fill-opacity="1.000000" />
<path d="M 258.892578 124.335938 L 258.892578 123.412109 L 265.729980 123.412109 L 265.729980 124.335938 Z " fill="rgb(0, 0, 0)" fill-opacity="1.000000" />
<path d="M 265.892578 124.335938 L 265.892578 123.412109 L 272.729980 123.412109 L 272.729980 124.335938 Z " fill="rgb(0, 0, 0)" fill-opacity="1.000000" />
<path d="M 272.892578 124.335938 L 272.892578 123.412109 L 279.729980 123.412109 L 279.729980 124.335938 Z " fill="rgb(0, 0, 0)" fill-opacity="1.000000" />
<path d="M 279.892578 124.335938 L 279.892578 123.412109 L 286.729980 123.412109 L 286.729980 124.335938 Z " fill="rgb(0, 0, 0)" fill-opacity="1.000000" />
<path d="M 286.892578 124.335938 L 286.892578 123.412109 L 293.729980 123.412109 L 293.729980 124.335938 Z " fill="rgb(0, 0, 0)" fill-opacity="1.000000" />
<path d="M 296.878906 130.319336 L 296.878906 124.335938 L 293.892578 124.335938 L 293.892578 123.412109 L 297.738281 123.412109 L 297.738281 130.319336 Z " fill="rgb(0, 0, 0)" fill-opacity="1.000000" />
<path d="M 324.878906 130.319336 L 324.878906 116.300781 L 325.738281 116.300781 L 325.738281 130.319336 Z " fill="rgb(0, 0, 0)" fill-opacity="1.000000" />
<path d="M 352.878906 130.319336 L 352.878906 123.412109 L 356.729980 123.412109 L 356.729980 124.335938 L 353.738281 124.335938 L 353.738281 130.319336 Z " fill="rgb(0, 0, 0)" fill-opacity="1.000000" />
<path d="M 356.892578 124.335938 L 356.892578 123.412109 L 363.729980 123.412109 L 363.729980 124.335938 Z " fill="rgb(0, 0, 0)" fill-opacity="1.000000" />
<path d="M 363.892578 124.335938 L 363.892578 123.412109 L 370.729980 123.412109 L 370.729980 124.335938 Z " fill="rgb(0, 0, 0)" fill-opacity="1.000000" />
<path d="M 370.892578 124.335938 L 370.892578 123.412109 L 377.729980 123.412109 L 377.729980 124.335938 Z " fill="rgb(0, 0, 0)" fill-opacity="1.000000" />
<path d="M 377.892578 124.335938 L 377.892578 123.412109 L 384.729980 123.412109 L 384.729980 124.335938 Z " fill="rgb(0, 0, 0)" fill-opacity="1.000000" />
<path d="M 384.892578 124.335938 L 384.892578 123.412109 L 391.729980 123.412109 L 391.729980 124.335938 Z " fill="rgb(0, 0, 0)" fill-opacity="1.000000" />
<path d="M 391.892578 124.335938 L 391.892578 123.412109 L 398.729980 123.412109 L 398.729980 124.335938 Z " fill="rgb(0, 0, 0)" fill-opacity="1.000000" />
<path d="M 398.892578 124.335938 L 398.892578 123.412109 L 405.729980 123.412109 L 405.729980 124.335938 Z " fill="rgb(0, 0, 0)" fill-opacity="1.000000" />
<path d="M 408.878906 130.319336 L 408.878906 124.335938 L 405.892578 124.335938 L 405.892578 123.412109 L 409.738281 123.412109 L 409.738281 130.319336 Z " fill="rgb(0, 0, 0)" fill-opacity="1.000000" />
<path d="M 100.878906 98.335938 L 100.878906 90.300781 L 101.738281 90.300781 L 101.738281 97.412109 L 104.729980 97.412109 L 104.729980 98.335938 Z " fill="rgb(0, 0, 0)" fill-opacity="1.000000" />
<path d="M 128.878906 117.319336 L 128.878906 103.300781 L 129.738281 103.300781 L 129.738281 117.319336 Z " fill="rgb(0, 0, 0)" fill-opacity="1.000000" />
<path d="M 324.878906 117.319336 L 324.878906 103.300781 L 325.738281 103.300781 L 325.738281 117.319336 Z " fill="rgb(0, 0, 0)" fill-opacity="1.000000" />
<path d="M 104.892578 98.335938 L 104.892578 97.412109 L 111.729980 97.412109 L 111.729980 98.335938 Z " fill="rgb(0, 0, 0)" fill-opacity="1.000000" />
<path d="M 111.892578 98.335938 L 111.892578 97.412109 L 118.729980 97.412109 L 118.729980 98.335938 Z " fill="rgb(0, 0, 0)" fill-opacity="1.000000" />
<path d="M 118.892578 98.335938 L 118.892578 97.412109 L 125.729980 97.412109 L 125.729980 98.335938 Z " fill="rgb(0, 0, 0)" fill-opacity="1.000000" />
<path d="M 125.892578 98.335938 L 125.892578 97.412109 L 132.729980 97.412109 L 132.729980 98.335938 Z " fill="rgb(0, 0, 0)" fill-opacity="1.000000" />
<path d="M 132.892578 98.335938 L 132.892578 97.412109 L 139.729980 97.412109 L 139.729980 98.335938 Z " fill="rgb(0, 0, 0)" fill-opacity="1.000000" />
<path d="M 139.892578 98.335938 L 139.892578 97.412109 L 146.729980 97.412109 L 146.729980 98.335938 Z " fill="rgb(0, 0, 0)" fill-opacity="1.000000" />
<path d="M 146.892578 98.335938 L 146.892578 97.412109 L 153.729980 97.412109 L 153.729980 98.335938 Z " fill="rgb(0, 0, 0)" fill-opacity="1.000000" />
<path d="M 153.892578 98.335938 L 153.892578 97.412109 L 156.878906 97.412109 L 156.878906 90.300781 L 157.738281 90.300781 L 157.738281 98.335938 Z " fill="rgb(0, 0, 0)" fill-opacity="1.000000" />
<path d="M 296.878906 98.335938 L 296.878906 90.300781 L 297.738281 90.300781 L 297.738281 97.412109 L 300.729980 97.412109 L 300.729980 98.335938 Z " fill="rgb(0, 0, 0)" fill-opacity="1.000000" />
<path d="M 300.892578 98.335938 L 300.892578 97.412109 L 307.729980 97.412109 L 307.729980 98.335938 Z " fill="rgb(0, 0, 0)" fill-opacity="1.000000" />
<path d="M 307.892578 98.335938 L 307.892578 97.412109 L 314.729980 97.412109 L 314.729980 98.335938 Z " fill="rgb(0, 0, 0)" fill-opacity="1.000000" />
<path d="M 314.892578 98.335938 L 314.892578 97.412109 L 321.729980 97.412109 L 321.729980 98.335938 Z " fill="rgb(0, 0, 0)" fill-opacity="1.000000" />
<path d="M 321.892578 98.335938 L 321.892578 97.412109 L 328.729980 97.412109 L 328.729980 98.335938 Z " fill="rgb(0, 0, 0)" fill-opacity="1.000000" />
<path d="M 328.892578 98.335938 L 328.892578 97.412109 L 335.729980 97.412109 L 335.729980 98.335938 Z " fill="rgb(0, 0, 0)" fill-opacity="1.000000" />
<path d="M 335.892578 98.335938 L 335.892578 97.412109 L 342.729980 97.412109 L 342.729980 98.335938 Z " fill="rgb(0, 0, 0)" fill-opacity="1.000000" />
<path d="M 342.892578 98.335938 L 342.892578 97.412109 L 349.729980 97.412109 L 349.729980 98.335938 Z " fill="rgb(0, 0, 0)" fill-opacity="1.000000" />
<path d="M 349.892578 98.335938 L 349.892578 97.412109 L 352.878906 97.412109 L 352.878906 90.300781 L 353.738281 90.300781 L 353.738281 98.335938 Z " fill="rgb(0, 0, 0)" fill-opacity="1.000000" />
<path d="M 100.878906 91.319336 L 100.878906 77.300781 L 101.738281 77.300781 L 101.738281 91.319336 Z " fill="rgb(0, 0, 0)" fill-opacity="1.000000" />
<path d="M 130.930664 84.997559 Q 130.930664 83.848145 130.565430 83.262695 Q 130.200195 82.677246 129.485840 82.677246 Q 128.766113 82.677246 128.395508 83.265381 Q 128.024902 83.853516 128.024902 84.997559 Q 128.024902 86.136230 128.395508 86.727051 Q 128.766113 87.317871 129.485840 87.317871 Q 130.200195 87.317871 130.565430 86.732422 Q 130.930664 86.146973 130.930664 84.997559 Z M 128.024902 82.752441 Q 128.261230 82.312012 128.677490 82.075684 Q 129.093750 81.839355 129.641602 81.839355 Q 130.726562 81.839355 131.349609 82.674561 Q 131.972656 83.509766 131.972656 84.976074 Q 131.972656 86.463867 131.346924 87.309814 Q 130.721191 88.155762 129.630859 88.155762 Q 129.093750 88.155762 128.682861 87.922119 Q 128.271973 87.688477 128.024902 87.242676 L 128.024902 88.000000 L 127.036621 88.000000 L 127.036621 79.642578 L 128.024902 79.642578 Z " fill="rgb(0, 0, 0)" fill-opacity="1.000000" />
<path d="M 156.878906 91.319336 L 156.878906 77.300781 L 157.738281 77.300781 L 157.738281 91.319336 Z " fill="rgb(0, 0, 0)" fill-opacity="1.000000" />
<path d="M 161.032227 85.142578 L 167.590332 81.866211 L 167.590332 88.418945 Z " fill="rgb(0, 0, 0)" fill-opacity="1.000000" />
<path d="M 167.892578 85.335938 L 167.892578 84.412109 L 174.729980 84.412109 L 174.729980 85.335938 Z " fill="rgb(0, 0, 0)" fill-opacity="1.000000" />
<path d="M 174.892578 85.335938 L 174.892578 84.412109 L 181.729980 84.412109 L 181.729980 85.335938 Z " fill="rgb(0, 0, 0)" fill-opacity="1.000000" />
<path d="M 181.892578 85.335938 L 181.892578 84.412109 L 188.729980 84.412109 L 188.729980 85.335938 Z " fill="rgb(0, 0, 0)" fill-opacity="1.000000" />
<path d="M 188.892578 85.335938 L 188.892578 84.412109 L 195.729980 84.412109 L 195.729980 85.335938 Z " fill="rgb(0, 0, 0)" fill-opacity="1.000000" />
<path d="M 195.892578 85.335938 L 195.892578 84.412109 L 202.729980 84.412109 L 202.729980 85.335938 Z " fill="rgb(0, 0, 0)" fill-opacity="1.000000" />
<path d="M 202.892578 85.335938 L 202.892578 84.412109 L 209.729980 84.412109 L 209.729980 85.335938 Z " fill="rgb(0, 0, 0)" fill-opacity="1.000000" />
<path d="M 209.892578 85.335938 L 209.892578 84.412109 L 216.729980 84.412109 L 216.729980 85.335938 Z " fill="rgb(0, 0, 0)" fill-opacity="1.000000" />
<path d="M 216.892578 85.335938 L 216.892578 84.412109 L 223.729980 84.412109 L 223.729980 85.335938 Z " fill="rgb(0, 0, 0)" fill-opacity="1.000000" />
<path d="M 223.892578 85.335938 L 223.892578 84.412109 L 226.878906 84.412109 L 226.878906 77.300781 L 227.738281 77.300781 L 227.738281 84.412109 L 230.729980 84.412109 L 230.729980 85.335938 Z " fill="rgb(0, 0, 0)" fill-opacity="1.000000" />
<path d="M 230.892578 85.335938 L 230.892578 84.412109 L 237.729980 84.412109 L 237.729980 85.335938 Z " fill="rgb(0, 0, 0)" fill-opacity="1.000000" />
<path d="M 237.892578 85.335938 L 237.892578 84.412109 L 244.729980 84.412109 L 244.729980 85.335938 Z " fill="rgb(0, 0, 0)" fill-opacity="1.000000" />
<path d="M 244.892578 85.335938 L 244.892578 84.412109 L 251.729980 84.412109 L 251.729980 85.335938 Z " fill="rgb(0, 0, 0)" fill-opacity="1.000000" />
<path d="M 251.892578 85.335938 L 251.892578 84.412109 L 258.729980 84.412109 L 258.729980 85.335938 Z " fill="rgb(0, 0, 0)" fill-opacity="1.000000" />
<path d="M 258.892578 85.335938 L 258.892578 84.412109 L 265.729980 84.412109 L 265.729980 85.335938 Z " fill="rgb(0, 0, 0)" fill-opacity="1.000000" />
<path d="M 265.892578 85.335938 L 265.892578 84.412109 L 272.729980 84.412109 L 272.729980 85.335938 Z " fill="rgb(0, 0, 0)" fill-opacity="1.000000" />
<path d="M 272.892578 85.335938 L 272.892578 84.412109 L 279.729980 84.412109 L 279.729980 85.335938 Z " fill="rgb(0, 0, 0)" fill-opacity="1.000000" />
<path d="M 279.892578 85.335938 L 279.892578 84.412109 L 286.729980 84.412109 L 286.729980 85.335938 Z " fill="rgb(0, 0, 0)" fill-opacity="1.000000" />
<path d="M 287.032227 88.418945 L 287.032227 81.866211 L 293.590332 85.142578 Z " fill="rgb(0, 0, 0)" fill-opacity="1.000000" />
<path d="M 296.878906 91.319336 L 296.878906 77.300781 L 297.738281 77.300781 L 297.738281 91.319336 Z " fill="rgb(0, 0, 0)" fill-opacity="1.000000" />
<path d="M 327.698730 87.693848 Q 327.301270 87.924805 326.879639 88.040283 Q 326.458008 88.155762 326.017578 88.155762 Q 324.621094 88.155762 323.834229 87.317871 Q 323.047363 86.479980 323.047363 84.997559 Q 323.047363 83.515137 323.834229 82.677246 Q 324.621094 81.839355 326.017578 81.839355 Q 326.452637 81.839355 326.866211 81.952148 Q 327.279785 82.064941 327.698730 82.301270 L 327.698730 83.337891 Q 327.306641 82.988770 326.911865 82.833008 Q 326.517090 82.677246 326.017578 82.677246 Q 325.088379 82.677246 324.588867 83.278809 Q 324.089355 83.880371 324.089355 84.997559 Q 324.089355 86.109375 324.591553 86.713623 Q 325.093750 87.317871 326.017578 87.317871 Q 326.533203 87.317871 326.941406 87.159424 Q 327.349609 87.000977 327.698730 86.667969 Z " fill="rgb(0, 0, 0)" fill-opacity="1.000000" />
<path d="M 352.878906 91.319336 L 352.878906 77.300781 L 353.738281 77.300781 L 353.738281 91.319336 Z " fill="rgb(0, 0, 0)" fill-opacity="1.000000" />
<path d="M 100.878906 78.319336 L 100.878906 71.412109 L 104.729980 71.412109 L 104.729980 72.335938 L 101.738281 72.335938 L 101.738281 78.319336 Z " fill="rgb(0, 0, 0)" fill-opacity="1.000000" />
<path d="M 104.892578 72.335938 L 104.892578 71.412109 L 111.729980 71.412109 L 111.729980 72.335938 Z " fill="rgb(0, 0, 0)" fill-opacity="1.000000" />
<path d="M 111.892578 72.335938 L 111.892578 71.412109 L 118.729980 71.412109 L 118.729980 72.335938 Z " fill="rgb(0, 0, 0)" fill-opacity="1.000000" />
<path d="M 118.892578 72.335938 L 118.892578 71.412109 L 125.729980 71.412109 L 125.729980 72.335938 Z " fill="rgb(0, 0, 0)" fill-opacity="1.000000" />
<path d="M 125.892578 72.335938 L 125.892578 71.412109 L 132.729980 71.412109 L 132.729980 72.335938 Z " fill="rgb(0, 0, 0)" fill-opacity="1.000000" />
<path d="M 132.892578 72.335938 L 132.892578 71.412109 L 139.729980 71.412109 L 139.729980 72.335938 Z " fill="rgb(0, 0, 0)" fill-opacity="1.000000" />
<path d="M 139.892578 72.335938 L 139.892578 71.412109 L 146.729980 71.412109 L 146.729980 72.335938 Z " fill="rgb(0, 0, 0)" fill-opacity="1.000000" />
<path d="M 146.892578 72.335938 L 146.892578 71.412109 L 153.729980 71.412109 L 153.729980 72.335938 Z " fill="rgb(0, 0, 0)" fill-opacity="1.000000" />
<path d="M 156.878906 78.319336 L 156.878906 72.335938 L 153.892578 72.335938 L 153.892578 71.412109 L 157.738281 71.412109 L 157.738281 78.319336 Z " fill="rgb(0, 0, 0)" fill-opacity="1.000000" />
<path d="M 226.878906 78.319336 L 226.878906 64.300781 L 227.738281 64.300781 L 227.738281 78.319336 Z " fill="rgb(0, 0, 0)" fill-opacity="1.000000" />
<path d="M 296.878906 78.319336 L 296.878906 71.412109 L 300.729980 71.412109 L 300.729980 72.335938 L 297.738281 72.335938 L 297.738281 78.319336 Z " fill="rgb(0, 0, 0)" fill-opacity="1.000000" />
<path d="M 300.892578 72.335938 L 300.892578 71.412109 L 307.729980 71.412109 L 307.729980 72.335938 Z " fill="rgb(0, 0, 0)" fill-opacity="1.000000" />
<path d="M 307.892578 72.335938 L 307.892578 71.412109 L 314.729980 71.412109 L 314.729980 72.335938 Z " fill="rgb(0, 0, 0)" fill-opacity="1.000000" />
<path d="M 314.892578 72.335938 L 314.892578 71.412109 L 321.729980 71.412109 L 321.729980 72.335938 Z " fill="rgb(0, 0, 0)" fill-opacity="1.000000" />
<path d="M 321.892578 72.335938 L 321.892578 71.412109 L 328.729980 71.412109 L 328.729980 72.335938 Z " fill="rgb(0, 0, 0)" fill-opacity="1.000000" />
<path d="M 328.892578 72.335938 L 328.892578 71.412109 L 335.729980 71.412109 L 335.729980 72.335938 Z " fill="rgb(0, 0, 0)" fill-opacity="1.000000" />
<path d="M 335.892578 72.335938 L 335.892578 71.412109 L 342.729980 71.412109 L 342.729980 72.335938 Z " fill="rgb(0, 0, 0)" fill-opacity="1.000000" />
<path d="M 342.892578 72.335938 L 342.892578 71.412109 L 349.729980 71.412109 L 349.729980 72.335938 Z " fill="rgb(0, 0, 0)" fill-opacity="1.000000" />
<path d="M 352.878906 78.319336 L 352.878906 72.335938 L 349.892578 72.335938 L 349.892578 71.412109 L 353.738281 71.412109 L 353.738281 78.319336 Z " fill="rgb(0, 0, 0)" fill-opacity="1.000000" />
<path d="M 198.878906 46.335938 L 198.878906 38.300781 L 199.738281 38.300781 L 199.738281 45.412109 L 202.729980 45.412109 L 202.729980 46.335938 Z " fill="rgb(0, 0, 0)" fill-opacity="1.000000" />
<path d="M 226.878906 65.319336 L 226.878906 51.300781 L 227.738281 51.300781 L 227.738281 65.319336 Z " fill="rgb(0, 0, 0)" fill-opacity="1.000000" />
<path d="M 202.892578 46.335938 L 202.892578 45.412109 L 209.729980 45.412109 L 209.729980 46.335938 Z " fill="rgb(0, 0, 0)" fill-opacity="1.000000" />
<path d="M 209.892578 46.335938 L 209.892578 45.412109 L 216.729980 45.412109 L 216.729980 46.335938 Z " fill="rgb(0, 0, 0)" fill-opacity="1.000000" />
<path d="M 216.892578 46.335938 L 216.892578 45.412109 L 223.729980 45.412109 L 223.729980 46.335938 Z " fill="rgb(0, 0, 0)" fill-opacity="1.000000" />
<path d="M 223.892578 46.335938 L 223.892578 45.412109 L 230.729980 45.412109 L 230.729980 46.335938 Z " fill="rgb(0, 0, 0)" fill-opacity="1.000000" />
<path d="M 230.892578 46.335938 L 230.892578 45.412109 L 237.729980 45.412109 L 237.729980 46.335938 Z " fill="rgb(0, 0, 0)" fill-opacity="1.000000" />
<path d="M 237.892578 46.335938 L 237.892578 45.412109 L 244.729980 45.412109 L 244.729980 46.335938 Z " fill="rgb(0, 0, 0)" fill-opacity="1.000000" />
<path d="M 244.892578 46.335938 L 244.892578 45.412109 L 251.729980 45.412109 L 251.729980 46.335938 Z " fill="rgb(0, 0, 0)" fill-opacity="1.000000" />
<path d="M 251.892578 46.335938 L 251.892578 45.412109 L 254.878906 45.412109 L 254.878906 38.300781 L 255.738281 38.300781 L 255.738281 46.335938 Z " fill="rgb(0, 0, 0)" fill-opacity="1.000000" />
<path d="M 198.878906 39.319336 L 198.878906 25.300781 L 199.738281 25.300781 L 199.738281 39.319336 Z " fill="rgb(0, 0, 0)" fill-opacity="1.000000" />
<path d="M 227.770508 32.976074 L 227.442871 32.976074 Q 226.578125 32.976074 226.140381 33.279541 Q 225.702637 33.583008 225.702637 34.184570 Q 225.702637 34.727051 226.030273 35.027832 Q 226.357910 35.328613 226.937988 35.328613 Q 227.754395 35.328613 228.221680 34.761963 Q 228.688965 34.195312 228.694336 33.196289 L 228.694336 32.976074 Z M 229.687988 32.567871 L 229.687988 36.000000 L 228.694336 36.000000 L 228.694336 35.108398 Q 228.377441 35.645508 227.896729 35.900635 Q 227.416016 36.155762 226.728516 36.155762 Q 225.810059 36.155762 225.262207 35.637451 Q 224.714355 35.119141 224.714355 34.249023 Q 224.714355 33.244629 225.388428 32.723633 Q 226.062500 32.202637 227.367676 32.202637 L 228.694336 32.202637 L 228.694336 32.046875 Q 228.688965 31.327148 228.329102 31.002197 Q 227.969238 30.677246 227.179688 30.677246 Q 226.674805 30.677246 226.159180 30.822266 Q 225.643555 30.967285 225.154785 31.246582 L 225.154785 30.258301 Q 225.702637 30.048828 226.204834 29.944092 Q 226.707031 29.839355 227.179688 29.839355 Q 227.926270 29.839355 228.455322 30.059570 Q 228.984375 30.279785 229.312012 30.720215 Q 229.516113 30.988770 229.602051 31.383545 Q 229.687988 31.778320 229.687988 32.567871 Z " fill="rgb(0, 0, 0)" fill-opacity="1.000000" />
<path d="M 254.878906 39.319336 L 254.878906 25.300781 L 255.738281 25.300781 L 255.738281 39.319336 Z " fill="rgb(0, 0, 0)" fill-opacity="1.000000" />
<path d="M 198.878906 26.319336 L 198.878906 19.412109 L 202.729980 19.412109 L 202.729980 20.335938 L 199.738281 20.335938 L 199.738281 26.319336 Z " fill="rgb(0, 0, 0)" fill-opacity="1.000000" />
<path d="M 202.892578 20.335938 L 202.892578 19.412109 L 209.729980 19.412109 L 209.729980 20.335938 Z " fill="rgb(0, 0, 0)" fill-opacity="1.000000" />
<path d="M 209.892578 20.335938 L 209.892578 19.412109 L 216.729980 19.412109 L 216.729980 20.335938 Z " fill="rgb(0, 0, 0)" fill-opacity="1.000000" />
<path d="M 216.892578 20.335938 L 216.892578 19.412109 L 223.729980 19.412109 L 223.729980 20.335938 Z " fill="rgb(0, 0, 0)" fill-opacity="1.000000" />
<path d="M 223.892578 20.335938 L 223.892578 19.412109 L 230.729980 19.412109 L 230.729980 20.335938 Z " fill="rgb(0, 0, 0)" fill-opacity="1.000000" />
<path d="M 230.892578 20.335938 L 230.892578 19.412109 L 237.729980 19.412109 L 237.729980 20.335938 Z " fill="rgb(0, 0, 0)" fill-opacity="1.000000" />
<path d="M 237.892578 20.335938 L 237.892578 19.412109 L 244.729980 19.412109 L 244.729980 20.335938 Z " fill="rgb(0, 0, 0)" fill-opacity="1.000000" />
<path d="M 244.892578 20.335938 L 244.892578 19.412109 L 251.729980 19.412109 L 251.729980 20.335938 Z " fill="rgb(0, 0, 0)" fill-opacity="1.000000" />
<path d="M 254.878906 26.319336 L 254.878906 20.335938 L 251.892578 20.335938 L 251.892578 19.412109 L 255.738281 19.412109 L 255.738281 26.319336 Z " fill="rgb(0, 0, 0)" fill-opacity="1.000000" />
</svg>