<svg xmlns="http://www.w3.org/2000/svg" version="1.1" width="442" height="235">
<path d="M 2.878906 195.319336 L 2.878906 188.412109 L 6.729980 188.412109 L 6.729980 189.335938 L 3.738281 189.335938 L 3.738281 195.319336 Z " fill="rgb(0, 0, 0)" fill-opacity="1.000000" />
<path d="M 2.878906 208.319336 L 2.878906 194.300781 L 3.738281 194.300781 L 3.738281 208.319336 Z " fill="rgb(0, 0, 0)" fill-opacity="1.000000" />
<path d="M 2.878906 215.335938 L 2.878906 207.300781 L 3.738281 207.300781 L 3.738281 214.412109 L 6.729980 214.412109 L 6.729980 215.335938 Z " fill="rgb(0, 0, 0)" fill-opacity="1.000000" />
<path d="M 6.892578 215.335938 L 6.892578 214.412109 L 13.729980 214.412109 L 13.729980 215.335938 Z " fill="rgb(0, 0, 0)" fill-opacity="1.000000" />
<path d="M 14.032227 218.418945 L 14.032227 211.866211 L 20.590332 215.142578 Z " fill="rgb(0, 0, 0)" fill-opacity="1.000000" />
<path d="M 37.089355 215.830078 L 38.979980 215.830078 L 38.979980 218.000000 L 37.089355 218.000000 Z " fill="rgb(0, 0, 0)" fill-opacity="1.000000" />
<path d="M 44.089355 215.830078 L 45.979980 215.830078 L 45.979980 218.000000 L 44.089355 218.000000 Z " fill="rgb(0, 0, 0)" fill-opacity="1.000000" />
<path d="M 51.089355 215.830078 L 52.979980 215.830078 L 52.979980 218.000000 L 51.089355 218.000000 Z " fill="rgb(0, 0, 0)" fill-opacity="1.000000" />
<path d="M 6.892578 189.335938 L 6.892578 188.412109 L 13.729980 188.412109 L 13.729980 189.335938 Z " fill="rgb(0, 0, 0)" fill-opacity="1.000000" />
<path d="M 13.892578 189.335938 L 13.892578 188.412109 L 20.729980 188.412109 L 20.729980 189.335938 Z " fill="rgb(0, 0, 0)" fill-opacity="1.000000" />
<path d="M 20.892578 189.335938 L 20.892578 188.412109 L 27.729980 188.412109 L 27.729980 189.335938 Z " fill="rgb(0, 0, 0)" fill-opacity="1.000000" />
<path d="M 27.892578 189.335938 L 27.892578 188.412109 L 34.729980 188.412109 L 34.729980 189.335938 Z " fill="rgb(0, 0, 0)" fill-opacity="1.000000" />
<path d="M 34.892578 189.335938 L 34.892578 188.412109 L 41.729980 188.412109 L 41.729980 189.335938 Z " fill="rgb(0, 0, 0)" fill-opacity="1.000000" />
<path d="M 41.892578 189.335938 L 41.892578 188.412109 L 48.729980 188.412109 L 48.729980 189.335938 Z " fill="rgb(0, 0, 0)" fill-opacity="1.000000" />
<path d="M 48.892578 189.335938 L 48.892578 188.412109 L 55.729980 188.412109 L 55.729980 189.335938 Z " fill="rgb(0, 0, 0)" fill-opacity="1.000000" />
<path d="M 55.892578 189.335938 L 55.892578 188.412109 L 62.729980 188.412109 L 62.729980 189.335938 Z " fill="rgb(0, 0, 0)" fill-opacity="1.000000" />
<path d="M 62.892578 189.335938 L 62.892578 188.412109 L 69.729980 188.412109 L 69.729980 189.335938 Z " fill="rgb(0, 0, 0)" fill-opacity="1.000000" />
<path d="M 69.892578 189.335938 L 69.892578 188.412109 L 76.729980 188.412109 L 76.729980 189.335938 Z " fill="rgb(0, 0, 0)" fill-opacity="1.000000" />
<path d="M 76.892578 189.335938 L 76.892578 188.412109 L 83.729980 188.412109 L 83.729980 189.335938 Z " fill="rgb(0, 0, 0)" fill-opacity="1.000000" />
<path d="M 83.892578 189.335938 L 83.892578 188.412109 L 90.729980 188.412109 L 90.729980 189.335938 Z " fill="rgb(0, 0, 0)" fill-opacity="1.000000" />
<path d="M 90.892578 189.335938 L 90.892578 188.412109 L 97.729980 188.412109 L 97.729980 189.335938 Z " fill="rgb(0, 0, 0)" fill-opacity="1.000000" />
<path d="M 97.892578 189.335938 L 97.892578 188.412109 L 104.729980 188.412109 L 104.729980 189.335938 Z " fill="rgb(0, 0, 0)" fill-opacity="1.000000" />
<path d="M 104.892578 189.335938 L 104.892578 188.412109 L 111.729980 188.412109 L 111.729980 189.335938 Z " fill="rgb(0, 0, 0)" fill-opacity="1.000000" />
<path d="M 111.892578 189.335938 L 111.892578 188.412109 L 118.729980 188.412109 L 118.729980 189.335938 Z " fill="rgb(0, 0, 0)" fill-opacity="1.000000" />
<path d="M 118.892578 189.335938 L 118.892578 188.412109 L 125.729980 188.412109 L 125.729980 189.335938 Z " fill="rgb(0, 0, 0)" fill-opacity="1.000000" />
<path d="M 125.892578 189.335938 L 125.892578 188.412109 L 132.729980 188.412109 L 132.729980 189.335938 Z " fill="rgb(0, 0, 0)" fill-opacity="1.000000" />
<path d="M 132.892578 189.335938 L 132.892578 188.412109 L 139.729980 188.412109 L 139.729980 189.335938 Z " fill="rgb(0, 0, 0)" fill-opacity="1.000000" />
<path d="M 139.892578 189.335938 L 139.892578 188.412109 L 146.729980 188.412109 L 146.729980 189.335938 Z " fill="rgb(0, 0, 0)" fill-opacity="1.000000" />
<path d="M 146.892578 189.335938 L 146.892578 188.412109 L 153.729980 188.412109 L 153.729980 189.335938 Z " fill="rgb(0, 0, 0)" fill-opacity="1.000000" />
<path d="M 153.892578 189.335938 L 153.892578 188.412109 L 160.729980 188.412109 L 160.729980 189.335938 Z " fill="rgb(0, 0, 0)" fill-opacity="1.000000" />
<path d="M 160.892578 189.335938 L 160.892578 188.412109 L 167.729980 188.412109 L 167.729980 189.335938 Z " fill="rgb(0, 0, 0)" fill-opacity="1.000000" />
<path d="M 167.892578 189.335938 L 167.892578 188.412109 L 174.729980 188.412109 L 174.729980 189.335938 Z " fill="rgb(0, 0, 0)" fill-opacity="1.000000" />
<path d="M 174.892578 189.335938 L 174.892578 188.412109 L 181.729980 188.412109 L 181.729980 189.335938 Z " fill="rgb(0, 0, 0)" fill-opacity="1.000000" />
<path d="M 181.892578 189.335938 L 181.892578 188.412109 L 188.729980 188.412109 L 188.729980 189.335938 Z " fill="rgb(0, 0, 0)" fill-opacity="1.000000" />
<path d="M 188.892578 189.335938 L 188.892578 188.412109 L 195.729980 188.412109 L 195.729980 189.335938 Z " fill="rgb(0, 0, 0)" fill-opacity="1.000000" />
<path d="M 195.892578 189.335938 L 195.892578 188.412109 L 202.729980 188.412109 L 202.729980 189.335938 Z " fill="rgb(0, 0, 0)" fill-opacity="1.000000" />
<path d="M 202.892578 189.335938 L 202.892578 188.412109 L 209.729980 188.412109 L 209.729980 189.335938 Z " fill="rgb(0, 0, 0)" fill-opacity="1.000000" />
<path d="M 209.892578 189.335938 L 209.892578 188.412109 L 216.729980 188.412109 L 216.729980 189.335938 Z " fill="rgb(0, 0, 0)" fill-opacity="1.000000" />
<path d="M 216.892578 189.335938 L 216.892578 188.412109 L 223.729980 188.412109 L 223.729980 189.335938 Z " fill="rgb(0, 0, 0)" fill-opacity="1.000000" />
<path d="M 223.892578 189.335938 L 223.892578 188.412109 L 230.729980 188.412109 L 230.729980 189.335938 Z " fill="rgb(0, 0, 0)" fill-opacity="1.000000" />
<path d="M 230.892578 189.335938 L 230.892578 188.412109 L 237.729980 188.412109 L 237.729980 189.335938 Z " fill="rgb(0, 0, 0)" fill-opacity="1.000000" />
<path d="M 237.892578 189.335938 L 237.892578 188.412109 L 244.729980 188.412109 L 244.729980 189.335938 Z " fill="rgb(0, 0, 0)" fill-opacity="1.000000" />
<path d="M 244.892578 189.335938 L 244.892578 188.412109 L 251.729980 188.412109 L 251.729980 189.335938 Z " fill="rgb(0, 0, 0)" fill-opacity="1.000000" />
<path d="M 251.892578 189.335938 L 251.892578 188.412109 L 258.729980 188.412109 L 258.729980 189.335938 Z " fill="rgb(0, 0, 0)" fill-opacity="1.000000" />
<path d="M 258.892578 189.335938 L 258.892578 188.412109 L 265.729980 188.412109 L 265.729980 189.335938 Z " fill="rgb(0, 0, 0)" fill-opacity="1.000000" />
<path d="M 265.892578 189.335938 L 265.892578 188.412109 L 272.729980 188.412109 L 272.729980 189.335938 Z " fill="rgb(0, 0, 0)" fill-opacity="1.000000" />
<path d="M 272.892578 189.335938 L 272.892578 188.412109 L 279.729980 188.412109 L 279.729980 189.335938 Z " fill="rgb(0, 0, 0)" fill-opacity="1.000000" />
<path d="M 279.892578 189.335938 L 279.892578 188.412109 L 286.729980 188.412109 L 286.729980 189.335938 Z " fill="rgb(0, 0, 0)" fill-opacity="1.000000" />
<path d="M 286.892578 189.335938 L 286.892578 188.412109 L 293.729980 188.412109 L 293.729980 189.335938 Z " fill="rgb(0, 0, 0)" fill-opacity="1.000000" />
<path d="M 293.892578 189.335938 L 293.892578 188.412109 L 300.729980 188.412109 L 300.729980 189.335938 Z " fill="rgb(0, 0, 0)" fill-opacity="1.000000" />
<path d="M 300.892578 189.335938 L 300.892578 188.412109 L 307.729980 188.412109 L 307.729980 189.335938 Z " fill="rgb(0, 0, 0)" fill-opacity="1.000000" />
<path d="M 307.892578 189.335938 L 307.892578 188.412109 L 314.729980 188.412109 L 314.729980 189.335938 Z " fill="rgb(0, 0, 0)" fill-opacity="1.000000" />
<path d="M 314.892578 189.335938 L 314.892578 188.412109 L 321.729980 188.412109 L 321.729980 189.335938 Z " fill="rgb(0, 0, 0)" fill-opacity="1.000000" />
<path d="M 321.892578 189.335938 L 321.892578 188.412109 L 328.729980 188.412109 L 328.729980 189.335938 Z " fill="rgb(0, 0, 0)" fill-opacity="1.000000" />
<path d="M 328.892578 189.335938 L 328.892578 188.412109 L 335.729980 188.412109 L 335.729980 189.335938 Z " fill="rgb(0, 0, 0)" fill-opacity="1.000000" />
<path d="M 335.892578 189.335938 L 335.892578 188.412109 L 342.729980 188.412109 L 342.729980 189.335938 Z " fill="rgb(0, 0, 0)" fill-opacity="1.000000" />
<path d="M 342.892578 189.335938 L 342.892578 188.412109 L 349.729980 188.412109 L 349.729980 189.335938 Z " fill="rgb(0, 0, 0)" fill-opacity="1.000000" />
<path d="M 349.892578 189.335938 L 349.892578 188.412109 L 356.729980 188.412109 L 356.729980 189.335938 Z " fill="rgb(0, 0, 0)" fill-opacity="1.000000" />
<path d="M 356.892578 189.335938 L 356.892578 188.412109 L 363.729980 188.412109 L 363.729980 189.335938 Z " fill="rgb(0, 0, 0)" fill-opacity="1.000000" />
<path d="M 363.892578 189.335938 L 363.892578 188.412109 L 370.729980 188.412109 L 370.729980 189.335938 Z " fill="rgb(0, 0, 0)" fill-opacity="1.000000" />
<path d="M 370.892578 189.335938 L 370.892578 188.412109 L 377.729980 188.412109 L 377.729980 189.335938 Z " fill="rgb(0, 0, 0)" fill-opacity="1.000000" />
<path d="M 377.892578 189.335938 L 377.892578 188.412109 L 384.729980 188.412109 L 384.729980 189.335938 Z " fill="rgb(0, 0, 0)" fill-opacity="1.000000" />
<path d="M 384.892578 189.335938 L 384.892578 188.412109 L 391.729980 188.412109 L 391.729980 189.335938 Z " fill="rgb(0, 0, 0)" fill-opacity="1.000000" />
<path d="M 391.892578 189.335938 L 391.892578 188.412109 L 398.729980 188.412109 L 398.729980 189.335938 Z " fill="rgb(0, 0, 0)" fill-opacity="1.000000" />
<path d="M 398.892578 189.335938 L 398.892578 188.412109 L 405.729980 188.412109 L 405.729980 189.335938 Z " fill="rgb(0, 0, 0)" fill-opacity="1.000000" />
<path d="M 405.892578 189.335938 L 405.892578 188.412109 L 412.729980 188.412109 L 412.729980 189.335938 Z " fill="rgb(0, 0, 0)" fill-opacity="1.000000" />
<path d="M 412.892578 189.335938 L 412.892578 188.412109 L 419.729980 188.412109 L 419.729980 189.335938 Z " fill="rgb(0, 0, 0)" fill-opacity="1.000000" />
<path d="M 419.892578 189.335938 L 419.892578 188.412109 L 426.729980 188.412109 L 426.729980 189.335938 Z " fill="rgb(0, 0, 0)" fill-opacity="1.000000" />
<path d="M 426.892578 189.335938 L 426.892578 188.412109 L 433.729980 188.412109 L 433.729980 189.335938 Z " fill="rgb(0, 0, 0)" fill-opacity="1.000000" />
<path d="M 433.892578 189.335938 L 433.892578 188.412109 L 436.878906 188.412109 L 436.878906 181.300781 L 437.738281 181.300781 L 437.738281 189.335938 Z " fill="rgb(0, 0, 0)" fill-opacity="1.000000" />
<path d="M 23.878906 143.319336 L 23.878906 136.412109 L 27.729980 136.412109 L 27.729980 137.335938 L 24.738281 137.335938 L 24.738281 143.319336 Z " fill="rgb(0, 0, 0)" fill-opacity="1.000000" />
<path d="M 23.878906 156.319336 L 23.878906 142.300781 L 24.738281 142.300781 L 24.738281 156.319336 Z " fill="rgb(0, 0, 0)" fill-opacity="1.000000" />
<path d="M 23.878906 163.335938 L 23.878906 155.300781 L 24.738281 155.300781 L 24.738281 162.412109 L 27.729980 162.412109 L 27.729980 163.335938 Z " fill="rgb(0, 0, 0)" fill-opacity="1.000000" />
<path d="M 44.878906 176.335938 L 44.878906 168.300781 L 45.738281 168.300781 L 45.738281 175.412109 L 48.729980 175.412109 L 48.729980 176.335938 Z " fill="rgb(0, 0, 0)" fill-opacity="1.000000" />
<path d="M 48.892578 176.335938 L 48.892578 175.412109 L 55.729980 175.412109 L 55.729980 176.335938 Z " fill="rgb(0, 0, 0)" fill-opacity="1.000000" />
<path d="M 55.892578 176.335938 L 55.892578 175.412109 L 62.729980 175.412109 L 62.729980 176.335938 Z " fill="rgb(0, 0, 0)" fill-opacity="1.000000" />
<path d="M 62.892578 176.335938 L 62.892578 175.412109 L 69.729980 175.412109 L 69.729980 176.335938 Z " fill="rgb(0, 0, 0)" fill-opacity="1.000000" />
<path d="M 69.892578 176.335938 L 69.892578 175.412109 L 76.729980 175.412109 L 76.729980 176.335938 Z " fill="rgb(0, 0, 0)" fill-opacity="1.000000" />
<path d="M 76.892578 176.335938 L 76.892578 175.412109 L 83.729980 175.412109 L 83.729980 176.335938 Z " fill="rgb(0, 0, 0)" fill-opacity="1.000000" />
<path d="M 83.892578 176.335938 L 83.892578 175.412109 L 90.729980 175.412109 L 90.729980 176.335938 Z " fill="rgb(0, 0, 0)" fill-opacity="1.000000" />
<path d="M 90.892578 176.335938 L 90.892578 175.412109 L 97.729980 175.412109 L 97.729980 176.335938 Z " fill="rgb(0, 0, 0)" fill-opacity="1.000000" />
<path d="M 97.892578 176.335938 L 97.892578 175.412109 L 100.878906 175.412109 L 100.878906 168.300781 L 101.738281 168.300781 L 101.738281 176.335938 Z " fill="rgb(0, 0, 0)" fill-opacity="1.000000" />
<path d="M 149.878906 176.335938 L 149.878906 168.300781 L 150.738281 168.300781 L 150.738281 175.412109 L 153.729980 175.412109 L 153.729980 176.335938 Z " fill="rgb(0, 0, 0)" fill-opacity="1.000000" />
<path d="M 153.892578 176.335938 L 153.892578 175.412109 L 160.729980 175.412109 L 160.729980 176.335938 Z " fill="rgb(0, 0, 0)" fill-opacity="1.000000" />
<path d="M 160.892578 176.335938 L 160.892578 175.412109 L 167.729980 175.412109 L 167.729980 176.335938 Z " fill="rgb(0, 0, 0)" fill-opacity="1.000000" />
<path d="M 167.892578 176.335938 L 167.892578 175.412109 L 174.729980 175.412109 L 174.729980 176.335938 Z " fill="rgb(0, 0, 0)" fill-opacity="1.000000" />
<path d="M 174.892578 176.335938 L 174.892578 175.412109 L 181.729980 175.412109 L 181.729980 176.335938 Z " fill="rgb(0, 0, 0)" fill-opacity="1.000000" />
<path d="M 181.892578 176.335938 L 181.892578 175.412109 L 188.729980 175.412109 L 188.729980 176.335938 Z " fill="rgb(0, 0, 0)" fill-opacity="1.000000" />
<path d="M 188.892578 176.335938 L 188.892578 175.412109 L 195.729980 175.412109 L 195.729980 176.335938 Z " fill="rgb(0, 0, 0)" fill-opacity="1.000000" />
<path d="M 195.892578 176.335938 L 195.892578 175.412109 L 202.729980 175.412109 L 202.729980 176.335938 Z " fill="rgb(0, 0, 0)" fill-opacity="1.000000" />
<path d="M 202.892578 176.335938 L 202.892578 175.412109 L 205.878906 175.412109 L 205.878906 168.300781 L 206.738281 168.300781 L 206.738281 176.335938 Z " fill="rgb(0, 0, 0)" fill-opacity="1.000000" />
<path d="M 254.878906 176.335938 L 254.878906 168.300781 L 255.738281 168.300781 L 255.738281 175.412109 L 258.729980 175.412109 L 258.729980 176.335938 Z " fill="rgb(0, 0, 0)" fill-opacity="1.000000" />
<path d="M 258.892578 176.335938 L 258.892578 175.412109 L 265.729980 175.412109 L 265.729980 176.335938 Z " fill="rgb(0, 0, 0)" fill-opacity="1.000000" />
<path d="M 265.892578 176.335938 L 265.892578 175.412109 L 272.729980 175.412109 L 272.729980 176.335938 Z " fill="rgb(0, 0, 0)" fill-opacity="1.000000" />
<path d="M 272.892578 176.335938 L 272.892578 175.412109 L 279.729980 175.412109 L 279.729980 176.335938 Z " fill="rgb(0, 0, 0)" fill-opacity="1.000000" />
<path d="M 279.892578 176.335938 L 279.892578 175.412109 L 286.729980 175.412109 L 286.729980 176.335938 Z " fill="rgb(0, 0, 0)" fill-opacity="1.000000" />
<path d="M 286.892578 176.335938 L 286.892578 175.412109 L 293.729980 175.412109 L 293.729980 176.335938 Z " fill="rgb(0, 0, 0)" fill-opacity="1.000000" />
<path d="M 293.892578 176.335938 L 293.892578 175.412109 L 300.729980 175.412109 L 300.729980 176.335938 Z " fill="rgb(0, 0, 0)" fill-opacity="1.000000" />
<path d="M 300.892578 176.335938 L 300.892578 175.412109 L 307.729980 175.412109 L 307.729980 176.335938 Z " fill="rgb(0, 0, 0)" fill-opacity="1.000000" />
<path d="M 307.892578 176.335938 L 307.892578 175.412109 L 310.878906 175.412109 L 310.878906 168.300781 L 311.738281 168.300781 L 311.738281 176.335938 Z " fill="rgb(0, 0, 0)" fill-opacity="1.000000" />
<path d="M 359.878906 176.335938 L 359.878906 168.300781 L 360.738281 168.300781 L 360.738281 175.412109 L 363.729980 175.412109 L 363.729980 176.335938 Z " fill="rgb(0, 0, 0)" fill-opacity="1.000000" />
<path d="M 363.892578 176.335938 L 363.892578 175.412109 L 370.729980 175.412109 L 370.729980 176.335938 Z " fill="rgb(0, 0, 0)" fill-opacity="1.000000" />
<path d="M 370.892578 176.335938 L 370.892578 175.412109 L 377.729980 175.412109 L 377.729980 176.335938 Z " fill="rgb(0, 0, 0)" fill-opacity="1.000000" />
<path d="M 377.892578 176.335938 L 377.892578 175.412109 L 384.729980 175.412109 L 384.729980 176.335938 Z " fill="rgb(0, 0, 0)" fill-opacity="1.000000" />
<path d="M 384.892578 176.335938 L 384.892578 175.412109 L 391.729980 175.412109 L 391.729980 176.335938 Z " fill="rgb(0, 0, 0)" fill-opacity="1.000000" />
<path d="M 391.892578 176.335938 L 391.892578 175.412109 L 398.729980 175.412109 L 398.729980 176.335938 Z " fill="rgb(0, 0, 0)" fill-opacity="1.000000" />
<path d="M 398.892578 176.335938 L 398.892578 175.412109 L 405.729980 175.412109 L 405.729980 176.335938 Z " fill="rgb(0, 0, 0)" fill-opacity="1.000000" />
<path d="M 405.892578 176.335938 L 405.892578 175.412109 L 412.729980 175.412109 L 412.729980 176.335938 Z " fill="rgb(0, 0, 0)" fill-opacity="1.000000" />
<path d="M 412.892578 176.335938 L 412.892578 175.412109 L 415.878906 175.412109 L 415.878906 168.300781 L 416.738281 168.300781 L 416.738281 176.335938 Z " fill="rgb(0, 0, 0)" fill-opacity="1.000000" />
<path d="M 436.878906 182.319336 L 436.878906 168.300781 L 437.738281 168.300781 L 437.738281 182.319336 Z " fill="rgb(0, 0, 0)" fill-opacity="1.000000" />
<path d="M 27.892578 163.335938 L 27.892578 162.412109 L 34.729980 162.412109 L 34.729980 163.335938 Z " fill="rgb(0, 0, 0)" fill-opacity="1.000000" />
<path d="M 35.032227 166.418945 L 35.032227 159.866211 L 41.590332 163.142578 Z " fill="rgb(0, 0, 0)" fill-opacity="1.000000" />
<path d="M 44.878906 169.319336 L 44.878906 155.300781 L 45.738281 155.300781 L 45.738281 169.319336 Z " fill="rgb(0, 0, 0)" fill-opacity="1.000000" />
<path d="M 69.203613 161.225098 Q 68.886719 160.978027 68.559082 160.865234 Q 68.231445 160.752441 67.839355 160.752441 Q 66.915527 160.752441 66.426758 161.332520 Q 65.937988 161.912598 65.937988 163.008301 L 65.937988 166.000000 L 64.944336 166.000000 L 64.944336 159.984375 L 65.937988 159.984375 L 65.937988 161.160645 Q 66.185059 160.521484 66.697998 160.180420 Q 67.210938 159.839355 67.914551 159.839355 Q 68.279785 159.839355 68.596680 159.930664 Q 68.913574 160.021973 69.203613 160.215332 Z " fill="rgb(0, 0, 0)" fill-opacity="1.000000" />
<path d="M 71.047363 163.722656 L 71.047363 159.995117 L 72.035645 159.995117 L 72.035645 163.722656 Q 72.035645 164.533691 72.322998 164.915039 Q 72.610352 165.296387 73.211914 165.296387 Q 73.910156 165.296387 74.280762 164.804932 Q 74.651367 164.313477 74.651367 163.395020 L 74.651367 159.995117 L 75.645020 159.995117 L 75.645020 166.000000 L 74.651367 166.000000 L 74.651367 165.097656 Q 74.388184 165.618652 73.934326 165.887207 Q 73.480469 166.155762 72.873535 166.155762 Q 71.949707 166.155762 71.498535 165.551514 Q 71.047363 164.947266 71.047363 163.722656 Z " fill="rgb(0, 0, 0)" fill-opacity="1.000000" />
<path d="M 81.930664 162.997559 Q 81.930664 161.848145 81.565430 161.262695 Q 81.200195 160.677246 80.485840 160.677246 Q 79.766113 160.677246 79.395508 161.265381 Q 79.024902 161.853516 79.024902 162.997559 Q 79.024902 164.136230 79.395508 164.727051 Q 79.766113 165.317871 80.485840 165.317871 Q 81.200195 165.317871 81.565430 164.732422 Q 81.930664 164.146973 81.930664 162.997559 Z M 79.024902 160.752441 Q 79.261230 160.312012 79.677490 160.075684 Q 80.093750 159.839355 80.641602 159.839355 Q 81.726562 159.839355 82.349609 160.674561 Q 82.972656 161.509766 82.972656 162.976074 Q 82.972656 164.463867 82.346924 165.309814 Q 81.721191 166.155762 80.630859 166.155762 Q 80.093750 166.155762 79.682861 165.922119 Q 79.271973 165.688477 79.024902 165.242676 L 79.024902 166.000000 L 78.036621 166.000000 L 78.036621 157.642578 L 79.024902 157.642578 Z " fill="rgb(0, 0, 0)" fill-opacity="1.000000" />
<path d="M 100.878906 169.319336 L 100.878906 155.300781 L 101.738281 155.300781 L 101.738281 169.319336 Z " fill="rgb(0, 0, 0)" fill-opacity="1.000000" />
<path d="M 104.892578 163.335938 L 104.892578 162.412109 L 111.729980 162.412109 L 111.729980 163.335938 Z " fill="rgb(0, 0, 0)" fill-opacity="1.000000" />
<path d="M 111.892578 163.335938 L 111.892578 162.412109 L 118.729980 162.412109 L 118.729980 163.335938 Z " fill="rgb(0, 0, 0)" fill-opacity="1.000000" />
<path d="M 118.892578 163.335938 L 118.892578 162.412109 L 125.729980 162.412109 L 125.729980 163.335938 Z " fill="rgb(0, 0, 0)" fill-opacity="1.000000" />
<path d="M 125.892578 163.335938 L 125.892578 162.412109 L 132.729980 162.412109 L 132.729980 163.335938 Z " fill="rgb(0, 0, 0)" fill-opacity="1.000000" />
<path d="M 132.892578 163.335938 L 132.892578 162.412109 L 139.729980 162.412109 L 139.729980 163.335938 Z " fill="rgb(0, 0, 0)" fill-opacity="1.000000" />
<path d="M 140.032227 166.418945 L 140.032227 159.866211 L 146.590332 163.142578 Z " fill="rgb(0, 0, 0)" fill-opacity="1.000000" />
<path d="M 149.878906 169.319336 L 149.878906 155.300781 L 150.738281 155.300781 L 150.738281 169.319336 Z " fill="rgb(0, 0, 0)" fill-opacity="1.000000" />
<path d="M 171.297852 158.276367 L 171.297852 159.984375 L 173.542969 159.984375 L 173.542969 160.752441 L 171.297852 160.752441 L 171.297852 164.018066 Q 171.297852 164.684082 171.550293 164.947266 Q 171.802734 165.210449 172.431152 165.210449 L 173.542969 165.210449 L 173.542969 166.000000 L 172.334473 166.000000 Q 171.222656 166.000000 170.766113 165.554199 Q 170.309570 165.108398 170.309570 164.018066 L 170.309570 160.752441 L 168.703613 160.752441 L 168.703613 159.984375 L 170.309570 159.984375 L 170.309570 158.276367 Z " fill="rgb(0, 0, 0)" fill-opacity="1.000000" />
<path d="M 176.047363 163.722656 L 176.047363 159.995117 L 177.035645 159.995117 L 177.035645 163.722656 Q 177.035645 164.533691 177.322998 164.915039 Q 177.610352 165.296387 178.211914 165.296387 Q 178.910156 165.296387 179.280762 164.804932 Q 179.651367 164.313477 179.651367 163.395020 L 179.651367 159.995117 L 180.645020 159.995117 L 180.645020 166.000000 L 179.651367 166.000000 L 179.651367 165.097656 Q 179.388184 165.618652 178.934326 165.887207 Q 178.480469 166.155762 177.873535 166.155762 Q 176.949707 166.155762 176.498535 165.551514 Q 176.047363 164.947266 176.047363 163.722656 Z " fill="rgb(0, 0, 0)" fill-opacity="1.000000" />
<path d="M 186.608398 162.943848 Q 186.608398 161.832031 186.245850 161.254639 Q 185.883301 160.677246 185.190430 160.677246 Q 184.465332 160.677246 184.083984 161.254639 Q 183.702637 161.832031 183.702637 162.943848 Q 183.702637 164.055664 184.086670 164.638428 Q 184.470703 165.221191 185.201172 165.221191 Q 185.883301 165.221191 186.245850 164.635742 Q 186.608398 164.050293 186.608398 162.943848 Z M 187.596680 165.613281 Q 187.596680 166.966797 186.957520 167.665039 Q 186.318359 168.363281 185.077637 168.363281 Q 184.669434 168.363281 184.223633 168.288086 Q 183.777832 168.212891 183.332031 168.067871 L 183.332031 167.090332 Q 183.858398 167.337402 184.288086 167.455566 Q 184.717773 167.573730 185.077637 167.573730 Q 185.877930 167.573730 186.243164 167.138672 Q 186.608398 166.703613 186.608398 165.758301 L 186.608398 165.715332 L 186.608398 165.043945 Q 186.372070 165.548828 185.963867 165.795898 Q 185.555664 166.042969 184.970215 166.042969 Q 183.917480 166.042969 183.289062 165.199707 Q 182.660645 164.356445 182.660645 162.943848 Q 182.660645 161.525879 183.289062 160.682617 Q 183.917480 159.839355 184.970215 159.839355 Q 185.550293 159.839355 185.953125 160.070312 Q 186.355957 160.301270 186.608398 160.784668 L 186.608398 160.005859 L 187.596680 160.005859 Z " fill="rgb(0, 0, 0)" fill-opacity="1.000000" />
<path d="M 205.878906 169.319336 L 205.878906 155.300781 L 206.738281 155.300781 L 206.738281 169.319336 Z " fill="rgb(0, 0, 0)" fill-opacity="1.000000" />
<path d="M 209.892578 163.335938 L 209.892578 162.412109 L 216.729980 162.412109 L 216.729980 163.335938 Z " fill="rgb(0, 0, 0)" fill-opacity="1.000000" />
<path d="M 216.892578 163.335938 L 216.892578 162.412109 L 223.729980 162.412109 L 223.729980 163.335938 Z " fill="rgb(0, 0, 0)" fill-opacity="1.000000" />
<path d="M 223.892578 163.335938 L 223.892578 162.412109 L 230.729980 162.412109 L 230.729980 163.335938 Z " fill="rgb(0, 0, 0)" fill-opacity="1.000000" />
<path d="M 230.892578 163.335938 L 230.892578 162.412109 L 237.729980 162.412109 L 237.729980 163.335938 Z " fill="rgb(0, 0, 0)" fill-opacity="1.000000" />
<path d="M 237.892578 163.335938 L 237.892578 162.412109 L 244.729980 162.412109 L 244.729980 163.335938 Z " fill="rgb(0, 0, 0)" fill-opacity="1.000000" />
<path d="M 245.032227 166.418945 L 245.032227 159.866211 L 251.590332 163.142578 Z " fill="rgb(0, 0, 0)" fill-opacity="1.000000" />
<path d="M 254.878906 169.319336 L 254.878906 155.300781 L 255.738281 155.300781 L 255.738281 169.319336 Z " fill="rgb(0, 0, 0)" fill-opacity="1.000000" />
<path d="M 277.608398 164.066406 Q 277.361328 164.694824 276.979980 165.720703 Q 276.448242 167.138672 276.265625 167.450195 Q 276.018555 167.869141 275.647949 168.078613 Q 275.277344 168.288086 274.783203 168.288086 L 273.988281 168.288086 L 273.988281 167.460938 L 274.573730 167.460938 Q 275.008789 167.460938 275.255859 167.208496 Q 275.502930 166.956055 275.884277 165.903320 L 273.558594 159.984375 L 274.605957 159.984375 L 276.389160 164.689453 L 278.145508 159.984375 L 279.192871 159.984375 Z " fill="rgb(0, 0, 0)" fill-opacity="1.000000" />
<path d="M 286.015625 162.498047 L 286.015625 162.981445 L 281.734863 162.981445 L 281.734863 163.013672 Q 281.691895 164.243652 282.204834 164.780762 Q 282.717773 165.317871 283.652344 165.317871 Q 284.125000 165.317871 284.640625 165.167480 Q 285.156250 165.017090 285.741699 164.710938 L 285.741699 165.693848 Q 285.177734 165.924805 284.654053 166.040283 Q 284.130371 166.155762 283.641602 166.155762 Q 282.239746 166.155762 281.450195 165.315186 Q 280.660645 164.474609 280.660645 162.997559 Q 280.660645 161.558105 281.434082 160.698730 Q 282.207520 159.839355 283.496582 159.839355 Q 284.645996 159.839355 285.309326 160.618164 Q 285.972656 161.396973 286.015625 162.498047 Z M 285.027344 162.208008 Q 284.962891 161.584961 284.573486 161.131104 Q 284.184082 160.677246 283.453613 160.677246 Q 282.739258 160.677246 282.277344 161.149902 Q 281.815430 161.622559 281.772461 162.213379 Z " fill="rgb(0, 0, 0)" fill-opacity="1.000000" />
<path d="M 292.645020 162.272461 L 292.645020 166.000000 L 291.651367 166.000000 L 291.651367 162.272461 Q 291.651367 161.461426 291.366699 161.080078 Q 291.082031 160.698730 290.475098 160.698730 Q 289.782227 160.698730 289.408936 161.190186 Q 289.035645 161.681641 289.035645 162.600098 L 289.035645 166.000000 L 288.047363 166.000000 L 288.047363 159.984375 L 289.035645 159.984375 L 289.035645 160.886719 Q 289.298828 160.371094 289.750000 160.105225 Q 290.201172 159.839355 290.818848 159.839355 Q 291.737305 159.839355 292.191162 160.443604 Q 292.645020 161.047852 292.645020 162.272461 Z " fill="rgb(0, 0, 0)" fill-opacity="1.000000" />
<path d="M 310.878906 169.319336 L 310.878906 155.300781 L 311.738281 155.300781 L 311.738281 169.319336 Z " fill="rgb(0, 0, 0)" fill-opacity="1.000000" />
<path d="M 314.892578 163.335938 L 314.892578 162.412109 L 321.729980 162.412109 L 321.729980 163.335938 Z " fill="rgb(0, 0, 0)" fill-opacity="1.000000" />
<path d="M 321.892578 163.335938 L 321.892578 162.412109 L 328.729980 162.412109 L 328.729980 163.335938 Z " fill="rgb(0, 0, 0)" fill-opacity="1.000000" />
<path d="M 328.892578 163.335938 L 328.892578 162.412109 L 335.729980 162.412109 L 335.729980 163.335938 Z " fill="rgb(0, 0, 0)" fill-opacity="1.000000" />
<path d="M 335.892578 163.335938 L 335.892578 162.412109 L 342.729980 162.412109 L 342.729980 163.335938 Z " fill="rgb(0, 0, 0)" fill-opacity="1.000000" />
<path d="M 342.892578 163.335938 L 342.892578 162.412109 L 349.729980 162.412109 L 349.729980 163.335938 Z " fill="rgb(0, 0, 0)" fill-opacity="1.000000" />
<path d="M 350.032227 166.418945 L 350.032227 159.866211 L 356.590332 163.142578 Z " fill="rgb(0, 0, 0)" fill-opacity="1.000000" />
<path d="M 359.878906 169.319336 L 359.878906 155.300781 L 360.738281 155.300781 L 360.738281 169.319336 Z " fill="rgb(0, 0, 0)" fill-opacity="1.000000" />
<path d="M 384.203613 161.225098 Q 383.886719 160.978027 383.559082 160.865234 Q 383.231445 160.752441 382.839355 160.752441 Q 381.915527 160.752441 381.426758 161.332520 Q 380.937988 161.912598 380.937988 163.008301 L 380.937988 166.000000 L 379.944336 166.000000 L 379.944336 159.984375 L 380.937988 159.984375 L 380.937988 161.160645 Q 381.185059 160.521484 381.697998 160.180420 Q 382.210938 159.839355 382.914551 159.839355 Q 383.279785 159.839355 383.596680 159.930664 Q 383.913574 160.021973 384.203613 160.215332 Z " fill="rgb(0, 0, 0)" fill-opacity="1.000000" />
<path d="M 386.047363 163.722656 L 386.047363 159.995117 L 387.035645 159.995117 L 387.035645 163.722656 Q 387.035645 164.533691 387.322998 164.915039 Q 387.610352 165.296387 388.211914 165.296387 Q 388.910156 165.296387 389.280762 164.804932 Q 389.651367 164.313477 389.651367 163.395020 L 389.651367 159.995117 L 390.645020 159.995117 L 390.645020 166.000000 L 389.651367 166.000000 L 389.651367 165.097656 Q 389.388184 165.618652 388.934326 165.887207 Q 388.480469 166.155762 387.873535 166.155762 Q 386.949707 166.155762 386.498535 165.551514 Q 386.047363 164.947266 386.047363 163.722656 Z " fill="rgb(0, 0, 0)" fill-opacity="1.000000" />
<path d="M 396.930664 162.997559 Q 396.930664 161.848145 396.565430 161.262695 Q 396.200195 160.677246 395.485840 160.677246 Q 394.766113 160.677246 394.395508 161.265381 Q 394.024902 161.853516 394.024902 162.997559 Q 394.024902 164.136230 394.395508 164.727051 Q 394.766113 165.317871 395.485840 165.317871 Q 396.200195 165.317871 396.565430 164.732422 Q 396.930664 164.146973 396.930664 162.997559 Z M 394.024902 160.752441 Q 394.261230 160.312012 394.677490 160.075684 Q 395.093750 159.839355 395.641602 159.839355 Q 396.726562 159.839355 397.349609 160.674561 Q 397.972656 161.509766 397.972656 162.976074 Q 397.972656 164.463867 397.346924 165.309814 Q 396.721191 166.155762 395.630859 166.155762 Q 395.093750 166.155762 394.682861 165.922119 Q 394.271973 165.688477 394.024902 165.242676 L 394.024902 166.000000 L 393.036621 166.000000 L 393.036621 157.642578 L 394.024902 157.642578 Z " fill="rgb(0, 0, 0)" fill-opacity="1.000000" />
<path d="M 415.878906 169.319336 L 415.878906 155.300781 L 416.738281 155.300781 L 416.738281 169.319336 Z " fill="rgb(0, 0, 0)" fill-opacity="1.000000" />
<path d="M 419.892578 163.335938 L 419.892578 162.412109 L 426.729980 162.412109 L 426.729980 163.335938 Z " fill="rgb(0, 0, 0)" fill-opacity="1.000000" />
<path d="M 426.892578 163.335938 L 426.892578 162.412109 L 433.729980 162.412109 L 433.729980 163.335938 Z " fill="rgb(0, 0, 0)" fill-opacity="1.000000" />
<path d="M 436.878906 169.319336 L 436.878906 163.335938 L 433.892578 163.335938 L 433.892578 162.412109 L 437.738281 162.412109 L 437.738281 169.319336 Z " fill="rgb(0, 0, 0)" fill-opacity="1.000000" />
<path d="M 44.878906 156.319336 L 44.878906 149.412109 L 48.729980 149.412109 L 48.729980 150.335938 L 45.738281 150.335938 L 45.738281 156.319336 Z " fill="rgb(0, 0, 0)" fill-opacity="1.000000" />
<path d="M 48.892578 150.335938 L 48.892578 149.412109 L 55.729980 149.412109 L 55.729980 150.335938 Z " fill="rgb(0, 0, 0)" fill-opacity="1.000000" />
<path d="M 55.892578 150.335938 L 55.892578 149.412109 L 62.729980 149.412109 L 62.729980 150.335938 Z " fill="rgb(0, 0, 0)" fill-opacity="1.000000" />
<path d="M 62.892578 150.335938 L 62.892578 149.412109 L 69.729980 149.412109 L 69.729980 150.335938 Z " fill="rgb(0, 0, 0)" fill-opacity="1.000000" />
<path d="M 69.892578 150.335938 L 69.892578 149.412109 L 76.729980 149.412109 L 76.729980 150.335938 Z " fill="rgb(0, 0, 0)" fill-opacity="1.000000" />
<path d="M 76.892578 150.335938 L 76.892578 149.412109 L 83.729980 149.412109 L 83.729980 150.335938 Z " fill="rgb(0, 0, 0)" fill-opacity="1.000000" />
<path d="M 83.892578 150.335938 L 83.892578 149.412109 L 90.729980 149.412109 L 90.729980 150.335938 Z " fill="rgb(0, 0, 0)" fill-opacity="1.000000" />
<path d="M 90.892578 150.335938 L 90.892578 149.412109 L 97.729980 149.412109 L 97.729980 150.335938 Z " fill="rgb(0, 0, 0)" fill-opacity="1.000000" />
<path d="M 100.878906 156.319336 L 100.878906 150.335938 L 97.892578 150.335938 L 97.892578 149.412109 L 101.738281 149.412109 L 101.738281 156.319336 Z " fill="rgb(0, 0, 0)" fill-opacity="1.000000" />
<path d="M 149.878906 156.319336 L 149.878906 149.412109 L 153.729980 149.412109 L 153.729980 150.335938 L 150.738281 150.335938 L 150.738281 156.319336 Z " fill="rgb(0, 0, 0)" fill-opacity="1.000000" />
<path d="M 153.892578 150.335938 L 153.892578 149.412109 L 160.729980 149.412109 L 160.729980 150.335938 Z " fill="rgb(0, 0, 0)" fill-opacity="1.000000" />
<path d="M 160.892578 150.335938 L 160.892578 149.412109 L 167.729980 149.412109 L 167.729980 150.335938 Z " fill="rgb(0, 0, 0)" fill-opacity="1.000000" />
<path d="M 167.892578 150.335938 L 167.892578 149.412109 L 174.729980 149.412109 L 174.729980 150.335938 Z " fill="rgb(0, 0, 0)" fill-opacity="1.000000" />
<path d="M 174.892578 150.335938 L 174.892578 149.412109 L 181.729980 149.412109 L 181.729980 150.335938 Z " fill="rgb(0, 0, 0)" fill-opacity="1.000000" />
<path d="M 181.892578 150.335938 L 181.892578 149.412109 L 188.729980 149.412109 L 188.729980 150.335938 Z " fill="rgb(0, 0, 0)" fill-opacity="1.000000" />
<path d="M 188.892578 150.335938 L 188.892578 149.412109 L 195.729980 149.412109 L 195.729980 150.335938 Z " fill="rgb(0, 0, 0)" fill-opacity="1.000000" />
<path d="M 195.892578 150.335938 L 195.892578 149.412109 L 202.729980 149.412109 L 202.729980 150.335938 Z " fill="rgb(0, 0, 0)" fill-opacity="1.000000" />
<path d="M 205.878906 156.319336 L 205.878906 150.335938 L 202.892578 150.335938 L 202.892578 149.412109 L 206.738281 149.412109 L 206.738281 156.319336 Z " fill="rgb(0, 0, 0)" fill-opacity="1.000000" />
<path d="M 254.878906 156.319336 L 254.878906 149.412109 L 258.729980 149.412109 L 258.729980 150.335938 L 255.738281 150.335938 L 255.738281 156.319336 Z " fill="rgb(0, 0, 0)" fill-opacity="1.000000" />
<path d="M 258.892578 150.335938 L 258.892578 149.412109 L 265.729980 149.412109 L 265.729980 150.335938 Z " fill="rgb(0, 0, 0)" fill-opacity="1.000000" />
<path d="M 265.892578 150.335938 L 265.892578 149.412109 L 272.729980 149.412109 L 272.729980 150.335938 Z " fill="rgb(0, 0, 0)" fill-opacity="1.000000" />
<path d="M 272.892578 150.335938 L 272.892578 149.412109 L 279.729980 149.412109 L 279.729980 150.335938 Z " fill="rgb(0, 0, 0)" fill-opacity="1.000000" />
<path d="M 279.892578 150.335938 L 279.892578 149.412109 L 286.729980 149.412109 L 286.729980 150.335938 Z " fill="rgb(0, 0, 0)" fill-opacity="1.000000" />
<path d="M 286.892578 150.335938 L 286.892578 149.412109 L 293.729980 149.412109 L 293.729980 150.335938 Z " fill="rgb(0, 0, 0)" fill-opacity="1.000000" />
<path d="M 293.892578 150.335938 L 293.892578 149.412109 L 300.729980 149.412109 L 300.729980 150.335938 Z " fill="rgb(0, 0, 0)" fill-opacity="1.000000" />
<path d="M 300.892578 150.335938 L 300.892578 149.412109 L 307.729980 149.412109 L 307.729980 150.335938 Z " fill="rgb(0, 0, 0)" fill-opacity="1.000000" />
<path d="M 310.878906 156.319336 L 310.878906 150.335938 L 307.892578 150.335938 L 307.892578 149.412109 L 311.738281 149.412109 L 311.738281 156.319336 Z " fill="rgb(0, 0, 0)" fill-opacity="1.000000" />
<path d="M 359.878906 156.319336 L 359.878906 149.412109 L 363.729980 149.412109 L 363.729980 150.335938 L 360.738281 150.335938 L 360.738281 156.319336 Z " fill="rgb(0, 0, 0)" fill-opacity="1.000000" />
<path d="M 363.892578 150.335938 L 363.892578 149.412109 L 370.729980 149.412109 L 370.729980 150.335938 Z " fill="rgb(0, 0, 0)" fill-opacity="1.000000" />
<path d="M 370.892578 150.335938 L 370.892578 149.412109 L 377.729980 149.412109 L 377.729980 150.335938 Z " fill="rgb(0, 0, 0)" fill-opacity="1.000000" />
<path d="M 377.892578 150.335938 L 377.892578 149.412109 L 384.729980 149.412109 L 384.729980 150.335938 Z " fill="rgb(0, 0, 0)" fill-opacity="1.000000" />
<path d="M 384.892578 150.335938 L 384.892578 149.412109 L 391.729980 149.412109 L 391.729980 150.335938 Z " fill="rgb(0, 0, 0)" fill-opacity="1.000000" />
<path d="M 391.892578 150.335938 L 391.892578 149.412109 L 398.729980 149.412109 L 398.729980 150.335938 Z " fill="rgb(0, 0, 0)" fill-opacity="1.000000" />
<path d="M 398.892578 150.335938 L 398.892578 149.412109 L 405.729980 149.412109 L 405.729980 150.335938 Z " fill="rgb(0, 0, 0)" fill-opacity="1.000000" />
<path d="M 405.892578 150.335938 L 405.892578 149.412109 L 412.729980 149.412109 L 412.729980 150.335938 Z " fill="rgb(0, 0, 0)" fill-opacity="1.000000" />
<path d="M 415.878906 156.319336 L 415.878906 150.335938 L 412.892578 150.335938 L 412.892578 149.412109 L 416.738281 149.412109 L 416.738281 156.319336 Z " fill="rgb(0, 0, 0)" fill-opacity="1.000000" />
<path d="M 27.892578 137.335938 L 27.892578 136.412109 L 34.729980 136.412109 L 34.729980 137.335938 Z " fill="rgb(0, 0, 0)" fill-opacity="1.000000" />
<path d="M 34.892578 137.335938 L 34.892578 136.412109 L 41.729980 136.412109 L 41.729980 137.335938 Z " fill="rgb(0, 0, 0)" fill-opacity="1.000000" />
<path d="M 41.892578 137.335938 L 41.892578 136.412109 L 48.729980 136.412109 L 48.729980 137.335938 Z " fill="rgb(0, 0, 0)" fill-opacity="1.000000" />
<path d="M 48.892578 137.335938 L 48.892578 136.412109 L 55.729980 136.412109 L 55.729980 137.335938 Z " fill="rgb(0, 0, 0)" fill-opacity="1.000000" />
<path d="M 55.892578 137.335938 L 55.892578 136.412109 L 62.729980 136.412109 L 62.729980 137.335938 Z " fill="rgb(0, 0, 0)" fill-opacity="1.000000" />
<path d="M 62.892578 137.335938 L 62.892578 136.412109 L 69.729980 136.412109 L 69.729980 137.335938 Z " fill="rgb(0, 0, 0)" fill-opacity="1.000000" />
<path d="M 69.892578 137.335938 L 69.892578 136.412109 L 76.729980 136.412109 L 76.729980 137.335938 Z " fill="rgb(0, 0, 0)" fill-opacity="1.000000" />
<path d="M 76.892578 137.335938 L 76.892578 136.412109 L 83.729980 136.412109 L 83.729980 137.335938 Z " fill="rgb(0, 0, 0)" fill-opacity="1.000000" />
<path d="M 83.892578 137.335938 L 83.892578 136.412109 L 90.729980 136.412109 L 90.729980 137.335938 Z " fill="rgb(0, 0, 0)" fill-opacity="1.000000" />
<path d="M 90.892578 137.335938 L 90.892578 136.412109 L 97.729980 136.412109 L 97.729980 137.335938 Z " fill="rgb(0, 0, 0)" fill-opacity="1.000000" />
<path d="M 97.892578 137.335938 L 97.892578 136.412109 L 104.729980 136.412109 L 104.729980 137.335938 Z " fill="rgb(0, 0, 0)" fill-opacity="1.000000" />
<path d="M 104.892578 137.335938 L 104.892578 136.412109 L 111.729980 136.412109 L 111.729980 137.335938 Z " fill="rgb(0, 0, 0)" fill-opacity="1.000000" />
<path d="M 111.892578 137.335938 L 111.892578 136.412109 L 118.729980 136.412109 L 118.729980 137.335938 Z " fill="rgb(0, 0, 0)" fill-opacity="1.000000" />
<path d="M 118.892578 137.335938 L 118.892578 136.412109 L 125.729980 136.412109 L 125.729980 137.335938 Z " fill="rgb(0, 0, 0)" fill-opacity="1.000000" />
<path d="M 125.892578 137.335938 L 125.892578 136.412109 L 132.729980 136.412109 L 132.729980 137.335938 Z " fill="rgb(0, 0, 0)" fill-opacity="1.000000" />
<path d="M 132.892578 137.335938 L 132.892578 136.412109 L 139.729980 136.412109 L 139.729980 137.335938 Z " fill="rgb(0, 0, 0)" fill-opacity="1.000000" />
<path d="M 139.892578 137.335938 L 139.892578 136.412109 L 146.729980 136.412109 L 146.729980 137.335938 Z " fill="rgb(0, 0, 0)" fill-opacity="1.000000" />
<path d="M 146.892578 137.335938 L 146.892578 136.412109 L 153.729980 136.412109 L 153.729980 137.335938 Z " fill="rgb(0, 0, 0)" fill-opacity="1.000000" />
<path d="M 153.892578 137.335938 L 153.892578 136.412109 L 160.729980 136.412109 L 160.729980 137.335938 Z " fill="rgb(0, 0, 0)" fill-opacity="1.000000" />
<path d="M 160.892578 137.335938 L 160.892578 136.412109 L 167.729980 136.412109 L 167.729980 137.335938 Z " fill="rgb(0, 0, 0)" fill-opacity="1.000000" />
<path d="M 167.892578 137.335938 L 167.892578 136.412109 L 174.729980 136.412109 L 174.729980 137.335938 Z " fill="rgb(0, 0, 0)" fill-opacity="1.000000" />
<path d="M 174.892578 137.335938 L 174.892578 136.412109 L 181.729980 136.412109 L 181.729980 137.335938 Z " fill="rgb(0, 0, 0)" fill-opacity="1.000000" />
<path d="M 181.892578 137.335938 L 181.892578 136.412109 L 188.729980 136.412109 L 188.729980 137.335938 Z " fill="rgb(0, 0, 0)" fill-opacity="1.000000" />
<path d="M 188.892578 137.335938 L 188.892578 136.412109 L 195.729980 136.412109 L 195.729980 137.335938 Z " fill="rgb(0, 0, 0)" fill-opacity="1.000000" />
<path d="M 195.892578 137.335938 L 195.892578 136.412109 L 202.729980 136.412109 L 202.729980 137.335938 Z " fill="rgb(0, 0, 0)" fill-opacity="1.000000" />
<path d="M 202.892578 137.335938 L 202.892578 136.412109 L 209.729980 136.412109 L 209.729980 137.335938 Z " fill="rgb(0, 0, 0)" fill-opacity="1.000000" />
<path d="M 209.892578 137.335938 L 209.892578 136.412109 L 216.729980 136.412109 L 216.729980 137.335938 Z " fill="rgb(0, 0, 0)" fill-opacity="1.000000" />
<path d="M 216.892578 137.335938 L 216.892578 136.412109 L 223.729980 136.412109 L 223.729980 137.335938 Z " fill="rgb(0, 0, 0)" fill-opacity="1.000000" />
<path d="M 223.892578 137.335938 L 223.892578 136.412109 L 230.729980 136.412109 L 230.729980 137.335938 Z " fill="rgb(0, 0, 0)" fill-opacity="1.000000" />
<path d="M 230.892578 137.335938 L 230.892578 136.412109 L 237.729980 136.412109 L 237.729980 137.335938 Z " fill="rgb(0, 0, 0)" fill-opacity="1.000000" />
<path d="M 237.892578 137.335938 L 237.892578 136.412109 L 244.729980 136.412109 L 244.729980 137.335938 Z " fill="rgb(0, 0, 0)" fill-opacity="1.000000" />
<path d="M 244.892578 137.335938 L 244.892578 136.412109 L 251.729980 136.412109 L 251.729980 137.335938 Z " fill="rgb(0, 0, 0)" fill-opacity="1.000000" />
<path d="M 251.892578 137.335938 L 251.892578 136.412109 L 258.729980 136.412109 L 258.729980 137.335938 Z " fill="rgb(0, 0, 0)" fill-opacity="1.000000" />
<path d="M 258.892578 137.335938 L 258.892578 136.412109 L 265.729980 136.412109 L 265.729980 137.335938 Z " fill="rgb(0, 0, 0)" fill-opacity="1.000000" />
<path d="M 265.892578 137.335938 L 265.892578 136.412109 L 272.729980 136.412109 L 272.729980 137.335938 Z " fill="rgb(0, 0, 0)" fill-opacity="1.000000" />
<path d="M 272.892578 137.335938 L 272.892578 136.412109 L 279.729980 136.412109 L 279.729980 137.335938 Z " fill="rgb(0, 0, 0)" fill-opacity="1.000000" />
<path d="M 279.892578 137.335938 L 279.892578 136.412109 L 286.729980 136.412109 L 286.729980 137.335938 Z " fill="rgb(0, 0, 0)" fill-opacity="1.000000" />
<path d="M 286.892578 137.335938 L 286.892578 136.412109 L 293.729980 136.412109 L 293.729980 137.335938 Z " fill="rgb(0, 0, 0)" fill-opacity="1.000000" />
<path d="M 293.892578 137.335938 L 293.892578 136.412109 L 300.729980 136.412109 L 300.729980 137.335938 Z " fill="rgb(0, 0, 0)" fill-opacity="1.000000" />
<path d="M 300.892578 137.335938 L 300.892578 136.412109 L 307.729980 136.412109 L 307.729980 137.335938 Z " fill="rgb(0, 0, 0)" fill-opacity="1.000000" />
<path d="M 307.892578 137.335938 L 307.892578 136.412109 L 314.729980 136.412109 L 314.729980 137.335938 Z " fill="rgb(0, 0, 0)" fill-opacity="1.000000" />
<path d="M 314.892578 137.335938 L 314.892578 136.412109 L 321.729980 136.412109 L 321.729980 137.335938 Z " fill="rgb(0, 0, 0)" fill-opacity="1.000000" />
<path d="M 321.892578 137.335938 L 321.892578 136.412109 L 328.729980 136.412109 L 328.729980 137.335938 Z " fill="rgb(0, 0, 0)" fill-opacity="1.000000" />
<path d="M 328.892578 137.335938 L 328.892578 136.412109 L 335.729980 136.412109 L 335.729980 137.335938 Z " fill="rgb(0, 0, 0)" fill-opacity="1.000000" />
<path d="M 335.892578 137.335938 L 335.892578 136.412109 L 342.729980 136.412109 L 342.729980 137.335938 Z " fill="rgb(0, 0, 0)" fill-opacity="1.000000" />
<path d="M 342.892578 137.335938 L 342.892578 136.412109 L 349.729980 136.412109 L 349.729980 137.335938 Z " fill="rgb(0, 0, 0)" fill-opacity="1.000000" />
<path d="M 349.892578 137.335938 L 349.892578 136.412109 L 356.729980 136.412109 L 356.729980 137.335938 Z " fill="rgb(0, 0, 0)" fill-opacity="1.000000" />
<path d="M 356.892578 137.335938 L 356.892578 136.412109 L 363.729980 136.412109 L 363.729980 137.335938 Z " fill="rgb(0, 0, 0)" fill-opacity="1.000000" />
<path d="M 363.892578 137.335938 L 363.892578 136.412109 L 370.729980 136.412109 L 370.729980 137.335938 Z " fill="rgb(0, 0, 0)" fill-opacity="1.000000" />
<path d="M 370.892578 137.335938 L 370.892578 136.412109 L 377.729980 136.412109 L 377.729980 137.335938 Z " fill="rgb(0, 0, 0)" fill-opacity="1.000000" />
<path d="M 377.892578 137.335938 L 377.892578 136.412109 L 380.878906 136.412109 L 380.878906 129.300781 L 381.738281 129.300781 L 381.738281 137.335938 Z " fill="rgb(0, 0, 0)" fill-opacity="1.000000" />
<path d="M 79.878906 91.319336 L 79.878906 84.412109 L 83.729980 84.412109 L 83.729980 85.335938 L 80.738281 85.335938 L 80.738281 91.319336 Z " fill="rgb(0, 0, 0)" fill-opacity="1.000000" />
<path d="M 79.878906 104.319336 L 79.878906 90.300781 L 80.738281 90.300781 L 80.738281 104.319336 Z " fill="rgb(0, 0, 0)" fill-opacity="1.000000" />
<path d="M 79.878906 111.335938 L 79.878906 103.300781 L 80.738281 103.300781 L 80.738281 110.412109 L 83.729980 110.412109 L 83.729980 111.335938 Z " fill="rgb(0, 0, 0)" fill-opacity="1.000000" />
<path d="M 100.449219 124.797852 L 100.449219 116.300781 L 102.167969 116.300781 L 102.167969 122.950195 L 104.729980 122.950195 L 104.729980 124.797852 Z " fill="rgb(0, 0, 0)" fill-opacity="1.000000" />
<path d="M 104.892578 124.797852 L 104.892578 122.950195 L 111.729980 122.950195 L 111.729980 124.797852 Z " fill="rgb(0, 0, 0)" fill-opacity="1.000000" />
<path d="M 111.892578 124.797852 L 111.892578 122.950195 L 118.729980 122.950195 L 118.729980 124.797852 Z " fill="rgb(0, 0, 0)" fill-opacity="1.000000" />
<path d="M 118.892578 124.797852 L 118.892578 122.950195 L 125.729980 122.950195 L 125.729980 124.797852 Z " fill="rgb(0, 0, 0)" fill-opacity="1.000000" />
<path d="M 125.892578 124.797852 L 125.892578 122.950195 L 132.729980 122.950195 L 132.729980 124.797852 Z " fill="rgb(0, 0, 0)" fill-opacity="1.000000" />
<path d="M 132.892578 124.797852 L 132.892578 122.950195 L 139.729980 122.950195 L 139.729980 124.797852 Z " fill="rgb(0, 0, 0)" fill-opacity="1.000000" />
<path d="M 139.892578 124.797852 L 139.892578 122.950195 L 146.729980 122.950195 L 146.729980 124.797852 Z " fill="rgb(0, 0, 0)" fill-opacity="1.000000" />
<path d="M 146.892578 124.797852 L 146.892578 122.950195 L 153.729980 122.950195 L 153.729980 124.797852 Z " fill="rgb(0, 0, 0)" fill-opacity="1.000000" />
<path d="M 153.892578 124.797852 L 153.892578 122.950195 L 156.449219 122.950195 L 156.449219 116.300781 L 158.167969 116.300781 L 158.167969 124.797852 Z " fill="rgb(0, 0, 0)" fill-opacity="1.000000" />
<path d="M 303.878906 124.335938 L 303.878906 116.300781 L 304.738281 116.300781 L 304.738281 123.412109 L 307.729980 123.412109 L 307.729980 124.335938 Z " fill="rgb(0, 0, 0)" fill-opacity="1.000000" />
<path d="M 307.892578 124.335938 L 307.892578 123.412109 L 314.729980 123.412109 L 314.729980 124.335938 Z " fill="rgb(0, 0, 0)" fill-opacity="1.000000" />
<path d="M 314.892578 124.335938 L 314.892578 123.412109 L 321.729980 123.412109 L 321.729980 124.335938 Z " fill="rgb(0, 0, 0)" fill-opacity="1.000000" />
<path d="M 321.892578 124.335938 L 321.892578 123.412109 L 328.729980 123.412109 L 328.729980 124.335938 Z " fill="rgb(0, 0, 0)" fill-opacity="1.000000" />
<path d="M 328.892578 124.335938 L 328.892578 123.412109 L 335.729980 123.412109 L 335.729980 124.335938 Z " fill="rgb(0, 0, 0)" fill-opacity="1.000000" />
<path d="M 335.892578 124.335938 L 335.892578 123.412109 L 342.729980 123.412109 L 342.729980 124.335938 Z " fill="rgb(0, 0, 0)" fill-opacity="1.000000" />
<path d="M 342.892578 124.335938 L 342.892578 123.412109 L 349.729980 123.412109 L 349.729980 124.335938 Z " fill="rgb(0, 0, 0)" fill-opacity="1.000000" />
<path d="M 349.892578 124.335938 L 349.892578 123.412109 L 356.729980 123.412109 L 356.729980 124.335938 Z " fill="rgb(0, 0, 0)" fill-opacity="1.000000" />
<path d="M 356.892578 124.335938 L 356.892578 123.412109 L 359.878906 123.412109 L 359.878906 116.300781 L 360.738281 116.300781 L 360.738281 124.335938 Z " fill="rgb(0, 0, 0)" fill-opacity="1.000000" />
<path d="M 380.878906 130.319336 L 380.878906 116.300781 L 381.738281 116.300781 L 381.738281 130.319336 Z " fill="rgb(0, 0, 0)" fill-opacity="1.000000" />
<path d="M 83.892578 111.335938 L 83.892578 110.412109 L 90.729980 110.412109 L 90.729980 111.335938 Z " fill="rgb(0, 0, 0)" fill-opacity="1.000000" />
<path d="M 91.032227 114.418945 L 91.032227 107.866211 L 97.590332 111.142578 Z " fill="rgb(0, 0, 0)" fill-opacity="1.000000" />
<path d="M 100.449219 117.319336 L 100.449219 103.300781 L 102.167969 103.300781 L 102.167969 117.319336 Z " fill="rgb(0, 0, 0)" fill-opacity="1.000000" />
<path d="M 122.861816 111.824707 Q 122.861816 112.490723 123.106201 112.829102 Q 123.350586 113.167480 123.828613 113.167480 L 124.983398 113.167480 L 124.983398 114.000000 L 123.731934 114.000000 Q 122.845703 114.000000 122.359619 113.433350 Q 121.873535 112.866699 121.873535 111.824707 L 121.873535 106.383789 L 120.289062 106.383789 L 120.289062 105.610352 L 122.861816 105.610352 Z " fill="rgb(0, 0, 0)" fill-opacity="1.000000" />
<path d="M 127.697266 108.005859 L 130.227051 108.005859 L 130.227051 113.231934 L 132.187500 113.231934 L 132.187500 114.000000 L 127.278320 114.000000 L 127.278320 113.231934 L 129.238770 113.231934 L 129.238770 108.773926 L 127.697266 108.773926 Z M 129.238770 105.669434 L 130.227051 105.669434 L 130.227051 106.915527 L 129.238770 106.915527 Z " fill="rgb(0, 0, 0)" fill-opacity="1.000000" />
<path d="M 139.203613 109.225098 Q 138.886719 108.978027 138.559082 108.865234 Q 138.231445 108.752441 137.839355 108.752441 Q 136.915527 108.752441 136.426758 109.332520 Q 135.937988 109.912598 135.937988 111.008301 L 135.937988 114.000000 L 134.944336 114.000000 L 134.944336 107.984375 L 135.937988 107.984375 L 135.937988 109.160645 Q 136.185059 108.521484 136.697998 108.180420 Q 137.210938 107.839355 137.914551 107.839355 Q 138.279785 107.839355 138.596680 107.930664 Q 138.913574 108.021973 139.203613 108.215332 Z " fill="rgb(0, 0, 0)" fill-opacity="1.000000" />
<path d="M 156.449219 117.319336 L 156.449219 103.300781 L 158.167969 103.300781 L 158.167969 117.319336 Z " fill="rgb(0, 0, 0)" fill-opacity="1.000000" />
<path d="M 160.892578 111.335938 L 160.892578 110.412109 L 167.729980 110.412109 L 167.729980 111.335938 Z " fill="rgb(0, 0, 0)" fill-opacity="1.000000" />
<path d="M 167.892578 111.335938 L 167.892578 110.412109 L 174.729980 110.412109 L 174.729980 111.335938 Z " fill="rgb(0, 0, 0)" fill-opacity="1.000000" />
<path d="M 174.892578 111.335938 L 174.892578 110.412109 L 181.729980 110.412109 L 181.729980 111.335938 Z " fill="rgb(0, 0, 0)" fill-opacity="1.000000" />
<path d="M 181.892578 111.335938 L 181.892578 110.412109 L 188.729980 110.412109 L 188.729980 111.335938 Z " fill="rgb(0, 0, 0)" fill-opacity="1.000000" />
<path d="M 188.892578 111.335938 L 188.892578 110.412109 L 195.729980 110.412109 L 195.729980 111.335938 Z " fill="rgb(0, 0, 0)" fill-opacity="1.000000" />
<path d="M 195.892578 111.335938 L 195.892578 110.412109 L 202.729980 110.412109 L 202.729980 111.335938 Z " fill="rgb(0, 0, 0)" fill-opacity="1.000000" />
<path d="M 202.892578 111.335938 L 202.892578 110.412109 L 209.729980 110.412109 L 209.729980 111.335938 Z " fill="rgb(0, 0, 0)" fill-opacity="1.000000" />
<path d="M 209.892578 111.335938 L 209.892578 110.412109 L 216.729980 110.412109 L 216.729980 111.335938 Z " fill="rgb(0, 0, 0)" fill-opacity="1.000000" />
<path d="M 216.892578 111.335938 L 216.892578 110.412109 L 223.729980 110.412109 L 223.729980 111.335938 Z " fill="rgb(0, 0, 0)" fill-opacity="1.000000" />
<path d="M 223.892578 111.335938 L 223.892578 110.412109 L 230.729980 110.412109 L 230.729980 111.335938 Z " fill="rgb(0, 0, 0)" fill-opacity="1.000000" />
<path d="M 230.892578 111.335938 L 230.892578 110.412109 L 237.729980 110.412109 L 237.729980 111.335938 Z " fill="rgb(0, 0, 0)" fill-opacity="1.000000" />
<path d="M 237.892578 111.335938 L 237.892578 110.412109 L 244.729980 110.412109 L 244.729980 111.335938 Z " fill="rgb(0, 0, 0)" fill-opacity="1.000000" />
<path d="M 244.892578 111.335938 L 244.892578 110.412109 L 251.729980 110.412109 L 251.729980 111.335938 Z " fill="rgb(0, 0, 0)" fill-opacity="1.000000" />
<path d="M 251.892578 111.335938 L 251.892578 110.412109 L 258.729980 110.412109 L 258.729980 111.335938 Z " fill="rgb(0, 0, 0)" fill-opacity="1.000000" />
<path d="M 258.892578 111.335938 L 258.892578 110.412109 L 265.729980 110.412109 L 265.729980 111.335938 Z " fill="rgb(0, 0, 0)" fill-opacity="1.000000" />
<path d="M 265.892578 111.335938 L 265.892578 110.412109 L 272.729980 110.412109 L 272.729980 111.335938 Z " fill="rgb(0, 0, 0)" fill-opacity="1.000000" />
<path d="M 272.892578 111.335938 L 272.892578 110.412109 L 279.729980 110.412109 L 279.729980 111.335938 Z " fill="rgb(0, 0, 0)" fill-opacity="1.000000" />
<path d="M 279.892578 111.335938 L 279.892578 110.412109 L 286.729980 110.412109 L 286.729980 111.335938 Z " fill="rgb(0, 0, 0)" fill-opacity="1.000000" />
<path d="M 286.892578 111.335938 L 286.892578 110.412109 L 293.729980 110.412109 L 293.729980 111.335938 Z " fill="rgb(0, 0, 0)" fill-opacity="1.000000" />
<path d="M 294.032227 114.418945 L 294.032227 107.866211 L 300.590332 111.142578 Z " fill="rgb(0, 0, 0)" fill-opacity="1.000000" />
<path d="M 303.878906 117.319336 L 303.878906 103.300781 L 304.738281 103.300781 L 304.738281 117.319336 Z " fill="rgb(0, 0, 0)" fill-opacity="1.000000" />
<path d="M 328.015625 110.498047 L 328.015625 110.981445 L 323.734863 110.981445 L 323.734863 111.013672 Q 323.691895 112.243652 324.204834 112.780762 Q 324.717773 113.317871 325.652344 113.317871 Q 326.125000 113.317871 326.640625 113.167480 Q 327.156250 113.017090 327.741699 112.710938 L 327.741699 113.693848 Q 327.177734 113.924805 326.654053 114.040283 Q 326.130371 114.155762 325.641602 114.155762 Q 324.239746 114.155762 323.450195 113.315186 Q 322.660645 112.474609 322.660645 110.997559 Q 322.660645 109.558105 323.434082 108.698730 Q 324.207520 107.839355 325.496582 107.839355 Q 326.645996 107.839355 327.309326 108.618164 Q 327.972656 109.396973 328.015625 110.498047 Z M 327.027344 110.208008 Q 326.962891 109.584961 326.573486 109.131104 Q 326.184082 108.677246 325.453613 108.677246 Q 324.739258 108.677246 324.277344 109.149902 Q 323.815430 109.622559 323.772461 110.213379 Z " fill="rgb(0, 0, 0)" fill-opacity="1.000000" />
<path d="M 330.047363 111.722656 L 330.047363 107.995117 L 331.035645 107.995117 L 331.035645 111.722656 Q 331.035645 112.533691 331.322998 112.915039 Q 331.610352 113.296387 332.211914 113.296387 Q 332.910156 113.296387 333.280762 112.804932 Q 333.651367 112.313477 333.651367 111.395020 L 333.651367 107.995117 L 334.645020 107.995117 L 334.645020 114.000000 L 333.651367 114.000000 L 333.651367 113.097656 Q 333.388184 113.618652 332.934326 113.887207 Q 332.480469 114.155762 331.873535 114.155762 Q 330.949707 114.155762 330.498535 113.551514 Q 330.047363 112.947266 330.047363 111.722656 Z " fill="rgb(0, 0, 0)" fill-opacity="1.000000" />
<path d="M 342.203613 109.225098 Q 341.886719 108.978027 341.559082 108.865234 Q 341.231445 108.752441 340.839355 108.752441 Q 339.915527 108.752441 339.426758 109.332520 Q 338.937988 109.912598 338.937988 111.008301 L 338.937988 114.000000 L 337.944336 114.000000 L 337.944336 107.984375 L 338.937988 107.984375 L 338.937988 109.160645 Q 339.185059 108.521484 339.697998 108.180420 Q 340.210938 107.839355 340.914551 107.839355 Q 341.279785 107.839355 341.596680 107.930664 Q 341.913574 108.021973 342.203613 108.215332 Z " fill="rgb(0, 0, 0)" fill-opacity="1.000000" />
<path d="M 359.878906 117.319336 L 359.878906 103.300781 L 360.738281 103.300781 L 360.738281 117.319336 Z " fill="rgb(0, 0, 0)" fill-opacity="1.000000" />
<path d="M 363.892578 111.335938 L 363.892578 110.412109 L 370.729980 110.412109 L 370.729980 111.335938 Z " fill="rgb(0, 0, 0)" fill-opacity="1.000000" />
<path d="M 370.892578 111.335938 L 370.892578 110.412109 L 377.729980 110.412109 L 377.729980 111.335938 Z " fill="rgb(0, 0, 0)" fill-opacity="1.000000" />
<path d="M 380.878906 117.319336 L 380.878906 111.335938 L 377.892578 111.335938 L 377.892578 110.412109 L 381.738281 110.412109 L 381.738281 117.319336 Z " fill="rgb(0, 0, 0)" fill-opacity="1.000000" />
<path d="M 100.449219 104.319336 L 100.449219 96.950195 L 104.729980 96.950195 L 104.729980 98.797852 L 102.167969 98.797852 L 102.167969 104.319336 Z " fill="rgb(0, 0, 0)" fill-opacity="1.000000" />
<path d="M 104.892578 98.797852 L 104.892578 96.950195 L 111.729980 96.950195 L 111.729980 98.797852 Z " fill="rgb(0, 0, 0)" fill-opacity="1.000000" />
<path d="M 111.892578 98.797852 L 111.892578 96.950195 L 118.729980 96.950195 L 118.729980 98.797852 Z " fill="rgb(0, 0, 0)" fill-opacity="1.000000" />
<path d="M 118.892578 98.797852 L 118.892578 96.950195 L 125.729980 96.950195 L 125.729980 98.797852 Z " fill="rgb(0, 0, 0)" fill-opacity="1.000000" />
<path d="M 125.892578 98.797852 L 125.892578 96.950195 L 132.729980 96.950195 L 132.729980 98.797852 Z " fill="rgb(0, 0, 0)" fill-opacity="1.000000" />
<path d="M 132.892578 98.797852 L 132.892578 96.950195 L 139.729980 96.950195 L 139.729980 98.797852 Z " fill="rgb(0, 0, 0)" fill-opacity="1.000000" />
<path d="M 139.892578 98.797852 L 139.892578 96.950195 L 146.729980 96.950195 L 146.729980 98.797852 Z " fill="rgb(0, 0, 0)" fill-opacity="1.000000" />
<path d="M 146.892578 98.797852 L 146.892578 96.950195 L 153.729980 96.950195 L 153.729980 98.797852 Z " fill="rgb(0, 0, 0)" fill-opacity="1.000000" />
<path d="M 156.449219 104.319336 L 156.449219 98.797852 L 153.892578 98.797852 L 153.892578 96.950195 L 158.167969 96.950195 L 158.167969 104.319336 Z " fill="rgb(0, 0, 0)" fill-opacity="1.000000" />
<path d="M 303.878906 104.319336 L 303.878906 97.412109 L 307.729980 97.412109 L 307.729980 98.335938 L 304.738281 98.335938 L 304.738281 104.319336 Z " fill="rgb(0, 0, 0)" fill-opacity="1.000000" />
<path d="M 307.892578 98.335938 L 307.892578 97.412109 L 314.729980 97.412109 L 314.729980 98.335938 Z " fill="rgb(0, 0, 0)" fill-opacity="1.000000" />
<path d="M 314.892578 98.335938 L 314.892578 97.412109 L 321.729980 97.412109 L 321.729980 98.335938 Z " fill="rgb(0, 0, 0)" fill-opacity="1.000000" />
<path d="M 321.892578 98.335938 L 321.892578 97.412109 L 328.729980 97.412109 L 328.729980 98.335938 Z " fill="rgb(0, 0, 0)" fill-opacity="1.000000" />
<path d="M 328.892578 98.335938 L 328.892578 97.412109 L 335.729980 97.412109 L 335.729980 98.335938 Z " fill="rgb(0, 0, 0)" fill-opacity="1.000000" />
<path d="M 335.892578 98.335938 L 335.892578 97.412109 L 342.729980 97.412109 L 342.729980 98.335938 Z " fill="rgb(0, 0, 0)" fill-opacity="1.000000" />
<path d="M 342.892578 98.335938 L 342.892578 97.412109 L 349.729980 97.412109 L 349.729980 98.335938 Z " fill="rgb(0, 0, 0)" fill-opacity="1.000000" />
<path d="M 349.892578 98.335938 L 349.892578 97.412109 L 356.729980 97.412109 L 356.729980 98.335938 Z " fill="rgb(0, 0, 0)" fill-opacity="1.000000" />
<path d="M 359.878906 104.319336 L 359.878906 98.335938 L 356.892578 98.335938 L 356.892578 97.412109 L 360.738281 97.412109 L 360.738281 104.319336 Z " fill="rgb(0, 0, 0)" fill-opacity="1.000000" />
<path d="M 83.892578 85.335938 L 83.892578 84.412109 L 90.729980 84.412109 L 90.729980 85.335938 Z " fill="rgb(0, 0, 0)" fill-opacity="1.000000" />
<path d="M 90.892578 85.335938 L 90.892578 84.412109 L 97.729980 84.412109 L 97.729980 85.335938 Z " fill="rgb(0, 0, 0)" fill-opacity="1.000000" />
<path d="M 97.892578 85.335938 L 97.892578 84.412109 L 104.729980 84.412109 L 104.729980 85.335938 Z " fill="rgb(0, 0, 0)" fill-opacity="1.000000" />
<path d="M 104.892578 85.335938 L 104.892578 84.412109 L 111.729980 84.412109 L 111.729980 85.335938 Z " fill="rgb(0, 0, 0)" fill-opacity="1.000000" />
<path d="M 111.892578 85.335938 L 111.892578 84.412109 L 118.729980 84.412109 L 118.729980 85.335938 Z " fill="rgb(0, 0, 0)" fill-opacity="1.000000" />
<path d="M 118.892578 85.335938 L 118.892578 84.412109 L 125.729980 84.412109 L 125.729980 85.335938 Z " fill="rgb(0, 0, 0)" fill-opacity="1.000000" />
<path d="M 125.892578 85.335938 L 125.892578 84.412109 L 132.729980 84.412109 L 132.729980 85.335938 Z " fill="rgb(0, 0, 0)" fill-opacity="1.000000" />
<path d="M 132.892578 85.335938 L 132.892578 84.412109 L 139.729980 84.412109 L 139.729980 85.335938 Z " fill="rgb(0, 0, 0)" fill-opacity="1.000000" />
<path d="M 139.892578 85.335938 L 139.892578 84.412109 L 146.729980 84.412109 L 146.729980 85.335938 Z " fill="rgb(0, 0, 0)" fill-opacity="1.000000" />
<path d="M 146.892578 85.335938 L 146.892578 84.412109 L 153.729980 84.412109 L 153.729980 85.335938 Z " fill="rgb(0, 0, 0)" fill-opacity="1.000000" />
<path d="M 153.892578 85.335938 L 153.892578 84.412109 L 160.729980 84.412109 L 160.729980 85.335938 Z " fill="rgb(0, 0, 0)" fill-opacity="1.000000" />
<path d="M 160.892578 85.335938 L 160.892578 84.412109 L 167.729980 84.412109 L 167.729980 85.335938 Z " fill="rgb(0, 0, 0)" fill-opacity="1.000000" />
<path d="M 167.892578 85.335938 L 167.892578 84.412109 L 174.729980 84.412109 L 174.729980 85.335938 Z " fill="rgb(0, 0, 0)" fill-opacity="1.000000" />
<path d="M 174.892578 85.335938 L 174.892578 84.412109 L 181.729980 84.412109 L 181.729980 85.335938 Z " fill="rgb(0, 0, 0)" fill-opacity="1.000000" />
<path d="M 181.892578 85.335938 L 181.892578 84.412109 L 188.729980 84.412109 L 188.729980 85.335938 Z " fill="rgb(0, 0, 0)" fill-opacity="1.000000" />
<path d="M 188.892578 85.335938 L 188.892578 84.412109 L 195.729980 84.412109 L 195.729980 85.335938 Z " fill="rgb(0, 0, 0)" fill-opacity="1.000000" />
<path d="M 195.892578 85.335938 L 195.892578 84.412109 L 202.729980 84.412109 L 202.729980 85.335938 Z " fill="rgb(0, 0, 0)" fill-opacity="1.000000" />
<path d="M 202.892578 85.335938 L 202.892578 84.412109 L 209.729980 84.412109 L 209.729980 85.335938 Z " fill="rgb(0, 0, 0)" fill-opacity="1.000000" />
<path d="M 209.892578 85.335938 L 209.892578 84.412109 L 216.729980 84.412109 L 216.729980 85.335938 Z " fill="rgb(0, 0, 0)" fill-opacity="1.000000" />
<path d="M 216.892578 85.335938 L 216.892578 84.412109 L 223.729980 84.412109 L 223.729980 85.335938 Z " fill="rgb(0, 0, 0)" fill-opacity="1.000000" />
<path d="M 223.892578 85.335938 L 223.892578 84.412109 L 230.729980 84.412109 L 230.729980 85.335938 Z " fill="rgb(0, 0, 0)" fill-opacity="1.000000" />
<path d="M 230.892578 85.335938 L 230.892578 84.412109 L 237.729980 84.412109 L 237.729980 85.335938 Z " fill="rgb(0, 0, 0)" fill-opacity="1.000000" />
<path d="M 237.892578 85.335938 L 237.892578 84.412109 L 244.729980 84.412109 L 244.729980 85.335938 Z " fill="rgb(0, 0, 0)" fill-opacity="1.000000" />
<path d="M 244.892578 85.335938 L 244.892578 84.412109 L 251.729980 84.412109 L 251.729980 85.335938 Z " fill="rgb(0, 0, 0)" fill-opacity="1.000000" />
<path d="M 251.892578 85.335938 L 251.892578 84.412109 L 258.729980 84.412109 L 258.729980 85.335938 Z " fill="rgb(0, 0, 0)" fill-opacity="1.000000" />
<path d="M 258.892578 85.335938 L 258.892578 84.412109 L 265.729980 84.412109 L 265.729980 85.335938 Z " fill="rgb(0, 0, 0)" fill-opacity="1.000000" />
<path d="M 265.892578 85.335938 L 265.892578 84.412109 L 272.729980 84.412109 L 272.729980 85.335938 Z " fill="rgb(0, 0, 0)" fill-opacity="1.000000" />
<path d="M 272.892578 85.335938 L 272.892578 84.412109 L 279.729980 84.412109 L 279.729980 85.335938 Z " fill="rgb(0, 0, 0)" fill-opacity="1.000000" />
<path d="M 279.892578 85.335938 L 279.892578 84.412109 L 286.729980 84.412109 L 286.729980 85.335938 Z " fill="rgb(0, 0, 0)" fill-opacity="1.000000" />
<path d="M 286.892578 85.335938 L 286.892578 84.412109 L 293.729980 84.412109 L 293.729980 85.335938 Z " fill="rgb(0, 0, 0)" fill-opacity="1.000000" />
<path d="M 293.892578 85.335938 L 293.892578 84.412109 L 300.729980 84.412109 L 300.729980 85.335938 Z " fill="rgb(0, 0, 0)" fill-opacity="1.000000" />
<path d="M 300.892578 85.335938 L 300.892578 84.412109 L 307.729980 84.412109 L 307.729980 85.335938 Z " fill="rgb(0, 0, 0)" fill-opacity="1.000000" />
<path d="M 307.892578 85.335938 L 307.892578 84.412109 L 314.729980 84.412109 L 314.729980 85.335938 Z " fill="rgb(0, 0, 0)" fill-opacity="1.000000" />
<path d="M 314.892578 85.335938 L 314.892578 84.412109 L 321.729980 84.412109 L 321.729980 85.335938 Z " fill="rgb(0, 0, 0)" fill-opacity="1.000000" />
<path d="M 321.892578 85.335938 L 321.892578 84.412109 L 324.878906 84.412109 L 324.878906 77.300781 L 325.738281 77.300781 L 325.738281 85.335938 Z " fill="rgb(0, 0, 0)" fill-opacity="1.000000" />
<path d="M 135.878906 52.319336 L 135.878906 45.412109 L 139.729980 45.412109 L 139.729980 46.335938 L 136.738281 46.335938 L 136.738281 52.319336 Z " fill="rgb(0, 0, 0)" fill-opacity="1.000000" />
<path d="M 135.878906 65.319336 L 135.878906 51.300781 L 136.738281 51.300781 L 136.738281 65.319336 Z " fill="rgb(0, 0, 0)" fill-opacity="1.000000" />
<path d="M 135.878906 72.335938 L 135.878906 64.300781 L 136.738281 64.300781 L 136.738281 71.412109 L 139.729980 71.412109 L 139.729980 72.335938 Z " fill="rgb(0, 0, 0)" fill-opacity="1.000000" />
<path d="M 139.892578 72.335938 L 139.892578 71.412109 L 146.729980 71.412109 L 146.729980 72.335938 Z " fill="rgb(0, 0, 0)" fill-opacity="1.000000" />
<path d="M 146.892578 72.335938 L 146.892578 71.412109 L 153.729980 71.412109 L 153.729980 72.335938 Z " fill="rgb(0, 0, 0)" fill-opacity="1.000000" />
<path d="M 153.892578 72.335938 L 153.892578 71.412109 L 160.729980 71.412109 L 160.729980 72.335938 Z " fill="rgb(0, 0, 0)" fill-opacity="1.000000" />
<path d="M 160.892578 72.335938 L 160.892578 71.412109 L 167.729980 71.412109 L 167.729980 72.335938 Z " fill="rgb(0, 0, 0)" fill-opacity="1.000000" />
<path d="M 167.892578 72.335938 L 167.892578 71.412109 L 174.729980 71.412109 L 174.729980 72.335938 Z " fill="rgb(0, 0, 0)" fill-opacity="1.000000" />
<path d="M 174.892578 72.335938 L 174.892578 71.412109 L 181.729980 71.412109 L 181.729980 72.335938 Z " fill="rgb(0, 0, 0)" fill-opacity="1.000000" />
<path d="M 181.892578 72.335938 L 181.892578 71.412109 L 188.729980 71.412109 L 188.729980 72.335938 Z " fill="rgb(0, 0, 0)" fill-opacity="1.000000" />
<path d="M 188.892578 72.335938 L 188.892578 71.412109 L 191.878906 71.412109 L 191.878906 64.300781 L 192.738281 64.300781 L 192.738281 72.335938 Z " fill="rgb(0, 0, 0)" fill-opacity="1.000000" />
<path d="M 247.878906 72.335938 L 247.878906 64.300781 L 248.738281 64.300781 L 248.738281 71.412109 L 251.729980 71.412109 L 251.729980 72.335938 Z " fill="rgb(0, 0, 0)" fill-opacity="1.000000" />
<path d="M 251.892578 72.335938 L 251.892578 71.412109 L 258.729980 71.412109 L 258.729980 72.335938 Z " fill="rgb(0, 0, 0)" fill-opacity="1.000000" />
<path d="M 258.892578 72.335938 L 258.892578 71.412109 L 265.729980 71.412109 L 265.729980 72.335938 Z " fill="rgb(0, 0, 0)" fill-opacity="1.000000" />
<path d="M 265.892578 72.335938 L 265.892578 71.412109 L 272.729980 71.412109 L 272.729980 72.335938 Z " fill="rgb(0, 0, 0)" fill-opacity="1.000000" />
<path d="M 272.892578 72.335938 L 272.892578 71.412109 L 279.729980 71.412109 L 279.729980 72.335938 Z " fill="rgb(0, 0, 0)" fill-opacity="1.000000" />
<path d="M 279.892578 72.335938 L 279.892578 71.412109 L 286.729980 71.412109 L 286.729980 72.335938 Z " fill="rgb(0, 0, 0)" fill-opacity="1.000000" />
<path d="M 286.892578 72.335938 L 286.892578 71.412109 L 293.729980 71.412109 L 293.729980 72.335938 Z " fill="rgb(0, 0, 0)" fill-opacity="1.000000" />
<path d="M 293.892578 72.335938 L 293.892578 71.412109 L 300.729980 71.412109 L 300.729980 72.335938 Z " fill="rgb(0, 0, 0)" fill-opacity="1.000000" />
<path d="M 300.892578 72.335938 L 300.892578 71.412109 L 303.878906 71.412109 L 303.878906 64.300781 L 304.738281 64.300781 L 304.738281 72.335938 Z " fill="rgb(0, 0, 0)" fill-opacity="1.000000" />
<path d="M 324.878906 78.319336 L 324.878906 64.300781 L 325.738281 64.300781 L 325.738281 78.319336 Z " fill="rgb(0, 0, 0)" fill-opacity="1.000000" />
<path d="M 158.608398 60.066406 Q 158.361328 60.694824 157.979980 61.720703 Q 157.448242 63.138672 157.265625 63.450195 Q 157.018555 63.869141 156.647949 64.078613 Q 156.277344 64.288086 155.783203 64.288086 L 154.988281 64.288086 L 154.988281 63.460938 L 155.573730 63.460938 Q 156.008789 63.460938 156.255859 63.208496 Q 156.502930 62.956055 156.884277 61.903320 L 154.558594 55.984375 L 155.605957 55.984375 L 157.389160 60.689453 L 159.145508 55.984375 L 160.192871 55.984375 Z " fill="rgb(0, 0, 0)" fill-opacity="1.000000" />
<path d="M 167.015625 58.498047 L 167.015625 58.981445 L 162.734863 58.981445 L 162.734863 59.013672 Q 162.691895 60.243652 163.204834 60.780762 Q 163.717773 61.317871 164.652344 61.317871 Q 165.125000 61.317871 165.640625 61.167480 Q 166.156250 61.017090 166.741699 60.710938 L 166.741699 61.693848 Q 166.177734 61.924805 165.654053 62.040283 Q 165.130371 62.155762 164.641602 62.155762 Q 163.239746 62.155762 162.450195 61.315186 Q 161.660645 60.474609 161.660645 58.997559 Q 161.660645 57.558105 162.434082 56.698730 Q 163.207520 55.839355 164.496582 55.839355 Q 165.645996 55.839355 166.309326 56.618164 Q 166.972656 57.396973 167.015625 58.498047 Z M 166.027344 58.208008 Q 165.962891 57.584961 165.573486 57.131104 Q 165.184082 56.677246 164.453613 56.677246 Q 163.739258 56.677246 163.277344 57.149902 Q 162.815430 57.622559 162.772461 58.213379 Z " fill="rgb(0, 0, 0)" fill-opacity="1.000000" />
<path d="M 173.645020 58.272461 L 173.645020 62.000000 L 172.651367 62.000000 L 172.651367 58.272461 Q 172.651367 57.461426 172.366699 57.080078 Q 172.082031 56.698730 171.475098 56.698730 Q 170.782227 56.698730 170.408936 57.190186 Q 170.035645 57.681641 170.035645 58.600098 L 170.035645 62.000000 L 169.047363 62.000000 L 169.047363 55.984375 L 170.035645 55.984375 L 170.035645 56.886719 Q 170.298828 56.371094 170.750000 56.105225 Q 171.201172 55.839355 171.818848 55.839355 Q 172.737305 55.839355 173.191162 56.443604 Q 173.645020 57.047852 173.645020 58.272461 Z " fill="rgb(0, 0, 0)" fill-opacity="1.000000" />
<path d="M 191.878906 65.319336 L 191.878906 51.300781 L 192.738281 51.300781 L 192.738281 65.319336 Z " fill="rgb(0, 0, 0)" fill-opacity="1.000000" />
<path d="M 195.892578 59.335938 L 195.892578 58.412109 L 202.729980 58.412109 L 202.729980 59.335938 Z " fill="rgb(0, 0, 0)" fill-opacity="1.000000" />
<path d="M 202.892578 59.335938 L 202.892578 58.412109 L 209.729980 58.412109 L 209.729980 59.335938 Z " fill="rgb(0, 0, 0)" fill-opacity="1.000000" />
<path d="M 209.892578 59.335938 L 209.892578 58.412109 L 216.729980 58.412109 L 216.729980 59.335938 Z " fill="rgb(0, 0, 0)" fill-opacity="1.000000" />
<path d="M 216.892578 59.335938 L 216.892578 58.412109 L 223.729980 58.412109 L 223.729980 59.335938 Z " fill="rgb(0, 0, 0)" fill-opacity="1.000000" />
<path d="M 223.892578 59.335938 L 223.892578 58.412109 L 230.729980 58.412109 L 230.729980 59.335938 Z " fill="rgb(0, 0, 0)" fill-opacity="1.000000" />
<path d="M 230.892578 59.335938 L 230.892578 58.412109 L 237.729980 58.412109 L 237.729980 59.335938 Z " fill="rgb(0, 0, 0)" fill-opacity="1.000000" />
<path d="M 238.032227 62.418945 L 238.032227 55.866211 L 244.590332 59.142578 Z " fill="rgb(0, 0, 0)" fill-opacity="1.000000" />
<path d="M 247.878906 65.319336 L 247.878906 51.300781 L 248.738281 51.300781 L 248.738281 65.319336 Z " fill="rgb(0, 0, 0)" fill-opacity="1.000000" />
<path d="M 267.047363 59.722656 L 267.047363 55.995117 L 268.035645 55.995117 L 268.035645 59.722656 Q 268.035645 60.533691 268.322998 60.915039 Q 268.610352 61.296387 269.211914 61.296387 Q 269.910156 61.296387 270.280762 60.804932 Q 270.651367 60.313477 270.651367 59.395020 L 270.651367 55.995117 L 271.645020 55.995117 L 271.645020 62.000000 L 270.651367 62.000000 L 270.651367 61.097656 Q 270.388184 61.618652 269.934326 61.887207 Q 269.480469 62.155762 268.873535 62.155762 Q 267.949707 62.155762 267.498535 61.551514 Q 267.047363 60.947266 267.047363 59.722656 Z " fill="rgb(0, 0, 0)" fill-opacity="1.000000" />
<path d="M 278.226074 56.193848 L 278.226074 57.160645 Q 277.801758 56.913574 277.372070 56.790039 Q 276.942383 56.666504 276.496582 56.666504 Q 275.825195 56.666504 275.494873 56.884033 Q 275.164551 57.101562 275.164551 57.547363 Q 275.164551 57.950195 275.411621 58.148926 Q 275.658691 58.347656 276.641602 58.535645 L 277.039062 58.610840 Q 277.774902 58.750488 278.153564 59.169434 Q 278.532227 59.588379 278.532227 60.259766 Q 278.532227 61.151367 277.898438 61.653564 Q 277.264648 62.155762 276.136719 62.155762 Q 275.690918 62.155762 275.202148 62.061768 Q 274.713379 61.967773 274.144043 61.779785 L 274.144043 60.759277 Q 274.697266 61.043945 275.202148 61.186279 Q 275.707031 61.328613 276.158203 61.328613 Q 276.813477 61.328613 277.173340 61.062744 Q 277.533203 60.796875 277.533203 60.318848 Q 277.533203 59.631348 276.217285 59.368164 L 276.174316 59.357422 L 275.803711 59.282227 Q 274.949707 59.115723 274.557617 58.720947 Q 274.165527 58.326172 274.165527 57.644043 Q 274.165527 56.779297 274.750977 56.309326 Q 275.336426 55.839355 276.421387 55.839355 Q 276.904785 55.839355 277.350586 55.927979 Q 277.796387 56.016602 278.226074 56.193848 Z " fill="rgb(0, 0, 0)" fill-opacity="1.000000" />
<path d="M 284.608398 56.752441 L 284.608398 53.642578 L 285.596680 53.642578 L 285.596680 62.000000 L 284.608398 62.000000 L 284.608398 61.242676 Q 284.361328 61.688477 283.950439 61.922119 Q 283.539551 62.155762 283.002441 62.155762 Q 281.912109 62.155762 281.286377 61.309814 Q 280.660645 60.463867 280.660645 58.976074 Q 280.660645 57.509766 281.289062 56.674561 Q 281.917480 55.839355 283.002441 55.839355 Q 283.544922 55.839355 283.958496 56.072998 Q 284.372070 56.306641 284.608398 56.752441 Z M 281.702637 58.997559 Q 281.702637 60.146973 282.067871 60.732422 Q 282.433105 61.317871 283.147461 61.317871 Q 283.861816 61.317871 284.235107 60.727051 Q 284.608398 60.136230 284.608398 58.997559 Q 284.608398 57.853516 284.235107 57.265381 Q 283.861816 56.677246 283.147461 56.677246 Q 282.433105 56.677246 282.067871 57.262695 Q 281.702637 57.848145 281.702637 58.997559 Z " fill="rgb(0, 0, 0)" fill-opacity="1.000000" />
<path d="M 303.878906 65.319336 L 303.878906 51.300781 L 304.738281 51.300781 L 304.738281 65.319336 Z " fill="rgb(0, 0, 0)" fill-opacity="1.000000" />
<path d="M 307.892578 59.335938 L 307.892578 58.412109 L 314.729980 58.412109 L 314.729980 59.335938 Z " fill="rgb(0, 0, 0)" fill-opacity="1.000000" />
<path d="M 314.892578 59.335938 L 314.892578 58.412109 L 321.729980 58.412109 L 321.729980 59.335938 Z " fill="rgb(0, 0, 0)" fill-opacity="1.000000" />
<path d="M 324.878906 65.319336 L 324.878906 59.335938 L 321.892578 59.335938 L 321.892578 58.412109 L 325.738281 58.412109 L 325.738281 65.319336 Z " fill="rgb(0, 0, 0)" fill-opacity="1.000000" />
<path d="M 139.892578 46.335938 L 139.892578 45.412109 L 146.729980 45.412109 L 146.729980 46.335938 Z " fill="rgb(0, 0, 0)" fill-opacity="1.000000" />
<path d="M 146.892578 46.335938 L 146.892578 45.412109 L 153.729980 45.412109 L 153.729980 46.335938 Z " fill="rgb(0, 0, 0)" fill-opacity="1.000000" />
<path d="M 153.892578 46.335938 L 153.892578 45.412109 L 160.729980 45.412109 L 160.729980 46.335938 Z " fill="rgb(0, 0, 0)" fill-opacity="1.000000" />
<path d="M 160.892578 46.335938 L 160.892578 45.412109 L 167.729980 45.412109 L 167.729980 46.335938 Z " fill="rgb(0, 0, 0)" fill-opacity="1.000000" />
<path d="M 167.892578 46.335938 L 167.892578 45.412109 L 174.729980 45.412109 L 174.729980 46.335938 Z " fill="rgb(0, 0, 0)" fill-opacity="1.000000" />
<path d="M 174.892578 46.335938 L 174.892578 45.412109 L 181.729980 45.412109 L 181.729980 46.335938 Z " fill="rgb(0, 0, 0)" fill-opacity="1.000000" />
<path d="M 181.892578 46.335938 L 181.892578 45.412109 L 188.729980 45.412109 L 188.729980 46.335938 Z " fill="rgb(0, 0, 0)" fill-opacity="1.000000" />
<path d="M 191.878906 52.319336 L 191.878906 46.335938 L 188.892578 46.335938 L 188.892578 45.412109 L 192.738281 45.412109 L 192.738281 52.319336 Z " fill="rgb(0, 0, 0)" fill-opacity="1.000000" />
<path d="M 247.878906 52.319336 L 247.878906 45.412109 L 251.729980 45.412109 L 251.729980 46.335938 L 248.738281 46.335938 L 248.738281 52.319336 Z " fill="rgb(0, 0, 0)" fill-opacity="1.000000" />
<path d="M 251.892578 46.335938 L 251.892578 45.412109 L 258.729980 45.412109 L 258.729980 46.335938 Z " fill="rgb(0, 0, 0)" fill-opacity="1.000000" />
<path d="M 258.892578 46.335938 L 258.892578 45.412109 L 265.729980 45.412109 L 265.729980 46.335938 Z " fill="rgb(0, 0, 0)" fill-opacity="1.000000" />
<path d="M 265.892578 46.335938 L 265.892578 45.412109 L 272.729980 45.412109 L 272.729980 46.335938 Z " fill="rgb(0, 0, 0)" fill-opacity="1.000000" />
<path d="M 272.892578 46.335938 L 272.892578 45.412109 L 279.729980 45.412109 L 279.729980 46.335938 Z " fill="rgb(0, 0, 0)" fill-opacity="1.000000" />
<path d="M 279.892578 46.335938 L 279.892578 45.412109 L 286.729980 45.412109 L 286.729980 46.335938 Z " fill="rgb(0, 0, 0)" fill-opacity="1.000000" />
<path d="M 286.892578 46.335938 L 286.892578 45.412109 L 293.729980 45.412109 L 293.729980 46.335938 Z " fill="rgb(0, 0, 0)" fill-opacity="1.000000" />
<path d="M 293.892578 46.335938 L 293.892578 45.412109 L 300.729980 45.412109 L 300.729980 46.335938 Z " fill="rgb(0, 0, 0)" fill-opacity="1.000000" />
<path d="M 303.878906 52.319336 L 303.878906 46.335938 L 300.892578 46.335938 L 300.892578 45.412109 L 304.738281 45.412109 L 304.738281 52.319336 Z " fill="rgb(0, 0, 0)" fill-opacity="1.000000" />
<path d="M 163.878906 26.319336 L 163.878906 19.412109 L 167.729980 19.412109 L 167.729980 20.335938 L 164.738281 20.335938 L 164.738281 26.319336 Z " fill="rgb(0, 0, 0)" fill-opacity="1.000000" />
<path d="M 164.308594 36.418945 L 161.032227 29.866211 L 167.590332 29.866211 Z " fill="rgb(0, 0, 0)" fill-opacity="1.000000" />
<path d="M 191.878906 33.335938 L 191.878906 25.300781 L 192.738281 25.300781 L 192.738281 32.412109 L 195.729980 32.412109 L 195.729980 33.335938 Z " fill="rgb(0, 0, 0)" fill-opacity="1.000000" />
<path d="M 195.892578 33.335938 L 195.892578 32.412109 L 202.729980 32.412109 L 202.729980 33.335938 Z " fill="rgb(0, 0, 0)" fill-opacity="1.000000" />
<path d="M 202.892578 33.335938 L 202.892578 32.412109 L 209.729980 32.412109 L 209.729980 33.335938 Z " fill="rgb(0, 0, 0)" fill-opacity="1.000000" />
<path d="M 209.892578 33.335938 L 209.892578 32.412109 L 216.729980 32.412109 L 216.729980 33.335938 Z " fill="rgb(0, 0, 0)" fill-opacity="1.000000" />
<path d="M 216.892578 33.335938 L 216.892578 32.412109 L 223.729980 32.412109 L 223.729980 33.335938 Z " fill="rgb(0, 0, 0)" fill-opacity="1.000000" />
<path d="M 223.892578 33.335938 L 223.892578 32.412109 L 230.729980 32.412109 L 230.729980 33.335938 Z " fill="rgb(0, 0, 0)" fill-opacity="1.000000" />
<path d="M 230.892578 33.335938 L 230.892578 32.412109 L 237.729980 32.412109 L 237.729980 33.335938 Z " fill="rgb(0, 0, 0)" fill-opacity="1.000000" />
<path d="M 237.892578 33.335938 L 237.892578 32.412109 L 244.729980 32.412109 L 244.729980 33.335938 Z " fill="rgb(0, 0, 0)" fill-opacity="1.000000" />
<path d="M 244.892578 33.335938 L 244.892578 32.412109 L 247.878906 32.412109 L 247.878906 25.300781 L 248.738281 25.300781 L 248.738281 33.335938 Z " fill="rgb(0, 0, 0)" fill-opacity="1.000000" />
<path d="M 167.892578 20.335938 L 167.892578 19.412109 L 174.729980 19.412109 L 174.729980 20.335938 Z " fill="rgb(0, 0, 0)" fill-opacity="1.000000" />
<path d="M 174.892578 20.335938 L 174.892578 19.412109 L 181.729980 19.412109 L 181.729980 20.335938 Z " fill="rgb(0, 0, 0)" fill-opacity="1.000000" />
<path d="M 181.892578 20.335938 L 181.892578 19.412109 L 188.729980 19.412109 L 188.729980 20.335938 Z " fill="rgb(0, 0, 0)" fill-opacity="1.000000" />
<path d="M 191.878906 26.319336 L 191.878906 12.300781 L 192.738281 12.300781 L 192.738281 26.319336 Z " fill="rgb(0, 0, 0)" fill-opacity="1.000000" />
<path d="M 216.203613 18.225098 Q 215.886719 17.978027 215.559082 17.865234 Q 215.231445 17.752441 214.839355 17.752441 Q 213.915527 17.752441 213.426758 18.332520 Q 212.937988 18.912598 212.937988 20.008301 L 212.937988 23.000000 L 211.944336 23.000000 L 211.944336 16.984375 L 212.937988 16.984375 L 212.937988 18.160645 Q 213.185059 17.521484 213.697998 17.180420 Q 214.210938 16.839355 214.914551 16.839355 Q 215.279785 16.839355 215.596680 16.930664 Q 215.913574 17.021973 216.203613 17.215332 Z " fill="rgb(0, 0, 0)" fill-opacity="1.000000" />
<path d="M 218.047363 20.722656 L 218.047363 16.995117 L 219.035645 16.995117 L 219.035645 20.722656 Q 219.035645 21.533691 219.322998 21.915039 Q 219.610352 22.296387 220.211914 22.296387 Q 220.910156 22.296387 221.280762 21.804932 Q 221.651367 21.313477 221.651367 20.395020 L 221.651367 16.995117 L 222.645020 16.995117 L 222.645020 23.000000 L 221.651367 23.000000 L 221.651367 22.097656 Q 221.388184 22.618652 220.934326 22.887207 Q 220.480469 23.155762 219.873535 23.155762 Q 218.949707 23.155762 218.498535 22.551514 Q 218.047363 21.947266 218.047363 20.722656 Z " fill="rgb(0, 0, 0)" fill-opacity="1.000000" />
<path d="M 228.930664 19.997559 Q 228.930664 18.848145 228.565430 18.262695 Q 228.200195 17.677246 227.485840 17.677246 Q 226.766113 17.677246 226.395508 18.265381 Q 226.024902 18.853516 226.024902 19.997559 Q 226.024902 21.136230 226.395508 21.727051 Q 226.766113 22.317871 227.485840 22.317871 Q 228.200195 22.317871 228.565430 21.732422 Q 228.930664 21.146973 228.930664 19.997559 Z M 226.024902 17.752441 Q 226.261230 17.312012 226.677490 17.075684 Q 227.093750 16.839355 227.641602 16.839355 Q 228.726562 16.839355 229.349609 17.674561 Q 229.972656 18.509766 229.972656 19.976074 Q 229.972656 21.463867 229.346924 22.309814 Q 228.721191 23.155762 227.630859 23.155762 Q 227.093750 23.155762 226.682861 22.922119 Q 226.271973 22.688477 226.024902 22.242676 L 226.024902 23.000000 L 225.036621 23.000000 L 225.036621 14.642578 L 226.024902 14.642578 Z " fill="rgb(0, 0, 0)" fill-opacity="1.000000" />
<path d="M 247.878906 26.319336 L 247.878906 12.300781 L 248.738281 12.300781 L 248.738281 26.319336 Z " fill="rgb(0, 0, 0)" fill-opacity="1.000000" />
<path d="M 191.878906 13.319336 L 191.878906 6.412109 L 195.729980 6.412109 L 195.729980 7.335938 L 192.738281 7.335938 L 192.738281 13.319336 Z " fill="rgb(0, 0, 0)" fill-opacity="1.000000" />
<path d="M 195.892578 7.335938 L 195.892578 6.412109 L 202.729980 6.412109 L 202.729980 7.335938 Z " fill="rgb(0, 0, 0)" fill-opacity="1.000000" />
<path d="M 202.892578 7.335938 L 202.892578 6.412109 L 209.729980 6.412109 L 209.729980 7.335938 Z " fill="rgb(0, 0, 0)" fill-opacity="1.000000" />
<path d="M 209.892578 7.335938 L 209.892578 6.412109 L 216.729980 6.412109 L 216.729980 7.335938 Z " fill="rgb(0, 0, 0)" fill-opacity="1.000000" />
<path d="M 216.892578 7.335938 L 216.892578 6.412109 L 223.729980 6.412109 L 223.729980 7.335938 Z " fill="rgb(0, 0, 0)" fill-opacity="1.000000" />
<path d="M 223.892578 7.335938 L 223.892578 6.412109 L 230.729980 6.412109 L 230.729980 7.335938 Z " fill="rgb(0, 0, 0)" fill-opacity="1.000000" />
<path d="M 230.892578 7.335938 L 230.892578 6.412109 L 237.729980 6.412109 L 237.729980 7.335938 Z " fill="rgb(0, 0, 0)" fill-opacity="1.000000" />
<path d="M 237.892578 7.335938 L 237.892578 6.412109 L 244.729980 6.412109 L 244.729980 7.335938 Z " fill="rgb(0, 0, 0)" fill-opacity="1.000000" />
<path d="M 247.878906 13.319336 L 247.878906 7.335938 L 244.892578 7.335938 L 244.892578 6.412109 L 248.738281 6.412109 L 248.738281 13.319336 Z " fill="rgb(0, 0, 0)" fill-opacity="1.000000" />
</svg>