<svg xmlns="http://www.w3.org/2000/svg" version="1.1" width="414" height="170">
<path d="M 8.450195 35.092285 L 10.136719 35.092285 L 10.136719 29.033691 L 8.117188 30.005859 L 8.117188 28.963867 L 10.125977 28.007812 L 11.210938 28.007812 L 11.210938 35.092285 L 12.875977 35.092285 L 12.875977 36.000000 L 8.450195 36.000000 Z " fill="rgb(0, 0, 0)" fill-opacity="1.000000" />
<path d="M 9.003418 87.086914 L 12.687988 87.086914 L 12.687988 88.000000 L 7.816406 88.000000 L 7.816406 87.086914 Q 8.820801 86.028809 9.572754 85.217773 Q 10.324707 84.406738 10.609375 84.073730 Q 11.146484 83.418457 11.334473 83.012939 Q 11.522461 82.607422 11.522461 82.183105 Q 11.522461 81.511719 11.127686 81.130371 Q 10.732910 80.749023 10.045410 80.749023 Q 9.556641 80.749023 9.019531 80.926270 Q 8.482422 81.103516 7.880859 81.463379 L 7.880859 80.367676 Q 8.434082 80.104492 8.968506 79.970215 Q 9.502930 79.835938 10.023926 79.835938 Q 11.200195 79.835938 11.917236 80.461670 Q 12.634277 81.087402 12.634277 82.102539 Q 12.634277 82.618164 12.395264 83.133789 Q 12.156250 83.649414 11.619141 84.272461 Q 11.318359 84.621582 10.746338 85.239258 Q 10.174316 85.856934 9.003418 87.086914 Z " fill="rgb(0, 0, 0)" fill-opacity="1.000000" />
<path d="M 11.167969 135.708496 Q 11.957520 135.917969 12.376465 136.452393 Q 12.795410 136.986816 12.795410 137.787109 Q 12.795410 138.893555 12.051514 139.524658 Q 11.307617 140.155762 9.991699 140.155762 Q 9.438477 140.155762 8.863770 140.053711 Q 8.289062 139.951660 7.735840 139.758301 L 7.735840 138.678711 Q 8.283691 138.963379 8.815430 139.103027 Q 9.347168 139.242676 9.873535 139.242676 Q 10.765137 139.242676 11.243164 138.839844 Q 11.721191 138.437012 11.721191 137.679688 Q 11.721191 136.981445 11.243164 136.570557 Q 10.765137 136.159668 9.948730 136.159668 L 9.121582 136.159668 L 9.121582 135.268066 L 9.948730 135.268066 Q 10.695312 135.268066 11.114258 134.940430 Q 11.533203 134.612793 11.533203 134.027344 Q 11.533203 133.409668 11.143799 133.079346 Q 10.754395 132.749023 10.034668 132.749023 Q 9.556641 132.749023 9.046387 132.856445 Q 8.536133 132.963867 7.977539 133.178711 L 7.977539 132.179688 Q 8.627441 132.007812 9.135010 131.921875 Q 9.642578 131.835938 10.034668 131.835938 Q 11.205566 131.835938 11.906494 132.424072 Q 12.607422 133.012207 12.607422 133.984375 Q 12.607422 134.645020 12.239502 135.085449 Q 11.871582 135.525879 11.167969 135.708496 Z " fill="rgb(0, 0, 0)" fill-opacity="1.000000" />
<path d="M 44.878906 150.335938 L 44.878906 142.300781 L 45.738281 142.300781 L 45.738281 149.412109 L 48.729980 149.412109 L 48.729980 150.335938 Z " fill="rgb(0, 0, 0)" fill-opacity="1.000000" />
<path d="M 48.892578 150.335938 L 48.892578 149.412109 L 55.729980 149.412109 L 55.729980 150.335938 Z " fill="rgb(0, 0, 0)" fill-opacity="1.000000" />
<path d="M 55.892578 150.335938 L 55.892578 149.412109 L 62.729980 149.412109 L 62.729980 150.335938 Z " fill="rgb(0, 0, 0)" fill-opacity="1.000000" />
<path d="M 62.892578 150.335938 L 62.892578 149.412109 L 69.729980 149.412109 L 69.729980 150.335938 Z " fill="rgb(0, 0, 0)" fill-opacity="1.000000" />
<path d="M 69.892578 150.335938 L 69.892578 149.412109 L 76.729980 149.412109 L 76.729980 150.335938 Z " fill="rgb(0, 0, 0)" fill-opacity="1.000000" />
<path d="M 76.892578 150.335938 L 76.892578 149.412109 L 83.729980 149.412109 L 83.729980 150.335938 Z " fill="rgb(0, 0, 0)" fill-opacity="1.000000" />
<path d="M 83.892578 150.335938 L 83.892578 149.412109 L 90.729980 149.412109 L 90.729980 150.335938 Z " fill="rgb(0, 0, 0)" fill-opacity="1.000000" />
<path d="M 90.892578 150.335938 L 90.892578 149.412109 L 97.729980 149.412109 L 97.729980 150.335938 Z " fill="rgb(0, 0, 0)" fill-opacity="1.000000" />
<path d="M 97.892578 150.335938 L 97.892578 149.412109 L 100.878906 149.412109 L 100.878906 142.300781 L 101.738281 142.300781 L 101.738281 150.335938 Z " fill="rgb(0, 0, 0)" fill-opacity="1.000000" />
<path d="M 156.878906 150.335938 L 156.878906 142.300781 L 157.738281 142.300781 L 157.738281 149.412109 L 160.729980 149.412109 L 160.729980 150.335938 Z " fill="rgb(0, 0, 0)" fill-opacity="1.000000" />
<path d="M 160.892578 150.335938 L 160.892578 149.412109 L 167.729980 149.412109 L 167.729980 150.335938 Z " fill="rgb(0, 0, 0)" fill-opacity="1.000000" />
<path d="M 167.892578 150.335938 L 167.892578 149.412109 L 174.729980 149.412109 L 174.729980 150.335938 Z " fill="rgb(0, 0, 0)" fill-opacity="1.000000" />
<path d="M 174.892578 150.335938 L 174.892578 149.412109 L 181.729980 149.412109 L 181.729980 150.335938 Z " fill="rgb(0, 0, 0)" fill-opacity="1.000000" />
<path d="M 181.892578 150.335938 L 181.892578 149.412109 L 188.729980 149.412109 L 188.729980 150.335938 Z " fill="rgb(0, 0, 0)" fill-opacity="1.000000" />
<path d="M 188.892578 150.335938 L 188.892578 149.412109 L 195.729980 149.412109 L 195.729980 150.335938 Z " fill="rgb(0, 0, 0)" fill-opacity="1.000000" />
<path d="M 195.892578 150.335938 L 195.892578 149.412109 L 202.729980 149.412109 L 202.729980 150.335938 Z " fill="rgb(0, 0, 0)" fill-opacity="1.000000" />
<path d="M 202.892578 150.335938 L 202.892578 149.412109 L 209.729980 149.412109 L 209.729980 150.335938 Z " fill="rgb(0, 0, 0)" fill-opacity="1.000000" />
<path d="M 209.892578 150.335938 L 209.892578 149.412109 L 212.878906 149.412109 L 212.878906 142.300781 L 213.738281 142.300781 L 213.738281 150.335938 Z " fill="rgb(0, 0, 0)" fill-opacity="1.000000" />
<path d="M 240.878906 150.335938 L 240.878906 142.300781 L 241.738281 142.300781 L 241.738281 149.412109 L 244.729980 149.412109 L 244.729980 150.335938 Z " fill="rgb(0, 0, 0)" fill-opacity="1.000000" />
<path d="M 244.892578 150.335938 L 244.892578 149.412109 L 251.729980 149.412109 L 251.729980 150.335938 Z " fill="rgb(0, 0, 0)" fill-opacity="1.000000" />
<path d="M 251.892578 150.335938 L 251.892578 149.412109 L 258.729980 149.412109 L 258.729980 150.335938 Z " fill="rgb(0, 0, 0)" fill-opacity="1.000000" />
<path d="M 258.892578 150.335938 L 258.892578 149.412109 L 265.729980 149.412109 L 265.729980 150.335938 Z " fill="rgb(0, 0, 0)" fill-opacity="1.000000" />
<path d="M 265.892578 150.335938 L 265.892578 149.412109 L 272.729980 149.412109 L 272.729980 150.335938 Z " fill="rgb(0, 0, 0)" fill-opacity="1.000000" />
<path d="M 272.892578 150.335938 L 272.892578 149.412109 L 279.729980 149.412109 L 279.729980 150.335938 Z " fill="rgb(0, 0, 0)" fill-opacity="1.000000" />
<path d="M 279.892578 150.335938 L 279.892578 149.412109 L 286.729980 149.412109 L 286.729980 150.335938 Z " fill="rgb(0, 0, 0)" fill-opacity="1.000000" />
<path d="M 286.892578 150.335938 L 286.892578 149.412109 L 293.729980 149.412109 L 293.729980 150.335938 Z " fill="rgb(0, 0, 0)" fill-opacity="1.000000" />
<path d="M 293.892578 150.335938 L 293.892578 149.412109 L 296.878906 149.412109 L 296.878906 142.300781 L 297.738281 142.300781 L 297.738281 150.335938 Z " fill="rgb(0, 0, 0)" fill-opacity="1.000000" />
<path d="M 352.878906 150.335938 L 352.878906 142.300781 L 353.738281 142.300781 L 353.738281 149.412109 L 356.729980 149.412109 L 356.729980 150.335938 Z " fill="rgb(0, 0, 0)" fill-opacity="1.000000" />
<path d="M 356.892578 150.335938 L 356.892578 149.412109 L 363.729980 149.412109 L 363.729980 150.335938 Z " fill="rgb(0, 0, 0)" fill-opacity="1.000000" />
<path d="M 363.892578 150.335938 L 363.892578 149.412109 L 370.729980 149.412109 L 370.729980 150.335938 Z " fill="rgb(0, 0, 0)" fill-opacity="1.000000" />
<path d="M 370.892578 150.335938 L 370.892578 149.412109 L 377.729980 149.412109 L 377.729980 150.335938 Z " fill="rgb(0, 0, 0)" fill-opacity="1.000000" />
<path d="M 377.892578 150.335938 L 377.892578 149.412109 L 384.729980 149.412109 L 384.729980 150.335938 Z " fill="rgb(0, 0, 0)" fill-opacity="1.000000" />
<path d="M 384.892578 150.335938 L 384.892578 149.412109 L 391.729980 149.412109 L 391.729980 150.335938 Z " fill="rgb(0, 0, 0)" fill-opacity="1.000000" />
<path d="M 391.892578 150.335938 L 391.892578 149.412109 L 398.729980 149.412109 L 398.729980 150.335938 Z " fill="rgb(0, 0, 0)" fill-opacity="1.000000" />
<path d="M 398.892578 150.335938 L 398.892578 149.412109 L 405.729980 149.412109 L 405.729980 150.335938 Z " fill="rgb(0, 0, 0)" fill-opacity="1.000000" />
<path d="M 405.892578 150.335938 L 405.892578 149.412109 L 408.878906 149.412109 L 408.878906 142.300781 L 409.738281 142.300781 L 409.738281 150.335938 Z " fill="rgb(0, 0, 0)" fill-opacity="1.000000" />
<path d="M 44.878906 143.319336 L 44.878906 129.300781 L 45.738281 129.300781 L 45.738281 143.319336 Z " fill="rgb(0, 0, 0)" fill-opacity="1.000000" />
<path d="M 73.947754 132.969238 L 71.417969 137.207031 L 73.947754 137.207031 Z M 73.770508 131.980957 L 75.027344 131.980957 L 75.027344 137.207031 L 76.096191 137.207031 L 76.096191 138.087891 L 75.027344 138.087891 L 75.027344 140.000000 L 73.947754 140.000000 L 73.947754 138.087891 L 70.547852 138.087891 L 70.547852 137.062012 Z " fill="rgb(0, 0, 0)" fill-opacity="1.000000" />
<path d="M 100.878906 143.319336 L 100.878906 129.300781 L 101.738281 129.300781 L 101.738281 143.319336 Z " fill="rgb(0, 0, 0)" fill-opacity="1.000000" />
<path d="M 105.032227 137.142578 L 111.590332 133.866211 L 111.590332 140.418945 Z " fill="rgb(0, 0, 0)" fill-opacity="1.000000" />
<path d="M 111.892578 137.335938 L 111.892578 136.412109 L 118.729980 136.412109 L 118.729980 137.335938 Z " fill="rgb(0, 0, 0)" fill-opacity="1.000000" />
<path d="M 118.892578 137.335938 L 118.892578 136.412109 L 125.729980 136.412109 L 125.729980 137.335938 Z " fill="rgb(0, 0, 0)" fill-opacity="1.000000" />
<path d="M 125.892578 137.335938 L 125.892578 136.412109 L 128.878906 136.412109 L 128.878906 129.300781 L 129.738281 129.300781 L 129.738281 136.412109 L 132.729980 136.412109 L 132.729980 137.335938 Z " fill="rgb(0, 0, 0)" fill-opacity="1.000000" />
<path d="M 132.892578 137.335938 L 132.892578 136.412109 L 139.729980 136.412109 L 139.729980 137.335938 Z " fill="rgb(0, 0, 0)" fill-opacity="1.000000" />
<path d="M 139.892578 137.335938 L 139.892578 136.412109 L 146.729980 136.412109 L 146.729980 137.335938 Z " fill="rgb(0, 0, 0)" fill-opacity="1.000000" />
<path d="M 147.032227 140.418945 L 147.032227 133.866211 L 153.590332 137.142578 Z " fill="rgb(0, 0, 0)" fill-opacity="1.000000" />
<path d="M 156.878906 143.319336 L 156.878906 129.300781 L 157.738281 129.300781 L 157.738281 143.319336 Z " fill="rgb(0, 0, 0)" fill-opacity="1.000000" />
<path d="M 183.111816 131.980957 L 187.172363 131.980957 L 187.172363 132.894043 L 184.100098 132.894043 L 184.100098 134.865234 Q 184.331055 134.779297 184.564697 134.739014 Q 184.798340 134.698730 185.034668 134.698730 Q 186.280762 134.698730 187.011230 135.434570 Q 187.741699 136.170410 187.741699 137.427246 Q 187.741699 138.694824 186.976318 139.425293 Q 186.210938 140.155762 184.884277 140.155762 Q 184.245117 140.155762 183.716064 140.069824 Q 183.187012 139.983887 182.768066 139.812012 L 182.768066 138.710938 Q 183.262207 138.979492 183.761719 139.111084 Q 184.261230 139.242676 184.782227 139.242676 Q 185.679199 139.242676 186.165283 138.770020 Q 186.651367 138.297363 186.651367 137.427246 Q 186.651367 136.567871 186.149170 136.089844 Q 185.646973 135.611816 184.750000 135.611816 Q 184.314941 135.611816 183.901367 135.711182 Q 183.487793 135.810547 183.111816 136.009277 Z " fill="rgb(0, 0, 0)" fill-opacity="1.000000" />
<path d="M 212.878906 143.319336 L 212.878906 129.300781 L 213.738281 129.300781 L 213.738281 143.319336 Z " fill="rgb(0, 0, 0)" fill-opacity="1.000000" />
<path d="M 240.878906 143.319336 L 240.878906 129.300781 L 241.738281 129.300781 L 241.738281 143.319336 Z " fill="rgb(0, 0, 0)" fill-opacity="1.000000" />
<path d="M 271.322754 132.158203 L 271.322754 133.157227 Q 270.984375 132.958496 270.603027 132.853760 Q 270.221680 132.749023 269.808105 132.749023 Q 268.776855 132.749023 268.245117 133.525146 Q 267.713379 134.301270 267.713379 135.810547 Q 267.971191 135.273438 268.427734 134.986084 Q 268.884277 134.698730 269.475098 134.698730 Q 270.635254 134.698730 271.271729 135.410400 Q 271.908203 136.122070 271.908203 137.427246 Q 271.908203 138.727051 271.252930 139.441406 Q 270.597656 140.155762 269.410645 140.155762 Q 268.014160 140.155762 267.364258 139.154053 Q 266.714355 138.152344 266.714355 135.998535 Q 266.714355 133.968262 267.495850 132.902100 Q 268.277344 131.835938 269.759766 131.835938 Q 270.157227 131.835938 270.554688 131.919189 Q 270.952148 132.002441 271.322754 132.158203 Z M 269.389160 135.547363 Q 268.696289 135.547363 268.298828 136.046875 Q 267.901367 136.546387 267.901367 137.427246 Q 267.901367 138.308105 268.298828 138.807617 Q 268.696289 139.307129 269.389160 139.307129 Q 270.108887 139.307129 270.474121 138.831787 Q 270.839355 138.356445 270.839355 137.427246 Q 270.839355 136.492676 270.474121 136.020020 Q 270.108887 135.547363 269.389160 135.547363 Z " fill="rgb(0, 0, 0)" fill-opacity="1.000000" />
<path d="M 296.878906 143.319336 L 296.878906 129.300781 L 297.738281 129.300781 L 297.738281 143.319336 Z " fill="rgb(0, 0, 0)" fill-opacity="1.000000" />
<path d="M 301.032227 137.142578 L 307.590332 133.866211 L 307.590332 140.418945 Z " fill="rgb(0, 0, 0)" fill-opacity="1.000000" />
<path d="M 307.892578 137.335938 L 307.892578 136.412109 L 314.729980 136.412109 L 314.729980 137.335938 Z " fill="rgb(0, 0, 0)" fill-opacity="1.000000" />
<path d="M 314.892578 137.335938 L 314.892578 136.412109 L 321.729980 136.412109 L 321.729980 137.335938 Z " fill="rgb(0, 0, 0)" fill-opacity="1.000000" />
<path d="M 321.892578 137.335938 L 321.892578 136.412109 L 324.878906 136.412109 L 324.878906 129.300781 L 325.738281 129.300781 L 325.738281 136.412109 L 328.729980 136.412109 L 328.729980 137.335938 Z " fill="rgb(0, 0, 0)" fill-opacity="1.000000" />
<path d="M 328.892578 137.335938 L 328.892578 136.412109 L 335.729980 136.412109 L 335.729980 137.335938 Z " fill="rgb(0, 0, 0)" fill-opacity="1.000000" />
<path d="M 335.892578 137.335938 L 335.892578 136.412109 L 342.729980 136.412109 L 342.729980 137.335938 Z " fill="rgb(0, 0, 0)" fill-opacity="1.000000" />
<path d="M 343.032227 140.418945 L 343.032227 133.866211 L 349.590332 137.142578 Z " fill="rgb(0, 0, 0)" fill-opacity="1.000000" />
<path d="M 352.878906 143.319336 L 352.878906 129.300781 L 353.738281 129.300781 L 353.738281 143.319336 Z " fill="rgb(0, 0, 0)" fill-opacity="1.000000" />
<path d="M 378.746582 131.980957 L 383.795410 131.980957 L 383.795410 132.442871 L 380.927246 140.000000 L 379.793945 140.000000 L 382.586914 132.894043 L 378.746582 132.894043 Z " fill="rgb(0, 0, 0)" fill-opacity="1.000000" />
<path d="M 408.878906 143.319336 L 408.878906 129.300781 L 409.738281 129.300781 L 409.738281 143.319336 Z " fill="rgb(0, 0, 0)" fill-opacity="1.000000" />
<path d="M 44.878906 130.319336 L 44.878906 123.412109 L 48.729980 123.412109 L 48.729980 124.335938 L 45.738281 124.335938 L 45.738281 130.319336 Z " fill="rgb(0, 0, 0)" fill-opacity="1.000000" />
<path d="M 48.892578 124.335938 L 48.892578 123.412109 L 55.729980 123.412109 L 55.729980 124.335938 Z " fill="rgb(0, 0, 0)" fill-opacity="1.000000" />
<path d="M 55.892578 124.335938 L 55.892578 123.412109 L 62.729980 123.412109 L 62.729980 124.335938 Z " fill="rgb(0, 0, 0)" fill-opacity="1.000000" />
<path d="M 62.892578 124.335938 L 62.892578 123.412109 L 69.729980 123.412109 L 69.729980 124.335938 Z " fill="rgb(0, 0, 0)" fill-opacity="1.000000" />
<path d="M 69.892578 124.335938 L 69.892578 123.412109 L 76.729980 123.412109 L 76.729980 124.335938 Z " fill="rgb(0, 0, 0)" fill-opacity="1.000000" />
<path d="M 76.892578 124.335938 L 76.892578 123.412109 L 83.729980 123.412109 L 83.729980 124.335938 Z " fill="rgb(0, 0, 0)" fill-opacity="1.000000" />
<path d="M 83.892578 124.335938 L 83.892578 123.412109 L 90.729980 123.412109 L 90.729980 124.335938 Z " fill="rgb(0, 0, 0)" fill-opacity="1.000000" />
<path d="M 90.892578 124.335938 L 90.892578 123.412109 L 97.729980 123.412109 L 97.729980 124.335938 Z " fill="rgb(0, 0, 0)" fill-opacity="1.000000" />
<path d="M 100.878906 130.319336 L 100.878906 124.335938 L 97.892578 124.335938 L 97.892578 123.412109 L 101.738281 123.412109 L 101.738281 130.319336 Z " fill="rgb(0, 0, 0)" fill-opacity="1.000000" />
<path d="M 128.878906 130.319336 L 128.878906 116.300781 L 129.738281 116.300781 L 129.738281 130.319336 Z " fill="rgb(0, 0, 0)" fill-opacity="1.000000" />
<path d="M 156.878906 130.319336 L 156.878906 123.412109 L 160.729980 123.412109 L 160.729980 124.335938 L 157.738281 124.335938 L 157.738281 130.319336 Z " fill="rgb(0, 0, 0)" fill-opacity="1.000000" />
<path d="M 160.892578 124.335938 L 160.892578 123.412109 L 167.729980 123.412109 L 167.729980 124.335938 Z " fill="rgb(0, 0, 0)" fill-opacity="1.000000" />
<path d="M 167.892578 124.335938 L 167.892578 123.412109 L 174.729980 123.412109 L 174.729980 124.335938 Z " fill="rgb(0, 0, 0)" fill-opacity="1.000000" />
<path d="M 174.892578 124.335938 L 174.892578 123.412109 L 181.729980 123.412109 L 181.729980 124.335938 Z " fill="rgb(0, 0, 0)" fill-opacity="1.000000" />
<path d="M 181.892578 124.335938 L 181.892578 123.412109 L 188.729980 123.412109 L 188.729980 124.335938 Z " fill="rgb(0, 0, 0)" fill-opacity="1.000000" />
<path d="M 188.892578 124.335938 L 188.892578 123.412109 L 195.729980 123.412109 L 195.729980 124.335938 Z " fill="rgb(0, 0, 0)" fill-opacity="1.000000" />
<path d="M 195.892578 124.335938 L 195.892578 123.412109 L 202.729980 123.412109 L 202.729980 124.335938 Z " fill="rgb(0, 0, 0)" fill-opacity="1.000000" />
<path d="M 202.892578 124.335938 L 202.892578 123.412109 L 209.729980 123.412109 L 209.729980 124.335938 Z " fill="rgb(0, 0, 0)" fill-opacity="1.000000" />
<path d="M 212.878906 130.319336 L 212.878906 124.335938 L 209.892578 124.335938 L 209.892578 123.412109 L 213.738281 123.412109 L 213.738281 130.319336 Z " fill="rgb(0, 0, 0)" fill-opacity="1.000000" />
<path d="M 240.878906 130.319336 L 240.878906 123.412109 L 244.729980 123.412109 L 244.729980 124.335938 L 241.738281 124.335938 L 241.738281 130.319336 Z " fill="rgb(0, 0, 0)" fill-opacity="1.000000" />
<path d="M 244.892578 124.335938 L 244.892578 123.412109 L 251.729980 123.412109 L 251.729980 124.335938 Z " fill="rgb(0, 0, 0)" fill-opacity="1.000000" />
<path d="M 251.892578 124.335938 L 251.892578 123.412109 L 258.729980 123.412109 L 258.729980 124.335938 Z " fill="rgb(0, 0, 0)" fill-opacity="1.000000" />
<path d="M 258.892578 124.335938 L 258.892578 123.412109 L 265.729980 123.412109 L 265.729980 124.335938 Z " fill="rgb(0, 0, 0)" fill-opacity="1.000000" />
<path d="M 265.892578 124.335938 L 265.892578 123.412109 L 272.729980 123.412109 L 272.729980 124.335938 Z " fill="rgb(0, 0, 0)" fill-opacity="1.000000" />
<path d="M 272.892578 124.335938 L 272.892578 123.412109 L 279.729980 123.412109 L 279.729980 124.335938 Z " fill="rgb(0, 0, 0)" fill-opacity="1.000000" />
<path d="M 279.892578 124.335938 L 279.892578 123.412109 L 286.729980 123.412109 L 286.729980 124.335938 Z " fill="rgb(0, 0, 0)" fill-opacity="1.000000" />
<path d="M 286.892578 124.335938 L 286.892578 123.412109 L 293.729980 123.412109 L 293.729980 124.335938 Z " fill="rgb(0, 0, 0)" fill-opacity="1.000000" />
<path d="M 296.878906 130.319336 L 296.878906 124.335938 L 293.892578 124.335938 L 293.892578 123.412109 L 297.738281 123.412109 L 297.738281 130.319336 Z " fill="rgb(0, 0, 0)" fill-opacity="1.000000" />
<path d="M 324.878906 130.319336 L 324.878906 116.300781 L 325.738281 116.300781 L 325.738281 130.319336 Z " fill="rgb(0, 0, 0)" fill-opacity="1.000000" />
<path d="M 352.878906 130.319336 L 352.878906 123.412109 L 356.729980 123.412109 L 356.729980 124.335938 L 353.738281 124.335938 L 353.738281 130.319336 Z " fill="rgb(0, 0, 0)" fill-opacity="1.000000" />
<path d="M 356.892578 124.335938 L 356.892578 123.412109 L 363.729980 123.412109 L 363.729980 124.335938 Z " fill="rgb(0, 0, 0)" fill-opacity="1.000000" />
<path d="M 363.892578 124.335938 L 363.892578 123.412109 L 370.729980 123.412109 L 370.729980 124.335938 Z " fill="rgb(0, 0, 0)" fill-opacity="1.000000" />
<path d="M 370.892578 124.335938 L 370.892578 123.412109 L 377.729980 123.412109 L 377.729980 124.335938 Z " fill="rgb(0, 0, 0)" fill-opacity="1.000000" />
<path d="M 377.892578 124.335938 L 377.892578 123.412109 L 384.729980 123.412109 L 384.729980 124.335938 Z " fill="rgb(0, 0, 0)" fill-opacity="1.000000" />
<path d="M 384.892578 124.335938 L 384.892578 123.412109 L 391.729980 123.412109 L 391.729980 124.335938 Z " fill="rgb(0, 0, 0)" fill-opacity="1.000000" />
<path d="M 391.892578 124.335938 L 391.892578 123.412109 L 398.729980 123.412109 L 398.729980 124.335938 Z " fill="rgb(0, 0, 0)" fill-opacity="1.000000" />
<path d="M 398.892578 124.335938 L 398.892578 123.412109 L 405.729980 123.412109 L 405.729980 124.335938 Z " fill="rgb(0, 0, 0)" fill-opacity="1.000000" />
<path d="M 408.878906 130.319336 L 408.878906 124.335938 L 405.892578 124.335938 L 405.892578 123.412109 L 409.738281 123.412109 L 409.738281 130.319336 Z " fill="rgb(0, 0, 0)" fill-opacity="1.000000" />
<path d="M 100.878906 98.335938 L 100.878906 90.300781 L 101.738281 90.300781 L 101.738281 97.412109 L 104.729980 97.412109 L 104.729980 98.335938 Z " fill="rgb(0, 0, 0)" fill-opacity="1.000000" />
<path d="M 128.878906 117.319336 L 128.878906 103.300781 L 129.738281 103.300781 L 129.738281 117.319336 Z " fill="rgb(0, 0, 0)" fill-opacity="1.000000" />
<path d="M 324.878906 117.319336 L 324.878906 103.300781 L 325.738281 103.300781 L 325.738281 117.319336 Z " fill="rgb(0, 0, 0)" fill-opacity="1.000000" />
<path d="M 104.892578 98.335938 L 104.892578 97.412109 L 111.729980 97.412109 L 111.729980 98.335938 Z " fill="rgb(0, 0, 0)" fill-opacity="1.000000" />
<path d="M 111.892578 98.335938 L 111.892578 97.412109 L 118.729980 97.412109 L 118.729980 98.335938 Z " fill="rgb(0, 0, 0)" fill-opacity="1.000000" />
<path d="M 118.892578 98.335938 L 118.892578 97.412109 L 125.729980 97.412109 L 125.729980 98.335938 Z " fill="rgb(0, 0, 0)" fill-opacity="1.000000" />
<path d="M 125.892578 98.335938 L 125.892578 97.412109 L 132.729980 97.412109 L 132.729980 98.335938 Z " fill="rgb(0, 0, 0)" fill-opacity="1.000000" />
<path d="M 132.892578 98.335938 L 132.892578 97.412109 L 139.729980 97.412109 L 139.729980 98.335938 Z " fill="rgb(0, 0, 0)" fill-opacity="1.000000" />
<path d="M 139.892578 98.335938 L 139.892578 97.412109 L 146.729980 97.412109 L 146.729980 98.335938 Z " fill="rgb(0, 0, 0)" fill-opacity="1.000000" />
<path d="M 146.892578 98.335938 L 146.892578 97.412109 L 153.729980 97.412109 L 153.729980 98.335938 Z " fill="rgb(0, 0, 0)" fill-opacity="1.000000" />
<path d="M 153.892578 98.335938 L 153.892578 97.412109 L 156.878906 97.412109 L 156.878906 90.300781 L 157.738281 90.300781 L 157.738281 98.335938 Z " fill="rgb(0, 0, 0)" fill-opacity="1.000000" />
<path d="M 296.878906 98.335938 L 296.878906 90.300781 L 297.738281 90.300781 L 297.738281 97.412109 L 300.729980 97.412109 L 300.729980 98.335938 Z " fill="rgb(0, 0, 0)" fill-opacity="1.000000" />
<path d="M 300.892578 98.335938 L 300.892578 97.412109 L 307.729980 97.412109 L 307.729980 98.335938 Z " fill="rgb(0, 0, 0)" fill-opacity="1.000000" />
<path d="M 307.892578 98.335938 L 307.892578 97.412109 L 314.729980 97.412109 L 314.729980 98.335938 Z " fill="rgb(0, 0, 0)" fill-opacity="1.000000" />
<path d="M 314.892578 98.335938 L 314.892578 97.412109 L 321.729980 97.412109 L 321.729980 98.335938 Z " fill="rgb(0, 0, 0)" fill-opacity="1.000000" />
<path d="M 321.892578 98.335938 L 321.892578 97.412109 L 328.729980 97.412109 L 328.729980 98.335938 Z " fill="rgb(0, 0, 0)" fill-opacity="1.000000" />
<path d="M 328.892578 98.335938 L 328.892578 97.412109 L 335.729980 97.412109 L 335.729980 98.335938 Z " fill="rgb(0, 0, 0)" fill-opacity="1.000000" />
<path d="M 335.892578 98.335938 L 335.892578 97.412109 L 342.729980 97.412109 L 342.729980 98.335938 Z " fill="rgb(0, 0, 0)" fill-opacity="1.000000" />
<path d="M 342.892578 98.335938 L 342.892578 97.412109 L 349.729980 97.412109 L 349.729980 98.335938 Z " fill="rgb(0, 0, 0)" fill-opacity="1.000000" />
<path d="M 349.892578 98.335938 L 349.892578 97.412109 L 352.878906 97.412109 L 352.878906 90.300781 L 353.738281 90.300781 L 353.738281 98.335938 Z " fill="rgb(0, 0, 0)" fill-opacity="1.000000" />
<path d="M 100.878906 91.319336 L 100.878906 77.300781 L 101.738281 77.300781 L 101.738281 91.319336 Z " fill="rgb(0, 0, 0)" fill-opacity="1.000000" />
<path d="M 128.003418 87.086914 L 131.687988 87.086914 L 131.687988 88.000000 L 126.816406 88.000000 L 126.816406 87.086914 Q 127.820801 86.028809 128.572754 85.217773 Q 129.324707 84.406738 129.609375 84.073730 Q 130.146484 83.418457 130.334473 83.012939 Q 130.522461 82.607422 130.522461 82.183105 Q 130.522461 81.511719 130.127686 81.130371 Q 129.732910 80.749023 129.045410 80.749023 Q 128.556641 80.749023 128.019531 80.926270 Q 127.482422 81.103516 126.880859 81.463379 L 126.880859 80.367676 Q 127.434082 80.104492 127.968506 79.970215 Q 128.502930 79.835938 129.023926 79.835938 Q 130.200195 79.835938 130.917236 80.461670 Q 131.634277 81.087402 131.634277 82.102539 Q 131.634277 82.618164 131.395264 83.133789 Q 131.156250 83.649414 130.619141 84.272461 Q 130.318359 84.621582 129.746338 85.239258 Q 129.174316 85.856934 128.003418 87.086914 Z " fill="rgb(0, 0, 0)" fill-opacity="1.000000" />
<path d="M 156.878906 91.319336 L 156.878906 77.300781 L 157.738281 77.300781 L 157.738281 91.319336 Z " fill="rgb(0, 0, 0)" fill-opacity="1.000000" />
<path d="M 161.032227 85.142578 L 167.590332 81.866211 L 167.590332 88.418945 Z " fill="rgb(0, 0, 0)" fill-opacity="1.000000" />
<path d="M 167.892578 85.335938 L 167.892578 84.412109 L 174.729980 84.412109 L 174.729980 85.335938 Z " fill="rgb(0, 0, 0)" fill-opacity="1.000000" />
<path d="M 174.892578 85.335938 L 174.892578 84.412109 L 181.729980 84.412109 L 181.729980 85.335938 Z " fill="rgb(0, 0, 0)" fill-opacity="1.000000" />
<path d="M 181.892578 85.335938 L 181.892578 84.412109 L 188.729980 84.412109 L 188.729980 85.335938 Z " fill="rgb(0, 0, 0)" fill-opacity="1.000000" />
<path d="M 188.892578 85.335938 L 188.892578 84.412109 L 195.729980 84.412109 L 195.729980 85.335938 Z " fill="rgb(0, 0, 0)" fill-opacity="1.000000" />
<path d="M 195.892578 85.335938 L 195.892578 84.412109 L 202.729980 84.412109 L 202.729980 85.335938 Z " fill="rgb(0, 0, 0)" fill-opacity="1.000000" />
<path d="M 202.892578 85.335938 L 202.892578 84.412109 L 209.729980 84.412109 L 209.729980 85.335938 Z " fill="rgb(0, 0, 0)" fill-opacity="1.000000" />
<path d="M 209.892578 85.335938 L 209.892578 84.412109 L 216.729980 84.412109 L 216.729980 85.335938 Z " fill="rgb(0, 0, 0)" fill-opacity="1.000000" />
<path d="M 216.892578 85.335938 L 216.892578 84.412109 L 223.729980 84.412109 L 223.729980 85.335938 Z " fill="rgb(0, 0, 0)" fill-opacity="1.000000" />
<path d="M 223.892578 85.335938 L 223.892578 84.412109 L 226.878906 84.412109 L 226.878906 77.300781 L 227.738281 77.300781 L 227.738281 84.412109 L 230.729980 84.412109 L 230.729980 85.335938 Z " fill="rgb(0, 0, 0)" fill-opacity="1.000000" />
<path d="M 230.892578 85.335938 L 230.892578 84.412109 L 237.729980 84.412109 L 237.729980 85.335938 Z " fill="rgb(0, 0, 0)" fill-opacity="1.000000" />
<path d="M 237.892578 85.335938 L 237.892578 84.412109 L 244.729980 84.412109 L 244.729980 85.335938 Z " fill="rgb(0, 0, 0)" fill-opacity="1.000000" />
<path d="M 244.892578 85.335938 L 244.892578 84.412109 L 251.729980 84.412109 L 251.729980 85.335938 Z " fill="rgb(0, 0, 0)" fill-opacity="1.000000" />
<path d="M 251.892578 85.335938 L 251.892578 84.412109 L 258.729980 84.412109 L 258.729980 85.335938 Z " fill="rgb(0, 0, 0)" fill-opacity="1.000000" />
<path d="M 258.892578 85.335938 L 258.892578 84.412109 L 265.729980 84.412109 L 265.729980 85.335938 Z " fill="rgb(0, 0, 0)" fill-opacity="1.000000" />
<path d="M 265.892578 85.335938 L 265.892578 84.412109 L 272.729980 84.412109 L 272.729980 85.335938 Z " fill="rgb(0, 0, 0)" fill-opacity="1.000000" />
<path d="M 272.892578 85.335938 L 272.892578 84.412109 L 279.729980 84.412109 L 279.729980 85.335938 Z " fill="rgb(0, 0, 0)" fill-opacity="1.000000" />
<path d="M 279.892578 85.335938 L 279.892578 84.412109 L 286.729980 84.412109 L 286.729980 85.335938 Z " fill="rgb(0, 0, 0)" fill-opacity="1.000000" />
<path d="M 287.032227 88.418945 L 287.032227 81.866211 L 293.590332 85.142578 Z " fill="rgb(0, 0, 0)" fill-opacity="1.000000" />
<path d="M 296.878906 91.319336 L 296.878906 77.300781 L 297.738281 77.300781 L 297.738281 91.319336 Z " fill="rgb(0, 0, 0)" fill-opacity="1.000000" />
<path d="M 326.167969 83.708496 Q 326.957520 83.917969 327.376465 84.452393 Q 327.795410 84.986816 327.795410 85.787109 Q 327.795410 86.893555 327.051514 87.524658 Q 326.307617 88.155762 324.991699 88.155762 Q 324.438477 88.155762 323.863770 88.053711 Q 323.289062 87.951660 322.735840 87.758301 L 322.735840 86.678711 Q 323.283691 86.963379 323.815430 87.103027 Q 324.347168 87.242676 324.873535 87.242676 Q 325.765137 87.242676 326.243164 86.839844 Q 326.721191 86.437012 326.721191 85.679688 Q 326.721191 84.981445 326.243164 84.570557 Q 325.765137 84.159668 324.948730 84.159668 L 324.121582 84.159668 L 324.121582 83.268066 L 324.948730 83.268066 Q 325.695312 83.268066 326.114258 82.940430 Q 326.533203 82.612793 326.533203 82.027344 Q 326.533203 81.409668 326.143799 81.079346 Q 325.754395 80.749023 325.034668 80.749023 Q 324.556641 80.749023 324.046387 80.856445 Q 323.536133 80.963867 322.977539 81.178711 L 322.977539 80.179688 Q 323.627441 80.007812 324.135010 79.921875 Q 324.642578 79.835938 325.034668 79.835938 Q 326.205566 79.835938 326.906494 80.424072 Q 327.607422 81.012207 327.607422 81.984375 Q 327.607422 82.645020 327.239502 83.085449 Q 326.871582 83.525879 326.167969 83.708496 Z " fill="rgb(0, 0, 0)" fill-opacity="1.000000" />
<path d="M 352.878906 91.319336 L 352.878906 77.300781 L 353.738281 77.300781 L 353.738281 91.319336 Z " fill="rgb(0, 0, 0)" fill-opacity="1.000000" />
<path d="M 100.878906 78.319336 L 100.878906 71.412109 L 104.729980 71.412109 L 104.729980 72.335938 L 101.738281 72.335938 L 101.738281 78.319336 Z " fill="rgb(0, 0, 0)" fill-opacity="1.000000" />
<path d="M 104.892578 72.335938 L 104.892578 71.412109 L 111.729980 71.412109 L 111.729980 72.335938 Z " fill="rgb(0, 0, 0)" fill-opacity="1.000000" />
<path d="M 111.892578 72.335938 L 111.892578 71.412109 L 118.729980 71.412109 L 118.729980 72.335938 Z " fill="rgb(0, 0, 0)" fill-opacity="1.000000" />
<path d="M 118.892578 72.335938 L 118.892578 71.412109 L 125.729980 71.412109 L 125.729980 72.335938 Z " fill="rgb(0, 0, 0)" fill-opacity="1.000000" />
<path d="M 125.892578 72.335938 L 125.892578 71.412109 L 132.729980 71.412109 L 132.729980 72.335938 Z " fill="rgb(0, 0, 0)" fill-opacity="1.000000" />
<path d="M 132.892578 72.335938 L 132.892578 71.412109 L 139.729980 71.412109 L 139.729980 72.335938 Z " fill="rgb(0, 0, 0)" fill-opacity="1.000000" />
<path d="M 139.892578 72.335938 L 139.892578 71.412109 L 146.729980 71.412109 L 146.729980 72.335938 Z " fill="rgb(0, 0, 0)" fill-opacity="1.000000" />
<path d="M 146.892578 72.335938 L 146.892578 71.412109 L 153.729980 71.412109 L 153.729980 72.335938 Z " fill="rgb(0, 0, 0)" fill-opacity="1.000000" />
<path d="M 156.878906 78.319336 L 156.878906 72.335938 L 153.892578 72.335938 L 153.892578 71.412109 L 157.738281 71.412109 L 157.738281 78.319336 Z " fill="rgb(0, 0, 0)" fill-opacity="1.000000" />
<path d="M 226.878906 78.319336 L 226.878906 64.300781 L 227.738281 64.300781 L 227.738281 78.319336 Z " fill="rgb(0, 0, 0)" fill-opacity="1.000000" />
<path d="M 296.878906 78.319336 L 296.878906 71.412109 L 300.729980 71.412109 L 300.729980 72.335938 L 297.738281 72.335938 L 297.738281 78.319336 Z " fill="rgb(0, 0, 0)" fill-opacity="1.000000" />
<path d="M 300.892578 72.335938 L 300.892578 71.412109 L 307.729980 71.412109 L 307.729980 72.335938 Z " fill="rgb(0, 0, 0)" fill-opacity="1.000000" />
<path d="M 307.892578 72.335938 L 307.892578 71.412109 L 314.729980 71.412109 L 314.729980 72.335938 Z " fill="rgb(0, 0, 0)" fill-opacity="1.000000" />
<path d="M 314.892578 72.335938 L 314.892578 71.412109 L 321.729980 71.412109 L 321.729980 72.335938 Z " fill="rgb(0, 0, 0)" fill-opacity="1.000000" />
<path d="M 321.892578 72.335938 L 321.892578 71.412109 L 328.729980 71.412109 L 328.729980 72.335938 Z " fill="rgb(0, 0, 0)" fill-opacity="1.000000" />
<path d="M 328.892578 72.335938 L 328.892578 71.412109 L 335.729980 71.412109 L 335.729980 72.335938 Z " fill="rgb(0, 0, 0)" fill-opacity="1.000000" />
<path d="M 335.892578 72.335938 L 335.892578 71.412109 L 342.729980 71.412109 L 342.729980 72.335938 Z " fill="rgb(0, 0, 0)" fill-opacity="1.000000" />
<path d="M 342.892578 72.335938 L 342.892578 71.412109 L 349.729980 71.412109 L 349.729980 72.335938 Z " fill="rgb(0, 0, 0)" fill-opacity="1.000000" />
<path d="M 352.878906 78.319336 L 352.878906 72.335938 L 349.892578 72.335938 L 349.892578 71.412109 L 353.738281 71.412109 L 353.738281 78.319336 Z " fill="rgb(0, 0, 0)" fill-opacity="1.000000" />
<path d="M 198.878906 46.335938 L 198.878906 38.300781 L 199.738281 38.300781 L 199.738281 45.412109 L 202.729980 45.412109 L 202.729980 46.335938 Z " fill="rgb(0, 0, 0)" fill-opacity="1.000000" />
<path d="M 226.878906 65.319336 L 226.878906 51.300781 L 227.738281 51.300781 L 227.738281 65.319336 Z " fill="rgb(0, 0, 0)" fill-opacity="1.000000" />
<path d="M 202.892578 46.335938 L 202.892578 45.412109 L 209.729980 45.412109 L 209.729980 46.335938 Z " fill="rgb(0, 0, 0)" fill-opacity="1.000000" />
<path d="M 209.892578 46.335938 L 209.892578 45.412109 L 216.729980 45.412109 L 216.729980 46.335938 Z " fill="rgb(0, 0, 0)" fill-opacity="1.000000" />
<path d="M 216.892578 46.335938 L 216.892578 45.412109 L 223.729980 45.412109 L 223.729980 46.335938 Z " fill="rgb(0, 0, 0)" fill-opacity="1.000000" />
<path d="M 223.892578 46.335938 L 223.892578 45.412109 L 230.729980 45.412109 L 230.729980 46.335938 Z " fill="rgb(0, 0, 0)" fill-opacity="1.000000" />
<path d="M 230.892578 46.335938 L 230.892578 45.412109 L 237.729980 45.412109 L 237.729980 46.335938 Z " fill="rgb(0, 0, 0)" fill-opacity="1.000000" />
<path d="M 237.892578 46.335938 L 237.892578 45.412109 L 244.729980 45.412109 L 244.729980 46.335938 Z " fill="rgb(0, 0, 0)" fill-opacity="1.000000" />
<path d="M 244.892578 46.335938 L 244.892578 45.412109 L 251.729980 45.412109 L 251.729980 46.335938 Z " fill="rgb(0, 0, 0)" fill-opacity="1.000000" />
<path d="M 251.892578 46.335938 L 251.892578 45.412109 L 254.878906 45.412109 L 254.878906 38.300781 L 255.738281 38.300781 L 255.738281 46.335938 Z " fill="rgb(0, 0, 0)" fill-opacity="1.000000" />
<path d="M 198.878906 39.319336 L 198.878906 25.300781 L 199.738281 25.300781 L 199.738281 39.319336 Z " fill="rgb(0, 0, 0)" fill-opacity="1.000000" />
<path d="M 225.450195 35.092285 L 227.136719 35.092285 L 227.136719 29.033691 L 225.117188 30.005859 L 225.117188 28.963867 L 227.125977 28.007812 L 228.210938 28.007812 L 228.210938 35.092285 L 229.875977 35.092285 L 229.875977 36.000000 L 225.450195 36.000000 Z " fill="rgb(0, 0, 0)" fill-opacity="1.000000" />
<path d="M 254.878906 39.319336 L 254.878906 25.300781 L 255.738281 25.300781 L 255.738281 39.319336 Z " fill="rgb(0, 0, 0)" fill-opacity="1.000000" />
<path d="M 198.878906 26.319336 L 198.878906 19.412109 L 202.729980 19.412109 L 202.729980 20.335938 L 199.738281 20.335938 L 199.738281 26.319336 Z " fill="rgb(0, 0, 0)" fill-opacity="1.000000" />
<path d="M 202.892578 20.335938 L 202.892578 19.412109 L 209.729980 19.412109 L 209.729980 20.335938 Z " fill="rgb(0, 0, 0)" fill-opacity="1.000000" />
<path d="M 209.892578 20.335938 L 209.892578 19.412109 L 216.729980 19.412109 L 216.729980 20.335938 Z " fill="rgb(0, 0, 0)" fill-opacity="1.000000" />
<path d="M 216.892578 20.335938 L 216.892578 19.412109 L 223.729980 19.412109 L 223.729980 20.335938 Z " fill="rgb(0, 0, 0)" fill-opacity="1.000000" />
<path d="M 223.892578 20.335938 L 223.892578 19.412109 L 230.729980 19.412109 L 230.729980 20.335938 Z " fill="rgb(0, 0, 0)" fill-opacity="1.000000" />
<path d="M 230.892578 20.335938 L 230.892578 19.412109 L 237.729980 19.412109 L 237.729980 20.335938 Z " fill="rgb(0, 0, 0)" fill-opacity="1.000000" />
<path d="M 237.892578 20.335938 L 237.892578 19.412109 L 244.729980 19.412109 L 244.729980 20.335938 Z " fill="rgb(0, 0, 0)" fill-opacity="1.000000" />
<path d="M 244.892578 20.335938 L 244.892578 19.412109 L 251.729980 19.412109 L 251.729980 20.335938 Z " fill="rgb(0, 0, 0)" fill-opacity="1.000000" />
<path d="M 254.878906 26.319336 L 254.878906 20.335938 L 251.892578 20.335938 L 251.892578 19.412109 L 255.738281 19.412109 L 255.738281 26.319336 Z " fill="rgb(0, 0, 0)" fill-opacity="1.000000" />
</svg>