<svg xmlns="http://www.w3.org/2000/svg" version="1.1" width="477" height="300">
<path d="M 16.089355 280.830078 L 17.979980 280.830078 L 17.979980 283.000000 L 16.089355 283.000000 Z " fill="rgb(0, 0, 0)" fill-opacity="1.000000" />
<path d="M 23.089355 280.830078 L 24.979980 280.830078 L 24.979980 283.000000 L 23.089355 283.000000 Z " fill="rgb(0, 0, 0)" fill-opacity="1.000000" />
<path d="M 30.089355 280.830078 L 31.979980 280.830078 L 31.979980 283.000000 L 30.089355 283.000000 Z " fill="rgb(0, 0, 0)" fill-opacity="1.000000" />
<path d="M 49.032227 280.142578 L 55.590332 276.866211 L 55.590332 283.418945 Z " fill="rgb(0, 0, 0)" fill-opacity="1.000000" />
<path d="M 55.892578 280.335938 L 55.892578 279.412109 L 62.729980 279.412109 L 62.729980 280.335938 Z " fill="rgb(0, 0, 0)" fill-opacity="1.000000" />
<path d="M 62.892578 280.335938 L 62.892578 279.412109 L 65.878906 279.412109 L 65.878906 272.300781 L 66.738281 272.300781 L 66.738281 280.335938 Z " fill="rgb(0, 0, 0)" fill-opacity="1.000000" />
<path d="M 401.878906 280.335938 L 401.878906 272.300781 L 402.738281 272.300781 L 402.738281 279.412109 L 405.729980 279.412109 L 405.729980 280.335938 Z " fill="rgb(0, 0, 0)" fill-opacity="1.000000" />
<path d="M 405.892578 280.335938 L 405.892578 279.412109 L 412.729980 279.412109 L 412.729980 280.335938 Z " fill="rgb(0, 0, 0)" fill-opacity="1.000000" />
<path d="M 412.892578 280.335938 L 412.892578 279.412109 L 419.729980 279.412109 L 419.729980 280.335938 Z " fill="rgb(0, 0, 0)" fill-opacity="1.000000" />
<path d="M 420.032227 283.418945 L 420.032227 276.866211 L 426.590332 280.142578 Z " fill="rgb(0, 0, 0)" fill-opacity="1.000000" />
<path d="M 443.089355 280.830078 L 444.979980 280.830078 L 444.979980 283.000000 L 443.089355 283.000000 Z " fill="rgb(0, 0, 0)" fill-opacity="1.000000" />
<path d="M 450.089355 280.830078 L 451.979980 280.830078 L 451.979980 283.000000 L 450.089355 283.000000 Z " fill="rgb(0, 0, 0)" fill-opacity="1.000000" />
<path d="M 457.089355 280.830078 L 458.979980 280.830078 L 458.979980 283.000000 L 457.089355 283.000000 Z " fill="rgb(0, 0, 0)" fill-opacity="1.000000" />
<path d="M 65.878906 273.319336 L 65.878906 259.300781 L 66.738281 259.300781 L 66.738281 273.319336 Z " fill="rgb(0, 0, 0)" fill-opacity="1.000000" />
<path d="M 401.878906 273.319336 L 401.878906 259.300781 L 402.738281 259.300781 L 402.738281 273.319336 Z " fill="rgb(0, 0, 0)" fill-opacity="1.000000" />
<path d="M 37.878906 221.319336 L 37.878906 214.412109 L 41.729980 214.412109 L 41.729980 215.335938 L 38.738281 215.335938 L 38.738281 221.319336 Z " fill="rgb(0, 0, 0)" fill-opacity="1.000000" />
<path d="M 37.878906 234.319336 L 37.878906 220.300781 L 38.738281 220.300781 L 38.738281 234.319336 Z " fill="rgb(0, 0, 0)" fill-opacity="1.000000" />
<path d="M 37.878906 241.335938 L 37.878906 233.300781 L 38.738281 233.300781 L 38.738281 240.412109 L 41.729980 240.412109 L 41.729980 241.335938 Z " fill="rgb(0, 0, 0)" fill-opacity="1.000000" />
<path d="M 65.878906 260.319336 L 65.878906 246.300781 L 66.738281 246.300781 L 66.738281 260.319336 Z " fill="rgb(0, 0, 0)" fill-opacity="1.000000" />
<path d="M 401.878906 260.319336 L 401.878906 246.300781 L 402.738281 246.300781 L 402.738281 260.319336 Z " fill="rgb(0, 0, 0)" fill-opacity="1.000000" />
<path d="M 41.892578 241.335938 L 41.892578 240.412109 L 48.729980 240.412109 L 48.729980 241.335938 Z " fill="rgb(0, 0, 0)" fill-opacity="1.000000" />
<path d="M 48.892578 241.335938 L 48.892578 240.412109 L 55.729980 240.412109 L 55.729980 241.335938 Z " fill="rgb(0, 0, 0)" fill-opacity="1.000000" />
<path d="M 55.892578 241.335938 L 55.892578 240.412109 L 62.729980 240.412109 L 62.729980 241.335938 Z " fill="rgb(0, 0, 0)" fill-opacity="1.000000" />
<path d="M 62.892578 241.335938 L 62.892578 240.412109 L 69.729980 240.412109 L 69.729980 241.335938 Z " fill="rgb(0, 0, 0)" fill-opacity="1.000000" />
<path d="M 69.892578 241.335938 L 69.892578 240.412109 L 76.729980 240.412109 L 76.729980 241.335938 Z " fill="rgb(0, 0, 0)" fill-opacity="1.000000" />
<path d="M 76.892578 241.335938 L 76.892578 240.412109 L 83.729980 240.412109 L 83.729980 241.335938 Z " fill="rgb(0, 0, 0)" fill-opacity="1.000000" />
<path d="M 83.892578 241.335938 L 83.892578 240.412109 L 90.729980 240.412109 L 90.729980 241.335938 Z " fill="rgb(0, 0, 0)" fill-opacity="1.000000" />
<path d="M 90.892578 241.335938 L 90.892578 240.412109 L 93.878906 240.412109 L 93.878906 233.300781 L 94.738281 233.300781 L 94.738281 241.335938 Z " fill="rgb(0, 0, 0)" fill-opacity="1.000000" />
<path d="M 135.878906 241.335938 L 135.878906 233.300781 L 136.738281 233.300781 L 136.738281 240.412109 L 139.729980 240.412109 L 139.729980 241.335938 Z " fill="rgb(0, 0, 0)" fill-opacity="1.000000" />
<path d="M 139.892578 241.335938 L 139.892578 240.412109 L 146.729980 240.412109 L 146.729980 241.335938 Z " fill="rgb(0, 0, 0)" fill-opacity="1.000000" />
<path d="M 146.892578 241.335938 L 146.892578 240.412109 L 153.729980 240.412109 L 153.729980 241.335938 Z " fill="rgb(0, 0, 0)" fill-opacity="1.000000" />
<path d="M 153.892578 241.335938 L 153.892578 240.412109 L 160.729980 240.412109 L 160.729980 241.335938 Z " fill="rgb(0, 0, 0)" fill-opacity="1.000000" />
<path d="M 160.892578 241.335938 L 160.892578 240.412109 L 167.729980 240.412109 L 167.729980 241.335938 Z " fill="rgb(0, 0, 0)" fill-opacity="1.000000" />
<path d="M 167.892578 241.335938 L 167.892578 240.412109 L 174.729980 240.412109 L 174.729980 241.335938 Z " fill="rgb(0, 0, 0)" fill-opacity="1.000000" />
<path d="M 174.892578 241.335938 L 174.892578 240.412109 L 181.729980 240.412109 L 181.729980 241.335938 Z " fill="rgb(0, 0, 0)" fill-opacity="1.000000" />
<path d="M 181.892578 241.335938 L 181.892578 240.412109 L 188.729980 240.412109 L 188.729980 241.335938 Z " fill="rgb(0, 0, 0)" fill-opacity="1.000000" />
<path d="M 188.892578 241.335938 L 188.892578 240.412109 L 191.878906 240.412109 L 191.878906 233.300781 L 192.738281 233.300781 L 192.738281 241.335938 Z " fill="rgb(0, 0, 0)" fill-opacity="1.000000" />
<path d="M 275.878906 241.335938 L 275.878906 233.300781 L 276.738281 233.300781 L 276.738281 240.412109 L 279.729980 240.412109 L 279.729980 241.335938 Z " fill="rgb(0, 0, 0)" fill-opacity="1.000000" />
<path d="M 279.892578 241.335938 L 279.892578 240.412109 L 286.729980 240.412109 L 286.729980 241.335938 Z " fill="rgb(0, 0, 0)" fill-opacity="1.000000" />
<path d="M 286.892578 241.335938 L 286.892578 240.412109 L 293.729980 240.412109 L 293.729980 241.335938 Z " fill="rgb(0, 0, 0)" fill-opacity="1.000000" />
<path d="M 293.892578 241.335938 L 293.892578 240.412109 L 300.729980 240.412109 L 300.729980 241.335938 Z " fill="rgb(0, 0, 0)" fill-opacity="1.000000" />
<path d="M 300.892578 241.335938 L 300.892578 240.412109 L 307.729980 240.412109 L 307.729980 241.335938 Z " fill="rgb(0, 0, 0)" fill-opacity="1.000000" />
<path d="M 307.892578 241.335938 L 307.892578 240.412109 L 314.729980 240.412109 L 314.729980 241.335938 Z " fill="rgb(0, 0, 0)" fill-opacity="1.000000" />
<path d="M 314.892578 241.335938 L 314.892578 240.412109 L 321.729980 240.412109 L 321.729980 241.335938 Z " fill="rgb(0, 0, 0)" fill-opacity="1.000000" />
<path d="M 321.892578 241.335938 L 321.892578 240.412109 L 328.729980 240.412109 L 328.729980 241.335938 Z " fill="rgb(0, 0, 0)" fill-opacity="1.000000" />
<path d="M 328.892578 241.335938 L 328.892578 240.412109 L 331.878906 240.412109 L 331.878906 233.300781 L 332.738281 233.300781 L 332.738281 241.335938 Z " fill="rgb(0, 0, 0)" fill-opacity="1.000000" />
<path d="M 373.878906 241.335938 L 373.878906 233.300781 L 374.738281 233.300781 L 374.738281 240.412109 L 377.729980 240.412109 L 377.729980 241.335938 Z " fill="rgb(0, 0, 0)" fill-opacity="1.000000" />
<path d="M 377.892578 241.335938 L 377.892578 240.412109 L 384.729980 240.412109 L 384.729980 241.335938 Z " fill="rgb(0, 0, 0)" fill-opacity="1.000000" />
<path d="M 384.892578 241.335938 L 384.892578 240.412109 L 391.729980 240.412109 L 391.729980 241.335938 Z " fill="rgb(0, 0, 0)" fill-opacity="1.000000" />
<path d="M 391.892578 241.335938 L 391.892578 240.412109 L 398.729980 240.412109 L 398.729980 241.335938 Z " fill="rgb(0, 0, 0)" fill-opacity="1.000000" />
<path d="M 398.892578 241.335938 L 398.892578 240.412109 L 405.729980 240.412109 L 405.729980 241.335938 Z " fill="rgb(0, 0, 0)" fill-opacity="1.000000" />
<path d="M 405.892578 241.335938 L 405.892578 240.412109 L 412.729980 240.412109 L 412.729980 241.335938 Z " fill="rgb(0, 0, 0)" fill-opacity="1.000000" />
<path d="M 412.892578 241.335938 L 412.892578 240.412109 L 419.729980 240.412109 L 419.729980 241.335938 Z " fill="rgb(0, 0, 0)" fill-opacity="1.000000" />
<path d="M 419.892578 241.335938 L 419.892578 240.412109 L 426.729980 240.412109 L 426.729980 241.335938 Z " fill="rgb(0, 0, 0)" fill-opacity="1.000000" />
<path d="M 426.892578 241.335938 L 426.892578 240.412109 L 429.878906 240.412109 L 429.878906 233.300781 L 430.738281 233.300781 L 430.738281 241.335938 Z " fill="rgb(0, 0, 0)" fill-opacity="1.000000" />
<path d="M 62.203613 226.225098 Q 61.886719 225.978027 61.559082 225.865234 Q 61.231445 225.752441 60.839355 225.752441 Q 59.915527 225.752441 59.426758 226.332520 Q 58.937988 226.912598 58.937988 228.008301 L 58.937988 231.000000 L 57.944336 231.000000 L 57.944336 224.984375 L 58.937988 224.984375 L 58.937988 226.160645 Q 59.185059 225.521484 59.697998 225.180420 Q 60.210938 224.839355 60.914551 224.839355 Q 61.279785 224.839355 61.596680 224.930664 Q 61.913574 225.021973 62.203613 225.215332 Z " fill="rgb(0, 0, 0)" fill-opacity="1.000000" />
<path d="M 64.047363 228.722656 L 64.047363 224.995117 L 65.035645 224.995117 L 65.035645 228.722656 Q 65.035645 229.533691 65.322998 229.915039 Q 65.610352 230.296387 66.211914 230.296387 Q 66.910156 230.296387 67.280762 229.804932 Q 67.651367 229.313477 67.651367 228.395020 L 67.651367 224.995117 L 68.645020 224.995117 L 68.645020 231.000000 L 67.651367 231.000000 L 67.651367 230.097656 Q 67.388184 230.618652 66.934326 230.887207 Q 66.480469 231.155762 65.873535 231.155762 Q 64.949707 231.155762 64.498535 230.551514 Q 64.047363 229.947266 64.047363 228.722656 Z " fill="rgb(0, 0, 0)" fill-opacity="1.000000" />
<path d="M 74.930664 227.997559 Q 74.930664 226.848145 74.565430 226.262695 Q 74.200195 225.677246 73.485840 225.677246 Q 72.766113 225.677246 72.395508 226.265381 Q 72.024902 226.853516 72.024902 227.997559 Q 72.024902 229.136230 72.395508 229.727051 Q 72.766113 230.317871 73.485840 230.317871 Q 74.200195 230.317871 74.565430 229.732422 Q 74.930664 229.146973 74.930664 227.997559 Z M 72.024902 225.752441 Q 72.261230 225.312012 72.677490 225.075684 Q 73.093750 224.839355 73.641602 224.839355 Q 74.726562 224.839355 75.349609 225.674561 Q 75.972656 226.509766 75.972656 227.976074 Q 75.972656 229.463867 75.346924 230.309814 Q 74.721191 231.155762 73.630859 231.155762 Q 73.093750 231.155762 72.682861 230.922119 Q 72.271973 230.688477 72.024902 230.242676 L 72.024902 231.000000 L 71.036621 231.000000 L 71.036621 222.642578 L 72.024902 222.642578 Z " fill="rgb(0, 0, 0)" fill-opacity="1.000000" />
<path d="M 93.878906 234.319336 L 93.878906 220.300781 L 94.738281 220.300781 L 94.738281 234.319336 Z " fill="rgb(0, 0, 0)" fill-opacity="1.000000" />
<path d="M 97.892578 228.335938 L 97.892578 227.412109 L 104.729980 227.412109 L 104.729980 228.335938 Z " fill="rgb(0, 0, 0)" fill-opacity="1.000000" />
<path d="M 104.892578 228.335938 L 104.892578 227.412109 L 111.729980 227.412109 L 111.729980 228.335938 Z " fill="rgb(0, 0, 0)" fill-opacity="1.000000" />
<path d="M 111.892578 228.335938 L 111.892578 227.412109 L 118.729980 227.412109 L 118.729980 228.335938 Z " fill="rgb(0, 0, 0)" fill-opacity="1.000000" />
<path d="M 118.892578 228.335938 L 118.892578 227.412109 L 125.729980 227.412109 L 125.729980 228.335938 Z " fill="rgb(0, 0, 0)" fill-opacity="1.000000" />
<path d="M 126.032227 231.418945 L 126.032227 224.866211 L 132.590332 228.142578 Z " fill="rgb(0, 0, 0)" fill-opacity="1.000000" />
<path d="M 135.878906 234.319336 L 135.878906 220.300781 L 136.738281 220.300781 L 136.738281 234.319336 Z " fill="rgb(0, 0, 0)" fill-opacity="1.000000" />
<path d="M 157.297852 223.276367 L 157.297852 224.984375 L 159.542969 224.984375 L 159.542969 225.752441 L 157.297852 225.752441 L 157.297852 229.018066 Q 157.297852 229.684082 157.550293 229.947266 Q 157.802734 230.210449 158.431152 230.210449 L 159.542969 230.210449 L 159.542969 231.000000 L 158.334473 231.000000 Q 157.222656 231.000000 156.766113 230.554199 Q 156.309570 230.108398 156.309570 229.018066 L 156.309570 225.752441 L 154.703613 225.752441 L 154.703613 224.984375 L 156.309570 224.984375 L 156.309570 223.276367 Z " fill="rgb(0, 0, 0)" fill-opacity="1.000000" />
<path d="M 162.047363 228.722656 L 162.047363 224.995117 L 163.035645 224.995117 L 163.035645 228.722656 Q 163.035645 229.533691 163.322998 229.915039 Q 163.610352 230.296387 164.211914 230.296387 Q 164.910156 230.296387 165.280762 229.804932 Q 165.651367 229.313477 165.651367 228.395020 L 165.651367 224.995117 L 166.645020 224.995117 L 166.645020 231.000000 L 165.651367 231.000000 L 165.651367 230.097656 Q 165.388184 230.618652 164.934326 230.887207 Q 164.480469 231.155762 163.873535 231.155762 Q 162.949707 231.155762 162.498535 230.551514 Q 162.047363 229.947266 162.047363 228.722656 Z " fill="rgb(0, 0, 0)" fill-opacity="1.000000" />
<path d="M 172.608398 227.943848 Q 172.608398 226.832031 172.245850 226.254639 Q 171.883301 225.677246 171.190430 225.677246 Q 170.465332 225.677246 170.083984 226.254639 Q 169.702637 226.832031 169.702637 227.943848 Q 169.702637 229.055664 170.086670 229.638428 Q 170.470703 230.221191 171.201172 230.221191 Q 171.883301 230.221191 172.245850 229.635742 Q 172.608398 229.050293 172.608398 227.943848 Z M 173.596680 230.613281 Q 173.596680 231.966797 172.957520 232.665039 Q 172.318359 233.363281 171.077637 233.363281 Q 170.669434 233.363281 170.223633 233.288086 Q 169.777832 233.212891 169.332031 233.067871 L 169.332031 232.090332 Q 169.858398 232.337402 170.288086 232.455566 Q 170.717773 232.573730 171.077637 232.573730 Q 171.877930 232.573730 172.243164 232.138672 Q 172.608398 231.703613 172.608398 230.758301 L 172.608398 230.715332 L 172.608398 230.043945 Q 172.372070 230.548828 171.963867 230.795898 Q 171.555664 231.042969 170.970215 231.042969 Q 169.917480 231.042969 169.289062 230.199707 Q 168.660645 229.356445 168.660645 227.943848 Q 168.660645 226.525879 169.289062 225.682617 Q 169.917480 224.839355 170.970215 224.839355 Q 171.550293 224.839355 171.953125 225.070312 Q 172.355957 225.301270 172.608398 225.784668 L 172.608398 225.005859 L 173.596680 225.005859 Z " fill="rgb(0, 0, 0)" fill-opacity="1.000000" />
<path d="M 191.878906 234.319336 L 191.878906 220.300781 L 192.738281 220.300781 L 192.738281 234.319336 Z " fill="rgb(0, 0, 0)" fill-opacity="1.000000" />
<path d="M 195.892578 228.335938 L 195.892578 227.412109 L 202.729980 227.412109 L 202.729980 228.335938 Z " fill="rgb(0, 0, 0)" fill-opacity="1.000000" />
<path d="M 202.892578 228.335938 L 202.892578 227.412109 L 209.729980 227.412109 L 209.729980 228.335938 Z " fill="rgb(0, 0, 0)" fill-opacity="1.000000" />
<path d="M 209.892578 228.335938 L 209.892578 227.412109 L 216.729980 227.412109 L 216.729980 228.335938 Z " fill="rgb(0, 0, 0)" fill-opacity="1.000000" />
<path d="M 216.892578 228.335938 L 216.892578 227.412109 L 223.729980 227.412109 L 223.729980 228.335938 Z " fill="rgb(0, 0, 0)" fill-opacity="1.000000" />
<path d="M 223.892578 228.335938 L 223.892578 227.412109 L 230.729980 227.412109 L 230.729980 228.335938 Z " fill="rgb(0, 0, 0)" fill-opacity="1.000000" />
<path d="M 230.892578 228.335938 L 230.892578 227.412109 L 237.729980 227.412109 L 237.729980 228.335938 Z " fill="rgb(0, 0, 0)" fill-opacity="1.000000" />
<path d="M 237.892578 228.335938 L 237.892578 227.412109 L 244.729980 227.412109 L 244.729980 228.335938 Z " fill="rgb(0, 0, 0)" fill-opacity="1.000000" />
<path d="M 244.892578 228.335938 L 244.892578 227.412109 L 251.729980 227.412109 L 251.729980 228.335938 Z " fill="rgb(0, 0, 0)" fill-opacity="1.000000" />
<path d="M 251.892578 228.335938 L 251.892578 227.412109 L 258.729980 227.412109 L 258.729980 228.335938 Z " fill="rgb(0, 0, 0)" fill-opacity="1.000000" />
<path d="M 258.892578 228.335938 L 258.892578 227.412109 L 265.729980 227.412109 L 265.729980 228.335938 Z " fill="rgb(0, 0, 0)" fill-opacity="1.000000" />
<path d="M 266.032227 231.418945 L 266.032227 224.866211 L 272.590332 228.142578 Z " fill="rgb(0, 0, 0)" fill-opacity="1.000000" />
<path d="M 275.878906 234.319336 L 275.878906 220.300781 L 276.738281 220.300781 L 276.738281 234.319336 Z " fill="rgb(0, 0, 0)" fill-opacity="1.000000" />
<path d="M 298.608398 229.066406 Q 298.361328 229.694824 297.979980 230.720703 Q 297.448242 232.138672 297.265625 232.450195 Q 297.018555 232.869141 296.647949 233.078613 Q 296.277344 233.288086 295.783203 233.288086 L 294.988281 233.288086 L 294.988281 232.460938 L 295.573730 232.460938 Q 296.008789 232.460938 296.255859 232.208496 Q 296.502930 231.956055 296.884277 230.903320 L 294.558594 224.984375 L 295.605957 224.984375 L 297.389160 229.689453 L 299.145508 224.984375 L 300.192871 224.984375 Z " fill="rgb(0, 0, 0)" fill-opacity="1.000000" />
<path d="M 307.015625 227.498047 L 307.015625 227.981445 L 302.734863 227.981445 L 302.734863 228.013672 Q 302.691895 229.243652 303.204834 229.780762 Q 303.717773 230.317871 304.652344 230.317871 Q 305.125000 230.317871 305.640625 230.167480 Q 306.156250 230.017090 306.741699 229.710938 L 306.741699 230.693848 Q 306.177734 230.924805 305.654053 231.040283 Q 305.130371 231.155762 304.641602 231.155762 Q 303.239746 231.155762 302.450195 230.315186 Q 301.660645 229.474609 301.660645 227.997559 Q 301.660645 226.558105 302.434082 225.698730 Q 303.207520 224.839355 304.496582 224.839355 Q 305.645996 224.839355 306.309326 225.618164 Q 306.972656 226.396973 307.015625 227.498047 Z M 306.027344 227.208008 Q 305.962891 226.584961 305.573486 226.131104 Q 305.184082 225.677246 304.453613 225.677246 Q 303.739258 225.677246 303.277344 226.149902 Q 302.815430 226.622559 302.772461 227.213379 Z " fill="rgb(0, 0, 0)" fill-opacity="1.000000" />
<path d="M 313.645020 227.272461 L 313.645020 231.000000 L 312.651367 231.000000 L 312.651367 227.272461 Q 312.651367 226.461426 312.366699 226.080078 Q 312.082031 225.698730 311.475098 225.698730 Q 310.782227 225.698730 310.408936 226.190186 Q 310.035645 226.681641 310.035645 227.600098 L 310.035645 231.000000 L 309.047363 231.000000 L 309.047363 224.984375 L 310.035645 224.984375 L 310.035645 225.886719 Q 310.298828 225.371094 310.750000 225.105225 Q 311.201172 224.839355 311.818848 224.839355 Q 312.737305 224.839355 313.191162 225.443604 Q 313.645020 226.047852 313.645020 227.272461 Z " fill="rgb(0, 0, 0)" fill-opacity="1.000000" />
<path d="M 331.878906 234.319336 L 331.878906 220.300781 L 332.738281 220.300781 L 332.738281 234.319336 Z " fill="rgb(0, 0, 0)" fill-opacity="1.000000" />
<path d="M 335.892578 228.335938 L 335.892578 227.412109 L 342.729980 227.412109 L 342.729980 228.335938 Z " fill="rgb(0, 0, 0)" fill-opacity="1.000000" />
<path d="M 342.892578 228.335938 L 342.892578 227.412109 L 349.729980 227.412109 L 349.729980 228.335938 Z " fill="rgb(0, 0, 0)" fill-opacity="1.000000" />
<path d="M 349.892578 228.335938 L 349.892578 227.412109 L 356.729980 227.412109 L 356.729980 228.335938 Z " fill="rgb(0, 0, 0)" fill-opacity="1.000000" />
<path d="M 356.892578 228.335938 L 356.892578 227.412109 L 363.729980 227.412109 L 363.729980 228.335938 Z " fill="rgb(0, 0, 0)" fill-opacity="1.000000" />
<path d="M 364.032227 231.418945 L 364.032227 224.866211 L 370.590332 228.142578 Z " fill="rgb(0, 0, 0)" fill-opacity="1.000000" />
<path d="M 373.878906 234.319336 L 373.878906 220.300781 L 374.738281 220.300781 L 374.738281 234.319336 Z " fill="rgb(0, 0, 0)" fill-opacity="1.000000" />
<path d="M 398.203613 226.225098 Q 397.886719 225.978027 397.559082 225.865234 Q 397.231445 225.752441 396.839355 225.752441 Q 395.915527 225.752441 395.426758 226.332520 Q 394.937988 226.912598 394.937988 228.008301 L 394.937988 231.000000 L 393.944336 231.000000 L 393.944336 224.984375 L 394.937988 224.984375 L 394.937988 226.160645 Q 395.185059 225.521484 395.697998 225.180420 Q 396.210938 224.839355 396.914551 224.839355 Q 397.279785 224.839355 397.596680 224.930664 Q 397.913574 225.021973 398.203613 225.215332 Z " fill="rgb(0, 0, 0)" fill-opacity="1.000000" />
<path d="M 400.047363 228.722656 L 400.047363 224.995117 L 401.035645 224.995117 L 401.035645 228.722656 Q 401.035645 229.533691 401.322998 229.915039 Q 401.610352 230.296387 402.211914 230.296387 Q 402.910156 230.296387 403.280762 229.804932 Q 403.651367 229.313477 403.651367 228.395020 L 403.651367 224.995117 L 404.645020 224.995117 L 404.645020 231.000000 L 403.651367 231.000000 L 403.651367 230.097656 Q 403.388184 230.618652 402.934326 230.887207 Q 402.480469 231.155762 401.873535 231.155762 Q 400.949707 231.155762 400.498535 230.551514 Q 400.047363 229.947266 400.047363 228.722656 Z " fill="rgb(0, 0, 0)" fill-opacity="1.000000" />
<path d="M 410.930664 227.997559 Q 410.930664 226.848145 410.565430 226.262695 Q 410.200195 225.677246 409.485840 225.677246 Q 408.766113 225.677246 408.395508 226.265381 Q 408.024902 226.853516 408.024902 227.997559 Q 408.024902 229.136230 408.395508 229.727051 Q 408.766113 230.317871 409.485840 230.317871 Q 410.200195 230.317871 410.565430 229.732422 Q 410.930664 229.146973 410.930664 227.997559 Z M 408.024902 225.752441 Q 408.261230 225.312012 408.677490 225.075684 Q 409.093750 224.839355 409.641602 224.839355 Q 410.726562 224.839355 411.349609 225.674561 Q 411.972656 226.509766 411.972656 227.976074 Q 411.972656 229.463867 411.346924 230.309814 Q 410.721191 231.155762 409.630859 231.155762 Q 409.093750 231.155762 408.682861 230.922119 Q 408.271973 230.688477 408.024902 230.242676 L 408.024902 231.000000 L 407.036621 231.000000 L 407.036621 222.642578 L 408.024902 222.642578 Z " fill="rgb(0, 0, 0)" fill-opacity="1.000000" />
<path d="M 429.878906 234.319336 L 429.878906 220.300781 L 430.738281 220.300781 L 430.738281 234.319336 Z " fill="rgb(0, 0, 0)" fill-opacity="1.000000" />
<path d="M 41.892578 215.335938 L 41.892578 214.412109 L 48.729980 214.412109 L 48.729980 215.335938 Z " fill="rgb(0, 0, 0)" fill-opacity="1.000000" />
<path d="M 48.892578 215.335938 L 48.892578 214.412109 L 55.729980 214.412109 L 55.729980 215.335938 Z " fill="rgb(0, 0, 0)" fill-opacity="1.000000" />
<path d="M 55.892578 215.335938 L 55.892578 214.412109 L 62.729980 214.412109 L 62.729980 215.335938 Z " fill="rgb(0, 0, 0)" fill-opacity="1.000000" />
<path d="M 62.892578 215.335938 L 62.892578 214.412109 L 69.729980 214.412109 L 69.729980 215.335938 Z " fill="rgb(0, 0, 0)" fill-opacity="1.000000" />
<path d="M 69.892578 215.335938 L 69.892578 214.412109 L 76.729980 214.412109 L 76.729980 215.335938 Z " fill="rgb(0, 0, 0)" fill-opacity="1.000000" />
<path d="M 76.892578 215.335938 L 76.892578 214.412109 L 83.729980 214.412109 L 83.729980 215.335938 Z " fill="rgb(0, 0, 0)" fill-opacity="1.000000" />
<path d="M 83.892578 215.335938 L 83.892578 214.412109 L 90.729980 214.412109 L 90.729980 215.335938 Z " fill="rgb(0, 0, 0)" fill-opacity="1.000000" />
<path d="M 93.878906 221.319336 L 93.878906 215.335938 L 90.892578 215.335938 L 90.892578 214.412109 L 94.738281 214.412109 L 94.738281 221.319336 Z " fill="rgb(0, 0, 0)" fill-opacity="1.000000" />
<path d="M 135.878906 221.319336 L 135.878906 214.412109 L 139.729980 214.412109 L 139.729980 215.335938 L 136.738281 215.335938 L 136.738281 221.319336 Z " fill="rgb(0, 0, 0)" fill-opacity="1.000000" />
<path d="M 139.892578 215.335938 L 139.892578 214.412109 L 146.729980 214.412109 L 146.729980 215.335938 Z " fill="rgb(0, 0, 0)" fill-opacity="1.000000" />
<path d="M 146.892578 215.335938 L 146.892578 214.412109 L 153.729980 214.412109 L 153.729980 215.335938 Z " fill="rgb(0, 0, 0)" fill-opacity="1.000000" />
<path d="M 153.892578 215.335938 L 153.892578 214.412109 L 160.729980 214.412109 L 160.729980 215.335938 Z " fill="rgb(0, 0, 0)" fill-opacity="1.000000" />
<path d="M 160.892578 215.335938 L 160.892578 214.412109 L 167.729980 214.412109 L 167.729980 215.335938 Z " fill="rgb(0, 0, 0)" fill-opacity="1.000000" />
<path d="M 167.892578 215.335938 L 167.892578 214.412109 L 174.729980 214.412109 L 174.729980 215.335938 Z " fill="rgb(0, 0, 0)" fill-opacity="1.000000" />
<path d="M 174.892578 215.335938 L 174.892578 214.412109 L 181.729980 214.412109 L 181.729980 215.335938 Z " fill="rgb(0, 0, 0)" fill-opacity="1.000000" />
<path d="M 181.892578 215.335938 L 181.892578 214.412109 L 188.729980 214.412109 L 188.729980 215.335938 Z " fill="rgb(0, 0, 0)" fill-opacity="1.000000" />
<path d="M 191.878906 221.319336 L 191.878906 215.335938 L 188.892578 215.335938 L 188.892578 214.412109 L 192.738281 214.412109 L 192.738281 221.319336 Z " fill="rgb(0, 0, 0)" fill-opacity="1.000000" />
<path d="M 275.878906 221.319336 L 275.878906 214.412109 L 279.729980 214.412109 L 279.729980 215.335938 L 276.738281 215.335938 L 276.738281 221.319336 Z " fill="rgb(0, 0, 0)" fill-opacity="1.000000" />
<path d="M 279.892578 215.335938 L 279.892578 214.412109 L 286.729980 214.412109 L 286.729980 215.335938 Z " fill="rgb(0, 0, 0)" fill-opacity="1.000000" />
<path d="M 286.892578 215.335938 L 286.892578 214.412109 L 293.729980 214.412109 L 293.729980 215.335938 Z " fill="rgb(0, 0, 0)" fill-opacity="1.000000" />
<path d="M 293.892578 215.335938 L 293.892578 214.412109 L 300.729980 214.412109 L 300.729980 215.335938 Z " fill="rgb(0, 0, 0)" fill-opacity="1.000000" />
<path d="M 300.892578 215.335938 L 300.892578 214.412109 L 307.729980 214.412109 L 307.729980 215.335938 Z " fill="rgb(0, 0, 0)" fill-opacity="1.000000" />
<path d="M 307.892578 215.335938 L 307.892578 214.412109 L 314.729980 214.412109 L 314.729980 215.335938 Z " fill="rgb(0, 0, 0)" fill-opacity="1.000000" />
<path d="M 314.892578 215.335938 L 314.892578 214.412109 L 321.729980 214.412109 L 321.729980 215.335938 Z " fill="rgb(0, 0, 0)" fill-opacity="1.000000" />
<path d="M 321.892578 215.335938 L 321.892578 214.412109 L 328.729980 214.412109 L 328.729980 215.335938 Z " fill="rgb(0, 0, 0)" fill-opacity="1.000000" />
<path d="M 331.878906 221.319336 L 331.878906 215.335938 L 328.892578 215.335938 L 328.892578 214.412109 L 332.738281 214.412109 L 332.738281 221.319336 Z " fill="rgb(0, 0, 0)" fill-opacity="1.000000" />
<path d="M 373.878906 221.319336 L 373.878906 214.412109 L 377.729980 214.412109 L 377.729980 215.335938 L 374.738281 215.335938 L 374.738281 221.319336 Z " fill="rgb(0, 0, 0)" fill-opacity="1.000000" />
<path d="M 377.892578 215.335938 L 377.892578 214.412109 L 384.729980 214.412109 L 384.729980 215.335938 Z " fill="rgb(0, 0, 0)" fill-opacity="1.000000" />
<path d="M 384.892578 215.335938 L 384.892578 214.412109 L 391.729980 214.412109 L 391.729980 215.335938 Z " fill="rgb(0, 0, 0)" fill-opacity="1.000000" />
<path d="M 391.892578 215.335938 L 391.892578 214.412109 L 398.729980 214.412109 L 398.729980 215.335938 Z " fill="rgb(0, 0, 0)" fill-opacity="1.000000" />
<path d="M 398.892578 215.335938 L 398.892578 214.412109 L 405.729980 214.412109 L 405.729980 215.335938 Z " fill="rgb(0, 0, 0)" fill-opacity="1.000000" />
<path d="M 405.892578 215.335938 L 405.892578 214.412109 L 412.729980 214.412109 L 412.729980 215.335938 Z " fill="rgb(0, 0, 0)" fill-opacity="1.000000" />
<path d="M 412.892578 215.335938 L 412.892578 214.412109 L 419.729980 214.412109 L 419.729980 215.335938 Z " fill="rgb(0, 0, 0)" fill-opacity="1.000000" />
<path d="M 419.892578 215.335938 L 419.892578 214.412109 L 426.729980 214.412109 L 426.729980 215.335938 Z " fill="rgb(0, 0, 0)" fill-opacity="1.000000" />
<path d="M 429.878906 221.319336 L 429.878906 215.335938 L 426.892578 215.335938 L 426.892578 214.412109 L 430.738281 214.412109 L 430.738281 221.319336 Z " fill="rgb(0, 0, 0)" fill-opacity="1.000000" />
<path d="M 65.878906 195.319336 L 65.878906 188.412109 L 69.729980 188.412109 L 69.729980 189.335938 L 66.738281 189.335938 L 66.738281 195.319336 Z " fill="rgb(0, 0, 0)" fill-opacity="1.000000" />
<path d="M 66.308594 205.418945 L 63.032227 198.866211 L 69.590332 198.866211 Z " fill="rgb(0, 0, 0)" fill-opacity="1.000000" />
<path d="M 69.892578 189.335938 L 69.892578 188.412109 L 76.729980 188.412109 L 76.729980 189.335938 Z " fill="rgb(0, 0, 0)" fill-opacity="1.000000" />
<path d="M 76.892578 189.335938 L 76.892578 188.412109 L 83.729980 188.412109 L 83.729980 189.335938 Z " fill="rgb(0, 0, 0)" fill-opacity="1.000000" />
<path d="M 83.892578 189.335938 L 83.892578 188.412109 L 90.729980 188.412109 L 90.729980 189.335938 Z " fill="rgb(0, 0, 0)" fill-opacity="1.000000" />
<path d="M 90.892578 189.335938 L 90.892578 188.412109 L 97.729980 188.412109 L 97.729980 189.335938 Z " fill="rgb(0, 0, 0)" fill-opacity="1.000000" />
<path d="M 97.892578 189.335938 L 97.892578 188.412109 L 104.729980 188.412109 L 104.729980 189.335938 Z " fill="rgb(0, 0, 0)" fill-opacity="1.000000" />
<path d="M 104.892578 189.335938 L 104.892578 188.412109 L 111.729980 188.412109 L 111.729980 189.335938 Z " fill="rgb(0, 0, 0)" fill-opacity="1.000000" />
<path d="M 111.892578 189.335938 L 111.892578 188.412109 L 118.729980 188.412109 L 118.729980 189.335938 Z " fill="rgb(0, 0, 0)" fill-opacity="1.000000" />
<path d="M 118.892578 189.335938 L 118.892578 188.412109 L 125.729980 188.412109 L 125.729980 189.335938 Z " fill="rgb(0, 0, 0)" fill-opacity="1.000000" />
<path d="M 125.892578 189.335938 L 125.892578 188.412109 L 132.729980 188.412109 L 132.729980 189.335938 Z " fill="rgb(0, 0, 0)" fill-opacity="1.000000" />
<path d="M 132.892578 189.335938 L 132.892578 188.412109 L 139.729980 188.412109 L 139.729980 189.335938 Z " fill="rgb(0, 0, 0)" fill-opacity="1.000000" />
<path d="M 139.892578 189.335938 L 139.892578 188.412109 L 146.729980 188.412109 L 146.729980 189.335938 Z " fill="rgb(0, 0, 0)" fill-opacity="1.000000" />
<path d="M 146.892578 189.335938 L 146.892578 188.412109 L 153.729980 188.412109 L 153.729980 189.335938 Z " fill="rgb(0, 0, 0)" fill-opacity="1.000000" />
<path d="M 153.892578 189.335938 L 153.892578 188.412109 L 160.729980 188.412109 L 160.729980 189.335938 Z " fill="rgb(0, 0, 0)" fill-opacity="1.000000" />
<path d="M 160.892578 189.335938 L 160.892578 188.412109 L 167.729980 188.412109 L 167.729980 189.335938 Z " fill="rgb(0, 0, 0)" fill-opacity="1.000000" />
<path d="M 167.892578 189.335938 L 167.892578 188.412109 L 174.729980 188.412109 L 174.729980 189.335938 Z " fill="rgb(0, 0, 0)" fill-opacity="1.000000" />
<path d="M 174.892578 189.335938 L 174.892578 188.412109 L 181.729980 188.412109 L 181.729980 189.335938 Z " fill="rgb(0, 0, 0)" fill-opacity="1.000000" />
<path d="M 181.892578 189.335938 L 181.892578 188.412109 L 188.729980 188.412109 L 188.729980 189.335938 Z " fill="rgb(0, 0, 0)" fill-opacity="1.000000" />
<path d="M 188.892578 189.335938 L 188.892578 188.412109 L 195.729980 188.412109 L 195.729980 189.335938 Z " fill="rgb(0, 0, 0)" fill-opacity="1.000000" />
<path d="M 195.892578 189.335938 L 195.892578 188.412109 L 202.729980 188.412109 L 202.729980 189.335938 Z " fill="rgb(0, 0, 0)" fill-opacity="1.000000" />
<path d="M 202.892578 189.335938 L 202.892578 188.412109 L 209.729980 188.412109 L 209.729980 189.335938 Z " fill="rgb(0, 0, 0)" fill-opacity="1.000000" />
<path d="M 209.892578 189.335938 L 209.892578 188.412109 L 216.729980 188.412109 L 216.729980 189.335938 Z " fill="rgb(0, 0, 0)" fill-opacity="1.000000" />
<path d="M 216.892578 189.335938 L 216.892578 188.412109 L 223.729980 188.412109 L 223.729980 189.335938 Z " fill="rgb(0, 0, 0)" fill-opacity="1.000000" />
<path d="M 223.892578 189.335938 L 223.892578 188.412109 L 230.729980 188.412109 L 230.729980 189.335938 Z " fill="rgb(0, 0, 0)" fill-opacity="1.000000" />
<path d="M 230.892578 189.335938 L 230.892578 188.412109 L 237.729980 188.412109 L 237.729980 189.335938 Z " fill="rgb(0, 0, 0)" fill-opacity="1.000000" />
<path d="M 237.892578 189.335938 L 237.892578 188.412109 L 244.729980 188.412109 L 244.729980 189.335938 Z " fill="rgb(0, 0, 0)" fill-opacity="1.000000" />
<path d="M 244.892578 189.335938 L 244.892578 188.412109 L 251.729980 188.412109 L 251.729980 189.335938 Z " fill="rgb(0, 0, 0)" fill-opacity="1.000000" />
<path d="M 251.892578 189.335938 L 251.892578 188.412109 L 258.729980 188.412109 L 258.729980 189.335938 Z " fill="rgb(0, 0, 0)" fill-opacity="1.000000" />
<path d="M 258.892578 189.335938 L 258.892578 188.412109 L 265.729980 188.412109 L 265.729980 189.335938 Z " fill="rgb(0, 0, 0)" fill-opacity="1.000000" />
<path d="M 265.892578 189.335938 L 265.892578 188.412109 L 272.729980 188.412109 L 272.729980 189.335938 Z " fill="rgb(0, 0, 0)" fill-opacity="1.000000" />
<path d="M 272.892578 189.335938 L 272.892578 188.412109 L 279.729980 188.412109 L 279.729980 189.335938 Z " fill="rgb(0, 0, 0)" fill-opacity="1.000000" />
<path d="M 279.892578 189.335938 L 279.892578 188.412109 L 286.729980 188.412109 L 286.729980 189.335938 Z " fill="rgb(0, 0, 0)" fill-opacity="1.000000" />
<path d="M 286.892578 189.335938 L 286.892578 188.412109 L 293.729980 188.412109 L 293.729980 189.335938 Z " fill="rgb(0, 0, 0)" fill-opacity="1.000000" />
<path d="M 293.892578 189.335938 L 293.892578 188.412109 L 300.729980 188.412109 L 300.729980 189.335938 Z " fill="rgb(0, 0, 0)" fill-opacity="1.000000" />
<path d="M 300.892578 189.335938 L 300.892578 188.412109 L 307.729980 188.412109 L 307.729980 189.335938 Z " fill="rgb(0, 0, 0)" fill-opacity="1.000000" />
<path d="M 307.892578 189.335938 L 307.892578 188.412109 L 314.729980 188.412109 L 314.729980 189.335938 Z " fill="rgb(0, 0, 0)" fill-opacity="1.000000" />
<path d="M 314.892578 189.335938 L 314.892578 188.412109 L 321.729980 188.412109 L 321.729980 189.335938 Z " fill="rgb(0, 0, 0)" fill-opacity="1.000000" />
<path d="M 321.892578 189.335938 L 321.892578 188.412109 L 328.729980 188.412109 L 328.729980 189.335938 Z " fill="rgb(0, 0, 0)" fill-opacity="1.000000" />
<path d="M 328.892578 189.335938 L 328.892578 188.412109 L 335.729980 188.412109 L 335.729980 189.335938 Z " fill="rgb(0, 0, 0)" fill-opacity="1.000000" />
<path d="M 335.892578 189.335938 L 335.892578 188.412109 L 342.729980 188.412109 L 342.729980 189.335938 Z " fill="rgb(0, 0, 0)" fill-opacity="1.000000" />
<path d="M 342.892578 189.335938 L 342.892578 188.412109 L 349.729980 188.412109 L 349.729980 189.335938 Z " fill="rgb(0, 0, 0)" fill-opacity="1.000000" />
<path d="M 349.892578 189.335938 L 349.892578 188.412109 L 352.878906 188.412109 L 352.878906 181.300781 L 353.738281 181.300781 L 353.738281 189.335938 Z " fill="rgb(0, 0, 0)" fill-opacity="1.000000" />
<path d="M 86.449219 143.319336 L 86.449219 135.950195 L 90.729980 135.950195 L 90.729980 137.797852 L 88.167969 137.797852 L 88.167969 143.319336 Z " fill="rgb(0, 0, 0)" fill-opacity="1.000000" />
<path d="M 86.449219 156.319336 L 86.449219 142.300781 L 88.167969 142.300781 L 88.167969 156.319336 Z " fill="rgb(0, 0, 0)" fill-opacity="1.000000" />
<path d="M 86.449219 163.797852 L 86.449219 155.300781 L 88.167969 155.300781 L 88.167969 161.950195 L 90.729980 161.950195 L 90.729980 163.797852 Z " fill="rgb(0, 0, 0)" fill-opacity="1.000000" />
<path d="M 352.878906 182.319336 L 352.878906 168.300781 L 353.738281 168.300781 L 353.738281 182.319336 Z " fill="rgb(0, 0, 0)" fill-opacity="1.000000" />
<path d="M 90.892578 163.797852 L 90.892578 161.950195 L 97.729980 161.950195 L 97.729980 163.797852 Z " fill="rgb(0, 0, 0)" fill-opacity="1.000000" />
<path d="M 97.892578 163.797852 L 97.892578 161.950195 L 104.729980 161.950195 L 104.729980 163.797852 Z " fill="rgb(0, 0, 0)" fill-opacity="1.000000" />
<path d="M 104.892578 163.797852 L 104.892578 161.950195 L 111.729980 161.950195 L 111.729980 163.797852 Z " fill="rgb(0, 0, 0)" fill-opacity="1.000000" />
<path d="M 111.892578 163.797852 L 111.892578 161.950195 L 118.729980 161.950195 L 118.729980 163.797852 Z " fill="rgb(0, 0, 0)" fill-opacity="1.000000" />
<path d="M 118.892578 163.797852 L 118.892578 161.950195 L 125.729980 161.950195 L 125.729980 163.797852 Z " fill="rgb(0, 0, 0)" fill-opacity="1.000000" />
<path d="M 125.892578 163.797852 L 125.892578 161.950195 L 132.729980 161.950195 L 132.729980 163.797852 Z " fill="rgb(0, 0, 0)" fill-opacity="1.000000" />
<path d="M 132.892578 163.797852 L 132.892578 161.950195 L 139.729980 161.950195 L 139.729980 163.797852 Z " fill="rgb(0, 0, 0)" fill-opacity="1.000000" />
<path d="M 139.892578 163.797852 L 139.892578 161.950195 L 142.449219 161.950195 L 142.449219 155.300781 L 144.167969 155.300781 L 144.167969 163.797852 Z " fill="rgb(0, 0, 0)" fill-opacity="1.000000" />
<path d="M 324.878906 163.335938 L 324.878906 155.300781 L 325.738281 155.300781 L 325.738281 162.412109 L 328.729980 162.412109 L 328.729980 163.335938 Z " fill="rgb(0, 0, 0)" fill-opacity="1.000000" />
<path d="M 328.892578 163.335938 L 328.892578 162.412109 L 335.729980 162.412109 L 335.729980 163.335938 Z " fill="rgb(0, 0, 0)" fill-opacity="1.000000" />
<path d="M 335.892578 163.335938 L 335.892578 162.412109 L 342.729980 162.412109 L 342.729980 163.335938 Z " fill="rgb(0, 0, 0)" fill-opacity="1.000000" />
<path d="M 342.892578 163.335938 L 342.892578 162.412109 L 349.729980 162.412109 L 349.729980 163.335938 Z " fill="rgb(0, 0, 0)" fill-opacity="1.000000" />
<path d="M 349.892578 163.335938 L 349.892578 162.412109 L 356.729980 162.412109 L 356.729980 163.335938 Z " fill="rgb(0, 0, 0)" fill-opacity="1.000000" />
<path d="M 356.892578 163.335938 L 356.892578 162.412109 L 363.729980 162.412109 L 363.729980 163.335938 Z " fill="rgb(0, 0, 0)" fill-opacity="1.000000" />
<path d="M 363.892578 163.335938 L 363.892578 162.412109 L 370.729980 162.412109 L 370.729980 163.335938 Z " fill="rgb(0, 0, 0)" fill-opacity="1.000000" />
<path d="M 370.892578 163.335938 L 370.892578 162.412109 L 377.729980 162.412109 L 377.729980 163.335938 Z " fill="rgb(0, 0, 0)" fill-opacity="1.000000" />
<path d="M 377.892578 163.335938 L 377.892578 162.412109 L 380.878906 162.412109 L 380.878906 155.300781 L 381.738281 155.300781 L 381.738281 163.335938 Z " fill="rgb(0, 0, 0)" fill-opacity="1.000000" />
<path d="M 108.861816 150.824707 Q 108.861816 151.490723 109.106201 151.829102 Q 109.350586 152.167480 109.828613 152.167480 L 110.983398 152.167480 L 110.983398 153.000000 L 109.731934 153.000000 Q 108.845703 153.000000 108.359619 152.433350 Q 107.873535 151.866699 107.873535 150.824707 L 107.873535 145.383789 L 106.289062 145.383789 L 106.289062 144.610352 L 108.861816 144.610352 Z " fill="rgb(0, 0, 0)" fill-opacity="1.000000" />
<path d="M 113.697266 147.005859 L 116.227051 147.005859 L 116.227051 152.231934 L 118.187500 152.231934 L 118.187500 153.000000 L 113.278320 153.000000 L 113.278320 152.231934 L 115.238770 152.231934 L 115.238770 147.773926 L 113.697266 147.773926 Z M 115.238770 144.669434 L 116.227051 144.669434 L 116.227051 145.915527 L 115.238770 145.915527 Z " fill="rgb(0, 0, 0)" fill-opacity="1.000000" />
<path d="M 125.203613 148.225098 Q 124.886719 147.978027 124.559082 147.865234 Q 124.231445 147.752441 123.839355 147.752441 Q 122.915527 147.752441 122.426758 148.332520 Q 121.937988 148.912598 121.937988 150.008301 L 121.937988 153.000000 L 120.944336 153.000000 L 120.944336 146.984375 L 121.937988 146.984375 L 121.937988 148.160645 Q 122.185059 147.521484 122.697998 147.180420 Q 123.210938 146.839355 123.914551 146.839355 Q 124.279785 146.839355 124.596680 146.930664 Q 124.913574 147.021973 125.203613 147.215332 Z " fill="rgb(0, 0, 0)" fill-opacity="1.000000" />
<path d="M 142.449219 156.319336 L 142.449219 142.300781 L 144.167969 142.300781 L 144.167969 156.319336 Z " fill="rgb(0, 0, 0)" fill-opacity="1.000000" />
<path d="M 146.892578 150.335938 L 146.892578 149.412109 L 153.729980 149.412109 L 153.729980 150.335938 Z " fill="rgb(0, 0, 0)" fill-opacity="1.000000" />
<path d="M 153.892578 150.335938 L 153.892578 149.412109 L 160.729980 149.412109 L 160.729980 150.335938 Z " fill="rgb(0, 0, 0)" fill-opacity="1.000000" />
<path d="M 160.892578 150.335938 L 160.892578 149.412109 L 167.729980 149.412109 L 167.729980 150.335938 Z " fill="rgb(0, 0, 0)" fill-opacity="1.000000" />
<path d="M 167.892578 150.335938 L 167.892578 149.412109 L 174.729980 149.412109 L 174.729980 150.335938 Z " fill="rgb(0, 0, 0)" fill-opacity="1.000000" />
<path d="M 174.892578 150.335938 L 174.892578 149.412109 L 181.729980 149.412109 L 181.729980 150.335938 Z " fill="rgb(0, 0, 0)" fill-opacity="1.000000" />
<path d="M 181.892578 150.335938 L 181.892578 149.412109 L 188.729980 149.412109 L 188.729980 150.335938 Z " fill="rgb(0, 0, 0)" fill-opacity="1.000000" />
<path d="M 188.892578 150.335938 L 188.892578 149.412109 L 195.729980 149.412109 L 195.729980 150.335938 Z " fill="rgb(0, 0, 0)" fill-opacity="1.000000" />
<path d="M 195.892578 150.335938 L 195.892578 149.412109 L 202.729980 149.412109 L 202.729980 150.335938 Z " fill="rgb(0, 0, 0)" fill-opacity="1.000000" />
<path d="M 202.892578 150.335938 L 202.892578 149.412109 L 209.729980 149.412109 L 209.729980 150.335938 Z " fill="rgb(0, 0, 0)" fill-opacity="1.000000" />
<path d="M 209.892578 150.335938 L 209.892578 149.412109 L 216.729980 149.412109 L 216.729980 150.335938 Z " fill="rgb(0, 0, 0)" fill-opacity="1.000000" />
<path d="M 216.892578 150.335938 L 216.892578 149.412109 L 223.729980 149.412109 L 223.729980 150.335938 Z " fill="rgb(0, 0, 0)" fill-opacity="1.000000" />
<path d="M 223.892578 150.335938 L 223.892578 149.412109 L 230.729980 149.412109 L 230.729980 150.335938 Z " fill="rgb(0, 0, 0)" fill-opacity="1.000000" />
<path d="M 230.892578 150.335938 L 230.892578 149.412109 L 237.729980 149.412109 L 237.729980 150.335938 Z " fill="rgb(0, 0, 0)" fill-opacity="1.000000" />
<path d="M 237.892578 150.335938 L 237.892578 149.412109 L 244.729980 149.412109 L 244.729980 150.335938 Z " fill="rgb(0, 0, 0)" fill-opacity="1.000000" />
<path d="M 244.892578 150.335938 L 244.892578 149.412109 L 251.729980 149.412109 L 251.729980 150.335938 Z " fill="rgb(0, 0, 0)" fill-opacity="1.000000" />
<path d="M 251.892578 150.335938 L 251.892578 149.412109 L 258.729980 149.412109 L 258.729980 150.335938 Z " fill="rgb(0, 0, 0)" fill-opacity="1.000000" />
<path d="M 258.892578 150.335938 L 258.892578 149.412109 L 265.729980 149.412109 L 265.729980 150.335938 Z " fill="rgb(0, 0, 0)" fill-opacity="1.000000" />
<path d="M 265.892578 150.335938 L 265.892578 149.412109 L 272.729980 149.412109 L 272.729980 150.335938 Z " fill="rgb(0, 0, 0)" fill-opacity="1.000000" />
<path d="M 272.892578 150.335938 L 272.892578 149.412109 L 279.729980 149.412109 L 279.729980 150.335938 Z " fill="rgb(0, 0, 0)" fill-opacity="1.000000" />
<path d="M 279.892578 150.335938 L 279.892578 149.412109 L 286.729980 149.412109 L 286.729980 150.335938 Z " fill="rgb(0, 0, 0)" fill-opacity="1.000000" />
<path d="M 286.892578 150.335938 L 286.892578 149.412109 L 293.729980 149.412109 L 293.729980 150.335938 Z " fill="rgb(0, 0, 0)" fill-opacity="1.000000" />
<path d="M 293.892578 150.335938 L 293.892578 149.412109 L 300.729980 149.412109 L 300.729980 150.335938 Z " fill="rgb(0, 0, 0)" fill-opacity="1.000000" />
<path d="M 300.892578 150.335938 L 300.892578 149.412109 L 307.729980 149.412109 L 307.729980 150.335938 Z " fill="rgb(0, 0, 0)" fill-opacity="1.000000" />
<path d="M 307.892578 150.335938 L 307.892578 149.412109 L 314.729980 149.412109 L 314.729980 150.335938 Z " fill="rgb(0, 0, 0)" fill-opacity="1.000000" />
<path d="M 315.032227 153.418945 L 315.032227 146.866211 L 321.590332 150.142578 Z " fill="rgb(0, 0, 0)" fill-opacity="1.000000" />
<path d="M 324.878906 156.319336 L 324.878906 142.300781 L 325.738281 142.300781 L 325.738281 156.319336 Z " fill="rgb(0, 0, 0)" fill-opacity="1.000000" />
<path d="M 349.015625 149.498047 L 349.015625 149.981445 L 344.734863 149.981445 L 344.734863 150.013672 Q 344.691895 151.243652 345.204834 151.780762 Q 345.717773 152.317871 346.652344 152.317871 Q 347.125000 152.317871 347.640625 152.167480 Q 348.156250 152.017090 348.741699 151.710938 L 348.741699 152.693848 Q 348.177734 152.924805 347.654053 153.040283 Q 347.130371 153.155762 346.641602 153.155762 Q 345.239746 153.155762 344.450195 152.315186 Q 343.660645 151.474609 343.660645 149.997559 Q 343.660645 148.558105 344.434082 147.698730 Q 345.207520 146.839355 346.496582 146.839355 Q 347.645996 146.839355 348.309326 147.618164 Q 348.972656 148.396973 349.015625 149.498047 Z M 348.027344 149.208008 Q 347.962891 148.584961 347.573486 148.131104 Q 347.184082 147.677246 346.453613 147.677246 Q 345.739258 147.677246 345.277344 148.149902 Q 344.815430 148.622559 344.772461 149.213379 Z " fill="rgb(0, 0, 0)" fill-opacity="1.000000" />
<path d="M 351.047363 150.722656 L 351.047363 146.995117 L 352.035645 146.995117 L 352.035645 150.722656 Q 352.035645 151.533691 352.322998 151.915039 Q 352.610352 152.296387 353.211914 152.296387 Q 353.910156 152.296387 354.280762 151.804932 Q 354.651367 151.313477 354.651367 150.395020 L 354.651367 146.995117 L 355.645020 146.995117 L 355.645020 153.000000 L 354.651367 153.000000 L 354.651367 152.097656 Q 354.388184 152.618652 353.934326 152.887207 Q 353.480469 153.155762 352.873535 153.155762 Q 351.949707 153.155762 351.498535 152.551514 Q 351.047363 151.947266 351.047363 150.722656 Z " fill="rgb(0, 0, 0)" fill-opacity="1.000000" />
<path d="M 363.203613 148.225098 Q 362.886719 147.978027 362.559082 147.865234 Q 362.231445 147.752441 361.839355 147.752441 Q 360.915527 147.752441 360.426758 148.332520 Q 359.937988 148.912598 359.937988 150.008301 L 359.937988 153.000000 L 358.944336 153.000000 L 358.944336 146.984375 L 359.937988 146.984375 L 359.937988 148.160645 Q 360.185059 147.521484 360.697998 147.180420 Q 361.210938 146.839355 361.914551 146.839355 Q 362.279785 146.839355 362.596680 146.930664 Q 362.913574 147.021973 363.203613 147.215332 Z " fill="rgb(0, 0, 0)" fill-opacity="1.000000" />
<path d="M 380.878906 156.319336 L 380.878906 142.300781 L 381.738281 142.300781 L 381.738281 156.319336 Z " fill="rgb(0, 0, 0)" fill-opacity="1.000000" />
<path d="M 90.892578 137.797852 L 90.892578 135.950195 L 97.729980 135.950195 L 97.729980 137.797852 Z " fill="rgb(0, 0, 0)" fill-opacity="1.000000" />
<path d="M 97.892578 137.797852 L 97.892578 135.950195 L 104.729980 135.950195 L 104.729980 137.797852 Z " fill="rgb(0, 0, 0)" fill-opacity="1.000000" />
<path d="M 104.892578 137.797852 L 104.892578 135.950195 L 111.729980 135.950195 L 111.729980 137.797852 Z " fill="rgb(0, 0, 0)" fill-opacity="1.000000" />
<path d="M 111.892578 137.797852 L 111.892578 135.950195 L 118.729980 135.950195 L 118.729980 137.797852 Z " fill="rgb(0, 0, 0)" fill-opacity="1.000000" />
<path d="M 118.892578 137.797852 L 118.892578 135.950195 L 125.729980 135.950195 L 125.729980 137.797852 Z " fill="rgb(0, 0, 0)" fill-opacity="1.000000" />
<path d="M 125.892578 137.797852 L 125.892578 135.950195 L 132.729980 135.950195 L 132.729980 137.797852 Z " fill="rgb(0, 0, 0)" fill-opacity="1.000000" />
<path d="M 132.892578 137.797852 L 132.892578 135.950195 L 139.729980 135.950195 L 139.729980 137.797852 Z " fill="rgb(0, 0, 0)" fill-opacity="1.000000" />
<path d="M 142.449219 143.319336 L 142.449219 137.797852 L 139.892578 137.797852 L 139.892578 135.950195 L 144.167969 135.950195 L 144.167969 143.319336 Z " fill="rgb(0, 0, 0)" fill-opacity="1.000000" />
<path d="M 324.878906 143.319336 L 324.878906 136.412109 L 328.729980 136.412109 L 328.729980 137.335938 L 325.738281 137.335938 L 325.738281 143.319336 Z " fill="rgb(0, 0, 0)" fill-opacity="1.000000" />
<path d="M 328.892578 137.335938 L 328.892578 136.412109 L 335.729980 136.412109 L 335.729980 137.335938 Z " fill="rgb(0, 0, 0)" fill-opacity="1.000000" />
<path d="M 335.892578 137.335938 L 335.892578 136.412109 L 342.729980 136.412109 L 342.729980 137.335938 Z " fill="rgb(0, 0, 0)" fill-opacity="1.000000" />
<path d="M 342.892578 137.335938 L 342.892578 136.412109 L 349.729980 136.412109 L 349.729980 137.335938 Z " fill="rgb(0, 0, 0)" fill-opacity="1.000000" />
<path d="M 349.892578 137.335938 L 349.892578 136.412109 L 356.729980 136.412109 L 356.729980 137.335938 Z " fill="rgb(0, 0, 0)" fill-opacity="1.000000" />
<path d="M 356.892578 137.335938 L 356.892578 136.412109 L 363.729980 136.412109 L 363.729980 137.335938 Z " fill="rgb(0, 0, 0)" fill-opacity="1.000000" />
<path d="M 363.892578 137.335938 L 363.892578 136.412109 L 370.729980 136.412109 L 370.729980 137.335938 Z " fill="rgb(0, 0, 0)" fill-opacity="1.000000" />
<path d="M 370.892578 137.335938 L 370.892578 136.412109 L 377.729980 136.412109 L 377.729980 137.335938 Z " fill="rgb(0, 0, 0)" fill-opacity="1.000000" />
<path d="M 380.878906 143.319336 L 380.878906 137.335938 L 377.892578 137.335938 L 377.892578 136.412109 L 381.738281 136.412109 L 381.738281 143.319336 Z " fill="rgb(0, 0, 0)" fill-opacity="1.000000" />
<path d="M 114.878906 117.319336 L 114.878906 110.412109 L 118.729980 110.412109 L 118.729980 111.335938 L 115.738281 111.335938 L 115.738281 117.319336 Z " fill="rgb(0, 0, 0)" fill-opacity="1.000000" />
<path d="M 115.308594 127.418945 L 112.032227 120.866211 L 118.590332 120.866211 Z " fill="rgb(0, 0, 0)" fill-opacity="1.000000" />
<path d="M 118.892578 111.335938 L 118.892578 110.412109 L 125.729980 110.412109 L 125.729980 111.335938 Z " fill="rgb(0, 0, 0)" fill-opacity="1.000000" />
<path d="M 125.892578 111.335938 L 125.892578 110.412109 L 132.729980 110.412109 L 132.729980 111.335938 Z " fill="rgb(0, 0, 0)" fill-opacity="1.000000" />
<path d="M 132.892578 111.335938 L 132.892578 110.412109 L 139.729980 110.412109 L 139.729980 111.335938 Z " fill="rgb(0, 0, 0)" fill-opacity="1.000000" />
<path d="M 139.892578 111.335938 L 139.892578 110.412109 L 146.729980 110.412109 L 146.729980 111.335938 Z " fill="rgb(0, 0, 0)" fill-opacity="1.000000" />
<path d="M 146.892578 111.335938 L 146.892578 110.412109 L 153.729980 110.412109 L 153.729980 111.335938 Z " fill="rgb(0, 0, 0)" fill-opacity="1.000000" />
<path d="M 153.892578 111.335938 L 153.892578 110.412109 L 160.729980 110.412109 L 160.729980 111.335938 Z " fill="rgb(0, 0, 0)" fill-opacity="1.000000" />
<path d="M 160.892578 111.335938 L 160.892578 110.412109 L 167.729980 110.412109 L 167.729980 111.335938 Z " fill="rgb(0, 0, 0)" fill-opacity="1.000000" />
<path d="M 167.892578 111.335938 L 167.892578 110.412109 L 174.729980 110.412109 L 174.729980 111.335938 Z " fill="rgb(0, 0, 0)" fill-opacity="1.000000" />
<path d="M 174.892578 111.335938 L 174.892578 110.412109 L 181.729980 110.412109 L 181.729980 111.335938 Z " fill="rgb(0, 0, 0)" fill-opacity="1.000000" />
<path d="M 181.892578 111.335938 L 181.892578 110.412109 L 188.729980 110.412109 L 188.729980 111.335938 Z " fill="rgb(0, 0, 0)" fill-opacity="1.000000" />
<path d="M 188.892578 111.335938 L 188.892578 110.412109 L 195.729980 110.412109 L 195.729980 111.335938 Z " fill="rgb(0, 0, 0)" fill-opacity="1.000000" />
<path d="M 195.892578 111.335938 L 195.892578 110.412109 L 202.729980 110.412109 L 202.729980 111.335938 Z " fill="rgb(0, 0, 0)" fill-opacity="1.000000" />
<path d="M 202.892578 111.335938 L 202.892578 110.412109 L 209.729980 110.412109 L 209.729980 111.335938 Z " fill="rgb(0, 0, 0)" fill-opacity="1.000000" />
<path d="M 209.892578 111.335938 L 209.892578 110.412109 L 216.729980 110.412109 L 216.729980 111.335938 Z " fill="rgb(0, 0, 0)" fill-opacity="1.000000" />
<path d="M 216.892578 111.335938 L 216.892578 110.412109 L 223.729980 110.412109 L 223.729980 111.335938 Z " fill="rgb(0, 0, 0)" fill-opacity="1.000000" />
<path d="M 223.892578 111.335938 L 223.892578 110.412109 L 230.729980 110.412109 L 230.729980 111.335938 Z " fill="rgb(0, 0, 0)" fill-opacity="1.000000" />
<path d="M 230.892578 111.335938 L 230.892578 110.412109 L 237.729980 110.412109 L 237.729980 111.335938 Z " fill="rgb(0, 0, 0)" fill-opacity="1.000000" />
<path d="M 237.892578 111.335938 L 237.892578 110.412109 L 244.729980 110.412109 L 244.729980 111.335938 Z " fill="rgb(0, 0, 0)" fill-opacity="1.000000" />
<path d="M 244.892578 111.335938 L 244.892578 110.412109 L 251.729980 110.412109 L 251.729980 111.335938 Z " fill="rgb(0, 0, 0)" fill-opacity="1.000000" />
<path d="M 251.892578 111.335938 L 251.892578 110.412109 L 258.729980 110.412109 L 258.729980 111.335938 Z " fill="rgb(0, 0, 0)" fill-opacity="1.000000" />
<path d="M 258.892578 111.335938 L 258.892578 110.412109 L 265.729980 110.412109 L 265.729980 111.335938 Z " fill="rgb(0, 0, 0)" fill-opacity="1.000000" />
<path d="M 265.892578 111.335938 L 265.892578 110.412109 L 272.729980 110.412109 L 272.729980 111.335938 Z " fill="rgb(0, 0, 0)" fill-opacity="1.000000" />
<path d="M 272.892578 111.335938 L 272.892578 110.412109 L 279.729980 110.412109 L 279.729980 111.335938 Z " fill="rgb(0, 0, 0)" fill-opacity="1.000000" />
<path d="M 279.892578 111.335938 L 279.892578 110.412109 L 286.729980 110.412109 L 286.729980 111.335938 Z " fill="rgb(0, 0, 0)" fill-opacity="1.000000" />
<path d="M 286.892578 111.335938 L 286.892578 110.412109 L 289.878906 110.412109 L 289.878906 103.300781 L 290.738281 103.300781 L 290.738281 111.335938 Z " fill="rgb(0, 0, 0)" fill-opacity="1.000000" />
<path d="M 149.878906 65.319336 L 149.878906 58.412109 L 153.729980 58.412109 L 153.729980 59.335938 L 150.738281 59.335938 L 150.738281 65.319336 Z " fill="rgb(0, 0, 0)" fill-opacity="1.000000" />
<path d="M 149.878906 78.319336 L 149.878906 64.300781 L 150.738281 64.300781 L 150.738281 78.319336 Z " fill="rgb(0, 0, 0)" fill-opacity="1.000000" />
<path d="M 149.878906 85.335938 L 149.878906 77.300781 L 150.738281 77.300781 L 150.738281 84.412109 L 153.729980 84.412109 L 153.729980 85.335938 Z " fill="rgb(0, 0, 0)" fill-opacity="1.000000" />
<path d="M 289.878906 104.319336 L 289.878906 90.300781 L 290.738281 90.300781 L 290.738281 104.319336 Z " fill="rgb(0, 0, 0)" fill-opacity="1.000000" />
<path d="M 153.892578 85.335938 L 153.892578 84.412109 L 160.729980 84.412109 L 160.729980 85.335938 Z " fill="rgb(0, 0, 0)" fill-opacity="1.000000" />
<path d="M 160.892578 85.335938 L 160.892578 84.412109 L 167.729980 84.412109 L 167.729980 85.335938 Z " fill="rgb(0, 0, 0)" fill-opacity="1.000000" />
<path d="M 167.892578 85.335938 L 167.892578 84.412109 L 174.729980 84.412109 L 174.729980 85.335938 Z " fill="rgb(0, 0, 0)" fill-opacity="1.000000" />
<path d="M 174.892578 85.335938 L 174.892578 84.412109 L 181.729980 84.412109 L 181.729980 85.335938 Z " fill="rgb(0, 0, 0)" fill-opacity="1.000000" />
<path d="M 181.892578 85.335938 L 181.892578 84.412109 L 188.729980 84.412109 L 188.729980 85.335938 Z " fill="rgb(0, 0, 0)" fill-opacity="1.000000" />
<path d="M 188.892578 85.335938 L 188.892578 84.412109 L 195.729980 84.412109 L 195.729980 85.335938 Z " fill="rgb(0, 0, 0)" fill-opacity="1.000000" />
<path d="M 195.892578 85.335938 L 195.892578 84.412109 L 202.729980 84.412109 L 202.729980 85.335938 Z " fill="rgb(0, 0, 0)" fill-opacity="1.000000" />
<path d="M 202.892578 85.335938 L 202.892578 84.412109 L 205.878906 84.412109 L 205.878906 77.300781 L 206.738281 77.300781 L 206.738281 85.335938 Z " fill="rgb(0, 0, 0)" fill-opacity="1.000000" />
<path d="M 261.878906 85.335938 L 261.878906 77.300781 L 262.738281 77.300781 L 262.738281 84.412109 L 265.729980 84.412109 L 265.729980 85.335938 Z " fill="rgb(0, 0, 0)" fill-opacity="1.000000" />
<path d="M 265.892578 85.335938 L 265.892578 84.412109 L 272.729980 84.412109 L 272.729980 85.335938 Z " fill="rgb(0, 0, 0)" fill-opacity="1.000000" />
<path d="M 272.892578 85.335938 L 272.892578 84.412109 L 279.729980 84.412109 L 279.729980 85.335938 Z " fill="rgb(0, 0, 0)" fill-opacity="1.000000" />
<path d="M 279.892578 85.335938 L 279.892578 84.412109 L 286.729980 84.412109 L 286.729980 85.335938 Z " fill="rgb(0, 0, 0)" fill-opacity="1.000000" />
<path d="M 286.892578 85.335938 L 286.892578 84.412109 L 293.729980 84.412109 L 293.729980 85.335938 Z " fill="rgb(0, 0, 0)" fill-opacity="1.000000" />
<path d="M 293.892578 85.335938 L 293.892578 84.412109 L 300.729980 84.412109 L 300.729980 85.335938 Z " fill="rgb(0, 0, 0)" fill-opacity="1.000000" />
<path d="M 300.892578 85.335938 L 300.892578 84.412109 L 307.729980 84.412109 L 307.729980 85.335938 Z " fill="rgb(0, 0, 0)" fill-opacity="1.000000" />
<path d="M 307.892578 85.335938 L 307.892578 84.412109 L 314.729980 84.412109 L 314.729980 85.335938 Z " fill="rgb(0, 0, 0)" fill-opacity="1.000000" />
<path d="M 314.892578 85.335938 L 314.892578 84.412109 L 317.878906 84.412109 L 317.878906 77.300781 L 318.738281 77.300781 L 318.738281 85.335938 Z " fill="rgb(0, 0, 0)" fill-opacity="1.000000" />
<path d="M 172.608398 73.066406 Q 172.361328 73.694824 171.979980 74.720703 Q 171.448242 76.138672 171.265625 76.450195 Q 171.018555 76.869141 170.647949 77.078613 Q 170.277344 77.288086 169.783203 77.288086 L 168.988281 77.288086 L 168.988281 76.460938 L 169.573730 76.460938 Q 170.008789 76.460938 170.255859 76.208496 Q 170.502930 75.956055 170.884277 74.903320 L 168.558594 68.984375 L 169.605957 68.984375 L 171.389160 73.689453 L 173.145508 68.984375 L 174.192871 68.984375 Z " fill="rgb(0, 0, 0)" fill-opacity="1.000000" />
<path d="M 181.015625 71.498047 L 181.015625 71.981445 L 176.734863 71.981445 L 176.734863 72.013672 Q 176.691895 73.243652 177.204834 73.780762 Q 177.717773 74.317871 178.652344 74.317871 Q 179.125000 74.317871 179.640625 74.167480 Q 180.156250 74.017090 180.741699 73.710938 L 180.741699 74.693848 Q 180.177734 74.924805 179.654053 75.040283 Q 179.130371 75.155762 178.641602 75.155762 Q 177.239746 75.155762 176.450195 74.315186 Q 175.660645 73.474609 175.660645 71.997559 Q 175.660645 70.558105 176.434082 69.698730 Q 177.207520 68.839355 178.496582 68.839355 Q 179.645996 68.839355 180.309326 69.618164 Q 180.972656 70.396973 181.015625 71.498047 Z M 180.027344 71.208008 Q 179.962891 70.584961 179.573486 70.131104 Q 179.184082 69.677246 178.453613 69.677246 Q 177.739258 69.677246 177.277344 70.149902 Q 176.815430 70.622559 176.772461 71.213379 Z " fill="rgb(0, 0, 0)" fill-opacity="1.000000" />
<path d="M 187.645020 71.272461 L 187.645020 75.000000 L 186.651367 75.000000 L 186.651367 71.272461 Q 186.651367 70.461426 186.366699 70.080078 Q 186.082031 69.698730 185.475098 69.698730 Q 184.782227 69.698730 184.408936 70.190186 Q 184.035645 70.681641 184.035645 71.600098 L 184.035645 75.000000 L 183.047363 75.000000 L 183.047363 68.984375 L 184.035645 68.984375 L 184.035645 69.886719 Q 184.298828 69.371094 184.750000 69.105225 Q 185.201172 68.839355 185.818848 68.839355 Q 186.737305 68.839355 187.191162 69.443604 Q 187.645020 70.047852 187.645020 71.272461 Z " fill="rgb(0, 0, 0)" fill-opacity="1.000000" />
<path d="M 205.878906 78.319336 L 205.878906 64.300781 L 206.738281 64.300781 L 206.738281 78.319336 Z " fill="rgb(0, 0, 0)" fill-opacity="1.000000" />
<path d="M 209.892578 72.335938 L 209.892578 71.412109 L 216.729980 71.412109 L 216.729980 72.335938 Z " fill="rgb(0, 0, 0)" fill-opacity="1.000000" />
<path d="M 216.892578 72.335938 L 216.892578 71.412109 L 223.729980 71.412109 L 223.729980 72.335938 Z " fill="rgb(0, 0, 0)" fill-opacity="1.000000" />
<path d="M 223.892578 72.335938 L 223.892578 71.412109 L 230.729980 71.412109 L 230.729980 72.335938 Z " fill="rgb(0, 0, 0)" fill-opacity="1.000000" />
<path d="M 230.892578 72.335938 L 230.892578 71.412109 L 237.729980 71.412109 L 237.729980 72.335938 Z " fill="rgb(0, 0, 0)" fill-opacity="1.000000" />
<path d="M 237.892578 72.335938 L 237.892578 71.412109 L 244.729980 71.412109 L 244.729980 72.335938 Z " fill="rgb(0, 0, 0)" fill-opacity="1.000000" />
<path d="M 244.892578 72.335938 L 244.892578 71.412109 L 251.729980 71.412109 L 251.729980 72.335938 Z " fill="rgb(0, 0, 0)" fill-opacity="1.000000" />
<path d="M 252.032227 75.418945 L 252.032227 68.866211 L 258.590332 72.142578 Z " fill="rgb(0, 0, 0)" fill-opacity="1.000000" />
<path d="M 261.878906 78.319336 L 261.878906 64.300781 L 262.738281 64.300781 L 262.738281 78.319336 Z " fill="rgb(0, 0, 0)" fill-opacity="1.000000" />
<path d="M 281.047363 72.722656 L 281.047363 68.995117 L 282.035645 68.995117 L 282.035645 72.722656 Q 282.035645 73.533691 282.322998 73.915039 Q 282.610352 74.296387 283.211914 74.296387 Q 283.910156 74.296387 284.280762 73.804932 Q 284.651367 73.313477 284.651367 72.395020 L 284.651367 68.995117 L 285.645020 68.995117 L 285.645020 75.000000 L 284.651367 75.000000 L 284.651367 74.097656 Q 284.388184 74.618652 283.934326 74.887207 Q 283.480469 75.155762 282.873535 75.155762 Q 281.949707 75.155762 281.498535 74.551514 Q 281.047363 73.947266 281.047363 72.722656 Z " fill="rgb(0, 0, 0)" fill-opacity="1.000000" />
<path d="M 292.226074 69.193848 L 292.226074 70.160645 Q 291.801758 69.913574 291.372070 69.790039 Q 290.942383 69.666504 290.496582 69.666504 Q 289.825195 69.666504 289.494873 69.884033 Q 289.164551 70.101562 289.164551 70.547363 Q 289.164551 70.950195 289.411621 71.148926 Q 289.658691 71.347656 290.641602 71.535645 L 291.039062 71.610840 Q 291.774902 71.750488 292.153564 72.169434 Q 292.532227 72.588379 292.532227 73.259766 Q 292.532227 74.151367 291.898438 74.653564 Q 291.264648 75.155762 290.136719 75.155762 Q 289.690918 75.155762 289.202148 75.061768 Q 288.713379 74.967773 288.144043 74.779785 L 288.144043 73.759277 Q 288.697266 74.043945 289.202148 74.186279 Q 289.707031 74.328613 290.158203 74.328613 Q 290.813477 74.328613 291.173340 74.062744 Q 291.533203 73.796875 291.533203 73.318848 Q 291.533203 72.631348 290.217285 72.368164 L 290.174316 72.357422 L 289.803711 72.282227 Q 288.949707 72.115723 288.557617 71.720947 Q 288.165527 71.326172 288.165527 70.644043 Q 288.165527 69.779297 288.750977 69.309326 Q 289.336426 68.839355 290.421387 68.839355 Q 290.904785 68.839355 291.350586 68.927979 Q 291.796387 69.016602 292.226074 69.193848 Z " fill="rgb(0, 0, 0)" fill-opacity="1.000000" />
<path d="M 298.608398 69.752441 L 298.608398 66.642578 L 299.596680 66.642578 L 299.596680 75.000000 L 298.608398 75.000000 L 298.608398 74.242676 Q 298.361328 74.688477 297.950439 74.922119 Q 297.539551 75.155762 297.002441 75.155762 Q 295.912109 75.155762 295.286377 74.309814 Q 294.660645 73.463867 294.660645 71.976074 Q 294.660645 70.509766 295.289062 69.674561 Q 295.917480 68.839355 297.002441 68.839355 Q 297.544922 68.839355 297.958496 69.072998 Q 298.372070 69.306641 298.608398 69.752441 Z M 295.702637 71.997559 Q 295.702637 73.146973 296.067871 73.732422 Q 296.433105 74.317871 297.147461 74.317871 Q 297.861816 74.317871 298.235107 73.727051 Q 298.608398 73.136230 298.608398 71.997559 Q 298.608398 70.853516 298.235107 70.265381 Q 297.861816 69.677246 297.147461 69.677246 Q 296.433105 69.677246 296.067871 70.262695 Q 295.702637 70.848145 295.702637 71.997559 Z " fill="rgb(0, 0, 0)" fill-opacity="1.000000" />
<path d="M 317.878906 78.319336 L 317.878906 64.300781 L 318.738281 64.300781 L 318.738281 78.319336 Z " fill="rgb(0, 0, 0)" fill-opacity="1.000000" />
<path d="M 153.892578 59.335938 L 153.892578 58.412109 L 160.729980 58.412109 L 160.729980 59.335938 Z " fill="rgb(0, 0, 0)" fill-opacity="1.000000" />
<path d="M 160.892578 59.335938 L 160.892578 58.412109 L 167.729980 58.412109 L 167.729980 59.335938 Z " fill="rgb(0, 0, 0)" fill-opacity="1.000000" />
<path d="M 167.892578 59.335938 L 167.892578 58.412109 L 174.729980 58.412109 L 174.729980 59.335938 Z " fill="rgb(0, 0, 0)" fill-opacity="1.000000" />
<path d="M 174.892578 59.335938 L 174.892578 58.412109 L 181.729980 58.412109 L 181.729980 59.335938 Z " fill="rgb(0, 0, 0)" fill-opacity="1.000000" />
<path d="M 181.892578 59.335938 L 181.892578 58.412109 L 188.729980 58.412109 L 188.729980 59.335938 Z " fill="rgb(0, 0, 0)" fill-opacity="1.000000" />
<path d="M 188.892578 59.335938 L 188.892578 58.412109 L 195.729980 58.412109 L 195.729980 59.335938 Z " fill="rgb(0, 0, 0)" fill-opacity="1.000000" />
<path d="M 195.892578 59.335938 L 195.892578 58.412109 L 202.729980 58.412109 L 202.729980 59.335938 Z " fill="rgb(0, 0, 0)" fill-opacity="1.000000" />
<path d="M 205.878906 65.319336 L 205.878906 59.335938 L 202.892578 59.335938 L 202.892578 58.412109 L 206.738281 58.412109 L 206.738281 65.319336 Z " fill="rgb(0, 0, 0)" fill-opacity="1.000000" />
<path d="M 261.878906 65.319336 L 261.878906 58.412109 L 265.729980 58.412109 L 265.729980 59.335938 L 262.738281 59.335938 L 262.738281 65.319336 Z " fill="rgb(0, 0, 0)" fill-opacity="1.000000" />
<path d="M 265.892578 59.335938 L 265.892578 58.412109 L 272.729980 58.412109 L 272.729980 59.335938 Z " fill="rgb(0, 0, 0)" fill-opacity="1.000000" />
<path d="M 272.892578 59.335938 L 272.892578 58.412109 L 279.729980 58.412109 L 279.729980 59.335938 Z " fill="rgb(0, 0, 0)" fill-opacity="1.000000" />
<path d="M 279.892578 59.335938 L 279.892578 58.412109 L 286.729980 58.412109 L 286.729980 59.335938 Z " fill="rgb(0, 0, 0)" fill-opacity="1.000000" />
<path d="M 286.892578 59.335938 L 286.892578 58.412109 L 293.729980 58.412109 L 293.729980 59.335938 Z " fill="rgb(0, 0, 0)" fill-opacity="1.000000" />
<path d="M 293.892578 59.335938 L 293.892578 58.412109 L 300.729980 58.412109 L 300.729980 59.335938 Z " fill="rgb(0, 0, 0)" fill-opacity="1.000000" />
<path d="M 300.892578 59.335938 L 300.892578 58.412109 L 307.729980 58.412109 L 307.729980 59.335938 Z " fill="rgb(0, 0, 0)" fill-opacity="1.000000" />
<path d="M 307.892578 59.335938 L 307.892578 58.412109 L 314.729980 58.412109 L 314.729980 59.335938 Z " fill="rgb(0, 0, 0)" fill-opacity="1.000000" />
<path d="M 317.878906 65.319336 L 317.878906 59.335938 L 314.892578 59.335938 L 314.892578 58.412109 L 318.738281 58.412109 L 318.738281 65.319336 Z " fill="rgb(0, 0, 0)" fill-opacity="1.000000" />
<path d="M 177.878906 26.319336 L 177.878906 19.412109 L 181.729980 19.412109 L 181.729980 20.335938 L 178.738281 20.335938 L 178.738281 26.319336 Z " fill="rgb(0, 0, 0)" fill-opacity="1.000000" />
<path d="M 177.878906 39.319336 L 177.878906 25.300781 L 178.738281 25.300781 L 178.738281 39.319336 Z " fill="rgb(0, 0, 0)" fill-opacity="1.000000" />
<path d="M 178.308594 49.418945 L 175.032227 42.866211 L 181.590332 42.866211 Z " fill="rgb(0, 0, 0)" fill-opacity="1.000000" />
<path d="M 205.878906 33.335938 L 205.878906 25.300781 L 206.738281 25.300781 L 206.738281 32.412109 L 209.729980 32.412109 L 209.729980 33.335938 Z " fill="rgb(0, 0, 0)" fill-opacity="1.000000" />
<path d="M 209.892578 33.335938 L 209.892578 32.412109 L 216.729980 32.412109 L 216.729980 33.335938 Z " fill="rgb(0, 0, 0)" fill-opacity="1.000000" />
<path d="M 216.892578 33.335938 L 216.892578 32.412109 L 223.729980 32.412109 L 223.729980 33.335938 Z " fill="rgb(0, 0, 0)" fill-opacity="1.000000" />
<path d="M 223.892578 33.335938 L 223.892578 32.412109 L 230.729980 32.412109 L 230.729980 33.335938 Z " fill="rgb(0, 0, 0)" fill-opacity="1.000000" />
<path d="M 230.892578 33.335938 L 230.892578 32.412109 L 237.729980 32.412109 L 237.729980 33.335938 Z " fill="rgb(0, 0, 0)" fill-opacity="1.000000" />
<path d="M 237.892578 33.335938 L 237.892578 32.412109 L 244.729980 32.412109 L 244.729980 33.335938 Z " fill="rgb(0, 0, 0)" fill-opacity="1.000000" />
<path d="M 244.892578 33.335938 L 244.892578 32.412109 L 251.729980 32.412109 L 251.729980 33.335938 Z " fill="rgb(0, 0, 0)" fill-opacity="1.000000" />
<path d="M 251.892578 33.335938 L 251.892578 32.412109 L 258.729980 32.412109 L 258.729980 33.335938 Z " fill="rgb(0, 0, 0)" fill-opacity="1.000000" />
<path d="M 258.892578 33.335938 L 258.892578 32.412109 L 261.878906 32.412109 L 261.878906 25.300781 L 262.738281 25.300781 L 262.738281 33.335938 Z " fill="rgb(0, 0, 0)" fill-opacity="1.000000" />
<path d="M 181.892578 20.335938 L 181.892578 19.412109 L 188.729980 19.412109 L 188.729980 20.335938 Z " fill="rgb(0, 0, 0)" fill-opacity="1.000000" />
<path d="M 188.892578 20.335938 L 188.892578 19.412109 L 195.729980 19.412109 L 195.729980 20.335938 Z " fill="rgb(0, 0, 0)" fill-opacity="1.000000" />
<path d="M 195.892578 20.335938 L 195.892578 19.412109 L 202.729980 19.412109 L 202.729980 20.335938 Z " fill="rgb(0, 0, 0)" fill-opacity="1.000000" />
<path d="M 205.878906 26.319336 L 205.878906 12.300781 L 206.738281 12.300781 L 206.738281 26.319336 Z " fill="rgb(0, 0, 0)" fill-opacity="1.000000" />
<path d="M 230.203613 18.225098 Q 229.886719 17.978027 229.559082 17.865234 Q 229.231445 17.752441 228.839355 17.752441 Q 227.915527 17.752441 227.426758 18.332520 Q 226.937988 18.912598 226.937988 20.008301 L 226.937988 23.000000 L 225.944336 23.000000 L 225.944336 16.984375 L 226.937988 16.984375 L 226.937988 18.160645 Q 227.185059 17.521484 227.697998 17.180420 Q 228.210938 16.839355 228.914551 16.839355 Q 229.279785 16.839355 229.596680 16.930664 Q 229.913574 17.021973 230.203613 17.215332 Z " fill="rgb(0, 0, 0)" fill-opacity="1.000000" />
<path d="M 232.047363 20.722656 L 232.047363 16.995117 L 233.035645 16.995117 L 233.035645 20.722656 Q 233.035645 21.533691 233.322998 21.915039 Q 233.610352 22.296387 234.211914 22.296387 Q 234.910156 22.296387 235.280762 21.804932 Q 235.651367 21.313477 235.651367 20.395020 L 235.651367 16.995117 L 236.645020 16.995117 L 236.645020 23.000000 L 235.651367 23.000000 L 235.651367 22.097656 Q 235.388184 22.618652 234.934326 22.887207 Q 234.480469 23.155762 233.873535 23.155762 Q 232.949707 23.155762 232.498535 22.551514 Q 232.047363 21.947266 232.047363 20.722656 Z " fill="rgb(0, 0, 0)" fill-opacity="1.000000" />
<path d="M 242.930664 19.997559 Q 242.930664 18.848145 242.565430 18.262695 Q 242.200195 17.677246 241.485840 17.677246 Q 240.766113 17.677246 240.395508 18.265381 Q 240.024902 18.853516 240.024902 19.997559 Q 240.024902 21.136230 240.395508 21.727051 Q 240.766113 22.317871 241.485840 22.317871 Q 242.200195 22.317871 242.565430 21.732422 Q 242.930664 21.146973 242.930664 19.997559 Z M 240.024902 17.752441 Q 240.261230 17.312012 240.677490 17.075684 Q 241.093750 16.839355 241.641602 16.839355 Q 242.726562 16.839355 243.349609 17.674561 Q 243.972656 18.509766 243.972656 19.976074 Q 243.972656 21.463867 243.346924 22.309814 Q 242.721191 23.155762 241.630859 23.155762 Q 241.093750 23.155762 240.682861 22.922119 Q 240.271973 22.688477 240.024902 22.242676 L 240.024902 23.000000 L 239.036621 23.000000 L 239.036621 14.642578 L 240.024902 14.642578 Z " fill="rgb(0, 0, 0)" fill-opacity="1.000000" />
<path d="M 261.878906 26.319336 L 261.878906 12.300781 L 262.738281 12.300781 L 262.738281 26.319336 Z " fill="rgb(0, 0, 0)" fill-opacity="1.000000" />
<path d="M 205.878906 13.319336 L 205.878906 6.412109 L 209.729980 6.412109 L 209.729980 7.335938 L 206.738281 7.335938 L 206.738281 13.319336 Z " fill="rgb(0, 0, 0)" fill-opacity="1.000000" />
<path d="M 209.892578 7.335938 L 209.892578 6.412109 L 216.729980 6.412109 L 216.729980 7.335938 Z " fill="rgb(0, 0, 0)" fill-opacity="1.000000" />
<path d="M 216.892578 7.335938 L 216.892578 6.412109 L 223.729980 6.412109 L 223.729980 7.335938 Z " fill="rgb(0, 0, 0)" fill-opacity="1.000000" />
<path d="M 223.892578 7.335938 L 223.892578 6.412109 L 230.729980 6.412109 L 230.729980 7.335938 Z " fill="rgb(0, 0, 0)" fill-opacity="1.000000" />
<path d="M 230.892578 7.335938 L 230.892578 6.412109 L 237.729980 6.412109 L 237.729980 7.335938 Z " fill="rgb(0, 0, 0)" fill-opacity="1.000000" />
<path d="M 237.892578 7.335938 L 237.892578 6.412109 L 244.729980 6.412109 L 244.729980 7.335938 Z " fill="rgb(0, 0, 0)" fill-opacity="1.000000" />
<path d="M 244.892578 7.335938 L 244.892578 6.412109 L 251.729980 6.412109 L 251.729980 7.335938 Z " fill="rgb(0, 0, 0)" fill-opacity="1.000000" />
<path d="M 251.892578 7.335938 L 251.892578 6.412109 L 258.729980 6.412109 L 258.729980 7.335938 Z " fill="rgb(0, 0, 0)" fill-opacity="1.000000" />
<path d="M 261.878906 13.319336 L 261.878906 7.335938 L 258.892578 7.335938 L 258.892578 6.412109 L 262.738281 6.412109 L 262.738281 13.319336 Z " fill="rgb(0, 0, 0)" fill-opacity="1.000000" />
</svg>