<svg xmlns="http://www.w3.org/2000/svg" version="1.1" width="386" height="248">
<path d="M 2.449219 117.319336 L 2.449219 109.950195 L 6.729980 109.950195 L 6.729980 111.797852 L 4.167969 111.797852 L 4.167969 117.319336 Z " fill="rgb(0, 0, 0)" fill-opacity="1.000000" />
<path d="M 2.449219 130.319336 L 2.449219 116.300781 L 4.167969 116.300781 L 4.167969 130.319336 Z " fill="rgb(0, 0, 0)" fill-opacity="1.000000" />
<path d="M 2.449219 137.797852 L 2.449219 129.300781 L 4.167969 129.300781 L 4.167969 135.950195 L 6.729980 135.950195 L 6.729980 137.797852 Z " fill="rgb(0, 0, 0)" fill-opacity="1.000000" />
<path d="M 254.878906 156.319336 L 254.878906 142.300781 L 255.738281 142.300781 L 255.738281 156.319336 Z " fill="rgb(0, 0, 0)" fill-opacity="1.000000" />
<path d="M 254.878906 169.319336 L 254.878906 155.300781 L 255.738281 155.300781 L 255.738281 169.319336 Z " fill="rgb(0, 0, 0)" fill-opacity="1.000000" />
<path d="M 254.878906 176.335938 L 254.878906 168.300781 L 255.738281 168.300781 L 255.738281 175.412109 L 258.729980 175.412109 L 258.729980 176.335938 Z " fill="rgb(0, 0, 0)" fill-opacity="1.000000" />
<path d="M 282.878906 189.335938 L 282.878906 181.300781 L 283.738281 181.300781 L 283.738281 188.412109 L 286.729980 188.412109 L 286.729980 189.335938 Z " fill="rgb(0, 0, 0)" fill-opacity="1.000000" />
<path d="M 310.878906 208.319336 L 310.878906 194.300781 L 311.738281 194.300781 L 311.738281 208.319336 Z " fill="rgb(0, 0, 0)" fill-opacity="1.000000" />
<path d="M 310.878906 221.319336 L 310.878906 207.300781 L 311.738281 207.300781 L 311.738281 221.319336 Z " fill="rgb(0, 0, 0)" fill-opacity="1.000000" />
<path d="M 310.878906 228.335938 L 310.878906 220.300781 L 311.738281 220.300781 L 311.738281 227.412109 L 314.729980 227.412109 L 314.729980 228.335938 Z " fill="rgb(0, 0, 0)" fill-opacity="1.000000" />
<path d="M 314.892578 228.335938 L 314.892578 227.412109 L 321.729980 227.412109 L 321.729980 228.335938 Z " fill="rgb(0, 0, 0)" fill-opacity="1.000000" />
<path d="M 321.892578 228.335938 L 321.892578 227.412109 L 328.729980 227.412109 L 328.729980 228.335938 Z " fill="rgb(0, 0, 0)" fill-opacity="1.000000" />
<path d="M 329.032227 231.418945 L 329.032227 224.866211 L 335.590332 228.142578 Z " fill="rgb(0, 0, 0)" fill-opacity="1.000000" />
<path d="M 352.089355 228.830078 L 353.979980 228.830078 L 353.979980 231.000000 L 352.089355 231.000000 Z " fill="rgb(0, 0, 0)" fill-opacity="1.000000" />
<path d="M 359.089355 228.830078 L 360.979980 228.830078 L 360.979980 231.000000 L 359.089355 231.000000 Z " fill="rgb(0, 0, 0)" fill-opacity="1.000000" />
<path d="M 366.089355 228.830078 L 367.979980 228.830078 L 367.979980 231.000000 L 366.089355 231.000000 Z " fill="rgb(0, 0, 0)" fill-opacity="1.000000" />
<path d="M 286.892578 189.335938 L 286.892578 188.412109 L 293.729980 188.412109 L 293.729980 189.335938 Z " fill="rgb(0, 0, 0)" fill-opacity="1.000000" />
<path d="M 293.892578 189.335938 L 293.892578 188.412109 L 300.729980 188.412109 L 300.729980 189.335938 Z " fill="rgb(0, 0, 0)" fill-opacity="1.000000" />
<path d="M 300.892578 189.335938 L 300.892578 188.412109 L 307.729980 188.412109 L 307.729980 189.335938 Z " fill="rgb(0, 0, 0)" fill-opacity="1.000000" />
<path d="M 307.892578 189.335938 L 307.892578 188.412109 L 314.729980 188.412109 L 314.729980 189.335938 Z " fill="rgb(0, 0, 0)" fill-opacity="1.000000" />
<path d="M 314.892578 189.335938 L 314.892578 188.412109 L 321.729980 188.412109 L 321.729980 189.335938 Z " fill="rgb(0, 0, 0)" fill-opacity="1.000000" />
<path d="M 321.892578 189.335938 L 321.892578 188.412109 L 328.729980 188.412109 L 328.729980 189.335938 Z " fill="rgb(0, 0, 0)" fill-opacity="1.000000" />
<path d="M 328.892578 189.335938 L 328.892578 188.412109 L 335.729980 188.412109 L 335.729980 189.335938 Z " fill="rgb(0, 0, 0)" fill-opacity="1.000000" />
<path d="M 335.892578 189.335938 L 335.892578 188.412109 L 338.878906 188.412109 L 338.878906 181.300781 L 339.738281 181.300781 L 339.738281 189.335938 Z " fill="rgb(0, 0, 0)" fill-opacity="1.000000" />
<path d="M 258.892578 176.335938 L 258.892578 175.412109 L 265.729980 175.412109 L 265.729980 176.335938 Z " fill="rgb(0, 0, 0)" fill-opacity="1.000000" />
<path d="M 265.892578 176.335938 L 265.892578 175.412109 L 272.729980 175.412109 L 272.729980 176.335938 Z " fill="rgb(0, 0, 0)" fill-opacity="1.000000" />
<path d="M 273.032227 179.418945 L 273.032227 172.866211 L 279.590332 176.142578 Z " fill="rgb(0, 0, 0)" fill-opacity="1.000000" />
<path d="M 282.878906 182.319336 L 282.878906 168.300781 L 283.738281 168.300781 L 283.738281 182.319336 Z " fill="rgb(0, 0, 0)" fill-opacity="1.000000" />
<path d="M 307.203613 174.225098 Q 306.886719 173.978027 306.559082 173.865234 Q 306.231445 173.752441 305.839355 173.752441 Q 304.915527 173.752441 304.426758 174.332520 Q 303.937988 174.912598 303.937988 176.008301 L 303.937988 179.000000 L 302.944336 179.000000 L 302.944336 172.984375 L 303.937988 172.984375 L 303.937988 174.160645 Q 304.185059 173.521484 304.697998 173.180420 Q 305.210938 172.839355 305.914551 172.839355 Q 306.279785 172.839355 306.596680 172.930664 Q 306.913574 173.021973 307.203613 173.215332 Z " fill="rgb(0, 0, 0)" fill-opacity="1.000000" />
<path d="M 309.047363 176.722656 L 309.047363 172.995117 L 310.035645 172.995117 L 310.035645 176.722656 Q 310.035645 177.533691 310.322998 177.915039 Q 310.610352 178.296387 311.211914 178.296387 Q 311.910156 178.296387 312.280762 177.804932 Q 312.651367 177.313477 312.651367 176.395020 L 312.651367 172.995117 L 313.645020 172.995117 L 313.645020 179.000000 L 312.651367 179.000000 L 312.651367 178.097656 Q 312.388184 178.618652 311.934326 178.887207 Q 311.480469 179.155762 310.873535 179.155762 Q 309.949707 179.155762 309.498535 178.551514 Q 309.047363 177.947266 309.047363 176.722656 Z " fill="rgb(0, 0, 0)" fill-opacity="1.000000" />
<path d="M 319.930664 175.997559 Q 319.930664 174.848145 319.565430 174.262695 Q 319.200195 173.677246 318.485840 173.677246 Q 317.766113 173.677246 317.395508 174.265381 Q 317.024902 174.853516 317.024902 175.997559 Q 317.024902 177.136230 317.395508 177.727051 Q 317.766113 178.317871 318.485840 178.317871 Q 319.200195 178.317871 319.565430 177.732422 Q 319.930664 177.146973 319.930664 175.997559 Z M 317.024902 173.752441 Q 317.261230 173.312012 317.677490 173.075684 Q 318.093750 172.839355 318.641602 172.839355 Q 319.726562 172.839355 320.349609 173.674561 Q 320.972656 174.509766 320.972656 175.976074 Q 320.972656 177.463867 320.346924 178.309814 Q 319.721191 179.155762 318.630859 179.155762 Q 318.093750 179.155762 317.682861 178.922119 Q 317.271973 178.688477 317.024902 178.242676 L 317.024902 179.000000 L 316.036621 179.000000 L 316.036621 170.642578 L 317.024902 170.642578 Z " fill="rgb(0, 0, 0)" fill-opacity="1.000000" />
<path d="M 338.878906 182.319336 L 338.878906 168.300781 L 339.738281 168.300781 L 339.738281 182.319336 Z " fill="rgb(0, 0, 0)" fill-opacity="1.000000" />
<path d="M 282.878906 169.319336 L 282.878906 162.412109 L 286.729980 162.412109 L 286.729980 163.335938 L 283.738281 163.335938 L 283.738281 169.319336 Z " fill="rgb(0, 0, 0)" fill-opacity="1.000000" />
<path d="M 286.892578 163.335938 L 286.892578 162.412109 L 293.729980 162.412109 L 293.729980 163.335938 Z " fill="rgb(0, 0, 0)" fill-opacity="1.000000" />
<path d="M 293.892578 163.335938 L 293.892578 162.412109 L 300.729980 162.412109 L 300.729980 163.335938 Z " fill="rgb(0, 0, 0)" fill-opacity="1.000000" />
<path d="M 300.892578 163.335938 L 300.892578 162.412109 L 307.729980 162.412109 L 307.729980 163.335938 Z " fill="rgb(0, 0, 0)" fill-opacity="1.000000" />
<path d="M 307.892578 163.335938 L 307.892578 162.412109 L 314.729980 162.412109 L 314.729980 163.335938 Z " fill="rgb(0, 0, 0)" fill-opacity="1.000000" />
<path d="M 314.892578 163.335938 L 314.892578 162.412109 L 321.729980 162.412109 L 321.729980 163.335938 Z " fill="rgb(0, 0, 0)" fill-opacity="1.000000" />
<path d="M 321.892578 163.335938 L 321.892578 162.412109 L 328.729980 162.412109 L 328.729980 163.335938 Z " fill="rgb(0, 0, 0)" fill-opacity="1.000000" />
<path d="M 328.892578 163.335938 L 328.892578 162.412109 L 335.729980 162.412109 L 335.729980 163.335938 Z " fill="rgb(0, 0, 0)" fill-opacity="1.000000" />
<path d="M 338.878906 169.319336 L 338.878906 163.335938 L 335.892578 163.335938 L 335.892578 162.412109 L 339.738281 162.412109 L 339.738281 169.319336 Z " fill="rgb(0, 0, 0)" fill-opacity="1.000000" />
<path d="M 6.892578 137.797852 L 6.892578 135.950195 L 13.729980 135.950195 L 13.729980 137.797852 Z " fill="rgb(0, 0, 0)" fill-opacity="1.000000" />
<path d="M 13.892578 137.797852 L 13.892578 135.950195 L 20.729980 135.950195 L 20.729980 137.797852 Z " fill="rgb(0, 0, 0)" fill-opacity="1.000000" />
<path d="M 20.892578 137.797852 L 20.892578 135.950195 L 27.729980 135.950195 L 27.729980 137.797852 Z " fill="rgb(0, 0, 0)" fill-opacity="1.000000" />
<path d="M 27.892578 137.797852 L 27.892578 135.950195 L 34.729980 135.950195 L 34.729980 137.797852 Z " fill="rgb(0, 0, 0)" fill-opacity="1.000000" />
<path d="M 34.892578 137.797852 L 34.892578 135.950195 L 41.729980 135.950195 L 41.729980 137.797852 Z " fill="rgb(0, 0, 0)" fill-opacity="1.000000" />
<path d="M 41.892578 137.797852 L 41.892578 135.950195 L 48.729980 135.950195 L 48.729980 137.797852 Z " fill="rgb(0, 0, 0)" fill-opacity="1.000000" />
<path d="M 48.892578 137.797852 L 48.892578 135.950195 L 55.729980 135.950195 L 55.729980 137.797852 Z " fill="rgb(0, 0, 0)" fill-opacity="1.000000" />
<path d="M 55.892578 137.797852 L 55.892578 135.950195 L 58.449219 135.950195 L 58.449219 129.300781 L 60.167969 129.300781 L 60.167969 137.797852 Z " fill="rgb(0, 0, 0)" fill-opacity="1.000000" />
<path d="M 226.878906 137.335938 L 226.878906 129.300781 L 227.738281 129.300781 L 227.738281 136.412109 L 230.729980 136.412109 L 230.729980 137.335938 Z " fill="rgb(0, 0, 0)" fill-opacity="1.000000" />
<path d="M 230.892578 137.335938 L 230.892578 136.412109 L 237.729980 136.412109 L 237.729980 137.335938 Z " fill="rgb(0, 0, 0)" fill-opacity="1.000000" />
<path d="M 237.892578 137.335938 L 237.892578 136.412109 L 244.729980 136.412109 L 244.729980 137.335938 Z " fill="rgb(0, 0, 0)" fill-opacity="1.000000" />
<path d="M 244.892578 137.335938 L 244.892578 136.412109 L 251.729980 136.412109 L 251.729980 137.335938 Z " fill="rgb(0, 0, 0)" fill-opacity="1.000000" />
<path d="M 251.892578 137.335938 L 251.892578 136.412109 L 258.729980 136.412109 L 258.729980 137.335938 Z " fill="rgb(0, 0, 0)" fill-opacity="1.000000" />
<path d="M 258.892578 137.335938 L 258.892578 136.412109 L 265.729980 136.412109 L 265.729980 137.335938 Z " fill="rgb(0, 0, 0)" fill-opacity="1.000000" />
<path d="M 265.892578 137.335938 L 265.892578 136.412109 L 272.729980 136.412109 L 272.729980 137.335938 Z " fill="rgb(0, 0, 0)" fill-opacity="1.000000" />
<path d="M 272.892578 137.335938 L 272.892578 136.412109 L 279.729980 136.412109 L 279.729980 137.335938 Z " fill="rgb(0, 0, 0)" fill-opacity="1.000000" />
<path d="M 279.892578 137.335938 L 279.892578 136.412109 L 282.878906 136.412109 L 282.878906 129.300781 L 283.738281 129.300781 L 283.738281 137.335938 Z " fill="rgb(0, 0, 0)" fill-opacity="1.000000" />
<path d="M 24.861816 124.824707 Q 24.861816 125.490723 25.106201 125.829102 Q 25.350586 126.167480 25.828613 126.167480 L 26.983398 126.167480 L 26.983398 127.000000 L 25.731934 127.000000 Q 24.845703 127.000000 24.359619 126.433350 Q 23.873535 125.866699 23.873535 124.824707 L 23.873535 119.383789 L 22.289062 119.383789 L 22.289062 118.610352 L 24.861816 118.610352 Z " fill="rgb(0, 0, 0)" fill-opacity="1.000000" />
<path d="M 29.697266 121.005859 L 32.227051 121.005859 L 32.227051 126.231934 L 34.187500 126.231934 L 34.187500 127.000000 L 29.278320 127.000000 L 29.278320 126.231934 L 31.238770 126.231934 L 31.238770 121.773926 L 29.697266 121.773926 Z M 31.238770 118.669434 L 32.227051 118.669434 L 32.227051 119.915527 L 31.238770 119.915527 Z " fill="rgb(0, 0, 0)" fill-opacity="1.000000" />
<path d="M 41.203613 122.225098 Q 40.886719 121.978027 40.559082 121.865234 Q 40.231445 121.752441 39.839355 121.752441 Q 38.915527 121.752441 38.426758 122.332520 Q 37.937988 122.912598 37.937988 124.008301 L 37.937988 127.000000 L 36.944336 127.000000 L 36.944336 120.984375 L 37.937988 120.984375 L 37.937988 122.160645 Q 38.185059 121.521484 38.697998 121.180420 Q 39.210938 120.839355 39.914551 120.839355 Q 40.279785 120.839355 40.596680 120.930664 Q 40.913574 121.021973 41.203613 121.215332 Z " fill="rgb(0, 0, 0)" fill-opacity="1.000000" />
<path d="M 58.449219 130.319336 L 58.449219 116.300781 L 60.167969 116.300781 L 60.167969 130.319336 Z " fill="rgb(0, 0, 0)" fill-opacity="1.000000" />
<path d="M 63.032227 124.142578 L 69.590332 120.866211 L 69.590332 127.418945 Z " fill="rgb(0, 0, 0)" fill-opacity="1.000000" />
<path d="M 69.892578 124.335938 L 69.892578 123.412109 L 76.729980 123.412109 L 76.729980 124.335938 Z " fill="rgb(0, 0, 0)" fill-opacity="1.000000" />
<path d="M 76.892578 124.335938 L 76.892578 123.412109 L 83.729980 123.412109 L 83.729980 124.335938 Z " fill="rgb(0, 0, 0)" fill-opacity="1.000000" />
<path d="M 83.892578 124.335938 L 83.892578 123.412109 L 86.878906 123.412109 L 86.878906 116.300781 L 87.738281 116.300781 L 87.738281 124.335938 Z " fill="rgb(0, 0, 0)" fill-opacity="1.000000" />
<path d="M 198.878906 124.335938 L 198.878906 116.300781 L 199.738281 116.300781 L 199.738281 123.412109 L 202.729980 123.412109 L 202.729980 124.335938 Z " fill="rgb(0, 0, 0)" fill-opacity="1.000000" />
<path d="M 202.892578 124.335938 L 202.892578 123.412109 L 209.729980 123.412109 L 209.729980 124.335938 Z " fill="rgb(0, 0, 0)" fill-opacity="1.000000" />
<path d="M 209.892578 124.335938 L 209.892578 123.412109 L 216.729980 123.412109 L 216.729980 124.335938 Z " fill="rgb(0, 0, 0)" fill-opacity="1.000000" />
<path d="M 217.032227 127.418945 L 217.032227 120.866211 L 223.590332 124.142578 Z " fill="rgb(0, 0, 0)" fill-opacity="1.000000" />
<path d="M 226.878906 130.319336 L 226.878906 116.300781 L 227.738281 116.300781 L 227.738281 130.319336 Z " fill="rgb(0, 0, 0)" fill-opacity="1.000000" />
<path d="M 251.015625 123.498047 L 251.015625 123.981445 L 246.734863 123.981445 L 246.734863 124.013672 Q 246.691895 125.243652 247.204834 125.780762 Q 247.717773 126.317871 248.652344 126.317871 Q 249.125000 126.317871 249.640625 126.167480 Q 250.156250 126.017090 250.741699 125.710938 L 250.741699 126.693848 Q 250.177734 126.924805 249.654053 127.040283 Q 249.130371 127.155762 248.641602 127.155762 Q 247.239746 127.155762 246.450195 126.315186 Q 245.660645 125.474609 245.660645 123.997559 Q 245.660645 122.558105 246.434082 121.698730 Q 247.207520 120.839355 248.496582 120.839355 Q 249.645996 120.839355 250.309326 121.618164 Q 250.972656 122.396973 251.015625 123.498047 Z M 250.027344 123.208008 Q 249.962891 122.584961 249.573486 122.131104 Q 249.184082 121.677246 248.453613 121.677246 Q 247.739258 121.677246 247.277344 122.149902 Q 246.815430 122.622559 246.772461 123.213379 Z " fill="rgb(0, 0, 0)" fill-opacity="1.000000" />
<path d="M 253.047363 124.722656 L 253.047363 120.995117 L 254.035645 120.995117 L 254.035645 124.722656 Q 254.035645 125.533691 254.322998 125.915039 Q 254.610352 126.296387 255.211914 126.296387 Q 255.910156 126.296387 256.280762 125.804932 Q 256.651367 125.313477 256.651367 124.395020 L 256.651367 120.995117 L 257.645020 120.995117 L 257.645020 127.000000 L 256.651367 127.000000 L 256.651367 126.097656 Q 256.388184 126.618652 255.934326 126.887207 Q 255.480469 127.155762 254.873535 127.155762 Q 253.949707 127.155762 253.498535 126.551514 Q 253.047363 125.947266 253.047363 124.722656 Z " fill="rgb(0, 0, 0)" fill-opacity="1.000000" />
<path d="M 265.203613 122.225098 Q 264.886719 121.978027 264.559082 121.865234 Q 264.231445 121.752441 263.839355 121.752441 Q 262.915527 121.752441 262.426758 122.332520 Q 261.937988 122.912598 261.937988 124.008301 L 261.937988 127.000000 L 260.944336 127.000000 L 260.944336 120.984375 L 261.937988 120.984375 L 261.937988 122.160645 Q 262.185059 121.521484 262.697998 121.180420 Q 263.210938 120.839355 263.914551 120.839355 Q 264.279785 120.839355 264.596680 120.930664 Q 264.913574 121.021973 265.203613 121.215332 Z " fill="rgb(0, 0, 0)" fill-opacity="1.000000" />
<path d="M 282.878906 130.319336 L 282.878906 116.300781 L 283.738281 116.300781 L 283.738281 130.319336 Z " fill="rgb(0, 0, 0)" fill-opacity="1.000000" />
<path d="M 6.892578 111.797852 L 6.892578 109.950195 L 13.729980 109.950195 L 13.729980 111.797852 Z " fill="rgb(0, 0, 0)" fill-opacity="1.000000" />
<path d="M 13.892578 111.797852 L 13.892578 109.950195 L 20.729980 109.950195 L 20.729980 111.797852 Z " fill="rgb(0, 0, 0)" fill-opacity="1.000000" />
<path d="M 20.892578 111.797852 L 20.892578 109.950195 L 27.729980 109.950195 L 27.729980 111.797852 Z " fill="rgb(0, 0, 0)" fill-opacity="1.000000" />
<path d="M 27.892578 111.797852 L 27.892578 109.950195 L 34.729980 109.950195 L 34.729980 111.797852 Z " fill="rgb(0, 0, 0)" fill-opacity="1.000000" />
<path d="M 34.892578 111.797852 L 34.892578 109.950195 L 41.729980 109.950195 L 41.729980 111.797852 Z " fill="rgb(0, 0, 0)" fill-opacity="1.000000" />
<path d="M 41.892578 111.797852 L 41.892578 109.950195 L 48.729980 109.950195 L 48.729980 111.797852 Z " fill="rgb(0, 0, 0)" fill-opacity="1.000000" />
<path d="M 48.892578 111.797852 L 48.892578 109.950195 L 55.729980 109.950195 L 55.729980 111.797852 Z " fill="rgb(0, 0, 0)" fill-opacity="1.000000" />
<path d="M 58.449219 117.319336 L 58.449219 111.797852 L 55.892578 111.797852 L 55.892578 109.950195 L 60.167969 109.950195 L 60.167969 117.319336 Z " fill="rgb(0, 0, 0)" fill-opacity="1.000000" />
<path d="M 86.878906 117.319336 L 86.878906 103.300781 L 87.738281 103.300781 L 87.738281 117.319336 Z " fill="rgb(0, 0, 0)" fill-opacity="1.000000" />
<path d="M 198.878906 117.319336 L 198.878906 103.300781 L 199.738281 103.300781 L 199.738281 117.319336 Z " fill="rgb(0, 0, 0)" fill-opacity="1.000000" />
<path d="M 226.878906 117.319336 L 226.878906 110.412109 L 230.729980 110.412109 L 230.729980 111.335938 L 227.738281 111.335938 L 227.738281 117.319336 Z " fill="rgb(0, 0, 0)" fill-opacity="1.000000" />
<path d="M 230.892578 111.335938 L 230.892578 110.412109 L 237.729980 110.412109 L 237.729980 111.335938 Z " fill="rgb(0, 0, 0)" fill-opacity="1.000000" />
<path d="M 237.892578 111.335938 L 237.892578 110.412109 L 244.729980 110.412109 L 244.729980 111.335938 Z " fill="rgb(0, 0, 0)" fill-opacity="1.000000" />
<path d="M 244.892578 111.335938 L 244.892578 110.412109 L 251.729980 110.412109 L 251.729980 111.335938 Z " fill="rgb(0, 0, 0)" fill-opacity="1.000000" />
<path d="M 251.892578 111.335938 L 251.892578 110.412109 L 258.729980 110.412109 L 258.729980 111.335938 Z " fill="rgb(0, 0, 0)" fill-opacity="1.000000" />
<path d="M 258.892578 111.335938 L 258.892578 110.412109 L 265.729980 110.412109 L 265.729980 111.335938 Z " fill="rgb(0, 0, 0)" fill-opacity="1.000000" />
<path d="M 265.892578 111.335938 L 265.892578 110.412109 L 272.729980 110.412109 L 272.729980 111.335938 Z " fill="rgb(0, 0, 0)" fill-opacity="1.000000" />
<path d="M 272.892578 111.335938 L 272.892578 110.412109 L 279.729980 110.412109 L 279.729980 111.335938 Z " fill="rgb(0, 0, 0)" fill-opacity="1.000000" />
<path d="M 282.878906 117.319336 L 282.878906 111.335938 L 279.892578 111.335938 L 279.892578 110.412109 L 283.738281 110.412109 L 283.738281 117.319336 Z " fill="rgb(0, 0, 0)" fill-opacity="1.000000" />
<path d="M 58.878906 65.319336 L 58.878906 58.412109 L 62.729980 58.412109 L 62.729980 59.335938 L 59.738281 59.335938 L 59.738281 65.319336 Z " fill="rgb(0, 0, 0)" fill-opacity="1.000000" />
<path d="M 58.878906 78.319336 L 58.878906 64.300781 L 59.738281 64.300781 L 59.738281 78.319336 Z " fill="rgb(0, 0, 0)" fill-opacity="1.000000" />
<path d="M 58.878906 85.335938 L 58.878906 77.300781 L 59.738281 77.300781 L 59.738281 84.412109 L 62.729980 84.412109 L 62.729980 85.335938 Z " fill="rgb(0, 0, 0)" fill-opacity="1.000000" />
<path d="M 86.878906 104.319336 L 86.878906 90.300781 L 87.738281 90.300781 L 87.738281 104.319336 Z " fill="rgb(0, 0, 0)" fill-opacity="1.000000" />
<path d="M 198.878906 104.319336 L 198.878906 90.300781 L 199.738281 90.300781 L 199.738281 104.319336 Z " fill="rgb(0, 0, 0)" fill-opacity="1.000000" />
<path d="M 62.892578 85.335938 L 62.892578 84.412109 L 69.729980 84.412109 L 69.729980 85.335938 Z " fill="rgb(0, 0, 0)" fill-opacity="1.000000" />
<path d="M 69.892578 85.335938 L 69.892578 84.412109 L 76.729980 84.412109 L 76.729980 85.335938 Z " fill="rgb(0, 0, 0)" fill-opacity="1.000000" />
<path d="M 76.892578 85.335938 L 76.892578 84.412109 L 83.729980 84.412109 L 83.729980 85.335938 Z " fill="rgb(0, 0, 0)" fill-opacity="1.000000" />
<path d="M 83.892578 85.335938 L 83.892578 84.412109 L 90.729980 84.412109 L 90.729980 85.335938 Z " fill="rgb(0, 0, 0)" fill-opacity="1.000000" />
<path d="M 90.892578 85.335938 L 90.892578 84.412109 L 97.729980 84.412109 L 97.729980 85.335938 Z " fill="rgb(0, 0, 0)" fill-opacity="1.000000" />
<path d="M 97.892578 85.335938 L 97.892578 84.412109 L 104.729980 84.412109 L 104.729980 85.335938 Z " fill="rgb(0, 0, 0)" fill-opacity="1.000000" />
<path d="M 104.892578 85.335938 L 104.892578 84.412109 L 111.729980 84.412109 L 111.729980 85.335938 Z " fill="rgb(0, 0, 0)" fill-opacity="1.000000" />
<path d="M 111.892578 85.335938 L 111.892578 84.412109 L 114.878906 84.412109 L 114.878906 77.300781 L 115.738281 77.300781 L 115.738281 85.335938 Z " fill="rgb(0, 0, 0)" fill-opacity="1.000000" />
<path d="M 170.878906 85.335938 L 170.878906 77.300781 L 171.738281 77.300781 L 171.738281 84.412109 L 174.729980 84.412109 L 174.729980 85.335938 Z " fill="rgb(0, 0, 0)" fill-opacity="1.000000" />
<path d="M 174.892578 85.335938 L 174.892578 84.412109 L 181.729980 84.412109 L 181.729980 85.335938 Z " fill="rgb(0, 0, 0)" fill-opacity="1.000000" />
<path d="M 181.892578 85.335938 L 181.892578 84.412109 L 188.729980 84.412109 L 188.729980 85.335938 Z " fill="rgb(0, 0, 0)" fill-opacity="1.000000" />
<path d="M 188.892578 85.335938 L 188.892578 84.412109 L 195.729980 84.412109 L 195.729980 85.335938 Z " fill="rgb(0, 0, 0)" fill-opacity="1.000000" />
<path d="M 195.892578 85.335938 L 195.892578 84.412109 L 202.729980 84.412109 L 202.729980 85.335938 Z " fill="rgb(0, 0, 0)" fill-opacity="1.000000" />
<path d="M 202.892578 85.335938 L 202.892578 84.412109 L 209.729980 84.412109 L 209.729980 85.335938 Z " fill="rgb(0, 0, 0)" fill-opacity="1.000000" />
<path d="M 209.892578 85.335938 L 209.892578 84.412109 L 216.729980 84.412109 L 216.729980 85.335938 Z " fill="rgb(0, 0, 0)" fill-opacity="1.000000" />
<path d="M 216.892578 85.335938 L 216.892578 84.412109 L 223.729980 84.412109 L 223.729980 85.335938 Z " fill="rgb(0, 0, 0)" fill-opacity="1.000000" />
<path d="M 223.892578 85.335938 L 223.892578 84.412109 L 226.878906 84.412109 L 226.878906 77.300781 L 227.738281 77.300781 L 227.738281 85.335938 Z " fill="rgb(0, 0, 0)" fill-opacity="1.000000" />
<path d="M 81.608398 73.066406 Q 81.361328 73.694824 80.979980 74.720703 Q 80.448242 76.138672 80.265625 76.450195 Q 80.018555 76.869141 79.647949 77.078613 Q 79.277344 77.288086 78.783203 77.288086 L 77.988281 77.288086 L 77.988281 76.460938 L 78.573730 76.460938 Q 79.008789 76.460938 79.255859 76.208496 Q 79.502930 75.956055 79.884277 74.903320 L 77.558594 68.984375 L 78.605957 68.984375 L 80.389160 73.689453 L 82.145508 68.984375 L 83.192871 68.984375 Z " fill="rgb(0, 0, 0)" fill-opacity="1.000000" />
<path d="M 90.015625 71.498047 L 90.015625 71.981445 L 85.734863 71.981445 L 85.734863 72.013672 Q 85.691895 73.243652 86.204834 73.780762 Q 86.717773 74.317871 87.652344 74.317871 Q 88.125000 74.317871 88.640625 74.167480 Q 89.156250 74.017090 89.741699 73.710938 L 89.741699 74.693848 Q 89.177734 74.924805 88.654053 75.040283 Q 88.130371 75.155762 87.641602 75.155762 Q 86.239746 75.155762 85.450195 74.315186 Q 84.660645 73.474609 84.660645 71.997559 Q 84.660645 70.558105 85.434082 69.698730 Q 86.207520 68.839355 87.496582 68.839355 Q 88.645996 68.839355 89.309326 69.618164 Q 89.972656 70.396973 90.015625 71.498047 Z M 89.027344 71.208008 Q 88.962891 70.584961 88.573486 70.131104 Q 88.184082 69.677246 87.453613 69.677246 Q 86.739258 69.677246 86.277344 70.149902 Q 85.815430 70.622559 85.772461 71.213379 Z " fill="rgb(0, 0, 0)" fill-opacity="1.000000" />
<path d="M 96.645020 71.272461 L 96.645020 75.000000 L 95.651367 75.000000 L 95.651367 71.272461 Q 95.651367 70.461426 95.366699 70.080078 Q 95.082031 69.698730 94.475098 69.698730 Q 93.782227 69.698730 93.408936 70.190186 Q 93.035645 70.681641 93.035645 71.600098 L 93.035645 75.000000 L 92.047363 75.000000 L 92.047363 68.984375 L 93.035645 68.984375 L 93.035645 69.886719 Q 93.298828 69.371094 93.750000 69.105225 Q 94.201172 68.839355 94.818848 68.839355 Q 95.737305 68.839355 96.191162 69.443604 Q 96.645020 70.047852 96.645020 71.272461 Z " fill="rgb(0, 0, 0)" fill-opacity="1.000000" />
<path d="M 114.878906 78.319336 L 114.878906 64.300781 L 115.738281 64.300781 L 115.738281 78.319336 Z " fill="rgb(0, 0, 0)" fill-opacity="1.000000" />
<path d="M 119.032227 72.142578 L 125.590332 68.866211 L 125.590332 75.418945 Z " fill="rgb(0, 0, 0)" fill-opacity="1.000000" />
<path d="M 125.892578 72.335938 L 125.892578 71.412109 L 132.729980 71.412109 L 132.729980 72.335938 Z " fill="rgb(0, 0, 0)" fill-opacity="1.000000" />
<path d="M 132.892578 72.335938 L 132.892578 71.412109 L 139.729980 71.412109 L 139.729980 72.335938 Z " fill="rgb(0, 0, 0)" fill-opacity="1.000000" />
<path d="M 139.892578 72.335938 L 139.892578 71.412109 L 142.878906 71.412109 L 142.878906 64.300781 L 143.738281 64.300781 L 143.738281 71.412109 L 146.729980 71.412109 L 146.729980 72.335938 Z " fill="rgb(0, 0, 0)" fill-opacity="1.000000" />
<path d="M 146.892578 72.335938 L 146.892578 71.412109 L 153.729980 71.412109 L 153.729980 72.335938 Z " fill="rgb(0, 0, 0)" fill-opacity="1.000000" />
<path d="M 153.892578 72.335938 L 153.892578 71.412109 L 160.729980 71.412109 L 160.729980 72.335938 Z " fill="rgb(0, 0, 0)" fill-opacity="1.000000" />
<path d="M 161.032227 75.418945 L 161.032227 68.866211 L 167.590332 72.142578 Z " fill="rgb(0, 0, 0)" fill-opacity="1.000000" />
<path d="M 170.878906 78.319336 L 170.878906 64.300781 L 171.738281 64.300781 L 171.738281 78.319336 Z " fill="rgb(0, 0, 0)" fill-opacity="1.000000" />
<path d="M 190.047363 72.722656 L 190.047363 68.995117 L 191.035645 68.995117 L 191.035645 72.722656 Q 191.035645 73.533691 191.322998 73.915039 Q 191.610352 74.296387 192.211914 74.296387 Q 192.910156 74.296387 193.280762 73.804932 Q 193.651367 73.313477 193.651367 72.395020 L 193.651367 68.995117 L 194.645020 68.995117 L 194.645020 75.000000 L 193.651367 75.000000 L 193.651367 74.097656 Q 193.388184 74.618652 192.934326 74.887207 Q 192.480469 75.155762 191.873535 75.155762 Q 190.949707 75.155762 190.498535 74.551514 Q 190.047363 73.947266 190.047363 72.722656 Z " fill="rgb(0, 0, 0)" fill-opacity="1.000000" />
<path d="M 201.226074 69.193848 L 201.226074 70.160645 Q 200.801758 69.913574 200.372070 69.790039 Q 199.942383 69.666504 199.496582 69.666504 Q 198.825195 69.666504 198.494873 69.884033 Q 198.164551 70.101562 198.164551 70.547363 Q 198.164551 70.950195 198.411621 71.148926 Q 198.658691 71.347656 199.641602 71.535645 L 200.039062 71.610840 Q 200.774902 71.750488 201.153564 72.169434 Q 201.532227 72.588379 201.532227 73.259766 Q 201.532227 74.151367 200.898438 74.653564 Q 200.264648 75.155762 199.136719 75.155762 Q 198.690918 75.155762 198.202148 75.061768 Q 197.713379 74.967773 197.144043 74.779785 L 197.144043 73.759277 Q 197.697266 74.043945 198.202148 74.186279 Q 198.707031 74.328613 199.158203 74.328613 Q 199.813477 74.328613 200.173340 74.062744 Q 200.533203 73.796875 200.533203 73.318848 Q 200.533203 72.631348 199.217285 72.368164 L 199.174316 72.357422 L 198.803711 72.282227 Q 197.949707 72.115723 197.557617 71.720947 Q 197.165527 71.326172 197.165527 70.644043 Q 197.165527 69.779297 197.750977 69.309326 Q 198.336426 68.839355 199.421387 68.839355 Q 199.904785 68.839355 200.350586 68.927979 Q 200.796387 69.016602 201.226074 69.193848 Z " fill="rgb(0, 0, 0)" fill-opacity="1.000000" />
<path d="M 207.608398 69.752441 L 207.608398 66.642578 L 208.596680 66.642578 L 208.596680 75.000000 L 207.608398 75.000000 L 207.608398 74.242676 Q 207.361328 74.688477 206.950439 74.922119 Q 206.539551 75.155762 206.002441 75.155762 Q 204.912109 75.155762 204.286377 74.309814 Q 203.660645 73.463867 203.660645 71.976074 Q 203.660645 70.509766 204.289062 69.674561 Q 204.917480 68.839355 206.002441 68.839355 Q 206.544922 68.839355 206.958496 69.072998 Q 207.372070 69.306641 207.608398 69.752441 Z M 204.702637 71.997559 Q 204.702637 73.146973 205.067871 73.732422 Q 205.433105 74.317871 206.147461 74.317871 Q 206.861816 74.317871 207.235107 73.727051 Q 207.608398 73.136230 207.608398 71.997559 Q 207.608398 70.853516 207.235107 70.265381 Q 206.861816 69.677246 206.147461 69.677246 Q 205.433105 69.677246 205.067871 70.262695 Q 204.702637 70.848145 204.702637 71.997559 Z " fill="rgb(0, 0, 0)" fill-opacity="1.000000" />
<path d="M 226.878906 78.319336 L 226.878906 64.300781 L 227.738281 64.300781 L 227.738281 78.319336 Z " fill="rgb(0, 0, 0)" fill-opacity="1.000000" />
<path d="M 62.892578 59.335938 L 62.892578 58.412109 L 69.729980 58.412109 L 69.729980 59.335938 Z " fill="rgb(0, 0, 0)" fill-opacity="1.000000" />
<path d="M 69.892578 59.335938 L 69.892578 58.412109 L 76.729980 58.412109 L 76.729980 59.335938 Z " fill="rgb(0, 0, 0)" fill-opacity="1.000000" />
<path d="M 76.892578 59.335938 L 76.892578 58.412109 L 83.729980 58.412109 L 83.729980 59.335938 Z " fill="rgb(0, 0, 0)" fill-opacity="1.000000" />
<path d="M 83.892578 59.335938 L 83.892578 58.412109 L 90.729980 58.412109 L 90.729980 59.335938 Z " fill="rgb(0, 0, 0)" fill-opacity="1.000000" />
<path d="M 90.892578 59.335938 L 90.892578 58.412109 L 97.729980 58.412109 L 97.729980 59.335938 Z " fill="rgb(0, 0, 0)" fill-opacity="1.000000" />
<path d="M 97.892578 59.335938 L 97.892578 58.412109 L 104.729980 58.412109 L 104.729980 59.335938 Z " fill="rgb(0, 0, 0)" fill-opacity="1.000000" />
<path d="M 104.892578 59.335938 L 104.892578 58.412109 L 111.729980 58.412109 L 111.729980 59.335938 Z " fill="rgb(0, 0, 0)" fill-opacity="1.000000" />
<path d="M 114.878906 65.319336 L 114.878906 59.335938 L 111.892578 59.335938 L 111.892578 58.412109 L 115.738281 58.412109 L 115.738281 65.319336 Z " fill="rgb(0, 0, 0)" fill-opacity="1.000000" />
<path d="M 142.878906 65.319336 L 142.878906 51.300781 L 143.738281 51.300781 L 143.738281 65.319336 Z " fill="rgb(0, 0, 0)" fill-opacity="1.000000" />
<path d="M 170.878906 65.319336 L 170.878906 58.412109 L 174.729980 58.412109 L 174.729980 59.335938 L 171.738281 59.335938 L 171.738281 65.319336 Z " fill="rgb(0, 0, 0)" fill-opacity="1.000000" />
<path d="M 174.892578 59.335938 L 174.892578 58.412109 L 181.729980 58.412109 L 181.729980 59.335938 Z " fill="rgb(0, 0, 0)" fill-opacity="1.000000" />
<path d="M 181.892578 59.335938 L 181.892578 58.412109 L 188.729980 58.412109 L 188.729980 59.335938 Z " fill="rgb(0, 0, 0)" fill-opacity="1.000000" />
<path d="M 188.892578 59.335938 L 188.892578 58.412109 L 195.729980 58.412109 L 195.729980 59.335938 Z " fill="rgb(0, 0, 0)" fill-opacity="1.000000" />
<path d="M 195.892578 59.335938 L 195.892578 58.412109 L 202.729980 58.412109 L 202.729980 59.335938 Z " fill="rgb(0, 0, 0)" fill-opacity="1.000000" />
<path d="M 202.892578 59.335938 L 202.892578 58.412109 L 209.729980 58.412109 L 209.729980 59.335938 Z " fill="rgb(0, 0, 0)" fill-opacity="1.000000" />
<path d="M 209.892578 59.335938 L 209.892578 58.412109 L 216.729980 58.412109 L 216.729980 59.335938 Z " fill="rgb(0, 0, 0)" fill-opacity="1.000000" />
<path d="M 216.892578 59.335938 L 216.892578 58.412109 L 223.729980 58.412109 L 223.729980 59.335938 Z " fill="rgb(0, 0, 0)" fill-opacity="1.000000" />
<path d="M 226.878906 65.319336 L 226.878906 59.335938 L 223.892578 59.335938 L 223.892578 58.412109 L 227.738281 58.412109 L 227.738281 65.319336 Z " fill="rgb(0, 0, 0)" fill-opacity="1.000000" />
<path d="M 114.878906 13.319336 L 114.878906 6.412109 L 118.729980 6.412109 L 118.729980 7.335938 L 115.738281 7.335938 L 115.738281 13.319336 Z " fill="rgb(0, 0, 0)" fill-opacity="1.000000" />
<path d="M 114.878906 26.319336 L 114.878906 12.300781 L 115.738281 12.300781 L 115.738281 26.319336 Z " fill="rgb(0, 0, 0)" fill-opacity="1.000000" />
<path d="M 114.878906 33.335938 L 114.878906 25.300781 L 115.738281 25.300781 L 115.738281 32.412109 L 118.729980 32.412109 L 118.729980 33.335938 Z " fill="rgb(0, 0, 0)" fill-opacity="1.000000" />
<path d="M 142.878906 52.319336 L 142.878906 38.300781 L 143.738281 38.300781 L 143.738281 52.319336 Z " fill="rgb(0, 0, 0)" fill-opacity="1.000000" />
<path d="M 118.892578 33.335938 L 118.892578 32.412109 L 125.729980 32.412109 L 125.729980 33.335938 Z " fill="rgb(0, 0, 0)" fill-opacity="1.000000" />
<path d="M 125.892578 33.335938 L 125.892578 32.412109 L 132.729980 32.412109 L 132.729980 33.335938 Z " fill="rgb(0, 0, 0)" fill-opacity="1.000000" />
<path d="M 132.892578 33.335938 L 132.892578 32.412109 L 139.729980 32.412109 L 139.729980 33.335938 Z " fill="rgb(0, 0, 0)" fill-opacity="1.000000" />
<path d="M 139.892578 33.335938 L 139.892578 32.412109 L 146.729980 32.412109 L 146.729980 33.335938 Z " fill="rgb(0, 0, 0)" fill-opacity="1.000000" />
<path d="M 146.892578 33.335938 L 146.892578 32.412109 L 153.729980 32.412109 L 153.729980 33.335938 Z " fill="rgb(0, 0, 0)" fill-opacity="1.000000" />
<path d="M 153.892578 33.335938 L 153.892578 32.412109 L 160.729980 32.412109 L 160.729980 33.335938 Z " fill="rgb(0, 0, 0)" fill-opacity="1.000000" />
<path d="M 160.892578 33.335938 L 160.892578 32.412109 L 167.729980 32.412109 L 167.729980 33.335938 Z " fill="rgb(0, 0, 0)" fill-opacity="1.000000" />
<path d="M 167.892578 33.335938 L 167.892578 32.412109 L 170.878906 32.412109 L 170.878906 25.300781 L 171.738281 25.300781 L 171.738281 33.335938 Z " fill="rgb(0, 0, 0)" fill-opacity="1.000000" />
<path d="M 139.203613 18.225098 Q 138.886719 17.978027 138.559082 17.865234 Q 138.231445 17.752441 137.839355 17.752441 Q 136.915527 17.752441 136.426758 18.332520 Q 135.937988 18.912598 135.937988 20.008301 L 135.937988 23.000000 L 134.944336 23.000000 L 134.944336 16.984375 L 135.937988 16.984375 L 135.937988 18.160645 Q 136.185059 17.521484 136.697998 17.180420 Q 137.210938 16.839355 137.914551 16.839355 Q 138.279785 16.839355 138.596680 16.930664 Q 138.913574 17.021973 139.203613 17.215332 Z " fill="rgb(0, 0, 0)" fill-opacity="1.000000" />
<path d="M 141.047363 20.722656 L 141.047363 16.995117 L 142.035645 16.995117 L 142.035645 20.722656 Q 142.035645 21.533691 142.322998 21.915039 Q 142.610352 22.296387 143.211914 22.296387 Q 143.910156 22.296387 144.280762 21.804932 Q 144.651367 21.313477 144.651367 20.395020 L 144.651367 16.995117 L 145.645020 16.995117 L 145.645020 23.000000 L 144.651367 23.000000 L 144.651367 22.097656 Q 144.388184 22.618652 143.934326 22.887207 Q 143.480469 23.155762 142.873535 23.155762 Q 141.949707 23.155762 141.498535 22.551514 Q 141.047363 21.947266 141.047363 20.722656 Z " fill="rgb(0, 0, 0)" fill-opacity="1.000000" />
<path d="M 151.930664 19.997559 Q 151.930664 18.848145 151.565430 18.262695 Q 151.200195 17.677246 150.485840 17.677246 Q 149.766113 17.677246 149.395508 18.265381 Q 149.024902 18.853516 149.024902 19.997559 Q 149.024902 21.136230 149.395508 21.727051 Q 149.766113 22.317871 150.485840 22.317871 Q 151.200195 22.317871 151.565430 21.732422 Q 151.930664 21.146973 151.930664 19.997559 Z M 149.024902 17.752441 Q 149.261230 17.312012 149.677490 17.075684 Q 150.093750 16.839355 150.641602 16.839355 Q 151.726562 16.839355 152.349609 17.674561 Q 152.972656 18.509766 152.972656 19.976074 Q 152.972656 21.463867 152.346924 22.309814 Q 151.721191 23.155762 150.630859 23.155762 Q 150.093750 23.155762 149.682861 22.922119 Q 149.271973 22.688477 149.024902 22.242676 L 149.024902 23.000000 L 148.036621 23.000000 L 148.036621 14.642578 L 149.024902 14.642578 Z " fill="rgb(0, 0, 0)" fill-opacity="1.000000" />
<path d="M 170.878906 26.319336 L 170.878906 12.300781 L 171.738281 12.300781 L 171.738281 26.319336 Z " fill="rgb(0, 0, 0)" fill-opacity="1.000000" />
<path d="M 118.892578 7.335938 L 118.892578 6.412109 L 125.729980 6.412109 L 125.729980 7.335938 Z " fill="rgb(0, 0, 0)" fill-opacity="1.000000" />
<path d="M 125.892578 7.335938 L 125.892578 6.412109 L 132.729980 6.412109 L 132.729980 7.335938 Z " fill="rgb(0, 0, 0)" fill-opacity="1.000000" />
<path d="M 132.892578 7.335938 L 132.892578 6.412109 L 139.729980 6.412109 L 139.729980 7.335938 Z " fill="rgb(0, 0, 0)" fill-opacity="1.000000" />
<path d="M 139.892578 7.335938 L 139.892578 6.412109 L 146.729980 6.412109 L 146.729980 7.335938 Z " fill="rgb(0, 0, 0)" fill-opacity="1.000000" />
<path d="M 146.892578 7.335938 L 146.892578 6.412109 L 153.729980 6.412109 L 153.729980 7.335938 Z " fill="rgb(0, 0, 0)" fill-opacity="1.000000" />
<path d="M 153.892578 7.335938 L 153.892578 6.412109 L 160.729980 6.412109 L 160.729980 7.335938 Z " fill="rgb(0, 0, 0)" fill-opacity="1.000000" />
<path d="M 160.892578 7.335938 L 160.892578 6.412109 L 167.729980 6.412109 L 167.729980 7.335938 Z " fill="rgb(0, 0, 0)" fill-opacity="1.000000" />
<path d="M 170.878906 13.319336 L 170.878906 7.335938 L 167.892578 7.335938 L 167.892578 6.412109 L 171.738281 6.412109 L 171.738281 13.319336 Z " fill="rgb(0, 0, 0)" fill-opacity="1.000000" />
</svg>