<svg xmlns="http://www.w3.org/2000/svg" version="1.1" width="309" height="248">
<path d="M 2.449219 117.319336 L 2.449219 109.950195 L 6.729980 109.950195 L 6.729980 111.797852 L 4.167969 111.797852 L 4.167969 117.319336 Z " fill="rgb(0, 0, 0)" fill-opacity="1.000000" />
<path d="M 2.449219 130.319336 L 2.449219 116.300781 L 4.167969 116.300781 L 4.167969 130.319336 Z " fill="rgb(0, 0, 0)" fill-opacity="1.000000" />
<path d="M 2.449219 137.797852 L 2.449219 129.300781 L 4.167969 129.300781 L 4.167969 135.950195 L 6.729980 135.950195 L 6.729980 137.797852 Z " fill="rgb(0, 0, 0)" fill-opacity="1.000000" />
<path d="M 212.878906 169.319336 L 212.878906 162.412109 L 216.729980 162.412109 L 216.729980 163.335938 L 213.738281 163.335938 L 213.738281 169.319336 Z " fill="rgb(0, 0, 0)" fill-opacity="1.000000" />
<path d="M 212.878906 182.319336 L 212.878906 168.300781 L 213.738281 168.300781 L 213.738281 182.319336 Z " fill="rgb(0, 0, 0)" fill-opacity="1.000000" />
<path d="M 212.878906 189.335938 L 212.878906 181.300781 L 213.738281 181.300781 L 213.738281 188.412109 L 216.729980 188.412109 L 216.729980 189.335938 Z " fill="rgb(0, 0, 0)" fill-opacity="1.000000" />
<path d="M 275.089355 228.830078 L 276.979980 228.830078 L 276.979980 231.000000 L 275.089355 231.000000 Z " fill="rgb(0, 0, 0)" fill-opacity="1.000000" />
<path d="M 282.089355 228.830078 L 283.979980 228.830078 L 283.979980 231.000000 L 282.089355 231.000000 Z " fill="rgb(0, 0, 0)" fill-opacity="1.000000" />
<path d="M 289.089355 228.830078 L 290.979980 228.830078 L 290.979980 231.000000 L 289.089355 231.000000 Z " fill="rgb(0, 0, 0)" fill-opacity="1.000000" />
<path d="M 283.308594 205.418945 L 280.032227 198.866211 L 286.590332 198.866211 Z " fill="rgb(0, 0, 0)" fill-opacity="1.000000" />
<path d="M 216.892578 189.335938 L 216.892578 188.412109 L 223.729980 188.412109 L 223.729980 189.335938 Z " fill="rgb(0, 0, 0)" fill-opacity="1.000000" />
<path d="M 223.892578 189.335938 L 223.892578 188.412109 L 230.729980 188.412109 L 230.729980 189.335938 Z " fill="rgb(0, 0, 0)" fill-opacity="1.000000" />
<path d="M 230.892578 189.335938 L 230.892578 188.412109 L 237.729980 188.412109 L 237.729980 189.335938 Z " fill="rgb(0, 0, 0)" fill-opacity="1.000000" />
<path d="M 237.892578 189.335938 L 237.892578 188.412109 L 244.729980 188.412109 L 244.729980 189.335938 Z " fill="rgb(0, 0, 0)" fill-opacity="1.000000" />
<path d="M 244.892578 189.335938 L 244.892578 188.412109 L 251.729980 188.412109 L 251.729980 189.335938 Z " fill="rgb(0, 0, 0)" fill-opacity="1.000000" />
<path d="M 251.892578 189.335938 L 251.892578 188.412109 L 258.729980 188.412109 L 258.729980 189.335938 Z " fill="rgb(0, 0, 0)" fill-opacity="1.000000" />
<path d="M 258.892578 189.335938 L 258.892578 188.412109 L 265.729980 188.412109 L 265.729980 189.335938 Z " fill="rgb(0, 0, 0)" fill-opacity="1.000000" />
<path d="M 265.892578 189.335938 L 265.892578 188.412109 L 268.878906 188.412109 L 268.878906 181.300781 L 269.738281 181.300781 L 269.738281 189.335938 Z " fill="rgb(0, 0, 0)" fill-opacity="1.000000" />
<path d="M 282.878906 195.319336 L 282.878906 181.300781 L 283.738281 181.300781 L 283.738281 195.319336 Z " fill="rgb(0, 0, 0)" fill-opacity="1.000000" />
<path d="M 237.203613 174.225098 Q 236.886719 173.978027 236.559082 173.865234 Q 236.231445 173.752441 235.839355 173.752441 Q 234.915527 173.752441 234.426758 174.332520 Q 233.937988 174.912598 233.937988 176.008301 L 233.937988 179.000000 L 232.944336 179.000000 L 232.944336 172.984375 L 233.937988 172.984375 L 233.937988 174.160645 Q 234.185059 173.521484 234.697998 173.180420 Q 235.210938 172.839355 235.914551 172.839355 Q 236.279785 172.839355 236.596680 172.930664 Q 236.913574 173.021973 237.203613 173.215332 Z " fill="rgb(0, 0, 0)" fill-opacity="1.000000" />
<path d="M 239.047363 176.722656 L 239.047363 172.995117 L 240.035645 172.995117 L 240.035645 176.722656 Q 240.035645 177.533691 240.322998 177.915039 Q 240.610352 178.296387 241.211914 178.296387 Q 241.910156 178.296387 242.280762 177.804932 Q 242.651367 177.313477 242.651367 176.395020 L 242.651367 172.995117 L 243.645020 172.995117 L 243.645020 179.000000 L 242.651367 179.000000 L 242.651367 178.097656 Q 242.388184 178.618652 241.934326 178.887207 Q 241.480469 179.155762 240.873535 179.155762 Q 239.949707 179.155762 239.498535 178.551514 Q 239.047363 177.947266 239.047363 176.722656 Z " fill="rgb(0, 0, 0)" fill-opacity="1.000000" />
<path d="M 249.930664 175.997559 Q 249.930664 174.848145 249.565430 174.262695 Q 249.200195 173.677246 248.485840 173.677246 Q 247.766113 173.677246 247.395508 174.265381 Q 247.024902 174.853516 247.024902 175.997559 Q 247.024902 177.136230 247.395508 177.727051 Q 247.766113 178.317871 248.485840 178.317871 Q 249.200195 178.317871 249.565430 177.732422 Q 249.930664 177.146973 249.930664 175.997559 Z M 247.024902 173.752441 Q 247.261230 173.312012 247.677490 173.075684 Q 248.093750 172.839355 248.641602 172.839355 Q 249.726562 172.839355 250.349609 173.674561 Q 250.972656 174.509766 250.972656 175.976074 Q 250.972656 177.463867 250.346924 178.309814 Q 249.721191 179.155762 248.630859 179.155762 Q 248.093750 179.155762 247.682861 178.922119 Q 247.271973 178.688477 247.024902 178.242676 L 247.024902 179.000000 L 246.036621 179.000000 L 246.036621 170.642578 L 247.024902 170.642578 Z " fill="rgb(0, 0, 0)" fill-opacity="1.000000" />
<path d="M 268.878906 182.319336 L 268.878906 168.300781 L 269.738281 168.300781 L 269.738281 182.319336 Z " fill="rgb(0, 0, 0)" fill-opacity="1.000000" />
<path d="M 272.892578 176.335938 L 272.892578 175.412109 L 279.729980 175.412109 L 279.729980 176.335938 Z " fill="rgb(0, 0, 0)" fill-opacity="1.000000" />
<path d="M 282.878906 182.319336 L 282.878906 176.335938 L 279.892578 176.335938 L 279.892578 175.412109 L 283.738281 175.412109 L 283.738281 182.319336 Z " fill="rgb(0, 0, 0)" fill-opacity="1.000000" />
<path d="M 216.892578 163.335938 L 216.892578 162.412109 L 223.729980 162.412109 L 223.729980 163.335938 Z " fill="rgb(0, 0, 0)" fill-opacity="1.000000" />
<path d="M 223.892578 163.335938 L 223.892578 162.412109 L 230.729980 162.412109 L 230.729980 163.335938 Z " fill="rgb(0, 0, 0)" fill-opacity="1.000000" />
<path d="M 230.892578 163.335938 L 230.892578 162.412109 L 237.729980 162.412109 L 237.729980 163.335938 Z " fill="rgb(0, 0, 0)" fill-opacity="1.000000" />
<path d="M 237.892578 163.335938 L 237.892578 162.412109 L 244.729980 162.412109 L 244.729980 163.335938 Z " fill="rgb(0, 0, 0)" fill-opacity="1.000000" />
<path d="M 244.892578 163.335938 L 244.892578 162.412109 L 251.729980 162.412109 L 251.729980 163.335938 Z " fill="rgb(0, 0, 0)" fill-opacity="1.000000" />
<path d="M 251.892578 163.335938 L 251.892578 162.412109 L 258.729980 162.412109 L 258.729980 163.335938 Z " fill="rgb(0, 0, 0)" fill-opacity="1.000000" />
<path d="M 258.892578 163.335938 L 258.892578 162.412109 L 265.729980 162.412109 L 265.729980 163.335938 Z " fill="rgb(0, 0, 0)" fill-opacity="1.000000" />
<path d="M 268.878906 169.319336 L 268.878906 163.335938 L 265.892578 163.335938 L 265.892578 162.412109 L 269.738281 162.412109 L 269.738281 169.319336 Z " fill="rgb(0, 0, 0)" fill-opacity="1.000000" />
<path d="M 241.308594 153.418945 L 238.032227 146.866211 L 244.590332 146.866211 Z " fill="rgb(0, 0, 0)" fill-opacity="1.000000" />
<path d="M 6.892578 137.797852 L 6.892578 135.950195 L 13.729980 135.950195 L 13.729980 137.797852 Z " fill="rgb(0, 0, 0)" fill-opacity="1.000000" />
<path d="M 13.892578 137.797852 L 13.892578 135.950195 L 20.729980 135.950195 L 20.729980 137.797852 Z " fill="rgb(0, 0, 0)" fill-opacity="1.000000" />
<path d="M 20.892578 137.797852 L 20.892578 135.950195 L 27.729980 135.950195 L 27.729980 137.797852 Z " fill="rgb(0, 0, 0)" fill-opacity="1.000000" />
<path d="M 27.892578 137.797852 L 27.892578 135.950195 L 34.729980 135.950195 L 34.729980 137.797852 Z " fill="rgb(0, 0, 0)" fill-opacity="1.000000" />
<path d="M 34.892578 137.797852 L 34.892578 135.950195 L 41.729980 135.950195 L 41.729980 137.797852 Z " fill="rgb(0, 0, 0)" fill-opacity="1.000000" />
<path d="M 41.892578 137.797852 L 41.892578 135.950195 L 48.729980 135.950195 L 48.729980 137.797852 Z " fill="rgb(0, 0, 0)" fill-opacity="1.000000" />
<path d="M 48.892578 137.797852 L 48.892578 135.950195 L 55.729980 135.950195 L 55.729980 137.797852 Z " fill="rgb(0, 0, 0)" fill-opacity="1.000000" />
<path d="M 55.892578 137.797852 L 55.892578 135.950195 L 58.449219 135.950195 L 58.449219 129.300781 L 60.167969 129.300781 L 60.167969 137.797852 Z " fill="rgb(0, 0, 0)" fill-opacity="1.000000" />
<path d="M 170.878906 137.335938 L 170.878906 129.300781 L 171.738281 129.300781 L 171.738281 136.412109 L 174.729980 136.412109 L 174.729980 137.335938 Z " fill="rgb(0, 0, 0)" fill-opacity="1.000000" />
<path d="M 174.892578 137.335938 L 174.892578 136.412109 L 181.729980 136.412109 L 181.729980 137.335938 Z " fill="rgb(0, 0, 0)" fill-opacity="1.000000" />
<path d="M 181.892578 137.335938 L 181.892578 136.412109 L 188.729980 136.412109 L 188.729980 137.335938 Z " fill="rgb(0, 0, 0)" fill-opacity="1.000000" />
<path d="M 188.892578 137.335938 L 188.892578 136.412109 L 195.729980 136.412109 L 195.729980 137.335938 Z " fill="rgb(0, 0, 0)" fill-opacity="1.000000" />
<path d="M 195.892578 137.335938 L 195.892578 136.412109 L 202.729980 136.412109 L 202.729980 137.335938 Z " fill="rgb(0, 0, 0)" fill-opacity="1.000000" />
<path d="M 202.892578 137.335938 L 202.892578 136.412109 L 209.729980 136.412109 L 209.729980 137.335938 Z " fill="rgb(0, 0, 0)" fill-opacity="1.000000" />
<path d="M 209.892578 137.335938 L 209.892578 136.412109 L 216.729980 136.412109 L 216.729980 137.335938 Z " fill="rgb(0, 0, 0)" fill-opacity="1.000000" />
<path d="M 216.892578 137.335938 L 216.892578 136.412109 L 223.729980 136.412109 L 223.729980 137.335938 Z " fill="rgb(0, 0, 0)" fill-opacity="1.000000" />
<path d="M 223.892578 137.335938 L 223.892578 136.412109 L 226.878906 136.412109 L 226.878906 129.300781 L 227.738281 129.300781 L 227.738281 137.335938 Z " fill="rgb(0, 0, 0)" fill-opacity="1.000000" />
<path d="M 240.878906 143.319336 L 240.878906 129.300781 L 241.738281 129.300781 L 241.738281 143.319336 Z " fill="rgb(0, 0, 0)" fill-opacity="1.000000" />
<path d="M 24.861816 124.824707 Q 24.861816 125.490723 25.106201 125.829102 Q 25.350586 126.167480 25.828613 126.167480 L 26.983398 126.167480 L 26.983398 127.000000 L 25.731934 127.000000 Q 24.845703 127.000000 24.359619 126.433350 Q 23.873535 125.866699 23.873535 124.824707 L 23.873535 119.383789 L 22.289062 119.383789 L 22.289062 118.610352 L 24.861816 118.610352 Z " fill="rgb(0, 0, 0)" fill-opacity="1.000000" />
<path d="M 29.697266 121.005859 L 32.227051 121.005859 L 32.227051 126.231934 L 34.187500 126.231934 L 34.187500 127.000000 L 29.278320 127.000000 L 29.278320 126.231934 L 31.238770 126.231934 L 31.238770 121.773926 L 29.697266 121.773926 Z M 31.238770 118.669434 L 32.227051 118.669434 L 32.227051 119.915527 L 31.238770 119.915527 Z " fill="rgb(0, 0, 0)" fill-opacity="1.000000" />
<path d="M 41.203613 122.225098 Q 40.886719 121.978027 40.559082 121.865234 Q 40.231445 121.752441 39.839355 121.752441 Q 38.915527 121.752441 38.426758 122.332520 Q 37.937988 122.912598 37.937988 124.008301 L 37.937988 127.000000 L 36.944336 127.000000 L 36.944336 120.984375 L 37.937988 120.984375 L 37.937988 122.160645 Q 38.185059 121.521484 38.697998 121.180420 Q 39.210938 120.839355 39.914551 120.839355 Q 40.279785 120.839355 40.596680 120.930664 Q 40.913574 121.021973 41.203613 121.215332 Z " fill="rgb(0, 0, 0)" fill-opacity="1.000000" />
<path d="M 58.449219 130.319336 L 58.449219 116.300781 L 60.167969 116.300781 L 60.167969 130.319336 Z " fill="rgb(0, 0, 0)" fill-opacity="1.000000" />
<path d="M 170.878906 130.319336 L 170.878906 116.300781 L 171.738281 116.300781 L 171.738281 130.319336 Z " fill="rgb(0, 0, 0)" fill-opacity="1.000000" />
<path d="M 195.015625 123.498047 L 195.015625 123.981445 L 190.734863 123.981445 L 190.734863 124.013672 Q 190.691895 125.243652 191.204834 125.780762 Q 191.717773 126.317871 192.652344 126.317871 Q 193.125000 126.317871 193.640625 126.167480 Q 194.156250 126.017090 194.741699 125.710938 L 194.741699 126.693848 Q 194.177734 126.924805 193.654053 127.040283 Q 193.130371 127.155762 192.641602 127.155762 Q 191.239746 127.155762 190.450195 126.315186 Q 189.660645 125.474609 189.660645 123.997559 Q 189.660645 122.558105 190.434082 121.698730 Q 191.207520 120.839355 192.496582 120.839355 Q 193.645996 120.839355 194.309326 121.618164 Q 194.972656 122.396973 195.015625 123.498047 Z M 194.027344 123.208008 Q 193.962891 122.584961 193.573486 122.131104 Q 193.184082 121.677246 192.453613 121.677246 Q 191.739258 121.677246 191.277344 122.149902 Q 190.815430 122.622559 190.772461 123.213379 Z " fill="rgb(0, 0, 0)" fill-opacity="1.000000" />
<path d="M 197.047363 124.722656 L 197.047363 120.995117 L 198.035645 120.995117 L 198.035645 124.722656 Q 198.035645 125.533691 198.322998 125.915039 Q 198.610352 126.296387 199.211914 126.296387 Q 199.910156 126.296387 200.280762 125.804932 Q 200.651367 125.313477 200.651367 124.395020 L 200.651367 120.995117 L 201.645020 120.995117 L 201.645020 127.000000 L 200.651367 127.000000 L 200.651367 126.097656 Q 200.388184 126.618652 199.934326 126.887207 Q 199.480469 127.155762 198.873535 127.155762 Q 197.949707 127.155762 197.498535 126.551514 Q 197.047363 125.947266 197.047363 124.722656 Z " fill="rgb(0, 0, 0)" fill-opacity="1.000000" />
<path d="M 209.203613 122.225098 Q 208.886719 121.978027 208.559082 121.865234 Q 208.231445 121.752441 207.839355 121.752441 Q 206.915527 121.752441 206.426758 122.332520 Q 205.937988 122.912598 205.937988 124.008301 L 205.937988 127.000000 L 204.944336 127.000000 L 204.944336 120.984375 L 205.937988 120.984375 L 205.937988 122.160645 Q 206.185059 121.521484 206.697998 121.180420 Q 207.210938 120.839355 207.914551 120.839355 Q 208.279785 120.839355 208.596680 120.930664 Q 208.913574 121.021973 209.203613 121.215332 Z " fill="rgb(0, 0, 0)" fill-opacity="1.000000" />
<path d="M 226.878906 130.319336 L 226.878906 116.300781 L 227.738281 116.300781 L 227.738281 130.319336 Z " fill="rgb(0, 0, 0)" fill-opacity="1.000000" />
<path d="M 230.892578 124.335938 L 230.892578 123.412109 L 237.729980 123.412109 L 237.729980 124.335938 Z " fill="rgb(0, 0, 0)" fill-opacity="1.000000" />
<path d="M 240.878906 130.319336 L 240.878906 124.335938 L 237.892578 124.335938 L 237.892578 123.412109 L 241.738281 123.412109 L 241.738281 130.319336 Z " fill="rgb(0, 0, 0)" fill-opacity="1.000000" />
<path d="M 6.892578 111.797852 L 6.892578 109.950195 L 13.729980 109.950195 L 13.729980 111.797852 Z " fill="rgb(0, 0, 0)" fill-opacity="1.000000" />
<path d="M 13.892578 111.797852 L 13.892578 109.950195 L 20.729980 109.950195 L 20.729980 111.797852 Z " fill="rgb(0, 0, 0)" fill-opacity="1.000000" />
<path d="M 20.892578 111.797852 L 20.892578 109.950195 L 27.729980 109.950195 L 27.729980 111.797852 Z " fill="rgb(0, 0, 0)" fill-opacity="1.000000" />
<path d="M 27.892578 111.797852 L 27.892578 109.950195 L 34.729980 109.950195 L 34.729980 111.797852 Z " fill="rgb(0, 0, 0)" fill-opacity="1.000000" />
<path d="M 34.892578 111.797852 L 34.892578 109.950195 L 41.729980 109.950195 L 41.729980 111.797852 Z " fill="rgb(0, 0, 0)" fill-opacity="1.000000" />
<path d="M 41.892578 111.797852 L 41.892578 109.950195 L 48.729980 109.950195 L 48.729980 111.797852 Z " fill="rgb(0, 0, 0)" fill-opacity="1.000000" />
<path d="M 48.892578 111.797852 L 48.892578 109.950195 L 55.729980 109.950195 L 55.729980 111.797852 Z " fill="rgb(0, 0, 0)" fill-opacity="1.000000" />
<path d="M 58.449219 117.319336 L 58.449219 111.797852 L 55.892578 111.797852 L 55.892578 109.950195 L 60.167969 109.950195 L 60.167969 117.319336 Z " fill="rgb(0, 0, 0)" fill-opacity="1.000000" />
<path d="M 170.878906 117.319336 L 170.878906 110.412109 L 174.729980 110.412109 L 174.729980 111.335938 L 171.738281 111.335938 L 171.738281 117.319336 Z " fill="rgb(0, 0, 0)" fill-opacity="1.000000" />
<path d="M 174.892578 111.335938 L 174.892578 110.412109 L 181.729980 110.412109 L 181.729980 111.335938 Z " fill="rgb(0, 0, 0)" fill-opacity="1.000000" />
<path d="M 181.892578 111.335938 L 181.892578 110.412109 L 188.729980 110.412109 L 188.729980 111.335938 Z " fill="rgb(0, 0, 0)" fill-opacity="1.000000" />
<path d="M 188.892578 111.335938 L 188.892578 110.412109 L 195.729980 110.412109 L 195.729980 111.335938 Z " fill="rgb(0, 0, 0)" fill-opacity="1.000000" />
<path d="M 195.892578 111.335938 L 195.892578 110.412109 L 202.729980 110.412109 L 202.729980 111.335938 Z " fill="rgb(0, 0, 0)" fill-opacity="1.000000" />
<path d="M 202.892578 111.335938 L 202.892578 110.412109 L 209.729980 110.412109 L 209.729980 111.335938 Z " fill="rgb(0, 0, 0)" fill-opacity="1.000000" />
<path d="M 209.892578 111.335938 L 209.892578 110.412109 L 216.729980 110.412109 L 216.729980 111.335938 Z " fill="rgb(0, 0, 0)" fill-opacity="1.000000" />
<path d="M 216.892578 111.335938 L 216.892578 110.412109 L 223.729980 110.412109 L 223.729980 111.335938 Z " fill="rgb(0, 0, 0)" fill-opacity="1.000000" />
<path d="M 226.878906 117.319336 L 226.878906 111.335938 L 223.892578 111.335938 L 223.892578 110.412109 L 227.738281 110.412109 L 227.738281 117.319336 Z " fill="rgb(0, 0, 0)" fill-opacity="1.000000" />
<path d="M 30.878906 78.319336 L 30.878906 71.412109 L 34.729980 71.412109 L 34.729980 72.335938 L 31.738281 72.335938 L 31.738281 78.319336 Z " fill="rgb(0, 0, 0)" fill-opacity="1.000000" />
<path d="M 30.878906 91.319336 L 30.878906 77.300781 L 31.738281 77.300781 L 31.738281 91.319336 Z " fill="rgb(0, 0, 0)" fill-opacity="1.000000" />
<path d="M 31.308594 101.418945 L 28.032227 94.866211 L 34.590332 94.866211 Z " fill="rgb(0, 0, 0)" fill-opacity="1.000000" />
<path d="M 199.308594 101.418945 L 196.032227 94.866211 L 202.590332 94.866211 Z " fill="rgb(0, 0, 0)" fill-opacity="1.000000" />
<path d="M 44.878906 85.335938 L 44.878906 77.300781 L 45.738281 77.300781 L 45.738281 84.412109 L 48.729980 84.412109 L 48.729980 85.335938 Z " fill="rgb(0, 0, 0)" fill-opacity="1.000000" />
<path d="M 48.892578 85.335938 L 48.892578 84.412109 L 55.729980 84.412109 L 55.729980 85.335938 Z " fill="rgb(0, 0, 0)" fill-opacity="1.000000" />
<path d="M 55.892578 85.335938 L 55.892578 84.412109 L 62.729980 84.412109 L 62.729980 85.335938 Z " fill="rgb(0, 0, 0)" fill-opacity="1.000000" />
<path d="M 62.892578 85.335938 L 62.892578 84.412109 L 69.729980 84.412109 L 69.729980 85.335938 Z " fill="rgb(0, 0, 0)" fill-opacity="1.000000" />
<path d="M 69.892578 85.335938 L 69.892578 84.412109 L 76.729980 84.412109 L 76.729980 85.335938 Z " fill="rgb(0, 0, 0)" fill-opacity="1.000000" />
<path d="M 76.892578 85.335938 L 76.892578 84.412109 L 83.729980 84.412109 L 83.729980 85.335938 Z " fill="rgb(0, 0, 0)" fill-opacity="1.000000" />
<path d="M 83.892578 85.335938 L 83.892578 84.412109 L 90.729980 84.412109 L 90.729980 85.335938 Z " fill="rgb(0, 0, 0)" fill-opacity="1.000000" />
<path d="M 90.892578 85.335938 L 90.892578 84.412109 L 97.729980 84.412109 L 97.729980 85.335938 Z " fill="rgb(0, 0, 0)" fill-opacity="1.000000" />
<path d="M 97.892578 85.335938 L 97.892578 84.412109 L 100.878906 84.412109 L 100.878906 77.300781 L 101.738281 77.300781 L 101.738281 85.335938 Z " fill="rgb(0, 0, 0)" fill-opacity="1.000000" />
<path d="M 128.878906 85.335938 L 128.878906 77.300781 L 129.738281 77.300781 L 129.738281 84.412109 L 132.729980 84.412109 L 132.729980 85.335938 Z " fill="rgb(0, 0, 0)" fill-opacity="1.000000" />
<path d="M 132.892578 85.335938 L 132.892578 84.412109 L 139.729980 84.412109 L 139.729980 85.335938 Z " fill="rgb(0, 0, 0)" fill-opacity="1.000000" />
<path d="M 139.892578 85.335938 L 139.892578 84.412109 L 146.729980 84.412109 L 146.729980 85.335938 Z " fill="rgb(0, 0, 0)" fill-opacity="1.000000" />
<path d="M 146.892578 85.335938 L 146.892578 84.412109 L 153.729980 84.412109 L 153.729980 85.335938 Z " fill="rgb(0, 0, 0)" fill-opacity="1.000000" />
<path d="M 153.892578 85.335938 L 153.892578 84.412109 L 160.729980 84.412109 L 160.729980 85.335938 Z " fill="rgb(0, 0, 0)" fill-opacity="1.000000" />
<path d="M 160.892578 85.335938 L 160.892578 84.412109 L 167.729980 84.412109 L 167.729980 85.335938 Z " fill="rgb(0, 0, 0)" fill-opacity="1.000000" />
<path d="M 167.892578 85.335938 L 167.892578 84.412109 L 174.729980 84.412109 L 174.729980 85.335938 Z " fill="rgb(0, 0, 0)" fill-opacity="1.000000" />
<path d="M 174.892578 85.335938 L 174.892578 84.412109 L 181.729980 84.412109 L 181.729980 85.335938 Z " fill="rgb(0, 0, 0)" fill-opacity="1.000000" />
<path d="M 181.892578 85.335938 L 181.892578 84.412109 L 184.878906 84.412109 L 184.878906 77.300781 L 185.738281 77.300781 L 185.738281 85.335938 Z " fill="rgb(0, 0, 0)" fill-opacity="1.000000" />
<path d="M 198.878906 91.319336 L 198.878906 77.300781 L 199.738281 77.300781 L 199.738281 91.319336 Z " fill="rgb(0, 0, 0)" fill-opacity="1.000000" />
<path d="M 34.892578 72.335938 L 34.892578 71.412109 L 41.729980 71.412109 L 41.729980 72.335938 Z " fill="rgb(0, 0, 0)" fill-opacity="1.000000" />
<path d="M 44.878906 78.319336 L 44.878906 64.300781 L 45.738281 64.300781 L 45.738281 78.319336 Z " fill="rgb(0, 0, 0)" fill-opacity="1.000000" />
<path d="M 67.608398 73.066406 Q 67.361328 73.694824 66.979980 74.720703 Q 66.448242 76.138672 66.265625 76.450195 Q 66.018555 76.869141 65.647949 77.078613 Q 65.277344 77.288086 64.783203 77.288086 L 63.988281 77.288086 L 63.988281 76.460938 L 64.573730 76.460938 Q 65.008789 76.460938 65.255859 76.208496 Q 65.502930 75.956055 65.884277 74.903320 L 63.558594 68.984375 L 64.605957 68.984375 L 66.389160 73.689453 L 68.145508 68.984375 L 69.192871 68.984375 Z " fill="rgb(0, 0, 0)" fill-opacity="1.000000" />
<path d="M 76.015625 71.498047 L 76.015625 71.981445 L 71.734863 71.981445 L 71.734863 72.013672 Q 71.691895 73.243652 72.204834 73.780762 Q 72.717773 74.317871 73.652344 74.317871 Q 74.125000 74.317871 74.640625 74.167480 Q 75.156250 74.017090 75.741699 73.710938 L 75.741699 74.693848 Q 75.177734 74.924805 74.654053 75.040283 Q 74.130371 75.155762 73.641602 75.155762 Q 72.239746 75.155762 71.450195 74.315186 Q 70.660645 73.474609 70.660645 71.997559 Q 70.660645 70.558105 71.434082 69.698730 Q 72.207520 68.839355 73.496582 68.839355 Q 74.645996 68.839355 75.309326 69.618164 Q 75.972656 70.396973 76.015625 71.498047 Z M 75.027344 71.208008 Q 74.962891 70.584961 74.573486 70.131104 Q 74.184082 69.677246 73.453613 69.677246 Q 72.739258 69.677246 72.277344 70.149902 Q 71.815430 70.622559 71.772461 71.213379 Z " fill="rgb(0, 0, 0)" fill-opacity="1.000000" />
<path d="M 82.645020 71.272461 L 82.645020 75.000000 L 81.651367 75.000000 L 81.651367 71.272461 Q 81.651367 70.461426 81.366699 70.080078 Q 81.082031 69.698730 80.475098 69.698730 Q 79.782227 69.698730 79.408936 70.190186 Q 79.035645 70.681641 79.035645 71.600098 L 79.035645 75.000000 L 78.047363 75.000000 L 78.047363 68.984375 L 79.035645 68.984375 L 79.035645 69.886719 Q 79.298828 69.371094 79.750000 69.105225 Q 80.201172 68.839355 80.818848 68.839355 Q 81.737305 68.839355 82.191162 69.443604 Q 82.645020 70.047852 82.645020 71.272461 Z " fill="rgb(0, 0, 0)" fill-opacity="1.000000" />
<path d="M 100.878906 78.319336 L 100.878906 64.300781 L 101.738281 64.300781 L 101.738281 78.319336 Z " fill="rgb(0, 0, 0)" fill-opacity="1.000000" />
<path d="M 128.878906 78.319336 L 128.878906 64.300781 L 129.738281 64.300781 L 129.738281 78.319336 Z " fill="rgb(0, 0, 0)" fill-opacity="1.000000" />
<path d="M 148.047363 72.722656 L 148.047363 68.995117 L 149.035645 68.995117 L 149.035645 72.722656 Q 149.035645 73.533691 149.322998 73.915039 Q 149.610352 74.296387 150.211914 74.296387 Q 150.910156 74.296387 151.280762 73.804932 Q 151.651367 73.313477 151.651367 72.395020 L 151.651367 68.995117 L 152.645020 68.995117 L 152.645020 75.000000 L 151.651367 75.000000 L 151.651367 74.097656 Q 151.388184 74.618652 150.934326 74.887207 Q 150.480469 75.155762 149.873535 75.155762 Q 148.949707 75.155762 148.498535 74.551514 Q 148.047363 73.947266 148.047363 72.722656 Z " fill="rgb(0, 0, 0)" fill-opacity="1.000000" />
<path d="M 159.226074 69.193848 L 159.226074 70.160645 Q 158.801758 69.913574 158.372070 69.790039 Q 157.942383 69.666504 157.496582 69.666504 Q 156.825195 69.666504 156.494873 69.884033 Q 156.164551 70.101562 156.164551 70.547363 Q 156.164551 70.950195 156.411621 71.148926 Q 156.658691 71.347656 157.641602 71.535645 L 158.039062 71.610840 Q 158.774902 71.750488 159.153564 72.169434 Q 159.532227 72.588379 159.532227 73.259766 Q 159.532227 74.151367 158.898438 74.653564 Q 158.264648 75.155762 157.136719 75.155762 Q 156.690918 75.155762 156.202148 75.061768 Q 155.713379 74.967773 155.144043 74.779785 L 155.144043 73.759277 Q 155.697266 74.043945 156.202148 74.186279 Q 156.707031 74.328613 157.158203 74.328613 Q 157.813477 74.328613 158.173340 74.062744 Q 158.533203 73.796875 158.533203 73.318848 Q 158.533203 72.631348 157.217285 72.368164 L 157.174316 72.357422 L 156.803711 72.282227 Q 155.949707 72.115723 155.557617 71.720947 Q 155.165527 71.326172 155.165527 70.644043 Q 155.165527 69.779297 155.750977 69.309326 Q 156.336426 68.839355 157.421387 68.839355 Q 157.904785 68.839355 158.350586 68.927979 Q 158.796387 69.016602 159.226074 69.193848 Z " fill="rgb(0, 0, 0)" fill-opacity="1.000000" />
<path d="M 165.608398 69.752441 L 165.608398 66.642578 L 166.596680 66.642578 L 166.596680 75.000000 L 165.608398 75.000000 L 165.608398 74.242676 Q 165.361328 74.688477 164.950439 74.922119 Q 164.539551 75.155762 164.002441 75.155762 Q 162.912109 75.155762 162.286377 74.309814 Q 161.660645 73.463867 161.660645 71.976074 Q 161.660645 70.509766 162.289062 69.674561 Q 162.917480 68.839355 164.002441 68.839355 Q 164.544922 68.839355 164.958496 69.072998 Q 165.372070 69.306641 165.608398 69.752441 Z M 162.702637 71.997559 Q 162.702637 73.146973 163.067871 73.732422 Q 163.433105 74.317871 164.147461 74.317871 Q 164.861816 74.317871 165.235107 73.727051 Q 165.608398 73.136230 165.608398 71.997559 Q 165.608398 70.853516 165.235107 70.265381 Q 164.861816 69.677246 164.147461 69.677246 Q 163.433105 69.677246 163.067871 70.262695 Q 162.702637 70.848145 162.702637 71.997559 Z " fill="rgb(0, 0, 0)" fill-opacity="1.000000" />
<path d="M 184.878906 78.319336 L 184.878906 64.300781 L 185.738281 64.300781 L 185.738281 78.319336 Z " fill="rgb(0, 0, 0)" fill-opacity="1.000000" />
<path d="M 188.892578 72.335938 L 188.892578 71.412109 L 195.729980 71.412109 L 195.729980 72.335938 Z " fill="rgb(0, 0, 0)" fill-opacity="1.000000" />
<path d="M 198.878906 78.319336 L 198.878906 72.335938 L 195.892578 72.335938 L 195.892578 71.412109 L 199.738281 71.412109 L 199.738281 78.319336 Z " fill="rgb(0, 0, 0)" fill-opacity="1.000000" />
<path d="M 44.878906 65.319336 L 44.878906 58.412109 L 48.729980 58.412109 L 48.729980 59.335938 L 45.738281 59.335938 L 45.738281 65.319336 Z " fill="rgb(0, 0, 0)" fill-opacity="1.000000" />
<path d="M 48.892578 59.335938 L 48.892578 58.412109 L 55.729980 58.412109 L 55.729980 59.335938 Z " fill="rgb(0, 0, 0)" fill-opacity="1.000000" />
<path d="M 55.892578 59.335938 L 55.892578 58.412109 L 62.729980 58.412109 L 62.729980 59.335938 Z " fill="rgb(0, 0, 0)" fill-opacity="1.000000" />
<path d="M 62.892578 59.335938 L 62.892578 58.412109 L 69.729980 58.412109 L 69.729980 59.335938 Z " fill="rgb(0, 0, 0)" fill-opacity="1.000000" />
<path d="M 69.892578 59.335938 L 69.892578 58.412109 L 76.729980 58.412109 L 76.729980 59.335938 Z " fill="rgb(0, 0, 0)" fill-opacity="1.000000" />
<path d="M 76.892578 59.335938 L 76.892578 58.412109 L 83.729980 58.412109 L 83.729980 59.335938 Z " fill="rgb(0, 0, 0)" fill-opacity="1.000000" />
<path d="M 83.892578 59.335938 L 83.892578 58.412109 L 90.729980 58.412109 L 90.729980 59.335938 Z " fill="rgb(0, 0, 0)" fill-opacity="1.000000" />
<path d="M 90.892578 59.335938 L 90.892578 58.412109 L 97.729980 58.412109 L 97.729980 59.335938 Z " fill="rgb(0, 0, 0)" fill-opacity="1.000000" />
<path d="M 100.878906 65.319336 L 100.878906 59.335938 L 97.892578 59.335938 L 97.892578 58.412109 L 101.738281 58.412109 L 101.738281 65.319336 Z " fill="rgb(0, 0, 0)" fill-opacity="1.000000" />
<path d="M 128.878906 65.319336 L 128.878906 58.412109 L 132.729980 58.412109 L 132.729980 59.335938 L 129.738281 59.335938 L 129.738281 65.319336 Z " fill="rgb(0, 0, 0)" fill-opacity="1.000000" />
<path d="M 132.892578 59.335938 L 132.892578 58.412109 L 139.729980 58.412109 L 139.729980 59.335938 Z " fill="rgb(0, 0, 0)" fill-opacity="1.000000" />
<path d="M 139.892578 59.335938 L 139.892578 58.412109 L 146.729980 58.412109 L 146.729980 59.335938 Z " fill="rgb(0, 0, 0)" fill-opacity="1.000000" />
<path d="M 146.892578 59.335938 L 146.892578 58.412109 L 153.729980 58.412109 L 153.729980 59.335938 Z " fill="rgb(0, 0, 0)" fill-opacity="1.000000" />
<path d="M 153.892578 59.335938 L 153.892578 58.412109 L 160.729980 58.412109 L 160.729980 59.335938 Z " fill="rgb(0, 0, 0)" fill-opacity="1.000000" />
<path d="M 160.892578 59.335938 L 160.892578 58.412109 L 167.729980 58.412109 L 167.729980 59.335938 Z " fill="rgb(0, 0, 0)" fill-opacity="1.000000" />
<path d="M 167.892578 59.335938 L 167.892578 58.412109 L 174.729980 58.412109 L 174.729980 59.335938 Z " fill="rgb(0, 0, 0)" fill-opacity="1.000000" />
<path d="M 174.892578 59.335938 L 174.892578 58.412109 L 181.729980 58.412109 L 181.729980 59.335938 Z " fill="rgb(0, 0, 0)" fill-opacity="1.000000" />
<path d="M 184.878906 65.319336 L 184.878906 59.335938 L 181.892578 59.335938 L 181.892578 58.412109 L 185.738281 58.412109 L 185.738281 65.319336 Z " fill="rgb(0, 0, 0)" fill-opacity="1.000000" />
<path d="M 72.878906 26.319336 L 72.878906 19.412109 L 76.729980 19.412109 L 76.729980 20.335938 L 73.738281 20.335938 L 73.738281 26.319336 Z " fill="rgb(0, 0, 0)" fill-opacity="1.000000" />
<path d="M 72.878906 39.319336 L 72.878906 25.300781 L 73.738281 25.300781 L 73.738281 39.319336 Z " fill="rgb(0, 0, 0)" fill-opacity="1.000000" />
<path d="M 73.308594 49.418945 L 70.032227 42.866211 L 76.590332 42.866211 Z " fill="rgb(0, 0, 0)" fill-opacity="1.000000" />
<path d="M 157.308594 49.418945 L 154.032227 42.866211 L 160.590332 42.866211 Z " fill="rgb(0, 0, 0)" fill-opacity="1.000000" />
<path d="M 86.878906 33.335938 L 86.878906 25.300781 L 87.738281 25.300781 L 87.738281 32.412109 L 90.729980 32.412109 L 90.729980 33.335938 Z " fill="rgb(0, 0, 0)" fill-opacity="1.000000" />
<path d="M 90.892578 33.335938 L 90.892578 32.412109 L 97.729980 32.412109 L 97.729980 33.335938 Z " fill="rgb(0, 0, 0)" fill-opacity="1.000000" />
<path d="M 97.892578 33.335938 L 97.892578 32.412109 L 104.729980 32.412109 L 104.729980 33.335938 Z " fill="rgb(0, 0, 0)" fill-opacity="1.000000" />
<path d="M 104.892578 33.335938 L 104.892578 32.412109 L 111.729980 32.412109 L 111.729980 33.335938 Z " fill="rgb(0, 0, 0)" fill-opacity="1.000000" />
<path d="M 111.892578 33.335938 L 111.892578 32.412109 L 118.729980 32.412109 L 118.729980 33.335938 Z " fill="rgb(0, 0, 0)" fill-opacity="1.000000" />
<path d="M 118.892578 33.335938 L 118.892578 32.412109 L 125.729980 32.412109 L 125.729980 33.335938 Z " fill="rgb(0, 0, 0)" fill-opacity="1.000000" />
<path d="M 125.892578 33.335938 L 125.892578 32.412109 L 132.729980 32.412109 L 132.729980 33.335938 Z " fill="rgb(0, 0, 0)" fill-opacity="1.000000" />
<path d="M 132.892578 33.335938 L 132.892578 32.412109 L 139.729980 32.412109 L 139.729980 33.335938 Z " fill="rgb(0, 0, 0)" fill-opacity="1.000000" />
<path d="M 139.892578 33.335938 L 139.892578 32.412109 L 142.878906 32.412109 L 142.878906 25.300781 L 143.738281 25.300781 L 143.738281 33.335938 Z " fill="rgb(0, 0, 0)" fill-opacity="1.000000" />
<path d="M 156.878906 39.319336 L 156.878906 25.300781 L 157.738281 25.300781 L 157.738281 39.319336 Z " fill="rgb(0, 0, 0)" fill-opacity="1.000000" />
<path d="M 76.892578 20.335938 L 76.892578 19.412109 L 83.729980 19.412109 L 83.729980 20.335938 Z " fill="rgb(0, 0, 0)" fill-opacity="1.000000" />
<path d="M 86.878906 26.319336 L 86.878906 12.300781 L 87.738281 12.300781 L 87.738281 26.319336 Z " fill="rgb(0, 0, 0)" fill-opacity="1.000000" />
<path d="M 111.203613 18.225098 Q 110.886719 17.978027 110.559082 17.865234 Q 110.231445 17.752441 109.839355 17.752441 Q 108.915527 17.752441 108.426758 18.332520 Q 107.937988 18.912598 107.937988 20.008301 L 107.937988 23.000000 L 106.944336 23.000000 L 106.944336 16.984375 L 107.937988 16.984375 L 107.937988 18.160645 Q 108.185059 17.521484 108.697998 17.180420 Q 109.210938 16.839355 109.914551 16.839355 Q 110.279785 16.839355 110.596680 16.930664 Q 110.913574 17.021973 111.203613 17.215332 Z " fill="rgb(0, 0, 0)" fill-opacity="1.000000" />
<path d="M 113.047363 20.722656 L 113.047363 16.995117 L 114.035645 16.995117 L 114.035645 20.722656 Q 114.035645 21.533691 114.322998 21.915039 Q 114.610352 22.296387 115.211914 22.296387 Q 115.910156 22.296387 116.280762 21.804932 Q 116.651367 21.313477 116.651367 20.395020 L 116.651367 16.995117 L 117.645020 16.995117 L 117.645020 23.000000 L 116.651367 23.000000 L 116.651367 22.097656 Q 116.388184 22.618652 115.934326 22.887207 Q 115.480469 23.155762 114.873535 23.155762 Q 113.949707 23.155762 113.498535 22.551514 Q 113.047363 21.947266 113.047363 20.722656 Z " fill="rgb(0, 0, 0)" fill-opacity="1.000000" />
<path d="M 123.930664 19.997559 Q 123.930664 18.848145 123.565430 18.262695 Q 123.200195 17.677246 122.485840 17.677246 Q 121.766113 17.677246 121.395508 18.265381 Q 121.024902 18.853516 121.024902 19.997559 Q 121.024902 21.136230 121.395508 21.727051 Q 121.766113 22.317871 122.485840 22.317871 Q 123.200195 22.317871 123.565430 21.732422 Q 123.930664 21.146973 123.930664 19.997559 Z M 121.024902 17.752441 Q 121.261230 17.312012 121.677490 17.075684 Q 122.093750 16.839355 122.641602 16.839355 Q 123.726562 16.839355 124.349609 17.674561 Q 124.972656 18.509766 124.972656 19.976074 Q 124.972656 21.463867 124.346924 22.309814 Q 123.721191 23.155762 122.630859 23.155762 Q 122.093750 23.155762 121.682861 22.922119 Q 121.271973 22.688477 121.024902 22.242676 L 121.024902 23.000000 L 120.036621 23.000000 L 120.036621 14.642578 L 121.024902 14.642578 Z " fill="rgb(0, 0, 0)" fill-opacity="1.000000" />
<path d="M 142.878906 26.319336 L 142.878906 12.300781 L 143.738281 12.300781 L 143.738281 26.319336 Z " fill="rgb(0, 0, 0)" fill-opacity="1.000000" />
<path d="M 146.892578 20.335938 L 146.892578 19.412109 L 153.729980 19.412109 L 153.729980 20.335938 Z " fill="rgb(0, 0, 0)" fill-opacity="1.000000" />
<path d="M 156.878906 26.319336 L 156.878906 20.335938 L 153.892578 20.335938 L 153.892578 19.412109 L 157.738281 19.412109 L 157.738281 26.319336 Z " fill="rgb(0, 0, 0)" fill-opacity="1.000000" />
<path d="M 86.878906 13.319336 L 86.878906 6.412109 L 90.729980 6.412109 L 90.729980 7.335938 L 87.738281 7.335938 L 87.738281 13.319336 Z " fill="rgb(0, 0, 0)" fill-opacity="1.000000" />
<path d="M 90.892578 7.335938 L 90.892578 6.412109 L 97.729980 6.412109 L 97.729980 7.335938 Z " fill="rgb(0, 0, 0)" fill-opacity="1.000000" />
<path d="M 97.892578 7.335938 L 97.892578 6.412109 L 104.729980 6.412109 L 104.729980 7.335938 Z " fill="rgb(0, 0, 0)" fill-opacity="1.000000" />
<path d="M 104.892578 7.335938 L 104.892578 6.412109 L 111.729980 6.412109 L 111.729980 7.335938 Z " fill="rgb(0, 0, 0)" fill-opacity="1.000000" />
<path d="M 111.892578 7.335938 L 111.892578 6.412109 L 118.729980 6.412109 L 118.729980 7.335938 Z " fill="rgb(0, 0, 0)" fill-opacity="1.000000" />
<path d="M 118.892578 7.335938 L 118.892578 6.412109 L 125.729980 6.412109 L 125.729980 7.335938 Z " fill="rgb(0, 0, 0)" fill-opacity="1.000000" />
<path d="M 125.892578 7.335938 L 125.892578 6.412109 L 132.729980 6.412109 L 132.729980 7.335938 Z " fill="rgb(0, 0, 0)" fill-opacity="1.000000" />
<path d="M 132.892578 7.335938 L 132.892578 6.412109 L 139.729980 6.412109 L 139.729980 7.335938 Z " fill="rgb(0, 0, 0)" fill-opacity="1.000000" />
<path d="M 142.878906 13.319336 L 142.878906 7.335938 L 139.892578 7.335938 L 139.892578 6.412109 L 143.738281 6.412109 L 143.738281 13.319336 Z " fill="rgb(0, 0, 0)" fill-opacity="1.000000" />
</svg>